<svg id="Layer_1" height="512" viewBox="0 0 60 60" width="512" xmlns="http://www.w3.org/2000/svg" data-name="Layer 1"><path d="m42.077 51.054h-29.217a.75.75 0 0 1 -.75-.75v-41.504a3.552 3.552 0 0 1 3.547-3.55h23.622a3.553 3.553 0 0 1 3.548 3.55v41.5a.75.75 0 0 1 -.75.754zm-28.467-1.5h27.717v-40.754a2.051 2.051 0 0 0 -2.048-2.05h-23.622a2.05 2.05 0 0 0 -2.047 2.05z"/><path d="m38.077 25.064h-21.218a.75.75 0 0 1 -.75-.75v-14.314a.75.75 0 0 1 .75-.75h21.218a.75.75 0 0 1 .75.75v14.314a.75.75 0 0 1 -.75.75zm-20.468-1.5h19.718v-12.813h-19.718z"/><path d="m45.4 54.75h-35.861a.75.75 0 0 1 -.75-.75v-1.186a3.265 3.265 0 0 1 3.262-3.26h30.834a3.265 3.265 0 0 1 3.262 3.26v1.186a.75.75 0 0 1 -.747.75zm-35.108-1.5h34.355v-.436a1.763 1.763 0 0 0 -1.762-1.76h-30.834a1.763 1.763 0 0 0 -1.762 1.76z"/><path d="m48.345 42.327a2.868 2.868 0 0 1 -2.865-2.865v-4.413a1.374 1.374 0 0 0 -1.372-1.372h-2.031a.75.75 0 0 1 0-1.5h2.031a2.875 2.875 0 0 1 2.872 2.872v4.413a1.366 1.366 0 0 0 2.731 0v-23.448l-4.406-4.577a.75.75 0 0 1 1.081-1.037l4.614 4.791a.757.757 0 0 1 .21.521v23.75a2.868 2.868 0 0 1 -2.865 2.865z"/><path d="m50.461 24.846a.753.753 0 0 1 -.533-.222l-2.674-2.692a.749.749 0 0 1 -.218-.529v-8.47a.75.75 0 0 1 1.5 0v8.161l2.457 2.473a.751.751 0 0 1 -.532 1.279z"/><path d="m28.223 42.327a5.706 5.706 0 0 1 -3.583-1.3 12.253 12.253 0 0 1 -3.661-7.217 3.322 3.322 0 0 1 .719-2.589.751.751 0 0 1 1.011-.085c1.594 1.233 3.457 1.336 5.258 1.434l.672.039a4.932 4.932 0 0 1 4.168 2.909 4.637 4.637 0 0 1 -.52 4.812q-.141.185-.3.361a5.073 5.073 0 0 1 -3.764 1.636zm-5.7-9.51a3.146 3.146 0 0 0 -.047.879 11.017 11.017 0 0 0 3.109 6.162 3.84 3.84 0 0 0 5.3-.184c.075-.082.148-.169.217-.259a3.159 3.159 0 0 0 .345-3.281 3.437 3.437 0 0 0 -2.9-2.031l-.656-.039a11.154 11.154 0 0 1 -5.369-1.247z"/><path d="m33.223 42.326a.752.752 0 0 1 -.584-.278 17.565 17.565 0 0 0 -6.359-4.7.75.75 0 0 1 .549-1.4 18.81 18.81 0 0 1 6.977 5.152.751.751 0 0 1 -.583 1.222z"/></svg>