<?xml version="1.0"?>
<svg xmlns="http://www.w3.org/2000/svg" viewBox="0 0 64 64" width="512" height="512"><g id="Electric_Car" data-name="Electric Car"><path d="M57,55.25v-.23q0,.3-.03.6C56.98,55.5,57,55.38,57,55.25Z"/><path d="M53,40H47.62l-.81-1.61a18.7935,18.7935,0,0,0-33.62,0l-.82,1.63A9.0179,9.0179,0,0,0,4,49v1H2V21a6.0066,6.0066,0,0,1,6-6h4.0507a11.99,11.99,0,0,0,23.8986,0H41a2.0023,2.0023,0,0,0,2,2h2.142A3.9958,3.9958,0,0,0,49,20h6v1a1,1,0,0,0,2,0V18h4a1,1,0,0,0,0-2H57V12h4a1,1,0,0,0,0-2H57V7a1,1,0,0,0-2,0V8H49a3.9958,3.9958,0,0,0-3.858,3H43a2.0023,2.0023,0,0,0-2,2H35.9493a11.99,11.99,0,0,0-23.8986,0H8a8.0092,8.0092,0,0,0-8,8V51a1,1,0,0,0,1,1H4v5a1.0029,1.0029,0,0,0,1,1h6.6851a6.9847,6.9847,0,0,0,12.63,0h19.37a6.9847,6.9847,0,0,0,12.63,0H63a1.0029,1.0029,0,0,0,1-1V51A11.0066,11.0066,0,0,0,53,40ZM49,10h6v8H49a2.0023,2.0023,0,0,1-2-2V12A2.0023,2.0023,0,0,1,49,10Zm-6,3h2v2H43ZM24,4A10,10,0,1,1,14,14,10.0114,10.0114,0,0,1,24,4ZM18,60a5,5,0,1,1,5-5A5.0059,5.0059,0,0,1,18,60Zm32,0a5,5,0,1,1,5-5A5.0059,5.0059,0,0,1,50,60Zm12-4H56.92a7,7,0,1,0-13.84,0H24.92a7,7,0,1,0-13.84,0H6V49a7.0077,7.0077,0,0,1,7-7,.988.988,0,0,0,.89-.55l1.09-2.16a16.7871,16.7871,0,0,1,30.04,0l1.09,2.16A.988.988,0,0,0,47,42h6a9.0136,9.0136,0,0,1,9,9Z"/><path d="M38.3086,33.3608a15.8046,15.8046,0,0,0-22.8477,7.2447A1,1,0,0,0,16.38,42H43.62a1,1,0,0,0,.92-1.3931A15.7534,15.7534,0,0,0,38.3086,33.3608ZM29,33.0381V40H17.9912A13.8144,13.8144,0,0,1,29,33.0381ZM31,40V33.037A13.8065,13.8065,0,0,1,42.0117,40Z"/><path d="M18,51a4,4,0,1,0,4,4A4.0042,4.0042,0,0,0,18,51Zm0,6a2,2,0,1,1,2-2A2.0023,2.0023,0,0,1,18,57Z"/><path d="M50,51a4,4,0,1,0,4,4A4.0042,4.0042,0,0,0,50,51Zm0,6a2,2,0,1,1,2-2A2.0023,2.0023,0,0,1,50,57Z"/><path d="M36,44H33a1,1,0,0,0,0,2h3a1,1,0,0,0,0-2Z"/><path d="M21,16v5a1,1,0,0,0,1.6641.7476l9-8A1,1,0,0,0,31,12H27V7a1,1,0,0,0-1.6641-.7476l-9,8A1,1,0,0,0,17,16Zm4-6.7729V13a1,1,0,0,0,1,1h2.37L23,18.7729V15a1,1,0,0,0-1-1H19.63Z"/></g></svg>
