<svg height="512" viewBox="0 0 60 60" width="512" xmlns="http://www.w3.org/2000/svg"><g id="018---Fuel-Vs-Battery" transform="translate(-1)"><path id="Shape" d="m58 29h-1v-3c0-1.6568542-1.3431458-3-3-3h-8c-1.6568542 0-3 1.3431458-3 3v3h-1c-1.6568542 0-3 1.3431458-3 3v25c0 1.6568542 1.3431458 3 3 3h16c1.6568542 0 3-1.3431458 3-3v-25c0-1.6568542-1.3431458-3-3-3zm1 28c0 .5522847-.4477153 1-1 1h-16c-.5522847 0-1-.4477153-1-1v-25c0-.5522847.4477153-1 1-1h8c.5522847 0 1-.4477153 1-1s-.4477153-1-1-1h-5v-3c0-.5522847.4477153-1 1-1h8c.5522847 0 1 .4477153 1 1v3h-1c-.5522847 0-1 .4477153-1 1s.4477153 1 1 1h4c.5522847 0 1 .4477153 1 1z"/><path id="Shape" d="m2.006 32.749 1.744.993c.300679.1692851.6399416.2581478.985.258.1766283.0003948.35251763-.0228105.523-.069.51206245-.1345903.94804429-.4703216 1.209-.931l3.168-5.519c.655267-.0228245 1.2490069-.3922457 1.559-.97l1.539-2.61 3 1.713c.7072252.4013062 1.5472593.4976917 2.327.267.7699247-.2218256 1.4169251-.7464986 1.793-1.454l5.641-10.477c1.4428267-.2408667 2.5015872-1.4872129 2.506-2.95v-3h4.361l3.45 2.54c-1.197 1.63-1.811 2.923-1.811 3.84-.0000001 1.2504296.6670962 2.4058742 1.75 3.031089 1.0829037.6252149 2.4170963.6252149 3.5 0 1.0829038-.6252148 1.7500001-1.7806594 1.75-3.031089-.2266342-1.374227-.821762-2.6612514-1.722-3.724.3018366-.1889464.5670891-.4308241.783-.714.9811201-1.3341833.6955449-3.21101234-.638-4.193l-4.037-2.971c-.6865638-.50666843-1.5177235-.77939819-2.371-.778h-5.2c-.4221309-1.19400678-1.548582-1.99432733-2.815-2h-15c-1.65685425 0-3 1.34314575-3 3v8c.00171496 1.407956.98045664 2.6260842 2.355 2.931l-5.085 8.569c-.39173164.6607655-.36043815 1.4896519.08 2.119l-3.092 5.4c-.53482939.961962-.20246636 2.1749982.748 2.73zm16.082-9.27c-.1241732.233979-.338287.4072921-.593.48-.2606863.0782178-.5419923.0468011-.779-.087l-2.967-1.7 3.251-5.508v2.336c0 .5522847.4477153 1 1 1s1-.4477153 1-1v-5h4.2zm19.412-7.479c-.8606062-.0352162-1.5309905-.7592312-1.5-1.62.2857585-1.0227199.7984768-1.9678306 1.5-2.765.6961715.8008926 1.2082025 1.7447363 1.5 2.765.0309905.8607688-.6393938 1.5847838-1.5 1.62zm-3.3-11.61 4.037 2.97c.3248202.23918916.4741243.65011694.3786051 1.04202981s-.4171556.68806036-.8156051.75097019c-.2617345.03810706-.5279996-.0275621-.742-.183l-3.513-2.582c-.3428616-.25292701-.7579422-.38895004-1.184-.388l-4.361-.00000289v-2l5.015.00000289c.4266481-.000728.8421771.13602841 1.185.39zm-22.56 9.61h2.36c.5522847 0 1-.4477153 1-1s-.4477153-1-1-1h-4c-.55228475 0-1-.4477153-1-1v-8c0-.55228475.44771525-1 1-1h15c.5522847 0 1 .44771525 1 1v8c0 .5522847-.4477153 1-1 1h-7c-.117837.0025476-.2342957.025907-.344.069-.028.011-.055.021-.082.034-.1023595.046013-.196055.109266-.277.187-.007.006-.01.014-.017.021-.0537887.0547239-.1011.1154568-.141.181l-5.624 9.537c0 .006-.01.009-.013.015s0 .011-.006.017l-2.028 3.439-3.316-1.9c-.017-.011-.027-.029-.045-.039s-.038-.01-.056-.019l-.051-.031zm-5.66 11.8 1.738 1-2.984 5.2-1.734-.993z"/><path id="Shape" d="m55 33h-10c-1.1045695 0-2 .8954305-2 2v19c0 1.1045695.8954305 2 2 2h10c1.1045695 0 2-.8954305 2-2v-19c0-1.1045695-.8954305-2-2-2zm0 2v3h-10v-3zm-10 19v-14h10v14z"/><path id="Path" d="m52.882 46.528c-.1741121-.3252055-.5131184-.5281481-.882-.528h-2.132l.964-1.445c.306518-.4595009.1825009-1.080482-.277-1.387s-1.080482-.1825009-1.387.277l-2 3c-.2047322.3068587-.2239019.7015085-.049874 1.026765.174028.3252566.5129871.5282902.881874.528235h2.132l-.964 1.445c-.306518.4595009-.1825009 1.080482.277 1.387s1.080482.1825009 1.387-.277l2-3c.2048654-.3068909.2240849-.7016597.05-1.027z"/><path id="Path" d="m59.293.293-58 58c-.25995658.2510745-.3642126.6228779-.27269716.9725073.09151544.3496295.3645604.6226744.71418984.7141899.34962943.0915154.72143285-.0127406.97250732-.2726972l58-58c.3789722-.39237889.3735524-1.01608478-.0121814-1.40181857-.3857338-.3857338-1.0094397-.39115364-1.4018186-.01218143z"/></g></svg>