<svg id="Layer_1" enable-background="new 0 0 66 66" height="512" viewBox="0 0 66 66" width="512" xmlns="http://www.w3.org/2000/svg"><g><path d="m39.1 6.42h-28.55c-.53 0-.97.43-.97.97v17.16c0 .53.43.97.97.97h28.55c.53 0 .97-.43.97-.97v-17.17c-.01-.53-.44-.96-.97-.96zm-.97 17.16h-26.61v-15.23h26.61z"/><path d="m24.83 37.77c-.29 0-.57.13-.76.36-.59.73-3.51 4.51-3.51 6.56 0 2.35 1.91 4.26 4.26 4.26s4.26-1.91 4.26-4.26c0-2.06-2.92-5.83-3.5-6.56-.18-.22-.46-.36-.75-.36zm0 9.26c-1.29 0-2.33-1.04-2.33-2.32 0-.82 1.21-2.8 2.33-4.36 1.12 1.55 2.33 3.54 2.33 4.36-.01 1.27-1.05 2.32-2.33 2.32z"/><path d="m16.46 16.93h2.07c.53 0 .97-.43.97-.97 0-.53-.43-.97-.97-.97h-2.07c-.53 0-.97.43-.97.97s.43.97.97.97z"/><path d="m23.79 16.93h2.07c.53 0 .97-.43.97-.97 0-.53-.43-.97-.97-.97h-2.07c-.53 0-.97.43-.97.97.01.54.44.97.97.97z"/><path d="m31.13 16.93h2.07c.53 0 .97-.43.97-.97 0-.53-.43-.97-.97-.97h-2.07c-.53 0-.97.43-.97.97s.43.97.97.97z"/><path d="m63.3 10.89c.39-.36.42-.97.07-1.36-.37-.4-.98-.43-1.37-.07l-4.59 4.17c-.2.18-.32.44-.32.72v4.65h-2.9c-.53 0-.97.43-.97.97v11.53c0 .53.43.97.97.97h2.9v14.01c0 1.63-1.33 2.96-2.96 2.96s-2.96-1.33-2.96-2.96v-8.88c0-3.13-2.55-5.68-5.68-5.68h-.57v-26.69c0-2.27-1.84-4.11-4.11-4.11h-31.97c-2.27 0-4.11 1.84-4.11 4.11v50.55h-.2c-1.18 0-2.14.97-2.14 2.15v4.8c0 1.18.96 2.14 2.14 2.14h40.59c1.18 0 2.14-.96 2.14-2.14v-4.8c0-1.19-.96-2.15-2.14-2.15h-.19v-21.93h.57c2.06 0 3.74 1.68 3.74 3.74v8.88c0 2.7 2.19 4.89 4.89 4.89s4.89-2.19 4.89-4.89v-14.01h2.9c.53 0 .97-.43.97-.97v-11.53c0-.53-.43-.97-.97-.97h-2.9v-4.22zm-17.97 47.05v4.8c0 .12-.09.21-.21.21h-40.59c-.12 0-.21-.09-.21-.21v-4.8c0-.13.09-.22.21-.22h40.59c.12 0 .21.09.21.22zm-38.68-2.16v-50.55c0-1.2.98-2.18 2.18-2.18h31.98c1.2 0 2.18.98 2.18 2.18v50.55zm54.31-25.25h-5.81v-9.6h5.81z"/><path d="m24.83 33.32c-5.54 0-10.04 4.51-10.04 10.04s4.51 10.04 10.04 10.04 10.03-4.51 10.03-10.04-4.5-10.04-10.03-10.04zm0 18.16c-4.47 0-8.11-3.64-8.11-8.11s3.64-8.11 8.11-8.11 8.1 3.64 8.1 8.11-3.63 8.11-8.1 8.11z"/><path d="m12.05 28.45h-.91c-.53 0-.97.43-.97.97s.43.97.97.97h.91c.53 0 .97-.43.97-.97s-.44-.97-.97-.97z"/><path d="m17.36 30.38c.53 0 .97-.43.97-.97s-.43-.97-.97-.97h-.91c-.53 0-.97.43-.97.97s.43.97.97.97z"/><path d="m22.68 30.38c.53 0 .97-.43.97-.97s-.43-.97-.97-.97h-.91c-.53 0-.97.43-.97.97s.43.97.97.97z"/></g></svg>