<svg id="Layer_1" enable-background="new 0 0 500 500" viewBox="0 0 500 500" xmlns="http://www.w3.org/2000/svg"><path clip-rule="evenodd" d="m454.717 420.437h-335.3l150.422-89.734 42.996 23.884c2.788 1.55 6.283.889 8.308-1.576l103.81-126.26h29.763v193.686zm-280.324-84.8c8.268 14.318 26.637 19.243 40.961 10.975 6.929-4.01 11.894-10.475 13.965-18.212 5.146-19.168-9.382-37.733-29.011-37.733-22.885 0-37.488 24.918-25.915 44.97zm286.925-122.093h-39.481c-1.97 0-3.849.889-5.101 2.409l-102.3 124.422-41.506-23.066c-2.061-1.136-4.571-1.101-6.596.106l-24.273 14.48c0-.025.01-.05.015-.066 2.985-11.147 1.455-22.788-4.313-32.784-11.904-20.622-38.369-27.718-59.001-15.803-20.674 11.938-27.741 38.329-15.808 59.001 6.197 10.733 16.349 17.778 27.546 20.41l-94.007 56.077c-3.493 2.09-3.217 5.204-3.217 8.313 0 3.641 2.955 6.601 6.601 6.601h361.442c3.646 0 6.601-2.96 6.601-6.601v-206.898c-.001-3.642-2.955-6.601-6.602-6.601zm-279.43-40.627-20.44-35.42 55.986-32.324c2.586-1.49 4.576-1.632 7.344-.5l44.233 17.945zm-86.325 49.844-20.445-35.42 74.89-43.243 20.445 35.425zm195.04-101.633c-.177-2.515-1.773-4.717-4.106-5.672l-56.754-23.026c-6.49-2.631-12.854-2.192-18.914 1.308l-148.034 85.466c-3.162 1.823-4.242 5.864-2.419 9.025l27.051 46.85c1.83 3.171 5.869 4.235 9.021 2.419l190.867-110.198c2.187-1.258 3.465-3.662 3.288-6.172zm-214.631 168.655c-1.369.793-3.192.298-3.985-1.065l-22.258-38.556c-.793-1.364-.303-3.197 1.066-3.985l12.273-7.081 25.177 43.602zm-30.516-110.387c-.329 1.227-.162 2.49.464 3.586l60.895 105.462c1.298 2.257 4.192 3.03 6.45 1.732l93.072-53.744c2.379-1.369 5.354-1.126 7.485.611l26.011 21.278 78.133-45.112-5.424-33.162c-.44-2.712.838-5.414 3.212-6.788l27.748-16.005c3.227-9.642 9.833-18.182 19.308-23.662 21.713-12.542 49.702-3.937 60.547 18.773l9.056-5.227c2.243-1.301 3.031-4.21 1.732-6.455l-33.905-58.728c-1.192-2.061-3.646-2.904-5.858-2.025l-82.553 33.142c-1.586.631-3.353.631-4.939-.01l-73.43-29.799c-9.323-3.783-18.864-3.121-27.576 1.904l-158.236 91.36c-1.086.627-1.864 1.647-2.192 2.869zm367.912-.631c-4.287 16.019-20.736 25.486-36.718 21.202-7.738-2.081-14.202-7.036-18.207-13.975-8.268-14.318-3.343-32.693 10.97-40.961 14.318-8.258 32.692-3.338 40.96 10.98 4.005 6.941 5.071 15.012 2.995 22.754zm-317.992 116.286c4.948 8.588 15.942 11.496 24.49 6.566l89.123-51.455 26.011 21.272c2.131 1.732 5.106 1.98 7.48.606l86.042-49.673c2.379-1.374 3.656-4.071 3.217-6.783l-5.429-33.167 15.005-8.657c2.032 31.975 37.01 50.621 64.688 34.647 15.223-8.786 23.514-25.857 21.248-43.046l11.763-6.788c8.572-4.948 11.512-15.925 6.571-24.496l-33.91-58.728c-4.51-7.798-13.849-11.031-22.203-7.677l-80.093 32.147-70.949-28.793c-13.056-5.298-26.955-4.338-39.152 2.707l-158.236 91.355c-8.553 4.939-11.511 15.912-6.561 24.496l21.985 38.071-12.278 7.081c-7.697 4.444-10.344 14.323-5.899 22.031l22.263 38.556c4.487 7.775 14.391 10.3 22.021 5.899l12.278-7.081z" fill-rule="evenodd"/></svg>