<?xml version="1.0"?>
<svg xmlns="http://www.w3.org/2000/svg" viewBox="0 0 64 64" width="512" height="512"><g id="Layer_13" data-name="Layer 13"><path d="M55,26H43.807a7.027,7.027,0,0,1-4.373-1.534L32.721,19.1A5.015,5.015,0,0,0,29.6,18H28a1,1,0,0,0-.753,1.659l4.375,5a1,1,0,0,0,1.506-1.318l-2.857-3.264a3.019,3.019,0,0,1,1.2.58l6.713,5.371A9.033,9.033,0,0,0,43.807,28H55a6.971,6.971,0,0,1,4.889,2H57a1,1,0,0,0-1,1,5.006,5.006,0,0,0,5,5h1v3a1,1,0,0,1-1,1H55.92a7,7,0,1,0-13.84,0H21.92A7,7,0,1,0,8.08,40H5a1,1,0,0,1-.8-.4L2.6,37.467A3.009,3.009,0,0,1,2.027,36H3a3,3,0,0,0,0-6H2.01a2.99,2.99,0,0,1,2.262-2.787l3.84-.96a3,3,0,0,1,1.677.064l3.663,1.221A8.967,8.967,0,0,0,16.3,28H35a1,1,0,0,0,0-2H21V24.5a2.5,2.5,0,0,0-5,0v1.476a7.007,7.007,0,0,1-1.915-.335l-3.664-1.222a5,5,0,0,0-2.793-.107l-3.84.96A4.994,4.994,0,0,0,0,30.123v5.544a5.028,5.028,0,0,0,1,3L2.6,40.8A3.014,3.014,0,0,0,5,42H8.685a6.985,6.985,0,0,0,12.63,0h21.37a6.985,6.985,0,0,0,12.63,0H61a3,3,0,0,0,3-3V35A9.01,9.01,0,0,0,55,26ZM18,24.5a.5.5,0,0,1,1,0V26H18ZM4,33a1,1,0,0,1-1,1H2V32H3A1,1,0,0,1,4,33ZM15,44a5,5,0,1,1,5-5A5.006,5.006,0,0,1,15,44Zm34,0a5,5,0,1,1,5-5A5.006,5.006,0,0,1,49,44Zm9.171-12h3.144a6.937,6.937,0,0,1,.605,2H61A3.006,3.006,0,0,1,58.171,32Z"/><path d="M49,35a4,4,0,1,0,4,4A4,4,0,0,0,49,35Zm0,6a2,2,0,1,1,2-2A2,2,0,0,1,49,41Z"/><path d="M15,35a4,4,0,1,0,4,4A4,4,0,0,0,15,35Zm0,6a2,2,0,1,1,2-2A2,2,0,0,1,15,41Z"/><path d="M21,29a1,1,0,0,0,0,2h2a1,1,0,0,0,0-2Z"/></g></svg>
