<?xml version="1.0" encoding="UTF-8"?>
<svg xmlns="http://www.w3.org/2000/svg" viewBox="0 0 64 64" width="512" height="512"><g id="Layer_32" data-name="Layer 32"><path d="M58.218,29.355l-13.8-2.3-3.729-2.984a23.154,23.154,0,0,0-24.817-2.629L8.7,25.033l-3.869.552A4.482,4.482,0,0,0,1,30v7a5.006,5.006,0,0,0,5,5H7.812a5.986,5.986,0,0,0,10.376,0H45.812a5.986,5.986,0,0,0,10.376,0H60a3,3,0,0,0,3-3V35A5.705,5.705,0,0,0,58.218,29.355ZM60.85,34h-.729A4.043,4.043,0,0,1,56.2,31.046l1.7.282A3.7,3.7,0,0,1,60.85,34ZM25,29H42.993a37.94,37.94,0,0,1-1.729,11H28.506A17.31,17.31,0,0,1,25,29.6Zm14.442-3.365L41.149,27H24.8L23.51,21.184A20.966,20.966,0,0,1,26.229,21,21.226,21.226,0,0,1,39.442,25.635Zm-22.672-2.4a21.183,21.183,0,0,1,4.768-1.7L22.753,27H17.09a2.055,2.055,0,0,1-1.862-3ZM5,31a1,1,0,0,1,0,2H3V31Zm8,12a4,4,0,1,1,4-4A4,4,0,0,1,13,43Zm0-10a5.967,5.967,0,0,0-5.91,7H6a3,3,0,0,1-3-3V35H5a3,3,0,0,0,0-6H3.224a2.467,2.467,0,0,1,1.888-1.435l4.03-.575a1.021,1.021,0,0,0,.3-.095l3.573-1.787A4.085,4.085,0,0,0,17.09,29H23v.6A19.323,19.323,0,0,0,26.068,40H18.91A5.967,5.967,0,0,0,13,33ZM51,43a4,4,0,1,1,4-4A4,4,0,0,1,51,43Zm9-3H56.91a6,6,0,1,0-11.82,0H43.358A39.965,39.965,0,0,0,44.99,29.179l9.07,1.511A6.109,6.109,0,0,0,60.121,36H61v3A1,1,0,0,1,60,40Z"/><rect x="27" y="31" width="4" height="2"/><circle cx="51" cy="39" r="2"/><circle cx="13" cy="39" r="2"/></g></svg>
