<svg height="512" viewBox="0 0 48 48" width="512" xmlns="http://www.w3.org/2000/svg"><g id="_12._Crossover_car" data-name="12. Crossover car"><path d="m48 25.76a7.28 7.28 0 0 0 -3.5-4.63c-1.47-.83-1.9-.77-9-2.06-5.59-5.57-6.4-7.07-9.16-7.07h-17.6a4 4 0 0 0 -3.47 2c-2.88 5-3.08 5.37-3.17 5.55s-.1-.02-.1 6.45h-1a1 1 0 0 0 -1 1v4a1 1 0 0 0 1 1h6.1a5 5 0 0 0 9.8 0h14.2a5 5 0 0 0 9.8 0 40.28 40.28 0 0 0 4.59-.74 3 3 0 0 0 2.51-3 17.1 17.1 0 0 0 0-2.5zm-4.28-2.76a5 5 0 0 1 1.81 2h-1.53a1 1 0 0 1 -.28-2zm-11.13-4h-7.72l-.72-5c4.16 0 2.85-.56 8.44 5zm-19.09 0c-2.57-3.43-2.53-2.67-1-5h3.32l-.72 5zm4.37-5h4.26l.72 5h-5.7zm-12.87 7a1 1 0 0 1 0 2h-1v-2zm7 13a3 3 0 1 1 3-3 3 3 0 0 1 -3 3zm24 0a3 3 0 1 1 3-3 3 3 0 0 1 -3 3zm9.16-4.71c-4.33.71-4.16.71-4.26.71a5 5 0 0 0 -9.8 0h-14.2a5 5 0 0 0 -9.8 0h-5.1v-2h1a1 1 0 0 0 1-1v-2h1c3.93 0 4.15-6-.28-6 3-5.27 2.32-5 5.41-5a3 3 0 0 0 -.08 3.73l2.15 2.87c.43.58-1.17.4 22.71.4l6.69 1.22a3 3 0 0 0 2.4 4.78h2v1.31a1 1 0 0 1 -.84.98z"/><path d="m36.92 30.62a1 1 0 1 0 -1.75.94 1 1 0 0 0 1.75-.94z"/><path d="m12.38 30.08a1 1 0 1 0 .62.92 1 1 0 0 0 -.62-.92z"/><path d="m28 23h-2a1 1 0 0 0 0 2h2a1 1 0 0 0 0-2z"/><path d="m20 23h-2a1 1 0 0 0 0 2h2a1 1 0 0 0 0-2z"/></g></svg>