<svg enable-background="new 0 0 64 64" height="64" viewBox="0 0 64 64" width="64" xmlns="http://www.w3.org/2000/svg"><g id="Layer_2"/><g id="Layer_3"/><g id="Layer_4"/><g id="Layer_5"/><g id="Layer_6"/><g id="Layer_7"/><g id="Layer_8"/><g id="Layer_9"/><g id="Layer_10"/><g id="Layer_11"><g><g><g><path d="m15.12 44.37c-1.583 0-2.87-1.292-2.87-2.88 0-1.583 1.287-2.87 2.87-2.87 1.588 0 2.88 1.288 2.88 2.87 0 1.588-1.292 2.88-2.88 2.88zm0-3.75c-.479 0-.87.39-.87.87 0 .485.391.88.87.88.485 0 .88-.395.88-.88 0-.48-.395-.87-.88-.87z" fill="#231f20"/></g></g><g><g><path d="m52.62 44.37c-1.583 0-2.87-1.292-2.87-2.88 0-1.583 1.287-2.87 2.87-2.87 1.588 0 2.88 1.288 2.88 2.87 0 1.588-1.292 2.88-2.88 2.88zm0-3.75c-.479 0-.87.39-.87.87 0 .485.391.88.87.88.485 0 .88-.395.88-.88 0-.48-.395-.87-.88-.87z" fill="#231f20"/></g></g><g><g><path d="m62.02 44.37c-.004 0-.012 0-.02 0h-4.09c-.33 0-.639-.163-.825-.436s-.227-.619-.106-.927c.18-.463.271-.974.271-1.517 0-2.547-2.072-4.62-4.62-4.62-2.553 0-4.63 2.073-4.63 4.62 0 .543.092 1.054.271 1.517.12.308.08.655-.106.927s-.495.436-.825.436h-26.93c-.33 0-.639-.163-.825-.436s-.227-.619-.106-.927c.18-.463.271-.974.271-1.517 0-2.547-2.072-4.62-4.62-4.62-2.553 0-4.63 2.073-4.63 4.62 0 .543.092 1.054.271 1.517.12.308.08.655-.106.927s-.495.436-.825.436h-7.84c-.553 0-1-.448-1-1v-5.63c0-6.435 14.362-6.62 16-6.62h43.63c.454 0 .852.307.967.746 1.261 4.802 1.389 10.168 1.402 11.297.014.067.021.136.021.207 0 .552-.448 1-1 1zm-2.829-2h1.786c-.061-1.781-.286-5.652-1.13-9.25h-42.847c-3.632.001-14 .854-14 4.62v4.63h5.559c-.039-.287-.059-.581-.059-.88 0-3.65 2.975-6.62 6.63-6.62 3.65 0 6.62 2.97 6.62 6.62 0 .299-.02.593-.059.88h24.367c-.038-.287-.058-.581-.058-.88 0-3.65 2.975-6.62 6.63-6.62 3.65 0 6.62 2.97 6.62 6.62 0 .299-.02.593-.059.88z" fill="#231f20"/></g></g><g><g><path d="m31.458 36.87h-3.75c-.553 0-1-.448-1-1s.447-1 1-1h3.75c.553 0 1 .448 1 1s-.447 1-1 1z" fill="#231f20"/></g></g><g><g><path d="m15.13 48.12c-2.695 0-5.163-1.678-6.141-4.175-.034-.075-.077-.185-.108-.293-.243-.615-.381-1.37-.381-2.162 0-3.65 2.975-6.62 6.63-6.62 3.65 0 6.62 2.97 6.62 6.62 0 .792-.138 1.547-.408 2.243-.004.027-.047.137-.094.245-.965 2.464-3.429 4.142-6.118 4.142zm0-11.25c-2.553 0-4.63 2.073-4.63 4.62 0 .543.092 1.054.271 1.517.037.112.052.144.066.175.693 1.771 2.413 2.938 4.292 2.938 1.873 0 3.589-1.167 4.27-2.905.027-.064.042-.096.052-.127.207-.544.299-1.054.299-1.598 0-2.548-2.072-4.62-4.62-4.62z" fill="#231f20"/></g></g><g><g><path d="m52.63 48.12c-2.695 0-5.163-1.678-6.141-4.175-.034-.075-.077-.185-.108-.293-.243-.615-.381-1.37-.381-2.162 0-3.65 2.975-6.62 6.63-6.62 3.65 0 6.62 2.97 6.62 6.62 0 .792-.138 1.547-.408 2.243-.004.027-.047.137-.094.245-.965 2.464-3.429 4.142-6.118 4.142zm0-11.25c-2.553 0-4.63 2.073-4.63 4.62 0 .543.092 1.054.271 1.517.037.112.052.144.066.175.693 1.771 2.413 2.938 4.292 2.938 1.873 0 3.589-1.167 4.27-2.905.027-.064.042-.096.052-.127.207-.544.299-1.054.299-1.598 0-2.548-2.072-4.62-4.62-4.62z" fill="#231f20"/></g></g><g><g><g><path d="m32 33.12h-15c-.553 0-1-.448-1-1 0-3.561 11.108-8.5 16-8.5.553 0 1 .448 1 1v7.5c0 .552-.447 1-1 1zm-13.282-2h12.282v-5.444c-4.285.454-10.242 3.574-12.282 5.444z" fill="#231f20"/></g></g><g><g><path d="m41.333 33.12h-9.333c-.553 0-1-.448-1-1v-7.5c0-.552.447-1 1-1h9.333c.553 0 1 .448 1 1v7.5c0 .552-.447 1-1 1zm-8.333-2h7.333v-5.5h-7.333z" fill="#231f20"/></g></g><g><g><path d="m50.75 33.12h-9.417c-.553 0-1-.448-1-1v-7.5c0-.552.447-1 1-1h9.417c.553 0 1 .448 1 1v7.5c0 .552-.447 1-1 1zm-8.417-2h7.417v-5.5h-7.417z" fill="#231f20"/></g></g><g><g><path d="m60.63 33.12h-9.88c-.553 0-1-.448-1-1v-7.5c0-.552.447-1 1-1 3.825 0 9.699 3.882 10.847 8.246.079.3.015.619-.175.865s-.482.389-.792.389zm-8.88-2h7.406c-1.441-2.656-4.958-4.862-7.406-5.383z" fill="#231f20"/></g></g></g><g><g><path d="m5.75 40.62h-3.75c-.553 0-1-.448-1-1s.447-1 1-1h3.75c.553 0 1 .448 1 1s-.447 1-1 1z" fill="#231f20"/></g></g></g></g><g id="Layer_12"/><g id="Layer_13"/><g id="Layer_14"/><g id="Layer_15"/><g id="Layer_16"/><g id="Layer_17"/><g id="Layer_18"/><g id="Layer_19"/><g id="Layer_20"/><g id="Layer_21"/></svg>