<svg height="512" viewBox="0 0 128 128" width="512" xmlns="http://www.w3.org/2000/svg"><g id="Hatchback" fill="rgb(0,0,0)"><path d="m17 75a5 5 0 1 0 5 5 5 5 0 0 0 -5-5zm0 8a3 3 0 1 1 3-3 3 3 0 0 1 -3 3z"/><path d="m105 75a5 5 0 1 0 5 5 5 5 0 0 0 -5-5zm0 8a3 3 0 1 1 3-3 3 3 0 0 1 -3 3z"/><path d="m127.07 64.94a9.22 9.22 0 0 0 -7.58-7.28l-20.49-3.18-21-15.81a13.29 13.29 0 0 0 -8-2.67h-45.55a21.34 21.34 0 0 0 -16.06 7.33c-5.39 6.21-8.39 8.67-8.39 13.9v20.77c0 1 .36.84 6 2.75a11 11 0 0 0 22 .25h66.1a11 11 0 0 0 21.9 0c9.69 0 9.32.12 9.73-.3 2.13-2.2 2.27-2.21 2.27-2.7 0-10.47.25-7.09-.93-13.06zm-1.35 4.06h-5.61a2.8 2.8 0 0 1 .72-1.12c1.1-1.13 2.3-.88 4.49-.88zm-48.9-28.74 20.11 15.2-4.64 1.54h-33.29v-19c10.82 0 13.93-.68 17.82 2.26zm-19.82 16.74h-20.36l1.9-19h18.46zm-28.24-19h7.77l-1.9 19h-8.81a7.69 7.69 0 0 1 -1.43-8c3.37-8.48 4.27-10.7 4.37-11zm-14.62 9.21c-5.8 10.16-4.52 9.79-12.14 9.79a9.1 9.1 0 0 1 2.24-5.27c5.38-6.14 7.16-8.73 11.43-10.94a11.75 11.75 0 0 1 -1.53 6.42zm-12.14 17.79h2v2h-2zm15 24a9 9 0 0 1 -9-8.63 1 1 0 0 0 0-.72 9 9 0 1 1 9 9.35zm88 0a9 9 0 1 1 9-9 9 9 0 0 1 -9 9zm19.55-10h-8.55a11 11 0 0 0 -21.9 0h-66.1a11 11 0 0 0 -21.9-.39l-4.1-1.38v-8.23h3a1 1 0 0 0 1-1v-4a1 1 0 0 0 -1-1h-3v-4h3.59a7.1 7.1 0 0 0 6.16-3.58c4-7 6.67-10.22 5.77-16.09 3.72-1.47 6.34-1.33 9.1-1.33l-4.09 10.23a9.7 9.7 0 0 0 2.15 10.48c.46.45-3.93.29 67.77.29.23 0-.23.13 6.42-2.08 1.25-.42-3.24-.93 20.31 2.71a7.19 7.19 0 0 1 5.82 5.37h-2.07c-4.65 0-6.29 6-4 6h7.07v6.54z"/><path d="m66 65h-4a1 1 0 0 0 0 2h4a1 1 0 0 0 0-2z"/></g></svg>