<svg id="Layer_1" enable-background="new 0 0 1600 1600" viewBox="0 0 1600 1600" xmlns="http://www.w3.org/2000/svg"><g><path d="m1126.8 1004h-653.6c-13.3 0-24-10.7-24-24s10.7-24 24-24h653.6c13.3 0 24 10.7 24 24s-10.8 24-24 24z" fill="#212121"/><path d="m1484 1004h-117.2c-13.3 0-24-10.7-24-24s10.7-24 24-24h117.2c19.9 0 36-16.1 36-36v-111.5c0-9.6-3.7-18.7-10.5-25.5l-36.1-36.1c-6.8-6.8-15.8-10.5-25.5-10.5h-156.8c-4.2 0-8.3-1.1-12-3.2l-354.6-204.4c-5.5-3.1-11.7-4.8-18-4.8h-694.7c-12.8 0-24.8 6.9-31.2 18l-95.8 166.3c-3.1 5.5-4.8 11.7-4.8 18v193.7c0 19.9 16.1 36 36 36h117.2c13.3 0 24 10.7 24 24s-10.7 24-24 24h-117.2c-46.3 0-84-37.7-84-84v-193.7c0-14.7 3.9-29.2 11.2-41.9l95.8-166.3c14.9-26 42.8-42.1 72.8-42.1h694.8c14.7 0 29.2 3.9 41.9 11.2l349 201.2h150.4c22.4 0 43.5 8.7 59.4 24.6l36.1 36.1c15.9 15.9 24.6 37 24.6 59.4v111.5c0 46.3-37.7 84-84 84z" fill="#212121"/><path d="" style="fill:none;stroke:#212121;stroke-width:48;stroke-linecap:round;stroke-linejoin:round;stroke-miterlimit:10"/><g fill="#212121"><path d="m1291.1 736.4h-1108.4c-8.6 0-16.5-4.6-20.8-12s-4.3-16.6 0-24l121.1-210.3c6.6-11.5 21.3-15.4 32.8-8.8s15.4 21.3 8.8 32.8l-100.4 174.3h1066.8c13.3 0 24 10.7 24 24s-10.7 24-23.9 24z"/><path d="m755.2 736.4c-13.3 0-24-10.7-24-24v-212.4c0-13.3 10.7-24 24-24s24 10.7 24 24v212.4c0 13.2-10.8 24-24 24z"/><path d="m467.5 736.4c-13.3 0-24-10.7-24-24v-212.4c0-13.3 10.7-24 24-24s24 10.7 24 24v212.4c0 13.2-10.8 24-24 24z"/><g><path d="m353.2 1124c-79.4 0-144-64.6-144-144s64.6-144 144-144 144 64.6 144 144-64.6 144-144 144zm0-240c-52.9 0-96 43.1-96 96s43.1 96 96 96 96-43.1 96-96-43-96-96-96z"/><path d="m353.2 1049.5c-38.3 0-69.5-31.2-69.5-69.5s31.2-69.5 69.5-69.5 69.5 31.2 69.5 69.5-31.2 69.5-69.5 69.5zm0-91c-11.8 0-21.5 9.6-21.5 21.5s9.6 21.5 21.5 21.5 21.5-9.6 21.5-21.5-9.6-21.5-21.5-21.5z"/><path d="m1246.8 1124c-79.4 0-144-64.6-144-144s64.6-144 144-144 144 64.6 144 144-64.6 144-144 144zm0-240c-52.9 0-96 43.1-96 96s43.1 96 96 96 96-43.1 96-96-43.1-96-96-96z"/><path d="m1246.8 1049.5c-38.3 0-69.5-31.2-69.5-69.5s31.2-69.5 69.5-69.5 69.5 31.2 69.5 69.5-31.2 69.5-69.5 69.5zm0-91c-11.8 0-21.5 9.6-21.5 21.5s9.6 21.5 21.5 21.5 21.5-9.6 21.5-21.5-9.7-21.5-21.5-21.5z"/></g><path d="m873.4 814.8h-54c-13.3 0-24-10.7-24-24s10.7-24 24-24h54c13.3 0 24 10.7 24 24s-10.7 24-24 24z"/><path d="m581.5 814.8h-54c-13.3 0-24-10.7-24-24s10.7-24 24-24h54c13.3 0 24 10.7 24 24s-10.8 24-24 24z"/></g></g></svg>