<svg id="Layer_2" viewBox="0 0 64 64" xmlns="http://www.w3.org/2000/svg" data-name="Layer 2"><path d="m32.93 19.21-5.85.05a.83.83 0 0 0 -.83.83v4.54a.5.5 0 0 0 .5.5h6.19a.5.5 0 0 0 .5-.5v-4.92a.51.51 0 0 0 -.15-.35c-.09-.1-.2-.11-.36-.15zm-.49 4.92h-5.19v-3.87h5.19z"/><path d="m35.38 25.84a.5.5 0 0 0 -.5.5v1.42a.5.5 0 0 0 .5.5.51.51 0 0 0 .5-.5v-1.42a.5.5 0 0 0 -.5-.5z"/><path d="m26.75 25.84a.5.5 0 0 0 -.5.5v1.42a.5.5 0 1 0 1 0v-1.42a.5.5 0 0 0 -.5-.5z"/><path d="m57.38 24.18a4.79 4.79 0 0 0 -1.38-.42l-5.6-.92a10.55 10.55 0 0 1 -1.13-.84c-2.13-1.69-6.09-4.83-9.35-4.83l-12.84.1a2.83 2.83 0 0 0 -2.83 2.83v13.66a.5.5 0 0 0 .14.35l-6.77 2a5.87 5.87 0 0 0 -2.34-3.1h1.16a5.36 5.36 0 0 1 .06.7.5.5 0 0 0 .5.5h6.08a.5.5 0 0 0 .5-.5v-9.04a.5.5 0 0 0 -.5-.5h-19.08a.5.5 0 0 0 -.5.5v9.09a.5.5 0 0 0 .5.5h3a.5.5 0 0 0 .5-.5 5.36 5.36 0 0 1 .06-.7h1.16a5.89 5.89 0 0 0 0 9.81h-4.72a.5.5 0 0 0 0 1h56a.5.5 0 0 0 0-1h-4.73a5.9 5.9 0 0 0 -2.35-10.73.44.44 0 0 0 0-.2.48.48 0 0 0 -.62-.33l-1.37.39a.46.46 0 0 0 -.23.18 5.9 5.9 0 0 0 -4.13 3.41l-3.44-1.36h3.87a.5.5 0 0 0 .5-.5 4.49 4.49 0 0 1 3-4.24.51.51 0 0 0 -.15.52.51.51 0 0 0 .48.35h.15l1.39-.36a.5.5 0 0 0 .33-.62 4.5 4.5 0 0 1 3.8 4.43.5.5 0 0 0 .5.5h1a2.5 2.5 0 0 0 2.5-2.5v-2.7a5.38 5.38 0 0 0 -3.12-4.93zm.29 1.33.24.18.12.1a5 5 0 0 1 .4.4l.07.09a3.18 3.18 0 0 1 .27.37l.1.16a3.65 3.65 0 0 1 .18.34l.09.18c0 .12.09.24.13.37l.06.17a4.87 4.87 0 0 1 .12.52 2.92 2.92 0 0 1 0 .51 2.14 2.14 0 0 1 -1.82-2.12zm-11.92-.72a1.61 1.61 0 0 1 -.54-.09l-1.45-.54a.47.47 0 0 0 -.17 0h-7.71v-3.96h4.06c2.06-.04 5.56 2.65 7.06 3.8v.75zm2.27-1v-.4a.7.7 0 0 1 .7.7.67.67 0 0 1 -.23.5.64.64 0 0 1 -.47.19zm-3.77 12.3a.4.4 0 0 1 -.39.4h-21.15a.4.4 0 1 1 0-.79h21.15a.4.4 0 0 1 .39.39zm-39.75-2.83v-8.09h18.08v8.09h-5.1a6.84 6.84 0 0 0 -.14-.81 5.36 5.36 0 0 0 -1-2 5.51 5.51 0 0 0 -8.74 0 5.25 5.25 0 0 0 -1 2 7.62 7.62 0 0 0 -.14.81zm10.27-3h-5.54a4.48 4.48 0 0 1 5.54 0zm-6.92 1.8a.76.76 0 0 0 0-.11 4 4 0 0 1 .25-.45 2.09 2.09 0 0 1 .17-.28h7.38a2.82 2.82 0 0 1 .18.29 4.5 4.5 0 0 1 .23.43v.12zm-.76 5.94a4.91 4.91 0 1 1 4.91 4.87 4.91 4.91 0 0 1 -4.91-4.87zm44.91-4.94a4.91 4.91 0 1 1 -4.9 4.9 4.91 4.91 0 0 1 4.9-4.9zm-3.3 9.81h-33.42a5.91 5.91 0 0 0 2.63-4.87 5.55 5.55 0 0 0 -.07-.82l3.47-1a1.4 1.4 0 0 0 1.4 1.4h21.15a1.39 1.39 0 0 0 1.38-1.32l1 .4a5.81 5.81 0 0 0 -.16 1.34 5.9 5.9 0 0 0 2.62 4.87zm-7.17-8.17h-15.65l1.44-.44h13.09zm10.47-6.44a5.52 5.52 0 0 0 -5.48 5h-21.27v-13.17a1.83 1.83 0 0 1 1.83-1.83l12.84-.1c2.69 0 6.25 2.67 8.27 4.25h-.67a.49.49 0 0 0 -.48.4c-2.35-1.81-5.1-3.64-7.1-3.64h-4.56a.5.5 0 0 0 -.5.5v4.93a.5.5 0 0 0 .5.5h8.12l1.38.51a2.57 2.57 0 0 0 .87.15h2.3a1.67 1.67 0 0 0 1.16-.46 1.69 1.69 0 0 0 .54-1.23 1.62 1.62 0 0 0 -.1-.54 1.3 1.3 0 0 0 .52.25l5.67.93a4.63 4.63 0 0 1 .83.23v1.85a3.14 3.14 0 0 0 1.38 2.6h-1.51a.51.51 0 0 0 -.5.5.58.58 0 0 0 0 .19 5.46 5.46 0 0 0 -4.04-1.82zm6 5h-.52a5.49 5.49 0 0 0 -1.18-2.91.51.51 0 0 0 .24.07h3v1.34a1.5 1.5 0 0 1 -1.54 1.5z"/><path d="m52.18 30.3-1.35.42a.5.5 0 0 0 .15 1h.15l1.34-.43a.49.49 0 0 0 .33-.62.5.5 0 0 0 -.62-.37z"/><path d="m12 34.1a3.87 3.87 0 1 0 3.87 3.9 3.87 3.87 0 0 0 -3.87-3.9zm0 6.73a2.87 2.87 0 1 1 2.87-2.83 2.87 2.87 0 0 1 -2.87 2.83z"/><path d="m52 41.83a3.87 3.87 0 1 0 -3.88-3.83 3.87 3.87 0 0 0 3.88 3.83zm0-6.73a2.87 2.87 0 1 1 -2.88 2.9 2.86 2.86 0 0 1 2.88-2.9z"/><path d="m60 45h-56a.5.5 0 0 0 0 1h56a.5.5 0 0 0 0-1z"/></svg>