<svg id="Layer_2" viewBox="0 0 64 64" xmlns="http://www.w3.org/2000/svg" data-name="Layer 2"><path d="m52.6 39c0 .88-.72 1.6-1.6 1.6s-1.6-.72-1.6-1.6.72-1.6 1.6-1.6 1.6.72 1.6 1.6zm-36.6-1.6c-.88 0-1.6.72-1.6 1.6s.72 1.6 1.6 1.6 1.6-.72 1.6-1.6-.72-1.6-1.6-1.6zm46.59 2.7c0 .37-.04 1.42-7.8 1.49-.83 1.21-2.22 2-3.79 2s-2.96-.79-3.79-2h-27.42c-.83 1.21-2.22 2-3.79 2-1.67 0-3.13-.89-3.93-2.23-4.04-.53-9.01-1.47-10.5-2.95-.11-.11-.18-.27-.18-.42 0-.09.01-2.08 1-4.14.03-1.06.16-2.21.54-3.23.21-.45.42-1.03.91-1.21.4-.1 3.76-.93 4.98-1.01 1.07-.57 8.19-4.01 23.16-4.01 4.22 0 6.04.95 9.66 2.84 1.64.85 3.67 1.91 6.48 3.17 1.17.06 10.01.61 13.12 3.03 1.06.32 1.43 1.53 1.55 2.52.13 1.07.07 2.44-.22 4.14zm-5.65-5.84c1.39.63 2.67 1.14 3.06 1.14h1.48c-.18-.59-.68-.83-.68-.83l-.07-.03s0 0 0 0c-.93-.47-2.5-.43-3.79-.27zm-52.32-3.79c-.1.02-.2.05-.29.07-.52.82-.62 1.87-.7 2.82.71-.08 1.91-.3 3.11-.89.91-.46 1.33-.89 1.52-1.17l-2.29-1.14c-.53.12-1.01.23-1.34.31zm14.28 10.29c.31-.55.5-1.14.5-1.76 0-1.88-1.52-3.4-3.4-3.4s-3.4 1.52-3.4 3.4c0 .58.18 1.13.43 1.65v.03c.59 1.03 1.69 1.72 2.96 1.72s2.31-.65 2.9-1.64zm35 0c.31-.55.5-1.14.5-1.76 0-1.88-1.52-3.4-3.4-3.4s-3.4 1.52-3.4 3.4c0 .61.18 1.18.48 1.72 0 .01.01.03.02.04.59.99 1.67 1.64 2.9 1.64s2.31-.65 2.9-1.64zm7.76-4.16h-1.66c-1.09 0-4.58-1.72-5.27-2.06-.22-.11-.36-.35-.33-.6s.21-.46.45-.52c.09-.02 1.22-.3 2.59-.41-3.93-1.13-9.4-1.4-9.47-1.41-.07 0-.15-.02-.22-.05-2.9-1.29-4.98-2.38-6.65-3.25-3.55-1.85-5.17-2.7-9.1-2.7-15.61 0-22.63 3.88-22.7 3.92-.09.05-.19.08-.3.08-.22 0-.64.06-1.15.16l1.41.71c.2.1.33.31.33.54s-.11 1.43-2.33 2.54c-1.59.79-3.16 1-3.87 1.05-.59 1.33-.75 2.62-.78 3.16 1.13.86 4.38 1.71 8.92 2.35-.11-.52-.17-1.08-.08-1.6.25-2.21 2.04-3.93 4.28-4.06.18-.03.35-.03.53 0 2.24.13 4.04 1.85 4.28 4.06.11.64.02 1.29-.17 1.91h26.24c-.04-.11-.07-.23-.09-.34-.12-.51-.17-1.05-.08-1.57.25-2.21 2.04-3.93 4.28-4.06.18-.03.35-.03.53 0 2.24.13 4.04 1.85 4.28 4.06.11.63.03 1.29-.17 1.9 4.54-.08 5.78-.52 6.06-.67.21-1.35.26-2.36.22-3.12zm-17.09-4.41c-.08.25-.31.41-.57.41 0 0-.01 0-.02 0-2.88-.1-28.19-1.03-30.25-2.06-.19-.1-.32-.29-.33-.5s.09-.42.27-.54c3.69-2.46 14.04-2.99 18.32-3.1 1.58 0 3.07.27 4.43.79 2.64 1.02 5.3 2.47 7.93 4.31.22.15.31.43.22.68zm-28.76-2.42c2.55.33 7.78.68 13.51.98l-.75-3.01c-5.66.32-10.17 1.04-12.76 2.03zm26.08 1.55c-1.97-1.24-3.95-2.25-5.92-3.01-1.22-.47-2.56-.71-3.98-.71-.75.02-1.49.05-2.21.08l.78 3.14c3.84.2 7.83.37 11.32.51z"/></svg>