<?xml version="1.0" encoding="UTF-8"?>
<svg xmlns="http://www.w3.org/2000/svg" width="512" height="512" viewBox="0 0 128 128"><g><path d="M31,75.25A7.75,7.75,0,1,0,38.75,83,7.759,7.759,0,0,0,31,75.25Zm0,12A4.25,4.25,0,1,1,35.25,83,4.254,4.254,0,0,1,31,87.25Z"/><path d="M94,75.25A7.75,7.75,0,1,0,101.75,83,7.759,7.759,0,0,0,94,75.25Zm0,12A4.25,4.25,0,1,1,98.25,83,4.254,4.254,0,0,1,94,87.25Z"/><path d="M117.625,53.871,96.823,51.6,78.461,33.483a7.7,7.7,0,0,0-5.443-2.233h-50.6a7.783,7.783,0,0,0-6.669,3.8L6.331,50.968A7.747,7.747,0,0,0,5.25,54.915V78.573a1.749,1.749,0,0,0,1.144,1.642l10.919,4.028a13.739,13.739,0,0,0,27.313.507H80.374a13.736,13.736,0,0,0,27.252,0H121A1.749,1.749,0,0,0,122.75,83V59.587A5.741,5.741,0,0,0,117.625,53.871ZM8.75,63.365h6.5v.93a1.245,1.245,0,0,1-.466.973l-3.12,2.518a2.259,2.259,0,0,1-1.414.5H8.75ZM31,93.25A10.25,10.25,0,1,1,41.25,83,10.261,10.261,0,0,1,31,93.25Zm63,0A10.25,10.25,0,1,1,104.25,83,10.261,10.261,0,0,1,94,93.25Zm13.626-12a13.736,13.736,0,0,0-27.252,0H44.626a13.736,13.736,0,0,0-27.148-.677L8.75,77.353V71.786h1.5a5.771,5.771,0,0,0,3.612-1.276l3.12-2.519a4.728,4.728,0,0,0,1.768-3.7v-2.68A1.749,1.749,0,0,0,17,59.865H8.75v-4.95a4.245,4.245,0,0,1,.593-2.164l9.421-15.916a4.268,4.268,0,0,1,3.657-2.085h50.6A4.22,4.22,0,0,1,76,35.975L94.8,54.519a1.751,1.751,0,0,0,1.039.493l21.407,2.338a2.246,2.246,0,0,1,2.006,2.237v1.824l-14.056-1.535a1.72,1.72,0,0,0-1.591.689,1.749,1.749,0,0,0-.215,1.721l2.469,5.952a5.731,5.731,0,0,0,5.311,3.548h8.082V81.25ZM119.25,68.286h-8.082A2.242,2.242,0,0,1,109.09,66.9l-1.336-3.221,11.5,1.255Z"/><path d="M74.247,37.754a1.757,1.757,0,0,0-1.229-.5H22.237a1.75,1.75,0,0,0-1.5.857L15.876,46.3a1.749,1.749,0,0,0,.791,2.49L30.286,54.87a1.741,1.741,0,0,0,.714.152H87.483a1.751,1.751,0,0,0,1.23-3Zm-16.734,3L60.25,51.522H41.75V40.75ZM19.888,46.394l3.346-5.644H38.25V51.522H31.373Zm43.973,5.128L61.124,40.75H72.3L83.218,51.522Z"/><path d="M67.5,57.974h-5a1.75,1.75,0,0,0,0,3.5h5a1.75,1.75,0,0,0,0-3.5Z"/></g></svg>
