<svg id="Layer_1" height="512" viewBox="0 0 64 64" width="512" xmlns="http://www.w3.org/2000/svg"><g><g><path d="m46.3 44.4h-24c-.6 0-1-.4-1-1s.4-1 1-1h24c.6 0 1 .4 1 1s-.4 1-1 1z"/></g><g><path d="m58.8 44.4c-.5 0-1-.4-1-1s.4-1 1-1l2.3-.1c.3 0 .8-.2.9-.5 0-.1 0-.1.1-.2s0-.1 0-.2v-9.3c0-1.5-.5-2.9-1.5-4l-10.2-10.9c-1.1-1.2-2.7-1.9-4.4-1.9h-41c-1.7 0-3 1.3-3 3v22.1c0 1.1.9 2 2 2h5.9c.6 0 1 .4 1 1s-.4 1-1 1h-5.9c-2.2 0-4-1.8-4-4v-22.1c0-2.8 2.2-5 5-5h41c2.2 0 4.4.9 5.8 2.5l10.1 10.9c1.3 1.4 2.1 3.4 2.1 5.4v9.3c0 .2 0 .6-.2.9-.3 1.1-1.3 1.8-2.6 2z"/></g><g><path d="m54 29.1h-12.5c-1.1 0-2-.9-2-2v-7.8c0-1.1.9-2 2-2h4.5c1 0 2.1.5 2.9 1.3l6.6 7.1c.5.5.7 1.3.4 2.1s-1.1 1.3-1.9 1.3zm-12.5-9.8v7.8h12.5l.1-.1-6.6-7c-.4-.4-1-.7-1.5-.7z"/></g><g><path d="m31.9 29.1h-25.9c-1.1 0-2-.9-2-2v-7.8c0-1.1.9-2 2-2h29.1c.7 0 1.3.3 1.7.9s.4 1.3.2 1.9l-3.2 7.8c0 .1-.1.1-.1.2-.7.9-1.4 1-1.8 1zm-25.9-9.8v7.8h25.8s0 0 .1-.1l3.2-7.7z"/></g><g><path d="m52.5 50.6c-4 0-7.2-3.2-7.2-7.2s3.2-7.2 7.2-7.2 7.2 3.2 7.2 7.2-3.2 7.2-7.2 7.2zm0-12.4c-2.9 0-5.2 2.3-5.2 5.2s2.3 5.2 5.2 5.2 5.2-2.3 5.2-5.2-2.3-5.2-5.2-5.2z"/></g><g><path d="m16.1 50.6c-4 0-7.2-3.2-7.2-7.2s3.2-7.2 7.2-7.2 7.2 3.2 7.2 7.2-3.2 7.2-7.2 7.2zm0-12.4c-2.9 0-5.2 2.3-5.2 5.2s2.3 5.2 5.2 5.2 5.2-2.3 5.2-5.2-2.3-5.2-5.2-5.2z"/></g><g><path d="m45.2 32.5h-2.5c-.6 0-1-.4-1-1s.4-1 1-1h2.5c.6 0 1 .4 1 1s-.4 1-1 1z"/></g><g><path d="m32.4 34.3c-.6 0-1-.4-1-1v-1.8c0-.6.4-1 1-1s1 .4 1 1v1.8c0 .6-.4 1-1 1z"/></g></g></svg>