<svg height="512" viewBox="0 0 60 60" width="512" xmlns="http://www.w3.org/2000/svg"><g id="Page-1" fill="none" fill-rule="evenodd"><g id="017---Self-Star-Rating" fill-rule="nonzero" transform="translate(-1)"><g id="Icons" transform="translate(1)"><path id="Shape" d="m41 29.39v1.57c-6.3448708 5.3846915-15.6551292 5.3846915-22 0v-1.57c-.0004327-3.732476 2.4138279-7.0364139 5.97-8.17 2.9296657 2.3732844 7.1203343 2.3732844 10.05 0h.01c3.5579348 1.1311377 5.9733009 4.4365885 5.97 8.17z" fill="#ef314c"/><path id="Shape" d="m35.03 21.22h-.01c-.3772931.3026457-.7812846.5704114-1.207.8 2.600445 1.5437026 4.192401 4.3458798 4.187 7.37v1.57c-2.6760184 2.2805871-5.9970828 3.6691416-9.5 3.972.494.043.994.068 1.5.068 4.031039.0077303 7.9321968-1.4250586 11-4.04v-1.57c.0033009-3.7334115-2.4120652-7.0388623-5.97-8.17z" fill="#bb193b"/><path id="Shape" d="m38 15c.0024866 2.4159971-1.0895759 4.7030776-2.97 6.22h-.01c-2.9080177 2.3418962-7.0498558 2.3588283-9.9769236.0407863-2.9270678-2.3180421-3.8596339-6.3535632-2.2463796-9.7208255 1.6132543-3.36726228 5.3425798-5.16927258 8.9832568-4.3407102s6.2228784 4.0669796 6.2200464 7.8007494z" fill="#ffe0b2"/><path id="Shape" d="m30 7c-.5034323.00135829-1.005629.04990397-1.5.145 3.0578179.58529662 5.4983377 2.8914303 6.2557025 5.911235.7573649 3.0198047-.3060058 6.2047116-2.7257025 8.163765h-.01c-1.0207896.8265534-2.2299286 1.3881848-3.52 1.635 2.3081902.4463593 4.695551-.1523117 6.52-1.635h.01c2.6352743-2.1315485 3.6412972-5.69243 2.510997-8.8878316-1.1303003-3.19540149-4.1515768-5.33171785-7.540997-5.3321684z" fill="#dfc49c"/><path id="Shape" d="m47 18c.0056274 4.9898317-2.1897327 9.7281504-6 12.95v-1.56c.0033009-3.7334115-2.4120652-7.0388623-5.97-8.17 2.6359855-2.1313785 3.6424994-5.6927046 2.5121111-8.8885482-1.1303882-3.19584353-4.1522448-5.33231187-7.5421111-5.33231187s-6.4117229 2.13646834-7.5421111 5.33231187c-1.1303883 3.1958436-.1238744 6.7571697 2.5121111 8.8885482-3.5561721 1.1335861-5.9704327 4.437524-5.97 8.17v1.56c-5.999017-5.0911794-7.7204752-13.6337706-4.161487-20.6510291 3.5589882-7.01725845 11.4683359-10.67533179 19.1202139-8.8430989 7.6518779 1.8322329 13.0465856 8.6759462 13.0412731 16.544128z" fill="#02a9f4"/><path id="Shape" d="m22 15c.0014956-3.8386987 2.7293818-7.13524423 6.5-7.855-3.6016777-.68445633-7.2076812 1.16684092-8.7505959 4.4924953-1.5429146 3.3256544-.6278367 7.2744765 2.2205959 9.5825047-3.006468.9617631-5.2419341 3.4968277-5.82 6.6.8160139 1.1578943 1.7734205 2.2093619 2.85 3.13v-1.56c-.0004327-3.732476 2.4138279-7.0364139 5.97-8.17-1.8804241-1.5169224-2.9724866-3.8040029-2.97-6.22z" fill="#0377bc"/><path id="Shape" d="m30 1c-.506 0-1 .032-1.5.076 6.0649205.52344037 11.3839673 4.25751974 13.9367392 9.7838752 2.552772 5.5263555 1.9475643 11.9970071-1.5857392 16.9541248.0974569.5197138.1473299 1.0472303.149 1.576v1.56c5.4359762-4.6111131 7.4160423-12.1249458 4.9584929-18.8161827-2.4575495-6.69123692-8.830226-11.13728434-15.9584929-11.1338173z" fill="#0377bc"/><path id="Shape" d="m17.31 44.76.08.07v.01l.9 5.21c.0551356.3037999-.0676832.612461-.316468.7953284-.2487847.1828675-.5800342.207966-.853532.0646716l-5.62-2.93-5.62 2.93c-.2734978.1432944-.60474729.1181959-.85353202-.0646716-.24878474-.1828674-.37160363-.4915285-.31646798-.7953284l1.07-6.18-4.53-4.36c-.2275191-.2108578-.31263399-.5342363-.2184025-.8297805.09423148-.2955442.35082129-.5099734.6584025-.5502195l6.27-.9 2.82-5.64c.1336692-.2759923.4133419-.4512881.72-.4512881s.5863308.1752958.72.4512881l2.81 5.64 6.28.9c.3075812.0402461.564171.2546753.6584025.5502195s.0091166.6189227-.2184025.8297805l-3.64 3.5-.25.04c-.3778306.0548233-.6914749.3199966-.8083741.6834469-.1168992.3634504-.0166516.7617467.2583741 1.0265531z" fill="#fec108"/><path id="Shape" d="m42.71 44.76-.1.1-5.52 5.31 1.33 7.66c.0640397.3729996-.0879767.7501936-.3927621.9745496-.3047855.2243559-.7101131.257429-1.0472379.0854504l-6.97-3.63-6.97 3.63c-.3381353.1726443-.7446645.1402204-1.0511597-.0838381-.3064952-.2240586-.4607441-.6015829-.3988403-.9761619l1.33-7.66-5.53-5.33v-.01l-.08-.07c-.2750257-.2648064-.3752733-.6631027-.2583741-1.0265531.1168992-.3634503.4305435-.6286236.8083741-.6834469l.25-.04 7.51-1.07 3.49-6.99c.1691635-.3394145.5157659-.5539339.895-.5539339s.7258365.2145194.895.5539339l3.48 6.99 7.51 1.07.27.04c.3778306.0548233.6914749.3199966.8083741.6834469.1168992.3634504.0166516.7617467-.2583741 1.0265531z" fill="#ffdc00"/><g fill="#fec108"><path id="Shape" d="m42.16 43.05-.27-.04-7.51-1.07-3.48-6.99c-.1691635-.3394145-.5157659-.5539339-.895-.5539339s-.7258365.2145194-.895.5539339l-.61 1.213 2.88 5.777 7.51 1.07.27.04c.3778306.0548233.6914749.3199966.8083741.6834469.1168992.3634504.0166516.7617467-.2583741 1.0265531l-.1.1-5.52 5.31 1.33 7.66c.0127339.0830526.0150853.1673668.007.251l1.553.809c.3371248.1719786.7424524.1389055 1.0472379-.0854504.3047854-.224356.4568018-.60155.3927621-.9745496l-1.33-7.66 5.52-5.31.1-.1c.2750257-.2648064.3752733-.6631027.2583741-1.0265531-.1168992-.3634503-.4305435-.6286236-.8083741-.6834469z"/><path id="Shape" d="m58.75 39.51-4.53 4.36 1.07 6.18c.0551356.3037999-.0676832.612461-.316468.7953284-.2487847.1828675-.5800342.207966-.853532.0646716l-5.62-2.93-5.62 2.93c-.2734978.1432944-.6047473.1181959-.853532-.0646716-.2487848-.1828674-.3716036-.4915285-.316468-.7953284l.9-5.19.1-.1c.2750257-.2648064.3752733-.6631027.2583741-1.0265531-.1168992-.3634503-.4305435-.6286236-.8083741-.6834469l-.27-.04-3.64-3.5c-.2275191-.2108578-.312634-.5342363-.2184025-.8297805s.3508213-.5099734.6584025-.5502195l6.27-.9 2.82-5.64c.1336692-.2759923.4133419-.4512881.72-.4512881s.5863308.1752958.72.4512881l2.81 5.64 6.28.9c.3075812.0402461.564171.2546753.6584025.5502195s.0091166.6189227-.2184025.8297805z"/></g></g><g id="Icons_copy" fill="#000"><path id="Shape" d="m36.243 33.13c-.3374374.1175404-.5865353.4061728-.653461.7571724-.0669258.3509995.0584883.7110409.329.9445.2705116.2334591.6450236.304868.982461.1873276 8.3055796-2.8784934 13.3185875-11.3335315 11.8590821-20.001762-1.4595053-8.66823057-8.9648388-15.01550443-17.7550821-15.01550443s-16.2955768 6.34727386-17.7550821 15.01550443c-1.4595054 8.6682305 3.5535025 17.1232686 11.8590821 20.001762.5219091.1814255 1.0920744-.0945909 1.2735-.6165.1814255-.5219091-.0945909-1.0920744-.6165-1.2735-1.7289281-.603376-3.3411228-1.4997914-4.766-2.65v-1.089c-.0040793-3.1194741 1.9167043-5.9181142 4.829-7.036 3.0979901 2.1948144 7.2440099 2.1948144 10.342 0 2.9122957 1.1178858 4.8330793 3.9165259 4.829 7.036v1.093c-1.4223868 1.1482323-3.0314527 2.043586-4.757 2.647zm-12.243-18.13c0-3.8659932 3.1340068-7 7-7s7 3.1340068 7 7-3.1340068 7-7 7c-3.8641657-.0044086-6.9955914-3.1358343-7-7zm13.8 5.873c3.1440304-3.6312099 2.8825336-9.0914069-.5941194-12.40554269-3.4766531-3.3141358-8.9431081-3.3141358-12.4197612 0-3.476653 3.31413579-3.7381498 8.77433279-.5941194 12.40554269-2.9445502 1.5054945-4.8977147 4.4303205-5.16 7.727-5.7005804-6.4246531-5.3115095-16.2041.8814494-22.15557405 6.192959-5.9514741 15.9801422-5.9514741 22.1731012 0 6.1929589 5.95147405 6.5820298 15.73092095.8814494 22.15557405-.26315-3.2986318-2.2198237-6.2241772-5.168-7.727z"/><path id="Shape" d="m22.4 59.611c.6114716.4512222 1.4268915.5137377 2.1.161l6.507-3.381 6.506 3.382c.6747005.3507651 1.4899491.2885627 2.1036235-.1605036.6136745-.4490663.9195933-1.2072965.7893765-1.9564964l-1.236-7.132 5.23-5.041c.5494388-.5296863.749535-1.3258902.5157941-2.0523995-.233741-.7265093-.860569-1.2566657-1.6157941-1.3666005l-7.26-1.043-3.24-6.513c-.336398-.6820107-1.0325498-1.1122037-1.793-1.108-.7582029-.0027578-1.4520237.42579-1.789 1.105l-3.258 6.516-7.244 1.042c-.7556612.1096467-1.3829497.6399932-1.6167482 1.3668939-.2337984.7269006-.0333033 1.5234933.5167482 2.0531061l5.232 5.041-1.237 7.132c-.1321468.7488916.1740604 1.507618.789 1.955zm-3.4-15.568 7.762-1.117c.3243224-.0465614.6052626-.2490476.752-.542l3.492-6.984 3.477 6.982c.1464346.2939874.4278949.4973266.753.544l7.778 1.117-5.614 5.409c-.238804.2303348-.3478167.5641157-.291.891l1.327 7.657-6.967-3.621c-.2889982-.1501332-.6330018-.1501332-.922 0l-6.968 3.621 1.327-7.655c.0568167-.3268843-.052196-.6606652-.291-.891z"/><path id="Shape" d="m5.7 44.222-.977 5.649c-.0942993.5266669.04924751 1.0680688.39209579 1.4788308.34284829.410762.84986362.6487898 1.38490421.6501692.29212778-.0004896.57986477-.0711378.839-.206l5.161-2.686 5.158 2.692c.3168946.1650567.697774.1485142.9991646-.0433962.3013905-.1919104.477504-.5300329.462-.8870001-.015504-.3569671-.22027-.678547-.5371646-.8436037l-5.62-2.93c-.2895351-.1508268-.6344649-.1508268-.924 0l-5.277 2.749 1-5.8c.05681665-.3268843-.05219599-.6606652-.291-.891l-4.247-4.1 5.877-.844c.32452803-.0467713.60551139-.2496622.752-.543l2.648-5.294 2.638 5.293c.1466296.294252.4285238.4976346.754.544l6.279.9c.5467619.0781483 1.0533517-.3017381 1.1315-.8485s-.3017381-1.0533517-.8485-1.1315l-5.76-.825-2.577-5.172c-.3052734-.6153176-.9341252-1.0032583-1.621-1h-.006c-.6793806-.0013594-1.3002179.3843357-1.6.994l-2.59 5.178-5.743.824c-.68753626.09166-1.26123514.5702103-1.47473953 1.2301524-.21350439.659942-.0288226 1.3838436.47473953 1.8608476z"/><path id="Shape" d="m60.91 38.356c-.2087665-.6565275-.7772622-1.1339081-1.46-1.226l-5.75-.825-2.584-5.177c-.2988211-.6113339-.9195423-.9992847-1.6-1h-.006c-.6872346-.0036408-1.3165677.3843574-1.622 1l-2.576 5.171-5.761.825c-.3536929.0505531-.653549.285959-.7866152.6175426s-.0791267.7089695.1415.99.5744223.4230105.9281152.3724574l6.28-.9c.3254762-.0463654.6073704-.249748.754-.544l2.632-5.287 2.643 5.294c.1464886.2933378.427472.4962287.752.543l5.874.843-4.247 4.1c-.238804.2303348-.3478167.5641157-.291.891l1.005 5.8-5.277-2.752c-.2895351-.1508268-.6344649-.1508268-.924 0l-5.62 2.93c-.3168946.1650567-.5216606.4866366-.5371646.8436037-.015504.3569672.1606095.6950897.462.8870001.3013906.1919104.68227.2084529.9991646.0433962l5.161-2.688 5.16 2.692c.6107526.3173308 1.3487053.2603664 1.9035216-.1469375s.8302528-1.0942929.7104784-1.7720625l-.974-5.659 4.146-4c.5017617-.4803646.6823412-1.2065744.464-1.866z"/><path id="Shape" d="m25.5 47.139c.0481997-.0002563.0963206-.0039322.144-.011l3.761-.541c.3243224-.0465614.6052626-.2490476.752-.542l1.74-3.479c.2485281-.4942949.0492949-1.0964719-.445-1.345s-1.0964719-.0492949-1.345.445l-1.5 3.011-3.245.467c-.5197764.0740625-.8937687.5374814-.8563995 1.0611762.0373692.5236949.4733733.9293151.9983995.9288238z"/></g></g></g></svg>