<svg clip-rule="evenodd" fill-rule="evenodd" height="512" image-rendering="optimizeQuality" shape-rendering="geometricPrecision" text-rendering="geometricPrecision" viewBox="0 0 43.3492 43.3492" width="512" xmlns="http://www.w3.org/2000/svg"><g id="Layer_x0020_1"><g id="_420420720"><path id="_420422952" d="m30.8476 24.8769c-.2098 0-.3805-.1703-.3805-.3802l.0005-12.7766c0-4.8491-3.9454-8.7931-8.7935-8.7931-4.8479 0-8.792 3.944-8.792 8.7931l.0001 12.7766c0 .2099-.1704.3802-.3804.3802-.2096 0-.3802-.1703-.3802-.3802v-12.7766c0-5.2679 4.2856-9.5535 9.5525-9.5535 5.2679-.0001 9.5536 4.2856 9.5536 9.5535v12.7766c0 .2099-.1704.3802-.3801.3802z"/><path id="_420422928" d="m37.3159 41.4322h-31.282c-.2108 0-.3803-.1703-.3803-.3802l.0002-14.6383c0-.2109.1691-.3802.38-.3802.2099 0 .3802.1693.3802.3802l.0004 14.258h30.5209v-14.258c0-.2109.1702-.3802.3802-.3802.2103 0 .3801.1693.3801.3802l.0004 14.6383c0 .2099-.1707.3802-.3801.3802z"/><path id="_420423360" d="m9.9435 32.9956c-.2103 0-.3796-.1703-.3796-.3802v-6.2017c0-.2109.1693-.3802.3792-.3802.2112 0 .3803.1693.3803.3802l.0002 6.2017c0 .2099-.1696.3802-.3801.3802zm0 8.4366c-.2103 0-.3796-.1703-.3796-.3802v-6.2017c0-.2099.1693-.3802.3792-.3802.2112 0 .3803.1703.3803.3802l.0002 6.2017c0 .2099-.1696.3802-.3801.3802z"/><path id="_420423000" d="m13.8536 32.9956c-.2099 0-.3804-.1703-.3804-.3802l.0003-6.2017c0-.2109.1701-.3802.3799-.3802.2114 0 .3803.1693.3803.3802v6.2017c0 .2099-.1693.3802-.3801.3802zm0 8.4366c-.2099 0-.3804-.1703-.3804-.3802l.0003-6.2017c0-.2099.1701-.3802.3799-.3802.2114 0 .3803.1703.3803.3802v6.2017c0 .2099-.1693.3802-.3801.3802z"/><path id="_420423096" d="m17.7641 32.9956c-.2098 0-.3805-.1703-.3805-.3802v-6.2017c0-.2109.1703-.3802.3802-.3802.2102 0 .3802.1693.3802.3802l.0002 6.2017c0 .2099-.1705.3802-.3801.3802zm0 8.4366c-.2098 0-.3805-.1703-.3805-.3802v-6.2017c0-.2099.1703-.3802.3802-.3802.2102 0 .3802.1703.3802.3802l.0002 6.2017c0 .2099-.1705.3802-.3801.3802z"/><path id="_420423288" d="m21.6742 32.9956c-.2099 0-.3803-.1703-.3803-.3802l.0002-6.2017c0-.2109.1701-.3802.38-.3802.21 0 .3802.1693.3802.3802l.0005 6.2017c0 .2099-.1708.3802-.3806.3802zm0 8.4366c-.2099 0-.3803-.1703-.3803-.3802l.0002-6.2017c0-.2099.1701-.3802.38-.3802.21 0 .3802.1703.3802.3802l.0005 6.2017c0 .2099-.1708.3802-.3806.3802z"/><path id="_420423528" d="m25.5847 32.9956c-.2098 0-.3805-.1703-.3805-.3802l.0004-6.2017c0-.2109.1699-.3802.3799-.3802.2101 0 .3801.1693.3801.3802l.0002 6.2017c0 .2099-.1704.3802-.3801.3802zm0 8.4366c-.2098 0-.3805-.1703-.3805-.3802l.0004-6.2017c0-.2099.1699-.3802.3799-.3802.2101 0 .3801.1703.3801.3802l.0002 6.2017c0 .2099-.1704.3802-.3801.3802z"/><path id="_420422592" d="m29.4948 32.9956c-.2098 0-.3803-.1703-.3803-.3802l.0003-6.2017c0-.2109.1701-.3802.38-.3802.2098 0 .3802.1693.3802.3802l.0003 6.2017c0 .2099-.1707.3802-.3805.3802zm0 8.4366c-.2098 0-.3803-.1703-.3803-.3802l.0003-6.2017c0-.2099.1701-.3802.38-.3802.2098 0 .3802.1703.3802.3802l.0003 6.2017c0 .2099-.1707.3802-.3805.3802z"/><path id="_420422856" d="m33.4054 32.9956c-.2099 0-.3805-.1703-.3805-.3802l.0004-6.2017c0-.2109.1699-.3802.3798-.3802.2101 0 .3802.1693.3802.3802l.0001 6.2017c0 .2099-.1704.3802-.38.3802zm0 8.4366c-.2099 0-.3805-.1703-.3805-.3802l.0004-6.2017c0-.2099.1699-.3802.3798-.3802.2101 0 .3802.1703.3802.3802l.0001 6.2017c0 .2099-.1704.3802-.38.3802z"/><path id="_420422832" d="m35.7215 43.3493h-28.0933c-.1515 0-.2883-.0892-.3487-.2278l-.8366-1.917c-.0842-.1931.0038-.4169.1969-.5011.1921-.0832.4159.004.5.1971l.737 1.6883h27.5952l.7365-1.6883c.0842-.1931.3089-.2803.5009-.1971.1925.0842.2802.308.196.5011l-.8363 1.917c-.0606.1386-.1974.2278-.3476.2278z"/><path id="_420422424" d="m9.9435 32.9956c-.4064 0-.7371.3308-.7371.7368.0001.4069.3307.7377.7367.7377.4072 0 .7378-.3308.7378-.7377.0001-.406-.3308-.7368-.7374-.7368zm0 2.235c-.8252 0-1.4976-.6724-1.4976-1.4982.0004-.8259.6724-1.4972 1.4972-1.4972.827 0 1.4982.6713 1.4982 1.4972.0003.8258-.6713 1.4982-1.4978 1.4982z"/><path id="_420422736" d="m33.4054 32.9956c-.4069 0-.738.3308-.738.7368 0 .4069.3307.7377.7377.7377.4061 0 .7377-.3308.7377-.7377.0004-.406-.3317-.7368-.7374-.7368zm0 2.235c-.8257 0-1.4985-.6724-1.4985-1.4982.0004-.8259.6723-1.4972 1.4982-1.4972s1.4981.6713 1.4981 1.4972c.0003.8258-.6723 1.4982-1.4978 1.4982z"/><path id="_420422328" d="m29.4948 32.9956c-.4068 0-.7378.3308-.7378.7368.0004.4069.3308.7377.7378.7377.4073 0 .7377-.3308.7377-.7377.0002-.406-.3308-.7368-.7377-.7368zm0 2.235c-.8257 0-1.4972-.6724-1.4972-1.4982 0-.8259.6714-1.4972 1.4972-1.4972.8261 0 1.4982.6713 1.4982 1.4972.0003.8258-.6724 1.4982-1.4982 1.4982z"/><path id="_420422712" d="m25.5847 32.9956c-.4059 0-.737.3308-.737.7368 0 .4069.3308.7377.7368.7377.4071 0 .7377-.3308.7377-.7377 0-.406-.3308-.7368-.7375-.7368zm0 2.235c-.8257 0-1.4974-.6724-1.4974-1.4982.0002-.8259.6713-1.4972 1.4972-1.4972s1.4981.6713 1.4981 1.4972c.0002.8258-.6723 1.4982-1.4979 1.4982z"/><path id="_420422520" d="m21.6742 32.9956c-.4059 0-.7369.3308-.7369.7368.0003.4069.3309.7377.7368.7377.4074 0 .7377-.3308.7377-.7377.0003-.406-.3307-.7368-.7376-.7368zm0 2.235c-.8257 0-1.4972-.6724-1.4972-1.4982 0-.8259.6712-1.4972 1.4971-1.4972.8262 0 1.4982.6713 1.4982 1.4972 0 .8258-.6724 1.4982-1.4981 1.4982z"/><path id="_420422688" d="m17.7641 32.9956c-.4059 0-.7371.3308-.7371.7368.0001.4069.3308.7377.7368.7377.4072 0 .7377-.3308.7377-.7377.0001-.406-.3308-.7368-.7374-.7368zm0 2.235c-.8261 0-1.4975-.6724-1.4975-1.4982.0003-.8259.6714-1.4972 1.4972-1.4972.826 0 1.4982.6713 1.4982 1.4972.0002.8258-.6724 1.4982-1.4979 1.4982z"/><path id="_420422400" d="m13.8536 32.9956c-.4059 0-.7369.3308-.7369.7368.0003.4069.3308.7377.7367.7377.407 0 .7378-.3308.7378-.7377.0003-.406-.3308-.7368-.7376-.7368zm0 2.235c-.8257 0-1.4973-.6724-1.4973-1.4982.0001-.8259.6713-1.4972 1.4971-1.4972.8259 0 1.4983.6713 1.4983 1.4972 0 .8258-.6724 1.4982-1.4981 1.4982z"/><path id="_420422640" d="m4.3228 26.0335h34.7037v-1.1566h-34.7037zm35.0842.7595h-35.4643c-.2099 0-.3805-.1693-.3805-.3793l.0004-1.917c0-.2109.17-.3802.3799-.3802h35.4645c.2099 0 .38.1693.38.3802l.0001 1.917c0 .21-.1704.3793-.3801.3793z"/><path id="_420421944" d="m3.9427 24.8769c-.2099 0-.3805-.1703-.3805-.3802l.0004-2.43c0-.2099.17-.3802.3799-.3802.2101 0 .3802.1703.3802.3802l.0001 2.43c0 .2099-.1704.3802-.3801.3802z"/><path id="_420421800" d="m3.9427 20.7042c-.2714 0-.4914.2208-.4914.4911.0004.2714.2199.4912.4912.4912.2707 0 .4911-.2198.4911-.4912.0001-.2703-.2208-.4911-.4909-.4911zm0 1.7428c-.6902 0-1.2519-.5615-1.2519-1.2517.0002-.6901.5615-1.2515 1.2517-1.2515.6904-.0001 1.2516.5614 1.2516 1.2515.0003.6902-.5615 1.2517-1.2514 1.2517z"/><path id="_420421680" d="m39.407 24.8769c-.2099 0-.3805-.1703-.3805-.3802v-2.43c0-.2099.1703-.3802.3802-.3802.2102 0 .3803.1703.3803.3802l.0001 2.43c0 .2099-.1704.3802-.3801.3802z"/><path id="_420421632" d="m39.407 20.7042c-.2713 0-.4914.2208-.4914.4911.0004.2714.2198.4912.4911.4912.2704 0 .4912-.2198.4912-.4912.0002-.2703-.2208-.4911-.4909-.4911zm0 1.7428c-.6902 0-1.2519-.5615-1.2519-1.2517.0002-.6901.5614-1.2515 1.2516-1.2515.6906-.0001 1.2517.5614 1.2517 1.2515.0003.6902-.5615 1.2517-1.2514 1.2517z"/><path id="_420421608" d="m33.0141 24.8769c-.2099 0-.3804-.1703-.3804-.3802l.0003-12.7766c0-6.0433-4.9166-10.9596-10.9599-10.9596-6.0421 0-10.9586 4.9163-10.9586 10.9596l.0002 12.7766c0 .2099-.1705.3802-.3804.3802-.2109 0-.3803-.1703-.3803-.3802l.0001-12.7766c0-6.4631 5.257-11.7201 11.719-11.7201 6.4621 0 11.7201 5.257 11.7201 11.7201v12.7766c0 .2099-.1703.3802-.3801.3802z"/><path id="_420421656" d="m21.6742 24.8769c-.2099 0-.3803-.1703-.3803-.3802l.0002-21.9479c0-.21.1701-.3803.38-.3803.21 0 .3802.1704.3802.3803l.0005 21.9479c0 .2099-.1708.3802-.3806.3802z"/><path id="_420421488" d="m30.812 11.2943h-18.2742c-.2113 0-.3806-.1703-.3806-.3803 0-.2099.1693-.3802.3803-.3802h18.2745c.2099 0 .38.1703.38.3802.0001.21-.1703.3803-.38.3803z"/><path id="_420421968" d="m21.6742 11.2943c-.115 0-.2238-.0525-.2961-.1426l-5.3353-6.6414c-.1315-.1633-.1049-.4029.0584-.5346.1635-.1318.403-.105.5347.0584l5.0307 6.262 4.8467-6.3898c.127-.1673.3653-.2.5327-.0732.1674.1277.2.3664.0732.5327l-5.142 6.778c-.0704.093-.1803.1485-.2972.1505-.0018 0-.0039 0-.0058 0z"/><path id="_420421440" d="m14.7479 18.8941c-.098 0-.1954-.0376-.2697-.1119-.1483-.1475-.1485-.3891 0-.5377l3.15-3.1488c.1475-.1486.3891-.1486.5376 0 .1486.1485.1486.3892 0 .5377l-3.1496 3.1488c-.0745.0743-.1715.1119-.2683.1119z"/><path id="_420421392" d="m16.2798 20.426c-.0971 0-.1954-.0366-.2696-.1109-.1483-.1486-.1486-.3892 0-.5377l3.15-3.1499c.1483-.1485.3889-.1485.5375 0 .1487.1486.1485.3892 0 .5377l-3.1496 3.1499c-.0744.0742-.1716.1109-.2683.1109z"/><path id="_420421080" d="m23.92 18.8941c-.0971 0-.1951-.0376-.2685-.1119-.1482-.1475-.1485-.3891 0-.5377l3.1493-3.1488c.1483-.1486.3888-.1486.5373 0 .1489.1485.1485.3892 0 .5377l-3.1485 3.1488c-.0745.0743-.1726.1119-.2696.1119z"/><path id="_420420960" d="m25.4519 20.426c-.0971 0-.1942-.0366-.2685-.1109-.1481-.1486-.1485-.3892 0-.5377l3.1488-3.1499c.1489-.1485.3903-.1485.5378 0 .1489.1486.1485.3892 0 .5377l-3.1489 3.1499c-.074.0742-.1713.1109-.2692.1109z"/></g></g></svg>