<svg id="Layer_5" enable-background="new 0 0 64 64" height="512" viewBox="0 0 64 64" width="512" xmlns="http://www.w3.org/2000/svg"><path d="m60 15h-7v-6h2v-8h-54v8h2v54h13.49c.003 0 .006.001.01.001s.006-.001.01-.001h4.981c.003 0 .006.001.01.001s.005-.001.009-.001h8.981c.003 0 .006.001.01.001s.005-.001.009-.001h4.981c.003 0 .006.001.01.001s.005-.001.009-.001h17.49v-18h7c1.654 0 3-1.346 3-3v-24c0-1.654-1.346-3-3-3zm-9 0h-1c-1.654 0-3 1.346-3 3v11.001h-9.541c.955-1.063 1.541-2.463 1.541-4.001 0-1.771-.776-3.36-2-4.46v-11.54h14zm5.234 20-1.234 2.057-1.234-2.057zm-4.229-2h-1.771l.001.001h-10.235c-1.654 0-3 1.346-3 3v23.5c0 .824-.668 1.494-1.49 1.499h-.02c-.822-.005-1.49-.675-1.49-1.499v-14.501h-2v14.501c0 .824-.668 1.494-1.49 1.499h-.02c-.822-.005-1.49-.675-1.49-1.499v-23.5h-2v10c-1.103 0-2-.897-2-2v-2-6c0-2.757 2.243-5 5-5h22c.551 0 1 .448 1 1 0 .55-.446.996-.995.999zm-30.515 28c-.822-.005-1.49-.675-1.49-1.499v-14.5h-2v14.5c0 .824-.668 1.494-1.49 1.499h-.02c-.822-.005-1.49-.675-1.49-1.499v-2.436-24.065h4v.001h3c.533 0 1.058.095 1.56.259-.36.843-.56 1.769-.56 2.741v6 2 15.5c0 .824-.668 1.494-1.49 1.499zm13.51-52v10.35c-.627-.222-1.298-.35-2-.35-3.309 0-6 2.691-6 6 0 1.602.635 3.056 1.661 4.133-1.605.312-3.016 1.174-4.027 2.382-.42-.17-.859-.285-1.304-.372 1.032-1.078 1.67-2.536 1.67-4.143 0-3.309-2.691-6-6-6-1.538 0-2.937.586-4 1.54v-13.54zm2 16c0 2.206-1.794 4-4 4s-4-1.794-4-4 1.794-4 4-4 4 1.794 4 4zm-22 2c0-2.206 1.794-4 4-4s4 1.794 4 4-1.794 4-4 4-4-1.794-4-4zm10 32.501v-12.056c.591.344 1.268.556 2 .556v11.5c0 .538.132 1.043.351 1.499h-2.701c.218-.456.35-.961.35-1.499zm-22-56.501h50v4h-50zm2 6h8v48.065 2.436 1.499h-8zm46 52h-12.351c.219-.456.351-.961.351-1.499v-23.5c0-.552.449-1 1-1h7v6.999c0 1.654 1.346 3 3 3h1zm10-19c0 .552-.449 1-1 1h-10c-.551 0-1-.448-1-1v-6.999h2.435l3.565 5.942 4.766-7.943h-4.95c.112-.314.184-.647.184-.999 0-1.654-1.346-3-3-3h-3v-11.001c0-.552.449-1 1-1h10c.551 0 1 .448 1 1z"/><path d="m50.234 27h9.532l-4.766-7.943zm3.532-2 1.234-2.057 1.234 2.057z"/><path d="m7 11h2v2h-2z"/><path d="m7 15h2v2h-2z"/><path d="m7 19h2v2h-2z"/><path d="m47 11h2v2h-2z"/><path d="m43 11h2v2h-2z"/><path d="m39 11h2v2h-2z"/><path d="m47 57h2v2h-2z"/><path d="m47 47h2v8h-2z"/></svg>