<svg id="Capa_1" enable-background="new 0 0 512 512" height="512" viewBox="0 0 512 512" width="512" xmlns="http://www.w3.org/2000/svg"><path d="m400.743 0h-289.486c-28.539 0-51.757 23.202-51.757 51.721v408.559c0 28.518 23.218 51.72 51.757 51.72h126.473c4.142 0 7.5-3.357 7.5-7.5s-3.358-7.5-7.5-7.5h-126.473c-20.268 0-36.757-16.473-36.757-36.721v-408.558c0-20.248 16.489-36.721 36.757-36.721h289.486c20.268 0 36.757 16.473 36.757 36.721v408.559c0 20.248-16.489 36.721-36.757 36.721h-126.87c-4.142 0-7.5 3.357-7.5 7.5s3.358 7.5 7.5 7.5h126.87c28.539 0 51.757-23.202 51.757-51.721v-408.559c0-28.519-23.218-51.721-51.757-51.721z"/><path d="m228.396 192.988h32.625c10.284 0 19.316-3.833 26.834-11.379 7.558-7.553 11.391-16.69 11.391-27.161 0-10.773-3.608-20.104-10.725-27.735-7.264-7.79-16.412-11.739-27.188-11.739h-32.938c-4.142 0-7.5 3.357-7.5 7.5v63.015c.001 4.142 3.359 7.499 7.501 7.499zm7.5-63.014h25.438c6.54 0 11.844 2.28 16.218 6.97 4.504 4.83 6.694 10.556 6.694 17.505 0 6.435-2.288 11.849-7.005 16.563-4.677 4.695-9.982 6.978-16.219 6.978h-25.125v-48.016z"/><path d="m202.721 315.161c9.007 0 16.871-3.294 23.373-9.791 6.504-6.499 9.802-14.35 9.802-23.334v-44.119h31.14c25.393 0 46.145-7.808 61.679-23.206 15.554-15.417 23.441-35.797 23.441-60.574 0-25.028-8.349-45.697-24.805-61.425-16.344-15.681-37.696-23.632-63.464-23.632h-60.201c-9.42 0-17.551 3.352-24.167 9.962-6.598 6.594-9.943 14.815-9.943 24.439v67.267c0 4.143 3.358 7.5 7.5 7.5s7.5-3.357 7.5-7.5v-67.267c0-5.576 1.814-10.1 5.546-13.828 3.805-3.803 8.116-5.573 13.565-5.573h60.201c22.072 0 39.435 6.364 53.09 19.466 13.579 12.978 20.179 29.525 20.179 50.591 0 20.919-6.215 37.248-19 49.921-12.803 12.69-29.524 18.859-51.12 18.859h-38.64c-4.142 0-7.5 3.357-7.5 7.5v51.619c0 4.928-1.768 9.089-5.404 12.723-3.688 3.686-7.746 5.402-12.771 5.402-4.957 0-9.119-1.762-12.756-5.417-3.627-3.604-5.39-7.974-5.39-13.359v-75.997c0-4.143-3.358-7.5-7.5-7.5s-7.5 3.357-7.5 7.5v75.997c0 9.452 3.303 17.527 9.787 23.97 6.475 6.507 14.334 9.806 23.358 9.806z"/><path d="m375.749 376.021c4.142 0 7.5-3.357 7.5-7.5s-3.358-7.5-7.5-7.5h-26.384c-4.142 0-7.5 3.357-7.5 7.5v58.564c0 4.143 3.358 7.5 7.5 7.5h26.384c4.142 0 7.5-3.357 7.5-7.5s-3.358-7.5-7.5-7.5h-18.884v-15.699h15.111c4.142 0 7.5-3.357 7.5-7.5s-3.358-7.5-7.5-7.5h-15.111v-12.865z"/><path d="m308.541 376.021c4.142 0 7.5-3.357 7.5-7.5s-3.358-7.5-7.5-7.5h-26.384c-4.142 0-7.5 3.357-7.5 7.5v58.564c0 4.143 3.358 7.5 7.5 7.5h26.384c4.142 0 7.5-3.357 7.5-7.5s-3.358-7.5-7.5-7.5h-18.884v-15.729h15.11c4.142 0 7.5-3.357 7.5-7.5s-3.358-7.5-7.5-7.5h-15.11v-12.836h18.884z"/><path d="m246.79 385.274c0-13.373-10.886-24.253-24.267-24.253h-18.752c-4.142 0-7.5 3.357-7.5 7.5v33.506 25.059c0 4.143 3.358 7.5 7.5 7.5s7.5-3.357 7.5-7.5v-17.559h7.031l13.016 21.449c1.411 2.325 3.884 3.61 6.419 3.61 1.325 0 2.668-.352 3.884-1.089 3.541-2.149 4.669-6.762 2.521-10.303l-10.07-16.595c7.568-4.109 12.718-12.127 12.718-21.325zm-35.519-9.253h11.252c5.11 0 9.267 4.15 9.267 9.253s-4.157 9.253-9.267 9.253h-11.252z"/><path d="m163.401 376.021c4.142 0 7.5-3.357 7.5-7.5s-3.358-7.5-7.5-7.5h-26.384c-4.142 0-7.5 3.357-7.5 7.5v58.564c0 4.143 3.358 7.5 7.5 7.5s7.5-3.357 7.5-7.5v-23.199h15.139c4.142 0 7.5-3.357 7.5-7.5s-3.358-7.5-7.5-7.5h-15.139v-12.865z"/><path d="m109.119 56.767v7.852c0 4.143 3.358 7.5 7.5 7.5s7.5-3.357 7.5-7.5v-7.852c0-4.143-3.358-7.5-7.5-7.5s-7.5 3.357-7.5 7.5z"/><path d="m407.931 64.618v-7.852c0-4.143-3.358-7.5-7.5-7.5s-7.5 3.357-7.5 7.5v7.852c0 4.143 3.358 7.5 7.5 7.5s7.5-3.357 7.5-7.5z"/></svg>