<svg id="Image" height="512" viewBox="0 0 30 30" width="512" xmlns="http://www.w3.org/2000/svg"><g><path d="m26 3h-18.278c-.347-.595-.985-1-1.722-1h-2c-1.103 0-2 .896-2 2v17c0 1.103.897 2 2 2v2c0 1.654 1.346 3 3 3s3-1.346 3-3v-3h16c1.103 0 2-.897 2-2v-15c0-1.104-.897-2-2-2zm-23 18v-17c0-.551.449-1 1-1h2c.551 0 1 .449 1 1v17c0 .551-.449 1-1 1h-2c-.551 0-1-.449-1-1zm6 4c0 1.103-.897 2-2 2s-2-.897-2-2v-2h1c.737 0 1.375-.405 1.722-1h1.278zm18-5c0 .551-.449 1-1 1h-18v-17h18c.551 0 1 .449 1 1z"/><path d="m24.5 5h-14c-.276 0-.5.223-.5.5v8c0 .276.224.5.5.5h14c.276 0 .5-.224.5-.5v-8c0-.277-.224-.5-.5-.5zm-6.32 5.539c-.013.009-.027.017-.039.027-.188.145-.406.234-.641.234-.234 0-.451-.088-.639-.232-.014-.012-.03-.021-.046-.032-.34-.286-.565-.777-.565-1.336 0-.882.561-1.6 1.25-1.6s1.25.718 1.25 1.6c0 .56-.228 1.053-.57 1.339zm-1.742.938c.318.199.676.322 1.062.322s.744-.123 1.062-.322c1.41.221 1.81.895 1.905 1.522h-5.934c.095-.626.495-1.301 1.905-1.522zm7.562 1.523h-2.524c-.1-.931-.59-1.933-2.099-2.372.234-.41.373-.9.373-1.427 0-1.434-1.009-2.6-2.25-2.6s-2.25 1.167-2.25 2.6c0 .527.138 1.017.373 1.427-1.509.439-1.999 1.442-2.099 2.372h-2.524v-7h13z"/><circle cx="12.5" cy="17.5" r=".5"/><circle cx="14.5" cy="17.5" r=".5"/><circle cx="16.5" cy="17.5" r=".5"/><circle cx="18.5" cy="17.5" r=".5"/><circle cx="20.5" cy="17.5" r=".5"/><circle cx="22.5" cy="17.5" r=".5"/><circle cx="12.5" cy="19.5" r=".5"/><circle cx="14.5" cy="19.5" r=".5"/><circle cx="16.5" cy="19.5" r=".5"/><circle cx="18.5" cy="19.5" r=".5"/><circle cx="20.5" cy="19.5" r=".5"/><circle cx="22.5" cy="19.5" r=".5"/><path d="m15.5 15h-3c-.276 0-.5.224-.5.5s.224.5.5.5h3c.276 0 .5-.224.5-.5s-.224-.5-.5-.5z"/><path d="m22.5 15h-3c-.276 0-.5.224-.5.5s.224.5.5.5h3c.276 0 .5-.224.5-.5s-.224-.5-.5-.5z"/></g></svg>