<?xml version="1.0" encoding="UTF-8"?>
<svg xmlns="http://www.w3.org/2000/svg" id="Layer_3" data-name="Layer 3" viewBox="0 0 64 64" width="512" height="512"><path d="M2,63H46a1,1,0,0,0,1-1V51a12.086,12.086,0,0,0-8.273-11.479L29,36.28V33.647A9.8,9.8,0,0,0,29.975,33H41a1,1,0,0,0,.6-1.8A9.044,9.044,0,0,1,38,24V15a14,14,0,0,0-28,0v9a9.044,9.044,0,0,1-3.6,7.2A1,1,0,0,0,7,33H18.025a9.8,9.8,0,0,0,.975.647V36.28L9.273,39.521A12.086,12.086,0,0,0,1,51V62A1,1,0,0,0,2,63Zm9-14V41.054l3-1V49Zm0,2H37V61H34V55a1,1,0,0,0-1-1H15a1,1,0,0,0-1,1v6H11Zm26-2H34V40.054l3,1ZM32,61H16V56H32C32,57.333,32,59.672,32,61ZM45,51V61H39V41.775A10.082,10.082,0,0,1,45,51ZM38.519,31H31.981A9.936,9.936,0,0,0,33.8,27H34a3.968,3.968,0,0,0,2.256-.7A11.1,11.1,0,0,0,38.519,31ZM34,21a2,2,0,0,1,0,4ZM24,3A12.013,12.013,0,0,1,36,15v4.556A3.959,3.959,0,0,0,34,19V18a1,1,0,0,0-1-1H27a4,4,0,0,1-4-4,1,1,0,0,0-1.581-.814l-7,5A1,1,0,0,0,14,18v1a3.959,3.959,0,0,0-2,.556V15A12.013,12.013,0,0,1,24,3ZM14,25a2,2,0,0,1,0-4Zm-2.256,1.3A3.968,3.968,0,0,0,14,27h.2a9.936,9.936,0,0,0,1.817,4H9.481A11.1,11.1,0,0,0,11.744,26.3ZM16,25V18.515l5.262-3.759A6.012,6.012,0,0,0,27,19h5v6a8,8,0,0,1-16,0Zm8,10a9.954,9.954,0,0,0,3-.461V36.7l-3,4.5-3-4.5V34.539A9.954,9.954,0,0,0,24,35Zm-4.408,3.191,3.576,5.364a1,1,0,0,0,1.664,0l3.576-5.364L32,39.388V49H16V39.388ZM3,51a10.082,10.082,0,0,1,6-9.225V61H3Z"/><path d="M45,36a1,1,0,0,0,1,1h3V62a1,1,0,0,0,1,1h4a1,1,0,0,0,1-1V37h3a1,1,0,0,0,1-1V32.109l3.976-17.893A1,1,0,0,0,62,13H58a1,1,0,0,0-.949.684L56,16.838l-1.051-3.154A1,1,0,0,0,54,13H42a1,1,0,0,0-.976,1.217L45,32.109Zm8,25H51V37h2Zm4-26H47V33H57ZM45.219,15l1.811,7.244,1.94-.486L47.281,15h1.938l1.811,7.243,1.94-.486L51.281,15h2l1.772,5.316a1,1,0,0,0,1.9,0L58.721,15h2.032L57.2,31H46.8L43.247,15Z"/></svg>
