<svg id="Capa_1" enable-background="new 0 0 511.994 511.994" height="512" viewBox="0 0 511.994 511.994" width="512" xmlns="http://www.w3.org/2000/svg"><g><g><path d="m488.445 266.495c-3.899 0-7.531-1.928-9.716-5.158-9.469-13.998-25.211-22.354-42.111-22.354h-12.399c-21.827 0-39.583 17.757-39.583 39.583v11.104c0 1.063.056 2.113.164 3.148-36.844-14.498-71.473-35.369-103.348-62.319 1.071-1.717 1.998-3.542 2.721-5.483 2.874-7.713 2.572-16.083-.851-23.569-3.422-7.485-9.554-13.19-17.267-16.063l-53.68-19.999s-46.638-46.349-46.692-46.405c-3.113-3.17-6.536-5.914-10.19-8.234 10.389-8.703 17.01-21.762 17.01-36.343 0-26.14-21.266-47.406-47.406-47.406-26.139 0-47.405 21.266-47.405 47.406 0 14.595 6.634 27.666 17.04 36.369-3.655 2.317-7.033 5.032-10.062 8.096-.082.074-48.978 47.289-48.978 47.289-3.096 2.866-5.531 6.275-7.239 10.136l-25.818 58.332c-6.876 15.538.17 33.773 15.708 40.649 3.96 1.752 8.152 2.641 12.458 2.641 12.035 0 22.972-7.018 27.996-17.921l9.415-17.149v12.883c0 4.416 2.865 8.155 6.835 9.48l-16.286 84.689-46.543 83.556c-4.479 8.042-5.56 17.346-3.041 26.2s8.334 16.197 16.376 20.676c5.121 2.852 10.912 4.36 16.747 4.36 12.503 0 24.048-6.781 30.129-17.696l49.234-88.388c1.731-3.109 2.965-6.449 3.67-9.933l10.397-40.471 20.404 41.596.92 4.679c1.065 5.419 6.322 8.951 11.741 7.883 5.419-1.065 8.949-6.322 7.883-11.741l-1.174-5.972c-.168-.858-.449-1.69-.834-2.475l-32.91-67.09c-1.844-3.759-5.838-5.974-9.999-5.544-4.165.428-7.623 3.404-8.665 7.459 0 0-17.301 67.368-17.34 67.569-.291 1.512-.819 2.961-1.568 4.307l-49.229 88.388c-2.553 4.582-7.402 7.429-12.657 7.429-2.472 0-4.832-.617-7.015-1.833-3.375-1.879-5.815-4.961-6.872-8.676s-.604-7.62 1.276-10.995l47.324-84.958c.518-.929.883-1.934 1.084-2.978l17.215-89.522h66.557l40.38 87.161c.485 1.047.845 2.154 1.068 3.289l17.884 90.98c.745 3.79-.031 7.644-2.184 10.851s-5.427 5.383-9.217 6.128c-.932.183-1.879.276-2.816.276-5.277 0-10.13-2.882-12.666-7.522-2.648-4.847-8.723-6.629-13.57-3.981s-6.629 8.723-3.981 13.57c6.044 11.063 17.624 17.935 30.218 17.933 2.228 0 4.473-.219 6.673-.652 9.032-1.775 16.832-6.961 21.963-14.604s6.979-16.825 5.204-25.857l-17.883-90.979c-.531-2.704-1.388-5.342-2.545-7.84l-39.26-84.744c.538-1.228.842-2.582.842-4.009v-36.061c.904.441 1.831.843 2.784 1.198l59.775 22.27c3.463 1.291 7.082 1.945 10.755 1.945 3.573 0 7.045-.648 10.302-1.815 37.413 32.216 78.546 56.427 122.599 72.194-2.562.596-5.209.909-7.902.909h-40.674c-18.801 0-35.586 8.753-46.527 22.387-16.063-1.859-29.532-13.407-33.586-29.363-1.36-5.353-6.801-8.592-12.154-7.229-5.353 1.36-8.589 6.801-7.229 12.154 5.451 21.458 22.182 37.637 42.908 42.886-1.972 5.918-3.057 12.238-3.057 18.81 0 10.808 2.939 21.419 8.5 30.686l2.035 3.392-6.583 21.791c-.546 1.809-.569 3.734-.066 5.555l7.209 26.087c3.495 12.643 15.096 21.474 28.213 21.474 9.43 0 18.333-4.581 23.815-12.252 5.482-7.672 6.932-17.579 3.877-26.5l-1.55-4.527 5.72-5.763c2.386-2.405 4.497-5.027 6.328-7.812h54.001l27.897 43.399c5.416 8.425 14.629 13.455 24.645 13.455 10.373 0 19.758-5.307 25.105-14.195s5.638-19.666.778-28.829l-19.915-37.552c-1.151-2.17-1.028-4.793.321-6.845 12.238-18.617 15.257-41.214 8.888-61.886 18.185-.591 32.8-15.559 32.8-33.886v-11.759c.001-12.986-10.563-23.55-23.548-23.55zm-83.81 12.071c0-10.798 8.785-19.583 19.583-19.583h.954v30.688c0 5.663-4.606 10.269-10.269 10.269-5.662 0-10.269-4.606-10.269-10.269v-11.105zm-279.539-231.569c15.112 0 27.406 12.294 27.406 27.406 0 15.111-12.294 27.405-27.406 27.405-15.111 0-27.405-12.294-27.405-27.405 0-15.112 12.294-27.406 27.405-27.406zm-84.393 204.474c-1.732 3.914-5.618 6.443-9.9 6.443-1.502 0-2.971-.313-4.366-.93-5.453-2.413-7.925-8.812-5.512-14.266l25.816-58.332c.606-1.369 1.473-2.577 2.576-3.59.063-.058 18.896-18.249 18.896-18.249v38.739s-27.395 49.925-27.51 50.185zm210.819-27.078-59.776-22.27c-1.404-.523-2.662-1.316-3.739-2.356l-46.102-44.539c-3.972-3.838-10.303-3.729-14.14.244s-3.728 10.303.244 14.14l33.971 32.819v43.297h-73.767v-86.892c0-20.337 16.546-36.883 36.884-36.883 9.978 0 19.323 3.921 26.316 11.041.052.053 48.397 48.102 48.397 48.102 1.01 1.004 2.223 1.78 3.557 2.277l55.705 20.753c2.707 1.008 4.859 3.01 6.06 5.637s1.307 5.564.298 8.271c-1.569 4.213-5.643 7.044-10.137 7.044-1.28.001-2.548-.23-3.771-.685zm220.709 226.951c2.223 4.191.568 7.794-.247 9.148-.814 1.354-3.222 4.505-7.967 4.505-3.178 0-6.102-1.596-7.821-4.27l-30.849-47.991c-1.84-2.862-5.009-4.593-8.412-4.593h-51.712c1.093-6.758.862-13.753-.858-20.548-1.355-5.354-6.792-8.593-12.148-7.24-5.354 1.355-8.595 6.794-7.24 12.148 2.647 10.456-.429 21.708-8.026 29.364l-10.094 10.171c-2.679 2.699-3.595 6.685-2.363 10.283l3.561 10.402c.982 2.868.534 5.927-1.228 8.393s-4.512 3.881-7.543 3.881c-4.155 0-7.829-2.797-8.936-6.802l-6.439-23.299 7.026-23.262c.815-2.7.453-5.618-.998-8.036l-4.313-7.189c-3.696-6.16-5.649-13.213-5.649-20.397 0-21.86 17.785-39.645 39.645-39.645h40.674c12.904 0 25.151-4.503 34.869-12.575l42.1 10.536c7.981 16.832 6.69 36.505-3.668 52.261-5.361 8.156-5.851 18.58-1.278 27.202zm19.763-149.54c0 7.672-6.242 13.915-13.914 13.915h-12.8l-27.057-6.771c4.339-5.239 6.95-11.959 6.95-19.277v-29.467c6.848 1.975 12.891 6.279 16.991 12.34 5.91 8.736 15.734 13.952 26.281 13.952 1.957 0 3.549 1.592 3.549 3.549z"/><circle cx="175.664" cy="416.685" r="10"/></g></g></svg>