<svg clip-rule="evenodd" fill-rule="evenodd" height="512" image-rendering="optimizeQuality" shape-rendering="geometricPrecision" text-rendering="geometricPrecision" viewBox="0 0 512 512" width="512" xmlns="http://www.w3.org/2000/svg" xmlns:xodm="http://www.corel.com/coreldraw/odm/2003"><g id="Layer_x0020_1"><g id="_2509058771568"><g><g id="_213149736"><path d="m106.12 511.9h-77.72c-8.87 0-16.09-7.22-16.09-16.09v-167.55c0-8.87 7.22-16.09 16.09-16.09h77.72c8.87 0 16.09 7.22 16.09 16.09v167.55c0 8.87-7.22 16.09-16.09 16.09zm-77.72-187.74c-2.26 0-4.1 1.84-4.1 4.1v167.55c0 2.26 1.84 4.09 4.1 4.09h77.72c2.26 0 4.09-1.83 4.09-4.09v-167.55c0-2.26-1.83-4.1-4.09-4.1z"/></g><g><g id="_213150744"><path d="m84.92 347.38h-35.32c-3.32 0-6-2.69-6-6s2.68-6 6-6h35.32c3.31 0 6 2.69 6 6s-2.69 6-6 6z"/></g><g id="_213150576"><path d="m84.92 382.7h-35.32c-3.32 0-6-2.68-6-5.99 0-3.32 2.68-6 6-6h35.32c3.31 0 6 2.68 6 6 0 3.31-2.69 5.99-6 5.99z"/></g><g id="_213151656"><path d="m84.92 418.03h-35.32c-3.32 0-6-2.69-6-6s2.68-6 6-6h35.32c3.31 0 6 2.69 6 6s-2.69 6-6 6z"/></g><g id="_213151104"><path d="m84.92 453.36h-35.32c-3.32 0-6-2.69-6-6s2.68-6 6-6h35.32c3.31 0 6 2.69 6 6s-2.69 6-6 6z"/></g><g id="_213151200"><path d="m84.92 488.68h-35.32c-3.32 0-6-2.68-6-6 0-3.31 2.68-5.99 6-5.99h35.32c3.31 0 6 2.68 6 5.99 0 3.32-2.69 6-6 6z"/></g></g><g id="_213150792"><path d="m483.6 511.9h-77.72c-8.87 0-16.09-7.22-16.09-16.09v-167.55c0-8.87 7.22-16.09 16.09-16.09h77.72c8.87 0 16.09 7.22 16.09 16.09v167.55c0 8.87-7.22 16.09-16.09 16.09zm-77.72-187.74c-2.25 0-4.09 1.84-4.09 4.1v167.55c0 2.26 1.84 4.09 4.09 4.09h77.72c2.26 0 4.1-1.83 4.1-4.09v-167.55c0-2.26-1.84-4.1-4.1-4.1z"/></g><g><g id="_213151224"><path d="m462.41 347.38h-35.33c-3.31 0-6-2.69-6-6s2.69-6 6-6h35.33c3.31 0 5.99 2.69 5.99 6s-2.68 6-5.99 6z"/></g><g id="_213151608"><path d="m462.41 382.7h-35.33c-3.31 0-6-2.68-6-5.99 0-3.32 2.69-6 6-6h35.33c3.31 0 5.99 2.68 5.99 6 0 3.31-2.68 5.99-5.99 5.99z"/></g><g id="_213151320"><path d="m462.41 418.03h-35.33c-3.31 0-6-2.69-6-6s2.69-6 6-6h35.33c3.31 0 5.99 2.69 5.99 6s-2.68 6-5.99 6z"/></g><g id="_213151440"><path d="m462.41 453.36h-35.33c-3.31 0-6-2.69-6-6s2.69-6 6-6h35.33c3.31 0 5.99 2.69 5.99 6s-2.68 6-5.99 6z"/></g><g id="_213151296"><path d="m462.41 488.68h-35.33c-3.31 0-6-2.68-6-6 0-3.31 2.69-5.99 6-5.99h35.33c3.31 0 5.99 2.68 5.99 5.99 0 3.32-2.68 6-5.99 6z"/></g></g><g id="_213151560"><path d="m256 510.38c-35.4 0-67.1-11.64-80.53-29.27h-59.26c-3.31 0-6-2.68-6-6v-126.16c0-3.31 2.69-6 6-6h279.58c3.31 0 6 2.69 6 6v126.16c0 3.31-2.69 6-6 6h-59.25c-13.44 17.63-45.14 29.27-80.54 29.27zm-133.79-41.26h56.38c2.06 0 3.98 1.05 5.08 2.79 9.82 15.59 39.57 26.48 72.33 26.48s62.51-10.89 72.34-26.48c1.1-1.74 3.01-2.79 5.07-2.79h56.38v-114.17h-267.58z"/></g><g id="_213151176"><path d="m328.67 354.95h-161.49c-3.31 0-6-2.69-6-6v-37.35c0-8.31 6.77-15.08 15.08-15.08h143.33c8.31 0 15.08 6.77 15.08 15.08v37.35c0 3.31-2.69 6-6 6zm-155.49-12h149.49v-31.35c0-1.67-1.41-3.09-3.08-3.09l-143.33.01c-1.67 0-3.08 1.41-3.08 3.08z"/></g><g id="_213152040"><path d="m286.79 308.52h-77.72c-3.31 0-6-2.69-6-6v-46.06c0-1.91.91-3.71 2.46-4.84 1.54-1.13 3.53-1.45 5.35-.87 11.96 3.79 24.42 5.72 37.05 5.72s25.09-1.93 37.04-5.72c1.82-.58 3.81-.26 5.36.87 1.54 1.13 2.45 2.93 2.45 4.84v46.06c0 3.31-2.68 6-5.99 6zm-71.72-12h65.72v-32.12c-10.71 2.7-21.73 4.06-32.86 4.06s-22.16-1.36-32.86-4.06z"/></g><g><g id="_213152280"><path d="m247.93 268.46c-73.99 0-134.18-60.19-134.18-134.18 0-73.98 60.19-134.18 134.18-134.18s134.18 60.2 134.18 134.18c0 73.99-60.2 134.18-134.18 134.18zm0-256.36c-67.38 0-122.19 54.81-122.19 122.18 0 67.38 54.81 122.19 122.19 122.19 67.37 0 122.18-54.81 122.18-122.19 0-67.37-54.81-122.18-122.18-122.18z"/></g><g><g id="_213151752"><path d="m247.93 244.26c-60.65 0-109.98-49.33-109.98-109.98 0-60.64 49.33-109.98 109.98-109.98 60.64 0 109.98 49.34 109.98 109.98 0 60.65-49.34 109.98-109.98 109.98zm0-207.96c-54.03 0-97.99 43.95-97.99 97.98s43.96 97.99 97.99 97.99 97.98-43.96 97.98-97.99-43.95-97.98-97.98-97.98z"/></g><g id="_213152088"><path d="m247.93 75.29c-3.31 0-6-2.69-6-6v-10.23c0-3.31 2.69-6 6-6s5.99 2.69 5.99 6v10.23c0 3.31-2.68 6-5.99 6z"/></g><g id="_213151968"><path d="m280.42 84c-1.02 0-2.05-.26-3-.81-2.86-1.65-3.85-5.32-2.19-8.19l5.11-8.86c1.66-2.87 5.33-3.85 8.2-2.2 2.87 1.66 3.85 5.33 2.19 8.19l-5.11 8.87c-1.11 1.92-3.13 3-5.2 3z"/></g><g id="_213151704"><path d="m304.22 107.79c-2.08 0-4.09-1.08-5.21-3-1.65-2.87-.67-6.54 2.2-8.2l8.86-5.11c2.87-1.66 6.54-.68 8.2 2.19 1.65 2.87.67 6.54-2.2 8.2l-8.86 5.11c-.95.55-1.98.81-2.99.81z"/></g><g id="_213152160"><path d="m323.15 140.28h-10.23c-3.31 0-6-2.68-6-6 0-3.31 2.69-5.99 6-5.99h10.23c3.31 0 6 2.68 6 5.99 0 3.32-2.69 6-6 6z"/></g><g id="_213151776"><path d="m313.07 177.89c-1.02 0-2.05-.25-3-.8l-8.86-5.12c-2.87-1.65-3.85-5.32-2.19-8.19 1.65-2.87 5.32-3.85 8.19-2.2l8.86 5.12c2.87 1.66 3.85 5.33 2.2 8.19-1.11 1.93-3.13 3-5.2 3z"/></g><g id="_213151944"><path d="m285.54 205.43c-2.07 0-4.08-1.08-5.2-3l-5.11-8.86c-1.66-2.87-.67-6.54 2.19-8.2 2.88-1.65 6.54-.67 8.2 2.2l5.11 8.86c1.66 2.87.68 6.54-2.19 8.19-.95.55-1.98.81-3 .81z"/></g><g id="_213152328"><path d="m247.93 215.5c-3.31 0-6-2.68-6-5.99v-10.23c0-3.32 2.69-6 6-6s5.99 2.68 5.99 6v10.23c0 3.31-2.68 5.99-5.99 5.99z"/></g><g id="_213153192"><path d="m210.31 205.43c-1.02 0-2.05-.26-2.99-.81-2.87-1.65-3.85-5.32-2.2-8.19l5.12-8.86c1.65-2.87 5.32-3.85 8.19-2.2 2.87 1.66 3.85 5.33 2.19 8.2l-5.11 8.86c-1.11 1.92-3.13 3-5.2 3z"/></g><g id="_213152736"><path d="m182.79 177.89c-2.08 0-4.09-1.07-5.2-3-1.66-2.86-.68-6.53 2.19-8.19l8.86-5.12c2.87-1.65 6.54-.67 8.19 2.2 1.66 2.87.68 6.54-2.19 8.19l-8.86 5.12c-.95.55-1.98.8-2.99.8z"/></g><g id="_213152784"><path d="m182.94 140.28h-10.24c-3.31 0-6-2.68-6-6 0-3.31 2.69-5.99 6-5.99h10.24c3.31 0 5.99 2.68 5.99 5.99 0 3.32-2.68 6-5.99 6z"/></g><g id="_213152856"><path d="m191.64 107.79c-1.02 0-2.05-.26-3-.81l-8.86-5.12c-2.87-1.65-3.85-5.32-2.19-8.19 1.65-2.87 5.32-3.85 8.19-2.19l8.86 5.11c2.87 1.66 3.85 5.33 2.2 8.19-1.11 1.93-3.13 3.01-5.2 3.01z"/></g><g id="_213153096"><path d="m215.44 84c-2.08 0-4.09-1.08-5.2-3l-5.12-8.87c-1.66-2.86-.67-6.53 2.19-8.19 2.87-1.65 6.54-.67 8.2 2.2l5.11 8.86c1.66 2.87.68 6.54-2.19 8.19-.94.55-1.98.81-2.99.81z"/></g><g id="_213152568"><path d="m247.93 155.49c-11.7 0-21.21-9.51-21.21-21.21 0-11.69 9.51-21.2 21.21-21.2 11.69 0 21.2 9.51 21.2 21.2 0 11.7-9.51 21.21-21.2 21.21zm0-30.42c-5.08 0-9.21 4.13-9.21 9.21s4.13 9.21 9.21 9.21 9.21-4.13 9.21-9.21-4.13-9.21-9.21-9.21z"/></g><g id="_213152760"><path d="m247.93 125.07c-3.31 0-6-2.68-6-6v-31.39c0-3.31 2.69-6 6-6s5.99 2.69 5.99 6v31.39c0 3.32-2.68 6-5.99 6z"/></g></g></g><g id="_213152976"><path d="m435.94 135.13c-16.49 0-29.91-13.42-29.91-29.91 0-8.92 9.07-26.77 20.02-47.45 1.87-3.52 3.48-6.56 4.52-8.65 1.01-2.04 3.09-3.33 5.37-3.33s4.36 1.29 5.37 3.33c1.04 2.09 2.65 5.13 4.52 8.65 10.95 20.68 20.02 38.53 20.02 47.45 0 16.49-13.42 29.91-29.91 29.91zm0-70.4c-6.27 11.84-17.91 34.07-17.91 40.49 0 9.88 8.03 17.92 17.91 17.92s17.91-8.04 17.91-17.92c0-6.42-11.64-28.65-17.91-40.49z"/></g><g id="_213153072"><path d="m440.4 234.66c-16.49 0-29.91-13.41-29.91-29.9 0-8.93 9.06-26.77 20.02-47.44 1.86-3.53 3.48-6.58 4.52-8.67 1.01-2.04 3.09-3.33 5.37-3.33 2.27 0 4.35 1.29 5.37 3.33 1.04 2.09 2.65 5.13 4.51 8.66 10.96 20.68 20.02 38.52 20.02 47.45.01 16.49-13.41 29.9-29.9 29.9zm0-70.39c-6.27 11.84-17.91 34.07-17.91 40.49 0 9.87 8.03 17.91 17.91 17.91 9.87 0 17.91-8.04 17.91-17.91 0-6.42-11.65-28.65-17.91-40.49z"/></g></g></g></g></svg>