<?xml version="1.0" encoding="UTF-8"?>
<svg width="700px" height="700px" viewBox="0 0 700 700" version="1.1" xmlns="http://www.w3.org/2000/svg" xmlns:xlink="http://www.w3.org/1999/xlink">
    <title>Avatr Technology Logo</title>
    <g id="Avatr-Technology-Logo" stroke="none" stroke-width="1" fill="none" fill-rule="evenodd">
        <rect fill="#FFFFFF" x="0" y="0" width="700" height="700"></rect>
        <path d="M251,119 L340.538315,407.35 L251,449 L251,119 Z M437.510186,99 L345.003218,396.904973 L252.348203,99 L437.510186,99 Z M440,449 L349.461685,407.349177 L440,119 L440,449 Z M263.271572,451 L345.003218,413.206016 L426.734865,450.982051 L263.271572,451 Z M440.779505,458 C444.257668,458 446,456.233762 446,452.714468 L446,97.2921221 C446,93.7662375 444.257668,92 440.779505,92 L249.226996,92 C245.742332,92 244,93.7662375 244,97.2855316 L244,452.707878 C244,456.233762 245.742332,458 249.226996,458 L440.779505,458 Z" id="Graphic" fill="#000000" fill-rule="nonzero"></path>
        <path d="M157.535208,524.357113 L203.353621,568.996167 L196.260624,568.996167 C193.008091,568.996167 189.888272,567.73465 187.584438,565.488977 L156.586862,535.292646 C155.254476,533.993261 153.099145,533.993261 151.766759,535.292646 L120.769184,565.488977 C118.464939,567.735112 115.345588,568.996167 112.092998,568.996167 L105,568.996167 L150.822332,524.357113 C152.677584,522.547629 155.679956,522.547629 157.535208,524.357113 Z M351.487546,524.357113 L397.309878,568.996167 L390.21688,568.996167 C386.964347,568.996167 383.844528,567.73465 381.540694,565.488977 L350.543119,535.292646 C349.206814,533.993261 347.051483,533.993261 345.719097,535.292646 L314.72544,565.488977 C312.417277,567.735112 309.297925,568.996167 306.045335,568.996167 L298.952338,568.996167 L344.77467,524.357113 C346.629921,522.547629 349.632294,522.547629 351.487546,524.357113 Z M209.129908,523.000233 C212.38244,523.000233 215.50226,524.261749 217.806094,526.507423 L248.803669,556.703754 C250.136055,558.003139 252.291386,558.003139 253.623772,556.703754 L284.621348,526.507423 C286.925592,524.261288 290.044944,523.000233 293.297534,523.000233 L300.390531,523.000233 L254.568199,567.639287 C252.713401,569.446224 249.71404,569.446224 247.859242,567.639287 L202.03691,523.000233 L209.129908,523.000233 Z M437.175659,540.287035 C437.758001,540.286018 438.316791,540.511837 438.72857,540.9146 C439.140348,541.317364 439.371221,541.863922 439.370178,542.433515 L439.370178,566.84969 C439.374097,568.034085 438.390482,568.992334 437.179578,568.992334 L432.935536,568.992334 C431.724632,568.992334 430.744936,568.034085 430.744936,566.84969 L430.744936,542.429682 C430.744936,541.860753 430.976268,541.315181 431.387933,540.913247 C431.799598,540.511313 432.357793,540.28602 432.939455,540.287035 L437.175659,540.287035 Z M467.847976,523.011731 C471.107721,523.01064 474.235409,524.271534 476.547674,526.518922 L481.563717,531.394491 L402.267139,531.394491 C399.007562,531.394747 395.880187,530.13398 393.56744,527.887301 L388.551397,523.011731 L467.847976,523.011731 Z M571.554655,549.091426 C579.180607,549.091426 585.325259,542.931804 584.984325,535.461298 C584.662985,528.42392 578.432119,523.011732 571.213721,523.011732 L500.538465,523.011732 L505.566264,527.887301 C507.885267,530.134182 511.017474,531.394627 514.281638,531.394491 L571.260746,531.394491 C573.776605,531.394491 576.041662,533.188332 576.265032,535.633783 C576.37943,536.941493 575.926697,538.236029 575.017405,539.201233 C574.108112,540.166436 572.825972,540.713446 571.484117,540.708667 L502.732984,540.708667 C501.522513,540.708665 500.540627,541.667342 500.538465,542.851311 L500.538465,566.853523 C500.538465,568.037918 501.518161,569 502.732984,569 L506.988782,569 C508.199686,569 509.183301,568.037918 509.183301,566.853523 L509.183301,549.091426 L552.250729,549.091426 L569.152441,565.458313 C571.473078,567.722985 574.6171,568.995242 577.895246,568.996167 L585,568.996167 L564.473414,549.091426 L571.554655,549.091426 Z" id="Combined-Shape" fill="#000000" fill-rule="nonzero"></path>
    </g>
</svg>