<?xml version="1.0" encoding="UTF-8"?><svg id="a" xmlns="http://www.w3.org/2000/svg" viewBox="0 0 939.32 401.61"><defs><style>.b{fill:#dedde0;}.c{fill:#18191a;}.d{fill:#383945;}.e{fill:#bebec4;}.f{fill:#565662;}.g{fill:#878791;}.h{fill:#a8a8b0;}.i{fill:#d8d8d8;}.j{fill:#494954;}.k{fill:#0c0808;}.l{fill:#f6f6f6;}.m{fill:#080506;}.n{fill:#dedde2;}.o{fill:#15172f;}.p{fill:#9d9da5;}.q{fill:#bfbec5;}.r{fill:#e6e6e9;}.s{fill:#efeef1;}.t{fill:#e3e2e6;}.u{fill:#5c5d68;}.v{fill:#afaeb6;}.w{fill:#bebdc4;}.x{fill:#83838e;}.y{fill:#b8b7be;}.z{fill:#474853;}.aa{fill:#9f9fa7;}.ab{fill:#0a0606;}.ac{fill:#cbcbd0;}.ad{fill:#0c0809;}.ae{fill:#73737f;}.af{fill:#93939c;}.ag{fill:#d9d8dd;}.ah{fill:#444550;}.ai{fill:#15172a;}.aj{fill:#d3d2d8;}.ak{fill:#252628;}.al{fill:#16172d;}.am{fill:#2f303b;}.an{fill:#272834;}.ao{fill:#f6f5f5;}.ap{fill:#fdfdfd;}.aq{fill:#e4e3e3;}.ar{fill:#f9f9f9;}.as{fill:#787883;}.at{fill:#c1c0c7;}.au{fill:#bdbcbc;}.av{fill:#080404;}.aw{fill:#51525d;}.ax{fill:#dedee2;}.ay{fill:#2a2b2e;}.az{fill:#0d0a0a;}.ba{fill:#171718;}.bb{fill:#a7a6af;}.bc{fill:#090606;}.bd{fill:#0c0909;}.be{fill:#92929c;}.bf{fill:#0b0707;}.bg{fill:#110e0e;}.bh{fill:#ececef;}.bi{fill:#60606c;}.bj{fill:#c9c8ce;}.bk{fill:#dfdfe3;}.bl{fill:#e1e0e0;}.bm{fill:#090505;}.bn{fill:#3e3f4f;}.bo{fill:#120e0e;}.bp{fill:#cccbd0;}.bq{fill:#565763;}.br{fill:#a6a6ae;}.bs{fill:#d4d4d9;}.bt{fill:#7f7f8a;}.bu{fill:#a1a1a9;}.bv{fill:#363743;}.bw{fill:#8f8f99;}.bx{fill:#6d6d79;}.by{fill:#e7e7e9;}.bz{fill:#b1b0b8;}.ca{fill:#0d0909;}.cb{fill:#666771;}</style></defs><path class="av" d="M863.94,188.4c-7.64-1.86-12.82-6.17-12.02-14.53,.73-7.58-3.82-5.69-7.88-5.26-6.75-2.35-4.28-7.75-4.14-12.38,1.85-6.41,8.54-8.71,12.39-13.7-3.71-3.42-9.96-.48-12.1-5.89-1.17-4.99-1.98-9.93,1.84-14.26,7.32-.13,14.65-.39,21.97-.34,3.66,.03,7.16-.4,7.26-4.72,.12-5.28-4.36-2.32-6.69-2.76-2.9-.55-6.02,.2-8.96-.21-3.31-.47-8.82,2.2-9.47-2.11-.68-4.53-3.95-10.57,3.17-14.55,3.59-2.01-.15-6.38-.17-9.69-.02-3.09-4.02-8.61,1.75-8.47,5.69,.14,14.4-5.96,17.36,5.17,1.21,4.54,.64,9.98,5.84,13.91,2.96-5.37,1.92-10.7,1.75-15.68-.17-5.13,1.28-7.59,6.66-6.73,.33,.05,.67,.01,1,0q16.19-.4,16.23,15.92c0,1.82-.88,3.92,1.25,5.5,4.25-1.19,3.39-5.32,4.19-8.12,2.67-9.4,9.13-13.39,18.39-10.37,6.52,2.12,1.65,6.6,1.5,9.91-.19,4.11-5.35,8.97,4.41,9.75,4.72,.38,1.63,7.36,2.2,11.31,.67,4.59-2.81,4.36-5.88,4.36-8,0-16,.09-24-.02-3.42-.05-6.15,.63-6.01,4.66,.16,4.4,3.79,2.8,6.05,2.85,8.33,.18,16.67,.28,25,.01,5.62-.18,9.31,.06,9.02,7.69-.25,6.51-1.83,9.2-8.5,8.3-2.5-.34-5.12,.2-8.85,.39,4.22,6.55,9.29,10.55,14.86,14.11,2.12,1.36,5.38,1.84,5.33,5.26-.06,4.24,2.06,9.57-1.14,12.4-2.56,2.27-6.79-1.26-10.19-2.41-3.73-1.27-7.27-3.11-11.05-4.78-2.09,6.27-1.71,10.42,6.07,9.35,5.26-.72,7.05,1.4,6.82,6.64-.34,7.97,.14,15.97-.06,23.95-.31,12.5-5.36,17.46-17.75,17.77-4.33,.11-8.7-.36-12.99,.08-6.02,.61-8.84-1.33-7.81-7.66,.94-5.76-2.44-6.46-7.13-6.32-8.66,.25-17.33,.07-26,.07q-14.3,0-13.44-14.32c19.57-1.22,39.24-5.2,58.5,.41-1.19-3.61-5.56-2.23-9.11-2.59-9.79-.98-19.85,2.1-29.45-1.89Z"/><path class="av" d="M658.49,102.09c-11.08,0-19.6-.4-28.07,.12-7.9,.49-6.41-4.7-6.37-9.14,.04-4.35-1.74-9.56,6.28-9.17,10.97,.54,21.99,.23,32.99,.09,5.67-.07,12.38,2.11,14.81-6.17,.54-1.83,2.71-1.62,4.33-1.62,7.33-.04,14.66-.05,22,0,1.5,.01,4.43-.19,3.65,1.81-4.41,11.36,5.24,5.63,7.77,5.73,14.64,.58,29.34,.73,43.97,.1,7.43-.32,7.15,3.65,6.87,8.55-.26,4.61,1.88,10.39-6.74,9.82-8.84-.58-17.76-.13-28.73-.13,9.55,10.73,20.33,15.46,31.4,19.58,3.96,1.48,6.79,2.53,7.03,7.89,.34,7.7-1.5,10.15-9.45,7.9-4.95-1.4-12.93-6.28-12.34,5.91,.15,3.06-3.48,2.31-5.66,2.33-8.33,.08-16.68,.31-24.99-.06-5.59-.25-9.21,.61-7.95,7.35,1.22,6.55-2.2,8.09-7.95,7.45-2.96-.33-6.02-.31-8.99,0-7.01,.73-11.85-.53-10.19-9.28,.86-4.55-1.62-5.59-5.75-5.48-8.99,.23-18-.04-26.99,.1-3.8,.06-6.78-.37-6.15-5.22,1.05-8.03-3.18-6.92-8.17-4.84-1.52,.64-3.2,1.17-4.82,1.22-3.49,.11-8.74,4.98-10.02-.33-1.21-5.02-3.95-12.44,5.3-15.59,11.21-3.82,21.55-9.63,32.93-18.94Z"/><path class="bm" d="M838.08,210.33c-5.93,8.51-15.82,12.16-25.07,9.86-4.67-1.16-3.22-4.54-3.06-7.08,.19-3.07-2.43-8.2,3.84-8.25,5.88-.05,6.18-3.6,6.1-7.97-.12-6.65,.05-13.3-.09-19.95-.05-2.39,1.09-5.69-3.17-6-4.61-.33-4.45,2.91-4.5,5.96-.22,12.98-3.29,25.05-11.84,35.18-3.37,3.99-7.04,7.85-13.37,9.47-.3-7.57-1.05-14.38,2.21-21.45,3.67-7.97,3.22-16.88,3.22-25.54,0-27.27,.23-54.55-.2-81.81-.11-7.13,2.07-9.04,8.96-8.73,12.3,.56,24.65,.21,36.98,.25,.52,29.77,4.02,59.5,1.06,89.32-1.21,12.2,.9,24.54-1.05,36.75Z"/><path class="av" d="M695.13,183.18c-2.67,0-5.37,.29-8-.05-8.81-1.14-14.11,.28-16.35,11.07-2.55,12.3-24.76,25.81-37.79,25.87-1.85,0-3.74-.09-3.39-2.22,.79-4.77-3.41-10.79,3.49-14.12,5.99-2.89,10.12-7.47,11.91-14,1.24-4.5,.25-7.03-5.11-6.59-3.64,.3-7.41-.43-10.98,.15-8.45,1.36-9.62-2.73-9.64-10.02-.02-6.59,2.4-8.01,8.14-7.42,3.63,.37,7.36-.22,10.99,.14,5.56,.55,8.22-1.38,7.27-7.16-.97-5.87,1.82-7.57,7.28-7.05,3.97,.37,8.04,.45,11.99-.01,6.59-.76,10.2,.93,8.93,8.38-.9,5.24,2.31,5.91,6.6,5.83,10.33-.19,20.68-.33,31.01,.05,5.38,.2,7.42-1.76,6.57-6.85-1.12-6.69,2.39-7.91,8.04-7.4,3.97,.36,8.03,.4,11.99,0,5.9-.61,8.92,1.07,7.78,7.54-.93,5.29,1.57,7.19,6.75,6.67,3.3-.33,6.73,.38,9.98-.15,8.14-1.32,9.15,2.74,9.06,9.62-.08,6.11-1.83,7.87-7.95,7.9-17.88,.08-17.88,.36-17.88,17.39,0,19.9,0,19.66-19.9,19.57-5.91-.03-8.58-1.26-7.99-7.7,.55-5.94-.58-12.07,.27-17.94,1.46-10.11-2.8-12.96-12.09-11.56-3.59,.54-7.32,.09-10.99,.09Z"/><path class="bm" d="M560.42,159.4c-16.22,0-32.45-.29-48.66,.14-6.7,.18-9.35-1.33-9.2-8.66,.13-6.6,1.25-9.14,8.63-9.02,27.7,.47,55.42,.49,83.13,0,7.94-.14,8.75,2.98,7.79,9.43-1.02,6.81-4.52,11.59-10.06,15.32-14.67,9.86-29.31,19.76-43.87,29.78-2.58,1.78-6.03,2.69-7.77,7.18,18.43,0,36.29-.08,54.15,.08,2.7,.02,6.72-1.74,7.84,1.94,.98,3.19-1.15,6.47-3.44,8.98-4.41,4.84-10.22,5.7-16.45,5.67-23.04-.1-46.08,.11-69.11-.19-3.43-.04-9.61,2.85-10.05-2.62-.51-6.29-3.95-13.92,3.84-19.14,16.34-10.96,32.48-22.22,48.7-33.36,1.62-1.11,3.23-2.23,4.85-3.35-.1-.73-.2-1.46-.3-2.19Z"/><path class="bm" d="M339.86,318c-11,0-22.01-.24-33.01,.1-5.27,.16-6.95-1.64-6.85-6.83,.27-14.97,.25-29.95,0-44.93-.08-4.72,1.3-6.34,6.2-6.28,21,.25,42.01-.05,63.02,.22,8.7,.11,13.3,7.55,10.04,15.17-1.19,2.77-14.04,4.39-16.02,1.08-3.09-5.17-7.26-3.67-11.24-3.75-9.33-.19-18.67-.07-28.01-.06-3.32,0-6.68-.57-6.76,4.71-.08,5.28,3.19,4.82,6.57,4.82,15.34,0,30.68-.07,46.01,.04,4.52,.03,10.03-2.16,9.88,6.57-.17,9.17-6.35,5.83-10.39,5.91-15,.33-30.01,.17-45.01,.1-3.94-.02-7.18-.09-7.06,5.53,.11,5.5,3.7,4.53,6.86,4.56,10.34,.07,20.67,.09,31.01,0,2.79-.02,4.98,.03,7.45-3.09,4.12-5.2,12.41-4.41,15.81-1,3.19,3.2,2.18,10.77,.05,16.06-.86,2.15-4.28,1.02-6.53,1.04-10.67,.09-21.34,.04-32.01,.04Z"/><path class="ab" d="M713.48,318c-10.99,0-21.98-.23-32.96,.1-5.12,.15-7.02-1.3-6.91-6.68,.32-15.62,.51-31.26-.05-46.86-.32-8.85,5.53-6.25,9.93-6.42,4.37-.17,9.44-1.72,9.01,6.28-.62,11.27,.09,22.6-.25,33.89-.16,5.33,1.77,6.93,6.92,6.76,9.65-.32,19.32-.4,28.96,.02,5.55,.24,6.7-2.04,6.55-6.97-.29-9.63-.45-19.3,.1-28.9,.22-3.81-3.64-9.95,3.84-11.17,6.92-1.13,14.3,4.74,14.73,11.68,.41,6.62,.39,13.3,.06,19.93-.46,9.18,4.06,21.01-1.9,26.78-5.43,5.27-17.12,1.18-26.04,1.53-3.99,.16-7.99,.03-11.99,.03Z"/><path class="bm" d="M783.75,279.1c0,11.83-.47,21.47,.16,31.04,.47,7.12-2.65,8.01-8.7,8.05-6.37,.04-9.74-.79-9.34-8.46,.65-12.61-.06-25.29,.31-37.93,.11-3.9-2.83-10.32,2.33-11.31,6.36-1.22,13.86-3.28,19.88,2.44,10.63,10.09,21.34,20.09,32.03,30.11,1.66,1.56,3.4,3.03,6.82,6.05,0-10.92-.37-20.05,.2-29.13,.2-3.27-3.38-9.16,3.02-9.7,6.19-.52,13.1,1.96,13.53,9.04,.91,14.92,.65,29.94,.21,44.91-.15,5.01-15.85,5.63-21.49,.54-11.13-10.04-21.98-20.38-32.96-30.58-1.39-1.29-2.9-2.45-6-5.06Z"/><path class="ab" d="M534.83,302.61c-13.65-8.85-27.09-18.04-41.03-26.39-5.95-3.56-6.26-8.42-5.09-13.57,1.17-5.17,6.13-2.56,9.28-2.61,16.65-.28,33.31-.17,49.97-.09,2.97,.01,6.15-.03,8.86,.97,3.92,1.43,7.35,4.69,6.78,8.92-.66,4.93-5.43,2.31-8.24,2.38-12.15,.31-24.31,.13-37.06,2.02,13.21,8.64,26.45,17.23,39.6,25.96,2.41,1.6,5.45,2.56,6.58,5.75,2.63,7.45-.38,11.77-8.47,11.78-19.99,.04-39.98-.12-59.96,.1-5.21,.06-7.94-.78-7.84-6.96,.09-5.82,2.88-6.32,7.48-6.26,12.88,.19,25.77,.06,38.65,.06,.17-.69,.34-1.39,.51-2.08Z"/><path class="d" d="M6.36,214.76c-3.2-11.98-2.3-24.36-3.04-36.52C.7,135.43-.86,92.57,.51,49.66c.34-10.76,2.53-21.03,9.66-29.64,8.3,2.99,15.54,15.63,14.2,25.49-.49,3.63-1.01,7.22-.94,10.9-.76,39.31,1.17,78.56,2.04,117.83,.06,2.69,.36,5.31,1.25,7.86,.43,9.92,2.52,19.92-1.29,29.65-6.95,1.02-5.12-4.71-5.34-7.79-.58-8.29-1.87-16.59-1.95-24.82-.14-14.47-2.94-28.38-6.53-41.98-.03,17.72,.24,35.74-.14,53.75-.17,8.18,.16,16.68-5.1,23.86Z"/><path class="an" d="M58.6,399.11c-20.04-2.7-32.19-15.72-36.07-38.64-.72-34.82-6.46-69.21-9.17-103.86-1.14-14.59-2.02-29.14-1.8-43.76,.03-1.99-.09-4,.09-5.98,.36-3.88-.41-9.83,3.86-10.25,4.63-.46,4.53,5.32,5.27,9.23,2.73,14.59,6.7,28.96,7.92,43.82,4.3,11.45,2.64,23.66,4.21,35.47,1.65,12.45,3.08,24.98,4.41,37.49,.27,3.72-.24,7.52,1.02,11.16,.86,3.45,.85,7.08,2.06,10.47,2.84,13.34,6.77,25.91,22.6,29.1,5.81,1.17,11.72,1.82,17.39,3.66,4.13,3.24,3.22,6.17-.81,8.5-3.2,1.85-6.88,2.63-10.49,2.99-6.6,.66-10.1,4.01-10.49,10.61Z"/><path class="bh" d="M54.58,2.16c.53-.4,1.04-1.13,1.58-1.14,30.48-.72,61.01-2.21,91.42,.78,10.19,1,20.47-.85,30.62,2.26,7.25,2.22,13.14,5.73,18.5,10.95,6.04,5.89,3.19,8.43-2.79,11.48-5.78,2.94-14.62,.68-17.02,9.56-.96,.99-2.19,1.85-3.48,1.59-19.16-3.83-39.01-.96-58.03-6.03-2.08-1.29-3.05-3.42-4.07-5.51-6.01-12.37-3.45-17.07,10.32-19.24-18.38-.18-36.88-2.96-55.52-1.72-4.01-.36-8.38,.66-11.53-2.98Z"/><path class="ca" d="M368.23,138.42c19.32,0,38.65,.29,57.96-.16,6.87-.16,9.32,1.55,9.03,8.74-.25,6.22-.69,9.44-8.43,9.36-39.64-.41-79.29-.39-118.93,0-7.29,.07-7.94-2.89-7.99-8.77-.06-6.22,.53-9.63,8.4-9.39,19.97,.61,39.97,.2,59.96,.2Z"/><path class="z" d="M58.6,399.11c-5.55-7.01-1.8-10.35,5.01-12.09,4.74-1.21,9.61-1.88,14.41-2.87,3.31-.68,4.49-2.48,2.62-5.63,2.84-3.47,6.63-2.79,10.35-2.36,10.62,.21,21.25,.04,31.85,.09,2.8-.02,5.62,.03,8.44-.02-8.62,.01-17.25,0-25.89,0-5.01-.66-10.41,1.62-14.99-2.07,2.44-6.22,8.07-4.75,12.69-4.88,15.27-.42,30.58,.62,45.76-1.85,2.74-.02,5.48,.13,8.11,1.01,2.91,2.64,5.79,1.87,8.87,.11,5.69-3.26,12.35-4.14,18.09-7.49,4.15-2.41,4.1,.53,3.14,3.53-3.6,14.71-9.69,27.4-25.97,31.8-3.54-3.79-7.97-3.7-12.77-3.53-18.26,.64-36.44,2.99-54.77,2.31-5.97-.22-11.94,.97-16.87,4.95-6.04-.17-12.18,1.37-18.09-1.02Z"/><path class="am" d="M26.23,250.3c-2.51-15.18-5.05-30.36-7.52-45.54-.38-2.31-.71-4.56-3.78-7.32,0,16.28-.73,31.54,.19,46.7,1.05,17.11,3.61,34.13,5.47,51.2,1.29,11.81,2.45,23.64,3.77,35.45,1.12,10.01-.42,19.84-1.84,29.69-5.66-19.16-6.58-39.05-8.84-58.71-3.33-28.92-6.4-57.87-7.33-87,4.68-28.06,.04-56.68,4.84-84.89,4.56,11.21,8.28,22.47,9.26,34.25,1.22,14.54,1.44,29.15,2.24,43.73,.08,1.51,1.16,2.97,1.77,4.46,3.01,2.48,3.24,6.23,4.38,9.57-.29,9.53,3.38,19.43-2.63,28.43Z"/><path class="bc" d="M501.37,104.26c7.83-6.85,14.4-14.63,18.89-24.13,1.75-3.7,22.87-6.72,23.31-3.66,2.39,16.92,14.52,5.55,21.46,7.12,9.83,2.23,20.57,.95,30.88,.44,7.5-.37,5.93,4.55,5.74,8.52-.19,4.02,2.52,9.73-5.84,9.53-16.33-.39-32.68,.14-49.02-.2-10.09-.21-19.78-.27-27.96,7.14-2.3,2.09-5.64,3.56-9.18,3.38-9.18,1.99-9.53,1.65-8.28-8.14Z"/><path class="k" d="M501.37,104.26c-.96,6.48,2.18,8.82,8.28,8.14,1.79,5.19,6.2,2.64,9.26,2.67,24.94,.25,49.89,.5,74.82-.06,8.17-.18,7.82,3.8,8.12,9.63,.35,6.64-1.89,8.27-8.32,8.19-27.6-.34-55.21-.38-82.8,.03-6.8,.1-8.56-2.09-8.07-8.38,.3-3.92,1.53-8.23-2.88-11.7-1.27-1-2.47-6.28,1.59-8.51Z"/><path class="bm" d="M616.48,259.61c9.66,0,19.33-.01,28.99,0,3.33,0,6.74-.13,9.65,1.86,3.13,2.13,6.29,5.1,5.39,8.83-.89,3.68-5.08,1.55-7.78,1.83-7.86,.8-18.07-3.35-23.05,1.7-4.96,5.03-1.1,15.18-1.55,23.08-.21,3.65-.5,7.39,.06,10.96,1.37,8.81-2.7,10.58-10.62,10.1-5.41-.33-6.75-2.1-6.61-7.08,.28-10.64-.15-21.29,.18-31.92,.16-5.16-1.41-7.15-6.75-6.85-6.98,.39-14-.18-20.98,.18-5.59,.29-5.46-2.94-5.62-6.92-.18-4.35,1.39-5.89,5.71-5.81,10.99,.19,21.99,.06,32.99,.06Z"/><path class="bk" d="M187.21,54.28c5.9,1.25,2.56,6.59,4.77,10.55,2.08-7.89,3.6-15.21,6-22.24,1.72-5.01,4.86-8.97,10.82-4.08-1.53,10.21,2.38,20.22,1.05,30.42-5.52,9.5-9.5,20.51-22.35,22.9-9.54-1.54-19.15-.41-28.72-.7-3.55-.09-7.09,.17-10.64,.02-23.78,.51-47.65-1.81-71.29,2.56-4.48-5.85-3.63-10.18,2.72-13.94,3.92-2.32,8.27-2.15,12.58-2.21,27.87-.38,55.75-.05,83.62-.26,3.36-.03,7.45,1.68,9.87-2.48,.37-1.58,.45-3.19,.48-4.81,.92-5.21-2.42-10.71,1.1-15.74Z"/><path class="bm" d="M450.91,219.1c6.75-20.26,13.3-40.43,20.25-60.47,2.55-7.34,9.23-3.4,13.91-3.63,11.73-.56,11.76-.17,8.11,10.85-3.98,11.98-7.93,23.97-11.97,35.93-6.05,17.94-9.74,20.1-30.29,17.31Z"/><path class="o" d="M187.21,54.28c1.19,5.25,2.3,10.52,1.36,15.95-2.11,2.13-4.52,2.31-7.13,1.08-.81-.62-1.32-1.44-1.55-2.43,1.12-18.9-.99-22.09-17.71-26.68-1.31-.39-2.57-.93-3.83-1.47-.87-.29-1.72-.61-2.58-.89-3.42-1.06-6.53,.83-9.82,1.02-9.68,.85-19.25-.86-28.83-1.12-23.91-.65-47.77,1.14-71.53,4-4.87,.59-8.57,3.39-11.78,6.91-3.36,2.79-3.29,8.22-7.78,10.13-6.89-7.11-2.92-13.96,.49-20.83,1.83-2.11,3.93-3.9,6.4-5.23,6.02-3,12.85-2.65,19.15-4.56,9.14-1.9,18.62,.82,27.69-2.13,11.74-.28,23.66-3.32,35.03,2.19,20.73,1.71,41.69,.95,62.12,5.82,6.77,4.2,11.47,9.57,10.31,18.23Z"/><path class="bo" d="M433.62,304.77c10.3,0,20.6,.24,30.89-.1,5.24-.17,6.04,2.34,5.97,6.64-.07,4.06-.28,6.9-5.75,6.84-20.92-.25-41.86-.24-62.78,0-5.17,.06-6.09-2.26-6-6.61,.08-4.08,.35-7.02,5.78-6.85,10.62,.32,21.26,.09,31.89,.09Z"/><path class="bg" d="M900.84,318.04c-9.99,0-19.99-.25-29.96,.1-5.29,.19-6.79-1.65-6.84-6.82-.05-5.43,2-6.7,7.04-6.65,20.31,.23,40.62,.26,60.93,0,5.34-.07,6.75,1.76,6.81,6.87,.07,5.43-1.97,6.75-7.01,6.59-10.31-.32-20.64-.1-30.96-.09Z"/><path class="bf" d="M901.83,282.23c10.33,0,20.67,.27,30.98-.11,5.28-.2,5.83,2.23,5.92,6.54,.09,4.61-1.13,6.4-6.09,6.34-20.66-.24-41.32-.18-61.97-.03-4.44,.03-6.6-.86-6.58-6,.02-5.13,1.39-7.05,6.76-6.86,10.32,.38,20.65,.11,30.98,.11Z"/><path class="ab" d="M433.37,294.9c-10.29,0-20.59-.15-30.87,.07-4.46,.09-6.59-.93-6.56-6.02,.02-5.1,1.46-6.9,6.79-6.83,20.25,.28,40.5,.25,60.75,.02,4.98-.06,6.98,1.12,7.03,6.54,.05,5.75-2.57,6.41-7.26,6.3-9.95-.24-19.92-.07-29.88-.07Z"/><path class="ab" d="M451.28,76.55c24.21-2.59,33.35,4.51,44.04,34.09-7.52,0-14.69-.07-21.86,.03-2.7,.04-4.3-1.24-5.5-3.45-5.49-10.12-11.01-20.24-16.69-30.68Z"/><path class="bf" d="M432.99,272.2c-10.31,0-20.62-.23-30.91,.1-5.07,.16-6.03-2.05-6.12-6.49-.1-4.77,1.49-6.36,6.29-6.3,18.28,.23,36.57,.1,54.85,.13,3.42,0,6.59,.83,9.08,3.39,1.89,1.94,3.88,4.17,3.35,6.91-.76,3.89-4.32,2.13-6.61,2.18-9.97,.2-19.94,.09-29.92,.08Z"/><path class="bd" d="M901.49,272.21c-10.29,0-20.58-.16-30.87,.07-4.49,.1-6.48-1-6.55-6.01-.07-5.24,1.59-6.86,6.79-6.78,17.92,.26,35.84,.07,53.77,.17,2.28,.01,4.81,.22,6.78,1.22,3.65,1.84,7.29,4.95,6.42,9.15-.91,4.43-5.57,1.97-8.47,2.07-9.28,.32-18.58,.12-27.88,.12Z"/><path class="ab" d="M495.04,149.17c-6.9,0-13.48-.04-20.06,.02-2.6,.02-4.33-1.09-5.69-3.29-5.87-9.53-11.82-19-17.97-28.85,24.23-3.13,32.84,3.26,43.72,32.12Z"/><path class="bq" d="M76.69,400.13c1.72-8.04,8.79-7.76,14.2-7.65,21.89,.46,43.62-1.76,65.4-3.12,6.77-.42,3.7,4.39,4.81,7.03-22.55,6.15-45.64,5.23-68.65,5.07-5.25-.04-10.5-.87-15.75-1.34Z"/><path class="bj" d="M79.22,30.62c-9.24,2.26-18.69,1.64-28.07,2.01-4.25,1.32-8.06,.95-9.75-3.76-1.54-4.28,.39-7.73,3.88-10.27,4.49-3.26,9.78-5.49,13.38-10.87-8.04-2.52-17.07,2.17-24.26-3.65,6.44-3.66,13.51-.85,20.19-1.94,4.02,.08,8.05,.15,12.07,.23,7.84,2.17,15.86,.35,23.76,1.02,2.43,.21,6.09-1.28,6.69,2.41,.66,4.05-3.26,4.43-6.01,5.26-4.15,1.25-8.5,1.75-12.7,2.79-2.87,.71-6.46,.97-7.47,4.2-1.12,3.58,1.32,6.31,3.86,8.61,1.47,1.33,3.43,2.09,4.44,3.94Z"/><path class="h" d="M209.15,132.61c-.68,48.98-5.02,97.72-9.79,146.43-.57,5.83,.98,11.97-2.18,17.48-1.81-.45-2.95-1.66-3.74-3.27-2.35-6.32,1.32-12.46,.56-18.75,4.24-49.5,8.11-99.02,9.92-148.68,.12-3.32,.25-6.66,2.6-9.39,5.11-.35,3.16,3.62,3.26,5.85,.15,3.42,.76,6.96-.63,10.33Z"/><path class="bb" d="M34.39,4.09h29.21c-3.48,7.91-8.09,12.56-14.85,15.2-3.51,1.37-6.56,3.42-5.94,8.02,.68,5.06,4.94,4.51,8.34,5.32-6.18,1.46-12.35,2.92-18.53,4.38,.11-7.09-.57-14.31,1.84-21.11,1.19-3.35,3.49-6.3,7.27-7.44-4.5,.02-9.36,1.73-13.25-2.23,1.47-2.08,3.78-1.88,5.91-2.14Z"/><path class="u" d="M28.58,40.29c-4.53,6.34-5.86,13-2.04,20.18,5.5,11.58,4,23.35,.96,35.16-6.68,1.51-4.3-3.85-4.77-6.62-1.95-11.4-.05-23.04-1.98-34.46,2.93-13.48-.48-25.02-10.58-34.53,1.64-3.64,4.57-6.04,7.87-8.08,2.53-.74,7.05-1.6,6.77,.97-1.03,9.58,7.91,17.6,3.78,27.37Z"/><path class="bt" d="M28.58,40.29c.28-9.23-9.35-16.6-5.02-26.59-1.84-.58-3.68-1.16-5.53-1.75,2.69-3.34,6.48-4.69,10.45-5.72,4.81,0,9.61,0,16.53,0-7.2,7.53-12.35,13.68-8.9,23.01,.7,1.91-2.23,5.15-3.48,7.78-1.35,1.09-2.7,2.18-4.04,3.27Z"/><path class="bi" d="M187.07,364.6c-4.56,1.14-9.23,1.95-13.63,3.5-3.99,1.41-7.63,3.78-11.54,5.44-2.79,1.19-4.81,.95-2.88-2.88,2.73-6.49,5.26-13.1,11.25-17.51,6.87-2.9,14.82-4.33,17.38-13.03,.39-1.33,1.95-2.47,2.99-1.65,2.17,1.7,1.15,4.16,.57,6.37-.16,6.84-1.45,13.45-4.14,19.76Z"/><path class="as" d="M191.21,344.84c-.31-1.54-.63-3.07-1.07-5.28-2.44,9.69-9.64,14.63-19.78,14.19-2.27-3.44-2.3-6.7,.79-9.69,7.89-3.97,14.93-8.92,17.12-18.12,1.38-5.79,2.48-11.71,2.17-17.75,.42-4.49,1.19-8.88,3.34-12.92,.37-.34,.75-.67,1.13-1.01,.76,.75,1.53,1.5,2.29,2.25-2.43,16.05-1.59,32.51-5.98,48.32Z"/><path class="au" d="M838.08,210.33c1.1-42.02,1.17-84.05-.01-126.07,4.77,4.68,1.44,10.54,2.26,15.79,1.14,7.38-1.85,15.1,1.7,22.32,.16,5.14,.33,10.27,.49,15.41,.31,5.53,.3,11.05-.53,16.55,.27,4.82-2.81,10.12,2.06,14.28-4.84,5.86-3.2,12.88-3.75,19.58-.61,7.38,2.41,15.16-2.22,22.14Z"/><path class="e" d="M209.15,132.61c-1.4-5.33,1.76-11.27-2.19-16.25-5.27-15.58-5.11-30.96,1.78-46.07,.78-7.29-.6-14.38-1.59-21.55-.46-3.32-1.63-7.29,1.65-10.23,3.63,31.36,3.26,62.73,.35,94.1Z"/><path class="aq" d="M863.94,188.4c12.25-.14,24.5-.33,36.75-.37,2.37,0,5.96-1.12,5.82,3.17-.15,4.44,2.09,9.96-2.5,12.92-4.17,2.69-4.1-1.71-3.76-3.98,1.07-7.13-2.61-7.97-8.53-7.84-15.9,.33-31.81,.14-47.72,.16,5.78-5.58,14.03,.92,19.94-4.06Z"/><path class="i" d="M857.46,162.67c10.77,0,21.53-.07,32.3,.05,2.56,.03,3.01,2.2,2.97,4.3-.04,1.91,.55,4.85-1.85,5.06-5.57,.49-13.93,2.9-16.23-.93-4.74-7.9-11.46-4.41-17.22-5.99,0-.83,.02-1.67,.03-2.5Z"/><path class="ao" d="M841.99,154.33c-2.42-5.6-2.97-11.14,.53-16.55h16.95c-5.79,7.6-11.38,12.33-17.48,16.55Z"/><path class="l" d="M898.16,147.64h-18.03c1.96-4.62,3.56-9.47,9.23-9.68,5.92-.22,6.23,5.35,8.81,9.68Z"/><path class="ar" d="M728.78,128.82c-4.88,0-9.77-.09-14.64,.03-3.14,.08-5.45-.62-4.82-4.35,1.38-8.2-3.64-8.4-9.54-8-3.99,.27-8.01,.18-12.01,.02-3.6-.14-6.15,.87-5.47,4.94,1.3,7.83-3.55,7.66-8.94,7.42-4.84-.22-9.7-.05-14.82-.95,11.66-6.79,22.52-14,31.85-23.51,4.21-4.29,9.66-3.87,13.8,1.24,6.99,8.62,15.41,15.57,24.61,23.16Z"/><path class="ap" d="M820.36,110.99c-1.71,3.42,2.08,9.05-3.98,9.01-7.53-.05-3.49-6.44-3.9-9.9-.33-2.85-2.51-8.39,3.85-7.94,6.97,.49,1.29,6.61,4.02,8.84Z"/><path class="bl" d="M820.47,145.97c-1.55,3.6,2.07,9.19-4.16,9.04-7.44-.18-3.67-6.46-4-9.98-.28-2.95-2.46-8.43,3.6-8.33,7.84,.13,1.68,7.02,4.56,9.27Z"/><path class="af" d="M20.74,54.55c3.57,10.92,.84,22.56,3.83,33.57,.73,2.71-.62,5.94,2.03,8.22,1.61,1.36,2.54,3.2,2.61,5.18,.93,25.71,4.14,51.35,2.13,77.14-.13,1.66-.74,3.21-1.57,4.65-2.17,2.25-3.64,1.07-3.86-1.29-.46-5.11-.51-10.26,.12-15.85-1.56,5.66,1.29,11.48-1.73,16.49-3.17-17.02-2.41-34.32-3.17-51.46-1.12-25.51-.35-51.1-.39-76.65Z"/><path class="w" d="M24.3,182.66c.28-6.09,.55-12.18,.89-19.58,3.27,7.7-.93,15.09,3.41,21.23,6.09,14.13,6.83,28.61,2.89,43.39-2.71,1.79-3.55-.02-3.68-2.19-.33-5.53-.1-11.06-.15-15.76-1.25,2.95,1.55,7.51-1.34,11.11-.61-2.85-1.22-5.7-1.83-8.55-.06-9.88-.12-19.76-.19-29.64Z"/><path class="x" d="M36.33,334.63c-1.99-3.32-1.75-6.94-1.4-10.57,1.94-1.82,4.22-2.99,6.79-3.64,3.15-.79,6.36-.83,9.58-.87,3.9-.19,7.8-.1,11.7-.08,3.49-.28,6.98-.05,10.48-.05,11.44-.31,22.87-.3,34.31-.03,6.34,1.41,12.74,2.71,17.33,7.96-1.91,3.57-5.42,3.28-8.7,3.67-21.22,2.51-42.53,2.14-63.81,2.07-5.44,.21-10.99-.49-16.27,1.56Z"/><path class="bp" d="M40.59,322.36c-1.38,2.22-3.54,1.88-5.65,1.71-2.9-24.59-5.81-49.18-8.71-73.77,.03-9.82,.05-19.63,.08-29.45,.26-4.85,.52-9.69,.86-16.06,3.25,8.63-.99,16.62,3.32,23.5,2.55,2.12,2.72,5.09,2.95,8.05,.25,7.39-1.08,14.87,1.38,22.13,2.93,21.2,6.65,42.34,5.77,63.88Z"/><path class="br" d="M36.33,334.63c2.84-7.76,9.5-2.97,14.28-4.33,18.67,1.38,37.3,1.78,56.01-.25,4.87-.53,11.76-5.01,15.04,3.4-1.9,5.13-6.39,5.21-10.76,5.54-19.15,.04-38.32,.04-57.48,.08-3.55,0-7.32-.89-10.51,1.57-1.46,1.44-2.61,3.24-4.64,4.03-2.28-3.03-1.44-6.66-1.94-10.04Z"/><path class="b" d="M38.27,344.67c.74-1.42,1.47-2.84,2.21-4.26,1.55,.13,2.66,.95,3.48,2.21,4.2,11.07,7.23,23.08,21.16,26.41,3.32,2.03,7.04,2.92,10.8,3.71,4.63,2.56,11.89-2.2,14.77,5.24-3.34,.18-6.69,.36-10.03,.55-3.28-.43-6.56-.8-9.83-1.3-23.14-3.54-28.89-9.3-32.55-32.55Z"/><path class="n" d="M79.22,30.62c-8.42,.96-10.31-6.02-12.69-11.34-2.11-4.71,2.32-6.07,5.96-6.89,7.68-1.74,15.38-3.35,24.81-5.39-10.79-5.74-21.62,.56-30.65-4.61,20.08-.87,40.04,.85,60,2.62-.03,.4,.09,.89-.09,1.03-4.68,3.77-12.62,2.16-15.61,7.69-3.11,5.75,5.08,10.31,3.82,16.5-11.85,.13-23.71,.26-35.56,.4Z"/><path class="bm" d="M150.79,369.98c-17.14,3.14-34.45,2.38-51.73,2.4-2.88,0-6.04-1.15-8.46,1.52-6.08,2.52-11.78,2.07-16.98-2.21-3.67-9.27-1.38-19.1-2.62-28.61-.53-4.04,1.94-5.99,6.13-5.8,10.64,.47,21.32-.9,31.93,.85,11.65,.12,22.46-2.13,30.95-10.95,.69-.72,1.49-1.57,2.42-1.72,14.3-2.3,14.19-13.63,15.47-24.24,4.7-39.04,6.25-78.27,8.26-117.5,.92-17.93,.69-35.95,2.93-53.82,.64-5.08-.04-9.95-1.54-14.78-1.38-4.45-3.2-8.84-3.8-13.45-.63-4.87-3.69-11.74,5.08-12.15,14.99-.71,15.96-.9,16.93,9.91,.09,.99,.09,2,.05,3-1.17,29.97,1.18,59.86,2.04,89.78-.73,13.25,2.35,26.81-3.12,39.68-4.28,6.39-4.57,13.9-4.76,21.03-.74,27.9-4.4,55.47-8.4,83.01-.95,6.54-2.65,12.96-4.91,19.17-2.75,7.54-7.33,13.39-15.88,14.9Z"/><path class="al" d="M150.79,369.98c18.15-10.92,17.18-29.98,20-47.3,4.62-28.38,5.31-57.16,8.11-85.72,.27-2.71,1.19-4.4,4.03-4.68,5.6,10.01,2.5,20.65,2.25,31.08-2.15,18.52-4.47,37.02-6.1,55.6-1.77,4.72-1.22,9.82-2.25,14.66-1.4,3.41-.84,7.65-4.25,10.24-2.42,2.93-1.52,6.6-2.22,9.9-3.72,5.67-4.93,13.02-11.34,16.9-2.74-.22-5.48-.45-8.22-.68Z"/><path class="r" d="M74.71,372.25c5.16,1.83,10.43,2.65,15.89,1.65,5.33,.24,10.66,.49,15.99,.73,4.74,1.36,9.59,.3,14.38,.66,1.83,.14,4.09-.22,3.68,2.83-11.32,.53-22.65,.96-33.96-.16-4.64-4.17-11.27,.73-15.91-3.47-.6-.48-.81-.98-.63-1.49,.18-.51,.37-.77,.56-.77Z"/><path class="p" d="M124.65,378.13c-5.52-3.73-12.49,0-18.05-3.5,11.65,0,23.31,0,34.96,0,.02,.87,.04,1.74,.06,2.61-5.52,1.42-11.18,1.68-16.96,.89Z"/><path class="c" d="M185.15,192.77c-1.28-30.86-3.1-61.7-2.36-92.62,.21-8.94-6.62-13.02-15.01-9.51-3.43,1.44-3.4,4.17-2.25,6.56,10.16,21.2,6.38,43.73,4.92,65.51-2.58,38.62-2.44,77.4-7.26,115.92-1.6,12.75-2.94,25.59-4.33,38.4-.3,2.79-.67,6.5-3.07,6.87-13.85,2.15-22.28,16.37-36.96,16.26-3.63-.03-7.26-.57-10.89-.88,.56-1.4,1.68-2.2,3.01-2.79,3.42-.08,6.94,.3,9.85-2.12,3.65-4.09,9.53-4.75,13.31-8.66,4.75-4.91,8.45-10.62,9.27-17.33,2-16.45,5.01-32.82,4.53-49.51,1.52-20.94,4.03-41.81,4.09-62.84,3.2-20.41,1.2-41.04,2.65-61.52,2.76-10.95,.78-22.1,1.39-33.14,.25-4.49-.75-9.27,3.08-12.9,9.88,.92,20.03-2.54,29.69,1.86,5.73,8.47,3.78,18.16,2.95,27.05-1.98,21.17-1.32,42.34-1.81,63.5-.1,4.36,.94,9.61-4.8,11.9Z"/><path class="aj" d="M185.15,192.77c3.09-26.78,1.64-53.72,3.02-80.56,.38-7.29,.44-14.59,.64-21.88,7.26-1.46,8.83-8.83,13.38-13.11,2.25-2.12,3.6-5.3,6.55-6.93-2.44,15.29-1.9,30.69-1.78,46.07-.95,42.78-3.61,85.45-7.73,128.05-1.02,10.52-1.37,21.16-2.58,31.7-2.32,2.64-5.18,4.86-8.29,1.9-3.98-3.77-8.06-7.92-5.78-14.38,.12-10.45,.23-20.9,.35-31.34,1.93-13.1,2.1-26.31,2.22-39.51Z"/><path class="aw" d="M77.11,92.73c6.59-3.47,13.64-4.66,21.04-4.59,16.85,.17,33.7,.17,50.55,.24,4.49,8.91,5.27,17.71-.83,26.28-4.15-3.77-1.41-8.1-1.54-13.92-.83,6.68,.05,11.57,.46,16.63,.53,6.5,4.38,14.35-4.02,19.21-2.86-2.75-2.55-6.36-2.73-9.83,.15-9.26-.31-18.55,.34-27.82,.12-1.72,.28-3.34-2.02-3.73-15.72,.45-31.4-.59-47.03,.73-5.17,.91-11.09,.59-12.41,7.7,8.31,10.84,6.15,23.59,6.72,35.85-.04,5.86-.41,11.72,.16,17.57-.06,15.59,.34,31.18-.17,46.76,.03,8.61,.31,17.23,.14,25.85-.49,5.38,.18,10.77-.07,16.16-.4,4.66,.14,9.33-.06,14-.31,4.04,.1,8.09-.06,12.14-.26,2.95,.09,5.96-.67,8.88-.61,1.75-1.17,3.55-3.49,3.7-2.68-1.51-3.28-4.15-3.3-6.84-.26-27.15-3.7-54.13-.93-81.5,2.27-22.39,.64-45.17,.18-67.78-.09-4.48-1.67-8.44-4.8-11.71-2.45-3.32-2.21-7.44-3.3-11.17-.37-1.56-.48-3.13-.31-4.73,.98-4.43,3.63-7.2,8.15-8.09Z"/><path class="y" d="M77.11,92.73c-2.18,2.51-4.36,5.03-6.53,7.54-5.55-.02-6.13-3.95-5.75-7.94,.36-3.8,1.05-7.63,2.43-11.27,3.48-6,9.73-6.54,15.51-7.17,14.41-1.56,28.86-3.14,43.4-2.36,9.19-.17,18.41,.69,27.58-.71,1.14-.14,2.28-.11,3.42,0,9.4,1.56,18.99,.17,28.4,1.72,1.11,.25,2.12,.71,3.03,1.38,.55,4.27,1.04,6.77-5.65,6.63-31.57-.62-63.16-.29-94.74-.18-10.01,.03-13.87,4.5-11.1,12.35Z"/><path class="at" d="M147.29,115.02c1.91-8.8,1.42-17.73,1.42-26.63,3.47,.03,6.95,.05,10.42,.08-1.21,15.44,.85,31.01-1.92,46.39-4.12-4.54-2.02-10.09-2.29-15.19-.47-8.65,.82-17.22,1.45-25.79-2.48,22.8-1.08,45.71-1.65,68.56-.14,5.36,2.27,11.32-2.45,16.06-6.63-4.7-4.31-13.13-7.99-19.06-.99-14.94,1.14-29.67,3.02-44.41Z"/><path class="j" d="M188.6,73.93c-.45,.05-.91,.1-1.36,.15-9.56-2.47-19.55,1.14-29.07-2.03-3.12-11.24-3.75-22.44,.44-33.58,.77,.63,1.54,1.26,2.3,1.89,2.44,2.82,2.83,6.2,2.73,9.72,.02,1.63,.24,3.28,.07,4.9-.87,8.12,1.09,13.67,10.89,12.77,2.33-.21,4.5,.8,6.35,2.29,2.54,.06,5.08,.12,7.62,.18,.01,1.24,.02,2.47,.03,3.71Z"/><path class="ba" d="M30.88,235.64c-.13-2.45-.26-4.89-.39-7.34,.65-14.72-.93-29.34-1.9-43.99,1.04-29.36-1.89-58.63-2-87.97-.02-11.96-.04-23.92-.06-35.88,.97-3.54,1.32-7.33,4.08-10.15,19.18,7.13,36.37-4.91,54.75-5.76,7.31-.34,14.54-1.89,21.79,.18,4.54,4.5,.04,6.2-2.82,7.63-4.97,2.49-10.6,3.66-15.32,6.69-3.17,2.03-7.83,2.54-5.17,9.32,1.92,4.89-4.93,4.1-8.2,5.38-1.08,.09-2.13,.05-3.2-.06-12.67,2.57-23.96,15.57-24.52,30.14-1.17,30.48-4.84,61,.06,91.47,1.4,8.68-.68,17.23-.38,25.85,1.02,30.14,5.56,60.11,4.68,90.35-.1,3.59,1.25,7.29-1.59,10.44-3.37,.13-6.74,.27-10.11,.4-4.92-19.75-4.85-40.12-7.52-60.15-.18-1.32-.38-2.63-.57-3.94-2.23-7.42,.52-15.2-1.62-22.62Z"/><path class="bc" d="M108.8,46.39c-18.66-.56-36.84,1.73-54.5,8.2-8.42,3.08-16.64,1.85-23.68-4.27,8.2-13.91,22.74-10.46,34.89-11.67,27.69-2.77,55.53-2.25,83.31-.31,5.24,9.67,3.2,19.68,1.37,29.68-2.98,4.43-6.93,5.06-11.57,2.93-3.08-3.54-2.88-7.94-2.72-12.12,.3-7.34-3.23-9.68-10.15-9.64-5.72,.03-11.89,1.56-16.96-2.8Z"/><path class="m" d="M160.93,50.26c0-3.3-.01-6.6-.02-9.9,15.07-1.17,27.3,11.58,19.95,28.1-3.57,1.77-6.54,.97-8.13-2.62-2.72-6.16-7.79-10.45-11.8-15.58Z"/><path class="aa" d="M148.61,68.08c.07-9.91,.14-19.83,.21-29.74,2.69-1.93,5.42-2.96,8.25-.24-1.5,11.33,2.02,22.97-2.15,34.13-9.16,4.38-18.84,1.31-28.27,1.96,1.93-5.89,6.41-4.31,10.6-3.63,4.11,.67,8.55,2.78,11.36-2.48Z"/><path class="ak" d="M160.93,50.26c6.67,1.85,10.6,6.79,13.06,12.7,1.43,3.44,2.71,5.96,6.87,5.5,.01,.53,.04,1.06,.09,1.58-23.96,.14-19.8,3.62-20.02-19.79Z"/><path class="ax" d="M154.92,72.22c1.01-11.36-2.62-23.01,2.15-34.13,.55-.03,1.06,.09,1.54,.38,.05,11.28,.1,22.57,.15,33.85-.64,.76-1.29,.75-1.92,0-.64-.03-1.27-.06-1.91-.09Z"/><path class="e" d="M182.58,263.63c3.22,5.82,2.91,15.59,14.07,12.48-.59,6.05-1.17,12.11-1.76,18.16,0,0,0,0,0,0-9.19,.62-8.4,8.99-10.97,14.52-1.94,4.17-1.72,9.16-3.72,13.42-.72,1.53-1.95,3.03-3.71,1.3-1-.98-.43-2.51,.1-3.76,.5-18.87,3.61-37.46,5.98-56.13Z"/><path class="h" d="M176.6,319.76c.21,.62,.23,1.57,.65,1.82,2.4,1.4,1.51-.95,1.58-1.66,.8-8.21,3.79-15.73,6.81-23.32,2.26-5.69,5.05-6,9.26-2.33,1.1,4.92-2.23,9.19-2.05,13.97-3.4,9.81-8.8,18.61-14.1,27.45-.8,1.34-1.6,3.38-3.65,2.32-1.87-.96-.95-2.86-.62-4.43,.27-4.67-.34-9.48,2.12-13.82Z"/><path class="be" d="M174.48,333.58c.75,.48-.15,5.15,2.46,.88,5.34-8.72,8.64-18.67,15.91-26.22,.88,15.72-3.58,28.9-17.73,37.59-3.09,1.9-1.77-1.25-2.55-1.98,.34-3.48-.32-7.14,1.9-10.28Z"/><path class="az" d="M50.7,321.95c-3.37-17.46-1.88-35.11-1.98-52.68-.08-14.62-5.33-28.54-4.35-43.43,1.12-17.02,.72-34.08-1.35-51.26-2.93-24.45,1.47-49.05,2.01-73.62,.28-13.05,9.82-22.02,20.5-28.93,2.86-1.85,6.11-2.91,9.13,.06-12.23,8.4-13.39,20.85-13.28,34.23,.29,35.99-1.01,72.02,.45,107.96,1.17,28.9,.88,57.87,3.51,86.72,.65,7.07,2.47,14.71-3.03,21.07-3.87-.04-7.75-.07-11.62-.11Z"/><path class="ai" d="M70.86,104.41c3.2,2.79,1.2,6.59,1.9,9.86,3.06,4.74,3.01,10.07,3.05,15.43,.3,38.23,1.15,76.44,1.21,114.68,.03,19.86,2.48,39.76,2.68,59.7,.05,4.74,2.07,6.78,6.83,5.7,6.61-.39,13.22-.64,19.84-1.42,8.3-.97,14.45-4.42,18.52-11.63,3.55-4.96,4.06-10.88,5.39-16.57,1.01-4.33,1.14-9.13,5.42-12.09,4.39,2.42,3.4,6.69,3.93,10.41,.36,8.43-.75,16.7-2.8,24.87-4.14,14.44-14.04,20.12-28.61,18.64-11.75,.04-23.5,.08-35.25,.11-5.75-8.17-5.35-17.7-5.38-26.9-.15-38.62,.49-77.23,.27-115.85-.03-4.99,.23-10-1.42-14.83-1.74-16.25-.79-32.55-.67-48.83,.03-4.35,.73-8.71,5.08-11.27Z"/><path class="bx" d="M69.09,163.98c1.95,3.41,1.15,7.15,1.17,10.74,.3,40.53,.44,81.07,.87,121.6,.09,8.6,1.21,17.18,1.85,25.77-3.56,0-7.11-.02-10.67-.03-.85-28.48-1.59-56.97-2.59-85.45-1.64-46.79-2.45-93.59-1.02-140.39,.33-10.75,2.64-21.38,15.95-24.14,.68,0,1.36,.02,2.04,.03,17.33-4.99,35.37-1.43,52.88-4.44,3.31-.57,6.57,.28,9.2,2.66,3.51,.25,7.03,.55,9.82-2.27,.34,5.3-3.62,4.18-6.69,4.53-5.09,.58-10.44-1.4-15.28,1.57-17.08-.5-34.01,1.02-50.86,3.79-3.08,.51-5.85,.97-7.16,4.21-4.98,8.72-4.8,18.37-4.85,27.92-.12,25.76,.03,51.51-.04,77.25-1.92,19.23,3.34,38.15,2.09,53.95-.15-9.2-.02-21.8-.03-34.42-.02-10.33-.44-20.63-.22-30.94,.09-4.24-.39-8.78,3.51-11.97Z"/><path class="bw" d="M134.4,304.2c.89-8.55,1.78-17.1,2.67-25.64,.66-1.44,1.19-2.93,1.65-4.45,.58-2.31,1.32-4.73,4.3-4.42,3.14,.32,3.16,2.83,2.9,5.24-.39,3.63,.31,7.25-.09,8.97-.66-4.73,.83-11.32,.66-17.97-.06-2.4,.4-5.48,4.11-5.64,.04,16.21-2.14,32.27-4.22,48.27-1.98,15.22-11.46,24.02-25.58,25.83-2.9-7.49-8.75-3.57-13.43-3.25-18.95,1.31-37.88,2.72-56.75-.81,22.61-.29,45.25,.65,67.79-2.01,2.3-.27,4.72,.15,6.36-2.04,.67-2.79,3.09-4.06,5.03-5.71,5.23-4.44,7.52-9.64,4.59-16.34Z"/><path class="ae" d="M134.4,304.2c7.97,4.59,3.78,9.81,.54,14.67-2.4,3.61-6.2,5.71-10.17,7.38-6.38,1.92-10.72-4.02-16.54-4.27,11.83-1.37,21.9-5.31,26.16-17.78Z"/><path class="w" d="M30.88,235.64c1.85,7.45,2.07,15.01,1.62,22.62-3.57-7.33-1.53-15.05-1.62-22.62Z"/><path class="cb" d="M110.95,336.49c-1,.93-2,1.87-3,2.79-9.86-1.8-19.78-.13-29.66-.63-4.53-.23-5.51,1.56-4.73,5.99,1.6,9.11,1.73,18.36,1.15,27.61,.02,.75,.05,1.5,.07,2.25-4.02,.21-7.96,.2-10.33-3.91-3.36-6.49-3.17-13.63-2.22-20.35,1.27-8.89-2.87-10.02-9.95-9.29-3.3,.34-6.49,1.22-9.78,1.44-.67-.67-1.34-1.33-2.01-2-2-5.73,2.54-4.02,4.92-4.02,21.85-.05,43.7,.05,65.55,.11Z"/><path class="ad" d="M42.5,342.4c2.96-2.97,18.6-5.42,21.56-3.5,1.46,.94,1.1,2.15,.97,3.39-1.01,9.42,1.5,18.91-.58,28.31-15.95-2.7-18.97-15.43-21.95-28.19Z"/><path class="v" d="M150.6,260.27c-3.26,9.01-3.33,18.56-4.44,29.56-2.75-7.05,.29-13.28-2.51-18.58-3.5,.42-2.49,4.11-4.76,5-4.74-13.98-1.06-28.17-.36-42.13,1.05-20.77,3.67-41.46,3.6-62.33-.01-4.26-1.62-9.65,4.47-11.84,4.33,5.48,4.56,11.92,4.33,18.47,3.63,5.5,1.71,11.49,1.32,17.26-.3,4.5-.85,8.94-.09,12.93,.86-3.89-3.22-8.86,2.51-12.34-.03,21.42-1.85,42.73-4.07,64.02Z"/><path class="by" d="M154.67,196.26c-3.82,4-.26,9.77-3.75,14.79,0-11.44,0-22.04,0-32.64,2.85-3.11,1.63-6.94,1.74-10.48,.76-25.09-1.36-50.28,4.54-75.28,0,14.07,0,28.14,0,42.21,.03,20.5-.33,40.99-2.53,61.4Z"/><path class="s" d="M88.58,93.97c17.34-2.74,34.79-2.27,52.24-1.76,3.41,23.53-1.57,46.62-4.28,69.75-1.59,13.52,.39,27.11-2.58,40.6-1.58,7.19-4.81,10.16-11.7,10.96-6.93,.8-13.79,2-20.83,1.6-8.15-.46-14.89-3.14-18.79-10.83,.08-16,.17-32.01,.25-48.01-.79-11.14,5.66-15.76,15.55-17.72,5.51-1.09,10.89-2.86,16.39-4.02q15.09-3.18,15.18-18.32c-.26-13.46-1.01-14.2-14.09-12.21-9.05,1.38-18.37,.74-27.2,3.77-4.14,.03-6.92-1.72-7.41-6.03-.61-5.32,4.56-5.45,7.26-7.79Z"/><path class="t" d="M82.64,204.3c13.27,12.36,28.88,7.24,43.99,5.89,4.32-.39,3.55-3.72,4.24-6.57,3.98-16.55,1.18-33.54,3.36-50.3,1.11-8.51,3.12-16.83,5.02-24.96,2.85-12.18-1.13-24.24,1.58-36.14,3.95-.12,2.73,2.75,2.68,4.79-.26,9.74-.61,19.47-.92,29.21-.39,13.14,.89,26.24-.84,39.44-2.85,21.68-4.9,43.46-10.19,64.75-12.62,5.72-25.9,7.39-39.62,6.47-4.45-.3-7.25-2.84-9.19-6.59-.03-8.66-.07-17.33-.1-25.99Z"/><path class="bv" d="M88.73,312.22c-11.27,2.79-11.98,2.32-11.96-9.25,.05-40.43-1.96-80.82-2.65-121.23-.38-22.46-.82-44.98-1.35-67.47,6.72,3.61,8.23,9.35,8.12,16.66-.44,30.15-.1,60.32-2.15,90.44-1.33,19.58,2.82,38.97,2.12,58.55-.05,1.47,1.11,2.98,1.72,4.47,1.37,.99,1.99,2.42,2.36,4,.52,3.03,.39,6.1,.43,9.15-1.36,5.46,3,9.62,3.38,14.68Z"/><path class="ag" d="M132.66,116.15c.04,2.66-.24,5.38,.18,7.98,1.32,8.21-2.84,11.19-10.32,12.23-7.53,1.04-14.97,2.84-22.41,4.46-8.64,1.88-16.18,5.1-17.21,15.47,.06-5.98,.11-11.96,.17-17.95,1.69-15.44,2.57-16.93,18.51-20.51,10.14-2.28,20.5-5.31,31.08-1.68Z"/><path class="bz" d="M132.66,116.15c-10.1,1.4-20.21,2.68-30.28,4.24-10.42,1.61-18.7,5.73-19.31,17.95-.06-4.31-.18-8.61-.17-12.91,0-6.23,1.25-12.68-5.95-16.57-2.6-1.4-2.51-4.45-.66-7,4.78-.39,6.5,7.86,12.38,4.36,12.52-6.1,26.18-4.38,39.39-5.61,3.99-.37,4.97,2.28,4.85,5.69-.12,3.28-.17,6.56-.25,9.84Z"/><path class="bz" d="M69.09,163.98c-.29,14.67-.57,29.34-.86,44.01-3.4,3.21-6.22,4.87-6.54-2.05-.28-5.91,.94-11.89-.85-17.72-.05-27.48-.28-54.96-.03-82.44,.08-8.49,.46-17.31,7.83-23.6,2.26,5.85-6.7,12.91,1.94,18.08,.1,1.38,.19,2.76,.29,4.14-4.2,19.75-.92,39.72-1.77,59.57Z"/><path class="bn" d="M146.6,159.93c-3.73,14.54-1.34,29.49-2.95,44.25-2.61,23.91-3.27,48.03-4.76,72.06-.61,.77-1.21,1.54-1.82,2.31-.24-2.62-.47-5.23-.79-8.78-5.08,9.5-2.5,20.63-9.48,28.51-.81-.77-1.33-1.7-1.55-2.79-.29-4.39,1.11-8.62,1.25-12.98,4.59-20.75,7.32-41.73,7.82-62.99,3.38-26.79,6.79-53.58,7.59-80.6,.03-1.13,.7-1.78,1.3-2.53,3.6-11.77,.25-24.04,3.11-35.93,.33,4.86,.66,9.71,.99,14.57-.23,14.97-.46,29.95-.69,44.92Z"/><path class="bs" d="M82.74,230.29c12.12,8.19,24.76,3.11,37.16,1.14,3.59-.57,7.13-1.05,10.74-1.19,3.66,3.55,2.82,7.66,1.47,11.83-2.47,4.21-6.88,4.68-11.02,5.6-8.34,1.85-16.76,3.3-25.21,4.63-5.75,.91-10.47-.24-13.09-6.02-.01-5.33-.03-10.66-.04-15.99Z"/><path class="q" d="M82.79,246.28c4.62,3.95,9.38,4.13,15.44,2.76,10.73-2.43,21.83-3.23,32.33-6.9,3.16,2.54,1.92,6.1,2.17,9.31-.02,1.1-.16,2.18-.4,3.25-1.34,2.55-1.94,6.12-5.82,5.81-10.15-.81-19.6,3.18-29.48,4.02-5.11,.43-10.85,1.8-14.12-4.29-.03-4.66-.07-9.31-.1-13.97Z"/><path class="bx" d="M130.81,254.28c.1-.63,.13-1.26,.11-1.89,2.06-8.4-.05-17.11,1.88-25.54,.61-2.67-.62-6.36,4-6.57,.07,21.66-3.16,42.92-8.05,63.96-2.5,4.99-7.58,4.83-11.98,5.85-7.44,1.72-15.01,2.71-22.58,3.73-5.27,.71-9.14-.61-11.43-5.57-.06-1.29-.12-2.58-.18-3.87,.12-1.41,.25-2.81,.38-4.22,13.21-1.15,26.22-3.54,39.22-6.07,1.67-.33,3.29-.4,3.91-2.34,.67-6.09,3.4-11.59,4.73-17.47Z"/><path class="bu" d="M130.81,254.28c1.08,6.78-2.03,13.1-2.19,19.74-5.78-2.83-11.53-3.44-17.8-1.15-5.62,2.06-11.72,2.41-17.64,3.29-3.99,.59-8.15,.86-10.18-3.95-.04-3.99-.07-7.98-.11-11.97,12.6,5.71,24.4-1.16,36.41-2.91,3.56-.52,9.41,3.69,11.51-3.06Z"/><path class="bu" d="M136.8,220.28c-2.87,6.98-3.61,14.34-4.03,21.78-.2,3.49,.97,7.29-1.86,10.33-.12-3.42-.24-6.83-.37-10.25,.03-3.97,.06-7.93,.09-11.9,1.94-25.35,7.46-50.24,9.33-75.63,.69-9.43-1.19-19.23,2.62-28.4,.2,3.39,.41,6.78,.61,10.17-1.32,28.03-3,56.03-6.39,83.9Z"/><path class="g" d="M83,272.22c11.79,4.39,22.58-1.04,33.53-3.73,6.1-1.49,10.37-1.38,12.09,5.53-5.15,4.59-12.15,3.49-18.07,4.75-8.83,1.88-18.2,6.46-27.61,1.39,.02-2.65,.04-5.3,.05-7.96Z"/><path class="ac" d="M88.67,106.22c-7.07,6.86-8.63-1.83-12.38-4.36,1.83-6.15,6.44-7.99,12.29-7.89-2.9,4.11-12.32,8.26,.09,12.26Z"/><path class="aa" d="M156.83,72.32c.64-.13,1.28-.13,1.92,0,9.47,.93,19.19-2.04,28.49,1.76-10.14-.49-20.48,2.43-30.41-1.77Z"/><path class="ay" d="M138.79,70.34c-20.66,1.87-41.36,2.05-62.08,1.78,1.33-2.41,4.32-1.16,6.55-3.09-9.02-1.11-6.19-4.77-1.96-8.16,5.19-4.15,11.31-6.59,17.52-8.91,3.54-1.32,8.09-1.19,9.98-5.57,2.3,0,4.59-.02,6.89-.02q23.69-.03,23.11,23.98Z"/><path class="ah" d="M126.69,296.16c.03,.71,.07,1.42,.1,2.12-8.3,16.58-24.15,12.62-38.06,13.94-5.6-3.13-6.77-8.14-5.97-13.99,14.65-.52,29.22-2.66,43.93-2.07Z"/><path class="bw" d="M60.84,188.22c3.51,4.79,1.62,10.29,1.78,15.43,.14,4.42,1.06,6.33,5.62,4.34,.1,14.9,.22,29.8,.24,44.7,0,.78-.78,1.56-2.36,2.36-3.99-22.12-5.97-44.35-5.28-66.82Z"/><path class="f" d="M126.69,296.16c-14.49,4.02-29.05,6.45-43.93,2.07,0-3.33,0-6.65-.01-9.98,4.24,4.59,9.2,2.81,14.43,2.23,10.74-1.19,21.23-3.2,31.57-6.24,.74,4.22-1.27,7.96-2.06,11.92Z"/></svg>