<svg id="Layer_1" data-name="Layer 1" xmlns="http://www.w3.org/2000/svg" xmlns:xlink="http://www.w3.org/1999/xlink" viewBox="0 0 83.38 74.58">
  <defs>
    <linearGradient id="linear-gradient" x1="-253.03" y1="478.54" x2="-251.32" y2="478.54" gradientTransform="matrix(-26.02, 35.59, 35.59, 26.02, -23553.25, -3440.87)" gradientUnits="userSpaceOnUse">
      <stop offset="0" stop-color="#c7c8ca"/>
      <stop offset="0.35" stop-color="#f1f2f2"/>
      <stop offset="0.73" stop-color="#f1f2f2"/>
      <stop offset="1" stop-color="#a7a9ac"/>
    </linearGradient>
    <linearGradient id="linear-gradient-2" x1="-271.36" y1="505.84" x2="-269.65" y2="505.84" gradientTransform="matrix(-9.5, -10.82, -10.82, 9.5, 2952.86, -7696.53)" gradientUnits="userSpaceOnUse">
      <stop offset="0" stop-color="#808285"/>
      <stop offset="0.1" stop-color="#808285"/>
      <stop offset="0.56" stop-color="#414042"/>
      <stop offset="1" stop-color="#414042"/>
    </linearGradient>
    <linearGradient id="linear-gradient-3" x1="-267.83" y1="515.08" x2="-266.12" y2="515.08" gradientTransform="matrix(-8.43, -7.31, -7.31, 8.43, 1545.81, -6277.11)" gradientUnits="userSpaceOnUse">
      <stop offset="0" stop-color="#808285"/>
      <stop offset="0.23" stop-color="#808285"/>
      <stop offset="0.37" stop-color="#fff"/>
      <stop offset="0.46" stop-color="#fff"/>
      <stop offset="0.59" stop-color="#414042"/>
      <stop offset="1" stop-color="#414042"/>
    </linearGradient>
    <linearGradient id="linear-gradient-4" x1="-265.96" y1="505.57" x2="-264.25" y2="505.57" gradientTransform="matrix(-11.86, -9.63, -9.63, 11.86, 1756.69, -8517.28)" gradientUnits="userSpaceOnUse">
      <stop offset="0" stop-color="#808285"/>
      <stop offset="0.11" stop-color="#808285"/>
      <stop offset="0.42" stop-color="#414042"/>
      <stop offset="1" stop-color="#414042"/>
    </linearGradient>
    <radialGradient id="radial-gradient" cx="-279.86" cy="447.13" r="1.71" gradientTransform="matrix(12.07, 0, 0, -12.07, 3448.11, 5451.32)" gradientUnits="userSpaceOnUse">
      <stop offset="0" stop-color="#f1f2f2"/>
      <stop offset="0.12" stop-color="#f1f2f2"/>
      <stop offset="0.34" stop-color="#939598"/>
      <stop offset="0.58" stop-color="#414042"/>
      <stop offset="1" stop-color="#414042"/>
    </radialGradient>
    <radialGradient id="radial-gradient-2" cx="-270.48" cy="464.19" r="1.71" gradientTransform="matrix(27.55, 0, 0, -27.55, 7491.06, 12857.43)" gradientUnits="userSpaceOnUse">
      <stop offset="0" stop-color="#f1f2f2"/>
      <stop offset="0.03" stop-color="#f1f2f2"/>
      <stop offset="0.07" stop-color="#939598"/>
      <stop offset="0.16" stop-color="#414042"/>
      <stop offset="1" stop-color="#414042"/>
    </radialGradient>
    <linearGradient id="linear-gradient-5" x1="-273.32" y1="510.66" x2="-271.6" y2="510.66" gradientTransform="matrix(-7.73, -9.21, -9.21, 7.73, 2648.44, -6440.99)" gradientUnits="userSpaceOnUse">
      <stop offset="0" stop-color="#808285"/>
      <stop offset="0.02" stop-color="#808285"/>
      <stop offset="0.05" stop-color="#717275"/>
      <stop offset="0.12" stop-color="#6d6e71"/>
      <stop offset="0.25" stop-color="#fff"/>
      <stop offset="0.27" stop-color="#fff"/>
      <stop offset="0.55" stop-color="#414042"/>
      <stop offset="1" stop-color="#414042"/>
    </linearGradient>
    <linearGradient id="linear-gradient-6" x1="-368.29" y1="594.14" x2="-366.58" y2="594.14" gradientTransform="matrix(-0.66, -2.61, -2.61, 0.66, 1327.13, -1337.36)" gradientUnits="userSpaceOnUse">
      <stop offset="0" stop-color="#231f20"/>
      <stop offset="0.24" stop-color="#231f20"/>
      <stop offset="0.4" stop-color="#58595b"/>
      <stop offset="0.52" stop-color="#808285"/>
      <stop offset="0.62" stop-color="#808285"/>
      <stop offset="0.72" stop-color="#58595b"/>
      <stop offset="1" stop-color="#58595b"/>
    </linearGradient>
    <linearGradient id="linear-gradient-7" x1="-277.23" y1="590.58" x2="-275.52" y2="590.58" gradientTransform="matrix(-2.8, -2.33, -2.33, 2.8, 646.31, -2289.67)" gradientUnits="userSpaceOnUse">
      <stop offset="0" stop-color="#414042"/>
      <stop offset="0.06" stop-color="#414042"/>
      <stop offset="0.41" stop-color="#808285"/>
      <stop offset="0.57" stop-color="#58595b"/>
      <stop offset="0.84" stop-color="#414042"/>
      <stop offset="1" stop-color="#414042"/>
    </linearGradient>
    <linearGradient id="linear-gradient-8" x1="-285.66" y1="442.76" x2="-283.95" y2="442.76" gradientTransform="matrix(10.01, 0, 0, -10.01, 2878.29, 4440.86)" gradientUnits="userSpaceOnUse">
      <stop offset="0" stop-color="#414042"/>
      <stop offset="0.13" stop-color="#414042"/>
      <stop offset="0.43" stop-color="#808285"/>
      <stop offset="0.54" stop-color="#808285"/>
      <stop offset="0.87" stop-color="#414042"/>
      <stop offset="1" stop-color="#414042"/>
    </linearGradient>
    <linearGradient id="linear-gradient-9" x1="-293.01" y1="430.38" x2="-291.3" y2="430.38" gradientTransform="matrix(7.55, 0, 0, -7.55, 2235.53, 3276.27)" xlink:href="#linear-gradient-8"/>
    <linearGradient id="linear-gradient-10" x1="-291.89" y1="430.38" x2="-290.17" y2="430.38" gradientTransform="matrix(7.55, 0, 0, -7.55, 2247.51, 3276.27)" xlink:href="#linear-gradient-8"/>
    <linearGradient id="linear-gradient-11" x1="-305.5" y1="412.01" x2="-303.79" y2="412.01" gradientTransform="matrix(5.51, 0, 0, -5.51, 1692.55, 2310.06)" xlink:href="#linear-gradient-8"/>
    <linearGradient id="linear-gradient-12" x1="-285.06" y1="441.69" x2="-283.35" y2="441.69" gradientTransform="matrix(10.2, 0, 0, -10.2, 2929.18, 4556.4)" xlink:href="#linear-gradient-8"/>
    <linearGradient id="linear-gradient-13" x1="-281.3" y1="446.51" x2="-279.59" y2="446.51" gradientTransform="matrix(11.73, 0, 0, -11.73, 3343.81, 5287.49)" xlink:href="#linear-gradient-8"/>
    <linearGradient id="linear-gradient-14" x1="-295.05" y1="422.75" x2="-293.34" y2="422.75" gradientTransform="matrix(6.55, 0, 0, -6.55, 1996.33, 2802.02)" xlink:href="#linear-gradient-8"/>
    <linearGradient id="linear-gradient-15" x1="-362.08" y1="464.17" x2="-360.37" y2="464.17" gradientTransform="matrix(2.61, -3.2, -3.2, -2.61, 2492.5, 71.36)" gradientUnits="userSpaceOnUse">
      <stop offset="0" stop-color="#414042"/>
      <stop offset="0.13" stop-color="#414042"/>
      <stop offset="0.37" stop-color="#808285"/>
      <stop offset="0.49" stop-color="#bcbec0"/>
      <stop offset="0.57" stop-color="#bcbec0"/>
      <stop offset="0.67" stop-color="#808285"/>
      <stop offset="0.87" stop-color="#414042"/>
      <stop offset="1" stop-color="#414042"/>
    </linearGradient>
    <linearGradient id="linear-gradient-16" x1="-351.59" y1="794.16" x2="-349.88" y2="794.16" gradientTransform="matrix(-0.86, -0.92, -0.92, 0.86, 493.82, -989.18)" gradientUnits="userSpaceOnUse">
      <stop offset="0" stop-color="#414042"/>
      <stop offset="0.13" stop-color="#414042"/>
      <stop offset="1" stop-color="#6d6e71"/>
    </linearGradient>
    <clipPath id="clip-path">
      <rect x="23.49" y="19.56" width="10.76" height="0.12" fill="none"/>
    </clipPath>
    <linearGradient id="linear-gradient-17" x1="-299.09" y1="421.42" x2="-297.38" y2="421.42" gradientTransform="matrix(6.29, 0, 0, -6.29, 1905.27, 2671.07)" gradientUnits="userSpaceOnUse">
      <stop offset="0" stop-color="#414042"/>
      <stop offset="0.05" stop-color="#414042"/>
      <stop offset="0.93" stop-color="#808285"/>
      <stop offset="1" stop-color="#808285"/>
    </linearGradient>
    <clipPath id="clip-path-2">
      <rect x="47.15" y="19.56" width="9.47" height="0.12" fill="none"/>
    </clipPath>
    <linearGradient id="linear-gradient-18" x1="-302.32" y1="413.75" x2="-300.61" y2="413.75" gradientTransform="matrix(5.54, 0, 0, -5.54, 1721.4, 2310.96)" gradientUnits="userSpaceOnUse">
      <stop offset="0" stop-color="#231f20"/>
      <stop offset="0.24" stop-color="#231f20"/>
      <stop offset="0.4" stop-color="#58595b"/>
      <stop offset="0.52" stop-color="#808285"/>
      <stop offset="0.62" stop-color="#808285"/>
      <stop offset="0.72" stop-color="#58595b"/>
      <stop offset="0.93" stop-color="#939598"/>
      <stop offset="1" stop-color="#939598"/>
    </linearGradient>
    <clipPath id="clip-path-3">
      <path d="M47.15,19.56s-.55,0-.87-.1a3.53,3.53,0,0,1-.75-.25l-.08.12a3.23,3.23,0,0,0,.74.23,7.47,7.47,0,0,0,1,.12h9.47v-.12" fill="none"/>
    </clipPath>
    <linearGradient id="linear-gradient-19" x1="-296.38" y1="423.45" x2="-294.67" y2="423.45" gradientTransform="matrix(6.53, 0, 0, -6.53, 1979.8, 2783.11)" gradientUnits="userSpaceOnUse">
      <stop offset="0" stop-color="#8a8c8e"/>
      <stop offset="0.06" stop-color="#8a8c8e"/>
      <stop offset="0.98" stop-color="#6d6e71"/>
      <stop offset="1" stop-color="#6d6e71"/>
    </linearGradient>
    <clipPath id="clip-path-4">
      <path d="M55.12,6.49a34.8,34.8,0,0,1,5.73,3,29.69,29.69,0,0,1,4.44,3.41l-.1.1a29,29,0,0,0-4.43-3.39,30.67,30.67,0,0,0-5.7-3" fill="none"/>
    </clipPath>
    <linearGradient id="linear-gradient-20" x1="-298.81" y1="419.18" x2="-297.1" y2="419.18" gradientTransform="matrix(5.98, 0, 0, -5.98, 1842.25, 2516.9)" gradientUnits="userSpaceOnUse">
      <stop offset="0" stop-color="#414042"/>
      <stop offset="0.06" stop-color="#414042"/>
      <stop offset="0.95" stop-color="#77787b"/>
      <stop offset="1" stop-color="#77787b"/>
    </linearGradient>
    <linearGradient id="linear-gradient-21" x1="-341.96" y1="354.82" x2="-340.25" y2="354.82" gradientTransform="matrix(2.85, 0, 0, -2.85, 1008.81, 1018.71)" gradientUnits="userSpaceOnUse">
      <stop offset="0" stop-color="#414042"/>
      <stop offset="0.03" stop-color="#414042"/>
      <stop offset="0.95" stop-color="#808285"/>
      <stop offset="1" stop-color="#808285"/>
    </linearGradient>
    <linearGradient id="linear-gradient-22" x1="-277.57" y1="472.4" x2="-275.86" y2="472.4" gradientTransform="matrix(21.38, -15.78, -15.78, -21.38, 13389.96, 5746.1)" gradientUnits="userSpaceOnUse">
      <stop offset="0" stop-color="#e6e7e8"/>
      <stop offset="0.05" stop-color="#e6e7e8"/>
      <stop offset="0.43" stop-color="#fff"/>
      <stop offset="0.8" stop-color="#fff"/>
      <stop offset="0.96" stop-color="#e6e7e8"/>
      <stop offset="1" stop-color="#e6e7e8"/>
    </linearGradient>
    <linearGradient id="linear-gradient-23" x1="-3507.44" y1="417.81" x2="-3505.73" y2="417.81" gradientTransform="matrix(0.07, -0.11, -0.11, -0.07, 345.07, -335.28)" gradientUnits="userSpaceOnUse">
      <stop offset="0" stop-color="#6d6e71"/>
      <stop offset="0.13" stop-color="#6d6e71"/>
      <stop offset="1" stop-color="#bcbec0"/>
    </linearGradient>
    <linearGradient id="linear-gradient-24" x1="-232.04" y1="475.93" x2="-230.33" y2="475.93" gradientTransform="matrix(-7.08, 12.26, 12.26, 7.08, -7466.12, -497.4)" gradientUnits="userSpaceOnUse">
      <stop offset="0" stop-color="#bcbec0"/>
      <stop offset="0.08" stop-color="#bcbec0"/>
      <stop offset="0.92" stop-color="#414042"/>
      <stop offset="1" stop-color="#414042"/>
    </linearGradient>
    <clipPath id="clip-path-5">
      <path d="M79.16,48.79a39.82,39.82,0,0,1-5,7.61,2.67,2.67,0,0,1,.48,0,4.9,4.9,0,0,0,1.68,0h0C80.14,50.88,83,44.16,83,37.17a53.32,53.32,0,0,1-3.81,11.62" fill="none"/>
    </clipPath>
    <linearGradient id="linear-gradient-25" x1="-385.29" y1="354.18" x2="-384.29" y2="354.18" gradientTransform="matrix(-9.02, 0, 0, 9.02, -3392.09, -3147.57)" gradientUnits="userSpaceOnUse">
      <stop offset="0" stop-color="#bcbdc0"/>
      <stop offset="0.02" stop-color="#bcbdc0"/>
      <stop offset="0.2" stop-color="#8f9092"/>
      <stop offset="0.39" stop-color="#656567"/>
      <stop offset="0.54" stop-color="#4b4b4c"/>
      <stop offset="0.63" stop-color="#414142"/>
      <stop offset="1" stop-color="#414142"/>
    </linearGradient>
  </defs>
  <title>brilliance</title>
  <path d="M44.31,16.63V10a3.44,3.44,0,0,1,3.12-3.55C49,6.44,54,7.87,57.34,9.67a48.58,48.58,0,0,1,7.82,5.44,7.59,7.59,0,0,0-1.69,1.95,15.81,15.81,0,0,1-1,1.42c-.56.56-1.9.62-3.58.62H47.7C45.37,19.1,44.31,18.28,44.31,16.63Z" fill="none" stroke="#231f20" stroke-width="0.48"/>
  <path d="M39.08,16.65V10A3.46,3.46,0,0,0,36,6.45c-1.58,0-6.51,1.43-9.9,3.23a60.23,60.23,0,0,0-8.12,5.44,4.71,4.71,0,0,1,.95.67,12.11,12.11,0,0,1,1.62,2c.63.9.61,1.3,4,1.3H35.69C38,19.11,39.08,18.29,39.08,16.65Z" fill="none" stroke="#231f20" stroke-width="0.48"/>
  <path d="M.24,37.29c0-20.46,18.56-37,41.45-37S83.14,16.83,83.14,37.29,64.58,74.34,41.69,74.34.24,57.75.24,37.29Z" fill="none" stroke="#231f20" stroke-width="0.48"/>
  <path d="M46.76,26.85h9.77c1.87,0,3.17.87,3.17,3.65a25.62,25.62,0,0,1-1.32,8.88c-1.15,3.42-2.93,6.67-5.14,8.26a11.62,11.62,0,0,1-7.05,2c-1.42,0-1.94-1-1.94-2.5V30.23C44.25,27.8,45.34,26.85,46.76,26.85Z" fill="none" stroke="#231f20" stroke-width="0.48"/>
  <path d="M36.63,26.87H26.86c-1.87,0-3.18.87-3.18,3.64A25.59,25.59,0,0,0,25,39.39c1.16,3.42,2.93,6.68,5.14,8.27a11.64,11.64,0,0,0,7,2c1.43,0,1.94-1,1.94-2.5V30.24C39.13,27.82,38,26.87,36.63,26.87Z" fill="none" stroke="#231f20" stroke-width="0.48"/>
  <path d="M39.15,60.74c0-2.9-.07-3.19-4.86-5s-6.91-2.23-9.21-4.13c-2-1.66-5.46-4.83-7-13.79-1.35-8.07-2.89-12.35-5-12.29C10.13,25.6,8.84,34,9.26,39c.58,6.82,4.26,15.93,9.14,20.82,6.65,6.64,12.61,8.41,15.31,8.41a5.7,5.7,0,0,0,5.41-5.63C39.12,61.93,39.15,60.74,39.15,60.74Z" fill="none" stroke="#231f20" stroke-width="0.48"/>
  <path d="M44.11,60.77c0-2.9.07-3.19,4.86-5s6.91-2.24,9.22-4.14c2-1.66,5.46-4.83,7-13.78,1.36-8.08,2.9-12.36,5-12.3C73.13,25.64,74.43,34,74,39c-.58,6.82-4.25,15.93-9.14,20.82-6.64,6.64-12.6,8.42-15.31,8.42a5.72,5.72,0,0,1-5.41-5.64C44.14,62,44.11,60.77,44.11,60.77Z" fill="none" stroke="#231f20" stroke-width="0.48"/>
  <path d="M43.37,8.85a4.27,4.27,0,0,1,3.68-4.44c.7,0,4.74.16,10.8,3.29s9.36,6.89,9.36,7.4-1.48.35-2.42,1.59-1.91,3-4.66,3H47.21c-2.31,0-3.84-1.4-3.84-4.17Z" fill="none" stroke="#d1d3d4" stroke-width="0.27"/>
  <path d="M47.7,24.41h8.77c2.21,0,4.12,1.19,4.12,5.41a27.23,27.23,0,0,1-1.13,7.86c-1.26,4.36-2.69,8-6,10.53-2.69,2.07-6.08,1.94-7.43,1.94s-2.53-.92-2.53-2.91V28.72C43.47,25.38,45.6,24.41,47.7,24.41Z" fill="none" stroke="#d1d3d4" stroke-width="0.27"/>
  <path d="M40,8.87a4.27,4.27,0,0,0-3.69-4.44c-.7,0-4.74.16-10.79,3.28s-9.37,6.89-9.37,7.41,1.48.35,2.42,1.58,1.91,3,4.66,3H36.17c2.32,0,3.85-1.4,3.85-4.17Z" fill="none" stroke="#dcddde" stroke-width="0.27"/>
  <path d="M35.69,24.43H26.91c-2.21,0-4.12,1.18-4.12,5.41a27.66,27.66,0,0,0,1.13,7.86c1.27,4.36,2.69,8,6,10.52,2.69,2.08,6.09,1.94,7.43,1.94s2.53-.91,2.53-2.91V28.74C39.91,25.4,37.78,24.43,35.69,24.43Z" fill="none" stroke="#dcddde" stroke-width="0.27"/>
  <path d="M43.39,61.35c0-4.13-.15-5.29,4.64-7s7.7-1.86,11.46-6.53C62,44.73,63,41.29,63.77,36.61c0,0,.66-4.22,1.67-7.9s3.19-5.52,5.15-5.52,5.59,3.17,5,15.79a35.64,35.64,0,0,1-10.64,22.3C59.85,66.36,53.54,69,49.92,69,47.37,69,43.39,67.52,43.39,61.35Z" fill="none" stroke="#d1d3d4" stroke-width="0.27"/>
  <path d="M39.88,61.32c0-4.13.14-5.3-4.65-7s-7.7-1.86-11.46-6.53c-2.51-3.13-3.55-6.57-4.28-11.25,0,0-.65-4.22-1.67-7.91s-3.19-5.51-5.15-5.51S7.09,26.33,7.69,39a35.7,35.7,0,0,0,10.64,22.3c5.08,5.08,11.39,7.69,15,7.69C35.89,68.94,39.88,67.49,39.88,61.32Z" fill="none" stroke="#dcddde" stroke-width="0.27"/>
  <path d="M.45,37.29C.45,16.93,18.92.43,41.69.43s41.25,16.5,41.25,36.86S64.47,74.16,41.69,74.16.45,57.65.45,37.29Z" fill="none" stroke="#dcddde" stroke-width="0.2"/>
  <path d="M41.69.24C18.8.24.24,16.83.24,37.29S18.8,74.34,41.69,74.34,83.14,57.75,83.14,37.29,64.58.24,41.69.24M39.88,61.32c0,6.17-4,7.62-6.53,7.62-3.63,0-9.94-2.61-15-7.69A35.7,35.7,0,0,1,7.69,39c-.6-12.62,3-15.79,5-15.79s4.15,1.86,5.15,5.51,1.67,7.91,1.67,7.91c.73,4.68,1.77,8.12,4.28,11.25,3.76,4.67,6.68,4.86,11.46,6.53S39.88,57.19,39.88,61.32Zm0-14.07c0,2-1.18,2.91-2.53,2.91s-4.74.14-7.43-1.94c-3.34-2.5-4.76-6.16-6-10.52a27.66,27.66,0,0,1-1.13-7.86c0-4.23,1.91-5.41,4.12-5.41h8.78c2.09,0,4.22,1,4.22,4.31ZM40,15.57c0,2.77-1.53,4.17-3.85,4.17H23.25c-2.75,0-3.71-1.8-4.66-3s-2.42-1.07-2.42-1.58,3.31-4.29,9.37-7.41S35.63,4.43,36.33,4.43A4.27,4.27,0,0,1,40,8.87Zm3.35-6.72a4.27,4.27,0,0,1,3.68-4.44c.7,0,4.74.16,10.8,3.29s9.36,6.89,9.36,7.4-1.48.35-2.42,1.59-1.91,3-4.66,3H47.21c-2.31,0-3.84-1.4-3.84-4.17ZM59.46,37.68c-1.26,4.36-2.69,8-6,10.53-2.69,2.07-6.08,1.94-7.43,1.94s-2.53-.92-2.53-2.91V28.72c0-3.34,2.13-4.31,4.23-4.31h8.77c2.21,0,4.12,1.19,4.12,5.41A27.23,27.23,0,0,1,59.46,37.68Zm5.47,23.6C59.85,66.36,53.54,69,49.92,69c-2.55,0-6.53-1.45-6.53-7.62,0-4.13-.15-5.29,4.64-7s7.7-1.86,11.46-6.53C62,44.73,63,41.29,63.77,36.61c0,0,.66-4.22,1.67-7.9s3.19-5.52,5.15-5.52,5.59,3.17,5,15.79A35.64,35.64,0,0,1,64.93,61.28Z" fill-rule="evenodd" fill="url(#linear-gradient)"/>
  <path d="M43.37,8.85a4.27,4.27,0,0,1,3.68-4.44c.7,0,4.74.16,10.8,3.29s9.36,6.89,9.36,7.4-1.48.35-2.42,1.59-1.91,3-4.66,3H47.21c-2.31,0-3.84-1.4-3.84-4.17Z" fill="none" stroke="#b1b3b6" stroke-width="0.13"/>
  <path d="M47.7,24.41h8.77c2.21,0,4.12,1.19,4.12,5.41a27.23,27.23,0,0,1-1.13,7.86c-1.26,4.36-2.69,8-6,10.53-2.69,2.07-6.08,1.94-7.43,1.94s-2.53-.92-2.53-2.91V28.72C43.47,25.38,45.6,24.41,47.7,24.41Z" fill="none" stroke="#b1b3b6" stroke-width="0.13"/>
  <path d="M40,8.87a4.27,4.27,0,0,0-3.69-4.44c-.7,0-4.74.16-10.79,3.28s-9.37,6.89-9.37,7.41,1.48.35,2.42,1.58,1.91,3,4.66,3H36.17c2.32,0,3.85-1.4,3.85-4.17Z" fill="none" stroke="#bcbec0" stroke-width="0.13"/>
  <path d="M35.69,24.43H26.91c-2.21,0-4.12,1.18-4.12,5.41a27.66,27.66,0,0,0,1.13,7.86c1.27,4.36,2.69,8,6,10.52,2.69,2.08,6.09,1.94,7.43,1.94s2.53-.91,2.53-2.91V28.74C39.91,25.4,37.78,24.43,35.69,24.43Z" fill="none" stroke="#bcbec0" stroke-width="0.13"/>
  <path d="M39.88,61.32c0-4.13.14-5.3-4.65-7s-7.7-1.86-11.46-6.53c-2.51-3.13-3.55-6.57-4.28-11.25,0,0-.65-4.22-1.67-7.91s-3.19-5.51-5.15-5.51S7.09,26.33,7.69,39a35.7,35.7,0,0,0,10.64,22.3c5.08,5.08,11.39,7.69,15,7.69C35.89,68.94,39.88,67.49,39.88,61.32Z" fill="none" stroke="#bcbec0" stroke-width="0.13"/>
  <path d="M43.39,61.35c0-4.13-.15-5.29,4.64-7s7.7-1.86,11.46-6.53C62,44.73,63,41.29,63.77,36.61c0,0,.66-4.22,1.67-7.9s3.19-5.52,5.15-5.52,5.59,3.17,5,15.79a35.64,35.64,0,0,1-10.64,22.3C59.85,66.36,53.54,69,49.92,69,47.37,69,43.39,67.52,43.39,61.35Z" fill="none" stroke="#b1b3b6" stroke-width="0.13"/>
  <path d="M.45,37.29C.45,16.93,18.92.43,41.69.43s41.25,16.5,41.25,36.86S64.47,74.16,41.69,74.16.45,57.65.45,37.29Z" fill="none" stroke="#9d9fa2" stroke-width="0.04"/>
  <path d="M.45,37.29C.45,16.93,18.92.43,41.69.43s41.25,16.5,41.25,36.86S64.47,74.16,41.69,74.16.45,57.65.45,37.29Z" fill="none" stroke="#bcbec0" stroke-width="0.13"/>
  <path d="M46.76,26.85h9.77c1.87,0,3.17.87,3.17,3.65a25.62,25.62,0,0,1-1.32,8.88c-1.15,3.42-2.93,6.67-5.14,8.26a11.62,11.62,0,0,1-7.05,2c-1.42,0-1.94-1-1.94-2.5V30.23c0-2.43,1.09-3.38,2.51-3.38m-3.29,1.87V47.24c0,2,1.19,2.91,2.53,2.91s4.74.13,7.43-1.94c3.34-2.51,4.77-6.17,6-10.53a27.23,27.23,0,0,0,1.13-7.86c0-4.22-1.91-5.41-4.12-5.41H47.7C45.6,24.41,43.47,25.38,43.47,28.72Z" fill-rule="evenodd" fill="url(#linear-gradient-2)"/>
  <path d="M35.69,19.11H24.54c-3.43,0-3.37-.37-4-1.3a12.22,12.22,0,0,0-1.58-2,6.21,6.21,0,0,0-1-.71,60.23,60.23,0,0,1,8.12-5.44c3.39-1.8,8.32-3.23,9.9-3.23A3.46,3.46,0,0,1,39.08,10v6.65c0,1.64-1.07,2.46-3.39,2.46M40,8.87a4.27,4.27,0,0,0-3.69-4.44c-.7,0-4.74.16-10.79,3.28s-9.37,6.89-9.37,7.41,1.48.35,2.42,1.58,1.91,3,4.66,3H36.17c2.32,0,3.85-1.4,3.85-4.17Z" fill-rule="evenodd" fill="url(#linear-gradient-3)"/>
  <path d="M39.13,30.24V47.15c0,1.53-.51,2.5-1.94,2.5a11.64,11.64,0,0,1-7-2c-2.21-1.59-4-4.85-5.14-8.27a25.59,25.59,0,0,1-1.32-8.88c0-2.77,1.31-3.64,3.18-3.64h9.77c1.41,0,2.5.95,2.5,3.37m-3.44-5.81H26.91c-2.21,0-4.12,1.18-4.12,5.41a27.66,27.66,0,0,0,1.13,7.86c1.27,4.36,2.69,8,6,10.52,2.69,2.08,6.09,1.94,7.43,1.94s2.53-.91,2.53-2.91V28.74C39.91,25.4,37.78,24.43,35.69,24.43Z" fill-rule="evenodd" fill="url(#linear-gradient-4)"/>
  <path d="M70.59,23.19c-2,0-4.14,1.86-5.15,5.52s-1.67,7.9-1.67,7.9C63,41.29,62,44.73,59.49,47.86c-3.76,4.67-6.67,4.86-11.46,6.53s-4.64,2.83-4.64,7c0,6.17,4,7.62,6.53,7.62,3.62,0,9.93-2.61,15-7.69A35.64,35.64,0,0,0,75.57,39c.61-12.62-3-15.79-5-15.79M74,39c-.58,6.82-4.25,15.93-9.14,20.82-6.64,6.64-12.6,8.42-15.31,8.42a5.72,5.72,0,0,1-5.41-5.64c0-.65,0-1.84,0-1.84,0-2.9.07-3.19,4.86-5s6.91-2.24,9.22-4.14c2-1.66,5.46-4.83,7-13.78,1.36-8.08,2.9-12.36,5-12.3C73.13,25.64,74.43,34,74,39Z" fill-rule="evenodd" fill="url(#radial-gradient)"/>
  <path d="M35.23,54.36c-4.78-1.67-7.7-1.86-11.46-6.53-2.51-3.13-3.55-6.57-4.28-11.25,0,0-.65-4.22-1.67-7.91s-3.19-5.51-5.15-5.51S7.09,26.33,7.69,39a35.7,35.7,0,0,0,10.64,22.3c5.08,5.08,11.39,7.69,15,7.69,2.54,0,6.53-1.45,6.53-7.62,0-4.13.14-5.3-4.65-7m3.89,8.22a5.7,5.7,0,0,1-5.41,5.63c-2.7,0-8.66-1.77-15.31-8.41C13.52,54.91,9.84,45.8,9.26,39c-.42-5,.87-13.38,3.88-13.46,2.08-.06,3.62,4.22,5,12.29,1.51,9,5,12.13,7,13.79,2.3,1.9,4.42,2.32,9.21,4.13s4.86,2.11,4.86,5C39.15,60.74,39.12,61.93,39.12,62.58Z" fill-rule="evenodd" fill="url(#radial-gradient-2)"/>
  <path d="M57.85,7.7c-6.06-3.13-10.1-3.29-10.8-3.29a4.27,4.27,0,0,0-3.68,4.44v6.71c0,2.77,1.53,4.17,3.84,4.17H60.13c2.75,0,3.72-1.8,4.66-3s2.42-1.08,2.42-1.59-3.31-4.28-9.36-7.4m5.62,9.36a15.81,15.81,0,0,1-1,1.42c-.56.56-1.9.62-3.58.62H47.7c-2.33,0-3.39-.82-3.39-2.47V10a3.44,3.44,0,0,1,3.12-3.55C49,6.44,54,7.87,57.34,9.67a48.58,48.58,0,0,1,7.82,5.44A7.59,7.59,0,0,0,63.47,17.06Z" fill-rule="evenodd" fill="url(#linear-gradient-5)"/>
  <path d="M17.61,15.13l-.5,0a2.61,2.61,0,0,1-.63,0,2.73,2.73,0,0,0,.63.32,3.66,3.66,0,0,1,1.28.74,14.73,14.73,0,0,1,1.08,1.38,6.51,6.51,0,0,0,1,1.09,1.33,1.33,0,0,0,.67.26,1.88,1.88,0,0,0,.47,0,1.08,1.08,0,0,1-.72-.37,13.49,13.49,0,0,1-.93-1.25A8.39,8.39,0,0,0,18.82,16a8.66,8.66,0,0,0-1.21-.87" fill-rule="evenodd" fill="url(#linear-gradient-6)"/>
  <path d="M43.55,9.79V8.7a4.73,4.73,0,0,1,1-2.69,4.24,4.24,0,0,1,2.58-1.39A15.53,15.53,0,0,1,50.19,5c1,.23,2.14.57,2.14.57L51.06,6.94a31,31,0,0,0-3.28-.73,3.32,3.32,0,0,0-2.67,1c-.67.68-.75,1.77-.94,2l-.62.65" fill-rule="evenodd" fill="url(#linear-gradient-7)"/>
  <path d="M26.46,7.69a35.35,35.35,0,0,1,9.43-2.9A48.45,48.45,0,0,0,26.63,8.2c-3.78,2-7.86,4.67-7.86,4.67a27.94,27.94,0,0,1,7.69-5.18" fill-rule="evenodd" fill="url(#linear-gradient-8)"/>
  <path d="M23.19,28.8a9,9,0,0,1,1-2.9,3.84,3.84,0,0,1,2.72-1.12h9.18s-8.17.32-8.93.32a3.78,3.78,0,0,0-2.39.91,16.15,16.15,0,0,0-1.6,2.79" fill-rule="evenodd" fill="url(#linear-gradient-9)"/>
  <path d="M43.69,28.8a5.87,5.87,0,0,1,1-2.9,3.84,3.84,0,0,1,2.72-1.12h9.18s-8.17.32-8.93.32a4.21,4.21,0,0,0-2.39.91,7.14,7.14,0,0,0-1.6,2.79" fill-rule="evenodd" fill="url(#linear-gradient-10)"/>
  <path d="M12.29,23.55C10.92,23.7,7.5,26.94,8,38.65c.17,6.23,4.5,14.26,4.5,14.26S8.6,44.5,8.46,38.4a35.53,35.53,0,0,1,1.09-9.9c.93-3.08,2.39-4.21,3.17-4.36a2.88,2.88,0,0,1,2.54.84,17.32,17.32,0,0,1,2.14,2.45,11.61,11.61,0,0,0-2.36-3,3.09,3.09,0,0,0-2.75-.88" fill-rule="evenodd" fill="url(#linear-gradient-11)"/>
  <path d="M27.35,51.63a28.68,28.68,0,0,0,7.24,2.83,9.68,9.68,0,0,1,4.14,2.15,4.46,4.46,0,0,1,.82,2,3.86,3.86,0,0,0-2.23-2.45,34.14,34.14,0,0,0-5.08-1.92,18.52,18.52,0,0,1-6-2.89,12.16,12.16,0,0,1-3.32-4.27l-.83-1.78a24.26,24.26,0,0,0,2.84,4.27,17.82,17.82,0,0,0,2.41,2" fill-rule="evenodd" fill="url(#linear-gradient-12)"/>
  <path d="M43.8,59.85s0-2.45.91-3.37a10.45,10.45,0,0,1,3.71-1.91A52.26,52.26,0,0,0,55,52.24a15.57,15.57,0,0,0,6.5-6.76,17.8,17.8,0,0,0,2.39-6.57,18.47,18.47,0,0,1-2.18,7.55,13.39,13.39,0,0,1-6,6.22c-2.94,1.56-5.1,1.86-7.27,2.59S45,56.68,44.52,57.43a7.47,7.47,0,0,0-.72,2.42" fill-rule="evenodd" fill="url(#linear-gradient-13)"/>
  <path d="M71,23.51c1.09.2,2.7,1.79,3.49,4.84a34.07,34.07,0,0,1,.85,10.39,28.6,28.6,0,0,1-.8,5.32,37.51,37.51,0,0,0,.25-11.64c-1-5.42-2.44-7.62-4-7.92-1-.18-2.28.24-3.34,1.9a24.18,24.18,0,0,0-3.19,9.68,43.4,43.4,0,0,1,1.83-8.53c1.12-2.8,3.18-4.38,4.94-4" fill-rule="evenodd" fill="url(#linear-gradient-14)"/>
  <path d="M65.43,15.15s.26,0,.73.08a3.22,3.22,0,0,0,.84,0,6.14,6.14,0,0,0-1.32.51A4.4,4.4,0,0,0,64.31,17a5.36,5.36,0,0,1-2,2,3.75,3.75,0,0,1-2.23.22,4,4,0,0,0,2.5-.64,7.55,7.55,0,0,0,1-1.34c.23-.33.67-1,.86-1.21.73-.85,1-.89,1-.89" fill-rule="evenodd" fill="url(#linear-gradient-15)"/>
  <path d="M65.3,14.92a6.76,6.76,0,0,0,.83.11A6.29,6.29,0,0,0,67,15a7,7,0,0,0-1-1.22c-.55-.55-1.1-1-1.1-1l-.83,1.11.69.58.49.43" fill-rule="evenodd" fill="url(#linear-gradient-16)"/>
  <polyline points="68.45 55.17 69.49 55.79 70.55 54.17 69.41 53.53" fill="#fff" fill-rule="evenodd"/>
  <g clip-path="url(#clip-path)">
    <rect x="23.49" y="19.56" width="10.76" height="0.12" fill="url(#linear-gradient-17)"/>
  </g>
  <g clip-path="url(#clip-path-2)">
    <rect x="47.15" y="19.56" width="9.47" height="0.12" fill="url(#linear-gradient-18)"/>
  </g>
  <g clip-path="url(#clip-path-3)">
    <rect x="45.45" y="19.21" width="11.17" height="0.47" fill="url(#linear-gradient-19)"/>
  </g>
  <g clip-path="url(#clip-path-4)">
    <rect x="55.06" y="6.49" width="10.23" height="6.52" fill="url(#linear-gradient-20)"/>
  </g>
  <path d="M40,12.25S40,10.1,40,9a4,4,0,0,0-1.33-3.45,4.14,4.14,0,0,0-2.23-1.09,9.87,9.87,0,0,0-1.3.09l.07.12a10.68,10.68,0,0,1,1.27-.1,4.14,4.14,0,0,1,2.13,1.09A4.39,4.39,0,0,1,39.88,9.3c0,1,0,2.83,0,2.83" fill-rule="evenodd" fill="url(#linear-gradient-21)"/>
  <path d="M39.38.3c-17.25.85-31.69,11.12-37,25.16,0,0,4-11,16.8-18.34A51.08,51.08,0,0,1,39.38.3" fill-rule="evenodd" fill="url(#linear-gradient-22)"/>
  <path d="M59.89,37.68c-1.26,4.36-2.28,6.88-5.21,10a10.58,10.58,0,0,1-4.3,2.4,8.85,8.85,0,0,0,6.17-3.8,19.67,19.67,0,0,0,3.34-8.64" fill="#fff" fill-rule="evenodd"/>
  <path d="M76,39.59a36.83,36.83,0,0,1-10.59,22,30.92,30.92,0,0,1-5.28,4.18s5.5-2.18,10.69-9.43A30.67,30.67,0,0,0,76,39.59" fill="#fff" fill-rule="evenodd"/>
  <path d="M31.42,4.85c-.74.09-1.81,0-6.43,2.19-6.15,2.94-9.23,7.44-9.23,8,0,0,1.53-2.84,7-6.14s8.69-4,8.69-4" fill="#fff" fill-rule="evenodd"/>
  <path d="M29.18,24c-2.38,0-3.84-.15-5.08.88s-1.72,2.83-1.72,4.93c0,0-.67-3.44,1.49-5.25,1.8-1.51,5.31-.56,5.31-.56" fill="#fff" fill-rule="evenodd"/>
  <path d="M15.74,24.05a5.21,5.21,0,0,0-3.13-1.31c-2.14.07-5.11,2.83-5.37,12.17A19.56,19.56,0,0,1,9,25.12c1.18-2.54,3.09-3.25,4.43-2.81a5.93,5.93,0,0,1,2.3,1.74" fill="#fff" fill-rule="evenodd"/>
  <path d="M60.4,11.57c1.57,1.07,4.15,3,4.15,3s-2.13-1.85-4-3.14a30.82,30.82,0,0,0-6.68-3.3,36.5,36.5,0,0,1,6.55,3.45" fill-rule="evenodd" fill="url(#linear-gradient-23)"/>
  <path d="M4.18,50.42a.53.53,0,0,0-.42-.29,1,1,0,0,1-.38-.19h0a33,33,0,0,1,.69-26.85A45.45,45.45,0,0,0,1.53,37.33,33.48,33.48,0,0,0,4.18,50.42" fill-rule="evenodd" fill="url(#linear-gradient-24)"/>
  <g clip-path="url(#clip-path-5)">
    <rect x="74.17" y="37.17" width="8.8" height="19.42" fill="url(#linear-gradient-25)"/>
  </g>
  <path d="M62.2,40.67a10.24,10.24,0,0,1-.52,1.75,20.25,20.25,0,0,1-2.21,4.71A14.07,14.07,0,0,1,55,51.43c-1.79,1-4.37,1.61-6.75,2.44,0,0-3.34,1-4.27,2.11-1.16,1.4-1.08,2.76-1.08,4.63a13.68,13.68,0,0,0,.89,5.22,6.86,6.86,0,0,0,6.08,3.81c3.9,0,8.19-1.9,11.19-3.61a30.67,30.67,0,0,0,9.54-8c3.3-4,5.12-7.52,5.87-8.19a2.46,2.46,0,0,1,1.6-.73c2.1-.41,3.09-3.63,3.09-3.63-.93,4.32-6.05,11.95-5.15,10.57C70,65.27,56.32,73.6,41.59,73.6,24,73.6,9.13,63.83,3.38,49.91A32,32,0,0,1,.93,39.43c-.11-2,0-3.2,0-3.35s.07,2.26.39,2.55a1.31,1.31,0,0,1,.32.81C5.06,62.41,26,69,33.09,69.68a6.41,6.41,0,0,0,4.47-.88c2.92-1.71,3.11-5.1,3.11-8.1s0-3.64-1.41-5.07-5.62-2.18-7.46-2.79A16.76,16.76,0,0,1,28,51.19a13.49,13.49,0,0,1-4.46-4.78l.41.51a16.43,16.43,0,0,0,3.77,3.45,11.88,11.88,0,0,0,5.2,1.85,44.28,44.28,0,0,0,8.77.49c6,0,9.82-1,11.73-1.85a14.54,14.54,0,0,0,3.93-2.7,13.42,13.42,0,0,0,1.89-2.1,15.2,15.2,0,0,0,1.58-2.54" fill="#231f20" fill-rule="evenodd"/>
  <path d="M3.38,49.94C9,63.59,24.5,73.42,41.72,73.42c14.43,0,27.08-6.83,34.12-17.08,3.74-5.44,6.68-12.2,6.68-19.05a33.53,33.53,0,0,1-6,19.07C69.33,66.81,56.42,73.79,41.69,73.79c-17.57,0-32.55-9.93-38.31-23.85h0" fill="#fff" fill-rule="evenodd"/>
</svg>
