<?xml version="1.0" encoding="UTF-8"?>
<svg version="1.1" xmlns="http://www.w3.org/2000/svg" width="2000" height="1603">
<path d="M0 0 C2.23502503 0.00502909 4.47005117 0.00958948 6.70507812 0.01367188 C12.11591004 0.02455649 17.52669965 0.04118108 22.9375 0.0625 C21.22601093 9.57010651 18.64752096 18.80319895 16.08984375 28.109375 C15.60095586 29.89794083 15.11236626 31.68658822 14.62405396 33.47531128 C13.3163254 38.26227954 12.00441553 43.04809247 10.69166946 47.83368683 C9.31928689 52.83947124 7.95076584 57.84631121 6.58178711 62.85302734 C3.86361292 72.79151865 1.14100441 82.72879034 -1.58312988 92.66564941 C-2.91784953 97.53437422 -4.25165052 102.40335005 -5.58496094 107.27246094 C-9.37906788 121.12758361 -13.17828466 134.98129417 -16.9823761 148.8336792 C-19.40761858 157.66840364 -21.82459299 166.50536637 -24.2390461 175.34304428 C-25.43363217 179.71474854 -26.62933144 184.08614849 -27.82504559 188.45754433 C-28.96901432 192.6402752 -30.11121031 196.82348489 -31.25210476 201.00705528 C-32.11432554 204.16661621 -32.97925254 207.32543638 -33.84375 210.484375 C-34.15639297 211.63310089 -34.46903595 212.78182678 -34.79115295 213.96536255 C-35.07727951 215.0090097 -35.36340607 216.05265686 -35.65820312 217.12792969 C-35.90671021 218.0379071 -36.15521729 218.94788452 -36.41125488 219.88543701 C-37.0625 222.0625 -37.0625 222.0625 -38.0625 224.0625 C104.1675 224.0625 246.3975 224.0625 392.9375 224.0625 C393.2675 221.0925 393.5975 218.1225 393.9375 215.0625 C394.36296 212.63181281 394.82150217 210.20667629 395.31347656 207.78857422 C395.44907266 207.11659878 395.58466875 206.44462334 395.72437382 205.752285 C396.1718386 203.53979875 396.62492979 201.32850644 397.078125 199.1171875 C397.40016019 197.53126489 397.72186322 195.9452748 398.04325867 194.35922241 C398.90703886 190.10202249 399.7758577 185.84586571 400.64579391 181.58992004 C401.37255055 178.03141495 402.09643668 174.47232844 402.82032299 170.91323853 C408.98770787 140.59231159 415.21374724 110.28340075 421.50195312 79.98730469 C422.67685204 74.32475187 423.84519512 68.66087205 425.01109314 62.99645996 C425.85175358 58.91594213 426.69620422 54.83621597 427.54177856 50.75671387 C427.92473535 48.90555233 428.30619242 47.05407979 428.68600464 45.20227051 C429.19654292 42.71466615 429.71274223 40.22830415 430.23046875 37.7421875 C430.37566956 37.02777496 430.52087036 36.31336243 430.67047119 35.57730103 C431.44356185 31.89745465 432.41572042 28.50365995 433.9375 25.0625 C441.56105588 28.87427794 448.06551744 33.79665035 454.8125 38.9453125 C458.51922407 41.76857761 462.30571419 44.45730628 466.125 47.125 C472.54884786 51.64676395 478.48671856 56.63443372 484.42333984 61.77050781 C486.7207929 63.73086279 489.08130695 65.61095377 491.4375 67.5 C499.88430824 74.37846811 507.84864346 81.84038251 515.46484375 89.625 C516.87642842 91.00288636 518.40653923 92.25609437 519.9375 93.5 C523.03715079 96.14761839 525.56078254 98.96707453 528.19140625 102.06640625 C529.84392017 103.95552171 531.56741636 105.69796657 533.375 107.4375 C535.9375 110.0625 535.9375 110.0625 535.9375 112.0625 C536.5975 112.0625 537.2575 112.0625 537.9375 112.0625 C539.64453125 113.90625 539.64453125 113.90625 541.75 116.5625 C542.554375 117.57054687 543.35875 118.57859375 544.1875 119.6171875 C544.62835937 120.17245117 545.06921875 120.72771484 545.5234375 121.29980469 C546.99632963 123.13583389 548.49452686 124.94842197 550 126.7578125 C561.86049713 141.05816273 572.40491722 156.11855142 581.9375 172.0625 C582.29875977 172.66255859 582.66001953 173.26261719 583.03222656 173.88085938 C610.07666924 219.1772136 625.15040558 269.96150308 625.1875 322.75 C625.18851212 324.04831757 625.18851212 324.04831757 625.18954468 325.37286377 C625.17213435 339.47653373 624.40484571 353.15211002 621.9375 367.0625 C621.68806641 368.5475 621.68806641 368.5475 621.43359375 370.0625 C611.28881622 429.5785282 582.04812442 482.706303 542.9375 528.0625 C542.32261719 528.77921875 541.70773437 529.4959375 541.07421875 530.234375 C539.37883265 532.19276849 537.66340996 534.1309497 535.9375 536.0625 C535.18726563 536.90554688 534.43703125 537.74859375 533.6640625 538.6171875 C528.02245703 544.86869626 522.19371593 550.9099038 516.25 556.875 C515.54955566 557.58003662 514.84911133 558.28507324 514.12744141 559.01147461 C509.55964813 563.56584268 504.82962383 567.86083936 499.9375 572.0625 C498.75802194 573.09641109 497.57960635 574.13153572 496.40234375 575.16796875 C483.99847332 586.0285406 471.29598219 596.32363125 457.77832031 605.76757812 C455.85979232 607.11716333 453.95633465 608.48612015 452.0546875 609.859375 C428.77988934 626.60212344 404.09305482 640.91362974 378.86938477 654.48339844 C376.73865098 655.63100325 374.61207117 656.78633105 372.48803711 657.94628906 C363.49100898 662.83565168 354.33821106 667.24126406 345 671.4375 C344.29248596 671.75721771 343.58497192 672.07693542 342.85601807 672.40634155 C333.39192903 676.68229179 323.89194794 680.86310091 314.3125 684.875 C313.35480713 685.27702637 312.39711426 685.67905273 311.41040039 686.09326172 C306.63653114 688.06290914 301.93809068 689.76782652 296.9375 691.0625 C297.48278034 684.61244178 298.34292048 678.3450238 299.66479492 672.01025391 C299.83783583 671.16066195 300.01087673 670.31107 300.1891613 669.43573284 C300.76067562 666.63584558 301.33928185 663.83747533 301.91796875 661.0390625 C302.326801 659.0435605 302.73519243 657.04796813 303.14317322 655.05229187 C304.23729945 649.70664558 305.33759515 644.36228666 306.43912506 639.01816177 C307.59234732 633.41802526 308.73993846 627.81673489 309.88818359 622.21557617 C311.94484874 612.1873823 314.00636316 602.16019349 316.07053375 592.13354206 C317.82162038 583.62736864 319.56881009 575.12039997 321.31474876 566.61316872 C326.35722625 542.04695263 331.43449705 517.48793377 336.515625 492.9296875 C336.81313219 491.49175748 336.81313219 491.49175748 337.11664963 490.02477837 C339.07604938 480.55480115 341.03579813 471.08489654 342.99738312 461.6153717 C343.72894967 458.08355141 344.46024524 454.55167504 345.19152069 451.01979446 C345.52224009 449.42287025 345.85308289 447.82597158 346.18408966 446.2291069 C350.13268661 427.17986894 354.02828631 408.11991675 357.9375 389.0625 C212.4075 389.3925 66.8775 389.7225 -83.0625 390.0625 C-95.08056631 433.57134876 -95.08056631 433.57134876 -106.99261475 477.10879517 C-108.63678695 483.15368071 -110.28451239 489.19759759 -111.93197632 495.24158669 C-112.49946085 497.32353478 -113.06687432 499.40550223 -113.63427734 501.48747253 C-117.33449911 515.06397689 -121.03740379 528.63974662 -124.75161648 542.21243095 C-125.6773438 545.59531046 -126.60242061 548.97836383 -127.52560425 552.36193848 C-128.54340442 556.09218632 -129.56452571 559.82152062 -130.5859375 563.55078125 C-130.87995956 564.63017471 -131.17398163 565.70956818 -131.47691345 566.82167053 C-133.52466991 574.28266536 -135.75044606 581.67928984 -138.0625 589.0625 C-146.82684259 588.53350844 -155.05826612 586.47173106 -163.5 584.1875 C-164.23060638 583.9919754 -164.96121277 583.79645081 -165.71395874 583.59500122 C-190.19087206 577.03058646 -214.61341954 569.7200408 -238.0625 560.0625 C-239.59028076 559.43625732 -239.59028076 559.43625732 -241.14892578 558.79736328 C-286.80625017 539.99410215 -331.06356506 516.34327447 -368.27734375 483.48828125 C-370.48326586 481.56699425 -372.69141175 479.77082623 -375.0625 478.0625 C-374.47065947 472.44112368 -373.44728615 467.20429855 -371.92724609 461.76660156 C-371.70993363 460.97188068 -371.49262117 460.17715981 -371.26872349 459.35835648 C-370.54636628 456.7218093 -369.81615692 454.08750448 -369.0859375 451.453125 C-368.5674232 449.56658256 -368.04941486 447.67990099 -367.53187561 445.79309082 C-366.42192563 441.75061004 -365.30851816 437.70910386 -364.19235229 433.66833496 C-362.41461367 427.23251136 -360.64435846 420.79464413 -358.87524414 414.35644531 C-356.74825252 406.61775619 -354.61947102 398.87956406 -352.48824406 391.14204025 C-349.01308954 378.52494675 -345.54987259 365.904638 -342.09765625 353.28125 C-341.86364609 352.42563728 -341.62963593 351.57002457 -341.38853455 350.68848419 C-340.45362895 347.27008098 -339.51879531 343.8516581 -338.58408737 340.43320084 C-329.41359939 306.89540036 -320.20505712 273.36806465 -310.99029541 239.84240723 C-302.30680349 208.24919168 -293.64624297 176.64974574 -284.99707031 145.04711914 C-284.0722804 141.66812747 -283.1474745 138.28914017 -282.22265625 134.91015625 C-281.99948605 134.09474932 -281.77631584 133.27934238 -281.5463829 132.43922615 C-276.75077554 114.91790505 -271.94422494 97.3995992 -267.13208008 79.8828125 C-266.87467545 78.94425919 -266.61727081 78.00570587 -266.35206604 77.03871155 C-265.86998379 75.28687101 -265.38484109 73.53586872 -264.89610291 71.78587341 C-263.94026301 68.3526815 -263.03580869 64.94202156 -262.26464844 61.46118164 C-260.72605013 54.5985181 -260.72605013 54.5985181 -257.359375 51.87890625 C-256.18890625 51.46511719 -255.0184375 51.05132812 -253.8125 50.625 C-253.12833008 50.36879883 -252.44416016 50.11259766 -251.73925781 49.84863281 C-250.13022958 49.24720987 -248.51466153 48.66312599 -246.89453125 48.09228516 C-243.68616214 46.92565577 -240.53485565 45.64769367 -237.375 44.35546875 C-175.28264995 19.18722703 -108.70326625 6.12487452 -42.0625 1.0625 C-40.80171631 0.96461182 -39.54093262 0.86672363 -38.24194336 0.76586914 C-25.50225419 -0.14455536 -12.76546604 -0.05047897 0 0 Z " fill="#004EA2" transform="translate(1064.0625,107.9375)"/>
<path d="M0 0 C5.53497683 0.01709017 11.0695205 0.00689977 16.60448265 -0.01032162 C105.82143362 -0.24521676 195.65793576 11.24791935 427.01855469 89.70361328 C427.7198349 90.04245544 428.42111511 90.38129761 429.14364624 90.73040771 C437.43025457 94.74384667 445.61122845 98.88283026 453.64355469 103.39111328 C448.95990673 129.18999179 443.22789575 154.77589196 437.64355469 180.39111328 C434.38961203 179.6394693 431.92731226 178.55622051 429.03027344 176.87158203 C427.67083618 176.08908081 427.67083618 176.08908081 426.28393555 175.29077148 C425.30948486 174.72575928 424.33503418 174.16074707 423.33105469 173.57861328 C375.18265595 146.0570845 324.24189591 126.33148903 270.64355469 112.39111328 C268.63051408 111.85472917 266.61749255 111.31827342 264.60449219 110.78173828 C185.00443583 89.89792191 100.03376122 85.10690692 -261.45996094 174.59399414 C-269.94057181 179.59775912 -278.27594394 184.76001388 -286.35644531 190.39111328 C-287.14019531 190.92478516 -287.92394531 191.45845703 -288.73144531 192.00830078 C-303.90821828 202.4423322 -318.27708469 213.8196208 -331.86816406 226.24658203 C-333.35644531 227.39111328 -333.35644531 227.39111328 -335.35644531 227.39111328 C-335.68644531 228.38111328 -336.01644531 229.37111328 -336.35644531 230.39111328 C-337.81738281 231.82861328 -337.81738281 231.82861328 -339.73144531 233.39111328 C-347.97500868 240.41067708 -355.33594924 248.06948815 -362.06347656 256.54736328 C-364.04300618 259.00238468 -366.09563827 261.36464704 -368.1887207 263.72241211 C-380.72252002 277.99933754 -390.65307323 294.56087453 -399.35644531 311.39111328 C-399.73607422 312.11379395 -400.11570312 312.83647461 -400.50683594 313.58105469 C-426.10569313 362.80543298 -430.56100647 421.3725901 -414.39941406 474.25439453 C-404.6231259 504.49873203 -388.92554281 532.35005973 -368.66894531 556.80224609 C-367.39252691 558.34743414 -366.13971418 559.9120272 -364.88769531 561.47705078 C-358.04339331 569.87681739 -350.42839244 577.53063664 -342.79394531 585.20361328 C-342.26323425 585.73959137 -341.73252319 586.27556946 -341.18572998 586.82778931 C-334.24507107 593.82161128 -327.09584999 600.27196406 -319.35644531 606.39111328 C-318.17137034 607.36821607 -316.98867424 608.34821953 -315.80957031 609.33251953 C-301.57586707 621.04407197 -286.31478724 631.92911194 -270.37890625 641.21044922 C-268.81851315 642.12136919 -267.262753 643.04022834 -265.70898438 643.96240234 C-189.40343116 689.22925021 -104.51344433 714.5238832 268.43798828 709.95874023 C285.70534172 705.5147955 302.86450829 700.30521886 319.64526367 694.28344727 C325.33009534 692.28662683 325.33009534 692.28662683 328.64355469 693.39111328 C328.11400478 695.95369605 327.5840361 698.51619089 327.05371094 701.07861328 C326.87809631 701.92732498 326.70248169 702.77603668 326.52154541 703.65046692 C325.48839747 708.63677996 324.44872421 713.62164414 323.40014648 718.60473633 C320.91298204 730.43667981 318.45756936 742.27293843 316.08104038 754.12757683 C314.61908875 761.41467387 313.1347633 768.69702805 311.63755703 775.97696114 C310.69825461 780.55001586 309.77057033 785.12482591 308.86819458 789.70532227 C308.00555498 794.08258208 307.11416877 798.45302457 306.2014389 802.8201046 C305.86594708 804.45126937 305.54109404 806.08466196 305.22742462 807.72016335 C304.79304246 809.97646768 304.32147859 812.22183462 303.84008789 814.46850586 C303.45564262 816.37313347 303.45564262 816.37313347 303.06343079 818.3162384 C301.64355469 821.39111328 301.64355469 821.39111328 298.22854614 823.25404358 C294.58586125 824.4094122 290.95775657 825.54239758 287.27246094 826.55517578 C286.2208503 826.84483719 286.2208503 826.84483719 285.147995 827.14035034 C282.83601589 827.77327259 280.52155563 828.39620423 278.20605469 829.01611328 C277.3930188 829.23420654 276.57998291 829.4522998 275.74230957 829.67700195 C224.58701241 843.34253698 172.32739987 853.04125596 119.64355469 858.39111328 C118.54346069 858.50459106 118.54346069 858.50459106 117.42114258 858.62036133 C82.28947536 862.23714399 47.13902133 863.74566805 11.83007812 863.65185547 C7.50853149 863.6404621 3.1872314 863.64726765 -1.13430691 863.65872669 C-33.61883785 863.73179312 -65.95390614 862.33753234 -98.29394531 859.20361328 C-99.39377747 859.0985144 -100.49360962 858.99341553 -101.62677002 858.88513184 C-191.36494963 850.22053545 -279.96793044 829.4116717 -402.7578125 779.08544922 C-406.06710029 777.52734492 -409.38556047 775.99120849 -412.70800781 774.46142578 C-425.41179649 768.56222183 -437.57750909 761.91732369 -449.70068359 754.91064453 C-452.9095208 753.0746634 -456.14987967 751.30174893 -459.39672852 749.53417969 C-485.37850105 735.3591722 -510.53865921 718.24229629 -533.35644531 699.39111328 C-534.19820312 698.71048828 -535.03996094 698.02986328 -535.90722656 697.32861328 C-551.54945999 684.65183945 -566.46007734 671.28055647 -580.79394531 657.14111328 C-581.35605713 656.59205322 -581.91816895 656.04299316 -582.49731445 655.47729492 C-583.82354213 654.15400556 -585.09588041 652.77709695 -586.35644531 651.39111328 C-586.35644531 650.73111328 -586.35644531 650.07111328 -586.35644531 649.39111328 C-587.34644531 649.06111328 -588.33644531 648.73111328 -589.35644531 648.39111328 C-590.79446713 646.80004898 -592.15969866 645.14251178 -593.48144531 643.45361328 C-596.37133326 639.82272843 -599.29868089 636.32927251 -602.48144531 632.95361328 C-618.84153242 614.93753132 -632.25834009 593.8429538 -644.09228516 572.65234375 C-644.89854181 571.21017512 -645.71076363 569.77131404 -646.53076172 568.33691406 C-683.35235845 503.83926673 -690.30902508 425.31813891 -670.96606445 354.30078125 C-658.71616674 311.05561553 -635.77354826 270.99953482 -607.35644531 236.39111328 C-606.91236328 235.84938477 -606.46828125 235.30765625 -606.01074219 234.74951172 C-595.38092977 221.84843722 -583.90195886 209.84597641 -572.10644531 198.01611328 C-571.32704086 197.23269058 -571.32704086 197.23269058 -570.53189087 196.43344116 C-564.65512925 190.53372933 -558.72320702 184.76729223 -552.35644531 179.39111328 C-551.31194244 178.49034061 -550.26765917 177.58931321 -549.22363281 176.68798828 C-541.4231628 170.04842373 -533.49494697 163.61215623 -525.35644531 157.39111328 C-524.67936523 156.87210449 -524.00228516 156.3530957 -523.3046875 155.81835938 C-492.99799891 132.71209816 -460.05150489 113.15395134 -426.15478516 95.82617188 C-423.53388983 94.48211127 -420.92316207 93.12005297 -418.31347656 91.75439453 C-340.38145781 51.39511937 -253.57793795 27.71522963 -167.35644531 13.39111328 C-166.55078125 13.25640625 -165.74511719 13.12169922 -164.91503906 12.98291016 C-110.23040759 3.85424564 -55.43426421 -0.17260707 0 0 Z " fill="#004EA2" transform="translate(997.3564453125,-0.39111328125)"/>
<path d="M0 0 C1.13072182 0.00539291 1.13072182 0.00539291 2.2842865 0.01089478 C3.46956436 0.01067574 3.46956436 0.01067574 4.67878723 0.01045227 C7.30309245 0.0111516 9.92732759 0.01894489 12.55162048 0.02676392 C14.36623089 0.02862803 16.18084179 0.03005196 17.99545288 0.03105164 C22.78111653 0.03487737 27.56675003 0.04470813 32.35240173 0.05575562 C37.23195488 0.06596854 42.11151287 0.070549 46.99107361 0.07559204 C56.57246709 0.08633035 66.15383816 0.10340744 75.73521423 0.12442017 C73.73521423 6.12442017 73.73521423 6.12442017 65.73521423 19.12442017 C151.86521423 19.45442017 237.99521423 19.78442017 326.73521423 20.12442017 C325.73521423 28.12442017 325.73521423 28.12442017 318.73521423 49.12442017 C229.30521423 49.12442017 139.87521423 49.12442017 47.73521423 49.12442017 C46.74521423 52.09442017 46.74521423 52.09442017 45.73521423 55.12442017 C45.00599006 56.58238581 44.23014757 58.01807431 43.40708923 59.42520142 C42.94391296 60.22514526 42.48073669 61.02508911 42.00352478 61.84927368 C41.25196106 63.13015869 41.25196106 63.13015869 40.48521423 64.43692017 C39.40206167 66.30606249 38.32008139 68.17588451 37.23912048 70.04629517 C36.66951599 71.03049438 36.0999115 72.0146936 35.51304626 73.02871704 C31.85435539 79.39952181 28.293707 85.82573479 24.7205658 92.24478149 C20.8074669 99.25833837 16.78386966 106.183868 12.73521423 113.12442017 C40.78521423 113.12442017 68.83521423 113.12442017 97.73521423 113.12442017 C98.39521423 109.82442017 99.05521423 106.52442017 99.73521423 103.12442017 C102.37521423 94.54442017 105.01521423 85.96442017 107.73521423 77.12442017 C131.49521423 77.12442017 155.25521423 77.12442017 179.73521423 77.12442017 C181.0100364 80.94888665 180.02342875 83.41863616 178.89927673 87.12832642 C178.70046906 87.80741562 178.50166138 88.48650482 178.29682922 89.18617249 C177.65931871 91.35555053 177.0096961 93.52109989 176.36021423 95.68692017 C175.92977898 97.14959095 175.5000826 98.61247939 175.07115173 100.07559204 C174.66034552 101.46836268 174.24890843 102.86094742 173.83677673 104.25332642 C173.54451706 105.24085655 173.54451706 105.24085655 173.24635315 106.24833679 C172.53201858 108.62820292 171.84877858 110.89729147 170.73521423 113.12442017 C213.63521423 113.12442017 256.53521423 113.12442017 300.73521423 113.12442017 C298.65724573 120.74363802 296.50866586 128.23901445 294.11021423 135.74942017 C293.79826111 136.74070923 293.48630798 137.73199829 293.16490173 138.75332642 C292.86583923 139.69305298 292.56677673 140.63277954 292.25865173 141.60098267 C291.85525574 142.87062866 291.85525574 142.87062866 291.44371033 144.16592407 C290.73521423 146.12442017 290.73521423 146.12442017 289.73521423 147.12442017 C288.05229727 147.22058823 286.36531863 147.24629707 284.67965698 147.24467468 C283.03683495 147.24673668 283.03683495 147.24673668 281.36082458 147.24884033 C280.14882385 147.24524506 278.93682312 147.24164978 277.68809509 147.23794556 C275.78592979 147.2381646 275.78592979 147.2381646 273.84533691 147.23838806 C270.35789002 147.23867602 266.87047722 147.23277961 263.38303828 147.2258141 C259.742177 147.21958024 256.10131501 147.21897674 252.46044922 147.2177887 C245.56144452 147.21467548 238.66245558 147.20646222 231.76345783 147.19643921 C223.91110739 147.18527778 216.0587562 147.17976755 208.2063998 147.17474377 C192.0493287 147.16427959 175.89227348 147.14668033 159.73521423 147.12442017 C159.39490173 149.01160767 159.39490173 149.01160767 159.04771423 150.93692017 C157.2516633 159.40401741 154.93797885 167.75391464 152.73521423 176.12442017 C196.29521423 176.45442017 239.85521423 176.78442017 284.73521423 177.12442017 C283.73521423 185.12442017 283.73521423 185.12442017 276.73521423 208.12442017 C232.18521423 208.45442017 187.63521423 208.78442017 141.73521423 209.12442017 C136.78521423 228.42942017 136.78521423 228.42942017 131.73521423 248.12442017 C106.98521423 248.12442017 82.23521423 248.12442017 56.73521423 248.12442017 C60.4240748 234.59859807 65.16488117 221.37838604 69.73521423 208.12442017 C3.07521423 208.12442017 -63.58478577 208.12442017 -132.26478577 208.12442017 C-131.13869604 199.11570233 -131.13869604 199.11570233 -130.10853577 194.81973267 C-129.78175842 193.45074829 -129.78175842 193.45074829 -129.44837952 192.05410767 C-129.22279358 191.12856079 -128.99720764 190.20301392 -128.76478577 189.24942017 C-128.53919983 188.30067017 -128.31361389 187.35192017 -128.08119202 186.37442017 C-126.40178353 179.3984157 -126.40178353 179.3984157 -125.26478577 177.12442017 C-57.94478577 176.79442017 9.37521423 176.46442017 78.73521423 176.12442017 C81.04521423 167.87442017 83.35521423 159.62442017 85.73521423 151.12442017 C86.06521423 150.46442017 86.39521423 149.80442017 86.73521423 149.12442017 C29.64521423 149.12442017 -27.44478577 149.12442017 -86.26478577 149.12442017 C-85.35175695 144.5592761 -83.97406176 141.27398452 -81.79994202 137.26895142 C-81.45100388 136.61424362 -81.10206573 135.95953583 -80.74255371 135.2849884 C-79.61058066 133.16543852 -78.46923821 131.05110762 -77.32728577 128.93692017 C-76.54433976 127.47684488 -75.76178899 126.01655758 -74.97962952 124.55606079 C-68.744459 112.93315716 -62.38737596 101.38286404 -55.87416077 89.91348267 C-52.54363918 84.03995199 -49.23985228 78.18897883 -46.26478577 72.12442017 C-42.52907224 64.65299311 -38.36008958 57.40496029 -34.26478577 50.12442017 C-57.03478577 49.79442017 -79.80478577 49.46442017 -103.26478577 49.12442017 C-102.04038988 39.32925303 -99.55120354 29.72737483 -97.26478577 20.12442017 C-70.53478577 20.12442017 -43.80478577 20.12442017 -16.26478577 20.12442017 C-15.27478577 17.64942017 -15.27478577 17.64942017 -14.26478577 15.12442017 C-13.654392 13.93862034 -13.0190891 12.76516675 -12.35462952 11.60879517 C-12.00464905 10.99777954 -11.65466858 10.38676392 -11.29408264 9.75723267 C-10.75364319 8.82524048 -10.75364319 8.82524048 -10.20228577 7.87442017 C-9.83812561 7.23762329 -9.47396545 6.60082642 -9.09877014 5.94473267 C-5.68397164 0.01144137 -5.68397164 0.01144137 0 0 Z " fill="#004EA2" transform="translate(1673.2647857666016,1042.8755798339844)"/>
<path d="M0 0 C7.41630549 0.11582124 14.81376902 0.04114235 22.22844601 -0.13860935 C98.71795903 -1.95241736 98.71795903 -1.95241736 119.76597881 16.33751255 C128.22764522 24.44336897 135.33368305 33.64827821 141.2885046 43.72613674 C139.51676445 47.52372677 137.12640991 50.22667453 134.2025671 53.18316799 C133.70437466 53.69038891 133.20618221 54.19760983 132.69289303 54.72020108 C131.64155848 55.78599844 130.58742863 56.8490448 129.5306921 57.90948635 C127.913535 59.53860612 126.31596735 61.18545394 124.7181921 62.83355862 C123.69330298 63.86790502 122.66729857 64.90114779 121.6400671 65.93316799 C121.16388943 66.42887799 120.68771175 66.92458798 120.19710445 67.43531948 C118.82219601 68.79181057 118.82219601 68.79181057 116.2885046 70.72613674 C114.39556026 70.69026333 114.39556026 70.69026333 112.2885046 69.72613674 C110.26747799 67.3514114 110.26747799 67.3514114 108.04192257 64.23443753 C100.48466386 54.42643272 92.42470192 45.04112573 79.69695568 42.85032421 C68.00956986 41.4376791 56.22240045 41.95185406 44.49248409 42.48492581 C40.36147011 42.64084403 36.23384631 42.66794597 32.10027409 42.69164997 C28.08405677 42.72140161 24.07016725 42.80117736 20.05507183 42.8987785 C18.15524802 42.94459538 16.25520053 42.98202248 14.35503674 43.01043469 C3.57829309 43.22593385 -3.70515992 43.73917443 -11.71128178 51.52621609 C-12.37135227 52.25218991 -13.03142277 52.97816372 -13.7114954 53.72613674 C-14.23850481 54.16691303 -14.76551422 54.60768933 -15.30849361 55.06182247 C-17.18678699 57.28995255 -17.11253015 58.66207061 -17.15973759 61.55508572 C-17.18264866 62.55012112 -17.20555973 63.54515652 -17.22916508 64.57034451 C-17.23880283 65.66122372 -17.24844059 66.75210293 -17.2583704 67.87603909 C-17.27969028 69.02602383 -17.30101017 70.17600857 -17.32297611 71.36084133 C-17.38735562 75.17790752 -17.4271595 78.99462483 -17.4614954 82.81207424 C-17.4817075 84.7694697 -17.4817075 84.7694697 -17.50232792 86.7664085 C-17.55771076 92.25659123 -17.6053817 97.74673719 -17.63144779 103.23714405 C-17.66871538 111.08036181 -17.75028589 118.92007621 -17.89657688 126.76204485 C-17.99609655 132.28839266 -18.0447958 137.81381946 -18.05665684 143.3410427 C-18.06496177 146.63567868 -18.1008207 149.92597864 -18.17768192 153.21983105 C-18.9904881 170.26864702 -18.9904881 170.26864702 -11.42487431 184.84039456 C-3.25998908 192.04832603 6.77679207 191.53828416 17.0775671 191.31207424 C19.0728793 191.31066983 21.0681991 191.31373281 23.0634985 191.32101589 C27.2252581 191.3221254 31.38334323 191.27873781 35.54436398 191.2012344 C40.85250841 191.10464302 46.15509279 191.10593391 51.46383762 191.13887745 C55.57721148 191.15593341 59.68933289 191.12805407 63.8024931 191.08623272 C65.75826505 191.07028427 67.71417595 191.06631558 69.6699934 191.07505566 C80.80809308 191.09157798 88.2482493 190.87832562 96.50612545 182.74557644 C97.09431057 182.07916134 97.68249569 181.41274624 98.2885046 180.72613674 C98.6185046 180.39613674 98.9485046 180.06613674 99.2885046 179.72613674 C99.41048268 178.34562816 99.46619359 176.95916027 99.49382687 175.57354885 C99.51400875 174.68034939 99.53419064 173.78714993 99.55498409 172.86688381 C99.57145992 171.92196072 99.58793575 170.97703762 99.60491085 170.00348049 C99.63288754 168.70754971 99.63288754 168.70754971 99.66142941 167.3854385 C99.72994745 164.14494616 99.78995515 160.9042784 99.8510046 157.66363674 C99.9953796 150.42426174 100.1397546 143.18488674 100.2885046 135.72613674 C76.1985046 135.72613674 52.1085046 135.72613674 27.2885046 135.72613674 C27.2885046 123.51613674 27.2885046 111.30613674 27.2885046 98.72613674 C65.5685046 98.72613674 103.8485046 98.72613674 143.2885046 98.72613674 C144.4950671 120.28957424 144.4950671 120.28957424 145.7260046 142.28863674 C146.08106075 146.73662747 146.43611691 151.18461819 146.80193233 155.76739651 C147.86168168 177.31295165 144.349416 196.47863625 129.69084835 213.06207424 C112.68043903 230.97304285 92.01330134 232.93285496 68.55698782 233.71817982 C51.4832937 234.14530857 34.42915294 233.70569173 17.36573821 233.10063875 C7.35274695 232.75641462 -2.65620287 232.64959163 -12.67421627 232.56812531 C-22.30438817 232.48942413 -31.93269396 232.32214832 -41.5612483 232.13244087 C-44.62900531 232.07402488 -47.6968287 232.02472703 -50.76474476 231.97548252 C-55.57577654 231.89126738 -60.38237818 231.75209104 -65.19069386 231.57065541 C-66.94737281 231.511345 -68.70469058 231.46827431 -70.46218967 231.44306332 C-83.68621926 231.23456321 -83.68621926 231.23456321 -88.71818256 227.48675495 C-90.97530912 225.00437829 -92.86090957 222.51842434 -94.7114954 219.72613674 C-95.57001102 218.77480862 -96.42852665 217.82348049 -97.3130579 216.84332424 C-99.45037276 214.47494832 -101.58079145 212.1004602 -103.7114954 209.72613674 C-104.41145634 208.95527737 -105.11141727 208.18441799 -105.83258915 207.39019924 C-106.47325321 206.67605862 -107.11391727 205.96191799 -107.7739954 205.22613674 C-108.62671024 204.28254299 -108.62671024 204.28254299 -109.49665165 203.31988674 C-110.7114954 201.72613674 -110.7114954 201.72613674 -110.7114954 199.72613674 C-111.3714954 199.72613674 -112.0314954 199.72613674 -112.7114954 199.72613674 C-116.05369639 196.96767114 -117.44943915 195.10611353 -118.26482487 190.81232792 C-118.57849585 187.02937141 -118.73354875 183.25665831 -118.83454227 179.46368557 C-118.89048939 178.00230532 -118.94805817 176.54098638 -119.00711918 175.07972866 C-119.18955566 170.28177328 -119.31617777 165.48318229 -119.4302454 160.68316799 C-119.44997473 159.86079576 -119.46970406 159.03842354 -119.49003124 158.19113094 C-119.6724717 150.39779686 -119.82934262 142.60421808 -119.93557835 134.8094545 C-120.06011719 125.81059539 -120.25078798 116.82503416 -120.62653446 107.8328262 C-123.43272818 38.91521443 -123.43272818 38.91521443 -107.8376627 19.75572544 C-82.98157487 -6.9430716 -32.97490607 -0.58799366 0 0 Z " fill="#004EA2" transform="translate(1282.711495399475,1373.2738632559776)"/>
<path d="M0 0 C33 0 66 0 100 0 C109.18460272 12.62882874 109.18460272 12.62882874 113.21484375 18.6328125 C113.6677327 19.30382996 114.12062164 19.97484741 114.5872345 20.66619873 C115.54571172 22.08676072 116.5033183 23.50791051 117.46008301 24.92962646 C119.4905522 27.94681007 121.52538306 30.96104342 123.55990601 33.97549438 C124.58781818 35.4985986 125.61550889 37.02185231 126.64297485 38.54525757 C130.99634764 44.99918849 135.36871803 51.43997569 139.75 57.875 C145.63132311 66.51655656 151.5064173 75.16228901 157.375 83.8125 C157.96867371 84.68754181 157.96867371 84.68754181 158.57434082 85.58026123 C160.58055789 88.53734478 162.58668896 91.49448666 164.59277344 94.45166016 C168.16754472 99.72114453 171.7431198 104.99008345 175.31863403 110.25906372 C176.4929815 111.98965709 177.66727559 113.72028666 178.84155273 115.45092773 C182.54275486 120.90566781 186.24431546 126.36016373 189.94699097 131.81390381 C191.69086036 134.38252386 193.4345484 136.95126701 195.17822266 139.52001953 C196.00739639 140.7414352 196.83665843 141.96279093 197.66601562 143.18408203 C198.81793398 144.88038079 199.9695443 146.5768883 201.12109375 148.2734375 C201.7752124 149.23685059 202.42933105 150.20026367 203.10327148 151.19287109 C205.08124539 154.12024192 207.04026055 157.06039083 209 160 C209.495 80.8 209.495 80.8 210 0 C224.52 0 239.04 0 254 0 C254 74.25 254 148.5 254 225 C239.48 225 224.96 225 210 225 C199.83670775 211.44894366 199.83670775 211.44894366 195.75 205.375 C191.76271987 199.5110172 187.6708054 193.73478052 183.5 188 C178.93466019 181.71804411 174.4708255 175.37937135 170.09155273 168.96655273 C165.30698348 161.96586311 160.409123 155.04681946 155.50732422 148.12792969 C153.04362118 144.64985459 150.58378722 141.1690515 148.125 137.6875 C147.63523682 136.99406494 147.14547363 136.30062988 146.64086914 135.58618164 C142.14793293 129.2195521 137.6815515 122.83445719 133.21582031 116.44873047 C128.00128089 108.99507414 122.75877346 101.56146701 117.50732422 94.13378906 C115.90018942 91.85870676 114.29555498 89.58187615 112.69140625 87.3046875 C112.14693848 86.53213623 111.6024707 85.75958496 111.04150391 84.96362305 C110.00037319 83.48623163 108.95965845 82.00854695 107.91943359 80.53051758 C107.44973145 79.86431396 106.9800293 79.19811035 106.49609375 78.51171875 C106.08544678 77.92865967 105.6747998 77.34560059 105.25170898 76.74487305 C103.8630497 74.80909229 102.4294138 72.90588507 101 71 C100.67 121.82 100.34 172.64 100 225 C67 225 34 225 0 225 C0 150.75 0 76.5 0 0 Z " fill="#004EA2" transform="translate(862,1378)"/>
<path d="M0 0 C78.54 0 157.08 0 238 0 C238 12.87 238 25.74 238 39 C191.8 39 145.6 39 98 39 C98 57.15 98 75.3 98 94 C138.26 94 178.52 94 220 94 C220 106.21 220 118.42 220 131 C179.74 131 139.48 131 98 131 C98 149.15 98 167.3 98 186 C102.20548584 185.99476318 106.41097168 185.98952637 110.74389648 185.98413086 C124.60200743 185.96759895 138.46011821 185.95647955 152.31823635 185.94818783 C160.72461384 185.94302469 169.13098201 185.93598166 177.53735352 185.92456055 C184.86167932 185.91461425 192.18599837 185.9081467 199.51033074 185.90591151 C203.39090787 185.90460431 207.2714657 185.90151788 211.15203667 185.89426994 C214.80039557 185.88751058 218.44872711 185.88538287 222.09709167 185.88689232 C224.08288419 185.88648363 226.0686737 185.881088 228.05445862 185.87557983 C229.2254007 185.8769545 230.39634277 185.87832916 231.60276794 185.87974548 C232.62687995 185.87882369 233.65099195 185.8779019 234.70613766 185.87695217 C237 186 237 186 238 187 C238 199.54 238 212.08 238 225 C159.46 225 80.92 225 0 225 C0 150.75 0 76.5 0 0 Z " fill="#004EA2" transform="translate(1758,1378)"/>
<path d="M0 0 C33.33 0 66.66 0 101 0 C101 31.02 101 62.04 101 94 C137.3 94 173.6 94 211 94 C211 62.98 211 31.96 211 0 C225.19 0 239.38 0 254 0 C254 74.25 254 148.5 254 225 C239.81 225 225.62 225 211 225 C211 193.98 211 162.96 211 131 C174.7 131 138.4 131 101 131 C101 162.02 101 193.04 101 225 C67.67 225 34.34 225 0 225 C0 150.75 0 76.5 0 0 Z " fill="#004EA2" transform="translate(290,1378)"/>
<path d="M0 0 C33 0 66 0 100 0 C100 31.02 100 62.04 100 94 C136.3 94 172.6 94 210 94 C210 62.98 210 31.96 210 0 C223.53 0 237.06 0 251 0 C251 74.25 251 148.5 251 225 C237.47 225 223.94 225 210 225 C210 193.98 210 162.96 210 131 C173.7 131 137.4 131 100 131 C100 162.02 100 193.04 100 225 C67 225 34 225 0 225 C0 150.75 0 76.5 0 0 Z " fill="#004EA2" transform="translate(1456,1378)"/>
<path d="M0 0 C1.36916565 0.00539291 1.36916565 0.00539291 2.76599121 0.01089478 C3.72198715 0.01074875 4.67798309 0.01060272 5.66294861 0.01045227 C8.83916452 0.01115181 12.01532259 0.01894614 15.19152832 0.02676392 C17.387283 0.02862795 19.58303809 0.03005192 21.77879333 0.03105164 C27.5705784 0.03487798 33.36233857 0.04470926 39.15411377 0.05575562 C45.05915998 0.06596724 50.9642102 0.07054872 56.8692627 0.07559204 C68.46497679 0.08633142 80.06067236 0.10340923 91.65637207 0.12442017 C104.16103365 29.11776015 104.16103365 29.11776015 109.99859619 43.70144653 C111.54946032 47.57362357 113.11284776 51.4407454 114.67590332 55.30801392 C115.00006226 56.11026398 115.32422119 56.91251404 115.65820312 57.73907471 C119.39534106 66.97316379 123.20977956 76.17503091 127.03137207 85.37442017 C127.38475647 86.22529205 127.73814087 87.07616394 128.10223389 87.95281982 C129.89873779 92.27768938 131.696365 96.60209072 133.49475098 100.92617798 C144.94883381 128.46742676 156.35812304 156.0266293 167.64038086 183.63876343 C168.69667136 186.22301375 169.75409902 188.80679688 170.81164551 191.39053345 C172.59183331 195.74104853 174.3679726 200.09319675 176.14117432 204.44656372 C176.81372036 206.09636976 177.487412 207.7457093 178.16229248 209.39456177 C179.09073341 211.66385157 180.01476159 213.93488759 180.93762207 216.20645142 C181.21488129 216.88152237 181.4921405 217.55659332 181.77780151 218.25212097 C183.65637207 222.89596226 183.65637207 222.89596226 183.65637207 225.12442017 C168.14637207 225.12442017 152.63637207 225.12442017 136.65637207 225.12442017 C132.87303657 216.92719324 129.17930849 208.78729112 125.78137207 200.43692017 C125.37918457 199.46303345 124.97699707 198.48914673 124.56262207 197.48574829 C124.1836377 196.55826782 123.80465332 195.63078735 123.41418457 194.67520142 C122.90589111 193.43250488 122.90589111 193.43250488 122.3873291 192.16470337 C121.65637207 190.12442017 121.65637207 190.12442017 121.65637207 188.12442017 C72.65137207 188.61942017 72.65137207 188.61942017 22.65637207 189.12442017 C15.23137207 206.94442017 15.23137207 206.94442017 7.65637207 225.12442017 C-25.01362793 225.12442017 -57.68362793 225.12442017 -91.34362793 225.12442017 C-83.30760453 202.16435332 -83.30760453 202.16435332 -80.64440918 195.19082642 C-80.1751577 193.9520726 -80.1751577 193.9520726 -79.69642639 192.68829346 C-79.03019727 190.93044489 -78.36284614 189.17302118 -77.69439697 187.41601562 C-76.61242701 184.57205208 -75.53358871 181.72691614 -74.45544434 178.88150024 C-72.89807831 174.77170103 -71.33967317 170.66229803 -69.78063965 166.5531311 C-66.00821656 156.60604425 -62.25244315 146.65266791 -58.49676514 136.69924927 C-57.6421987 134.43447069 -56.78750231 132.16974115 -55.93267822 129.90505981 C-50.23280315 114.80428226 -44.5554624 99.69527706 -38.89852905 84.57836914 C-32.61268398 67.78708586 -26.24229954 51.02805914 -19.86291504 34.27212524 C-19.47785294 33.26047806 -19.09279083 32.24883087 -18.69606018 31.20652771 C-17.94748587 29.24008054 -17.19858327 27.2737583 -16.44932556 25.30757141 C-14.78058682 20.92391954 -13.12061099 16.53753452 -11.48864746 12.14004517 C-11.20864395 11.38646729 -10.92864044 10.6328894 -10.64015198 9.85647583 C-10.12740943 8.47321105 -9.61702538 7.08906876 -9.10948181 5.70388794 C-6.95100619 -0.1215331 -6.28187372 0.01045505 0 0 Z M68.65637207 63.12442017 C65.95909987 70.45251688 63.2705454 77.7837846 60.58744812 85.11708069 C58.78472632 90.04386319 56.97962699 94.96976477 55.17248535 99.89492798 C53.12462639 105.47727783 51.08050378 111.06098338 49.04022026 116.64610577 C47.88875719 119.79776504 46.73556111 122.94876684 45.57836914 126.09832764 C44.26261296 129.68221448 42.95296075 133.26827736 41.64465332 136.85488892 C41.24202774 137.94741974 40.83940216 139.03995056 40.42457581 140.16558838 C40.05932297 141.17060394 39.69407013 142.17561951 39.31774902 143.21109009 C38.83456963 144.53097176 38.83456963 144.53097176 38.34162903 145.8775177 C37.51051523 148.21116071 37.51051523 148.21116071 37.65637207 151.12442017 C60.42637207 151.12442017 83.19637207 151.12442017 106.65637207 151.12442017 C101.72749443 137.91350362 101.72749443 137.91350362 96.33605957 124.92129517 C95.95477402 124.04187256 95.57348846 123.16244995 95.1806488 122.25637817 C93.96777732 119.46083233 92.74961531 116.66762863 91.53137207 113.87442017 C90.6880748 111.93288051 89.84522395 109.9911469 89.00280762 108.04922485 C87.74278298 105.1448137 86.48249163 102.24052226 85.22068787 99.33688354 C81.6099443 91.02747544 78.03203512 82.70432323 74.46887207 74.37442017 C73.97048828 73.21007446 73.47210449 72.04572876 72.95861816 70.84609985 C71.85728417 68.27245621 70.75647124 65.69859181 69.65637207 63.12442017 C69.32637207 63.12442017 68.99637207 63.12442017 68.65637207 63.12442017 Z " fill="#004EA2" transform="translate(660.3436279296875,1377.8755798339844)"/>
<path d="M0 0 C146.52 0 293.04 0 444 0 C442.7628515 5.56716825 441.54598978 10.78707477 439.87109375 16.1875 C439.67653091 16.8160791 439.48196808 17.4446582 439.2815094 18.09228516 C438.87571356 19.40012463 438.46814981 20.70741684 438.05883789 22.01416016 C437.43055444 24.0221985 436.80967465 26.03242746 436.18945312 28.04296875 C435.79209995 29.32044735 435.3943292 30.59779616 434.99609375 31.875 C434.45746704 33.60363281 434.45746704 33.60363281 433.90795898 35.3671875 C433 38 433 38 432 39 C430.41845152 39.09594225 428.83260875 39.1218796 427.24815369 39.12025452 C425.7063015 39.12231651 425.7063015 39.12231651 424.13330078 39.12442017 C422.99610596 39.12082489 421.85891113 39.11722961 420.68725586 39.11352539 C418.90213341 39.11374443 418.90213341 39.11374443 417.08094788 39.1139679 C413.80836726 39.11338894 410.53582893 39.10835981 407.26325679 39.10139394 C403.84661335 39.09515967 400.42996917 39.09455654 397.01332092 39.09336853 C390.53930733 39.09025543 384.06531054 39.08204233 377.59130436 39.07201904 C370.2226208 39.06085725 362.85393645 39.05534729 355.48524654 39.05032361 C340.32348831 39.03985969 325.16174583 39.02226066 310 39 C309.80485054 40.54309845 309.80485054 40.54309845 309.60575867 42.11737061 C309.06403171 45.58958672 308.31167225 48.76088325 307.30786133 52.12207031 C306.7825885 53.8946244 306.7825885 53.8946244 306.2467041 55.70298767 C305.85853754 56.99471746 305.47031125 58.2864293 305.08203125 59.578125 C304.67242665 60.95437506 304.26330062 62.33076763 303.85461426 63.70729065 C302.97455293 66.6683664 302.09154586 69.62854108 301.20620728 72.58804321 C299.79474803 77.30678254 298.39010229 82.0275312 296.98706055 86.7487793 C296.62971817 87.95119845 296.62971817 87.95119845 296.26515675 89.1779089 C295.77773465 90.81811 295.29033893 92.45831894 294.80296898 94.09853554 C294.05579973 96.6123868 293.30801623 99.12605472 292.56013489 101.63969421 C287.32963157 119.22527567 282.16510346 136.83009015 277.0081749 154.43736267 C275.88507032 158.27180837 274.7614877 162.10611397 273.63793945 165.94042969 C273.31395723 167.04616302 273.31395723 167.04616302 272.98342991 168.17423439 C271.92105627 171.79998302 270.85848233 175.42567276 269.79548645 179.05123901 C269.58916375 179.75495951 269.38284105 180.45868 269.17026615 181.18372536 C268.75416368 182.60293918 268.33804319 184.02214772 267.92190456 185.44135094 C266.57361386 190.04046487 265.22781196 194.64030138 263.88315678 199.24047947 C262.95301701 202.42121811 262.02131714 205.60149842 261.0892849 208.78168297 C260.6449403 210.29911389 260.20126705 211.81674157 259.75829506 213.33457375 C259.1481363 215.42497843 258.53565007 217.5146876 257.92260742 219.60424805 C257.40049934 221.38921944 257.40049934 221.38921944 256.86784363 223.21025085 C256 226 256 226 255 228 C227.2361666 228.18688772 199.47242747 228.32795861 171.70809174 228.41449738 C158.81657382 228.45574706 145.92544674 228.51198435 133.03417969 228.60351562 C121.79803726 228.68325706 110.56217789 228.7348668 99.32576036 228.75270796 C93.37607312 228.76313701 87.42719563 228.78764327 81.47776794 228.84584045 C75.8764675 228.90018776 70.27630942 228.91688316 64.67477036 228.90486145 C62.62044438 228.9070603 60.56607977 228.92294758 58.51198196 228.9536438 C42.97844893 229.17436666 42.97844893 229.17436666 38.08918762 226.27220154 C36.08620934 224.28550821 34.58358865 222.32303031 33 220 C31.8024032 218.88186597 30.576045 217.79303204 29.3125 216.75 C24.98728388 213.03409012 20.81941534 209.15726183 16.65551758 205.26269531 C14.19906437 202.97703157 11.79379752 200.8450003 9.10546875 198.82421875 C8.06326172 197.92123047 8.06326172 197.92123047 7 197 C7 196.01 7 195.02 7 194 C73.33 194 139.66 194 208 194 C208.66 191.03 209.32 188.06 210 185 C210.57612872 182.89642074 211.17655277 180.79928349 211.80566406 178.7109375 C212.1557251 177.54318283 212.50578613 176.37542816 212.86645508 175.17228699 C213.24568115 173.91918228 213.62490723 172.66607758 214.015625 171.375 C214.42402418 170.01707661 214.8321378 168.65906732 215.23999023 167.30097961 C216.34316151 163.63052805 217.45032011 159.96129037 218.5582428 156.29227066 C219.72178028 152.43666523 220.88167817 148.57996513 222.04199219 144.72338867 C224.00376357 138.20477087 225.96787797 131.68686297 227.93359375 125.16943359 C230.7839668 115.71875638 233.62971273 106.26669005 236.474617 96.81436539 C238.73231953 89.31351523 240.99103968 81.81297144 243.25 74.3125 C243.49319473 73.50500305 243.73638947 72.6975061 243.98695374 71.86553955 C245.38539365 67.22250578 246.78437451 62.57963558 248.18414307 57.93700218 C248.60934293 56.52652651 249.03439472 55.1160062 249.45928955 53.70543861 C250.03917285 51.78046899 250.6196676 49.85568359 251.20019531 47.9309082 C251.6880954 46.31234673 251.6880954 46.31234673 252.18585205 44.66108704 C252.76557511 42.76623055 253.37337731 40.87986806 254 39 C166.88 39 79.76 39 -10 39 C-9.32298459 33.5838767 -8.62364703 29.09555888 -7.1875 23.9453125 C-7.01371826 23.31769012 -6.83993652 22.69006775 -6.66088867 22.04342651 C-6.29708301 20.73361588 -5.93060702 19.42454414 -5.56152344 18.11621094 C-4.99587421 16.11036957 -4.43868622 14.10232008 -3.8828125 12.09375 C-1.15030962 2.30061924 -1.15030962 2.30061924 0 0 Z " fill="#004EA2" transform="translate(638,1063)"/>
<path d="M0 0 C24.321828 -0.28060801 48.64341263 -0.49207125 72.96653461 -0.62174606 C84.2608744 -0.68356345 95.55420712 -0.7678049 106.84790039 -0.90527344 C116.69421757 -1.02506692 126.53980531 -1.10234188 136.38683099 -1.12906194 C141.5988515 -1.14467667 146.80878573 -1.18123574 152.02013588 -1.26876068 C156.93164401 -1.35057687 161.84021924 -1.3752705 166.75234413 -1.35729218 C168.54911275 -1.36057788 170.34598531 -1.38424425 172.14216232 -1.4304657 C186.38639443 -1.77885518 186.38639443 -1.77885518 191.38347435 2.56093597 C194.24034689 5.46900122 196.58083947 8.72319613 199 12 C200.85524172 13.99104763 202.7885504 15.85991619 204.75 17.75 C208.4417308 21.39983882 211.9294458 25.12648015 215.296875 29.07421875 C218.36536827 32.54386825 221.68759155 35.76502448 225 39 C223.41291345 42.85978995 220.80296121 45.53587211 217.9140625 48.45703125 C217.41587006 48.96425217 216.91767761 49.47147308 216.40438843 49.99406433 C215.35305388 51.0598617 214.29892403 52.12290806 213.2421875 53.18334961 C211.62503039 54.81246938 210.02746275 56.45931719 208.4296875 58.10742188 C207.40479838 59.14176828 206.37879397 60.17501104 205.3515625 61.20703125 C204.87538483 61.70274124 204.39920715 62.19845123 203.90859985 62.70918274 C202.53369141 64.06567383 202.53369141 64.06567383 200 66 C198.10430908 65.96440125 198.10430908 65.96440125 196 65 C193.99880981 62.62329102 193.99880981 62.62329102 191.79736328 59.50390625 C184.19880695 49.55507008 176.11138986 40.26750911 163.23015976 38.14712524 C151.21308079 36.77299548 139.09700468 37.31686688 127.04370117 37.87536621 C122.78444885 38.0428944 118.52761574 38.08824301 114.2655468 38.129776 C109.1523487 38.18511682 104.0414558 38.30787563 98.9296875 38.4375 C97.96751186 38.45672516 97.00533623 38.47595032 96.01400375 38.49575806 C93.28749695 38.56299054 90.56737645 38.67787997 87.84326172 38.80859375 C87.04743683 38.82270294 86.25161194 38.83681213 85.43167114 38.85134888 C81.01979311 39.12134863 78.57678416 39.95381965 75.38479614 43.07446289 C74.24895886 44.376408 73.1208978 45.68517092 72 47 C71.35564625 47.60942664 70.7112925 48.21885328 70.04741287 48.8467474 C65.47195937 53.34764721 64.1712882 56.74137613 63.96243286 63.12678528 C63.96403412 64.14979233 63.96563538 65.17279938 63.96728516 66.22680664 C63.92961029 67.87490829 63.92961029 67.87490829 63.89117432 69.55630493 C63.81981549 73.17479076 63.8010589 76.79101732 63.7890625 80.41015625 C63.7640056 82.94112513 63.7380618 85.47208536 63.71127319 88.0030365 C63.66489426 93.30654284 63.64763418 98.60921443 63.64794922 103.9128418 C63.64731882 110.00753251 63.56489795 116.09736885 63.44382632 122.19074923 C63.33084794 128.08994259 63.3024256 133.98724883 63.3042717 139.88741875 C63.29422789 142.37884765 63.25997008 144.8703106 63.20009232 147.36104012 C62.81003423 164.59716764 62.81003423 164.59716764 71.2746582 179.02172852 C80.14601884 187.06996497 89.88119148 187.19572123 101.31640625 186.9921875 C103.3465383 187.00232219 105.37665245 187.01690506 107.40672302 187.03567505 C111.63840966 187.05765055 115.86531102 187.02613926 120.09643555 186.95556641 C125.48491047 186.87000272 130.86219388 186.91938317 136.25026035 187.00915337 C140.43530137 187.06371303 144.61774472 187.04595592 148.8028698 187.00723648 C150.78693963 186.99732844 152.7712562 187.00916259 154.75503731 187.04442978 C166.86040713 187.28720191 166.86040713 187.28720191 177.21871948 181.75372314 C180.28196372 178.6762459 182.96629987 175.37727514 185.55352592 171.89488602 C187.81009305 168.93877531 190.33592186 166.27827389 192.875 163.5625 C194.25106688 162.04263192 195.62652732 160.52221281 197 159 C200.91209308 160.59415503 203.37218086 163.13893332 206.3125 166.125 C206.7974292 166.61637451 207.2823584 167.10774902 207.78198242 167.61401367 C211.13237247 171.03572418 214.32165942 174.56598386 217.4296875 178.20703125 C219.82431574 180.94119633 222.3991665 183.46260146 225 186 C217.00775191 202.15280913 205.38228475 218.26472079 188 225 C161.61676014 232.86846159 130.83512801 229.98660428 103.66964972 229.44335639 C96.09604685 229.30714374 88.53785062 229.34810177 80.96459961 229.48754883 C-1.40353686 230.9547955 -1.40353686 230.9547955 -20.5669136 214.61615372 C-37.83816261 197.64664085 -38.34390496 169.94108879 -38.64359242 147.11781865 C-38.70010705 138.38756145 -38.52095198 129.66468316 -38.31487375 120.93736011 C-38.18219846 114.70963937 -38.22177518 108.49954357 -38.35717773 102.2722168 C-39.71991844 38.13413435 -39.71991844 38.13413435 -24.19725895 20.33408833 C-18.16446294 14.05296794 -11.41354886 8.69509131 -4.07637024 4.01954651 C-0.96274812 2.34406629 -0.96274812 2.34406629 0 0 Z " fill="#004EA2" transform="translate(34,1378)"/>
<path d="M0 0 C1.22080086 0.00037972 2.44160172 0.00075944 3.69939655 0.00115067 C4.71921665 -0.0005801 4.71921665 -0.0005801 5.75963917 -0.00234583 C8.06641491 -0.00501907 10.37312258 -0.00048458 12.67989486 0.00394398 C14.33892783 0.00350842 15.99796074 0.0026338 17.65699327 0.00135481 C22.23817529 -0.00089318 26.81933416 0.00313527 31.40051323 0.00813287 C36.33237541 0.01243285 41.26423618 0.01099128 46.1960997 0.0102306 C54.74828856 0.00970508 63.30046983 0.01285484 71.85265678 0.01846844 C84.21783535 0.02657961 96.58301022 0.02919826 108.94819116 0.03045643 C129.00764115 0.03264756 149.06708709 0.03930928 169.12653488 0.04875904 C188.61774561 0.0579316 208.10895524 0.0650132 227.60016769 0.06926686 C228.80067719 0.06952958 230.00118669 0.0697923 231.23807526 0.07006299 C237.26040127 0.07136798 243.28272728 0.0726317 249.30505329 0.07387489 C299.30276025 0.08424939 349.30046279 0.10186934 399.29816574 0.1241985 C398.66961746 2.66324983 398.03947275 5.20188747 397.40842575 7.74031788 C397.14442647 8.80780939 397.14442647 8.80780939 396.87509388 9.89686638 C395.35138723 16.01738642 393.61113499 22.05585758 391.75910324 28.085136 C391.43628875 29.1482349 391.11347427 30.21133381 390.78087753 31.30664784 C389.74835947 34.7052054 388.71075242 38.10218541 387.67316574 41.4991985 C386.24011333 46.21081255 384.80993989 50.923298 383.38019699 55.63591725 C383.02902313 56.79237248 382.67784927 57.94882771 382.31603378 59.14032704 C378.84438405 70.58784551 375.46579622 82.06181992 372.12970871 93.54949147 C371.76377609 94.80519947 371.39784347 96.06090748 371.02082199 97.35466725 C370.70894943 98.43127613 370.39707687 99.50788502 370.07575363 100.61711842 C369.29816574 103.1241985 369.29816574 103.1241985 368.29816574 105.1241985 C235.96816574 105.1241985 103.63816574 105.1241985 -32.70183426 105.1241985 C-32.03735188 100.47282185 -31.38813791 96.60578069 -30.09465653 92.19353443 C-29.76631821 91.06464298 -29.43797989 89.93575154 -29.09969193 88.77265126 C-28.74281296 87.56350559 -28.38593399 86.35435993 -28.01824051 85.1085735 C-27.64250108 83.82252467 -27.26721602 82.53634302 -26.8923555 81.25003773 C-25.89388382 77.82784497 -24.88983614 74.40731261 -23.88467652 70.9870792 C-22.85044618 67.46449905 -21.82116932 63.94047363 -20.79192215 60.41643482 C-20.58834941 59.71943502 -20.38477667 59.02243521 -20.17503506 58.3043142 C-19.76547622 56.90199395 -19.35594009 55.49966707 -18.94642693 54.09733349 C-18.33582579 52.00714076 -17.7245895 49.91713457 -17.11325699 47.82715565 C-14.8204934 39.984866 -12.54906854 32.13693619 -10.31902176 24.27654225 C-10.08047974 23.43606343 -9.84193772 22.5955846 -9.59616715 21.72963673 C-8.53673821 17.99174904 -7.48233722 14.25249894 -6.43254715 10.51189381 C-6.07668534 9.25344654 -5.72082352 7.99499928 -5.35417801 6.69841725 C-5.05503495 5.63195973 -4.75589188 4.56550221 -4.44768387 3.46672779 C-3.39356345 0.15599605 -3.39356345 0.15599605 0 0 Z M41.29816574 25.1241985 C38.8822064 31.51361148 38.8822064 31.51361148 36.76423019 37.96379811 C36.50418701 38.8208585 36.24414383 39.67791889 35.97622055 40.56095082 C35.70734527 41.45709599 35.43847 42.35324116 35.16144699 43.27654225 C34.87714325 44.21728092 34.59283951 45.1580196 34.2999205 46.12726551 C33.70456149 48.0992494 33.11048885 50.07162208 32.51764816 52.04436451 C31.60582855 55.07779076 30.68961589 58.10986466 29.77277511 61.14177662 C29.19374263 63.06162117 28.61495759 64.98154037 28.03644699 66.90154225 C27.76149902 67.81185704 27.48655105 68.72217182 27.20327133 69.66007191 C26.95268463 70.49506718 26.70209793 71.33006245 26.44391769 72.19036061 C26.2220227 72.92790074 26.00012771 73.66544087 25.77150863 74.4253307 C25.25343253 75.99082022 25.25343253 75.99082022 25.29816574 77.1241985 C68.85816574 77.1241985 112.41816574 77.1241985 157.29816574 77.1241985 C156.57985468 73.53264322 156.00037557 71.1073724 154.57990402 67.88811451 C154.22928909 67.08700749 153.87867416 66.28590046 153.51743454 65.46051747 C152.94870117 64.18222317 152.94870117 64.18222317 152.36847824 62.87810475 C151.9774794 61.98937168 151.58648056 61.10063862 151.18363327 60.18497425 C150.35712463 58.30878462 149.52822224 56.43364791 148.69709152 54.55950123 C147.4301367 51.70241855 146.17013912 48.84235143 144.91144699 45.98162037 C144.10586279 44.15526963 143.29988608 42.32909196 142.49347824 40.50310475 C142.11837112 39.65293278 141.74326401 38.80276081 141.35679001 37.92682606 C140.99987076 37.12256687 140.64295151 36.31830769 140.27521652 35.48967701 C139.96512649 34.78972111 139.65503647 34.08976521 139.33554977 33.36859852 C138.05170802 30.59098254 136.66662474 27.8611165 135.29816574 25.1241985 C104.27816574 25.1241985 73.25816574 25.1241985 41.29816574 25.1241985 Z M208.29816574 25.1241985 C216.41384059 44.66903964 216.41384059 44.66903964 224.86066574 64.0616985 C225.63893722 65.81836842 225.63893722 65.81836842 226.43293136 67.61052662 C228.34175074 72.6971472 228.34175074 72.6971472 231.29816574 77.1241985 C234.25062928 77.21946655 237.17964995 77.24972302 240.13239425 77.23772389 C241.05912948 77.23786991 241.98586471 77.23801594 242.94068283 77.23816639 C246.01950261 77.23746688 249.09826271 77.22967271 252.17707199 77.22185475 C254.30556591 77.2199907 256.43406027 77.21856674 258.56255478 77.21756703 C264.17678894 77.21374077 269.79099742 77.20390958 275.4052214 77.19286305 C281.12929827 77.18265123 286.85337927 77.1780699 292.57746261 77.17302662 C303.8177083 77.1622874 315.05793489 77.1452097 326.29816574 77.1241985 C328.43823665 70.04120604 330.57404796 62.95693953 332.70685714 55.87175709 C333.43340731 53.46000063 334.1609438 51.04854107 334.88947433 48.63738209 C335.9345317 45.17802892 336.97607458 41.7176347 338.01691574 38.257011 C338.34502243 37.1736446 338.67312912 36.09027821 339.01117843 34.97408253 C339.31148971 33.97319599 339.61180099 32.97230946 339.92121261 31.94109303 C340.187686 31.05728962 340.45415939 30.17348622 340.72870773 29.26290089 C341.38393199 27.17095739 341.38393199 27.17095739 341.29816574 25.1241985 C297.40816574 25.1241985 253.51816574 25.1241985 208.29816574 25.1241985 Z " fill="#004EA2" transform="translate(71.70183426141739,1064.8758015036583)"/>
<path d="M0 0 C132.33 0 264.66 0 401 0 C398.7498843 11.2505785 398.7498843 11.2505785 397.06396484 16.87304688 C396.50230118 18.75811951 396.50230118 18.75811951 395.92929077 20.68127441 C395.52329289 22.02713578 395.1171717 23.37295995 394.7109375 24.71875 C394.28418781 26.1442176 393.85781466 27.56979798 393.43179321 28.9954834 C392.31119004 32.74148832 391.18500324 36.48579238 390.05773926 40.22979736 C389.16120718 43.21089076 388.26870469 46.19318247 387.37645531 49.17556 C386.28112471 52.83624249 385.18372116 56.49630251 384.0859375 60.15625 C383.88882549 60.81370712 383.69171349 61.47116425 383.48862839 62.14854431 C379.39598583 75.78767545 375.18792813 89.38923356 371 103 C238.67 103 106.34 103 -30 103 C-25.88965517 88.32019703 -21.77751687 73.64629 -17.5390625 59.00390625 C-17.05818104 57.34050021 -16.57733681 55.6770834 -16.0965271 54.01365662 C-15.10757689 50.59327963 -14.11779434 47.17314491 -13.12744141 43.75317383 C-11.85778554 39.36821044 -10.59096137 34.98243407 -9.3247776 30.59646702 C-8.34129866 27.19129686 -7.35606325 23.78663684 -6.37031174 20.38212395 C-5.90160809 18.762337 -5.43352622 17.14236999 -4.96608353 15.5222187 C-4.31988397 13.28323723 -3.67125101 11.04497504 -3.02197266 8.80688477 C-2.73528717 7.81060059 -2.73528717 7.81060059 -2.44281006 6.79418945 C-1.75628688 4.43494959 -1.10140849 2.20281698 0 0 Z M43 24 C40.56723824 30.43414414 40.56723824 30.43414414 38.46606445 36.93139648 C38.20602127 37.80847763 37.94597809 38.68555878 37.67805481 39.58921814 C37.40917953 40.50723709 37.14030426 41.42525604 36.86328125 42.37109375 C36.57897751 43.33402847 36.29467377 44.2969632 36.00175476 45.28907776 C35.40627594 47.30811368 34.81220555 49.32756549 34.21948242 51.34741211 C33.30786129 54.45330406 32.39158731 57.55779521 31.47460938 60.66210938 C30.89556254 62.62752441 30.31677701 64.59301645 29.73828125 66.55859375 C29.46333328 67.49078232 29.18838531 68.42297089 28.90510559 69.38340759 C28.65451889 70.23842361 28.40393219 71.09343964 28.14575195 71.97436523 C27.81290947 73.10732277 27.81290947 73.10732277 27.4733429 74.26316833 C26.95617627 75.8607724 26.95617627 75.8607724 27 77 C70.89 77 114.78 77 160 77 C159.28152481 73.40762403 158.70667883 70.99523958 157.28173828 67.77978516 C156.93112335 66.98190582 156.58050842 66.18402649 156.2192688 65.36196899 C155.65053543 64.08838028 155.65053543 64.08838028 155.0703125 62.7890625 C154.48381424 61.45952042 154.48381424 61.45952042 153.88546753 60.1031189 C152.63668547 57.27497012 151.38101216 54.44994418 150.125 51.625 C149.28729102 49.73197848 148.45004642 47.8387514 147.61328125 45.9453125 C146.43006287 43.2681033 145.24620213 40.59120251 144.05862427 37.91592407 C143.70170502 37.11174042 143.34478577 36.30755676 142.97705078 35.47900391 C142.66696075 34.78126862 142.35687073 34.08353333 142.03738403 33.36465454 C140.67173436 30.2517382 139.33905026 27.1244506 138 24 C106.65 24 75.3 24 43 24 Z M211 24 C212.95219304 29.85657911 214.91581728 35.37772314 217.43359375 40.96484375 C217.75280289 41.68305801 218.07201202 42.40127228 218.40089417 43.14125061 C219.40918062 45.40843665 220.42294754 47.67311195 221.4375 49.9375 C222.44766455 52.19866785 223.45656086 54.46038452 224.46339417 56.72303772 C225.08574201 58.12098349 225.71003165 59.51806736 226.33677673 60.91404724 C228.70839586 66.2311353 230.83235061 71.58087651 233 77 C264.68 77 296.36 77 329 77 C335.19423592 57.05214848 335.19423592 57.05214848 341 37 C341.29777344 35.94167969 341.59554687 34.88335938 341.90234375 33.79296875 C343.40332233 28.96641417 343.40332233 28.96641417 344 24 C300.11 24 256.22 24 211 24 Z " fill="#004EA2" transform="translate(34,1185)"/>
<path d="M0 0 C21.78 0 43.56 0 66 0 C70.95 9.9 70.95 9.9 76 20 C79.11974543 25.92398558 79.11974543 25.92398558 82.25024414 31.84228516 C86.23910059 39.37274918 90.02906623 47.00125244 93.80224609 54.64160156 C94.2761377 55.59776367 94.7500293 56.55392578 95.23828125 57.5390625 C95.69283691 58.46750977 96.14739258 59.39595703 96.61572266 60.35253906 C97.94556077 62.99855594 97.94556077 62.99855594 99.53662109 65.35839844 C103.07605488 70.81896554 103.07605488 70.81896554 102.852005 74.298172 C102.66663681 75.09285385 102.48126862 75.88753571 102.2902832 76.70629883 C102.08804642 77.58439209 101.88580963 78.46248535 101.67744446 79.3671875 C100.66246868 83.31177791 99.5632975 87.21747458 98.375 91.11328125 C97.98769966 92.40418167 97.98769966 92.40418167 97.59257507 93.72116089 C97.030015 95.59467509 96.46542373 97.46758034 95.89901733 99.3399353 C94.30461379 104.61176658 92.72611913 109.88837534 91.14453125 115.1640625 C90.80686234 116.28880478 90.46919342 117.41354706 90.12129211 118.57237244 C86.63339013 130.19831884 83.20400774 141.84130491 79.77722168 153.48538208 C71.98348642 179.96308505 64.12658458 206.42183739 56.25 232.875 C55.98119522 233.7777705 55.71239044 234.680541 55.43544006 235.61066818 C52.32296003 246.06339946 49.20935103 256.51579424 46.0950985 266.96799755 C43.82709444 274.58004069 41.55995155 282.19234016 39.29296875 289.8046875 C36.19610429 300.20336098 33.09850886 310.60181639 30 321 C33.67900954 321.18479776 37.35681381 321.29594192 41.0390625 321.39453125 C42.59185913 321.47386902 42.59185913 321.47386902 44.17602539 321.55480957 C49.49276687 321.66148237 53.06836445 321.56227223 57.24804688 318.0625 C59.48953586 315.79150883 61.58810512 313.44711058 63.3671875 310.79296875 C65.60680782 307.56234462 67.97986494 304.52145225 70.5 301.5 C71.20125 300.6234375 71.9025 299.746875 72.625 298.84375 C75.98761668 294.81745897 79.58708454 291.03027054 83.18334961 287.21337891 C87.37774918 282.73646783 91.28803746 278.11606786 95.09765625 273.3046875 C96.9509663 271.05940428 98.90789734 269.02221059 101 267 C109.22007547 270.5927561 115.63424659 278.55613576 121.8203125 284.86328125 C124.56302449 287.55192544 127.47610421 289.9897266 130.46875 292.39453125 C132.28665518 294.30054918 132.67397297 295.40364481 133 298 C131.23659331 300.28276619 129.52211149 302.22082333 127.5 304.25 C126.3781863 305.41727727 125.25708865 306.58524313 124.13671875 307.75390625 C123.31953369 308.59526123 123.31953369 308.59526123 122.48583984 309.45361328 C120.69895001 311.31331755 118.99505624 313.23317696 117.3125 315.1875 C112.51674872 320.72641854 107.58199803 326.14074043 102.671875 331.578125 C95.5171389 339.51160789 88.53971151 347.48669936 81.91796875 355.875 C81.28503906 356.57625 80.65210938 357.2775 80 358 C79.34 358 78.68 358 78 358 C78 358.66 78 359.32 78 360 C36.75 360 -4.5 360 -47 360 C-45.87503019 351.00024154 -45.87503019 351.00024154 -44.92211914 347.86669922 C-44.70475098 347.14036789 -44.48738281 346.41403656 -44.26342773 345.66569519 C-44.02309814 344.88656265 -43.78276855 344.10743011 -43.53515625 343.3046875 C-43.27476562 342.44148392 -43.014375 341.57828033 -42.74609375 340.68891907 C-41.85763375 337.74907021 -40.9599482 334.81211645 -40.0625 331.875 C-39.4107523 329.72455445 -38.75965403 327.57391199 -38.10913086 325.4230957 C-36.61515851 320.4872623 -35.11726721 315.55263224 -33.6171875 310.61865234 C-30.66046609 300.89114378 -27.72099811 291.15842997 -24.78125 281.42578125 C-23.67362992 277.75918208 -22.56595174 274.09260048 -21.45825195 270.42602539 C-21.17985379 269.5044826 -20.90145563 268.58293982 -20.61462116 267.63347149 C-17.49947572 257.3226032 -14.38058126 247.01286941 -11.26171875 236.703125 C-6.29448536 220.28275529 -1.33165283 203.86106717 3.625 187.4375 C3.93519073 186.40978485 4.24538147 185.3820697 4.56497192 184.32321167 C6.39417875 178.26271401 8.22314794 172.20214466 10.05200195 166.14154053 C11.05222351 162.82693817 12.05247049 159.51234349 13.05273438 156.19775391 C13.40110855 155.04331284 13.74948273 153.88887177 14.1084137 152.69944763 C14.81591391 150.35522061 15.5235448 148.01103302 16.23130798 145.66688538 C17.95248878 139.96596695 19.67193667 134.26454078 21.38696289 128.56176758 C24.2984821 118.88799852 27.22873947 109.22238654 30.26171875 99.5859375 C30.97502781 97.30226766 31.68739942 95.01830761 32.3994751 92.73425293 C33.03815951 90.70243337 33.69214042 88.6760109 34.34716797 86.64941406 C34.90428467 84.86229004 34.90428467 84.86229004 35.47265625 83.0390625 C35.79500244 82.03053223 36.11734863 81.02200195 36.44946289 79.98291016 C37.55409054 73.9978367 36.02313838 69.39544806 33.1484375 64.17578125 C32.551521 63.07806396 31.95460449 61.98034668 31.33959961 60.84936523 C30.6848532 59.67034344 30.02998356 58.49139007 29.375 57.3125 C28.70142556 56.08142802 28.02900014 54.84972674 27.35766602 53.61743164 C25.95619289 51.04689422 24.54976976 48.47915684 23.14013672 45.91308594 C20.01379686 40.21070175 16.95741181 34.47093072 13.89605713 28.73348999 C12.37981648 25.89260242 10.86023509 23.05351176 9.33984375 20.21484375 C8.78538574 19.1769873 8.23092773 18.13913086 7.65966797 17.06982422 C6.5348841 14.98935462 5.39267057 12.91823121 4.23486328 10.85595703 C3.68427246 9.87353027 3.13368164 8.89110352 2.56640625 7.87890625 C2.07213135 7.00951416 1.57785645 6.14012207 1.06860352 5.24438477 C0 3 0 3 0 0 Z " fill="#004EA2" transform="translate(481,982)"/>
<path d="M0 0 C1.24339422 0.00056958 1.24339422 0.00056958 2.51190752 0.00115067 C3.94134458 -0.00183591 3.94134458 -0.00183591 5.39965916 -0.00488281 C6.4589752 -0.00196997 7.51829124 0.00094287 8.60970777 0.00394398 C9.72537199 0.00308955 10.84103621 0.00223513 11.99050844 0.00135481 C15.76015146 -0.00030325 19.5297508 0.00522671 23.29938978 0.01067311 C25.98915928 0.01095493 28.67892604 0.01084145 31.3686952 0.0102306 C37.17564631 0.00970517 42.98258622 0.01285394 48.78953451 0.01846844 C57.18550069 0.02658088 65.58146143 0.0291984 73.97743111 0.03045643 C87.59793733 0.03264735 101.21843758 0.03930853 114.83894056 0.04875904 C128.07331526 0.05793212 141.30768833 0.06501346 154.54206556 0.06926686 C155.76484616 0.06966094 155.76484616 0.06966094 157.01232941 0.07006299 C161.10171021 0.07136798 165.19109103 0.0726317 169.28047186 0.07387489 C203.22875808 0.08424876 237.17703707 0.10186817 271.12531751 0.1241985 C270.06374485 7.79003588 270.06374485 7.79003588 268.92048353 11.55657154 C268.67769163 12.36559925 268.43489973 13.17462696 268.1847505 14.00817066 C267.91892668 14.87532704 267.65310285 15.74248341 267.37922376 16.63591725 C267.09627958 17.57389149 266.8133354 18.51186573 266.52181715 19.47826344 C265.58180275 22.59083684 264.63476863 25.70122918 263.68781751 28.8116985 C263.02630546 30.99781386 262.36534674 33.18409672 261.70490736 35.37053639 C260.65069876 38.85981111 259.5959402 42.34891357 258.53925794 45.83744007 C255.73041703 55.11057763 252.94115461 64.38945941 250.16047376 73.6710735 C249.95491676 74.35710463 249.74935976 75.04313576 249.53757375 75.74995571 C248.51219742 79.1721477 247.48701259 82.59439702 246.46195692 86.01668507 C244.52016723 92.49948345 242.57726115 98.98194559 240.63313001 105.46404225 C240.29213773 106.60238514 239.95114546 107.74072804 239.59982008 108.91356617 C239.2874188 109.9549474 238.97501753 110.99632862 238.65314955 112.06926686 C238.38084516 112.97768833 238.10854078 113.88610981 237.82798475 114.82205921 C237.28608633 116.59747377 236.71232269 118.36318297 236.12531751 120.1241985 C145.70531751 120.1241985 55.28531751 120.1241985 -37.87468249 120.1241985 C-35.62481889 108.87488053 -35.62481889 108.87488053 -34.34099108 104.68938404 C-34.05186846 103.73818684 -33.76274584 102.78698963 -33.46486193 101.80696827 C-33.15408709 100.80177143 -32.84331225 99.79657459 -32.52311999 98.76091725 C-32.19163958 97.67450947 -31.86015917 96.58810169 -31.5186339 95.46877247 C-30.43338635 91.91505097 -29.34158367 88.36338068 -28.24968249 84.8116985 C-26.91058224 80.4356636 -25.57357622 76.05898995 -24.23653704 71.68232495 C-23.64477924 69.74607999 -23.05235992 67.81003839 -22.45982653 65.87403065 C-19.68903594 56.81680373 -16.9492655 47.75058153 -14.22624499 38.678886 C-13.85720049 37.45049504 -13.488156 36.22210407 -13.10792834 34.95648915 C-11.67624798 30.1903294 -10.24479877 25.42410971 -8.81871325 20.65627247 C-7.84015751 17.38562223 -6.85780443 14.11613479 -5.87468249 10.84685475 C-5.58380755 9.87042011 -5.29293261 8.89398548 -4.99324328 7.88796192 C-4.59424319 6.56449253 -4.59424319 6.56449253 -4.18718249 5.21428639 C-3.9564403 4.44387516 -3.72569811 3.67346394 -3.48796374 2.87970692 C-2.67206161 0.54419925 -2.50386433 0.16588206 0 0 Z M50.12531751 42.1241985 C44.40150059 58.41838453 44.40150059 58.41838453 41.12531751 77.1241985 C88.31531751 77.1241985 135.50531751 77.1241985 184.12531751 77.1241985 C190.21010093 59.83642965 190.21010093 59.83642965 193.12531751 42.1241985 C145.93531751 42.1241985 98.74531751 42.1241985 50.12531751 42.1241985 Z " fill="#004EA2" transform="translate(597.8746824860573,1118.8758015036583)"/>
<path d="M0 0 C0.90487355 0.00037972 1.80974709 0.00075944 2.74204105 0.00115067 C3.78208398 -0.00084038 4.82212691 -0.00283143 5.89368629 -0.00488281 C7.05027605 -0.00196997 8.2068658 0.00094287 9.39850372 0.00394398 C10.61625675 0.00308955 11.83400978 0.00223513 13.08866441 0.00135481 C16.48409532 -0.00001341 19.87946929 0.00313421 23.27489334 0.00813287 C26.93066999 0.01243395 30.58644474 0.0109912 34.2422232 0.0102306 C40.58119703 0.00970515 46.9201606 0.01285418 53.25913185 0.01846844 C62.42432522 0.02658055 71.58951361 0.02919836 80.75471019 0.03045643 C95.62307367 0.03264741 110.49143167 0.03930872 125.35979217 0.04875904 C139.806732 0.05793198 154.25367034 0.06501339 168.70061249 0.06926686 C169.59047444 0.06952958 170.4803364 0.0697923 171.39716388 0.07006299 C175.86114647 0.07136798 180.32512907 0.0726317 184.78911167 0.07387489 C221.84775058 0.08424892 258.90638325 0.10186847 295.96501678 0.1241985 C295.36418733 5.1968864 294.62287148 9.85946512 293.17082733 14.77703053 C292.80341934 16.03258747 292.43601135 17.28814442 292.05746979 18.58174855 C291.65566951 19.93186911 291.25375516 21.28195573 290.85173553 22.632011 C290.43620574 24.04419061 290.02124335 25.45653728 289.60681671 26.86904103 C288.51725246 30.57731473 287.42038948 34.28338879 286.32182831 37.98900563 C285.21763502 41.71774735 284.11974647 45.44834293 283.02165741 49.178886 C281.77979788 53.39757462 280.53750179 57.61612151 279.28940338 61.83296925 C279.09683456 62.48426304 278.90426574 63.13555683 278.70586151 63.8065868 C278.19121966 65.54679337 277.6759487 67.28681385 277.1606192 69.0268169 C275.40257775 75.05170157 273.6892053 81.08953869 271.96501678 87.1241985 C295.06501678 87.1241985 318.16501678 87.1241985 341.96501678 87.1241985 C340.96501678 97.1241985 340.96501678 97.1241985 336.96501678 116.1241985 C288.12501678 116.1241985 239.28501678 116.1241985 188.96501678 116.1241985 C187.44903543 113.09223579 188.67542654 111.2772398 189.69988006 108.09246022 C189.89652755 107.47413319 190.09317505 106.85580616 190.29578155 106.21874195 C190.95197565 104.16148048 191.61864746 102.10777041 192.28532928 100.053886 C192.74626837 98.61555046 193.20653435 97.17699906 193.66615814 95.73824269 C194.88417191 91.93151347 196.11097925 88.12767468 197.33971161 84.32439381 C198.56870177 80.515754 199.79017828 76.70470871 201.01189178 72.89372975 C202.58355371 67.99177487 204.15689488 63.09038855 205.73819679 58.19153363 C208.52957345 49.51585239 211.24619175 40.8244386 213.96501678 32.1241985 C102.59001678 31.6291985 102.59001678 31.6291985 -11.03498322 31.1241985 C-8.78232147 19.86088973 -8.78232147 19.86088973 -7.56232697 15.80779225 C-7.30258087 14.94218678 -7.04283478 14.07658131 -6.77521759 13.18474537 C-6.51031525 12.3191399 -6.24541291 11.45353443 -5.97248322 10.5616985 C-5.70371369 9.66128834 -5.43494416 8.76087818 -5.15803009 7.83318287 C-2.83983767 0.17332014 -2.83983767 0.17332014 0 0 Z " fill="#004EA2" transform="translate(1194.0349832177162,1163.8758015036583)"/>
<path d="M0 0 C1.27685165 0.00222061 2.55370331 0.00444122 3.86924744 0.00672913 C4.57165054 0.0065831 5.27405365 0.00643707 5.9977417 0.00628662 C8.32985983 0.00698579 10.66189904 0.01477835 12.9940033 0.02259827 C14.60683142 0.02446243 16.21966012 0.02588634 17.83248901 0.02688599 C22.08550062 0.03071129 26.33847828 0.04054167 30.59147644 0.05158997 C34.92812135 0.06180383 39.26477171 0.06638355 43.60142517 0.07142639 C52.11641474 0.08216393 60.63137667 0.09924049 69.14634705 0.12025452 C68.54129043 5.09190201 67.52060163 9.65355377 66.06773376 14.46522522 C65.85732169 15.16712762 65.64690962 15.86903002 65.43012142 16.59220219 C64.73352897 18.91161277 64.02979707 21.22879167 63.32603455 23.54603577 C62.82930209 25.19503953 62.3330301 26.84418206 61.83718872 28.49345398 C60.51131749 32.89917685 59.17936183 37.30303772 57.84613419 41.70653915 C56.47202772 46.24845061 55.10316721 50.791942 53.73399353 55.33534241 C52.091968 60.78310471 50.44945238 66.23071666 48.80435181 71.67755127 C45.60216694 82.28073486 42.41579305 92.88842115 39.2518158 103.50306702 C38.89653809 104.6937529 38.54126038 105.88443878 38.17521667 107.11120605 C36.21657681 113.67532125 36.21657681 113.67532125 34.26322937 120.24101257 C33.40547848 123.12739279 32.54395338 126.01261938 31.6815033 128.89759827 C31.4347435 129.73215546 31.1879837 130.56671265 30.93374634 131.42655945 C29.26024391 137.00635765 29.26024391 137.00635765 28.14634705 138.12025452 C25.01074819 138.21560409 21.89721092 138.2457633 18.76133728 138.23377991 C17.2834523 138.23399895 17.2834523 138.23399895 15.77571106 138.23422241 C12.50209897 138.23352284 9.228543 138.22572837 5.9549408 138.21791077 C3.69192537 138.21604675 1.42890953 138.21462277 -0.83410645 138.21362305 C-6.80344244 138.20979662 -12.77275427 138.19996527 -18.74208069 138.18891907 C-24.82809624 138.17870763 -30.91411568 138.174126 -37.00013733 138.16908264 C-48.95131984 138.15834311 -60.90248439 138.14126519 -72.85365295 138.12025452 C-72.23823076 133.63360814 -71.48316178 129.36495046 -70.25990295 125.00306702 C-69.95181702 123.90220764 -69.64373108 122.80134827 -69.3263092 121.66712952 C-69.00533264 120.53791077 -68.68435608 119.40869202 -68.35365295 118.24525452 C-68.03267639 117.09283264 -67.71169983 115.94041077 -67.3809967 114.75306702 C-64.98492605 106.25152761 -64.98492605 106.25152761 -63.85365295 105.12025452 C-61.63677301 104.96151497 -59.41509997 104.86891614 -57.1934967 104.80384827 C-56.5290303 104.78306717 -55.8645639 104.76228607 -55.17996216 104.74087524 C-53.05046752 104.67531794 -50.92084627 104.61646666 -48.79115295 104.55775452 C-47.35038448 104.51457513 -45.90962896 104.47096103 -44.46888733 104.42689514 C-40.93061255 104.31963059 -37.39219426 104.21838081 -33.85365295 104.12025452 C-33.64004623 103.37556412 -33.42643951 102.63087372 -33.20635986 101.86361694 C-15.06789294 38.63871242 -15.06789294 38.63871242 -8.22865295 15.55775452 C-7.89092361 14.41217575 -7.89092361 14.41217575 -7.54637146 13.24345398 C-6.93097583 11.15834845 -6.31122782 9.07460009 -5.68959045 6.99134827 C-5.18758118 5.30416687 -5.18758118 5.30416687 -4.6754303 3.582901 C-3.52945942 0.14873338 -3.52945942 0.14873338 0 0 Z " fill="#004EA2" transform="translate(1093.8536529541016,1141.8797454833984)"/>
<path d="M0 0 C24.09 0 48.18 0 73 0 C71 11 71 11 69 18 C143.25 18 217.5 18 294 18 C293 26 293 26 286 49 C187.33 49 88.66 49 -13 49 C-11.875 41.125 -11.875 41.125 -10.78491211 37.34985352 C-10.54140015 36.49798462 -10.29788818 35.64611572 -10.04699707 34.76843262 C-9.79301147 33.89738892 -9.53902588 33.02634521 -9.27734375 32.12890625 C-8.92500671 30.90101379 -8.92500671 30.90101379 -8.56555176 29.64831543 C-7.69462192 26.61824339 -6.81559254 23.5905041 -5.9375 20.5625 C-3.978125 13.776875 -2.01875 6.99125 0 0 Z " fill="#004EA2" transform="translate(1225,1045)"/>
<path d="M0 0 C98.67 0 197.34 0 299 0 C298 8 298 8 291 31 C192.33 31 93.66 31 -8 31 C-5.90707337 20.53536685 -2.93178919 10.26126216 0 0 Z " fill="#004EA2" transform="translate(1205,1115)"/>
<path d="M0 0 C23.43 0 46.86 0 71 0 C69.875 9 69.875 9 68.78491211 13.13085938 C68.54140015 14.06381836 68.29788818 14.99677734 68.04699707 15.95800781 C67.66601868 17.3864502 67.66601868 17.3864502 67.27734375 18.84375 C67.04245239 19.7399707 66.80756104 20.63619141 66.56555176 21.55957031 C65.69513806 24.87452328 64.81580506 28.18712913 63.9375 31.5 C61.978125 38.925 60.01875 46.35 58 54 C34.24 54 10.48 54 -14 54 C-9.3836823 34.38064976 -9.3836823 34.38064976 -7.67578125 27.75390625 C-7.48404831 27.00584213 -7.29231537 26.25777802 -7.09477234 25.48704529 C-6.70003028 23.94906836 -6.30443924 22.41130905 -5.90795898 20.8737793 C-5.29957101 18.512316 -4.69558607 16.14975222 -4.09179688 13.78710938 C-3.70338432 12.27597499 -3.31472249 10.76490465 -2.92578125 9.25390625 C-2.74662674 8.55197647 -2.56747223 7.85004669 -2.38288879 7.12684631 C-1.11476387 2.22952774 -1.11476387 2.22952774 0 0 Z " fill="#004EA2" transform="translate(1114,1063)"/>
</svg>
