<?xml version="1.0" encoding="UTF-8"?>
<svg version="1.1" xmlns="http://www.w3.org/2000/svg" width="1937" height="2000">
<path d="M0 0 C1.0269397 -0.00807175 2.05387939 -0.01614349 3.11193848 -0.02445984 C5.29059176 -0.03827055 7.46926641 -0.04900613 9.64794922 -0.05688477 C11.83323703 -0.06829158 14.01849957 -0.08855873 16.20361328 -0.1184082 C35.39650537 -0.37998333 53.67488314 1.5555162 72.03125 7.42578125 C73.44229004 7.86796997 73.44229004 7.86796997 74.88183594 8.3190918 C85.04606122 11.60146666 94.81643275 15.67860928 104.46875 20.23828125 C105.25137207 20.60759766 106.03399414 20.97691406 106.84033203 21.35742188 C131.56034205 33.24134166 153.32041707 49.9348821 173.88671875 67.88574219 C175.52125224 69.28316742 177.19616433 70.62118546 178.875 71.96484375 C179.7309375 72.71507813 180.586875 73.4653125 181.46875 74.23828125 C181.46875 74.89828125 181.46875 75.55828125 181.46875 76.23828125 C182.05809326 76.50237793 182.64743652 76.76647461 183.25463867 77.03857422 C185.55322149 78.28405177 187.05814517 79.58380339 188.89453125 81.43359375 C189.52254639 82.06273682 190.15056152 82.69187988 190.79760742 83.34008789 C191.45220947 84.0077417 192.10681152 84.67539551 192.78125 85.36328125 C193.45841064 86.0483374 194.13557129 86.73339355 194.83325195 87.43920898 C199.22001746 91.90132476 203.44768447 96.44291863 207.46875 101.23828125 C208.36441313 102.27211069 209.26171045 103.30452541 210.16015625 104.3359375 C216.73322763 111.90175531 223.0467501 119.62873304 229.17041016 127.56201172 C230.40025897 129.14985338 231.6431221 130.72758997 232.88671875 132.3046875 C252.25519962 157.04452522 269.27971989 183.80250576 284.70703125 211.15234375 C286.2430861 213.84299416 287.83721608 216.48008173 289.46875 219.11328125 C292.39394703 223.94380932 294.88233134 228.95618131 297.3737793 234.01879883 C299.58410262 238.5024488 301.8905705 242.91053546 304.28125 247.30078125 C311.8941787 261.38536731 318.59894266 275.9726671 324.921875 290.67578125 C326.86858498 295.15911332 328.91781814 299.58702432 331.03515625 303.9921875 C332.46875 307.23828125 332.46875 307.23828125 333.68359375 311.015625 C334.31974609 312.88927734 334.31974609 312.88927734 334.96875 314.80078125 C335.47921875 316.50427734 335.47921875 316.50427734 336 318.2421875 C339.81825049 322.87604529 344.63127091 323.44623187 350.34674072 324.75076294 C352.52581656 325.25139193 354.69304404 325.78837799 356.86083984 326.33569336 C360.01938337 327.13121395 363.18044419 327.91487042 366.34472656 328.68725586 C384.86088563 333.21097203 403.19260725 338.11962001 421.44268799 343.62890625 C423.57487253 344.27019953 425.70881749 344.90533254 427.84326172 345.5390625 C446.96383251 351.21883798 465.83852999 357.28431638 484.56152344 364.17626953 C488.61936571 365.6586019 492.69978265 367.0726969 496.78125 368.48828125 C502.55641613 370.50783934 508.24683716 372.69551867 513.91113281 375.00463867 C518.08576677 376.7033768 522.29236889 378.27058171 526.53125 379.80078125 C563.82785905 393.51967381 600.8501876 411.13052918 635.50390625 430.51953125 C639.07989689 432.51083473 642.70288136 434.36413117 646.375 436.171875 C652.36770193 439.14217489 658.14521814 442.40632634 663.90625 445.80078125 C664.94483154 446.41083008 665.98341309 447.02087891 667.0534668 447.64941406 C703.46710719 469.12305799 738.43716858 492.84298073 771.46875 519.23828125 C772.12939453 519.76599121 772.79003906 520.29370117 773.47070312 520.83740234 C780.92113406 526.80370463 788.28233121 532.8160999 795.3203125 539.26953125 C797.30130268 541.08483862 799.31201567 542.85520909 801.34375 544.61328125 C805.28099922 548.04147199 809.12365844 551.5702904 812.96069336 555.10961914 C816.06879762 557.97223 819.21805069 560.77704785 822.40625 563.55078125 C825.82005324 566.56476969 828.62753529 569.68676287 831.46875 573.23828125 C833.12096243 574.91927787 834.79023825 576.58354445 836.46875 578.23828125 C843.36910091 585.0549442 850.19030124 591.83685791 856.46875 599.23828125 C857.44115976 600.34901388 858.41529131 601.45824023 859.390625 602.56640625 C866.2422815 610.36936881 872.83213021 618.31779929 879.16455078 626.54736328 C880.4547443 628.22012261 881.75529305 629.88431534 883.05859375 631.546875 C888.06055362 637.95156672 892.80700953 644.48214854 897.38671875 651.1953125 C899.21186535 653.86283445 901.08206583 656.48927223 902.96875 659.11328125 C907.00950914 664.87112973 910.53751501 670.92193952 914.10742188 676.97705078 C915.14300549 678.69720419 916.20038817 680.40425511 917.26757812 682.10498047 C921.92733724 689.54180205 926.15990974 697.08411448 930.15136719 704.89501953 C931.0948741 706.74047994 932.04680304 708.58140403 933 710.421875 C939.25246551 722.54262082 944.87689853 734.8463738 949.84375 747.55078125 C950.31635254 748.75919678 950.78895508 749.9676123 951.27587891 751.21264648 C969.55234975 798.44387139 978.93338552 847.05411155 978.78125 897.67578125 C978.77909485 898.96263824 978.7769397 900.24949524 978.77471924 901.5753479 C978.72523809 919.9633132 978.52175905 938.06444216 975.46875 956.23828125 C975.26475586 957.46788574 975.06076172 958.69749023 974.85058594 959.96435547 C968.23356271 998.68887059 957.0551833 1035.64421972 940.46875 1071.23828125 C939.65318738 1073.01932139 938.83806805 1074.8005646 938.0234375 1076.58203125 C934.38638601 1084.46496981 930.57540104 1092.11767827 926.078125 1099.5546875 C924.47789435 1102.22303327 922.99610343 1104.93114996 921.53125 1107.67578125 C916.36750424 1117.20885034 910.5115132 1126.31092321 904.44921875 1135.29296875 C903.16436841 1137.20377181 901.89509348 1139.12517635 900.64453125 1141.05859375 C895.20821136 1149.42391619 889.20286381 1157.29552009 883.07958984 1165.16601562 C881.59492373 1167.075965 880.11870502 1168.99210577 878.64453125 1170.91015625 C869.0447789 1183.33848477 858.66350167 1195.06252397 847.98999023 1206.57348633 C846.82553742 1207.84782491 845.67371147 1209.13371202 844.52758789 1210.42456055 C839.14623121 1216.47851201 833.57002548 1222.29306889 827.82983398 1228.00756836 C826.40035283 1229.43165617 824.97634489 1230.86106169 823.55273438 1232.29101562 C818.90517903 1236.93210256 814.21444831 1241.45006007 809.22729492 1245.72485352 C806.63825882 1247.95301328 804.15572559 1250.2850984 801.65625 1252.61328125 C797.01317811 1256.90258828 792.23433383 1260.96506744 787.30859375 1264.9296875 C784.75033922 1267.00936897 782.23691397 1269.12923001 779.73291016 1271.27319336 C773.38101939 1276.70834565 766.88053115 1281.89358322 760.20507812 1286.92724609 C758.39774644 1288.29189333 756.59723186 1289.66522997 754.796875 1291.0390625 C731.91579135 1308.42752238 707.99947842 1324.28822359 683.46875 1339.23828125 C682.79247559 1339.65174805 682.11620117 1340.06521484 681.41943359 1340.49121094 C666.88519397 1349.36379125 652.05245989 1357.74125471 637.15625 1365.98828125 C636.41802002 1366.39933105 635.67979004 1366.81038086 634.91918945 1367.23388672 C627.22142401 1371.46970299 619.34210826 1375.34259414 611.46875 1379.23828125 C610.81905243 1379.56048645 610.16935486 1379.88269165 609.49996948 1380.21466064 C589.40775681 1390.17488103 569.15317084 1399.57337894 548.46875 1408.23828125 C547.35935059 1408.70540527 546.24995117 1409.1725293 545.10693359 1409.65380859 C462.61430626 1444.26807331 376.24603802 1468.79320491 165.52789307 1503.0279541 C163.54085429 1503.2309163 161.55435004 1503.43909076 159.56787109 1503.64746094 C140.89663557 1505.58764064 122.20834467 1506.80475178 103.46875 1507.86328125 C101.81022507 1507.95707565 101.81022507 1507.95707565 100.11819458 1508.05276489 C92.56967362 1508.47526433 85.01988755 1508.86570429 77.46875 1509.23828125 C76.48392639 1509.28847412 75.49910278 1509.33866699 74.48443604 1509.39038086 C55.10914922 1510.35960885 35.73845902 1510.48037528 16.34375 1510.48828125 C15.51257282 1510.48901768 14.68139565 1510.4897541 13.82503128 1510.49051285 C-30.7577024 1510.52251931 -75.29664492 1508.89494384 -119.68994141 1504.60888672 C-123.59801808 1504.23183953 -127.50761531 1503.87602224 -131.41796875 1503.5234375 C-220.35263742 1495.37996859 -308.96345584 1478.95325948 -394.53125 1453.23828125 C-395.93018746 1452.8228958 -397.32928445 1452.40804734 -398.72851562 1451.99365234 C-417.91086322 1446.30655644 -436.84392297 1440.21326727 -455.62402344 1433.30029297 C-459.68186571 1431.8179606 -463.76228265 1430.4038656 -467.84375 1428.98828125 C-473.61739436 1426.96925531 -479.3060262 1424.78157408 -484.96923828 1422.47412109 C-489.18785837 1420.75820317 -493.43821648 1419.1673603 -497.71875 1417.61328125 C-563.18957167 1393.41114605 -628.23648837 1359.86494334 -685.73779297 1320.46679688 C-687.64512813 1319.16027488 -689.55870309 1317.86321097 -691.47265625 1316.56640625 C-699.99237867 1310.77352948 -708.36308357 1304.80047573 -716.62939453 1298.65185547 C-718.5711732 1297.20860791 -720.5179302 1295.77224814 -722.46484375 1294.3359375 C-731.42527471 1287.69858123 -740.13380189 1280.79494616 -748.74169922 1273.70751953 C-750.36436259 1272.3752974 -751.99613098 1271.05418452 -753.62890625 1269.734375 C-758.96210839 1265.42130717 -764.12690251 1260.97247472 -769.19921875 1256.35546875 C-771.28948889 1254.45776956 -773.40111115 1252.5909471 -775.53125 1250.73828125 C-776.86495259 1249.57203672 -778.19823656 1248.40531341 -779.53125 1247.23828125 C-780.19423096 1246.66215088 -780.85721191 1246.08602051 -781.5402832 1245.49243164 C-789.18521264 1238.74001067 -796.37361802 1231.54774298 -803.57299805 1224.3269043 C-805.72136866 1222.17315603 -807.87505694 1220.02482899 -810.02929688 1217.87695312 C-811.41959168 1216.48599771 -812.80957636 1215.09473222 -814.19921875 1213.703125 C-814.83168015 1213.07268784 -815.46414154 1212.44225067 -816.11576843 1211.79270935 C-820.45067174 1207.43532662 -824.52786469 1202.90068911 -828.53125 1198.23828125 C-829.49294028 1197.1323346 -830.4550844 1196.02678219 -831.41796875 1194.921875 C-843.04503243 1181.4785951 -854.02380471 1167.57257608 -864.53125 1153.23828125 C-865.01029785 1152.58698242 -865.4893457 1151.93568359 -865.98291016 1151.26464844 C-884.67087835 1125.72758734 -900.10157757 1098.2909687 -913.40209961 1069.61572266 C-914.60101482 1067.09139048 -915.86028819 1064.60324261 -917.12890625 1062.11328125 C-919.19307239 1058.00966476 -920.90082539 1053.93075482 -922.46875 1049.61328125 C-922.9774135 1048.2185854 -923.486541 1046.82405871 -923.99609375 1045.4296875 C-924.24987793 1044.73117676 -924.50366211 1044.03266602 -924.76513672 1043.31298828 C-925.49790265 1041.32858903 -926.25957496 1039.35863094 -927.03515625 1037.390625 C-937.91254501 1009.63979343 -944.65988488 979.7305558 -948.53125 950.23828125 C-948.68078125 949.15192383 -948.8303125 948.06556641 -948.984375 946.94628906 C-958.57630467 875.23421144 -946.00897963 802.39264316 -917.53125 736.23828125 C-917.03093262 735.05830566 -917.03093262 735.05830566 -916.52050781 733.85449219 C-911.77632659 722.68088328 -906.39439891 711.92995101 -900.61962891 701.25488281 C-899.71880909 699.58579989 -898.83213148 697.90909296 -897.94921875 696.23046875 C-881.14126301 664.55207378 -859.54074719 635.04970557 -836.06933594 608.01904297 C-834.48588389 606.18575738 -832.91698654 604.34088331 -831.3515625 602.4921875 C-822.20175604 591.69989025 -822.20175604 591.69989025 -817.21435547 586.92211914 C-815.49873661 585.20575371 -813.92744454 583.41928053 -812.3515625 581.57421875 C-808.47776674 577.11973667 -804.38993148 572.91332851 -800.21875 568.73828125 C-799.14657227 567.64773438 -799.14657227 567.64773438 -798.05273438 566.53515625 C-797.36888672 565.849375 -796.68503906 565.16359375 -795.98046875 564.45703125 C-795.36518311 563.83763672 -794.74989746 563.21824219 -794.1159668 562.58007812 C-792.53125 561.23828125 -792.53125 561.23828125 -790.53125 561.23828125 C-790.20125 560.24828125 -789.87125 559.25828125 -789.53125 558.23828125 C-788.10546875 556.80078125 -788.10546875 556.80078125 -786.21875 555.23828125 C-783.15956183 552.64889698 -780.17351669 550.00492897 -777.23803711 547.27563477 C-772.11758716 542.51558287 -766.87683191 537.98814468 -761.42578125 533.60546875 C-758.76806274 531.43194996 -756.1752488 529.20361349 -753.58911133 526.9465332 C-746.13345002 520.45033593 -738.35843144 514.50328324 -730.40380859 508.63476562 C-727.66048157 506.58889463 -724.97495774 504.4740996 -722.28125 502.36328125 C-709.81090943 492.73487384 -696.72259443 483.84647909 -683.53125 475.23828125 C-682.89123047 474.81981934 -682.25121094 474.40135742 -681.59179688 473.97021484 C-665.54073171 463.48644452 -649.19109986 453.62350797 -632.6015625 444.01660156 C-630.61616937 442.86666489 -628.63172759 441.71508343 -626.6484375 440.56152344 C-616.20099457 434.48802757 -605.7179743 428.66269529 -594.84960938 423.37988281 C-592.19462827 422.0725227 -589.55820093 420.7312978 -586.921875 419.38671875 C-570.53582357 411.05474056 -553.90760995 403.36342756 -537.13330078 395.85351562 C-534.08322874 394.48579998 -531.03818606 393.10799247 -527.99609375 391.72265625 C-520.5125419 388.32929538 -512.99700776 385.19692654 -505.27612305 382.38232422 C-501.03908528 380.83248397 -496.90892177 379.12833686 -492.78125 377.30078125 C-485.64768455 374.19643371 -478.36325256 371.66122371 -471.0078125 369.13671875 C-467.32059469 367.86878219 -463.65164702 366.56077839 -459.9921875 365.21484375 C-418.65806934 350.01693894 -376.35930841 337.47159468 -333.53125 327.23828125 C-331.43084388 326.72846452 -329.33058144 326.2180554 -327.23046875 325.70703125 C-325.28924148 325.23754061 -323.34784467 324.7687502 -321.40625 324.30078125 C-320.08886841 323.98282593 -320.08886841 323.98282593 -318.74487305 323.65844727 C-312.76927472 322.23828125 -312.76927472 322.23828125 -310.53125 322.23828125 C-310.35796677 321.68870255 -310.18468353 321.13912384 -310.00614929 320.57289124 C-308.23586163 315.09479942 -306.16640722 309.85485907 -303.80078125 304.609375 C-303.44666672 303.8166066 -303.09255219 303.0238382 -302.72770691 302.20704651 C-301.9809474 300.53806099 -301.2320828 298.87001589 -300.48120117 297.20288086 C-299.35860183 294.70877787 -298.24422741 292.21112575 -297.13085938 289.71289062 C-292.79959019 280.03417286 -288.25994996 270.49148855 -283.44602966 261.04382324 C-282.13491505 258.45601704 -280.84904611 255.85589938 -279.56253052 253.25579834 C-268.56354469 231.03028067 -256.78390204 209.20868573 -243.53125 188.23828125 C-242.77739014 187.03800293 -242.77739014 187.03800293 -242.00830078 185.81347656 C-232.40858409 170.53704429 -222.63592529 155.45758868 -211.703125 141.09375 C-210.2401058 139.17024814 -208.79241261 137.23500386 -207.359375 135.2890625 C-202.54886619 128.76417023 -197.48850152 122.53939558 -192.21484375 116.390625 C-189.78332806 113.5516988 -187.4335215 110.65347576 -185.09375 107.73828125 C-176.90607414 97.72312765 -167.9031033 88.5222368 -158.78125 79.36328125 C-157.59329834 78.16832031 -157.59329834 78.16832031 -156.38134766 76.94921875 C-151.59331206 72.17420229 -146.69268913 67.60676553 -141.53125 63.23828125 C-140.92071777 62.72104492 -140.31018555 62.20380859 -139.68115234 61.67089844 C-103.69349506 31.48151883 -63.00740004 9.48065349 -16.53125 1.23828125 C-15.66773926 1.06176025 -14.80422852 0.88523926 -13.91455078 0.70336914 C-9.27153612 0.06511377 -4.68203107 0.03558829 0 0 Z M-69.53125 206.23828125 C-70.68882812 206.85316406 -71.84640625 207.46804687 -73.0390625 208.1015625 C-90.03927488 217.45361555 -105.29704652 229.36643932 -119.53515625 242.48828125 C-121.53125 244.23828125 -121.53125 244.23828125 -123.53125 245.23828125 C-123.53125 245.89828125 -123.53125 246.55828125 -123.53125 247.23828125 C-124.07136719 247.45226562 -124.61148438 247.66625 -125.16796875 247.88671875 C-128.38167563 249.72464037 -130.78043615 252.23496605 -133.34375 254.86328125 C-133.87782471 255.40452637 -134.41189941 255.94577148 -134.9621582 256.50341797 C-138.37841172 259.9896873 -141.67702824 263.55036506 -144.83984375 267.26953125 C-146.76992842 269.51609632 -148.77543139 271.68412029 -150.78125 273.86328125 C-165.56481979 290.29223992 -178.59065042 308.66705124 -190.53125 327.23828125 C-191.00272461 327.97014648 -191.47419922 328.70201172 -191.95996094 329.45605469 C-205.96578681 351.26213232 -219.09392927 373.64615321 -230.42529297 396.96875 C-231.64930157 399.48053454 -232.8897571 401.98393341 -234.12890625 404.48828125 C-273.78311508 485.25527587 -301.26658972 572.31416875 -368.71875 981.23828125 C-368.79765472 982.35242401 -368.87655945 983.46656677 -368.95785522 984.61447144 C-372.18766311 1030.76063511 -372.8299388 1076.94028621 -372.6685791 1123.18292236 C-372.6496496 1129.21740436 -372.64081321 1135.25189403 -372.63189721 1141.2863977 C-372.61147022 1154.93706996 -372.57674101 1168.58767093 -372.53125 1182.23828125 C-369.38016325 1178.4011434 -366.92398273 1174.51716985 -364.65625 1170.11328125 C-363.94952544 1168.76676607 -363.2424923 1167.42041281 -362.53515625 1166.07421875 C-362.19242676 1165.41776367 -361.84969727 1164.76130859 -361.49658203 1164.08496094 C-350.20431542 1142.48286063 -336.97120454 1121.8649311 -322.53125 1102.23828125 C-321.81839844 1101.26117187 -321.10554687 1100.2840625 -320.37109375 1099.27734375 C-314.50356333 1091.3332826 -308.28278361 1083.69353257 -302.01806641 1076.06152344 C-300.75216709 1074.50918582 -299.50491496 1072.94167209 -298.26171875 1071.37109375 C-288.13386925 1058.62898099 -276.50394166 1047.13066756 -265.03125 1035.61328125 C-263.79507935 1034.37010132 -263.79507935 1034.37010132 -262.53393555 1033.10180664 C-258.2374641 1028.81665659 -253.86582937 1024.68742296 -249.26464844 1020.73095703 C-247.09889813 1018.86597148 -245.00565706 1016.92736995 -242.90625 1014.98828125 C-231.20808796 1004.46349109 -218.38392158 995.28632809 -205.53125 986.23828125 C-204.9120166 985.80161133 -204.2927832 985.36494141 -203.65478516 984.91503906 C-181.88262198 969.68358399 -158.25993455 956.86781804 -133.91699219 946.28027344 C-131.8042779 945.35752839 -129.70244685 944.41408413 -127.6015625 943.46484375 C-98.14606709 930.45438555 -65.31740578 922.54534843 -33.53125 918.23828125 C-32.665 918.1196875 -31.79875 918.00109375 -30.90625 917.87890625 C8.82164911 912.79179722 50.3575245 915.37468176 89.46875 923.23828125 C90.27860352 923.40054199 91.08845703 923.56280273 91.92285156 923.72998047 C122.16782357 929.95365024 150.66577951 941.05742447 178.46875 954.23828125 C179.18804688 954.57263184 179.90734375 954.90698242 180.6484375 955.25146484 C207.1110622 967.55950791 231.64882368 984.16057114 254.46875 1002.23828125 C255.71591797 1003.2128125 255.71591797 1003.2128125 256.98828125 1004.20703125 C266.31735934 1011.56178102 275.67080239 1019.13068743 283.92578125 1027.69140625 C285.55752918 1029.32728518 287.26826462 1030.80760285 289.03125 1032.30078125 C297.47640299 1039.59132348 305.49701511 1047.67509456 312.703125 1056.19140625 C314.57260708 1058.35868194 316.50925187 1060.45678577 318.45776367 1062.55297852 C323.7436491 1068.24690971 328.72325016 1074.08082812 333.46875 1080.23828125 C333.94570312 1080.8533252 334.42265625 1081.46836914 334.9140625 1082.10205078 C341.88714578 1091.09964685 348.72624676 1100.17446033 355.25048828 1109.50341797 C356.4675915 1111.2366315 357.6998637 1112.95828262 358.93359375 1114.6796875 C372.57379564 1133.91367123 385.58198353 1154.80395804 395.90625 1175.98828125 C396.25623047 1176.69726562 396.60621094 1177.40625 396.96679688 1178.13671875 C397.8046329 1179.83534521 398.63730456 1181.5365176 399.46875 1183.23828125 C399.79875 1183.23828125 400.12875 1183.23828125 400.46875 1183.23828125 C400.78814299 1098.21891005 399.78246523 1013.72963727 392.28125 928.98828125 C392.15450897 927.5523613 392.15450897 927.5523613 392.02520752 926.08743286 C391.78921045 923.44446784 391.54684619 920.80220107 391.30078125 918.16015625 C391.2311467 917.39156784 391.16151215 916.62297943 391.08976746 915.83110046 C390.79837248 912.79799626 390.436303 910.14094025 389.46875 907.23828125 C389.29033663 905.07822463 389.15532415 902.91449814 389.04296875 900.75 C388.49512287 891.47183216 387.40220322 882.27448079 386.28125 873.05078125 C386.17303925 872.15243561 386.06482849 871.25408997 385.95333862 870.32852173 C380.79267657 827.55396956 374.35115724 785.08621254 366.78125 742.67578125 C366.58888763 741.59270691 366.39652527 740.50963257 366.19833374 739.39373779 C363.5513913 724.38867696 363.5513913 724.38867696 360.07446289 709.55981445 C359.21507963 706.26603153 358.61930494 702.96629014 358.03125 699.61328125 C356.4243205 690.76244925 354.47925859 682.00514072 352.46875 673.23828125 C352.22640625 672.17335449 351.9840625 671.10842773 351.734375 670.01123047 C345.94060959 644.59605486 339.65947349 619.29768227 332.46875 594.23828125 C332.22866211 593.39475098 331.98857422 592.5512207 331.74121094 591.68212891 C324.63305094 566.75019099 316.98719051 541.98177096 308.28173828 517.55908203 C307.53156434 515.41759449 306.82117032 513.26764741 306.12109375 511.109375 C301.98908613 498.63243993 297.03068755 486.40322988 292.21875 474.17578125 C291.8012146 473.11434402 291.8012146 473.11434402 291.37524414 472.03146362 C287.70891743 462.72853791 283.95488223 453.47241973 279.96875 444.30078125 C279.58428711 443.41575928 279.19982422 442.5307373 278.80371094 441.61889648 C276.95718197 437.42866506 275.01863969 433.31337706 272.9375 429.234375 C271.3359731 426.07595241 269.91567701 422.93245983 268.65234375 419.625 C265.76278363 412.21265011 262.09940112 405.15314394 258.53125 398.05078125 C258.15636444 397.30216827 257.78147888 396.5535553 257.39523315 395.78225708 C251.34199907 383.71259402 245.02854021 371.83556539 238.19628906 360.18481445 C236.87148425 357.92519472 235.55746623 355.66042255 234.24902344 353.39135742 C228.37340318 343.24565015 222.13089785 333.4065341 215.59375 323.67578125 C215.11352386 322.95837769 214.63329773 322.24097412 214.13851929 321.50183105 C204.67635586 307.37626681 194.88207543 293.77125199 183.74609375 280.91015625 C181.46875 278.23828125 181.46875 278.23828125 179.78515625 275.87890625 C179.35074219 275.3375 178.91632812 274.79609375 178.46875 274.23828125 C177.80875 274.23828125 177.14875 274.23828125 176.46875 274.23828125 C176.23542969 273.51253906 176.00210938 272.78679687 175.76171875 272.0390625 C174.23872806 268.74001619 172.4130178 266.92051979 169.78125 264.42578125 C166.60929494 261.35879736 163.56974812 258.29340319 160.71875 254.92578125 C157.87306231 251.60917597 154.97802236 248.84983277 151.46875 246.23828125 C150.80875 246.23828125 150.14875 246.23828125 149.46875 246.23828125 C149.2625 245.69042969 149.05625 245.14257812 148.84375 244.578125 C146.94448026 241.34612904 144.3050014 239.18299656 141.46875 236.80078125 C140.85717041 236.28290039 140.24559082 235.76501953 139.61547852 235.23144531 C128.03260012 225.57639522 115.61187866 216.6406161 102.46875 209.23828125 C101.71787109 208.81305176 100.96699219 208.38782227 100.19335938 207.94970703 C82.73140525 198.16758881 64.97035709 191.59642821 45.46875 187.23828125 C44.59476563 187.02429688 43.72078125 186.8103125 42.8203125 186.58984375 C35.14175763 184.82964346 27.31265201 184.55828123 19.46875 184.23828125 C18.49292969 184.19574219 17.51710938 184.15320313 16.51171875 184.109375 C-13.90189933 183.45672225 -42.93548087 191.90292335 -69.53125 206.23828125 Z M381.46875 441.23828125 C382.52691842 445.07282309 383.59114332 448.90566137 384.65625 452.73828125 C384.94822266 453.79660156 385.24019531 454.85492188 385.54101562 455.9453125 C387.23365239 462.02424454 389.01964555 468.06228439 390.921875 474.078125 C393.45682364 482.10806972 395.7843915 490.18593929 398.03125 498.30078125 C398.23818481 499.04641327 398.44511963 499.79204529 398.6583252 500.56027222 C406.70018154 529.60414232 414.4191831 558.8143775 420.63476562 588.30859375 C421.45601102 592.19639899 422.30186349 596.07872285 423.14755249 599.96127319 C431.26744995 637.26517181 438.43781566 674.67890927 444.38142395 712.39117432 C445.25381236 717.91693595 446.15428334 723.437699 447.06640625 728.95703125 C449.64633241 744.59064437 452.11873095 760.20653376 454.05175781 775.93554688 C454.55214782 779.89882325 455.08325128 783.85753269 455.6171875 787.81640625 C459.81585274 819.01318353 463.37256022 850.24065367 466.06689453 881.60498047 C466.34419963 884.82346305 466.63000116 888.04106275 466.92138672 891.25830078 C470.14678548 926.89669011 472.30732181 962.58390865 474.25364685 998.31124878 C474.40625299 1001.09730411 474.56326759 1003.8829077 474.72401428 1006.66848755 C475.39175161 1018.46506273 475.75379755 1030.25425504 476.00390625 1042.06640625 C476.04718601 1044.03090704 476.0906006 1045.99540485 476.13414001 1047.9598999 C476.22430705 1052.06095426 476.31225505 1056.16204878 476.39868164 1060.26318359 C476.48559007 1064.3775205 476.57572437 1068.49176388 476.66918945 1072.60595703 C477.59305064 1113.30021888 477.64185541 1153.91713155 476.78084564 1194.61281967 C476.73906866 1196.58943436 476.69784411 1198.56606078 476.65714264 1200.54269791 C475.85048974 1239.68914944 474.07490018 1278.73933381 471.60714722 1317.81425476 C471.52304796 1319.28725284 471.46875 1320.76288435 471.46875 1322.23828125 C479.55679405 1319.8214655 486.97741242 1316.26155499 494.53125 1312.55078125 C495.84259784 1311.91117957 497.1541227 1311.2719407 498.46582031 1310.63305664 C502.13724809 1308.84244882 505.80340066 1307.04129753 509.46875 1305.23828125 C510.7069751 1304.63161621 510.7069751 1304.63161621 511.97021484 1304.01269531 C516.49097729 1301.79544504 520.98571123 1299.5307555 525.46875 1297.23828125 C526.39606934 1296.76567871 527.32338867 1296.29307617 528.27880859 1295.80615234 C540.78637051 1289.41776526 553.17857802 1282.93063131 565.1796875 1275.62939453 C567.81194703 1274.02971292 570.45291141 1272.44485165 573.09375 1270.859375 C584.07172177 1264.24777484 594.91712287 1257.51145173 605.46875 1250.23828125 C606.20593262 1249.73393555 606.94311523 1249.22958984 607.70263672 1248.70996094 C629.97508169 1233.44862106 651.04989556 1216.88137606 671.46875 1199.23828125 C672.20996094 1198.60019531 672.95117188 1197.96210937 673.71484375 1197.3046875 C683.72623653 1188.62537193 693.32300506 1179.55142896 702.6706543 1170.16674805 C704.29427229 1168.53771553 705.92324603 1166.91417397 707.55273438 1165.29101562 C713.06763301 1159.77998886 718.44201167 1154.20379351 723.46875 1148.23828125 C724.36940983 1147.19368107 725.27043248 1146.14939358 726.171875 1145.10546875 C745.24034274 1122.70294377 762.16632171 1099.0688308 777.03564453 1073.68017578 C777.9390246 1072.14089001 778.8480862 1070.60491124 779.76513672 1069.07373047 C809.67791249 1019.06089831 825.43025477 959.07663887 825.04334259 901.07704544 C825.03104591 899.01658375 825.02644141 896.95621611 825.02337646 894.89572144 C824.9703371 871.43153885 823.32648144 849.03657202 817.46875 826.23828125 C817.10496432 824.65856132 816.74588097 823.07775373 816.390625 821.49609375 C813.7395751 809.80556595 810.54831677 798.50814381 806.46875 787.23828125 C806.18161133 786.43487305 805.89447266 785.63146484 805.59863281 784.80371094 C796.74889798 760.20623174 785.68454817 736.2347011 771.66601562 714.1328125 C770.49201753 712.27509936 769.34983438 710.40127836 768.21484375 708.51953125 C762.88272972 699.7533106 757.09379872 691.50423446 750.83984375 683.37109375 C748.46875 680.23828125 748.46875 680.23828125 747.46875 678.23828125 C746.80875 678.23828125 746.14875 678.23828125 745.46875 678.23828125 C745.20835937 677.50480469 744.94796875 676.77132812 744.6796875 676.015625 C743.43698136 673.16541834 742.06234595 671.19715226 740.09375 668.80078125 C739.38347656 667.93582031 738.67320312 667.07085938 737.94140625 666.1796875 C730.27254873 657.05701813 722.49945214 648.0457007 714.46875 639.23828125 C713.62957031 638.30628906 712.79039062 637.37429688 711.92578125 636.4140625 C706.87207462 630.82072904 701.70393609 625.35148903 696.40625 619.98828125 C695.56562012 619.12819458 695.56562012 619.12819458 694.70800781 618.25073242 C693.33379013 616.87334347 691.90556139 615.55024452 690.46875 614.23828125 C689.80875 614.23828125 689.14875 614.23828125 688.46875 614.23828125 C688.46875 613.57828125 688.46875 612.91828125 688.46875 612.23828125 C687.05555081 610.76957397 687.05555081 610.76957397 685.15625 609.23828125 C680.66211912 605.42507929 676.32157666 601.46288178 671.984375 597.47265625 C668.23471872 593.70150248 668.23471872 593.70150248 663.46875 592.23828125 C663.46875 591.57828125 663.46875 590.91828125 663.46875 590.23828125 C661.4718017 588.33911874 661.4718017 588.33911874 658.84375 586.30078125 C657.83054687 585.49125 656.81734375 584.68171875 655.7734375 583.84765625 C654.95891113 583.20473633 654.95891113 583.20473633 654.12792969 582.54882812 C652.50912459 581.27017218 650.89854904 579.98176194 649.2890625 578.69140625 C622.95216786 557.67541442 594.80595658 539.24357286 565.96875 521.86328125 C565.18016602 521.38729492 564.39158203 520.91130859 563.57910156 520.42089844 C545.84486474 509.8100993 527.26912579 500.4339163 508.71630859 491.34130859 C507.09510895 490.54567748 505.47588087 489.74602464 503.85791016 488.94384766 C469.83360267 472.10436157 434.39365208 458.31648146 398.53125 445.92578125 C397.83613312 445.68454529 397.14101624 445.44330933 396.42483521 445.19476318 C394.47394179 444.5199077 392.52078323 443.85219042 390.56640625 443.1875 C389.45789307 442.80940186 388.34937988 442.43130371 387.20727539 442.04174805 C384.46463315 441.09751769 384.46463315 441.09751769 381.46875 441.23828125 Z M-565.53125 529.23828125 C-566.13936523 529.65883789 -566.74748047 530.07939453 -567.37402344 530.51269531 C-581.21136282 540.13105505 -594.61327205 550.41971114 -607.53125 561.23828125 C-608.03575684 561.65787109 -608.54026367 562.07746094 -609.06005859 562.50976562 C-618.00715139 569.95435544 -626.855488 577.54510893 -635.078125 585.79296875 C-637.41071436 588.11812948 -639.8121622 590.30967437 -642.28125 592.48828125 C-648.4729459 598.03596717 -654.39735267 603.75740838 -659.84765625 610.0390625 C-662.78659599 613.42059233 -665.82263041 616.68389986 -668.92114258 619.91894531 C-675.35434131 626.64344915 -681.32880704 633.53781891 -686.9765625 640.9296875 C-689.46211253 644.18140975 -692.07363696 647.3022967 -694.71875 650.42578125 C-699.26568912 655.85645148 -703.47497498 661.43348978 -707.53125 667.23828125 C-707.98838379 667.89119141 -708.44551758 668.54410156 -708.91650391 669.21679688 C-724.46322723 691.48819476 -739.5655135 714.33999012 -751.37402344 738.84570312 C-752.70759741 741.60288139 -754.06130539 744.34984083 -755.4140625 747.09765625 C-780.26040355 797.84311612 -798.55831595 855.29049518 -797.53125 912.23828125 C-797.52399902 912.99898926 -797.51674805 913.75969727 -797.50927734 914.54345703 C-797.06572797 950.8017387 -787.8519945 987.66224381 -774.53125 1021.23828125 C-774.2832666 1021.87701172 -774.0352832 1022.51574219 -773.77978516 1023.17382812 C-761.23131768 1055.4436186 -744.1838361 1085.49214143 -723.53125 1113.23828125 C-722.60534695 1114.49730627 -721.67957472 1115.7564275 -720.75390625 1117.015625 C-715.11667178 1124.64652678 -709.30409245 1132.04450867 -703.10546875 1139.2265625 C-700.72099859 1142.01628404 -698.43482163 1144.86205148 -696.15625 1147.73828125 C-692.1345435 1152.69308153 -687.73712694 1157.14920502 -683.18798828 1161.61108398 C-680.33405335 1164.41436973 -677.59637789 1167.22518015 -675.03125 1170.30078125 C-670.96674318 1175.0968993 -666.24531783 1179.19771319 -661.6015625 1183.41796875 C-659.29363926 1185.52049653 -657.07232201 1187.67599632 -654.90625 1189.92578125 C-651.317959 1193.58495207 -647.33297026 1196.7170606 -643.34375 1199.92578125 C-640.72159106 1202.0817786 -638.21516432 1204.31395228 -635.71875 1206.61328125 C-630.24860856 1211.57914402 -624.48490131 1216.11587486 -618.63330078 1220.61621094 C-616.35003434 1222.37811828 -614.07966294 1224.15599708 -611.80859375 1225.93359375 C-599.67036302 1235.37274995 -587.14860924 1244.06764828 -574.265625 1252.45751953 C-571.81734373 1254.05196271 -569.3761973 1255.65658204 -566.9375 1257.265625 C-536.74277547 1277.10557758 -505.01898637 1294.50270736 -472.35595703 1309.90234375 C-469.58529819 1311.21271931 -466.82107734 1312.53576969 -464.05859375 1313.86328125 C-462.36199366 1314.67581152 -460.66537979 1315.488313 -458.96875 1316.30078125 C-458.20175781 1316.67082275 -457.43476563 1317.04086426 -456.64453125 1317.42211914 C-452.66905145 1319.31679505 -448.75582198 1320.9502206 -444.53125 1322.23828125 C-444.29219065 1312.07825898 -444.62918822 1302.07390166 -445.47265625 1291.9453125 C-446.63981245 1277.05359642 -447.15625544 1262.16647251 -447.59375 1247.23828125 C-447.67200793 1244.71873385 -447.75078358 1242.19920248 -447.83007812 1239.6796875 C-447.99079594 1234.53564321 -448.14487768 1229.39145793 -448.29418945 1224.24707031 C-448.43170515 1219.51920142 -448.57730666 1214.79182444 -448.73557663 1210.06460953 C-449.52070153 1186.53749218 -449.73383374 1163.02768926 -449.71875 1139.48828125 C-449.71848312 1138.54825256 -449.71821625 1137.60822388 -449.71794128 1136.63970947 C-449.69118303 1061.1462737 -446.68286988 985.64087589 -437.88867188 910.62036133 C-436.95863526 902.61846038 -436.26216565 894.65540029 -435.76855469 886.61303711 C-435.44968117 882.0782752 -434.87939412 877.60904693 -434.21875 873.11328125 C-433.94777803 871.19923837 -433.67695213 869.28517481 -433.40625 867.37109375 C-433.26316406 866.37239258 -433.12007812 865.37369141 -432.97265625 864.34472656 C-432.3641086 860.06200517 -431.78169549 855.77584744 -431.19750977 851.48974609 C-430.51434952 846.49337474 -429.81999412 841.49857442 -429.12451172 836.50390625 C-428.71262771 833.54585367 -428.30316472 830.58747694 -427.89501953 827.62890625 C-423.90550229 798.75416522 -419.3829005 769.98049158 -414.53125 741.23828125 C-414.40085327 740.46556885 -414.27045654 739.69285645 -414.1361084 738.89672852 C-411.80393891 725.11438914 -409.28225249 711.400873 -406.1418457 697.77685547 C-405.22989209 693.77204318 -404.44442093 689.87487898 -404.078125 685.78125 C-403.65987206 681.45377677 -402.54332579 677.48810232 -401.34716797 673.31787109 C-399.92880892 667.96443573 -398.97795098 662.51929299 -397.9699707 657.07623291 C-395.99487407 646.44294581 -393.87480265 635.90895301 -391.10253906 625.44921875 C-389.8072536 620.4363533 -388.61599694 615.39731878 -387.40625 610.36328125 C-387.15230469 609.3160791 -386.89835937 608.26887695 -386.63671875 607.18994141 C-385.51456133 602.525418 -384.43653446 597.86725808 -383.52734375 593.15625 C-382.49142539 587.84743322 -381.12010403 582.64814856 -379.71875 577.42578125 C-377.75936307 570.03084823 -375.88627801 562.62758907 -374.15625 555.17578125 C-367.19796743 525.42776365 -358.60715985 496.03642415 -349.90673828 466.75878906 C-349.69802597 466.05434158 -349.48931366 465.3498941 -349.27427673 464.62409973 C-348.70585496 462.70597131 -348.1355861 460.78839053 -347.56518555 458.87084961 C-346.46625401 455.00992816 -345.48522668 451.13724764 -344.53125 447.23828125 C-421.85282361 446.15408682 -503.55144958 486.29579822 -565.53125 529.23828125 Z M-179.53125 1104.23828125 C-180.29179688 1104.63982422 -181.05234375 1105.04136719 -181.8359375 1105.45507812 C-216.19353721 1123.7041227 -247.73110403 1146.52841555 -276.0949707 1173.14306641 C-278.57511863 1175.46605885 -281.08430149 1177.71783705 -283.71484375 1179.8671875 C-285.94936255 1181.7483982 -287.7704639 1183.48442321 -289.59375 1185.73828125 C-292.74961836 1189.61679773 -296.30495602 1193.04853246 -299.890625 1196.52734375 C-305.0008432 1201.52066153 -309.66105421 1206.67583634 -314.1171875 1212.2578125 C-316.35270822 1215.0178486 -318.64731028 1217.70705579 -320.97705078 1220.38696289 C-326.82220909 1227.11449587 -332.31831624 1234.0029384 -337.53125 1241.23828125 C-337.98467773 1241.86573242 -338.43810547 1242.49318359 -338.90527344 1243.13964844 C-345.56188188 1252.37530357 -351.95752711 1261.75028973 -358.0390625 1271.375 C-359.54717602 1273.75273453 -361.09068605 1275.99166812 -362.7734375 1278.2578125 C-370.72088083 1289.15761932 -367.44955928 1303.42969138 -366.359375 1316.22363281 C-366.15712408 1318.60299825 -365.96460487 1320.98300236 -365.7734375 1323.36328125 C-365.45884298 1327.23282378 -365.10223223 1331.09717064 -364.73254395 1334.96179199 C-364.52932791 1337.26001867 -364.37706785 1339.55795121 -364.22949219 1341.86035156 C-364.11000138 1343.31195468 -363.98928806 1344.76345782 -363.8671875 1346.21484375 C-363.77743652 1347.49697754 -363.68768555 1348.77911133 -363.59521484 1350.10009766 C-362.81301866 1353.55543219 -362.81301866 1353.55543219 -359.28442383 1355.06713867 C-357.42660278 1355.64685425 -357.42660278 1355.64685425 -355.53125 1356.23828125 C-354.62802002 1356.55112061 -353.72479004 1356.86395996 -352.79418945 1357.1862793 C-351.91980225 1357.45480713 -351.04541504 1357.72333496 -350.14453125 1358 C-349.13890137 1358.31001953 -348.13327148 1358.62003906 -347.09716797 1358.93945312 C-346.02354004 1359.26494141 -344.94991211 1359.59042969 -343.84375 1359.92578125 C-342.70309082 1360.27318359 -341.56243164 1360.62058594 -340.38720703 1360.97851562 C-282.57411834 1378.49046226 -223.4417678 1392.21904627 -163.53125 1400.23828125 C-162.37496094 1400.39748047 -161.21867188 1400.55667969 -160.02734375 1400.72070312 C-122.56257163 1405.86960496 -85.0684558 1409.10934687 -47.30560303 1411.09011841 C-44.67798778 1411.2304448 -42.05122667 1411.38205023 -39.42431641 1411.53491211 C-21.97192224 1412.49682793 -4.50419867 1412.43721388 12.96875 1412.42578125 C13.77887165 1412.42566166 14.5889933 1412.42554207 15.42366409 1412.42541885 C38.35469539 1412.42113858 61.21461684 1412.26750344 84.09326172 1410.55908203 C88.08303858 1410.26140215 92.07465528 1410.00161113 96.06741333 1409.74742126 C132.07664726 1407.45149996 167.80632571 1403.72473341 203.46875 1398.23828125 C204.23076721 1398.12184265 204.99278442 1398.00540405 205.77789307 1397.88543701 C225.93171103 1394.80449505 245.93556055 1391.3523528 265.86132812 1387.01391602 C268.49862689 1386.44686822 271.13675485 1385.8927319 273.77929688 1385.35131836 C285.8346792 1382.87308272 297.78278387 1380.04936203 309.71875 1377.05078125 C310.67174988 1376.81217377 311.62474976 1376.57356628 312.60662842 1376.32772827 C329.69253328 1372.04050263 346.61149127 1367.35417724 363.46875 1362.23828125 C365.3797236 1361.66307918 367.29069731 1361.0878775 369.20169067 1360.51274109 C372.25069927 1359.5933463 375.29736004 1358.66631084 378.34375 1357.73828125 C379.4570166 1357.39966064 380.5702832 1357.06104004 381.71728516 1356.7121582 C382.72581543 1356.40109131 383.7343457 1356.09002441 384.7734375 1355.76953125 C386.1035083 1355.36057617 386.1035083 1355.36057617 387.46044922 1354.94335938 C389.4403012 1354.41104581 389.4403012 1354.41104581 390.46875 1353.23828125 C390.83348125 1350.5073943 391.13887213 1347.79173995 391.40625 1345.05078125 C391.49165543 1344.20960754 391.57706085 1343.36843384 391.66505432 1342.50177002 C392.41367785 1335.03616933 393.08773722 1327.56355294 393.74363708 1320.08929443 C394.20066195 1314.93906037 394.75158605 1309.8195111 395.41015625 1304.69140625 C397.10572875 1289.49940007 393.3683325 1280.67272203 384.22021484 1268.57080078 C382.61805568 1266.43711962 381.11549334 1264.2722039 379.64453125 1262.046875 C377.00124649 1258.05028735 374.25658432 1254.13514455 371.46875 1250.23828125 C370.93668945 1249.49368652 370.40462891 1248.7490918 369.85644531 1247.98193359 C359.35994653 1233.36375712 348.29127723 1219.22263129 336.04296875 1206.0234375 C334.46875 1204.23828125 334.46875 1204.23828125 333.46875 1202.23828125 C332.80875 1202.23828125 332.14875 1202.23828125 331.46875 1202.23828125 C331.13875 1201.24828125 330.80875 1200.25828125 330.46875 1199.23828125 C328.84641854 1197.52842857 327.17216061 1195.86737543 325.46875 1194.23828125 C323.72436857 1192.47223463 321.98091931 1190.70526691 320.23828125 1188.9375 C318.76028843 1187.44479426 317.28135636 1185.95302623 315.80200195 1184.46166992 C314.78103118 1183.43053698 313.76184704 1182.39763219 312.74438477 1181.36303711 C311.26782634 1179.8623465 309.78501141 1178.3680984 308.30078125 1176.875 C307.42139893 1175.98514404 306.5420166 1175.09528809 305.63598633 1174.1784668 C303.70520102 1172.01594761 303.70520102 1172.01594761 301.46875 1172.23828125 C301.46875 1171.57828125 301.46875 1170.91828125 301.46875 1170.23828125 C299.89588316 1168.82389719 298.25735004 1167.48223724 296.59375 1166.17578125 C292.94389714 1163.26420457 289.42769628 1160.31529769 286.03125 1157.11328125 C273.31564804 1145.54996754 258.78758058 1135.7062427 244.46875 1126.23828125 C243.77056152 1125.77389648 243.07237305 1125.30951172 242.35302734 1124.83105469 C222.74708783 1111.87141914 201.89143298 1100.87370674 180.46875 1091.23828125 C179.44394531 1090.76479248 179.44394531 1090.76479248 178.3984375 1090.28173828 C107.76272108 1057.76715113 25.85914035 1049.12163332 -179.53125 1104.23828125 Z " fill="#EC1B23" transform="translate(958.53125,-0.23828125)"/>
<path d="M0 0 C20.46 0 40.92 0 62 0 C72.04693878 12.27959184 72.04693878 12.27959184 76.0625 17.5625 C78.9360815 21.32746239 81.83533344 25.06606911 84.8125 28.75 C88.32330408 33.1121213 91.73081033 37.54710923 95.125 42 C103.82098053 53.40783534 112.62986683 64.72712935 121.5 76 C130.35216937 87.25004082 139.14353159 98.54560274 147.8125 109.9375 C152.0645068 115.52389294 156.41950788 120.99896043 160.8984375 126.40625 C163.92361868 130.13993086 166.7705122 133.99920813 169.63671875 137.85546875 C172.55503813 141.73852181 175.55273349 145.55381181 178.56201172 149.36645508 C182.39727781 154.22687922 186.20259129 159.10995284 190 164 C197.46967965 173.61196556 204.949316 183.21404839 212.57788086 192.70068359 C217.41591261 198.71825756 222.13645971 204.79734541 226.7421875 210.99609375 C229.1811557 214.24101858 231.67351834 217.43812266 234.1875 220.625 C243.89501047 232.93160149 253.51069428 245.30782822 263.00146484 257.7824707 C263.51273926 258.45366943 264.02401367 259.12486816 264.55078125 259.81640625 C265.00106689 260.40881104 265.45135254 261.00121582 265.9152832 261.61157227 C266.93746573 262.97809504 266.93746573 262.97809504 268 264 C268.00173625 263.4438797 268.0034725 262.8877594 268.00526136 262.31478697 C268.10818463 229.38888039 268.21627433 196.46299534 268.33111694 163.53712824 C268.34488729 159.58782196 268.35861427 155.63851552 268.37231445 151.68920898 C268.37504276 150.90293961 268.37777106 150.11667024 268.38058204 149.30657452 C268.42471349 136.55850136 268.46532763 123.81041928 268.50465261 111.06233049 C268.54505119 97.99145853 268.58920477 84.92060318 268.63687855 71.8497557 C268.66620036 63.77778241 268.69255769 55.70581042 268.71517897 47.63381552 C268.73280837 41.45475461 268.75565017 35.27572321 268.78049088 29.09668732 C268.78988298 26.55411035 268.79755042 24.01152637 268.80341911 21.46893883 C268.81164375 18.01417439 268.82590987 14.55948806 268.84178162 11.10475159 C268.84275972 10.08434503 268.84373783 9.06393847 268.84474558 8.0126105 C268.85022002 7.09448641 268.85569446 6.17636232 268.8613348 5.2304163 C268.86532186 4.03258852 268.86532186 4.03258852 268.86938947 2.81056219 C269 1 269 1 270 0 C290.13 0 310.26 0 331 0 C331 110.88 331 221.76 331 336 C306.25 336 281.5 336 256 336 C242.55170049 319.18962562 242.55170049 319.18962562 237.5625 312.5625 C232.72374562 306.18337327 227.743016 299.93967838 222.67089844 293.74511719 C217.64521321 287.59651019 212.80860476 281.31965569 208 275 C202.80171541 268.18932342 197.56017502 261.42429346 192.1875 254.75 C187.876191 249.39386201 183.66035206 243.97414744 179.5 238.5 C174.39639769 231.78665388 169.17880424 225.17708151 163.89453125 218.60546875 C156.40114056 209.28564227 149.09014578 199.8297768 141.83837891 190.32128906 C135.21194707 181.64190103 128.46602478 173.06101091 121.62329102 164.55126953 C116.26838816 157.89014384 111.03396595 151.14995519 105.86254883 144.34545898 C101.75669027 138.95594382 97.55243193 133.65384874 93.30419922 128.3762207 C89.37558073 123.48910225 85.54140219 118.53829634 81.73046875 113.55859375 C78.32065189 109.1059877 74.87902303 104.67811622 71.4375 100.25 C70.81697754 99.45037842 70.19645508 98.65075684 69.55712891 97.8269043 C68.9801123 97.08480713 68.4030957 96.34270996 67.80859375 95.578125 C67.29095459 94.91200195 66.77331543 94.24587891 66.23999023 93.55957031 C65.08812345 92.05031775 65.08812345 92.05031775 64 91 C63.99576806 92.25658889 63.99153612 93.51317778 63.98717594 94.80784512 C63.88660103 124.60572096 63.7809112 154.40357384 63.66888306 184.20140862 C63.65511272 187.86531068 63.64138574 191.52921291 63.62768555 195.19311523 C63.62495724 195.92256293 63.62222894 196.65201062 63.61941796 197.40356279 C63.57528726 209.23015529 63.53467286 221.05675741 63.49534739 232.88336676 C63.45494791 245.00954942 63.4107942 257.13571417 63.36312145 269.26187044 C63.33380055 276.75036337 63.30744308 284.23885489 63.28482103 291.7273711 C63.2671907 297.4599132 63.24434885 303.19242516 63.21950912 308.92494011 C63.21011752 311.28368509 63.20244991 313.64243762 63.19658089 316.001194 C63.18835539 319.20635472 63.17408903 322.41143131 63.15821838 325.61656189 C63.15724028 326.56304043 63.15626217 327.50951898 63.15525442 328.48467869 C63.11412121 334.88587879 63.11412121 334.88587879 62 336 C41.54 336 21.08 336 0 336 C0 225.12 0 114.24 0 0 Z M62 88 C63 90 63 90 63 90 Z " fill="#000000" transform="translate(1169,1663)"/>
<path d="M0 0 C20.79 0 41.58 0 63 0 C63 47.19 63 94.38 63 143 C169.92 143.495 169.92 143.495 279 144 C279 98.13 279 52.26 279 5 C300.45 5 321.9 5 344 5 C344 114.89 344 224.78 344 338 C322.55 338 301.1 338 279 338 C279 295.43 279 252.86 279 209 C207.72 209 136.44 209 63 209 C63 251.57 63 294.14 63 338 C42.21 338 21.42 338 0 338 C0 226.46 0 114.92 0 0 Z " fill="#000000" transform="translate(376,1661)"/>
<path d="M0 0 C16.67958864 12.9208081 23.30812846 31.4201315 29.98461914 50.68188477 C33.38473972 60.40230683 37.33108959 69.91302078 41.21972656 79.44580078 C44.06798118 86.43231876 46.78238509 93.43410944 49.25 100.5625 C52.86729942 111.00459788 57.04674603 121.21596817 61.21972656 131.44580078 C64.06798118 138.43231876 66.78238509 145.43410944 69.25 152.5625 C72.86729942 163.00459788 77.04674603 173.21596817 81.21972656 183.44580078 C84.06798118 190.43231876 86.78238509 197.43410944 89.25 204.5625 C92.86729942 215.00459788 97.04674603 225.21596817 101.21972656 235.44580078 C104.37393022 243.18278483 107.32561967 250.95151934 110.05957031 258.84423828 C111.83186528 263.92900971 113.75847339 268.93514827 115.75 273.9375 C118.59057326 281.14283708 121.19591823 288.41683474 123.6875 295.75 C124.02507324 296.72396729 124.36264648 297.69793457 124.71044922 298.70141602 C128.1021033 308.83606269 131.46007056 320.54060205 128.25 331.0625 C125.58241509 335.77523333 122.50445795 338.42857424 117.5625 340.625 C108.27472437 342.81035897 98.84165866 342.49880836 89.36499023 342.44897461 C87.76985761 342.44429774 86.17472369 342.44004276 84.57958889 342.43617916 C80.35984874 342.42456287 76.14016187 342.40647114 71.92045355 342.38657522 C68.62104439 342.37157145 65.32162744 342.35975917 62.02220553 342.34795827 C50.85979317 342.30762764 39.69748118 342.25074847 28.53515625 342.19140625 C26.65592388 342.18151611 24.77669147 342.17163296 22.89745903 342.16175652 C15.08029395 342.12053701 7.26313179 342.07882918 -0.55402279 342.03566074 C-11.60134204 341.97465867 -22.64866768 341.91672527 -33.69602484 341.86300808 C-41.56454772 341.82450292 -49.43304788 341.78255829 -57.30153948 341.73812145 C-61.96132798 341.71188859 -66.62111294 341.6870452 -71.28092766 341.66592598 C-108.18848077 341.49652019 -108.18848077 341.49652019 -125.625 340.375 C-125.70518224 338.78987622 -125.78524171 337.20474623 -125.86524963 335.61961365 C-125.90984597 334.73689506 -125.95444231 333.85417646 -126.00039005 332.94470882 C-126.82147806 316.4240445 -126.71713535 299.90994102 -126.625 283.375 C-116.77640986 282.45424983 -106.97785352 282.20738344 -97.09448242 282.16967773 C-95.4768195 282.16007428 -93.85915896 282.15006286 -92.24150085 282.13967896 C-87.89118514 282.11289068 -83.54085887 282.09174175 -79.19050765 282.07167697 C-74.62880185 282.04965448 -70.06712762 282.02234615 -65.50544739 281.99562073 C-56.88565124 281.94591188 -48.26583737 281.90089311 -39.64600688 281.85759836 C-29.82483149 281.80803835 -20.0036878 281.75319044 -10.18254316 281.69791877 C10.00327497 281.58443397 30.18912342 281.47752335 50.375 281.375 C48.4607982 276.17759515 46.5464414 270.98024742 44.63194942 265.78294945 C43.98253868 264.0199209 43.33316813 262.25687754 42.68384075 260.49381828 C37.95530818 247.65497984 33.21418989 234.82101228 28.4375 222 C27.76879545 220.20353316 27.1000944 218.40706502 26.43139648 216.6105957 C21.64888944 203.76795649 16.83563788 190.93697821 12.01541138 178.10845947 C6.20074091 162.6283688 0.46494015 147.11964153 -5.25146484 131.60302734 C-8.81112965 121.94722656 -12.39594101 112.30191234 -16.03515625 102.67578125 C-16.56422073 101.27439407 -16.56422073 101.27439407 -17.10397339 99.84469604 C-18.78186546 95.4012346 -20.46466911 90.95975268 -22.15625 86.52148438 C-22.75150059 84.94799175 -23.34656375 83.3744282 -23.94140625 81.80078125 C-24.2154982 81.08747147 -24.48959015 80.37416168 -24.77198792 79.63923645 C-25.86608889 76.73208712 -26.625 74.510031 -26.625 71.375 C-27.285 71.375 -27.945 71.375 -28.625 71.375 C-28.89489746 72.10050049 -29.16479492 72.82600098 -29.44287109 73.57348633 C-30.60393517 76.3250787 -31.94126664 78.67980945 -33.5390625 81.19921875 C-34.12719727 82.13233887 -34.71533203 83.06545898 -35.32128906 84.02685547 C-35.95776367 85.02861816 -36.59423828 86.03038086 -37.25 87.0625 C-38.61280012 89.22474321 -39.97475 91.38752249 -41.3359375 93.55078125 C-41.6875293 94.1087439 -42.03912109 94.66670654 -42.40136719 95.24157715 C-46.26898605 101.3844986 -50.07489069 107.56513286 -53.875 113.75 C-54.54772949 114.8440918 -55.22045898 115.93818359 -55.91357422 117.06542969 C-59.30031118 122.57748725 -62.67634802 128.09588283 -66.04077148 133.62158203 C-70.54943984 141.02520323 -75.13689359 148.3730113 -79.78295898 155.69116211 C-84.91139066 163.78820945 -89.92460073 171.95573974 -94.93041992 180.12890625 C-98.55536887 186.04091091 -102.2273415 191.9179042 -105.96118164 197.76171875 C-108.57133926 201.86137057 -111.13185547 205.99121554 -113.6875 210.125 C-114.23768799 211.01405029 -114.78787598 211.90310059 -115.35473633 212.8190918 C-119.53808228 219.58996495 -123.68098532 226.38490779 -127.8125 233.1875 C-134.28218218 243.83741541 -140.85020316 254.41942072 -147.51953125 264.9453125 C-152.83568426 273.33756504 -158.10221046 281.7534911 -163.26269531 290.24243164 C-167.86800646 297.80443133 -172.56779199 305.30665552 -177.26855469 312.80957031 C-181.15578341 319.0159185 -185.01649634 325.23581052 -188.81640625 331.49609375 C-189.41324219 332.44613281 -190.01007813 333.39617187 -190.625 334.375 C-190.94719009 335.10726807 -191.26938019 335.83953613 -191.60133362 336.59399414 C-193.0198944 339.37998271 -194.29678396 341.27105077 -196.625 343.375 C-201.4632814 344.64850271 -206.24995949 344.42564646 -211.2109375 344.25390625 C-212.63721692 344.23710305 -214.06354857 344.22429993 -215.48989868 344.21531677 C-219.22973089 344.18108196 -222.96637637 344.09280565 -226.70495605 343.99298096 C-230.5255217 343.90062166 -234.34660663 343.85974781 -238.16796875 343.81445312 C-245.65509298 343.71816093 -253.13959869 343.56473317 -260.625 343.375 C-259.01836386 339.2108074 -257.01454038 335.48571607 -254.6875 331.6875 C-254.29344971 331.03813477 -253.89939941 330.38876953 -253.4934082 329.71972656 C-252.64546442 328.32396974 -251.79571646 326.92930768 -250.94433594 325.53564453 C-249.62764825 323.37933697 -248.31720621 321.21933676 -247.0078125 319.05859375 C-242.2474364 311.21940637 -237.41413127 303.43123991 -232.5 295.6875 C-228.19618363 288.90466894 -224.0022557 282.06854976 -219.890625 275.16796875 C-213.57950037 264.57986064 -207.10443726 254.09484192 -200.5 243.6875 C-196.19618363 236.90466894 -192.0022557 230.06854976 -187.890625 223.16796875 C-181.57950037 212.57986064 -175.10443726 202.09484192 -168.5 191.6875 C-164.19618363 184.90466894 -160.0022557 178.06854976 -155.890625 171.16796875 C-149.68020755 160.74881602 -143.31452107 150.42692018 -136.8125 140.1875 C-130.44512888 130.15907348 -124.28621168 120.00699764 -118.12744141 109.84960938 C-113.55078458 102.31158636 -108.90048094 94.81887666 -104.25683594 87.32202148 C-103.71833008 86.45262939 -103.17982422 85.5832373 -102.625 84.6875 C-102.07489258 83.7994165 -101.52478516 82.91133301 -100.95800781 81.99633789 C-97.23566476 75.98425712 -93.5222823 69.96673166 -89.81665039 63.94433594 C-88.47697354 61.76729985 -87.13631049 59.59087034 -85.79467773 57.41503906 C-82.65485783 52.31937066 -79.52421095 47.21890254 -76.43284607 42.09370422 C-75.37301397 40.33777828 -74.30971116 38.58400113 -73.24536133 36.83081055 C-71.92059541 34.64633771 -70.602201 32.45798158 -69.29174805 30.26489258 C-60.30808323 15.49441529 -47.98552328 -1.04157983 -30.5 -6.125 C-18.9859285 -7.61068665 -9.70938779 -6.71365382 0 0 Z " fill="#000000" transform="translate(1008.625,1656.625)"/>
<path d="M0 0 C0.969375 0.680625 1.93875 1.36125 2.9375 2.0625 C12.52446123 10.36244452 17.9973292 21.96859242 22.390625 33.57421875 C22.84893959 34.77012383 22.84893959 34.77012383 23.31651306 35.9901886 C24.29819453 38.55450566 25.27414869 41.12095933 26.25 43.6875 C26.93103342 45.46953983 27.61243178 47.25144024 28.29418945 49.03320312 C30.20112753 54.02023632 32.10147606 59.00975869 34 64 C34.63591064 65.6698999 34.63591064 65.6698999 35.28466797 67.37353516 C36.54864158 70.69285503 37.81244885 74.01223436 39.07324219 77.33276367 C42.27406424 85.75085677 45.53607719 94.14528791 48.7918396 102.54223633 C52.1976331 111.32712071 55.57946779 120.12046173 58.921875 128.9296875 C61.91307014 136.79996323 64.95618891 144.64997363 68 152.5 C71.35699914 161.15774223 74.70571208 169.81814247 78 178.5 C81.04991571 186.53390516 84.14338114 194.55035989 87.25 202.5625 C92.5234021 216.17160837 97.78661784 229.78465796 103.03601074 243.40304565 C103.91803466 245.69010417 104.80090744 247.97683553 105.68469238 250.26321411 C117.93518183 281.96035186 117.93518183 281.96035186 122.75 297.625 C123.13671875 298.87539062 123.5234375 300.12578125 123.921875 301.4140625 C124.27765625 302.59742188 124.6334375 303.78078125 125 305 C125.55107422 306.69769531 125.55107422 306.69769531 126.11328125 308.4296875 C127.89666274 315.61035129 128.47208701 324.39079551 126.1953125 331.51953125 C123.22364111 336.22296976 118.24187721 338.57457725 113 340 C104.68342986 341.22635707 96.39058971 341.11809101 88.00585938 341.07397461 C86.41116194 341.06929718 84.81646322 341.0650423 83.22176361 341.06117916 C78.99838864 341.04955459 74.77506676 341.03145425 70.55172348 341.01157522 C67.23948356 340.99655012 63.92723584 340.98474571 60.61498308 340.97295827 C49.37867679 340.93258341 38.14246971 340.8757298 26.90625 340.81640625 C25.01461287 340.80651676 23.1229757 340.7966336 21.2313385 340.78675652 C13.3635591 340.74553726 5.4957826 340.7038271 -2.37198639 340.66066074 C-13.49488104 340.59964115 -24.61778208 340.54171032 -35.74071455 340.48800808 C-43.66102605 340.44952179 -51.58131481 340.40757746 -59.50159502 340.36312145 C-64.19320974 340.33687171 -68.88482085 340.31202691 -73.57646179 340.29092598 C-110.7682128 340.12151119 -110.7682128 340.12151119 -127 339 C-128.01431926 326.67000428 -128.1184204 314.42934872 -128.0625 302.0625 C-128.05747076 300.10742303 -128.05291039 298.1523448 -128.04882812 296.19726562 C-128.03794504 291.46481182 -128.02076043 286.73242036 -128 282 C-118.14684015 281.06476865 -108.35735295 280.86196256 -98.46948242 280.88647461 C-96.85182192 280.88675737 -95.23416129 280.88659702 -93.61650085 280.8860321 C-89.26615826 280.88574759 -84.91584377 280.89158802 -80.56550765 280.89860606 C-76.00382238 280.90489754 -71.44213633 280.90544795 -66.88044739 280.90663147 C-58.26062774 280.90972781 -49.64082091 280.91791812 -41.02100688 280.92798096 C-31.19985413 280.93919506 -21.37870073 280.94466584 -11.55754316 280.94967639 C8.62831169 280.96010231 28.81415504 280.97766859 49 281 C47.89997065 277.82583304 46.79601691 274.65304403 45.69140625 271.48046875 C45.38319946 270.59097534 45.07499268 269.70148193 44.75744629 268.78503418 C42.93964921 263.57098422 41.02281873 258.42549545 38.9375 253.3125 C36.88101034 248.26868851 34.97349079 243.20588601 33.1875 238.0625 C30.38437153 229.99200588 27.39845371 221.99587429 24.38525391 214.00170898 C22.0808821 207.88678011 19.80520188 201.76278066 17.5625 195.625 C14.77545952 188.00719924 11.8651272 180.43975438 8.9375 172.875 C5.92625646 165.08896039 2.98712833 157.2935402 0.25537109 149.40527344 C-2.24210632 142.22437321 -4.93328974 135.11769926 -7.61352539 128.00341797 C-10.21507281 121.09761117 -12.78712244 114.18206871 -15.32250977 107.25170898 C-16.98369386 102.72212694 -18.67835955 98.20679891 -20.3984375 93.69921875 C-20.80900391 92.61898438 -21.21957031 91.53875 -21.64257812 90.42578125 C-22.44653181 88.31333242 -23.25492132 86.20256486 -24.06835938 84.09375 C-25.84794597 79.40865209 -27.47120028 75.02359736 -28 70 C-31.81607719 73.41346355 -34.16921127 77.26964681 -36.75 81.625 C-37.72980017 83.25300673 -38.71031183 84.8805854 -39.69140625 86.5078125 C-40.22137207 87.38985352 -40.75133789 88.27189453 -41.29736328 89.18066406 C-44.39370181 94.30778154 -47.54384041 99.40181253 -50.6875 104.5 C-52.05483009 106.71996427 -53.42201551 108.94001764 -54.7890625 111.16015625 C-55.4790332 112.2805127 -56.16900391 113.40086914 -56.87988281 114.55517578 C-58.67267489 117.4672964 -60.463178 120.38081702 -62.25279236 123.29489136 C-63.32882772 125.04701679 -64.40521271 126.79892697 -65.48168945 128.55078125 C-66.82464375 130.73656818 -68.16697465 132.92273832 -69.50854492 135.109375 C-73.08158747 140.92250675 -76.70807308 146.697097 -80.38110352 152.44750977 C-82.69907198 156.10221649 -84.94577616 159.79822868 -87.1875 163.5 C-91.06339555 169.87333452 -95.00302816 176.20193749 -99 182.5 C-104.35222587 190.93648607 -109.5787386 199.44474838 -114.77001953 207.98095703 C-117.20579915 211.97934875 -119.66428172 215.96372367 -122.12109375 219.94921875 C-123.36618347 221.97087171 -124.60840881 223.99429178 -125.84765625 226.01953125 C-130.31623579 233.31423501 -134.86513648 240.55498896 -139.4387207 247.78417969 C-152.13309314 267.85159647 -164.58659066 288.06880012 -177.02636719 308.29467773 C-181.46759892 315.51410355 -185.91581118 322.72915065 -190.375 329.9375 C-190.91640625 330.81341797 -191.4578125 331.68933594 -192.015625 332.59179688 C-192.51320313 333.39552734 -193.01078125 334.19925781 -193.5234375 335.02734375 C-193.95575684 335.72593506 -194.38807617 336.42452637 -194.83349609 337.14428711 C-195.8618563 338.78023645 -196.92814252 340.39221379 -198 342 C-200.67019653 342.36076355 -200.67019653 342.36076355 -204.10205078 342.34057617 C-206.02381638 342.34023628 -206.02381638 342.34023628 -207.98440552 342.33988953 C-209.3880447 342.32456841 -210.79168034 342.3089204 -212.1953125 342.29296875 C-213.62734535 342.28737438 -215.05938393 342.28310353 -216.49142456 342.28010559 C-220.26287656 342.26864413 -224.03398265 342.23916624 -227.80529785 342.20599365 C-231.65270304 342.1753205 -235.50016406 342.16160618 -239.34765625 342.14648438 C-246.8985953 342.11429738 -254.44924921 342.06308584 -262 342 C-260.85745364 338.48093706 -259.80841086 335.34311185 -257.77734375 332.2421875 C-257.10674927 331.20251831 -257.10674927 331.20251831 -256.42260742 330.1418457 C-255.93252197 329.39378662 -255.44243652 328.64572754 -254.9375 327.875 C-249.71948629 319.76713345 -244.67013887 311.56633982 -239.6875 303.3125 C-233.69585889 293.39871341 -227.6181851 283.54484917 -221.45825195 273.734375 C-216.61400589 266.00933145 -211.85982266 258.23248686 -207.13037109 250.43676758 C-200.62444637 239.71826118 -194.00967726 229.0679282 -187.39550781 218.41601562 C-181.26068206 208.53316563 -175.15843944 198.63262779 -169.125 188.6875 C-164.37363012 180.85663616 -159.55811751 173.06971801 -154.6875 165.3125 C-148.84060073 155.99882137 -143.10786894 146.62018156 -137.41781616 137.21035767 C-131.91527935 128.11401678 -126.32023328 119.07986062 -120.6640625 110.078125 C-115.86862216 102.42970116 -111.17104351 94.72465538 -106.5 87 C-100.57354379 77.19938409 -94.56582624 67.45425788 -88.47070312 57.75732422 C-83.49994223 49.83733379 -78.63278845 41.8573015 -73.8293457 33.8347168 C-63.64882369 16.95359958 -50.77478422 -2.4535991 -30.46484375 -7.6484375 C-18.67976926 -9.32935145 -9.61761516 -6.80220218 0 0 Z " fill="#000000" transform="translate(1807,1658)"/>
<path d="M0 0 C1.87499466 0.00113257 3.74999109 0.00048666 5.62498474 -0.00177002 C10.64027187 -0.00290212 15.6551642 0.02035901 20.6703608 0.04852581 C25.9393329 0.07379464 31.20831736 0.0759013 36.4773407 0.08062744 C46.42153078 0.09298323 56.36554171 0.12570306 66.30965346 0.1660254 C77.64484497 0.21097549 88.98004573 0.23278817 100.3153044 0.25280714 C123.60184484 0.2944436 146.88814019 0.36770172 170.17456055 0.45410156 C170.17456055 22.89410156 170.17456055 45.33410156 170.17456055 68.45410156 C161.66674805 68.46026489 161.66674805 68.46026489 152.98706055 68.46655273 C134.2195618 68.48377191 115.45219842 68.52805969 96.68478394 68.58619213 C85.30928425 68.62077051 73.93390484 68.64618826 62.55834961 68.6496582 C52.63754658 68.65270806 42.71695816 68.67333544 32.79623795 68.71462613 C27.54856051 68.73586526 22.30118749 68.74860369 17.0534668 68.74025536 C12.10225508 68.73265741 7.15165723 68.748769 2.20055771 68.78216171 C0.39478234 68.79032631 -1.41105489 68.79022724 -3.21682358 68.78069878 C-27.85114538 68.66370325 -50.22534508 78.26779881 -68.13793945 95.32910156 C-77.19149075 105.01968312 -83.36641027 115.48276796 -88.82543945 127.45410156 C-89.35008789 128.59105469 -89.87473633 129.72800781 -90.4152832 130.89941406 C-98.86089009 152.18889402 -98.41915248 177.71441333 -89.84008789 198.88574219 C-88.86636898 201.09138372 -87.85829666 203.27563807 -86.82543945 205.45410156 C-86.4284082 206.33839844 -86.03137695 207.22269531 -85.62231445 208.13378906 C-82.43157031 214.82482715 -78.3751923 220.61701555 -73.82543945 226.45410156 C-73.04426758 227.48664063 -73.04426758 227.48664063 -72.24731445 228.54003906 C-59.29278273 244.5696364 -38.06900424 256.15634857 -17.82543945 259.45410156 C-15.25188779 259.55307801 -12.70501726 259.60452158 -10.13165283 259.60559082 C-8.98086656 259.61193944 -8.98086656 259.61193944 -7.80683208 259.61841631 C-5.24044137 259.63141529 -2.67408171 259.63746067 -0.10766602 259.64355469 C1.733792 259.65149895 3.57524814 259.65988706 5.41670227 259.66868591 C9.37922371 259.68672814 13.34174106 259.7017487 17.30428314 259.71446228 C23.56390533 259.73468371 29.82348108 259.76233376 36.08306885 259.7911377 C50.49489129 259.85632085 64.90674797 259.9118249 79.31861115 259.96712494 C92.53731417 260.01792735 105.75600024 260.07075061 118.97466111 260.13165045 C125.20389326 260.16006433 131.43311972 260.18363597 137.66238451 260.20357513 C141.526889 260.21691901 145.39136718 260.23433288 149.25584984 260.25288582 C151.05504126 260.26067066 152.85424105 260.26672753 154.65344429 260.27097893 C157.09857765 260.276985 159.54360739 260.28901264 161.9887085 260.3026123 C162.70999239 260.30290829 163.43127628 260.30320428 164.17441726 260.30350924 C169.0604669 260.34000792 169.0604669 260.34000792 170.17456055 261.45410156 C170.26873827 263.54029179 170.29198932 265.62970633 170.28808594 267.71801758 C170.28823196 268.37165283 170.28837799 269.02528809 170.28852844 269.69873047 C170.28782938 271.86852285 170.28003732 274.03823035 170.2722168 276.20800781 C170.27035259 277.70873467 170.2689287 279.20946214 170.26792908 280.71018982 C170.26410407 284.66728383 170.25427394 288.62434135 170.2432251 292.5814209 C170.2330106 296.61645006 170.22843138 300.65148509 170.22338867 304.68652344 C170.21265165 312.60906626 170.19557545 320.53157938 170.17456055 328.45410156 C145.86803478 328.59496983 121.5615712 328.70041181 97.25471783 328.76497459 C85.96573332 328.79576413 74.6770041 328.83765561 63.38818359 328.90673828 C53.53585757 328.9670009 43.68371663 329.00535861 33.83121139 329.01863253 C28.62607324 329.0263779 23.42146406 329.04426045 18.21649742 329.0884819 C-30.00134699 329.48189707 -75.66130151 319.92422988 -111.29956055 284.94042969 C-112.91824538 283.36370116 -114.56744364 281.82340489 -116.2199707 280.28222656 C-134.38570107 263.0781521 -147.76590946 241.44904777 -155.82543945 217.76660156 C-156.07986816 217.02176514 -156.33429688 216.27692871 -156.59643555 215.50952148 C-161.58325856 199.6589062 -163.49045833 183.95781858 -163.34692383 167.390625 C-163.3254476 164.45521518 -163.34688334 161.52225145 -163.37231445 158.58691406 C-163.3974707 142.10198895 -161.02772661 126.30836169 -155.57543945 110.70410156 C-155.27806885 109.83760986 -154.98069824 108.97111816 -154.67431641 108.07836914 C-148.10413747 89.51953601 -137.80473805 72.23159784 -124.82543945 57.45410156 C-124.13063477 56.638125 -123.43583008 55.82214844 -122.7199707 54.98144531 C-113.92307517 44.87062367 -104.15012836 35.66541562 -92.82543945 28.45410156 C-91.36750977 27.50470703 -91.36750977 27.50470703 -89.88012695 26.53613281 C-77.1865058 18.47396803 -64.12149831 12.13130926 -49.82543945 7.45410156 C-49.18082833 7.22696275 -48.5362172 6.99982395 -47.8720724 6.76580215 C-32.25229147 1.33166913 -16.4275645 -0.14241466 0 0 Z " fill="#000000" transform="translate(162.825439453125,1670.5458984375)"/>
</svg>
