<?xml version="1.0" encoding="UTF-8"?>
<svg version="1.1" xmlns="http://www.w3.org/2000/svg" width="2000" height="1020">
<path d="M0 0 C14.08201184 -0.22445711 27.86479698 0.35954272 41.875 1.75 C43.80845137 1.9351271 45.74196533 2.11960158 47.67553711 2.3034668 C52.5438432 2.76932004 57.41077756 3.24809995 62.27740479 3.73114014 C64.80747056 3.98098746 67.33791119 4.22633973 69.86865234 4.46923828 C110.07006088 8.33108664 150.33380895 12.69833528 190.23905945 18.94863892 C195.43967054 19.76308028 200.64421297 20.54867326 205.85054016 21.32571411 C234.19069995 25.55699703 262.41452797 30.20969748 290.56848145 35.54156494 C292.88433206 35.97819213 295.20114129 36.40915556 297.51855469 36.83740234 C338.30685638 44.37805587 378.88625822 53.44268412 419 64 C420.21091309 64.31855957 421.42182617 64.63711914 422.66943359 64.96533203 C492.54846501 83.50584016 563.450963 105.99914577 627 141 C628.24595947 141.6818335 628.24595947 141.6818335 629.51708984 142.37744141 C652.94006286 155.25764634 675.86133787 169.86338165 695.23046875 188.40625 C697.91802629 190.99298011 697.91802629 190.99298011 700.65625 193.11328125 C702.8156804 194.85162272 704.52872715 196.57618573 706.3125 198.6875 C708.12653123 200.82602389 709.93466021 202.9318016 711.875 204.95703125 C724.44117094 218.20724779 733.26163807 235.50450979 738 253 C738.1757959 253.57572754 738.3515918 254.15145508 738.53271484 254.74462891 C739.57742 259.78694145 739.26673955 265.06810232 739.29516602 270.20458984 C739.30657983 271.63372787 739.32685948 273.06282696 739.35668945 274.49169922 C739.57041522 284.75292421 738.41613316 293.22588542 735 303 C734.51781006 304.38880371 734.51781006 304.38880371 734.02587891 305.80566406 C728.34287307 321.52743327 717.40614015 335.03456917 706 347 C705.19151611 347.84933105 705.19151611 347.84933105 704.36669922 348.71582031 C695.80345132 357.65322497 686.95107941 365.65131355 677 373 C676.32630371 373.50740723 675.65260742 374.01481445 674.95849609 374.53759766 C663.44646828 383.20519856 651.49886759 390.83825825 639 398 C638.21560547 398.45004395 637.43121094 398.90008789 636.62304688 399.36376953 C626.26032066 405.27818023 615.73496088 410.79517048 605 416 C604.19691406 416.391875 603.39382813 416.78375 602.56640625 417.1875 C590.20556106 423.20800298 577.74576844 428.84524014 565 434 C564.02337402 434.39767578 563.04674805 434.79535156 562.04052734 435.20507812 C533.5289688 446.77037978 504.43188268 457.03332638 475 466 C473.61894732 466.42454256 472.23792693 466.8491902 470.85693359 467.27392578 C440.19796176 476.67263356 409.16233009 484.46520244 378 492 C377.05366699 492.22965454 376.10733398 492.45930908 375.13232422 492.69592285 C339.8054457 501.2648223 304.14421187 508.06053622 268.375 514.5 C266.95438263 514.75790817 266.95438263 514.75790817 265.50506592 515.02102661 C255.69169259 516.79669499 245.98013409 518.49958908 236 519 C241.4217726 525.69177896 246.93529818 532.28428341 252.55786133 538.80737305 C255.57048915 542.3100843 258.52964323 545.84669705 261.4375 549.4375 C265.03636029 553.87239317 268.74732064 558.19567786 272.5 562.5 C276.99503077 567.655799 281.38623051 572.87510667 285.69140625 578.19140625 C288.41344278 581.50298707 291.20146549 584.75306941 294 588 C298.32827095 593.02438363 302.58003969 598.09975543 306.75390625 603.25390625 C308.41072412 605.27954619 310.08221557 607.28427337 311.77734375 609.27734375 C312.24124512 609.82503418 312.70514648 610.37272461 313.18310547 610.93701172 C314.49502653 612.48298878 315.81183649 614.02481318 317.12890625 615.56640625 C319 618 319 618 319 620 C298.3289705 620.28074262 277.65825678 620.49213567 256.98570538 620.62174606 C247.38622367 620.68353588 237.78792873 620.7677213 228.18920898 620.90527344 C219.81954645 621.02515534 211.45074354 621.10236198 203.08024627 621.12906194 C198.65054052 621.14466285 194.22329315 621.18112349 189.79437828 621.26876068 C185.61815 621.35072193 181.44537166 621.37524458 177.26841545 621.35729218 C175.74252758 621.3605718 174.2165147 621.3841581 172.69132614 621.4304657 C166.4794013 621.60969019 160.6124466 621.75857229 155.72718239 617.42588043 C152.85048484 614.49146013 150.43131608 611.30883704 148 608 C146.52833812 606.20216386 145.05041575 604.40940752 143.5625 602.625 C142.83933594 601.7278125 142.11617187 600.830625 141.37109375 599.90625 C138.67366629 596.60001272 135.9085463 593.35872149 133.125 590.125 C132.10023228 588.93361795 131.07549273 587.74221167 130.05078125 586.55078125 C129.54369629 585.96119629 129.03661133 585.37161133 128.51416016 584.76416016 C122.80708548 578.11480163 117.14439496 571.43124843 111.625 564.625 C107.45843577 559.50266476 103.13798719 554.52582622 98.79956055 549.54956055 C94.87510903 545.03784637 91.06573217 540.44674445 87.30078125 535.80078125 C84.61941084 532.53670217 81.87937137 529.3274928 79.125 526.125 C78.61791504 525.53541504 78.11083008 524.94583008 77.58837891 524.33837891 C77.08097168 523.74847168 76.57356445 523.15856445 76.05078125 522.55078125 C69.80572679 515.28968997 63.6036885 507.99446571 57.5625 500.5625 C53.14737176 495.13999847 48.59987523 489.83872545 44.0390625 484.5390625 C40.71878494 480.67910808 37.43288446 476.79067074 34.14941406 472.89941406 C31.25589965 469.47414108 28.34271798 466.0666014 25.41796875 462.66796875 C20.64310048 457.11945094 15.95175221 451.51822204 11.3359375 445.8359375 C7.64107329 441.35019934 3.84039178 436.95645166 0.05078125 432.55078125 C-6.19427321 425.28968997 -12.3963115 417.99446571 -18.4375 410.5625 C-23.83500443 403.93567072 -29.42018674 397.47314171 -35 391 C-41.30984138 383.67995262 -47.57016361 376.33781303 -53.6640625 368.8359375 C-57.35892671 364.35019934 -61.15960822 359.95645166 -64.94921875 355.55078125 C-71.17522367 348.31183876 -77.3608624 341.04134091 -83.375 333.625 C-87.54156423 328.50266476 -91.86201281 323.52582622 -96.20043945 318.54956055 C-100.12608866 314.03646946 -103.93624574 309.44360927 -107.703125 304.796875 C-112.36964836 299.11450982 -117.19944429 293.56912498 -122 288 C-128.30742718 280.68275333 -134.56715397 273.34481032 -140.65625 265.84375 C-143.89963763 261.90843967 -147.23146797 258.05180698 -150.56079102 254.18920898 C-153.57245009 250.68764698 -156.5305895 247.15213443 -159.4375 243.5625 C-163.03636029 239.12760683 -166.74732064 234.80432214 -170.5 230.5 C-174.98421095 225.35661133 -179.36961524 220.15405873 -183.65625 214.84375 C-185.48301633 212.62727352 -187.33404964 210.44777472 -189.21875 208.28125 C-189.77232178 207.64388916 -190.32589355 207.00652832 -190.89624023 206.34985352 C-191.99046212 205.09402347 -193.0888144 203.84177804 -194.19165039 202.59350586 C-198 198.21976233 -198 198.21976233 -198 196 C-198.66 196 -199.32 196 -200 196 C-201.31153763 194.53190495 -202.54994075 192.99804216 -203.75 191.4375 C-206.25763148 188.21144125 -208.78701789 185.05533462 -211.5 182 C-214 179 -214 179 -214 177 C-214.66 177 -215.32 177 -216 177 C-217.74064913 174.9299572 -219.37842807 172.84801759 -221 170.6875 C-225.29444083 165.0846078 -229.80335639 159.81695019 -234.60546875 154.63671875 C-237.74922425 151.17499777 -240.68006886 147.5629658 -243.6171875 143.92578125 C-246.39150223 140.51928661 -249.22049651 137.16254305 -252.0625 133.8125 C-252.55226318 133.23516113 -253.04202637 132.65782227 -253.54663086 132.06298828 C-254.69703343 130.70804681 -255.84840657 129.35392948 -257 128 C-260.85122444 131.07768791 -264.06465081 134.04305564 -267.125 137.9375 C-270.66769188 142.36884691 -274.29108178 146.70691251 -278 151 C-282.29017811 155.97695639 -286.48664412 161.01661435 -290.625 166.12109375 C-294.05081276 170.27376482 -297.57082028 174.34429579 -301.10351562 178.40625 C-303.83979178 181.50231647 -303.83979178 181.50231647 -306 185 C-306.66 185 -307.32 185 -308 185 C-308.21527344 185.52464844 -308.43054688 186.04929688 -308.65234375 186.58984375 C-310.52860799 189.94536559 -313.03490881 192.69085927 -315.5625 195.5625 C-316.65986564 196.82464212 -317.75621177 198.08767134 -318.8515625 199.3515625 C-319.39071289 199.97321289 -319.92986328 200.59486328 -320.48535156 201.23535156 C-322.51488271 203.59986658 -324.47945893 206.01360529 -326.4375 208.4375 C-330.57996379 213.54227843 -334.88119099 218.49622682 -339.20068359 223.45068359 C-343.12501658 227.96234733 -346.93434037 232.55334506 -350.69921875 237.19921875 C-354.38006413 241.6799762 -358.17513193 246.06159186 -361.95703125 250.45703125 C-366.21351925 255.40558716 -370.42167006 260.3947854 -374.63232422 265.38232422 C-376.02459417 267.02908979 -377.42005473 268.67310067 -378.81640625 270.31640625 C-383.04853633 275.30026248 -387.25737398 280.29559272 -391.375 285.375 C-395.54156423 290.49733524 -399.86201281 295.47417378 -404.20043945 300.45043945 C-408.12489097 304.96215363 -411.93426783 309.55325555 -415.69921875 314.19921875 C-419.38006413 318.6799762 -423.17513193 323.06159186 -426.95703125 327.45703125 C-431.21351925 332.40558716 -435.42167006 337.3947854 -439.63232422 342.38232422 C-441.02459417 344.02908979 -442.42005473 345.67310067 -443.81640625 347.31640625 C-448.06740059 352.32234652 -452.29564292 357.3404038 -456.4375 362.4375 C-460.39276025 367.29843701 -464.45973471 372.0540756 -468.55175781 376.79956055 C-471.65426631 380.40545946 -474.69458523 384.05194825 -477.6875 387.75 C-480.48812395 391.20427047 -483.36662668 394.53789895 -486.375 397.8125 C-489.93556813 401.71364422 -493.21171819 405.76156653 -496.4375 409.9375 C-500.59636994 415.31794742 -504.98311594 420.37722883 -509.609375 425.3671875 C-512.73083536 428.80487423 -515.63489808 432.39567716 -518.55078125 436.0078125 C-523.26050052 441.76163222 -528.14299053 447.37047125 -533 453 C-449.43750821 471.44265546 -350.88306609 463.16928457 -265.875 463.1875 C-264.65926678 463.18808914 -263.44353355 463.18867828 -262.19095993 463.18928528 C-232.56755693 463.20161898 -202.96207389 462.97809758 -173.34636879 462.27595615 C-170.48150733 462.21311283 -167.6167192 462.16677406 -164.75152588 462.12197876 C-160.71987782 462.05495401 -156.7026378 461.89266425 -152.67572021 461.68832397 C-150.60789501 461.61465612 -148.54004478 461.54168701 -146.47216797 461.46948242 C-145.52412859 461.40429822 -144.57608921 461.33911402 -143.59932137 461.27195454 C-139.61560469 461.16846059 -137.06298722 461.13406549 -133.8964119 463.71363258 C-132.12358892 465.73524647 -130.56179741 467.81369947 -129 470 C-128.06125827 471.0169953 -127.10012607 472.01398705 -126.11328125 472.984375 C-124.66707852 474.41242455 -123.22110459 475.84071173 -121.77856445 477.27246094 C-120.1881815 478.85082712 -118.59455555 480.42585009 -117 482 C-105.27786752 493.57212347 -105.27786752 493.57212347 -101.625 497.875 C-96.15459733 504.28583509 -89.98688935 510.07795061 -84 516 C-69.65547144 530.18917265 -69.65547144 530.18917265 -64.44091797 536.33203125 C-62.11614219 539.02313056 -59.59847395 541.50962448 -57.0625 544 C-56.56943359 544.48855469 -56.07636719 544.97710938 -55.56835938 545.48046875 C-54.38126771 546.65603525 -53.19099502 547.82838826 -52 549 C-52.33 549.66 -52.66 550.32 -53 551 C-55.1388855 551.385849 -55.1388855 551.385849 -58.03076172 551.57788086 C-59.6767485 551.69154747 -59.6767485 551.69154747 -61.35598755 551.80751038 C-62.57655853 551.88005539 -63.79712952 551.9526004 -65.0546875 552.02734375 C-66.98041092 552.15024025 -66.98041092 552.15024025 -68.94503784 552.27561951 C-85.78124566 553.31909254 -102.64288136 553.87926235 -119.49969482 554.46972656 C-122.98299101 554.59281982 -126.46611488 554.72043604 -129.9492445 554.84814262 C-138.5494498 555.16338515 -147.14999627 555.46604596 -155.75114727 555.75436211 C-159.5799615 555.88285125 -163.40862338 556.01350762 -167.23696899 556.15533447 C-196.60624745 557.24154824 -225.98605007 557.24176948 -255.37219143 557.24931431 C-257.44954665 557.250004 -259.52690083 557.25127299 -261.60425568 557.25267792 C-299.54605788 557.27613331 -337.45200825 556.95232387 -375.375 555.625 C-376.28822399 555.59326187 -377.20144798 555.56152374 -378.14234543 555.52882385 C-404.10737746 554.61959607 -430.0552644 553.36308721 -456 552 C-457.79386139 551.90634155 -457.79386139 551.90634155 -459.6239624 551.81079102 C-466.33397788 551.45825124 -473.04250027 551.08503358 -479.75 550.6875 C-480.74787537 550.62852539 -481.74575073 550.56955078 -482.77386475 550.50878906 C-518.18969884 548.38805576 -553.58677078 545.39222204 -588.88525391 541.8125 C-591.92206435 541.51107961 -594.95777623 541.23992046 -598 541 C-598.86512207 540.92628174 -599.73024414 540.85256348 -600.62158203 540.77661133 C-604.30792523 540.59158107 -606.47786814 540.62854508 -609.53125 542.80078125 C-610.50578125 544.04408203 -610.50578125 544.04408203 -611.5 545.3125 C-612.24507812 546.2303125 -612.99015625 547.148125 -613.7578125 548.09375 C-614.49773438 549.0528125 -615.23765625 550.011875 -616 551 C-617.45522308 552.77339014 -618.91356986 554.54422153 -620.375 556.3125 C-621.11492188 557.22644531 -621.85484375 558.14039063 -622.6171875 559.08203125 C-625.20755752 562.25417289 -627.84678938 565.38046751 -630.5 568.5 C-633.85460405 572.44638883 -637.17222172 576.41642493 -640.4375 580.4375 C-646.33822109 587.68215757 -652.46151221 594.73490003 -658.56152344 601.81152344 C-669.71113883 613.88157853 -669.71113883 613.88157853 -679.2104311 627.11397934 C-681 629 -681 629 -683.88354015 629.49219131 C-685.06804414 629.48850414 -686.25254812 629.48481697 -687.47294617 629.48101807 C-688.46296897 629.48614462 -688.46296897 629.48614462 -689.47299224 629.49137473 C-691.68905824 629.49797408 -693.9039183 629.47594593 -696.11987305 629.45410156 C-697.70650199 629.45297352 -699.29313302 629.4536061 -700.87976074 629.45587158 C-705.1916112 629.45702135 -709.50301843 629.43346986 -713.81476569 629.40557575 C-718.31909943 629.38060566 -722.82344282 629.37822357 -727.32783508 629.37347412 C-735.85953992 629.3610314 -744.39104024 629.32819231 -752.92265493 629.28807616 C-762.63472366 629.24339873 -772.34680205 629.22138156 -782.05894792 629.20129442 C-802.03941285 629.15946077 -822.01969355 629.08908357 -842 629 C-840.38543439 625.63728007 -838.51399141 623.00404093 -836.125 620.125 C-835.32320312 619.15820312 -834.52140625 618.19140625 -833.6953125 617.1953125 C-830.30982119 613.1664019 -826.87696601 609.17808041 -823.44165039 605.19165039 C-820.42885254 601.68954167 -817.47013642 598.15303084 -814.5625 594.5625 C-810.41939009 589.45692535 -806.1176955 584.50199947 -801.79711914 579.54711914 C-798.63534162 575.91262149 -795.53149794 572.24479157 -792.5 568.5 C-788.38106834 563.41190794 -784.09852666 558.47996177 -779.796875 553.546875 C-775.90712503 549.07548018 -772.13546959 544.52370256 -768.41015625 539.9140625 C-764.74902364 535.48747429 -760.96054328 531.17208989 -757.1640625 526.86132812 C-754.33415777 524.25416275 -754.33415777 524.25416275 -753 521 C-753.5456662 520.90501221 -754.0913324 520.81002441 -754.65353394 520.7121582 C-794.18802263 513.82548885 -833.63874431 506.75137949 -872.875 498.3125 C-873.93960449 498.08411438 -875.00420898 497.85572876 -876.10107422 497.62042236 C-889.03765024 494.83743166 -901.9074685 491.86835791 -914.72564697 488.58230591 C-916.90167328 488.02517473 -919.07912429 487.47410129 -921.25732422 486.92553711 C-952.08082607 479.15679666 -982.85244816 471.11741313 -1013 461 C-1014.40243882 460.53267441 -1015.80494946 460.06556432 -1017.20751953 459.59863281 C-1046.66174118 449.77643877 -1075.73905516 439.29939288 -1104.125 426.6875 C-1104.8609137 426.36083344 -1105.59682739 426.03416687 -1106.3550415 425.69760132 C-1116.12535373 421.34419654 -1125.73973375 416.72789496 -1135.27307129 411.87820435 C-1136.79756881 411.10294342 -1138.32484641 410.33315459 -1139.85253906 409.56420898 C-1167.54044503 395.58750577 -1193.74408191 379.06156185 -1216.6875 358.08984375 C-1218.64985514 356.31643159 -1220.64661409 354.61849755 -1222.6875 352.9375 C-1226.55114826 349.62835682 -1229.75942541 345.91188006 -1233 342 C-1233.44005371 341.4829248 -1233.88010742 340.96584961 -1234.33349609 340.43310547 C-1245.51230416 327.27210661 -1254.06164009 313.6595274 -1259 297 C-1259.36351562 295.8759375 -1259.72703125 294.751875 -1260.1015625 293.59375 C-1261.72453086 286.88729562 -1261.44129613 279.86255138 -1261.4375 273 C-1261.43790283 272.2591214 -1261.43830566 271.5182428 -1261.4387207 270.75491333 C-1261.40395986 259.69482192 -1260.77522312 250.14299218 -1256 240 C-1255.71592285 239.35401855 -1255.4318457 238.70803711 -1255.13916016 238.04248047 C-1249.21743058 224.59100694 -1241.09172647 212.96182837 -1231.078125 202.23046875 C-1229.16973109 200.18217378 -1227.36375274 198.07964403 -1225.5625 195.9375 C-1204.1562976 171.50119589 -1173.2121213 154.25681119 -1145 139 C-1143.34895264 138.09737427 -1143.34895264 138.09737427 -1141.66455078 137.17651367 C-1132.68826279 132.29936798 -1123.56419612 127.87899158 -1114.25 123.6875 C-1113.53701752 123.36540558 -1112.82403503 123.04331116 -1112.08944702 122.7114563 C-1098.20161002 116.44530517 -1084.20953466 110.50349459 -1070 105 C-1069.34545837 104.74536987 -1068.69091675 104.49073975 -1068.01654053 104.22839355 C-988.07915633 73.16757895 -903.50371228 51.95314896 -819.18945312 36.75878906 C-815.15926205 36.03175506 -811.13422766 35.27948161 -807.109375 34.5234375 C-782.4783291 29.92525358 -757.74439139 25.93533446 -733 22 C-731.9544696 21.8333786 -731.9544696 21.8333786 -730.88781738 21.66339111 C-722.6048511 20.34615315 -714.30909006 19.13994291 -706 18 C-704.6940387 17.82047791 -704.6940387 17.82047791 -703.36169434 17.6373291 C-664.08646539 12.24939752 -624.77139585 7.56453318 -585.3125 3.75 C-584.45975494 3.66682526 -583.60700989 3.58365051 -582.72842407 3.49795532 C-571.16223909 2.37655584 -559.6069338 1.56004086 -548 1 C-547.67 1.66 -547.34 2.32 -547 3 C-547.75341797 4.7331543 -547.75341797 4.7331543 -548.9921875 6.82421875 C-549.4456958 7.59830078 -549.8992041 8.37238281 -550.36645508 9.16992188 C-550.8642749 10.00072266 -551.36209473 10.83152344 -551.875 11.6875 C-552.37733154 12.54021484 -552.87966309 13.39292969 -553.3972168 14.27148438 C-557.16142647 20.64653798 -560.97816351 26.9912624 -564.83203125 33.3125 C-566.57158135 36.21927713 -568.19870545 39.17792663 -569.8125 42.15625 C-573.78650979 49.48788235 -577.97855272 56.69008512 -582.16113281 63.90405273 C-585.23896835 69.21479078 -588.30772887 74.5286172 -591.31640625 79.87890625 C-591.81567627 80.760625 -592.31494629 81.64234375 -592.8293457 82.55078125 C-593.75572319 84.18861792 -594.67518313 85.83039239 -595.58666992 87.4765625 C-598.66310601 92.887702 -598.66310601 92.887702 -602 94 C-603.59746534 94.23293879 -605.200542 94.42837965 -606.80566406 94.60083008 C-607.78774841 94.7081395 -608.76983276 94.81544891 -609.78167725 94.92601013 C-610.84888 95.0393721 -611.91608276 95.15273407 -613.015625 95.26953125 C-615.30534304 95.51867613 -617.59505639 95.76786403 -619.88476562 96.01708984 C-621.08657471 96.14670105 -622.28838379 96.27631226 -623.52661133 96.40985107 C-670.29219526 101.46710236 -716.8778001 107.76278022 -763.25 115.6875 C-764.02672058 115.81975983 -764.80344116 115.95201965 -765.60369873 116.08828735 C-788.30922217 119.97277565 -810.90023275 124.49352579 -833.4375 129.25 C-834.55698029 129.48610992 -835.67646057 129.72221985 -836.8298645 129.96548462 C-855.72225219 133.96521908 -874.44279264 138.40109508 -893.07330322 143.47717285 C-895.00503614 144.0013666 -896.93842399 144.51892315 -898.87255859 145.03417969 C-914.77717902 149.27568239 -930.5120413 153.89757566 -946.14208984 159.06054688 C-948.83622544 159.94616398 -951.53585707 160.81194279 -954.23828125 161.671875 C-1003.02643763 177.34492399 -1070.51753377 200.97590432 -1096.30078125 249.4453125 C-1101.53618428 260.98223701 -1102.68809548 274.9509758 -1098.3046875 286.89453125 C-1089.17870202 309.35508774 -1070.02705687 324.50913327 -1050 337 C-1049.38946777 337.38833008 -1048.77893555 337.77666016 -1048.14990234 338.17675781 C-1004.63657385 365.7058318 -953.27363691 381.43783537 -904 395 C-903.28730957 395.19702515 -902.57461914 395.39405029 -901.84033203 395.5970459 C-840.14894188 412.63513556 -776.98082691 424.2485688 -713.70214844 433.59423828 C-710.90546927 434.01419498 -708.11286611 434.45582356 -705.3203125 434.90234375 C-704.40983154 435.04567139 -703.49935059 435.18899902 -702.5612793 435.33666992 C-700.89787818 435.59870938 -699.23517523 435.86525292 -697.57348633 436.13793945 C-689.80260354 437.40072865 -689.80260354 437.40072865 -682 437 C-679.12494778 435.06948116 -679.12494778 435.06948116 -677 432.1875 C-676.16210938 431.176875 -675.32421875 430.16625 -674.4609375 429.125 C-673.64882813 428.09375 -672.83671875 427.0625 -672 426 C-670.54256942 424.22842361 -669.08425641 422.45757275 -667.625 420.6875 C-666.8928125 419.78128906 -666.160625 418.87507813 -665.40625 417.94140625 C-662.69414351 414.62612023 -659.9189422 411.37130323 -657.125 408.125 C-651.83997644 401.98301351 -646.59467219 395.80907658 -641.36767578 389.61767578 C-639.97540583 387.97091021 -638.57994527 386.32689933 -637.18359375 384.68359375 C-632.95146367 379.69973752 -628.74262602 374.70440728 -624.625 369.625 C-620.45843577 364.50266476 -616.13798719 359.52582622 -611.79956055 354.54956055 C-607.87510903 350.03784637 -604.06573217 345.44674445 -600.30078125 340.80078125 C-596.62227613 336.32287264 -592.82960344 331.94400705 -589.05078125 327.55078125 C-582.80572679 320.28968997 -576.6036885 312.99446571 -570.5625 305.5625 C-566.60723975 300.70156299 -562.54026529 295.9459244 -558.44824219 291.20043945 C-555.34573369 287.59454054 -552.30541477 283.94805175 -549.3125 280.25 C-545.75848834 275.86992077 -542.03463869 271.68571712 -538.23828125 267.515625 C-535.19482349 264.09505467 -532.32911449 260.54278021 -529.44921875 256.984375 C-526.68189402 253.61238761 -523.84856535 250.3033143 -521 247 C-517.46385091 242.89773502 -513.97136492 238.77197907 -510.5625 234.5625 C-506.42003621 229.45772157 -502.11880901 224.50377318 -497.79931641 219.54931641 C-493.87498342 215.03765267 -490.06565963 210.44665494 -486.30078125 205.80078125 C-482.62227613 201.32287264 -478.82960344 196.94400705 -475.05078125 192.55078125 C-468.80572679 185.28968997 -462.6036885 177.99446571 -456.5625 170.5625 C-450.66177891 163.31784243 -444.53848779 156.26509997 -438.43847656 149.18847656 C-432.65329304 142.47359625 -426.93033706 135.72577754 -421.34375 128.84375 C-418.10036237 124.90843967 -414.76853203 121.05180698 -411.43920898 117.18920898 C-408.42754991 113.68764698 -405.4694105 110.15213443 -402.5625 106.5625 C-398.41939009 101.45692535 -394.1176955 96.50199947 -389.79711914 91.54711914 C-386.63534162 87.91262149 -383.53149794 84.24479157 -380.5 80.5 C-376.38106834 75.41190794 -372.09852666 70.47996177 -367.796875 65.546875 C-363.90353256 61.07135052 -360.12958167 56.51425987 -356.3984375 51.90234375 C-352.8214923 47.57389053 -349.12759599 43.34854744 -345.42773438 39.125 C-344.89728516 38.51785156 -344.36683594 37.91070312 -343.8203125 37.28515625 C-343.34867676 36.74769775 -342.87704102 36.21023926 -342.39111328 35.65649414 C-340.92371563 34.00839388 -340.92371563 34.00839388 -339.81382942 31.93115902 C-338 30 -338 30 -335.14159966 29.47708225 C-333.38237773 29.4611825 -333.38237773 29.4611825 -331.58761597 29.44496155 C-330.93395085 29.43378262 -330.28028574 29.4226037 -329.6068126 29.41108602 C-327.41196514 29.37868806 -325.21801918 29.37499081 -323.02294922 29.37133789 C-321.45090512 29.35446072 -319.8788775 29.33598405 -318.30686951 29.31602478 C-314.0317748 29.26779785 -309.75694892 29.24613732 -305.4816184 29.23217702 C-302.80921499 29.22267235 -300.13688342 29.20822312 -297.46451187 29.19216728 C-288.13680006 29.13715402 -278.80930641 29.10619106 -269.48144531 29.09399414 C-260.79497343 29.08190073 -252.11015663 29.01339258 -243.42422283 28.91926771 C-235.96246384 28.84123664 -228.50125461 28.80571286 -221.03909123 28.80234522 C-216.5841344 28.79946019 -212.13094806 28.77902531 -207.6764183 28.71470833 C-203.48121968 28.65539557 -199.28917317 28.64912277 -195.09372139 28.68264198 C-193.5590407 28.68598778 -192.02418223 28.67072145 -190.48991585 28.63490677 C-178.92538909 28.38119593 -178.92538909 28.38119593 -174.14877701 32.39721489 C-171.86654521 35.1662391 -169.92374698 37.97529277 -168 41 C-166.89005004 42.34435509 -165.76000752 43.67294025 -164.59375 44.96875 C-164.08263672 45.55333984 -163.57152344 46.13792969 -163.04492188 46.74023438 C-162.28018555 47.61131836 -162.28018555 47.61131836 -161.5 48.5 C-157.02292528 53.63073801 -152.65987273 58.83192193 -148.375 64.125 C-145.4750403 67.63547753 -142.49238805 71.06829935 -139.5 74.5 C-135.00492302 79.65575716 -130.61376778 84.87510878 -126.30859375 90.19140625 C-123.58656003 93.50298366 -120.79863676 96.75316116 -118 100 C-114.46394774 104.10235153 -110.97136829 108.22801677 -107.5625 112.4375 C-103.41939009 117.54307465 -99.1176955 122.49800053 -94.79711914 127.45288086 C-90.89578359 131.93750851 -87.11514838 136.5048167 -83.375 141.125 C-80.4750403 144.63547753 -77.49238805 148.06829935 -74.5 151.5 C-70.00252023 156.65851311 -65.61004548 161.88157094 -61.30078125 167.19921875 C-58.61941084 170.46329783 -55.87937137 173.6725072 -53.125 176.875 C-52.61791504 177.46458496 -52.11083008 178.05416992 -51.58837891 178.66162109 C-50.82726807 179.54648193 -50.82726807 179.54648193 -50.05078125 180.44921875 C-43.82477633 187.68816124 -37.6391376 194.95865909 -31.625 202.375 C-27.50063491 207.44207711 -23.23546381 212.37566291 -18.94677734 217.30322266 C-12.03335101 225.24952739 -5.20789637 233.26497484 1.4375 241.4375 C5.8514623 246.85856956 10.39782805 252.15841974 14.95703125 257.45703125 C19.21351925 262.40558716 23.42167006 267.3947854 27.63232422 272.38232422 C29.02459417 274.02908979 30.42005473 275.67310067 31.81640625 277.31640625 C36.13498801 282.40228673 40.42475401 287.50282136 44.625 292.6875 C47.51249827 296.23896846 50.47968021 299.6793029 53.5625 303.0625 C57.14472536 306.99677164 60.48115126 311.06061923 63.7734375 315.23828125 C66.42810306 318.530998 69.17451038 321.73563174 71.9375 324.9375 C75.49504791 329.06034327 79.01072083 333.20441985 82.4375 337.4375 C86.03636029 341.87239317 89.74732064 346.19567786 93.5 350.5 C97.99743351 355.65855495 102.38995284 360.88156886 106.69921875 366.19921875 C109.38058916 369.46329783 112.12062863 372.6725072 114.875 375.875 C115.38208496 376.46458496 115.88916992 377.05416992 116.41162109 377.66162109 C117.17273193 378.54648193 117.17273193 378.54648193 117.94921875 379.44921875 C124.17522367 386.68816124 130.3608624 393.95865909 136.375 401.375 C140.53484347 406.4890728 144.84343504 411.46265945 149.18286133 416.42407227 C153.30290433 421.14873629 157.24532283 425.97911895 161.09765625 430.92578125 C163.07101433 433.07743041 164.3033606 433.95697733 167 435 C169.30765493 435.02453296 169.30765493 435.02453296 171.78515625 434.56640625 C172.76750244 434.4159082 173.74984863 434.26541016 174.76196289 434.11035156 C175.85114014 433.92956055 176.94031738 433.74876953 178.0625 433.5625 C179.23224365 433.3778418 180.4019873 433.19318359 181.60717773 433.00292969 C184.26007543 432.58155031 186.91164802 432.15497944 189.5625 431.72119141 C193.476293 431.08202782 197.39326575 430.46465743 201.31115723 429.85118103 C225.69836928 426.02772529 249.97127707 421.72657061 274.18896484 416.94677734 C277.22422602 416.34772555 280.26063573 415.75577111 283.29931641 415.17431641 C333.8142765 405.50213508 383.40285848 391.75780255 432 375 C432.99483398 374.65727051 433.98966797 374.31454102 435.01464844 373.96142578 C462.83825598 364.27652783 491.53951931 352.58814208 516 336 C516.64694824 335.56896973 517.29389648 335.13793945 517.96044922 334.69384766 C528.11156079 327.90393882 537.36146868 320.63853132 546 312 C546.68449219 311.31550781 547.36898438 310.63101562 548.07421875 309.92578125 C559.53672142 297.63900872 565.49669068 283.34034077 565.34375 266.57421875 C563.48996176 247.29903425 549.37319179 230.77013284 534.97387695 218.88745117 C520.46773174 207.25055966 504.56006399 198.01662518 487.87304688 189.92333984 C486.17737981 189.0874414 484.50138102 188.21193312 482.828125 187.33203125 C422.11875007 155.5426695 350.88926175 140.41910834 284.25146484 126.47137451 C282.0722731 126.01513135 279.89355308 125.5566848 277.71484375 125.09814453 C226.69236105 114.39563234 175.00948586 106.45413789 123.25 100.3125 C122.41924957 100.21209412 121.58849915 100.11168823 120.73257446 100.00823975 C111.88301531 98.93982988 103.03951154 97.97750754 94.1541748 97.25721741 C90.18336103 96.92943797 86.21677463 96.56093746 82.24987793 96.1890564 C80.35908404 96.02360892 78.46639643 95.87834519 76.5723877 95.7550354 C61.9631689 94.80085625 61.9631689 94.80085625 57.2331543 90.46191406 C55.16698265 87.3968454 53.56611637 84.34415894 52 81 C51.0188117 79.4378367 50.01159065 77.89155621 48.97265625 76.3671875 C48.0020168 74.87017234 47.03198177 73.37276514 46.0625 71.875 C40.82576682 63.80382715 35.57583834 55.74134576 30.3125 47.6875 C29.94764496 47.12914459 29.58278992 46.57078918 29.20687866 45.99551392 C24.95946468 39.49764062 20.69447526 33.01270021 16.375 26.5625 C11.4988862 19.27453412 6.64476001 12.00295689 2.39575195 4.32763672 C1.94674026 3.51720917 1.49772858 2.70678162 1.03511047 1.87179565 C0.69352402 1.25410309 0.35193756 0.63641052 0 0 Z " fill="#ED1C24" transform="translate(1261,0)"/>
<path d="M0 0 C2.67565814 -0.0057541 5.35131629 -0.01150756 8.02697444 -0.01725841 C10.42069779 -0.02240884 12.81442112 -0.02756995 15.20814443 -0.03274083 C21.16518985 -0.04559453 27.12223536 -0.05836764 33.07928183 -0.07072749 C51.75174138 -0.10937841 51.75174138 -0.10937841 70.42416263 -0.16284442 C76.05278569 -0.18070779 81.68137893 -0.18819696 87.31002808 -0.19088745 C89.71490219 -0.19391902 92.11977365 -0.20086863 94.52462769 -0.21115112 C155.58282447 -0.45871734 155.58282447 -0.45871734 175.71484375 18.65234375 C188.45296244 31.73885543 194.34134095 48.50174062 194.4375 66.625 C194.153193 84.06191453 189.05930211 101.06104124 176.59765625 113.7578125 C167.42298948 121.67699856 157.60583798 126.48516783 146 130 C144.97648437 130.31839844 143.95296875 130.63679687 142.8984375 130.96484375 C140.60460635 131.66591609 138.30760399 132.34600164 136 133 C136.60585937 133.40089844 137.21171875 133.80179688 137.8359375 134.21484375 C162.05943532 150.64955535 176.17714991 174.36172934 191.08984375 198.87939453 C193.84827299 203.38581612 196.66763528 207.85230268 199.5 212.3125 C200.45328309 213.81760822 201.40641444 215.32281256 202.359375 216.828125 C202.80216797 217.52744141 203.24496094 218.22675781 203.70117188 218.94726562 C205.72585281 222.1471749 207.7460472 225.34956211 209.75 228.5625 C210.38421875 229.57441406 211.0184375 230.58632813 211.671875 231.62890625 C213 234 213 234 213 236 C160.60838207 241.56171286 160.60838207 241.56171286 149.17529297 232.95458984 C141.75186203 225.91391406 137.53179643 216.41187323 133.75708008 207.06152344 C131.32414238 201.15730577 127.70764303 196.17737468 124 191 C122.72278456 189.08758028 121.45123331 187.1713554 120.1875 185.25 C118.79395928 183.16513244 117.39793456 181.08192397 116 179 C115.58878906 178.38608398 115.17757813 177.77216797 114.75390625 177.13964844 C99.38764779 153.25861636 99.38764779 153.25861636 75 140 C66.75 139.34 58.5 138.68 50 138 C50 170.34 50 202.68 50 236 C33.83 236 17.66 236 1 236 C-0.90955361 234.09044639 -0.12291571 231.26132178 -0.12908131 228.72023672 C-0.12616847 227.80877671 -0.12325563 226.8973167 -0.12025452 225.95823669 C-0.12110894 224.99774746 -0.12196337 224.03725824 -0.12284368 223.04766327 C-0.12450141 219.80316001 -0.11897234 216.55870754 -0.11352539 213.31420898 C-0.11324356 210.99882 -0.11340118 208.68343092 -0.1139679 206.36804199 C-0.11425602 200.06044337 -0.10835696 193.75286358 -0.10139394 187.44526935 C-0.09516279 180.86154954 -0.09455679 174.27782935 -0.09336853 167.69410706 C-0.09077542 156.6366442 -0.08435322 145.57918798 -0.07543945 134.52172852 C-0.06626611 123.13045283 -0.0591849 111.73917902 -0.05493164 100.34790039 C-0.05466892 99.64621915 -0.05440619 98.94453792 -0.05413551 98.22159361 C-0.05283051 94.70160751 -0.05156679 91.1816214 -0.05032361 87.66163528 C-0.03995005 58.44108567 -0.0222568 29.22054293 0 0 Z M50 41 C50 60.14 50 79.28 50 99 C57.321875 99.020625 64.64375 99.04125 72.1875 99.0625 C74.45004639 99.071604 76.71259277 99.08070801 79.04370117 99.09008789 C88.86530818 99.11400214 98.67434642 99.03359658 108.48828125 98.62109375 C109.31861374 98.59048355 110.14894623 98.55987335 111.00444031 98.52833557 C121.723087 98.00712855 130.07843353 95.92156647 137.8125 88.1875 C143.5091901 79.88660871 144.09057153 71.92000642 143 62 C140.94789811 54.83664432 136.4929827 48.7486286 130 45 C121.7942951 41.51411015 113.41353575 41.45063884 104.625 41.3125 C103.15118771 41.27946493 101.67739212 41.24567708 100.20361328 41.21118164 C83.47131995 40.85038925 66.73479895 40.93411496 50 41 Z " fill="#000000" transform="translate(1132,781)"/>
<path d="M0 0 C0.86825912 0.00222061 1.73651825 0.00444122 2.63108826 0.00672913 C4.12315796 0.0069104 4.12315796 0.0069104 5.64537048 0.00709534 C6.69825256 0.0122113 7.75113464 0.01732727 8.83592224 0.02259827 C10.27928955 0.02410889 10.27928955 0.02410889 11.7518158 0.02565002 C15.36189457 0.03089991 18.97195642 0.04486104 22.58201599 0.05775452 C30.64639099 0.07837952 38.71076599 0.09900452 47.01951599 0.12025452 C47.01951599 30.48025452 47.01951599 60.84025452 47.01951599 92.12025452 C76.71951599 91.79025452 106.41951599 91.46025452 137.01951599 91.12025452 C136.97989914 61.54614879 136.97989914 61.54614879 136.9294281 31.97206116 C136.9249115 26.26368713 136.9249115 26.26368713 136.92407227 23.59484863 C136.92253253 21.7232235 136.91900701 19.85159938 136.91394043 17.97998047 C136.9066644 15.15180222 136.90560852 12.3236848 136.9059906 9.49549866 C136.90239249 8.65594415 136.89879438 7.81638964 136.89508724 6.95139408 C136.90548965 1.23428085 136.90548965 1.23428085 138.01951599 0.12025452 C139.55434569 0.02706002 141.09343682 0.00279651 142.63108826 0.00672913 C143.61202957 0.00680466 144.59297089 0.00688019 145.6036377 0.00695801 C146.6702916 0.01211929 147.7369455 0.01728058 148.83592224 0.02259827 C150.46520912 0.02472069 150.46520912 0.02472069 152.12741089 0.02688599 C155.61230674 0.03250403 159.09713941 0.04505959 162.58201599 0.05775452 C164.93813486 0.06276719 167.29425473 0.0673305 169.65037537 0.07142639 C175.44011063 0.08247933 181.2298088 0.09923501 187.01951599 0.12025452 C187.042306 30.04084174 187.06001398 59.96142868 187.07058132 89.8820227 C187.0718321 93.41073345 187.07312641 96.93944418 187.07444763 100.46815491 C187.0748411 101.52195315 187.0748411 101.52195315 187.07524251 102.59704024 C187.07959928 113.9871537 187.08748686 125.37726213 187.09666879 136.7673726 C187.10600514 148.44605538 187.11149666 160.12473522 187.11360449 171.80342156 C187.11491204 178.36678025 187.11800069 184.93012754 187.12524605 191.49348259 C187.13200216 197.66326188 187.13413379 203.83302498 187.13262367 210.00280762 C187.13290019 212.27448171 187.13490772 214.54615631 187.13872147 216.81782722 C187.14365232 219.90473552 187.14251654 222.99158166 187.13977051 226.07849121 C187.14413977 227.44568122 187.14413977 227.44568122 187.1485973 228.84049124 C187.1336372 235.00613331 187.1336372 235.00613331 186.01951599 236.12025452 C184.52081551 236.21856598 183.01753061 236.24823908 181.51560974 236.24964905 C180.07907043 236.25437729 180.07907043 236.25437729 178.61351013 236.25920105 C177.57186707 236.25717682 176.530224 236.25515259 175.45701599 236.25306702 C174.39539246 236.25402374 173.33376892 236.25498047 172.23997498 236.25596619 C169.99038128 236.25664816 167.74078562 236.2547927 165.49119568 236.25062561 C162.03444528 236.24527761 158.57782482 236.25057006 155.12107849 236.25697327 C152.9413907 236.25631249 150.761703 236.25503133 148.58201599 236.25306702 C147.54037292 236.25509125 146.49872986 236.25711548 145.42552185 236.25920105 C144.46782898 236.25604889 143.51013611 236.25289673 142.52342224 236.24964905 C141.67594421 236.24885345 140.82846619 236.24805786 139.95530701 236.24723816 C138.01951599 236.12025452 138.01951599 236.12025452 137.01951599 235.12025452 C136.92417946 232.01518201 136.89400473 228.93238994 136.9059906 225.82704163 C136.90584457 224.85153854 136.90569855 223.87603546 136.9055481 222.87097168 C136.90624766 219.62982499 136.91404208 216.38873498 136.92185974 213.14759827 C136.92372377 210.90700309 136.92514774 208.6664075 136.92614746 206.42581177 C136.92997386 200.51565942 136.93980519 194.60553147 136.95085144 188.69538879 C136.96285689 181.61110183 136.96746722 174.52680673 136.97330475 167.44251251 C136.98301688 156.66840952 137.00217259 145.89436011 137.01951599 135.12025452 C107.31951599 134.79025452 77.61951599 134.46025452 47.01951599 134.12025452 C47.01951599 167.78025452 47.01951599 201.44025452 47.01951599 236.12025452 C30.84951599 236.12025452 14.67951599 236.12025452 -1.98048401 236.12025452 C-3.88463072 234.21610781 -3.10613375 231.40546362 -3.11422741 228.87132645 C-3.11199669 227.96443951 -3.10976597 227.05755257 -3.10746765 226.1231842 C-3.10902764 225.16748409 -3.11058763 224.21178398 -3.1121949 223.22712326 C-3.11620932 219.9987767 -3.11301355 216.77047649 -3.10987854 213.54212952 C-3.11123238 211.23821485 -3.11301222 208.93430039 -3.1151886 206.63038635 C-3.11976493 200.35371373 -3.11797255 194.07705745 -3.11480951 187.80038452 C-3.11228694 181.2478277 -3.11462316 174.69527233 -3.11619568 168.14271545 C-3.11833491 156.43049145 -3.11501669 144.71827435 -3.10993634 133.00605154 C-3.1054683 122.37614674 -3.10624423 111.74625287 -3.1108551 101.11634827 C-3.11620073 88.78669158 -3.11820178 76.45704187 -3.11524284 64.12738419 C-3.11367959 57.59534187 -3.1134876 51.06330709 -3.11677933 44.53126526 C-3.1196568 38.39183804 -3.11768464 32.25243156 -3.11188507 26.11300659 C-3.1105568 23.85262079 -3.1109527 21.59223327 -3.11314774 19.33184814 C-3.11585664 16.26031639 -3.11248131 13.18885221 -3.10746765 10.11732483 C-3.10969837 9.21043789 -3.11192909 8.30355095 -3.11422741 7.36918259 C-3.09129081 0.18770244 -3.09129081 0.18770244 0 0 Z " fill="#000000" transform="translate(680.9804840087891,780.8797454833984)"/>
<path d="M0 0 C1.28958838 0.00092179 2.57917677 0.00184359 3.90784359 0.00279331 C4.98105772 0.00151167 4.98105772 0.00151167 6.07595295 0.00020415 C8.49129045 -0.00145276 10.90655964 0.00407412 13.32189083 0.00952244 C15.04615432 0.00980429 16.77041794 0.00964661 18.49468136 0.00907993 C23.19076379 0.00879188 27.8868209 0.01468981 32.58289742 0.02165389 C37.4849839 0.02788619 42.3870709 0.02849113 47.28916073 0.0296793 C56.57874127 0.03279298 65.86831011 0.04100686 75.15788549 0.05102879 C85.73086192 0.06218878 96.30383889 0.06770009 106.87681973 0.07272422 C128.63252525 0.08318945 150.38821472 0.10153539 172.14391232 0.12304783 C172.14391232 13.65304783 172.14391232 27.18304783 172.14391232 41.12304783 C130.56391232 41.12304783 88.98391232 41.12304783 46.14391232 41.12304783 C46.14391232 57.62304783 46.14391232 74.12304783 46.14391232 91.12304783 C84.75391232 91.12304783 123.36391232 91.12304783 163.14391232 91.12304783 C163.14391232 104.98304783 163.14391232 118.84304783 163.14391232 133.12304783 C124.53391232 133.12304783 85.92391232 133.12304783 46.14391232 133.12304783 C46.14391232 153.25304783 46.14391232 173.38304783 46.14391232 194.12304783 C89.04391232 194.12304783 131.94391232 194.12304783 176.14391232 194.12304783 C176.14391232 207.98304783 176.14391232 221.84304783 176.14391232 236.12304783 C152.82248093 236.14559268 129.50105833 236.16402573 106.17961884 236.17486 C95.35187611 236.18002351 84.52414063 236.18706725 73.69640255 236.19848728 C64.26256825 236.20843245 54.82873918 236.21490086 45.39489979 236.21713632 C40.39649745 236.21844372 35.39811011 236.22153136 30.39971256 236.22877789 C25.70076222 236.23553547 21.00183312 236.23766533 16.30287838 236.23615551 C14.57302326 236.23643196 12.84316747 236.23843863 11.11331654 236.2422533 C8.76208409 236.24718647 6.41093317 236.24604753 4.05969906 236.24330235 C2.7406133 236.24422414 1.42152754 236.24514593 0.06246948 236.24609566 C-2.85608768 236.12304783 -2.85608768 236.12304783 -3.85608768 235.12304783 C-3.95631773 232.11655663 -3.99046777 229.13295891 -3.98307133 226.12597752 C-3.98463132 225.1702774 -3.98619131 224.21457729 -3.98779857 223.22991657 C-3.991813 220.00157001 -3.98861722 216.77326981 -3.98548222 213.54492283 C-3.98683606 211.24100816 -3.9886159 208.9370937 -3.99079227 206.63317966 C-3.99536861 200.35650704 -3.99357623 194.07985076 -3.99041319 187.80317783 C-3.98789061 181.25062101 -3.99022684 174.69806564 -3.99179935 168.14550877 C-3.99393859 156.43328476 -3.99062037 144.72106766 -3.98554002 133.00884485 C-3.98107197 122.37894006 -3.9818479 111.74904618 -3.98645878 101.11914158 C-3.99180441 88.7894849 -3.99380545 76.45983518 -3.99084651 64.1301775 C-3.98928327 57.59813519 -3.98909127 51.06610041 -3.992383 44.53405857 C-3.99526048 38.39463136 -3.99328831 32.25522487 -3.98748875 26.1157999 C-3.98616048 23.85541411 -3.98655638 21.59502658 -3.98875141 19.33464146 C-3.99146032 16.26310971 -3.98808499 13.19164552 -3.98307133 10.12011814 C-3.98530205 9.2132312 -3.98753277 8.30634426 -3.98983109 7.3719759 C-3.9668319 0.17090163 -3.9668319 0.17090163 0 0 Z " fill="#000000" transform="translate(917.8560876846313,780.8769521713257)"/>
<path d="M0 0 C11.31561447 10.68556912 19.14508985 26.17460161 22.87890625 41.15625 C22.87890625 42.47625 22.87890625 43.79625 22.87890625 45.15625 C17.00794915 46.56471555 11.13635424 47.97047992 5.26416016 49.3737793 C3.26789006 49.8512327 1.27179416 50.32941503 -0.72412109 50.80834961 C-3.59817404 51.49786455 -6.47284964 52.18472877 -9.34765625 52.87109375 C-10.23538727 53.08467026 -11.12311829 53.29824677 -12.03775024 53.51829529 C-16.3837463 54.55322365 -20.69852467 55.49507909 -25.12109375 56.15625 C-25.35183594 55.55039062 -25.58257813 54.94453125 -25.8203125 54.3203125 C-30.82061954 39.75975212 -30.82061954 39.75975212 -41.12109375 29.15625 C-41.12109375 28.49625 -41.12109375 27.83625 -41.12109375 27.15625 C-41.76046875 26.929375 -42.39984375 26.7025 -43.05859375 26.46875 C-46.12109375 25.15625 -46.12109375 25.15625 -47.859375 24.015625 C-59.76389016 16.34125795 -74.58322634 16.16126996 -88.09960938 18.70556641 C-100.38708292 21.44502005 -110.89392541 28.90802515 -118.12109375 39.15625 C-128.34000311 55.87810168 -130.30873775 74.06505347 -130.30639648 93.33129883 C-130.30857123 95.32312133 -130.32705207 97.31490426 -130.34570312 99.30664062 C-130.37818615 121.23268495 -127.23170419 144.52452606 -111.47265625 160.96875 C-99.23897867 172.34891519 -85.81306311 174.74006459 -69.70703125 174.49609375 C-58.75735731 174.05407174 -50.0981919 169.596115 -42.12109375 162.15625 C-41.59257813 161.68058594 -41.0640625 161.20492187 -40.51953125 160.71484375 C-31.79642948 151.78182777 -27.19303725 137.95898029 -24.12109375 126.15625 C-16.44747141 127.47380252 -9.194505 129.59312751 -1.80859375 132.03125 C0.39436349 132.74791173 2.59748702 133.4640625 4.80078125 134.1796875 C6.36989258 134.69160645 6.36989258 134.69160645 7.97070312 135.21386719 C13.2536906 136.9257822 18.56295054 138.54983794 23.87890625 140.15625 C22.0152826 152.49597163 16.7532984 163.28948926 10.87890625 174.15625 C10.34523438 175.14882813 9.8115625 176.14140625 9.26171875 177.1640625 C-1.86289038 196.14784823 -21.22619028 209.02572729 -42.24609375 214.53125 C-44.53203538 215.0965904 -46.82327251 215.64131657 -49.12109375 216.15625 C-49.83402588 216.3313208 -50.54695801 216.5063916 -51.28149414 216.68676758 C-55.11595538 217.32073447 -58.92065269 217.35869256 -62.796875 217.39453125 C-63.63969528 217.402603 -64.48251556 217.41067474 -65.35087585 217.41899109 C-67.13697275 217.43279722 -68.92309565 217.44353484 -70.70922852 217.45141602 C-72.50585867 217.46284721 -74.30245732 217.48315545 -76.09887695 217.51293945 C-88.12591055 217.71192633 -98.59697034 216.74636973 -110.12109375 213.15625 C-111.14114502 212.84510254 -112.16119629 212.53395508 -113.2121582 212.21337891 C-137.25080839 204.55640063 -156.94547041 185.07093207 -168.39111328 163.10083008 C-173.37573796 153.20512436 -176.96171305 143.49524452 -179.30859375 132.65625 C-179.47584961 131.88498779 -179.64310547 131.11372559 -179.81542969 130.3190918 C-187.27522151 93.79302865 -182.73046774 50.8271524 -162.12109375 19.15625 C-159.59941198 15.68471869 -156.91703544 12.40867196 -154.12109375 9.15625 C-153.59257812 8.48335937 -153.0640625 7.81046875 -152.51953125 7.1171875 C-137.51897413 -11.43029938 -113.61683308 -21.5116206 -90.57421875 -25.2578125 C-56.54961873 -28.51548697 -26.22543019 -22.79632238 0 0 Z " fill="#000000" transform="translate(616.12109375,802.84375)"/>
<path d="M0 0 C7.36261724 -0.11591817 14.72503734 -0.20472648 22.08838272 -0.25906086 C25.50765493 -0.28514091 28.92630228 -0.3205065 32.34521484 -0.37719727 C36.27694178 -0.44198227 40.20841689 -0.4661939 44.140625 -0.48828125 C45.36678528 -0.51408768 46.59294556 -0.5398941 47.85626221 -0.56648254 C48.99714294 -0.5668602 50.13802368 -0.56723785 51.31347656 -0.56762695 C52.31719299 -0.57873001 53.32090942 -0.58983307 54.3550415 -0.60127258 C57.98835067 0.22467958 58.98476149 1.96022199 61 5 C61.87529566 6.49707581 62.70722096 8.02013822 63.5 9.5625 C66.4332712 15.06516825 69.59415593 20.40951639 72.8125 25.75 C73.34069336 26.6265625 73.86888672 27.503125 74.41308594 28.40625 C75.94075098 30.93829151 77.47028921 33.46919408 79 36 C84.75113814 45.53712369 90.44559105 55.10753246 96.125 64.6875 C96.7943457 65.81615479 97.46369141 66.94480957 98.15332031 68.10766602 C102.46590224 75.38767451 106.74623715 82.68548175 111 90 C113.17535828 87.19772112 115.04796907 84.34073669 116.828125 81.2734375 C117.64518921 79.86940674 117.64518921 79.86940674 118.47875977 78.43701172 C119.06326904 77.42654785 119.64777832 76.41608398 120.25 75.375 C120.86480225 74.31684082 121.47960449 73.25868164 122.11303711 72.16845703 C127.24612524 63.32564942 132.34559104 54.46342575 137.4465332 45.60205078 C142.05328809 37.61060654 146.71919193 29.65591959 151.43774414 21.72998047 C155.71493914 14.53311326 159.84382726 7.2733023 164 0 C182.81 0 201.62 0 221 0 C219.67282517 3.31793707 218.59601543 5.87766349 216.78515625 8.828125 C216.35227295 9.53614258 215.91938965 10.24416016 215.47338867 10.97363281 C215.00779541 11.72483398 214.54220215 12.47603516 214.0625 13.25 C213.57305908 14.0450293 213.08361816 14.84005859 212.5793457 15.65917969 C208.46052304 22.32052619 204.21923348 28.89848791 199.9453125 35.4609375 C190.63749864 49.7684496 181.57325825 64.23655414 172.46777344 78.67333984 C169.48129241 83.4073991 166.49151882 88.13938044 163.50170898 92.87133789 C160.98655755 96.85253358 158.47356735 100.83506273 155.96484375 104.8203125 C155.45759766 105.62533203 154.95035156 106.43035156 154.42773438 107.25976562 C153.4920033 108.74491678 152.55699721 110.23052524 151.62304688 111.71679688 C151.17896484 112.42126953 150.73488281 113.12574219 150.27734375 113.8515625 C149.82482239 114.59347336 149.37230103 115.33538422 148.90606689 116.09977722 C147.447976 118.31837115 145.9672184 120.32637133 144.31915283 122.39411926 C135.11189152 134.44523357 134.45281871 144.73009877 134.70703125 159.53515625 C134.70510488 161.75289319 134.69831909 163.97063067 134.68693542 166.18833923 C134.670089 171.96765371 134.71833643 177.74457406 134.78112793 183.52349854 C134.84286506 190.48790287 134.82202436 197.45251161 134.81536102 204.41712189 C134.8143648 214.94622687 134.91687125 225.4697137 135 236 C118.83 236 102.66 236 86 236 C86.07863281 229.09707031 86.15726563 222.19414063 86.23828125 215.08203125 C86.25914179 210.66578595 86.27610376 206.25019214 86.27929688 201.83398438 C86.28471023 194.8489424 86.30326901 187.86594368 86.40795898 180.8815918 C86.49161387 175.23971875 86.50976484 169.60084465 86.48558617 163.95844078 C86.48735562 161.82372753 86.51134391 159.68889408 86.55968666 157.55472755 C86.90511365 141.33756729 83.06911603 131.18281679 73.51118469 118.08819771 C71.56687695 115.40149833 69.82637658 112.62919607 68.08984375 109.8046875 C67.04036223 108.16062793 65.9896229 106.51737046 64.9375 104.875 C63.75883739 103.02882278 62.58045693 101.18246539 61.40234375 99.3359375 C60.83112793 98.44100586 60.25991211 97.54607422 59.67138672 96.62402344 C57.10210763 92.59033783 54.55050643 88.54557219 52 84.5 C47.68361931 77.65581407 43.34721487 70.82464077 39 64 C33.14104875 54.80120608 27.30793299 45.58643591 21.48974609 36.36181641 C19.40995939 33.06456033 17.32925988 29.76788152 15.24780273 26.47167969 C14.22185937 24.8464801 13.19661113 23.22084145 12.17211914 21.59472656 C10.04304976 18.21809722 7.90907151 14.84630212 5.7265625 11.50390625 C5.09492187 10.53324219 4.46328125 9.56257812 3.8125 8.5625 C3.28269531 7.75941406 2.75289062 6.95632813 2.20703125 6.12890625 C1.02717423 4.04792865 0.52606041 2.31327427 0 0 Z " fill="#000000" transform="translate(1332,781)"/>
</svg>
