<?xml version="1.0" encoding="UTF-8"?>
<svg version="1.1" xmlns="http://www.w3.org/2000/svg" width="2000" height="1730">
<path d="M0 0 C8.85443346 0.37385386 16.56622223 3.51730768 24.75 6.625 C27.51368704 7.66408347 30.27962995 8.69699432 33.046875 9.7265625 C33.75730453 9.99138428 34.46773407 10.25620605 35.19969177 10.52905273 C41.71039516 12.93530667 48.28726627 15.12128807 54.87849426 17.2951355 C63.97027726 20.301504 72.99260327 23.493359 82.01257324 26.70773315 C87.19824492 28.55559264 92.38637171 30.39653983 97.57421875 32.23828125 C98.65897491 32.62355484 99.74373108 33.00882843 100.86135864 33.40577698 C113.64763807 37.94457998 126.44917609 42.43992226 139.25 46.9375 C154.23889673 52.20484926 169.22213396 57.4854027 184.17675781 62.84936523 C191.87727924 65.60873916 199.59875123 68.30378808 207.32885742 70.97900391 C214.48601501 73.46080746 221.62005788 76.00368321 228.75 78.5625 C240.68362428 82.84272904 252.65040502 87.0234909 264.625 91.1875 C282.19419537 97.29777613 299.72401452 103.51301519 317.23451233 109.78938293 C331.39711106 114.86538968 345.57981638 119.87346298 359.8125 124.75 C369.56553886 128.10117471 379.2939601 131.51454955 389 135 C402.17397634 139.72964305 415.4003525 144.29886205 428.63867188 148.84472656 C443.32850164 153.89355533 457.9760922 159.05274426 472.60009766 164.2890625 C485.96130675 169.06838403 499.36488653 173.72146749 512.78515625 178.33203125 C525.37919791 182.66072149 537.95509077 187.0313456 550.5 191.5 C568.2727693 197.82860796 586.10891237 203.96892531 603.96484375 210.05859375 C607.14332136 211.14295914 610.32168651 212.22765367 613.5 213.3125 C614.69254395 213.71940063 614.69254395 213.71940063 615.90917969 214.13452148 C628.1510918 218.31375088 640.36386519 222.5712155 652.5625 226.875 C662.68329518 230.44533614 672.80712317 233.98813493 683.0012207 237.3449707 C691.10673941 240.01838397 699.17822785 242.7893302 707.25 245.5625 C710.25649424 246.59509919 713.26301118 247.62763228 716.26953125 248.66015625 C717.04397079 248.92615128 717.81841034 249.1921463 718.61631775 249.46620178 C727.48669518 252.51203013 736.3611339 255.54595953 745.2364502 258.57736206 C747.01491648 259.18485936 748.79331983 259.79254094 750.57165527 260.40042114 C751.42038208 260.6905307 752.26910889 260.98064026 753.14355469 261.27954102 C753.97063934 261.56249527 754.797724 261.84544952 755.64987183 262.13697815 C757.25617423 262.68455704 758.86351419 263.22910318 760.47195435 263.77037048 C763.85522599 264.91023177 767.20351275 266.07847087 770.53564453 267.36328125 C771.5564209 267.74871094 772.57719727 268.13414062 773.62890625 268.53125 C774.46623291 268.86705078 775.30355957 269.20285156 776.16625977 269.54882812 C783.07511134 270.64881587 790.33493331 267.35291258 796.79296875 265.09375 C797.60883453 264.81299622 798.42470032 264.53224243 799.26528931 264.24298096 C801.90752926 263.33294589 804.54747515 262.4164388 807.1875 261.5 C810.89247602 260.22176829 814.59859393 258.94686224 818.3046875 257.671875 C819.22351212 257.35526917 820.14233673 257.03866333 821.08900452 256.71246338 C828.97731645 253.99772648 836.89007861 251.36336327 844.8125 248.75 C855.4225634 245.24065466 865.95342171 241.54469428 876.46411133 237.74902344 C886.18021195 234.2551336 895.96430042 230.99104981 905.76928711 227.7565918 C915.60050978 224.49995538 925.35321814 221.05029549 935.09594727 217.5390625 C941.8508217 215.10974086 948.62016829 212.74802096 955.4375 210.5 C974.53481258 204.2024848 993.51078348 197.55382424 1012.45223999 190.80435181 C1023.03494098 187.03411263 1033.64586803 183.35232183 1044.27270508 179.70800781 C1052.76836286 176.7876436 1061.23302346 173.78735532 1069.6875 170.75 C1077.78895062 167.83955484 1085.90085843 164.99727929 1094.08154297 162.31835938 C1102.08106239 159.6791178 1109.9949375 156.80133198 1117.921875 153.953125 C1126.42614489 150.90356824 1134.95384975 147.92997693 1143.5 145 C1153.02468987 141.73337043 1162.52335818 138.40350772 1172 135 C1182.68559742 131.16229947 1193.40489441 127.43347673 1204.14453125 123.75 C1213.62620282 120.49099366 1223.06883135 117.13034522 1232.50463867 113.74121094 C1240.58547171 110.84527439 1248.69092116 108.02938476 1256.8125 105.25 C1269.26588303 100.98495554 1281.65433886 96.55061072 1294.03701782 92.08508301 C1305.63685108 87.90358673 1317.2613063 83.81504341 1328.9296875 79.828125 C1339.1568371 76.32037213 1349.32938168 72.66783544 1359.5 69 C1371.9451339 64.51190481 1384.41037718 60.10579367 1396.9296875 55.828125 C1407.15684236 52.32037033 1417.32929228 48.66759776 1427.5 45 C1438.62206222 40.99012434 1449.75046808 37.01317247 1460.9375 33.1875 C1472.89048755 29.09877665 1484.80451213 24.90436352 1496.71151733 20.68371582 C1499.85266935 19.57041453 1502.99430172 18.45847701 1506.13598633 17.34667969 C1515.35682753 14.08115921 1524.57177173 10.80174537 1533.765625 7.4609375 C1535.89402388 6.69132329 1538.02267275 5.92240534 1540.15142822 5.15377808 C1542.0669771 4.45855854 1543.9785355 3.753105 1545.89013672 3.04711914 C1547.58807373 2.43404907 1547.58807373 2.43404907 1549.3203125 1.80859375 C1550.76301514 1.27963501 1550.76301514 1.27963501 1552.23486328 0.73999023 C1555.26094211 -0.06983185 1557.88126965 -0.13328154 1561 0 C1557.82078518 6.03148911 1554.53459437 11.87742959 1550.6875 17.5078125 C1548.63720662 20.53579208 1546.6598764 23.60853484 1544.6875 26.6875 C1544.11358521 27.58239136 1544.11358521 27.58239136 1543.52807617 28.49536133 C1542.74293576 29.71990574 1541.9580256 30.9445978 1541.17333984 32.16943359 C1539.28534316 35.11495983 1537.39245059 38.05733425 1535.5 41 C1534.7434813 42.17707801 1533.98697088 43.35416134 1533.23046875 44.53125 C1531.79694763 46.7613097 1530.36182582 48.99031172 1528.92578125 51.21875 C1523.80389545 59.17140078 1518.72068015 67.14816813 1513.64575195 75.13085938 C1508.43964651 83.31672511 1503.21050112 91.48771076 1497.97802734 99.65673828 C1492.90256588 107.58322296 1487.84643499 115.52184119 1482.796875 123.46484375 C1479.01376552 129.41345728 1475.20922329 135.34753867 1471.390625 141.2734375 C1468.92913282 145.10218833 1466.49106798 148.94573283 1464.05126953 152.78833008 C1458.94931616 160.82297311 1453.82361056 168.84000697 1448.625 176.8125 C1441.70124075 187.43175615 1434.87293302 198.11126435 1428.04833984 208.79443359 C1424.70186624 214.03152519 1421.35076868 219.26565584 1418 224.5 C1413.93995508 230.84282312 1409.88067194 237.18612909 1405.82421875 243.53125 C1399.05004907 254.12548202 1392.26162266 264.70970127 1385.421875 275.26171875 C1374.8007402 291.64777876 1364.31494019 308.1219417 1353.796875 324.57421875 C1347.62948108 334.2191979 1341.4563952 343.85980085 1335.22583008 353.46411133 C1329.68255122 362.01786622 1324.20215618 370.61199869 1318.7109375 379.19921875 C1315.31391148 384.51119349 1311.90652772 389.81632468 1308.4921875 395.1171875 C1306.32225903 398.49200227 1304.16510045 401.874906 1302.0078125 405.2578125 C1300.91278525 406.97353787 1299.81762109 408.68917578 1298.72241211 410.40478516 C1297.64518893 412.09335346 1296.56964852 413.7829949 1295.49414062 415.47265625 C1294.49543945 417.03693359 1294.49543945 417.03693359 1293.4765625 418.6328125 C1292.5805835 420.03877686 1292.5805835 420.03877686 1291.66650391 421.47314453 C1290.18592069 423.71809565 1288.64094128 425.87058666 1287 428 C1282.79993042 427.30494951 1279.04440033 425.98705507 1275.0703125 424.47265625 C1274.38414352 424.2123613 1273.69797455 423.95206635 1272.99101257 423.68388367 C1270.70086265 422.81392262 1268.41293743 421.93826158 1266.125 421.0625 C1264.49579796 420.44209096 1262.86648203 419.82198091 1261.23706055 419.20214844 C1256.77734593 417.50414947 1252.31978342 415.80057047 1247.862854 414.09527588 C1244.9340609 412.9747729 1242.00490993 411.85520973 1239.07568359 410.73583984 C1222.64296322 404.45532608 1206.21414494 398.16455566 1189.796875 391.84375 C1188.63752441 391.39757324 1187.47817383 390.95139648 1186.28369141 390.49169922 C1184.19920622 389.68817552 1182.11549348 388.88264388 1180.03271484 388.07470703 C1175.68445125 386.39182202 1171.3316763 384.74844123 1166.9296875 383.2109375 C1166.16132568 382.93862305 1165.39296387 382.66630859 1164.60131836 382.38574219 C1162.63352852 381.69391852 1160.65889335 381.02164332 1158.68359375 380.3515625 C1156 379 1156 379 1154.88671875 377.19921875 C1155.05807104 373.87262083 1156.55638772 371.9572256 1158.375 369.1875 C1159.128676 368.01631405 1159.88123963 366.84441168 1160.6328125 365.671875 C1161.02629883 365.06537109 1161.41978516 364.45886719 1161.82519531 363.83398438 C1163.69959724 360.90786067 1165.47326487 357.9235756 1167.25 354.9375 C1168.00886993 353.66912443 1168.76799335 352.40090049 1169.52734375 351.1328125 C1169.92421387 350.46926758 1170.32108398 349.80572266 1170.72998047 349.12207031 C1173.08721148 345.18338289 1175.45036582 341.24824807 1177.8125 337.3125 C1178.83986779 335.60027484 1179.86721133 333.88803513 1180.89453125 332.17578125 C1199.00000001 301.99999998 1199.00000001 301.99999998 1200.50048828 299.49926758 C1201.49895645 297.83509978 1202.49732908 296.17087465 1203.49560547 294.5065918 C1206.0182562 290.30121369 1208.54263731 286.09689155 1211.0703125 281.89453125 C1217.44105254 271.29825899 1223.75297805 260.66969235 1230 250 C1214.50184923 257.34430981 1214.50184923 257.34430981 1199.125 264.9375 C1191.74293813 268.66230632 1184.28998782 272.23200535 1176.83007812 275.79785156 C1164.94505064 281.48793994 1153.10674376 287.27350831 1141.26928711 293.06176758 C1132.37474291 297.4068512 1123.45973457 301.70304064 1114.50210571 305.91679382 C1106.31331711 309.77420086 1098.23578777 313.84738938 1090.15820312 317.93115234 C1080.23388458 322.94362166 1070.23214014 327.78116903 1060.20141602 332.57714844 C1054.44152862 335.33507352 1048.69980135 338.11999608 1043 341 C1032.08571075 346.50856563 1021.03034646 351.72910763 1010 357 C1007.76035557 358.0714869 1005.52077181 359.1431006 1003.28125 360.21484375 C997.85486398 362.81135572 992.42773565 365.40631057 987 368 C989.93731501 369.95821001 992.57598947 371.10997345 995.85546875 372.390625 C997.0269043 372.84969238 998.19833984 373.30875977 999.40527344 373.78173828 C1000.66594477 374.27134134 1001.92668847 374.7607581 1003.1875 375.25 C1004.47825641 375.75357358 1005.76894627 376.25731776 1007.05957031 376.76123047 C1015.30919879 379.97722715 1023.57653678 383.14106033 1031.88037109 386.21484375 C1047.20930705 391.89301215 1062.48050327 397.7118028 1077.71899414 403.62744141 C1084.97036672 406.44215957 1092.22717757 409.24106666 1099.5 412 C1144.03683554 428.91851964 1144.03683554 428.91851964 1158 435 C1158.69689941 435.30325195 1159.39379883 435.60650391 1160.11181641 435.91894531 C1174.86557466 442.41546969 1187.84813106 450.29999102 1200 461 C1200.63292969 461.54914063 1201.26585937 462.09828125 1201.91796875 462.6640625 C1215.96174556 475.71159885 1224.38203958 495.19939056 1225.24609375 514.234375 C1225.75615058 534.73728724 1219.56091486 552.18113105 1210 570 C1209.67580078 570.61359375 1209.35160156 571.2271875 1209.01757812 571.859375 C1202.44215187 584.24287394 1194.74699618 595.93284653 1187.13476562 607.69482422 C1183.63252491 613.11720925 1180.1621366 618.559904 1176.6875 624 C1171.88373446 631.51045285 1167.06169725 639.00843196 1162.21044922 646.48828125 C1154.03608212 659.10412483 1145.96787379 671.78883741 1137.875 684.45703125 C1131.22204706 694.86705832 1124.5449541 705.25943737 1117.79663086 715.60791016 C1113.1736741 722.70793627 1108.62562418 729.8544791 1104.08496094 737.00732422 C1100.62275768 742.45851417 1097.140783 747.8957221 1093.625 753.3125 C1089.16107877 760.19150643 1084.73133914 767.09195043 1080.3125 774 C1079.29700073 775.58748047 1079.29700073 775.58748047 1078.26098633 777.20703125 C1074.79746968 782.62272666 1071.33582837 788.03961765 1067.875 793.45703125 C1061.12946378 804.01171647 1054.3554373 814.54555534 1047.51098633 825.03637695 C1044.28548117 829.99107075 1041.11694898 834.97638991 1038 840 C1032.14835481 849.4295695 1026.06765659 858.708568 1020 868 C1012.63272034 879.28821597 1005.32160165 890.60857898 998.09667969 901.98852539 C992.32892172 911.06928225 986.48628749 920.10046502 980.62207031 929.11914062 C975.72832892 936.64639295 970.86126064 944.1849397 966.125 951.8125 C960.71143592 960.5289048 955.09836226 969.11297613 949.49267578 977.70654297 C947.44099099 980.85890263 945.40542626 984.02141942 943.375 987.1875 C940.68484127 991.38173525 937.98520727 995.56955591 935.27441406 999.75048828 C930.19459122 1007.58543783 925.15294145 1015.44415619 920.125 1023.3125 C914.76614243 1031.69762476 909.37342296 1040.05905578 903.93847656 1048.39501953 C898.85162172 1056.20686338 893.83162667 1064.06101425 888.81176758 1071.91601562 C882.82066541 1081.28847875 876.78260275 1090.62972654 870.72753906 1099.9609375 C864.1272062 1110.13540339 857.57918205 1120.34239902 851.04858398 1130.56176758 C846.33691 1137.92825112 841.58584303 1145.26777274 836.80664062 1152.59057617 C832.1156035 1159.79102679 827.50766524 1167.04339873 822.93115234 1174.31713867 C820.0920582 1178.80709473 817.19861211 1183.25570662 814.2109375 1187.6484375 C813.6442334 1188.48294434 813.0775293 1189.31745117 812.49365234 1190.17724609 C812.00074707 1190.77875488 811.5078418 1191.38026367 811 1192 C810.34 1192 809.68 1192 809 1192 C808.83560207 1173.08329275 808.71261392 1154.16673286 808.6373148 1135.24945641 C808.60140397 1126.46342287 808.55255239 1117.67783625 808.47192383 1108.89208984 C808.40158342 1101.22366455 808.35685931 1093.55556326 808.34138054 1085.88682425 C808.33234935 1081.83582664 808.31152514 1077.78575496 808.2598896 1073.73505783 C808.04709976 1056.36472018 808.48098775 1040.64903454 815.11060619 1024.27898121 C816.62699479 1020.3933896 817.81017459 1016.40514636 819.02734375 1012.41796875 C819.50862697 1010.88685306 819.99111884 1009.35611626 820.4753418 1007.82592773 C820.71409027 1007.06851288 820.95283875 1006.31109802 821.19882202 1005.5307312 C827.90098337 984.27016294 827.90098337 984.27016294 831.11230469 974.28613281 C831.46711914 973.18108398 831.82193359 972.07603516 832.1875 970.9375 C832.45982956 970.08990112 832.73215912 969.24230225 833.01274109 968.36901855 C835.42450317 960.84302312 837.77822203 953.30010129 840.11328125 945.75 C843.16509632 935.89914472 846.22995795 926.05252439 849.31412315 916.21174812 C849.94147988 914.20995711 850.56853674 912.20807238 851.19551086 910.2061615 C854.60099516 899.33322141 854.60099516 899.33322141 856.27050781 894.01391602 C861.22301753 878.23233098 866.09137171 862.43106758 870.81788635 846.58023071 C873.23113311 838.50676628 875.72847929 830.46596563 878.30467224 822.44320679 C882.27900874 810.05116218 886.08914075 797.60760342 889.91462326 785.16898346 C890.57255927 783.02979366 891.23086497 780.89071785 891.88919067 778.75164795 C898.34670147 757.7637118 904.69972713 736.74723213 910.9356842 715.692276 C911.20569748 714.7806218 911.47571075 713.86896759 911.75390625 712.9296875 C912.02041489 712.02967514 912.28692352 711.12966278 912.56150818 710.20237732 C915.62433169 699.87232632 918.74983029 689.56132264 921.875 679.25 C928.25792989 658.17430143 934.6203649 637.10184153 940.48876953 615.87573242 C942.28138777 609.43522189 944.2035424 603.05162457 946.25 596.6875 C953.09631678 577.21154714 953.09631678 577.21154714 950.3125 557.4375 C943.96145781 547.08683954 931.95502173 542.32506843 921.45703125 537.11328125 C920.37153488 536.57076218 919.28603851 536.0282431 918.16764832 535.46928406 C915.87679277 534.32535898 913.58497168 533.18336566 911.29223633 532.04321289 C907.86508195 530.33865263 904.4410831 528.62789157 901.01757812 526.91601562 C889.2880088 521.06092219 877.51953429 515.2993914 865.68159485 509.6665802 C859.07869045 506.52386134 852.52222429 503.30736906 846 500 C837.37374195 495.6558108 828.69795712 491.43523505 819.96533203 487.30932617 C814.43736454 484.68465517 808.95797431 481.98076375 803.5078125 479.19921875 C802.55515503 478.71491394 802.55515503 478.71491394 801.58325195 478.2208252 C798.45774396 476.63181646 795.33760833 475.03371874 792.22558594 473.41845703 C790.53224121 472.55583252 790.53224121 472.55583252 788.8046875 471.67578125 C787.80421387 471.15927002 786.80374023 470.64275879 785.77294922 470.1105957 C781.52128501 468.40775889 779.04851376 468.55714947 774.85546875 470.328125 C773.62778544 470.9590627 772.40547864 471.6005258 771.1875 472.25 C769.75550648 472.98885939 768.32319424 473.72710125 766.890625 474.46484375 C766.11009766 474.8707373 765.32957031 475.27663086 764.52539062 475.69482422 C759.85120235 478.11054449 755.14326394 480.45905011 750.4375 482.8125 C749.40971436 483.32748047 748.38192871 483.84246094 747.32299805 484.37304688 C740.58302235 487.74015193 733.80777783 491.02252386 727 494.25 C717.60137233 498.7063947 708.29373949 503.33028683 699 508 C689.99725447 512.5233927 680.98371143 517.00502382 671.875 521.3125 C667.91243736 523.19957505 663.95528884 525.0977286 660 527 C659.28555725 527.3430719 658.5711145 527.6861438 657.83502197 528.03961182 C652.79876514 530.46083636 647.77385281 532.90406461 642.75811768 535.36752319 C641.0674255 536.19456419 639.37392059 537.0158841 637.6774292 537.83096313 C626.92273006 543.00421945 616.70197789 547.94703316 609.875 558.1875 C607.1653073 569.99401818 609.83207221 580.75134516 613.3125 592 C613.76607778 593.51627339 614.21769101 595.03313564 614.66748047 596.55053711 C615.61428114 599.73790452 616.57037618 602.92227169 617.53271484 606.10498047 C619.00643912 610.99730496 620.42597384 615.90426374 621.83203125 620.81640625 C622.06309067 621.62311768 622.29415009 622.4298291 622.5322113 623.26098633 C622.99716147 624.88429489 623.46210189 626.50760624 623.92703247 628.13092041 C627.4279838 640.3275362 631.02599212 652.4883973 634.8034668 664.60253906 C638.12765079 675.30592818 641.2755605 686.06030569 644.4375 696.8125 C648.37652861 710.20023954 652.36743073 723.56475076 656.54003906 736.88183594 C659.99341874 747.92071019 663.34420559 758.98986251 666.6875 770.0625 C666.95804199 770.95816681 667.22858398 771.85383362 667.50732422 772.77664185 C672.3181947 788.70715343 672.3181947 788.70715343 674.51806641 796.08935547 C677.42127534 805.82470073 680.40566575 815.52923889 683.48144531 825.21142578 C686.14887488 833.60873806 688.75794229 842.02438599 691.375 850.4375 C691.81554214 851.85275467 691.81554214 851.85275467 692.26498413 853.29660034 C696.97013127 868.41496573 701.63014464 883.54691118 706.27548218 898.68374634 C710.95335913 913.92494427 715.63100662 929.16166617 720.56201172 944.32324219 C724.2822925 955.78988497 727.85225871 967.30307443 731.4375 978.8125 C736.16663973 993.99192015 740.93378909 1009.15639518 745.85522461 1024.2746582 C746.54749946 1026.40215586 747.23374779 1028.53163213 747.91163635 1030.66375732 C748.59038198 1032.74436717 749.30135492 1034.81506947 750.06030273 1036.86778259 C753.26391236 1045.9990559 753.53753054 1054.46588731 753.42578125 1063.9921875 C753.42116434 1065.64182154 753.41825426 1067.29146111 753.41691589 1068.94110107 C753.40811035 1073.34338273 753.37408906 1077.74512511 753.33456421 1082.14722443 C753.3050083 1085.8011912 753.29058674 1089.45515131 753.2764225 1093.10920525 C753.14779194 1126.07555251 752.68005905 1159.04064306 752 1192 C747.72268973 1190.57422991 746.50905923 1187.38929828 744.3125 1183.6875 C740.72051336 1177.72421812 736.95987366 1171.90731432 733.08129883 1166.12573242 C729.71258362 1161.06653468 726.45275224 1155.93883733 723.1875 1150.8125 C721.77634389 1148.60267156 720.36488503 1146.39303642 718.953125 1144.18359375 C717.93508789 1142.5900708 717.93508789 1142.5900708 716.89648438 1140.96435547 C709.47724917 1129.3675025 701.94414976 1117.84454031 694.41918945 1106.31616211 C689.57967279 1098.89830093 684.77746196 1091.45794634 680 1084 C679.23466961 1082.80970636 678.4690359 1081.61960769 677.703125 1080.4296875 C674.33081198 1075.19045748 670.96294361 1069.94873493 667.625 1064.6875 C664.17755568 1059.26096727 660.68364931 1053.86501086 657.18798828 1048.46948242 C653.91815014 1043.42183026 650.66026441 1038.36671511 647.41235352 1033.30493164 C645.39896343 1030.16928032 643.37793702 1027.03880863 641.34765625 1023.9140625 C636.77555721 1016.87478879 632.24056149 1009.81845981 627.8125 1002.6875 C624.26481393 996.97494755 620.60621182 991.35305581 616.8515625 985.7734375 C614.49896685 982.24950731 612.23275973 978.67500175 609.96875 975.09375 C607.56571769 971.31755637 605.12590581 967.56590624 602.6875 963.8125 C599.00438071 958.1392572 595.38005529 952.43407431 591.8125 946.6875 C588.26488314 940.97490583 584.60620989 935.35305295 580.8515625 929.7734375 C578.49376154 926.24171032 576.22289925 922.65900962 573.953125 919.0703125 C571.63638137 915.42839152 569.28741813 911.80806475 566.9375 908.1875 C562.54758872 901.41840603 558.20237853 894.62172318 553.875 887.8125 C547.59745171 877.93563319 541.30770122 868.06790879 534.9140625 858.265625 C529.88119069 850.54771497 524.85690388 842.83021358 520 835 C512.92408921 823.60008117 505.53591385 812.40107843 498.1875 801.17578125 C492.22869948 792.06678204 486.2928568 782.95194849 480.55688477 773.70068359 C477.23249605 768.34567777 473.81621085 763.05392768 470.38134766 757.76928711 C466.59183623 751.93222772 462.85379052 746.06349595 459.125 740.1875 C454.66413387 733.1615449 450.17094953 726.15870622 445.625 719.1875 C434.93277092 702.78750021 424.43452055 686.26270945 413.93334961 669.73999023 C410.09069155 663.69933396 406.21676037 657.68000247 402.31860352 651.67504883 C398.22553391 645.36406703 394.17493825 639.02622209 390.125 632.6875 C385.19916254 624.97847735 380.24815795 617.28732415 375.25 609.625 C336.67430467 550.39880931 336.67430467 550.39880931 336 525 C335.94972656 524.05511719 335.89945313 523.11023438 335.84765625 522.13671875 C335.43860435 508.7361786 338.00436631 496.00769377 344 484 C344.72123047 482.54013672 344.72123047 482.54013672 345.45703125 481.05078125 C361.10541196 451.92423322 393.17449908 438.4985847 422.40625 427.02490234 C424.9850621 426.00590261 427.55598019 424.96920004 430.125 423.92578125 C438.50817319 420.52543271 446.90266901 417.25326451 455.456604 414.30653381 C460.4931587 412.55954362 465.46828959 410.68755037 470.4296875 408.73828125 C472.02254256 408.11575916 473.61548088 407.49345005 475.20849609 406.87133789 C476.40910675 406.40197311 476.40910675 406.40197311 477.63397217 405.92312622 C484.24723945 403.3429028 490.87453915 400.7987087 497.5 398.25 C498.29985321 397.94228668 499.09970642 397.63457336 499.92379761 397.3175354 C514.1692081 391.83943962 528.4277349 386.39586897 542.69287109 380.96936035 C544.93015821 380.1182608 547.1673014 379.26678278 549.40429688 378.41491699 C552.55158258 377.21669566 555.69951368 376.0201867 558.84765625 374.82421875 C559.78662247 374.46653915 560.72558868 374.10885956 561.69300842 373.74034119 C566.10202827 372.06769046 570.50942068 370.44464194 575 369 C562.1824936 362.10516867 549.20009538 355.66240824 536.04296875 349.44287109 C530.81039098 346.96176273 525.59361735 344.44780235 520.375 341.9375 C513.45589691 338.61192351 506.53113047 335.29907995 499.59448242 332.01025391 C490.00021867 327.45952438 480.4794746 322.7844719 471 318 C458.78619922 311.84206702 446.53409982 305.78648444 434.1809082 299.91259766 C428.17585992 297.05344027 422.21186538 294.12751635 416.27587891 291.12817383 C410.05804076 288.00032198 403.77934817 285.00201396 397.5 282 C390.63907367 278.71976869 383.78759125 275.42969198 377 272 C361.82978517 264.34255643 346.46652934 257.03880102 331 250 C338.78390247 263.21065434 346.61225018 276.39299882 354.51611328 289.53222656 C357.01394101 293.68623161 359.50669647 297.84327847 362 302 C362.99997607 303.66668103 363.99997606 305.3333477 365 307 C383.10546875 337.17578125 383.10546875 337.17578125 384.65405273 339.75683594 C385.66779143 341.44634663 386.68162444 343.13580074 387.69555664 344.82519531 C389.99197164 348.65166753 392.28719547 352.47883442 394.578125 356.30859375 C394.97636475 356.97358887 395.37460449 357.63858398 395.78491211 358.32373047 C396.53719623 359.58098989 397.28807547 360.8390913 398.03735352 362.09814453 C399.98309489 365.35665882 402.01351733 368.5347382 404.125 371.6875 C406 375 406 375 405.87246704 377.08451843 C405 379 405 379 403.24398804 380.10139465 C402.47559601 380.38480209 401.70720398 380.66820953 400.91552734 380.96020508 C400.03897995 381.29244583 399.16243256 381.62468658 398.25932312 381.96699524 C397.29460587 382.31433212 396.32988861 382.66166901 395.3359375 383.01953125 C394.33323318 383.39494553 393.33052887 383.7703598 392.29743958 384.15715027 C388.99514708 385.39008274 385.68522181 386.60103639 382.375 387.8125 C380.08700819 388.66299839 377.79965838 389.51522578 375.51293945 390.36914062 C370.88105839 392.09782273 366.24679929 393.8198853 361.61083984 395.53759766 C353.23970922 398.64665898 344.90640536 401.85126679 336.57876587 405.074646 C332.6583072 406.59175548 328.73550714 408.10277618 324.8125 409.61328125 C324.07083084 409.89892944 323.32916168 410.18457764 322.5650177 410.47888184 C313.79066958 413.85504093 304.99863907 417.18461615 296.2019043 420.50195312 C294.59182495 421.11006836 294.59182495 421.11006836 292.94921875 421.73046875 C291.94294434 422.10864746 290.93666992 422.48682617 289.89990234 422.87646484 C286.26804115 424.28358938 282.69385236 425.81610837 279.13208008 427.3918457 C276.56818943 428.1231696 275.42815394 428.10071342 273 427 C271.46704102 425.18432617 271.46704102 425.18432617 270.00390625 422.79296875 C269.4521875 421.90673828 268.90046875 421.02050781 268.33203125 420.10742188 C267.74808594 419.14384766 267.16414063 418.18027344 266.5625 417.1875 C265.30439504 415.15952956 264.04525901 413.13219844 262.78515625 411.10546875 C262.15109863 410.07856934 261.51704102 409.05166992 260.86376953 407.99365234 C258.14062113 403.61963536 255.32433429 399.30908743 252.5 395 C247.42890937 387.22801912 242.42703753 379.41407647 237.45239258 371.58007812 C228.17192992 356.96549977 218.83080701 342.38943388 209.4609375 327.83203125 C206.71197202 323.55599518 203.97517796 319.27217699 201.23657227 314.98950195 C194.57982022 304.57990877 187.89835952 294.18728465 181.17773438 283.81884766 C171.67172396 269.13813091 162.28169464 254.38200196 152.85644531 239.64941406 C140.22368486 219.87611324 140.22368486 219.87611324 127.5078125 200.15625 C122.40752861 192.29292155 117.33989323 184.41016996 112.3125 176.5 C101.3733968 159.29037116 90.39896894 142.10735919 79.23168945 125.04467773 C75.26596692 118.97383201 71.37711053 112.86222306 67.55615234 106.69946289 C64.67357175 102.0562321 61.72780726 97.45768413 58.75 92.875 C52.7104536 83.57850854 46.76409385 74.22364032 40.8203125 64.86572266 C30.53461973 48.66325317 30.53461973 48.66325317 20.1875 32.5 C19.49269531 31.41976563 18.79789063 30.33953125 18.08203125 29.2265625 C16.62505625 26.96866128 15.16432917 24.7135371 13.69921875 22.4609375 C8.91514069 15.0886532 4.35123541 7.63914642 0 0 Z " fill="#000000" transform="translate(221,0)"/>
<path d="M0 0 C1.89101182 -0.00384491 1.89101182 -0.00384491 3.82022589 -0.0077675 C7.2798426 -0.01440583 10.73917527 -0.00257307 14.19875586 0.01256669 C17.94430114 0.02562019 21.68983263 0.02113106 25.43539429 0.01885986 C31.91169794 0.01729297 38.38791035 0.02664077 44.86419106 0.04357338 C54.22758967 0.06803849 63.59094454 0.0757763 72.95437165 0.07953735 C88.14886123 0.0860901 103.34330226 0.10601921 118.5377655 0.13444519 C133.29069277 0.1620163 148.04360676 0.18320049 162.79655457 0.19596863 C164.1763625 0.19717462 164.1763625 0.19717462 165.58404535 0.19840497 C172.77891247 0.20464387 179.97377988 0.21051442 187.16864741 0.21626866 C222.38572548 0.24452837 257.60268192 0.30489301 292.81974792 0.36076355 C292.81974792 60.09076355 292.81974792 119.82076355 292.81974792 181.36076355 C274.00974792 181.36076355 255.19974792 181.36076355 235.81974792 181.36076355 C235.81974792 164.53076355 235.81974792 147.70076355 235.81974792 130.36076355 C158.59974792 130.36076355 81.37974792 130.36076355 1.81974792 130.36076355 C1.81974792 147.19076355 1.81974792 164.02076355 1.81974792 181.36076355 C-17.32025208 181.36076355 -36.46025208 181.36076355 -56.18025208 181.36076355 C-56.29344094 163.10531526 -56.38541079 144.85015433 -56.43931293 126.59444332 C-56.46501404 118.11660063 -56.50000814 109.63899263 -56.55744934 101.16130066 C-56.60753395 93.76578891 -56.63960179 86.37044726 -56.65069455 78.97477061 C-56.65717131 75.06447777 -56.67222059 71.15467126 -56.70890236 67.24453545 C-56.74326003 63.55164014 -56.75322667 59.85942372 -56.74579048 56.16638374 C-56.74778654 54.19035728 -56.77447084 52.21440192 -56.80235291 50.23857117 C-56.72400406 36.38391264 -52.93000412 24.28935602 -43.14900208 14.28263855 C-30.96346221 2.69779431 -16.40566445 -0.12436318 0 0 Z M1.81974792 49.36076355 C1.81974792 60.91076355 1.81974792 72.46076355 1.81974792 84.36076355 C79.03974792 84.36076355 156.25974792 84.36076355 235.81974792 84.36076355 C235.81974792 71.82076355 235.81974792 59.28076355 235.81974792 46.36076355 C206.44279515 46.292983 177.06585436 46.23925559 147.68883948 46.20756756 C144.22279125 46.20381532 140.75674318 46.19993236 137.29069519 46.19596863 C136.25562757 46.19478823 136.25562757 46.19478823 135.19964949 46.19358399 C124.01779417 46.18052022 112.83598499 46.15686107 101.65415706 46.12930516 C90.18564597 46.1012779 78.71717237 46.08481763 67.24862605 46.07849807 C60.80477005 46.07457854 54.36101879 46.06533242 47.91719627 46.04357338 C41.8573598 46.02327591 35.79767165 46.01691608 29.73780441 46.02144051 C27.50888959 46.02061228 25.27997003 46.01460673 23.05108452 46.00314713 C20.01725983 45.98830856 16.9840015 45.99177836 13.95016479 46 C12.615059 45.98689221 12.615059 45.98689221 11.25298136 45.97351962 C5.91895071 45.96283764 5.91895071 45.96283764 1.81974792 49.36076355 Z " fill="#000000" transform="translate(1707.1802520751953,1548.6392364501953)"/>
<path d="M0 0 C76.64748827 -0.1613254 76.64748827 -0.1613254 108.703125 -0.1953125 C116.0397139 -0.20314334 123.37630247 -0.21122508 130.71289062 -0.21972656 C131.63234262 -0.22078156 132.55179461 -0.22183655 133.49910879 -0.22292352 C148.31997929 -0.24029466 163.14078737 -0.27181547 177.96162093 -0.30861118 C193.18522135 -0.34609008 208.40878922 -0.36825051 223.63243389 -0.37635398 C233.01727695 -0.38182738 242.40194359 -0.39907996 251.78673232 -0.43166587 C258.23259879 -0.45289965 264.67837479 -0.45918011 271.12427366 -0.45400551 C274.83666509 -0.45145743 278.54874945 -0.45521011 282.26108551 -0.4768219 C319.35468444 -0.68180406 319.35468444 -0.68180406 334 10 C335.051875 10.721875 336.10375 11.44375 337.1875 12.1875 C346.38876531 21.38876531 350.29914523 32.1474113 350.4168396 44.98280334 C350.40773056 46.60199928 350.40773056 46.60199928 350.3984375 48.25390625 C350.40130768 49.39480209 350.40417786 50.53569794 350.40713501 51.71116638 C350.40916516 54.10880025 350.40370929 56.50645109 350.39111328 58.90405273 C350.37503059 62.55555512 350.39100648 66.20595325 350.41015625 69.85742188 C350.40817392 72.19791909 350.40433047 74.53841562 350.3984375 76.87890625 C350.40451019 77.96039444 350.41058289 79.04188263 350.4168396 80.15614319 C350.35704001 86.65777268 349.48952446 91.99094532 347 98 C346.72046478 98.70198013 346.44092957 99.40396027 346.15292358 100.12721252 C342.38328428 109.20231118 334.32597303 115.30717884 326 120 C326.804375 121.18916016 326.804375 121.18916016 327.625 122.40234375 C333.84754294 131.64839214 339.87545377 141.01294282 345.8671875 150.40991211 C350.921428 158.33233819 356.02743412 166.21919259 361.19067383 174.07104492 C361.69493896 174.8416626 362.1992041 175.61228027 362.71875 176.40625 C363.16154297 177.07978516 363.60433594 177.75332031 364.06054688 178.44726562 C365 180 365 180 365 181 C356.60320813 181.44272898 348.21137087 181.77894551 339.8057518 181.98443127 C335.90078241 182.08313723 332.00385207 182.21652717 328.10351562 182.43334961 C303.00667152 183.7921907 303.00667152 183.7921907 296.4671936 179.23492432 C292.40228698 174.84011064 290.03757953 169.826537 287.90789795 164.2796936 C286.75831073 161.39312839 285.19905254 158.93465952 283.44921875 156.375 C282.03149057 154.12944949 280.61417155 151.88364819 279.19824219 149.63696289 C277.04599688 146.22475435 274.88899738 142.81681682 272.69140625 139.43359375 C272.05074219 138.44488281 271.41007812 137.45617188 270.75 136.4375 C270.20859375 135.61121094 269.6671875 134.78492188 269.109375 133.93359375 C268 132 268 132 268 130 C164.05 130.495 164.05 130.495 58 131 C58 147.5 58 164 58 181 C38.86 181 19.72 181 0 181 C0 121.27 0 61.54 0 0 Z M58 46 C58 58.54 58 71.08 58 84 C87.88652862 84.0677799 117.77304877 84.12150761 147.65963753 84.15319599 C151.18577085 84.15694823 154.71190402 84.16083119 158.23803711 84.16479492 C158.94004465 84.16558185 159.64205219 84.16636878 160.36533269 84.16717956 C171.74118338 84.18024349 183.11698873 84.20390274 194.49281249 84.23145839 C206.16020315 84.25948518 217.82756731 84.27594583 229.49499005 84.28226548 C236.05062798 84.28618509 242.60616295 84.29543171 249.16176796 84.31719017 C255.32666307 84.3374869 261.49141239 84.34384762 267.65633774 84.33932304 C269.92395379 84.3401513 272.19157451 84.34615728 274.45916176 84.35761642 C277.54553206 84.37245381 280.63134556 84.3689856 283.71772766 84.36076355 C285.07617915 84.37387134 285.07617915 84.37387134 286.4620741 84.38724393 C287.28664521 84.38127078 288.11121631 84.37529764 288.96077442 84.36914349 C289.67350948 84.37028265 290.38624454 84.37142181 291.12057763 84.37259549 C293.60163435 83.88072599 294.48644343 82.9979468 296 81 C296.4654609 77.65701708 296.4654609 77.65701708 296.3984375 73.8125 C296.40130768 73.11358643 296.40417786 72.41467285 296.40713501 71.69458008 C296.40917425 70.21857899 296.40365403 68.74255079 296.39111328 67.26660156 C296.3750558 65.00784862 296.3909647 62.75088482 296.41015625 60.4921875 C296.40817379 59.05728772 296.40433006 57.62238905 296.3984375 56.1875 C296.39336182 54.22876953 296.39336182 54.22876953 296.38818359 52.23046875 C296.28557776 49.08373268 296.28557776 49.08373268 294.72819012 47.32116717 C292.62158315 45.7107078 291.58960982 45.62665486 288.96077442 45.63085651 C287.72391776 45.6218968 287.72391776 45.6218968 286.4620741 45.61275607 C285.10362261 45.62586386 285.10362261 45.62586386 283.71772766 45.63923645 C282.27443054 45.63539154 282.27443054 45.63539154 280.80197591 45.63146895 C277.56353524 45.62651013 274.32555623 45.64305874 271.0871582 45.65942383 C268.77147431 45.66026965 266.45578962 45.65979585 264.1401062 45.65809631 C257.84082797 45.65723317 251.54172002 45.67491062 245.24248147 45.69581819 C238.66411968 45.71453183 232.08575429 45.71633123 225.50737 45.71989441 C214.46183305 45.72766901 203.41635598 45.74692612 192.37084961 45.77368164 C180.99324863 45.80121296 169.61566466 45.82245107 158.23803711 45.83520508 C157.53688132 45.83599325 156.83572553 45.83678142 156.11332259 45.83759347 C152.59587786 45.84150855 149.078433 45.84529968 145.56098807 45.84902918 C116.37395016 45.88013624 87.18697879 45.93380662 58 46 Z " fill="#000000" transform="translate(1236,1549)"/>
<path d="M0 0 C1.06152631 -0.00445784 2.12305262 -0.00891569 3.21674639 -0.01350862 C4.98778794 -0.01323207 4.98778794 -0.01323207 6.79460812 -0.01294994 C8.65943204 -0.01846498 8.65943204 -0.01846498 10.56192917 -0.02409142 C14.02907642 -0.03324105 17.49617625 -0.037833 20.9633311 -0.04048073 C24.69713162 -0.04437557 28.43091832 -0.05395507 32.16471004 -0.0626936 C41.19522582 -0.08249072 50.22574278 -0.09253246 59.25627485 -0.10142139 C63.5104671 -0.10580267 67.76465811 -0.11117023 72.01884937 -0.11641026 C86.16714278 -0.13343271 100.31543541 -0.14792298 114.46373749 -0.155159 C118.13855713 -0.15706889 121.81337676 -0.15898921 125.48819637 -0.16094494 C126.40155264 -0.16142868 127.31490891 -0.16191242 128.25594264 -0.16241082 C143.02435519 -0.17069626 157.79268634 -0.19600342 172.56106342 -0.22852562 C187.73046043 -0.26165754 202.8998162 -0.27961366 218.06924957 -0.28280324 C226.58316709 -0.28496365 235.09696625 -0.2936424 243.61084843 -0.31926441 C250.86884812 -0.34105608 258.12670075 -0.34898083 265.38472945 -0.33929763 C269.08294518 -0.33477604 272.78085807 -0.33651231 276.47903156 -0.35605907 C318.03203117 -0.56329639 318.03203117 -0.56329639 333.00211239 13.50922108 C345.63619899 27.40973163 345.77927647 43.76516408 345.64859676 61.63812733 C345.62715605 65.12711567 345.64847781 68.61404525 345.67398739 72.10297108 C345.69666133 89.51725316 344.62767619 103.7882729 332.28336239 117.12640858 C317.36839107 131.36898365 296.8666379 130.56726983 277.70206356 130.47479725 C275.23712328 130.47394998 272.77218224 130.47442806 270.30724239 130.47612476 C265.02265051 130.47680514 259.73819676 130.46836601 254.45364094 130.45141125 C246.81331025 130.42691441 239.17303314 130.41920512 231.53266744 130.41544727 C219.13337301 130.40889944 206.73413818 130.38898383 194.33487606 130.36053944 C182.29809521 130.33295549 170.26133062 130.3117432 158.2245245 130.299016 C157.48119101 130.29822783 156.73785752 130.29743966 155.97199877 130.2966276 C152.24249931 130.29271218 148.51299973 130.28892113 144.78350008 130.28519189 C113.8979854 130.25414798 83.01258023 130.19887318 52.12711239 130.13422108 C52.12711239 146.96422108 52.12711239 163.79422108 52.12711239 181.13422108 C32.98711239 181.13422108 13.84711239 181.13422108 -5.87288761 181.13422108 C-5.89543243 157.68240589 -5.9138655 134.23059943 -5.92469978 110.77877617 C-5.9298633 99.89049931 -5.93690705 89.00222965 -5.94832706 78.11395741 C-5.95827221 68.62738539 -5.96474063 59.14081858 -5.96697611 49.6542415 C-5.9682835 44.62789353 -5.97137117 39.60156046 -5.97861767 34.57521725 C-5.98537522 29.85000211 -5.98750512 25.1248081 -5.98599529 20.39958858 C-5.98627174 18.66005813 -5.98827843 16.92052701 -5.99209309 15.18100071 C-5.9970262 12.81663123 -5.99588733 10.45234282 -5.99314213 8.08797169 C-5.99605497 7.39051384 -5.99896781 6.69305598 -6.00196892 5.97446305 C-5.98398524 0.29314786 -5.5851263 0.01081641 0 0 Z M52.12711239 46.13422108 C52.12711239 58.67422108 52.12711239 71.21422108 52.12711239 84.13422108 C82.01365058 84.17940769 111.900185 84.21522617 141.78674992 84.23635174 C145.31288317 84.23885323 148.83901635 84.24144187 152.3651495 84.24408436 C153.06715704 84.24460898 153.76916458 84.2451336 154.49244507 84.24567412 C165.86828238 84.25438339 177.24409954 84.27015623 188.61992488 84.28852667 C200.28731657 84.3072112 211.95469649 84.31818497 223.62210244 84.32239807 C230.17771521 84.32501112 236.73328221 84.33117556 243.28888035 84.34568119 C249.45375406 84.3592123 255.61856297 84.36345281 261.78345013 84.36043644 C264.05106171 84.36098861 266.31867536 84.36499256 268.58627415 84.37263203 C271.67254353 84.3825233 274.75856543 84.38021129 277.84484005 84.37473011 C279.20329154 84.38346863 279.20329154 84.38346863 280.58918649 84.39238369 C281.4137576 84.3884016 282.2383287 84.3844195 283.08788681 84.38031673 C283.80062187 84.38107617 284.51335693 84.38183562 285.24769002 84.38261807 C287.45996142 84.23074716 287.45996142 84.23074716 290.12711239 82.13422108 C291.93303218 76.7164617 291.31178502 70.8655858 291.31461239 65.19672108 C291.32685848 63.90830311 291.33910458 62.61988514 291.35172176 61.2924242 C291.35365536 60.05556873 291.35558895 58.81871326 291.35758114 57.54437733 C291.36169003 56.41137196 291.36579891 55.27836658 291.37003231 54.11102772 C291.13218847 51.19642474 290.73928321 49.5466297 289.12711239 47.13422108 C285.69322977 45.41727977 281.74356971 46.00185261 277.96509457 46.01396656 C277.00375091 46.01311214 276.04240726 46.01225771 275.05193198 46.01137739 C271.81053473 46.0097221 268.56918852 46.0152448 265.32779598 46.02069569 C263.0122595 46.02097757 260.69672292 46.0208198 258.38118649 46.02025318 C252.07777916 46.01996527 245.77439072 46.02586105 239.4709878 46.03282714 C232.88994313 46.03906165 226.30889808 46.03966455 219.72785091 46.04085255 C208.67636441 46.04344487 197.62488456 46.04986549 186.57340145 46.05878162 C175.1889617 46.06795685 163.80452384 46.07503714 152.42008114 46.07928944 C151.71866262 46.07955216 151.01724411 46.07981488 150.29457049 46.08008557 C146.77585503 46.08139058 143.25713955 46.08265429 139.73842406 46.08389747 C110.53464886 46.09426875 81.33088103 46.1121606 52.12711239 46.13422108 Z " fill="#000000" transform="translate(831.8728876113892,1548.8657789230347)"/>
<path d="M0 0 C1.24434034 -0.00256327 2.48868067 -0.00512655 3.77072829 -0.0077675 C7.18482959 -0.01182077 10.59840255 -0.00257545 14.01243937 0.01256669 C17.70890441 0.02562238 21.40535552 0.02113091 25.10183716 0.01885986 C31.49301762 0.0172931 37.88410562 0.02663946 44.27526283 0.04357338 C53.51558516 0.06804036 62.75586315 0.07577649 71.99621435 0.07953735 C86.99104706 0.08608981 101.98583057 0.10601812 116.9806366 0.13444519 C131.53955338 0.16201706 146.09845676 0.1832353 160.65739441 0.19596863 C161.55605167 0.1967568 162.45470893 0.19754497 163.38059822 0.19835702 C167.88926941 0.20227237 172.39794069 0.20606344 176.90661204 0.20979273 C214.26164527 0.24085107 251.61661726 0.29448432 288.97160339 0.36076355 C288.97160339 15.87076355 288.97160339 31.38076355 288.97160339 47.36076355 C283.66342781 47.36956291 283.66342781 47.36956291 278.24801636 47.37854004 C245.82104088 47.43367778 213.39412525 47.50361141 180.96721689 47.58974983 C176.72006282 47.60101844 172.47290841 47.61215682 168.22575378 47.62321472 C167.38019674 47.62541841 166.53463969 47.62762209 165.6634597 47.62989255 C151.95969316 47.6652964 138.25592668 47.69014308 124.55213132 47.71111057 C110.4981159 47.73284807 96.44416001 47.76587887 82.39019519 47.80946511 C73.71323261 47.83601728 65.03634424 47.85368635 56.35934303 47.86010959 C50.41486637 47.86535261 44.47048322 47.88153279 38.52605661 47.90642921 C35.09281257 47.9204817 31.65973603 47.92960116 28.22646141 47.92577171 C24.50948956 47.9241322 20.79304167 47.94070527 17.07614136 47.96203613 C15.98374151 47.95718856 14.89134167 47.95234098 13.7658388 47.94734651 C12.77406471 47.95680305 11.78229061 47.96625959 10.76046276 47.97600269 C9.47264126 47.9788506 9.47264126 47.9788506 8.15880316 47.98175603 C5.4578039 48.44979697 4.57013295 49.15839594 2.97160339 51.36076355 C2.67560905 53.9851851 2.56165993 56.3725494 2.5834198 58.9974823 C2.57553436 60.16133957 2.57553436 60.16133957 2.56748962 61.34870911 C2.55427755 63.91543157 2.56303173 66.48153469 2.57316589 69.04826355 C2.5711455 70.83040995 2.56823435 72.61255554 2.56446838 74.3946991 C2.5600434 78.1305376 2.56648163 81.86616098 2.58049011 85.60197449 C2.59758216 90.39405439 2.5877419 95.18563025 2.56977272 99.97769165 C2.55893955 103.65796211 2.56237906 107.3381128 2.5701561 111.01838684 C2.5721594 112.78545694 2.56969427 114.55253787 2.56271744 116.31959534 C2.55511054 118.78803879 2.56669586 121.2556625 2.5834198 123.7240448 C2.57734711 124.45660492 2.57127441 125.18916504 2.5650177 125.94392395 C2.57052818 129.73316123 2.57052818 129.73316123 4.19610912 133.04782134 C6.51333566 134.76136363 7.89134083 134.7391796 10.76046276 134.74552441 C11.75223685 134.75498095 12.74401095 134.76443749 13.7658388 134.77418059 C14.85823865 134.76933302 15.95063849 134.76448544 17.07614136 134.75949097 C18.23434995 134.76613779 19.39255854 134.77278462 20.58586437 134.77963287 C23.80582665 134.79509167 27.02547905 134.79709495 30.24546635 134.7935034 C33.71583187 134.792881 37.18611922 134.80948597 40.65644836 134.82402039 C46.67071798 134.84684127 52.68492955 134.85869749 58.69923973 134.86314964 C67.3949533 134.86960252 76.09056176 134.89252463 84.78623305 134.91949294 C98.89366269 134.96279654 113.00108793 134.99274286 127.10856628 135.014328 C140.81431754 135.035327 154.52003264 135.06259265 168.22575378 135.09831238 C169.07028536 135.1005112 169.91481694 135.10271003 170.78494038 135.10497548 C175.02162092 135.11604487 179.25830112 135.12723773 183.49498117 135.13849199 C218.65382589 135.23172766 253.8126844 135.30248061 288.97160339 135.36076355 C288.97160339 150.54076355 288.97160339 165.72076355 288.97160339 181.36076355 C249.93850369 181.45124095 210.90543162 181.52283002 171.8722481 181.56502487 C167.26116063 181.57002753 162.65007336 181.57520484 158.03898621 181.58049011 C157.12102458 181.58153935 156.20306296 181.5825886 155.25728431 181.58366963 C140.40528033 181.60106187 125.55333846 181.63259305 110.70137128 181.66937473 C95.4551899 181.70681704 80.20904099 181.72900636 64.96281552 181.73711753 C55.55953555 181.74259848 46.15643113 181.75989247 36.75320521 181.79242942 C30.29989216 181.81361793 23.84666951 181.8199538 17.39332423 181.81476906 C13.6733278 181.812214 9.95363758 181.81605473 6.23369598 181.83758545 C2.19144228 181.86080956 -1.85016564 181.85267714 -5.89247131 181.84178162 C-7.05592929 181.85343298 -8.21938727 181.86508435 -9.41810155 181.87708879 C-23.30713032 181.7762344 -34.16872793 176.96597934 -44.27839661 167.61076355 C-48.33537508 163.39215246 -50.84501662 158.75997453 -53.02839661 153.36076355 C-53.54558762 152.13241035 -53.54558762 152.13241035 -54.07322693 150.87924194 C-55.37799875 146.07296348 -55.32338119 141.53204525 -55.31892395 136.57292175 C-55.32564117 135.49731491 -55.3323584 134.42170807 -55.33927917 133.31350708 C-55.35825318 129.76280577 -55.3621834 126.21229363 -55.36433411 122.6615448 C-55.37076348 120.18540368 -55.37749194 117.70926331 -55.38450623 115.23312378 C-55.39647826 110.04233541 -55.40018722 104.85161358 -55.39900208 99.66081238 C-55.39879913 93.02779639 -55.42607655 86.39521004 -55.46054649 79.76229572 C-55.48284921 74.6465664 -55.48683854 69.53093981 -55.48578262 64.41516685 C-55.48813444 61.9708782 -55.49693417 59.52658652 -55.51244736 57.08234596 C-55.53217051 53.6531229 -55.52624322 50.22481769 -55.51423645 46.795578 C-55.52547546 45.79726959 -55.53671448 44.79896118 -55.54829407 43.770401 C-55.4433004 31.89508761 -51.18369923 22.69328218 -42.99324036 14.26701355 C-30.82266906 2.76185267 -16.36311994 -0.1257383 0 0 Z " fill="#000000" transform="translate(55.02839660644531,1548.6392364501953)"/>
<path d="M0 0 C7.41459942 -0.02312883 14.82919111 -0.04091785 22.24381924 -0.05181217 C25.68640348 -0.05703982 29.12896312 -0.06413531 32.5715332 -0.07543945 C36.52555043 -0.08834235 40.47955756 -0.09322918 44.43359375 -0.09765625 C46.29605995 -0.10539818 46.29605995 -0.10539818 48.19615173 -0.11329651 C49.33725906 -0.11337204 50.47836639 -0.11344757 51.65405273 -0.11352539 C52.664431 -0.115746 53.67480927 -0.11796661 54.71580505 -0.12025452 C57 0 57 0 58 1 C58.10180205 2.67599819 58.13353144 4.35628877 58.13803101 6.03536987 C58.14348434 7.12624908 58.14893768 8.2171283 58.15455627 9.34106445 C58.1555986 10.54835205 58.15664093 11.75563965 58.15771484 12.99951172 C58.1655138 14.93867713 58.17331682 16.87784253 58.18127275 18.8170073 C58.18900051 20.90783825 58.1943751 22.99866477 58.19923019 25.08950424 C58.20988776 29.44228934 58.23012636 33.79499609 58.25234985 38.1477356 C58.31435019 50.52732762 58.36830513 62.90691551 58.40136719 75.28662109 C58.41969516 82.11919651 58.44860832 88.95164127 58.4893719 95.78412068 C58.51047363 99.40208219 58.52590358 103.01987881 58.52817917 106.63790512 C58.53071976 110.67268686 58.5561521 114.70700935 58.58349609 118.74169922 C58.58048996 119.94493835 58.57748383 121.14817749 58.5743866 122.38787842 C58.58547958 123.48439728 58.59657257 124.58091614 58.60800171 125.71066284 C58.61131186 126.66526335 58.614622 127.61986385 58.61803246 128.60339165 C59.07883093 131.49461498 59.74582514 132.1973342 62 134 C65.02649547 134.29727866 67.84769098 134.40874331 70.87571716 134.38768005 C71.79425746 134.39306559 72.71279775 134.39845113 73.65917259 134.40399987 C76.75004851 134.41835561 79.84050074 134.41115696 82.93139648 134.40405273 C85.14207302 134.40975232 87.35274661 134.41671497 89.56341553 134.42485046 C95.57781965 134.44284249 101.59207836 134.44160213 107.60650134 134.43590808 C112.62167801 134.43282494 117.6368264 134.43889891 122.65199906 134.44494683 C135.15725719 134.45981514 147.66244486 134.45616182 160.16769797 134.44408352 C171.03186822 134.43415077 181.89586817 134.44709079 192.76001214 134.47101771 C203.91109925 134.49539184 215.06212458 134.50462066 226.21324211 134.49836498 C232.47544581 134.49498743 238.73750879 134.49746342 244.99969292 134.51461601 C250.88728323 134.53003767 256.77454743 134.52618268 262.66212463 134.50731087 C264.82611082 134.50361173 266.99012092 134.50677175 269.15408516 134.51719666 C272.10220376 134.53031758 275.04922852 134.51893807 277.99729919 134.50120544 C278.85906484 134.51081045 279.72083048 134.52041546 280.60871023 134.53031152 C284.33201948 134.48404915 286.38246771 134.41314858 289.53023243 132.30719471 C291.31392447 129.50721128 291.50620515 127.89286643 291.51898193 124.5836792 C291.53289474 123.48434052 291.54680756 122.38500183 291.56114197 121.25234985 C291.5561116 120.05113495 291.55108124 118.84992004 291.54589844 117.61230469 C291.55623611 116.34375641 291.56657379 115.07520813 291.57722473 113.76821899 C291.60509367 110.29327331 291.60848925 106.81868345 291.60750484 103.34364223 C291.61063323 99.71072348 291.63624981 96.07796517 291.65948486 92.44512939 C291.7000543 85.56748389 291.72038772 78.68993322 291.73345876 71.81218648 C291.74932567 63.98144421 291.78773992 56.15086339 291.82805204 48.32021475 C291.91046384 32.21352292 291.96454786 16.10686509 292 0 C299.41459942 -0.02312883 306.82919111 -0.04091785 314.24381924 -0.05181217 C317.68640348 -0.05703982 321.12896312 -0.06413531 324.5715332 -0.07543945 C328.52555043 -0.08834235 332.47955756 -0.09322918 336.43359375 -0.09765625 C338.29605995 -0.10539818 338.29605995 -0.10539818 340.19615173 -0.11329651 C341.33725906 -0.11337204 342.47836639 -0.11344757 343.65405273 -0.11352539 C344.664431 -0.115746 345.67480927 -0.11796661 346.71580505 -0.12025452 C349 0 349 0 350 1 C350.10281854 2.7272868 350.13521 4.45879632 350.14044189 6.18913269 C350.14615204 7.31460007 350.15186218 8.44006744 350.15774536 9.59963989 C350.15886322 10.84575043 350.15998108 12.09186096 350.16113281 13.37573242 C350.16609772 14.67987595 350.17106262 15.98401947 350.17617798 17.3276825 C350.1893348 20.91935732 350.1957552 24.5110134 350.20018864 28.10270858 C350.2031187 30.35063857 350.20722375 32.59856344 350.21169281 34.84649086 C350.22538651 41.89019949 350.23503967 48.93389642 350.2388947 55.97761744 C350.24335734 64.08642391 350.26081317 72.19506028 350.2898953 80.30381507 C350.31161813 86.58086331 350.32160487 92.85786413 350.32293582 99.13494951 C350.32397782 102.87793244 350.32975313 106.6207559 350.34775543 110.36369896 C350.36441651 113.89727929 350.36630581 117.43058356 350.35761642 120.96418953 C350.35649653 122.8556433 350.37008057 124.74708864 350.3843689 126.63848877 C350.31035257 142.08360738 347.02063385 157.62176215 336.10546875 169.1875 C325.61155948 178.22121782 313.99181412 181.46655914 300.43814087 181.38768005 C298.75355933 181.39575836 298.75355933 181.39575836 297.03494585 181.40399987 C293.29352893 181.41824111 289.55246773 181.41118496 285.81103516 181.40405273 C283.11969392 181.40975831 280.42837772 181.4166233 277.73704529 181.42485046 C271.19845733 181.44199952 264.65996563 181.44288657 258.12136103 181.43763756 C252.80371012 181.43358723 247.48608753 181.43504964 242.16843796 181.44038582 C241.41003319 181.44113424 240.65162842 181.44188266 239.87024169 181.44265376 C238.3292708 181.44418533 236.78829992 181.44572368 235.24732904 181.44726873 C220.81373597 181.46097977 206.38019719 181.45556599 191.94660537 181.44408352 C178.76034666 181.43415335 165.57422832 181.44709052 152.38799126 181.47101771 C138.82745334 181.49543749 125.26698072 181.50500947 111.70642126 181.49836498 C104.10156826 181.49487905 96.49682315 181.49706328 88.89198685 181.51461601 C82.41799277 181.5293741 75.94418258 181.52992661 69.47019197 181.5125451 C66.17136867 181.504062 62.87293903 181.50400723 59.57412148 181.51719666 C55.9877167 181.53043766 52.40219393 181.51883005 48.81582642 181.50120544 C47.27347319 181.51561295 47.27347319 181.51561295 45.6999613 181.53031152 C32.25635012 181.39508041 21.49883453 176.27130956 11.75 167.25 C1.52594266 156.55844103 -0.45829959 142.9399526 -0.34057617 128.73779297 C-0.33972824 127.32746906 -0.34020827 125.91714383 -0.34190369 124.50682068 C-0.34275861 120.70782884 -0.32521529 116.90912562 -0.30418181 113.11020041 C-0.28533031 109.12907498 -0.28365793 105.14794174 -0.28010559 101.16677856 C-0.27080987 93.64115526 -0.24622988 86.1156639 -0.21605712 78.5900985 C-0.18243575 70.01689239 -0.16600772 61.44367973 -0.15097082 52.87042403 C-0.11967789 35.24687477 -0.06696593 17.62344802 0 0 Z " fill="#000000" transform="translate(407,1549)"/>
</svg>
