<?xml version="1.0" encoding="UTF-8"?>
<svg version="1.1" xmlns="http://www.w3.org/2000/svg" width="2000" height="1325">
<path d="M0 0 C2.89371377 0.00460898 5.78700496 -0.00221895 8.68066406 -0.02050781 C51.17863254 -0.28639 93.13281119 5.81003547 132.92700195 21.31567383 C133.60456543 21.57815918 134.28212891 21.84064453 134.98022461 22.11108398 C192.24978369 44.50812145 192.24978369 44.50812145 204.06762695 64.21801758 C206.63876295 70.49392681 205.56877971 77.44637745 203.1315918 83.60205078 C193.60466202 105.43436454 180.45069215 126.46067978 167.31762695 146.28833008 C143.24198279 182.81773239 129.48228299 226.92726429 114.88647461 267.83569336 C112.87899938 273.45881715 110.84742065 279.07308619 108.8137207 284.68676758 C107.83215634 287.40108389 106.85112856 290.1155932 105.87045288 292.83023071 C105.24553899 294.55931075 104.61991754 296.28813523 103.99356079 298.01669312 C103.13487885 300.38866526 102.28034625 302.76208962 101.42700195 305.13598633 C101.17162155 305.83892319 100.91624115 306.54186005 100.65312195 307.26609802 C99.36113059 310.70446491 99.36113059 310.70446491 98.92700195 314.31567383 C99.45293945 313.22770508 99.97887695 312.13973633 100.52075195 311.01879883 C103.25135324 305.56238679 106.33653988 300.32407832 109.42700195 295.06567383 C110.04357666 294.01371826 110.66015137 292.9617627 111.29541016 291.87792969 C113.1683126 288.68795856 115.04644059 285.50113499 116.92700195 282.31567383 C117.47018066 281.3947998 118.01335938 280.47392578 118.57299805 279.52514648 C125.06048393 268.55087376 131.77951104 257.76209724 138.76635742 247.09936523 C140.30732028 244.73119641 141.80424748 242.33634498 143.30200195 239.94067383 C147.18620767 233.79622127 151.34104221 227.83396855 155.48510742 221.86303711 C156.02925293 221.07525879 156.57339844 220.28748047 157.1340332 219.47583008 C157.62363525 218.77079346 158.1132373 218.06575684 158.61767578 217.33935547 C159.88161521 215.38582314 160.93051897 213.41621634 161.92700195 211.31567383 C162.58700195 211.31567383 163.24700195 211.31567383 163.92700195 211.31567383 C164.17063477 210.78329102 164.41426758 210.2509082 164.6652832 209.70239258 C168.93162161 201.6320125 174.91651104 194.13200393 180.61450195 187.02270508 C181.99366642 185.34122198 181.99366642 185.34122198 182.92700195 183.31567383 C183.58700195 183.31567383 184.24700195 183.31567383 184.92700195 183.31567383 C185.19504639 182.73446777 185.46309082 182.15326172 185.73925781 181.55444336 C186.94672096 179.27850562 188.28869823 177.47624108 189.9309082 175.49536133 C190.50647461 174.79540039 191.08204102 174.09543945 191.67504883 173.37426758 C192.57320312 172.29338867 192.57320312 172.29338867 193.48950195 171.19067383 C194.67996009 169.75193833 195.86884069 168.31189562 197.0559082 166.87036133 C197.5825708 166.23598145 198.1092334 165.60160156 198.65185547 164.94799805 C200.00203787 163.33076343 200.00203787 163.33076343 200.92700195 161.31567383 C201.58700195 161.31567383 202.24700195 161.31567383 202.92700195 161.31567383 C203.17450195 160.75879883 203.42200195 160.20192383 203.67700195 159.62817383 C205.48939969 156.27523802 207.45814687 153.05010137 210.92700195 151.31567383 C210.92700195 150.65567383 210.92700195 149.99567383 210.92700195 149.31567383 C212.2121582 148.08911133 212.2121582 148.08911133 213.98950195 146.69067383 C217.40736267 143.86304609 220.21741871 140.7849931 223.09106445 137.41723633 C226.17673121 133.88513268 229.37589644 130.38513514 232.92700195 127.31567383 C233.58700195 127.31567383 234.24700195 127.31567383 234.92700195 127.31567383 C234.92700195 126.65567383 234.92700195 125.99567383 234.92700195 125.31567383 C236.2199707 123.97583008 236.2199707 123.97583008 238.11450195 122.37817383 C238.83637695 121.76458008 239.55825195 121.15098633 240.30200195 120.51879883 C241.16825195 119.79176758 242.03450195 119.06473633 242.92700195 118.31567383 C244.01091584 117.3944815 245.09421382 116.47256413 246.17700195 115.55004883 C249.41767081 112.79384546 252.66323443 110.04453451 255.92700195 107.31567383 C256.84094727 106.54610352 257.75489258 105.7765332 258.6965332 104.98364258 C260.92700195 103.31567383 260.92700195 103.31567383 262.92700195 103.31567383 C262.92700195 102.65567383 262.92700195 101.99567383 262.92700195 101.31567383 C265.92700195 99.31567383 265.92700195 99.31567383 268.92700195 99.31567383 C268.92700195 98.65567383 268.92700195 97.99567383 268.92700195 97.31567383 C275.44730314 93.52413305 282.12795707 90.1878128 288.98950195 87.06567383 C290.08560791 86.55423828 290.08560791 86.55423828 291.20385742 86.0324707 C299.78376378 82.19374008 308.26503428 80.94174617 317.61450195 81.00317383 C318.54311035 81.00808838 319.47171875 81.01300293 320.4284668 81.01806641 C388.36177965 82.0952331 457.71247275 103.89274352 520.45629883 128.35522461 C522.75004026 129.24688259 525.04880513 130.12410572 527.34887695 130.99926758 C557.44174502 142.60161542 588.21534441 155.84237037 616.0637207 172.14770508 C619.20648076 173.96294955 622.43033194 175.56564816 625.6887207 177.16333008 C631.67129914 180.12966273 637.36966861 183.43871898 643.05200195 186.94067383 C644.04047119 187.5467749 645.02894043 188.15287598 646.04736328 188.77734375 C659.43258475 197.0343839 672.51523105 205.6458258 684.92700195 215.31567383 C685.75071289 215.94602539 686.57442383 216.57637695 687.4230957 217.22583008 C694.63757231 222.84735025 701.30295904 229.02080115 707.92700195 235.31567383 C708.4187793 235.77876953 708.91055664 236.24186523 709.41723633 236.71899414 C723.92272106 250.44280541 736.52974378 266.17578744 737.84643555 286.80493164 C737.97706513 292.49721458 737.40534128 298.04345755 736.73950195 303.69067383 C736.6014917 304.93308838 736.46348145 306.17550293 736.32128906 307.45556641 C735.87419148 311.41115524 735.40560553 315.36380685 734.92700195 319.31567383 C734.77038086 320.61585449 734.61375977 321.91603516 734.45239258 323.25561523 C723.19545187 415.5510424 702.65973187 506.76732648 623.42504883 625.54663086 C622.27700228 626.90235858 621.15867102 628.2832981 620.05395508 629.67456055 C614.36151642 636.82377662 608.22499849 643.32719188 601.74389648 649.75952148 C600.05386953 651.43881811 598.37482431 653.12856352 596.6965332 654.81958008 C590.80155228 660.72130176 584.81364273 666.26372819 578.26245117 671.43945312 C576.05664197 673.21152543 573.98643072 675.06451573 571.92700195 677.00317383 C541.55550195 704.31567383 541.55550195 704.31567383 532.92700195 704.31567383 C532.59700195 704.97567383 532.26700195 705.63567383 531.92700195 706.31567383 C529.86289739 707.58635092 527.8002884 708.77697115 525.67700195 709.94067383 C519.6282705 713.31730943 513.72987598 716.86565228 507.86450195 720.55395508 C499.92478466 725.31567383 499.92478466 725.31567383 496.92700195 725.31567383 C496.59700195 725.97567383 496.26700195 726.63567383 495.92700195 727.31567383 C493.65190786 728.60159657 491.39398791 729.79071665 489.05200195 730.94067383 C488.41391602 731.26551758 487.77583008 731.59036133 487.1184082 731.92504883 C484.20325885 733.37349464 482.22453928 734.31567383 478.92700195 734.31567383 C478.59700195 734.97567383 478.26700195 735.63567383 477.92700195 736.31567383 C475.83479045 737.40212526 473.70246265 738.41212802 471.55200195 739.37817383 C470.38926758 739.90540039 469.2265332 740.43262695 468.02856445 740.97583008 C464.92700195 742.31567383 464.92700195 742.31567383 461.92700195 743.31567383 C460.54612687 743.90628907 459.17169011 744.51205962 457.80200195 745.12817383 C457.00665039 745.48395508 456.21129883 745.83973633 455.3918457 746.20629883 C453.7997222 746.92288056 452.20850827 747.64148822 450.6184082 748.36254883 C446.45583357 750.23823237 442.28592387 751.99768551 437.99462891 753.55810547 C436.1050151 754.25045069 434.2244481 754.9673602 432.3449707 755.68676758 C426.47358561 757.89252801 420.49663119 759.78529341 414.52856445 761.71020508 C409.76639914 763.27236046 405.39754378 765.0273401 400.92700195 767.31567383 C398.58325195 767.97583008 398.58325195 767.97583008 396.42700195 768.37817383 C392.80559034 769.11330231 389.42354752 770.10258659 385.92700195 771.31567383 C378.0675424 773.84463287 370.07657012 775.82313638 362.06323242 777.79077148 C358.49533857 778.66745397 354.9297585 779.55333784 351.36450195 780.44067383 C350.10508789 780.75262695 348.84567383 781.06458008 347.5480957 781.38598633 C345.02596627 782.03352334 342.57079097 782.72968678 340.0871582 783.49536133 C336.92700195 784.31567383 336.92700195 784.31567383 334.92700195 783.31567383 C334.59700195 783.97567383 334.26700195 784.63567383 333.92700195 785.31567383 C331.1965332 785.87817383 331.1965332 785.87817383 327.73950195 786.31567383 C324.39558263 786.7436955 321.3352052 787.17789094 318.13793945 788.25708008 C313.74222337 789.70627601 309.29225487 790.45422939 304.73950195 791.25317383 C303.77858643 791.42502197 302.8176709 791.59687012 301.82763672 791.77392578 C294.56778366 793.05956826 287.29414397 794.24833994 280.00634766 795.36425781 C276.29182412 795.93303781 272.60979603 796.57185828 268.92700195 797.31567383 C265.648472 797.83504491 262.36615267 798.32477279 259.08325195 798.81567383 C256.34469201 799.24950511 253.64357294 799.7645484 250.92700195 800.31567383 C242.68859026 801.75316795 234.42898163 802.71891262 226.11401367 803.56323242 C220.87502263 804.09924176 215.64841507 804.6911118 210.42700195 805.37817383 C208.6480957 805.61213867 208.6480957 805.61213867 206.83325195 805.85083008 C203.87192992 806.24379511 203.87192992 806.24379511 200.92700195 807.31567383 C199.21925597 807.36046717 197.50989174 807.35460009 195.80200195 807.31567383 C189.71558358 807.25916862 183.73555803 807.37948847 177.92700195 809.31567383 C175.59366862 809.31567383 173.26033529 809.31567383 170.92700195 809.31567383 C170.26700195 809.64567383 169.60700195 809.97567383 168.92700195 810.31567383 C166.97553719 810.45836078 165.0196255 810.54205401 163.0637207 810.59692383 C161.86553711 810.63430664 160.66735352 810.67168945 159.43286133 810.71020508 C157.54277344 810.76241211 157.54277344 810.76241211 155.61450195 810.81567383 C140.3646177 810.1983971 140.3646177 810.1983971 125.92700195 813.31567383 C124.30266957 813.36224967 122.67656525 813.35334486 121.05200195 813.31567383 C116.92932243 813.27250441 112.90740987 813.4367131 108.80200195 813.81567383 C104.69074268 814.19468877 100.68946838 814.34930055 96.56567383 814.2824707 C93.40301457 814.3222673 90.27968677 814.57066183 87.1262207 814.81567383 C78.4230346 815.44126772 69.74936685 815.38348707 61.02661133 815.29516602 C59.03771356 815.27691043 57.0487609 815.26498935 55.05981445 815.25317383 C53.90368652 815.24157227 52.74755859 815.2299707 51.55639648 815.21801758 C48.92726105 815.28875982 46.53392667 815.4709046 43.94604492 815.8112793 C37.15375686 816.61899535 30.31867369 816.45945871 23.48950195 816.44848633 C21.9993488 816.44916149 20.50919575 816.45013327 19.01904297 816.4513855 C15.90925031 816.4528525 12.79948654 816.45074018 9.68969727 816.44604492 C5.7258321 816.44034825 1.76203468 816.44363262 -2.201828 816.44961739 C-5.27494812 816.45325004 -8.34805247 816.45207204 -11.4211731 816.44948959 C-12.88184619 816.44882779 -14.34252078 816.4496223 -15.80319214 816.45196915 C-22.62381591 816.46052583 -29.35846518 816.42872815 -36.13137817 815.53805542 C-39.36097523 815.16815658 -42.5722187 815.22355395 -45.8190918 815.25317383 C-46.51511002 815.25696045 -47.21112823 815.26074707 -47.92823792 815.26464844 C-50.85685958 815.28073447 -53.78533166 815.30892436 -56.71386719 815.33618164 C-64.13412294 815.39907218 -71.4487863 815.42075691 -78.83056641 814.53833008 C-82.76226178 814.14794291 -86.68937907 814.25061004 -90.63549805 814.31567383 C-96.87292887 814.41801068 -102.88673538 814.13830733 -109.07299805 813.31567383 C-115.32147149 812.49655297 -121.35706404 812.25070546 -127.66674805 812.37817383 C-130.07299805 812.31567383 -130.07299805 812.31567383 -131.07299805 811.31567383 C-132.94736997 811.2671464 -134.82335314 811.27918439 -136.69799805 811.31567383 C-146.56329203 811.39172786 -156.31504639 810.76328204 -166.07299805 809.31567383 C-168.73893307 808.97168221 -171.40421832 808.6356053 -174.07299805 808.31567383 C-174.81428955 808.22664795 -175.55558105 808.13762207 -176.31933594 808.04589844 C-181.04801296 807.4976241 -185.75489873 807.12900738 -190.51049805 806.87817383 C-197.026054 806.50227637 -203.329831 805.54632026 -209.73291016 804.33154297 C-213.31531751 803.67335041 -216.69051932 803.24082774 -220.33862305 803.28442383 C-223.34981608 803.3096221 -225.53290976 803.16134937 -228.38549805 802.37817383 C-232.74290664 801.30581331 -237.02437068 800.88202286 -241.49487305 800.56176758 C-244.07299805 800.31567383 -244.07299805 800.31567383 -246.5534668 799.81567383 C-250.16353588 799.09925702 -253.78377184 798.93369551 -257.4519043 798.69458008 C-260.10193193 798.31149114 -261.71390563 797.51409278 -264.07299805 796.31567383 C-266.31382594 795.96852378 -266.31382594 795.96852378 -268.76049805 795.87817383 C-280.34888262 794.98319872 -291.53050006 792.54932918 -302.70581055 789.42504883 C-310.45811186 787.36823951 -318.38368769 785.99350514 -326.25268555 784.46411133 C-339.31158039 781.91530537 -339.31158039 781.91530537 -344.01049805 780.31567383 C-347.53260569 779.16559786 -351.04711552 778.51071437 -354.68237305 777.81958008 C-357.56631809 777.2116897 -360.28563168 776.26591236 -363.07299805 775.31567383 C-365.06668836 774.94647192 -367.06578882 774.602418 -369.07299805 774.31567383 C-369.07299805 773.65567383 -369.07299805 772.99567383 -369.07299805 772.31567383 C-370.15581055 772.37754883 -370.15581055 772.37754883 -371.26049805 772.44067383 C-374.34921054 772.30339772 -376.22357614 771.48508976 -379.07299805 770.31567383 C-381.08795174 769.6719705 -383.10936205 769.04826356 -385.13549805 768.44067383 C-390.60249193 766.78382097 -396.016398 765.00963896 -401.41674805 763.14770508 C-403.95757769 762.35182756 -406.45424255 761.78534193 -409.07299805 761.31567383 C-409.07299805 760.65567383 -409.07299805 759.99567383 -409.07299805 759.31567383 C-409.6556543 759.22930664 -410.23831055 759.14293945 -410.83862305 759.05395508 C-418.08660539 757.81176943 -424.36050262 755.24661191 -431.07299805 752.31567383 C-435.01882864 750.74119745 -438.93410402 749.2959382 -443.07299805 748.31567383 C-443.07299805 747.65567383 -443.07299805 746.99567383 -443.07299805 746.31567383 C-445.38299805 745.98567383 -447.69299805 745.65567383 -450.07299805 745.31567383 C-450.07299805 744.65567383 -450.07299805 743.99567383 -450.07299805 743.31567383 C-451.03206055 743.19192383 -451.03206055 743.19192383 -452.01049805 743.06567383 C-456.28527772 742.01878901 -460.08625336 740.15203397 -464.07299805 738.31567383 C-467.37281834 736.86248374 -470.64912586 735.45696456 -474.07299805 734.31567383 C-474.07299805 733.65567383 -474.07299805 732.99567383 -474.07299805 732.31567383 C-475.09393555 732.16098633 -475.09393555 732.16098633 -476.13549805 732.00317383 C-480.88994317 730.89043135 -485.01806845 729.01896023 -489.07299805 726.31567383 C-489.07299805 725.65567383 -489.07299805 724.99567383 -489.07299805 724.31567383 C-489.69948242 724.12231445 -490.3259668 723.92895508 -490.97143555 723.72973633 C-492.19733398 723.33915039 -492.19733398 723.33915039 -493.44799805 722.94067383 C-494.26010742 722.68543945 -495.0722168 722.43020508 -495.90893555 722.16723633 C-498.07299805 721.31567383 -498.07299805 721.31567383 -500.07299805 719.31567383 C-502.14173839 718.67315033 -502.14173839 718.67315033 -504.07299805 718.31567383 C-504.07299805 717.65567383 -504.07299805 716.99567383 -504.07299805 716.31567383 C-504.79358398 716.05141602 -505.51416992 715.7871582 -506.2565918 715.51489258 C-509.12873214 714.29194239 -511.53137785 712.84461504 -514.13549805 711.12817383 C-519.22993758 707.81505533 -524.43942477 704.77180689 -529.73706055 701.79614258 C-532.07299805 700.31567383 -532.07299805 700.31567383 -533.07299805 698.31567383 C-535.73055869 696.56727867 -538.0468225 695.32439901 -541.07299805 694.31567383 C-542.16858544 693.18584933 -543.26222631 692.05407784 -544.34643555 690.91333008 C-547.48849054 688.0058629 -551.05443852 685.64381026 -554.54956055 683.18286133 C-556.60775643 681.65992381 -558.29566559 680.13635586 -560.07299805 678.31567383 C-560.69174805 678.02692383 -561.31049805 677.73817383 -561.94799805 677.44067383 C-565.69807192 675.4553406 -568.31047049 672.12305595 -571.19799805 669.06567383 C-573.0527698 667.0912366 -573.0527698 667.0912366 -576.07299805 666.31567383 C-577.79174805 664.53833008 -577.79174805 664.53833008 -579.57299805 662.37817383 C-581.70175826 659.80592191 -583.25690949 658.1930662 -586.07299805 656.31567383 C-586.07299805 655.65567383 -586.07299805 654.99567383 -586.07299805 654.31567383 C-586.73299805 654.31567383 -587.39299805 654.31567383 -588.07299805 654.31567383 C-588.07299805 653.65567383 -588.07299805 652.99567383 -588.07299805 652.31567383 C-588.73299805 652.31567383 -589.39299805 652.31567383 -590.07299805 652.31567383 C-591.43476726 650.67215925 -592.76261871 649.00044727 -594.07299805 647.31567383 C-596.62703706 644.69614664 -599.24040151 642.15571052 -601.88549805 639.62817383 C-604.07299805 637.31567383 -604.07299805 637.31567383 -604.07299805 635.31567383 C-605.06299805 634.98567383 -606.05299805 634.65567383 -607.07299805 634.31567383 C-608.43939146 632.67600173 -609.76793994 631.00457255 -611.07299805 629.31567383 C-611.98049805 628.42879883 -612.88799805 627.54192383 -613.82299805 626.62817383 C-616.07299805 624.31567383 -616.07299805 624.31567383 -616.07299805 622.31567383 C-616.73299805 622.31567383 -617.39299805 622.31567383 -618.07299805 622.31567383 C-619.45741804 620.35069061 -620.78503639 618.34518917 -622.07299805 616.31567383 C-622.65049805 615.57317383 -623.22799805 614.83067383 -623.82299805 614.06567383 C-625.07299805 612.31567383 -625.07299805 612.31567383 -625.07299805 610.31567383 C-625.73299805 610.31567383 -626.39299805 610.31567383 -627.07299805 610.31567383 C-628.47478374 608.40574082 -629.79590177 606.43613676 -631.07299805 604.44067383 C-633.78288635 600.14412203 -633.78288635 600.14412203 -637.07299805 596.31567383 C-637.07299805 595.32567383 -637.07299805 594.33567383 -637.07299805 593.31567383 C-637.73299805 593.31567383 -638.39299805 593.31567383 -639.07299805 593.31567383 C-639.36174805 592.51129883 -639.65049805 591.70692383 -639.94799805 590.87817383 C-640.80562372 588.18302703 -640.80562372 588.18302703 -643.07299805 587.31567383 C-643.07299805 586.32567383 -643.07299805 585.33567383 -643.07299805 584.31567383 C-643.73299805 584.31567383 -644.39299805 584.31567383 -645.07299805 584.31567383 C-645.50612305 583.42879883 -645.93924805 582.54192383 -646.38549805 581.62817383 C-647.84478396 578.76364963 -649.41160931 576.06458998 -651.07299805 573.31567383 C-663.13801694 552.75220053 -675.03124519 531.37632691 -682.2644043 508.57348633 C-683.18620716 505.99956335 -684.32834294 503.59309299 -685.51049805 501.12817383 C-688.0566761 495.69837243 -689.65783084 490.17343829 -691.1784668 484.38208008 C-691.93424256 481.79132037 -692.86162023 479.70140044 -694.07299805 477.31567383 C-694.19799805 474.56567383 -694.19799805 474.56567383 -694.07299805 472.31567383 C-694.73299805 471.98567383 -695.39299805 471.65567383 -696.07299805 471.31567383 C-696.8894043 468.58520508 -696.8894043 468.58520508 -697.63549805 465.12817383 C-697.88428711 464.00024414 -698.13307617 462.87231445 -698.3894043 461.71020508 C-698.84048394 459.47027247 -699.22501624 457.21577746 -699.5378418 454.95239258 C-699.71444336 454.08227539 -699.89104492 453.2121582 -700.07299805 452.31567383 C-700.73299805 451.98567383 -701.39299805 451.65567383 -702.07299805 451.31567383 C-702.42251425 449.31843836 -702.75126432 447.31757256 -703.07299805 445.31567383 C-703.57247813 443.78769443 -704.09466201 442.26700928 -704.63549805 440.75317383 C-705.79702388 437.4082028 -706.16642638 434.8659503 -706.07299805 431.31567383 C-706.53113732 429.68461316 -706.99288823 428.05447316 -707.47363281 426.42993164 C-708.637288 422.3251439 -709.56177036 418.16191527 -710.51049805 414.00317383 C-710.7300415 413.0412915 -710.94958496 412.07940918 -711.17578125 411.08837891 C-712.71337711 404.2215834 -714.01784981 397.34577757 -715.08447266 390.390625 C-715.62305591 386.89130539 -716.25071477 383.45541953 -717.05737305 380.00708008 C-718.26052533 374.73712573 -718.94941369 369.42366597 -719.63549805 364.06567383 C-719.8853661 362.14361186 -720.13662122 360.22172959 -720.3894043 358.30004883 C-720.49712158 357.46183594 -720.60483887 356.62362305 -720.71582031 355.76000977 C-721.08164198 353.25651929 -721.57503843 350.79574315 -722.07299805 348.31567383 C-722.35740564 345.45974756 -722.57488944 342.60321422 -722.79174805 339.74145508 C-722.93390131 337.30951224 -722.93390131 337.30951224 -724.07299805 335.31567383 C-724.27917031 333.40285343 -724.43931897 331.48492337 -724.57299805 329.56567383 C-724.86460508 325.4206882 -725.38934477 321.41221039 -726.07299805 317.31567383 C-726.2412025 315.37998768 -726.38597599 313.44216013 -726.51049805 311.50317383 C-726.77221347 307.68212859 -727.1077042 303.90263569 -727.65112305 300.11254883 C-730.26680833 281.70334337 -726.1384079 266.48032468 -715.07299805 251.31567383 C-710.45830098 245.45547713 -705.61355057 239.31986456 -700.07299805 234.31567383 C-699.41299805 234.31567383 -698.75299805 234.31567383 -698.07299805 234.31567383 C-698.07299805 233.65567383 -698.07299805 232.99567383 -698.07299805 232.31567383 C-697.41299805 232.31567383 -696.75299805 232.31567383 -696.07299805 232.31567383 C-696.07299805 231.65567383 -696.07299805 230.99567383 -696.07299805 230.31567383 C-694.11055327 228.60466729 -692.14135492 227.0155174 -690.07299805 225.44067383 C-689.44433838 224.95598633 -688.81567871 224.47129883 -688.16796875 223.97192383 C-686.82447419 222.93910308 -685.47843934 221.90957991 -684.13012695 220.88305664 C-682.13960045 219.36642003 -680.15870812 217.83788882 -678.1784668 216.30786133 C-644.64616441 190.5807088 -605.63786885 169.31137341 -566.96362305 152.47583008 C-563.6109109 151.01518225 -560.29470987 149.48786312 -556.98704529 147.92791748 C-547.83455262 143.61356913 -538.58135867 139.56450205 -529.26049805 135.62817383 C-528.44506531 135.28351074 -527.62963257 134.93884766 -526.78948975 134.58374023 C-511.0145831 127.94103071 -495.03831105 122.05708784 -478.82446289 116.58374023 C-475.37752628 115.41861016 -471.93746878 114.23534062 -468.4987793 113.04614258 C-454.50564215 108.24654248 -440.35679742 104.15491215 -426.07299805 100.31567383 C-424.75162842 99.95795898 -424.75162842 99.95795898 -423.40356445 99.59301758 C-307.28779362 68.21643407 -307.28779362 68.21643407 -261.27270508 94.51245117 C-249.47136289 101.48944131 -239.13253869 110.029944 -229.07299805 119.31567383 C-227.44854916 120.75379659 -225.82354053 122.19128731 -224.19799805 123.62817383 C-215.6303814 131.34577497 -207.52268654 139.51149652 -200.07299805 148.31567383 C-199.17301864 149.35305468 -198.27187047 150.38942215 -197.36987305 151.42504883 C-190.85391667 158.92791683 -184.58070873 166.58031833 -178.51342773 174.44995117 C-177.0110442 176.39591981 -175.49916865 178.33428613 -173.98706055 180.27270508 C-162.40526134 195.19160293 -151.63081678 210.69230207 -141.27514648 226.48364258 C-140.47095049 227.70920853 -139.66428993 228.93316067 -138.85522461 230.15551758 C-126.68493017 248.54958395 -115.40042802 267.53427871 -104.26049805 286.56567383 C-103.69226318 287.53448486 -103.12402832 288.5032959 -102.53857422 289.50146484 C-99.51943217 294.69054371 -96.69183773 299.91312804 -94.07299805 305.31567383 C-99.11463809 285.28787439 -106.28395429 265.43128538 -114.07299805 246.31567383 C-114.69754883 244.72819336 -114.69754883 244.72819336 -115.3347168 243.10864258 C-118.76202724 234.44177262 -122.39448317 225.88783926 -126.16870117 217.36694336 C-127.09827203 215.25834338 -128.01681116 213.14523521 -128.93237305 211.03051758 C-132.13197737 203.64648904 -135.41099833 196.36396614 -139.16674805 189.24145508 C-141.07749316 185.54962256 -142.32422041 182.43395084 -143.07299805 178.31567383 C-143.73299805 177.98567383 -144.39299805 177.65567383 -145.07299805 177.31567383 C-145.81943718 175.65343543 -146.55813884 173.98696005 -147.2434082 172.29858398 C-148.84601548 168.46798472 -150.82477014 164.81249882 -152.73120117 161.1262207 C-155.07299805 156.52751085 -155.07299805 156.52751085 -155.07299805 154.31567383 C-155.73299805 153.98567383 -156.39299805 153.65567383 -157.07299805 153.31567383 C-158.14331055 151.31958008 -158.14331055 151.31958008 -159.19799805 148.87817383 C-159.55120117 148.07508789 -159.9044043 147.27200195 -160.26831055 146.44458008 C-161.07299805 144.31567383 -161.07299805 144.31567383 -161.07299805 142.31567383 C-161.73299805 141.98567383 -162.39299805 141.65567383 -163.07299805 141.31567383 C-164.455302 138.77117802 -165.75294784 136.23326407 -167.01049805 133.62817383 C-167.53160156 132.56566406 -167.53160156 132.56566406 -168.06323242 131.48168945 C-169.62272716 128.30102504 -171.16934224 125.11489901 -172.7019043 121.92114258 C-173.94554891 119.24548415 -173.94554891 119.24548415 -176.07299805 117.31567383 C-176.23799805 116.47004883 -176.40299805 115.62442383 -176.57299805 114.75317383 C-176.73799805 113.94879883 -176.90299805 113.14442383 -177.07299805 112.31567383 C-177.73299805 111.98567383 -178.39299805 111.65567383 -179.07299805 111.31567383 C-183.65087218 104.31625419 -187.42745767 96.83147966 -191.07299805 89.31567383 C-191.84256836 87.9022168 -191.84256836 87.9022168 -192.62768555 86.46020508 C-195.28117878 80.68706439 -196.76188908 73.43451705 -195.7019043 67.09692383 C-195.01049805 65.37817383 -195.01049805 65.37817383 -193.07299805 62.31567383 C-192.75331055 61.74719727 -192.43362305 61.1787207 -192.10424805 60.59301758 C-188.63055232 54.94826202 -183.60260854 51.77781272 -178.07299805 48.31567383 C-177.50629395 47.95634766 -176.93958984 47.59702148 -176.35571289 47.22680664 C-149.08173703 30.07071317 -119.08912409 18.62076014 -88.07299805 10.31567383 C-86.65978271 9.93439331 -86.65978271 9.93439331 -85.21801758 9.54541016 C-77.36237914 7.49750574 -69.4564118 6.0631156 -61.44799805 4.75317383 C-60.22209961 4.54499023 -58.99620117 4.33680664 -57.7331543 4.12231445 C-53.8519292 3.47947395 -49.96514643 2.88731759 -46.07299805 2.31567383 C-44.80866943 2.12223389 -43.54434082 1.92879395 -42.24169922 1.72949219 C-28.23820963 -0.22372456 -14.10853803 -0.02426763 0 0 Z M-526.07299805 278.31567383 C-527.32725586 278.6740332 -528.58151367 279.03239258 -529.8737793 279.40161133 C-547.4873055 284.85211061 -568.53421223 294.33678771 -579.69702148 309.52539062 C-581.41281 313.00476375 -581.34741434 315.3064257 -581.18237305 319.17114258 C-581.15884766 319.82507996 -581.13532227 320.47901733 -581.11108398 321.152771 C-581.03088607 323.27055988 -580.92780624 325.38647155 -580.82299805 327.50317383 C-580.75976697 328.97586647 -580.69759784 330.44860508 -580.63647461 331.92138672 C-580.51463226 334.79742878 -580.38344492 337.67281353 -580.24487305 340.5480957 C-580.112195 343.45645883 -580.00932242 346.35844643 -579.94799805 349.26879883 C-578.99681241 379.58784087 -571.9200889 410.44071982 -563.07299805 439.31567383 C-562.73945312 440.42507324 -562.73945312 440.42507324 -562.39916992 441.55688477 C-553.02092029 472.47711379 -538.36746684 501.75126677 -520.07299805 528.31567383 C-519.39841553 529.30664062 -519.39841553 529.30664062 -518.71020508 530.31762695 C-512.69517758 539.12721663 -506.08147077 547.28103843 -499.07299805 555.31567383 C-498.49291992 555.99629883 -497.9128418 556.67692383 -497.31518555 557.37817383 C-489.47699141 566.516169 -481.37304827 575.90679006 -472.0925293 583.60473633 C-469.51438071 585.78893184 -467.09193436 588.12052153 -464.63549805 590.44067383 C-454.30517173 600.04653571 -442.75030493 608.42946811 -431.07299805 616.31567383 C-429.45458008 617.43135742 -429.45458008 617.43135742 -427.8034668 618.56958008 C-418.61774999 624.85033736 -409.12976648 630.5010835 -399.44311523 635.97192383 C-397.1890968 637.24985105 -394.94667311 638.54610565 -392.70581055 639.84692383 C-361.9651635 657.53012173 -327.98222903 670.19587179 -294.07299805 680.31567383 C-293.05431641 680.62166504 -292.03563477 680.92765625 -290.98608398 681.24291992 C-241.02816987 696.10730091 -189.44778174 704.52786621 -137.57885742 709.01147461 C-134.2891553 709.29691812 -131.00146712 709.59953962 -127.71362305 709.90551758 C-110.85387828 711.41953609 -93.98935012 711.91580618 -77.07299805 712.31567383 C-77.061069 710.90293437 -77.05264751 709.49016509 -77.0456543 708.07739258 C-77.03804077 706.89729614 -77.03804077 706.89729614 -77.03027344 705.69335938 C-77.08354929 702.72848229 -77.42106409 699.84490509 -77.7878418 696.90551758 C-78.14389759 693.67175055 -78.3565969 690.43669098 -78.57299805 687.19067383 C-78.89273988 682.51944542 -79.37401606 677.94642951 -80.07299805 673.31567383 C-80.22466298 671.54533041 -80.36988307 669.77442917 -80.51049805 668.00317383 C-80.89119422 663.66909433 -81.56765338 659.52625119 -82.47924805 655.27661133 C-83.08695247 652.24608531 -83.59172168 649.21144074 -84.08154297 646.16015625 C-85.27634061 638.71993401 -86.61065375 631.32072091 -88.13549805 623.94067383 C-88.29775879 623.13831299 -88.46001953 622.33595215 -88.62719727 621.50927734 C-89.51123884 617.23761869 -89.51123884 617.23761869 -91.1315918 613.21411133 C-92.5381669 610.37761547 -92.6423211 607.4429027 -93.07299805 604.31567383 C-93.77554158 601.35238123 -94.6075626 598.42997243 -95.44799805 595.50317383 C-95.67350342 594.70709717 -95.89900879 593.91102051 -96.13134766 593.09082031 C-96.77362092 590.83098701 -97.42247758 588.5731442 -98.07299805 586.31567383 C-98.35530273 585.3230957 -98.63760742 584.33051758 -98.9284668 583.30786133 C-100.46231447 578.03684888 -102.27341691 572.89905623 -104.20581055 567.76098633 C-105.07299805 565.31567383 -105.07299805 565.31567383 -105.56518555 563.12036133 C-105.97974161 561.08283584 -105.97974161 561.08283584 -108.07299805 559.31567383 C-108.4389188 557.6558573 -108.76585693 555.98736555 -109.07299805 554.31567383 C-111.60687562 546.22947487 -114.75293686 538.64189749 -118.6628418 531.13208008 C-120.35432807 527.75379309 -121.71915992 524.30971786 -123.01831055 520.76489258 C-124.15820482 518.11780477 -125.55598344 515.67896312 -127.00708008 513.19189453 C-128.79104428 510.05177431 -130.35712718 506.80662912 -131.94799805 503.56567383 C-136.48831532 494.4111615 -141.30999065 485.48913455 -146.6159668 476.75317383 C-148.86345885 472.99329436 -150.97434271 469.16011325 -153.07299805 465.31567383 C-153.73299805 465.31567383 -154.39299805 465.31567383 -155.07299805 465.31567383 C-155.32049805 464.62086914 -155.56799805 463.92606445 -155.82299805 463.21020508 C-157.26311661 459.87543054 -159.06374843 457.02812868 -161.07299805 454.00317383 C-161.77424805 452.93454102 -162.47549805 451.8659082 -163.19799805 450.76489258 C-163.81674805 449.95665039 -164.43549805 449.1484082 -165.07299805 448.31567383 C-165.73299805 448.31567383 -166.39299805 448.31567383 -167.07299805 448.31567383 C-167.24520874 447.43250488 -167.24520874 447.43250488 -167.42089844 446.53149414 C-168.11925449 444.15849544 -168.98943612 442.80004799 -170.5065918 440.86254883 C-170.99063477 440.24379883 -171.47467773 439.62504883 -171.97338867 438.98754883 C-172.48063477 438.35333008 -172.98788086 437.71911133 -173.51049805 437.06567383 C-174.01387695 436.41598633 -174.51725586 435.76629883 -175.03588867 435.09692383 C-176.32990516 433.46092954 -177.69646271 431.88287083 -179.07299805 430.31567383 C-179.73299805 430.31567383 -180.39299805 430.31567383 -181.07299805 430.31567383 C-181.50612305 429.17098633 -181.50612305 429.17098633 -181.94799805 428.00317383 C-183.03568818 425.16538075 -183.03568818 425.16538075 -185.07299805 422.31567383 C-185.73299805 422.31567383 -186.39299805 422.31567383 -187.07299805 422.31567383 C-187.32049805 421.53192383 -187.56799805 420.74817383 -187.82299805 419.94067383 C-189.28224308 416.87625926 -190.12314761 416.69841622 -193.07299805 415.31567383 C-194.19799805 413.37817383 -194.19799805 413.37817383 -195.07299805 411.31567383 C-195.73299805 410.32567383 -196.39299805 409.33567383 -197.07299805 408.31567383 C-197.73299805 408.31567383 -198.39299805 408.31567383 -199.07299805 408.31567383 C-199.07299805 407.65567383 -199.07299805 406.99567383 -199.07299805 406.31567383 C-199.73299805 406.31567383 -200.39299805 406.31567383 -201.07299805 406.31567383 C-201.73299805 404.99567383 -202.39299805 403.67567383 -203.07299805 402.31567383 C-203.73299805 402.31567383 -204.39299805 402.31567383 -205.07299805 402.31567383 C-205.73299805 400.66567383 -206.39299805 399.01567383 -207.07299805 397.31567383 C-207.73299805 397.31567383 -208.39299805 397.31567383 -209.07299805 397.31567383 C-209.33338867 396.73043945 -209.5937793 396.14520508 -209.86206055 395.54223633 C-211.1495058 393.17499829 -212.53864332 391.58335297 -214.44799805 389.69067383 C-215.03323242 389.1002832 -215.6184668 388.50989258 -216.22143555 387.90161133 C-218.00869907 386.2298404 -218.00869907 386.2298404 -220.23706055 385.29223633 C-222.07299805 384.31567383 -222.07299805 384.31567383 -223.07299805 381.31567383 C-224.39403803 380.29948923 -225.73123832 379.30433889 -227.07299805 378.31567383 C-228.84083841 376.51494341 -230.57495666 374.68856386 -232.29174805 372.83911133 C-234.23376758 371.17817357 -235.57796274 370.72056991 -238.07299805 370.31567383 C-238.07299805 369.65567383 -238.07299805 368.99567383 -238.07299805 368.31567383 C-238.71237305 368.02692383 -239.35174805 367.73817383 -240.01049805 367.44067383 C-242.07299805 366.31567383 -242.07299805 366.31567383 -243.07299805 364.31567383 C-243.73299805 364.31567383 -244.39299805 364.31567383 -245.07299805 364.31567383 C-245.07299805 363.65567383 -245.07299805 362.99567383 -245.07299805 362.31567383 C-245.73299805 362.31567383 -246.39299805 362.31567383 -247.07299805 362.31567383 C-247.07299805 361.65567383 -247.07299805 360.99567383 -247.07299805 360.31567383 C-249.17837013 358.52711893 -249.17837013 358.52711893 -251.82299805 356.75317383 C-252.7047168 356.13313477 -253.58643555 355.5130957 -254.49487305 354.87426758 C-256.81284867 353.47294595 -258.48984764 352.92210192 -261.07299805 352.31567383 C-261.53706055 351.35661133 -261.53706055 351.35661133 -262.01049805 350.37817383 C-262.94579107 348.05114992 -262.94579107 348.05114992 -265.69799805 347.06567383 C-266.87362305 346.69442383 -266.87362305 346.69442383 -268.07299805 346.31567383 C-268.07299805 345.65567383 -268.07299805 344.99567383 -268.07299805 344.31567383 C-269.06299805 344.31567383 -270.05299805 344.31567383 -271.07299805 344.31567383 C-271.07299805 343.65567383 -271.07299805 342.99567383 -271.07299805 342.31567383 C-272.06299805 342.31567383 -273.05299805 342.31567383 -274.07299805 342.31567383 C-274.40299805 341.32567383 -274.73299805 340.33567383 -275.07299805 339.31567383 C-277.62470676 337.73185463 -280.14905924 336.94223214 -283.07299805 336.31567383 C-283.07299805 335.65567383 -283.07299805 334.99567383 -283.07299805 334.31567383 C-285.21178417 332.78668206 -287.33979726 331.38156362 -289.57299805 330.00317383 C-290.21358154 329.60090576 -290.85416504 329.1986377 -291.51416016 328.78417969 C-292.78833511 327.98485855 -294.06426676 327.18833007 -295.34204102 326.39477539 C-296.77196983 325.50333881 -298.19151662 324.59527203 -299.6081543 323.68286133 C-302.25788447 321.97763998 -304.69397981 320.46358339 -307.63549805 319.31567383 C-310.07299805 318.31567383 -310.07299805 318.31567383 -313.26049805 315.99536133 C-316.845215 313.40031873 -320.53687153 311.37249827 -324.51049805 309.44067383 C-325.20731689 309.0982666 -325.90413574 308.75585938 -326.62207031 308.40307617 C-387.38333189 278.82580402 -459.02151887 258.99928915 -526.07299805 278.31567383 Z M421.12231445 277.79516602 C418.8527 278.33329079 416.57837169 278.84600218 414.30200195 279.35473633 C407.7983428 280.82339451 401.31799043 282.29140448 395.03735352 284.56103516 C393.00247974 285.28868379 390.95774831 285.96895597 388.90356445 286.63989258 C367.71225515 293.68706379 347.88388357 302.58246765 328.22094727 313.09448242 C326.05314417 314.24852149 323.87857873 315.3883219 321.70043945 316.52270508 C315.62724009 319.69672097 309.69925155 322.9346944 304.05981445 326.84692383 C301.76373839 328.42810441 299.41726863 329.90259462 297.05200195 331.37817383 C284.05920049 339.63801386 271.57806461 348.23953679 259.92700195 358.31567383 C258.09748471 359.79955785 256.26415506 361.27875408 254.42700195 362.75317383 C249.38054577 366.87021074 244.58671764 371.21332358 239.81762695 375.64379883 C237.28027521 377.98913476 234.7071653 380.28206969 232.11450195 382.56567383 C222.49474588 391.20477516 213.2421593 400.4105853 204.92700195 410.31567383 C203.62956055 411.79680664 203.62956055 411.79680664 202.3059082 413.30786133 C194.98656642 421.67733784 188.13926514 430.34563971 181.4777832 439.24584961 C180.02075207 441.19054576 178.55281378 443.12653578 177.08325195 445.06176758 C169.76758049 454.77642617 163.26965398 464.94555834 156.92700195 475.31567383 C156.50596191 475.99791016 156.08492187 476.68014648 155.65112305 477.38305664 C141.95381268 499.65842485 130.74934966 523.11139576 120.92700195 547.31567383 C120.54318359 548.25604492 120.15936523 549.19641602 119.76391602 550.1652832 C101.9241376 594.24002987 91.72413942 642.01311971 87.67700195 689.31567383 C87.55675659 690.71970459 87.55675659 690.71970459 87.43408203 692.15209961 C86.91530655 698.8799126 86.84753687 705.56997146 86.92700195 712.31567383 C126.10294073 711.77505892 165.23367607 708.43494607 203.92700195 702.31567383 C205.06153809 702.14036133 206.19607422 701.96504883 207.36499023 701.78442383 C238.75776944 696.91304848 269.87191243 690.31838312 300.28198242 681.10766602 C302.65918661 680.39586517 305.04126361 679.71084155 307.4309082 679.04223633 C319.15449285 675.74823241 330.5454687 671.63596935 341.92700195 667.31567383 C342.76634277 666.99727539 343.60568359 666.67887695 344.47045898 666.35083008 C379.23229132 653.0504108 411.90123956 635.92296827 442.73950195 615.12817383 C443.56498535 614.57516602 444.39046875 614.0221582 445.2409668 613.45239258 C446.36365967 612.68282227 446.36365967 612.68282227 447.5090332 611.89770508 C448.17136963 611.4462915 448.83370605 610.99487793 449.51611328 610.52978516 C449.98170654 610.12912842 450.4472998 609.72847168 450.92700195 609.31567383 C450.92700195 608.65567383 450.92700195 607.99567383 450.92700195 607.31567383 C451.64887695 607.06688477 452.37075195 606.8180957 453.11450195 606.56176758 C456.20987246 605.19034648 458.34075251 603.55835057 460.92700195 601.37817383 C462.34432617 600.18708008 462.34432617 600.18708008 463.7902832 598.97192383 C464.29253418 598.54524414 464.79478516 598.11856445 465.31225586 597.67895508 C467.04034394 596.21998262 468.78497689 594.78258159 470.5324707 593.34692383 C471.72680161 592.35772732 472.92081762 591.36815048 474.11450195 590.37817383 C474.69135742 589.90581299 475.26821289 589.43345215 475.86254883 588.94677734 C477.25545857 587.78044815 478.596691 586.55292647 479.92700195 585.31567383 C479.92700195 584.65567383 479.92700195 583.99567383 479.92700195 583.31567383 C480.46325195 583.08879883 480.99950195 582.86192383 481.55200195 582.62817383 C487.19352023 579.51049268 491.19797638 575.04606266 495.3137207 570.18286133 C496.92700195 568.31567383 496.92700195 568.31567383 498.6340332 566.69848633 C500.15466183 565.38771624 500.15466183 565.38771624 499.92700195 563.31567383 C500.78551758 562.97536133 500.78551758 562.97536133 501.66137695 562.62817383 C504.54829666 560.95575138 506.12170689 558.93427198 508.17700195 556.31567383 C508.8834082 555.42879883 509.58981445 554.54192383 510.31762695 553.62817383 C512.11741094 551.51164315 512.11741094 551.51164315 511.92700195 549.31567383 C512.58700195 549.31567383 513.24700195 549.31567383 513.92700195 549.31567383 C515.51526417 547.60069611 515.51526417 547.60069611 517.05200195 545.44067383 C517.86024414 544.36172852 517.86024414 544.36172852 518.68481445 543.26098633 C520.10639827 541.41941377 520.10639827 541.41941377 519.92700195 539.31567383 C520.58700195 539.31567383 521.24700195 539.31567383 521.92700195 539.31567383 C523.27895784 537.81902962 523.27895784 537.81902962 524.60668945 535.84301758 C525.38206055 534.73990234 525.38206055 534.73990234 526.1730957 533.61450195 C526.9794043 532.44564453 526.9794043 532.44564453 527.80200195 531.25317383 C528.33180664 530.50100586 528.86161133 529.74883789 529.4074707 528.97387695 C532.50486203 524.5353075 535.28421886 520.03654278 537.92700195 515.31567383 C539.04061384 513.57915118 540.16510045 511.84953879 541.30200195 510.12817383 C548.03220988 500.37559653 548.03220988 500.37559653 550.92700195 489.31567383 C551.58700195 489.31567383 552.24700195 489.31567383 552.92700195 489.31567383 C558.39882483 477.47285076 563.61915138 465.63384533 567.92700195 453.31567383 C568.32363037 452.18935547 568.32363037 452.18935547 568.72827148 451.0402832 C571.45944849 443.23507883 574.12474614 435.56922353 575.5012207 427.39379883 C575.93625852 425.270495 576.60143615 423.44155253 577.42700195 421.44067383 C579.16053513 417.1547526 579.76439704 412.80714149 580.3996582 408.24536133 C580.92700195 405.31567383 580.92700195 405.31567383 581.85668945 402.65161133 C583.39108719 397.86921837 584.16793358 393.0141722 584.98950195 388.06567383 C585.25500854 386.47734741 585.25500854 386.47734741 585.52587891 384.85693359 C586.79356043 376.9313863 587.49647512 369.10927031 587.7512207 361.09301758 C587.96652092 356.46645515 588.59367688 352.00544676 589.48950195 347.46411133 C590.18282911 342.47463198 589.96773906 337.50711176 589.88793945 332.47973633 C589.85047971 328.58392287 589.92417136 324.82789666 590.4543457 320.96411133 C590.96449929 317.02623157 590.65229696 314.18391387 589.92700195 310.31567383 C589.26700195 310.31567383 588.60700195 310.31567383 587.92700195 310.31567383 C587.58668945 309.17098633 587.58668945 309.17098633 587.23950195 308.00317383 C585.63423683 304.71620238 584.06392871 304.07541323 580.92700195 302.31567383 C579.92700195 300.98234049 578.92700195 299.64900716 577.92700195 298.31567383 C575.67272923 296.79555346 575.67272923 296.79555346 572.92700195 295.31567383 C571.78031141 294.5669851 570.63458047 293.81682576 569.48950195 293.06567383 C560.70511086 287.61836985 551.64746847 283.34854151 541.86450195 280.06567383 C541.1698584 279.83178955 540.47521484 279.59790527 539.75952148 279.35693359 C502.05335592 267.21567 459.31571516 268.70883278 421.12231445 277.79516602 Z M95.92700195 317.31567383 C96.92700195 319.31567383 96.92700195 319.31567383 96.92700195 319.31567383 Z M94.92700195 319.31567383 C95.92700195 321.31567383 95.92700195 321.31567383 95.92700195 321.31567383 Z " fill="#D2D2D2" transform="translate(1004.072998046875,-0.315673828125)"/>
<path d="M0 0 C29.04 0 58.08 0 88 0 C93.6452137 27.09702576 93.6452137 27.09702576 95.68099976 38.80975342 C98.73586991 56.34819285 102.01110552 73.84541715 105.30447388 91.34030151 C106.46698347 97.51574588 107.62848755 103.69137926 108.7890625 109.8671875 C108.91945671 110.56101784 109.04985092 111.25484818 109.18419647 111.96970367 C112.73621499 130.87703632 116.22286197 149.79644013 119.70759296 168.71626854 C119.95313754 170.04937653 120.19872138 171.38247729 120.44434643 172.71557045 C121.02301534 175.85641332 121.60096818 178.9973846 122.17771912 182.13858032 C123.10175112 187.16498996 124.03023809 192.18988025 125.00341797 197.20703125 C125.14778793 197.95537231 125.2921579 198.70371338 125.44090271 199.47473145 C125.80149406 201.33355949 126.16786032 203.19126499 126.53491211 205.04882812 C126.96244597 207.76170438 127.09478763 210.26041399 127 213 C127.66 213 128.32 213 129 213 C129.03738281 212.11699219 129.07476563 211.23398438 129.11328125 210.32421875 C129.48161652 203.60029446 130.21646515 197.55338515 132.17578125 191.12109375 C133.44288007 186.32293281 134.15949566 181.44591513 134.90966797 176.54394531 C135.0232666 175.81401367 135.13686523 175.08408203 135.25390625 174.33203125 C135.35002197 173.68983643 135.4461377 173.0476416 135.54516602 172.38598633 C136.07088113 169.62816892 136.77351989 166.92589087 137.46470642 164.20573425 C138.39170623 160.38593272 139.12779644 156.53017802 139.875 152.671875 C140.04499512 151.80161682 140.21499023 150.93135864 140.39013672 150.034729 C140.74744325 148.20287684 141.1037099 146.37082157 141.45898438 144.53857422 C141.99587688 141.77125195 142.53674582 139.00472886 143.078125 136.23828125 C144.69630541 127.93926737 146.2950758 119.6467568 147.60546875 111.29223633 C148.08810415 108.48811272 148.78147189 105.76926204 149.50390625 103.01953125 C150.90271698 97.32516003 151.76345872 91.50152531 152.6875 85.71484375 C152.81133057 84.94833496 152.93516113 84.18182617 153.06274414 83.39208984 C153.30366218 81.89447427 153.54019558 80.39614319 153.77124023 78.89697266 C154.43564355 74.76775012 155.29321093 70.75086897 156.34765625 66.703125 C158.63231905 57.78283472 160.26636825 48.72726742 162 39.6875 C162.51727925 37.00623685 163.03548412 34.32515363 163.55371094 31.64407349 C163.89055059 29.9013445 164.22714267 28.15856764 164.56347656 26.41574097 C165.59145914 21.09349144 166.62910907 15.77332196 167.6875 10.45703125 C167.91824219 9.29792236 168.14898438 8.13881348 168.38671875 6.94458008 C168.87128555 4.61800358 169.42361353 2.30554589 170 0 C201.02 0 232.04 0 264 0 C265.23689423 4.3291298 266.33941323 8.34567205 267.16992188 12.72094727 C267.37813568 13.80955048 267.58634949 14.89815369 267.8008728 16.01974487 C268.02127228 17.19014313 268.24167175 18.36054138 268.46875 19.56640625 C268.70502106 20.80770294 268.94129211 22.04899963 269.1847229 23.32791138 C269.82672719 26.70214349 270.46452456 30.07715813 271.10141754 33.45235825 C271.63757335 36.29082929 272.17623016 39.12882358 272.71480751 41.96683598 C276.44588483 61.63183137 280.10811875 81.30923763 283.73403931 100.99389648 C287.78999704 123.00562282 292.0120203 144.98387535 296.25845337 166.95951843 C298.23888677 177.21830286 300.18684554 187.48315412 302.125 197.75 C302.27560883 198.54769806 302.42621765 199.34539612 302.58139038 200.16726685 C303.38873962 204.44462907 304.19496794 208.72220096 305 213 C305.69421976 209.1223141 306.38796966 205.24454446 307.08129883 201.36669922 C307.43221006 199.40457868 307.78348506 197.4425232 308.13476562 195.48046875 C308.35712891 194.23652344 308.57949219 192.99257812 308.80859375 191.7109375 C309.11494751 189.99849854 309.11494751 189.99849854 309.42749023 188.25146484 C309.96999482 185.17040897 310.48917237 182.08644437 311 179 C311.63914978 175.22800841 312.28780084 171.45768732 312.9375 167.6875 C313.10701172 166.69298828 313.27652344 165.69847656 313.45117188 164.67382812 C314.22693326 160.18149127 315.03664684 155.71895662 316.06640625 151.27734375 C317.15957597 146.50456795 317.70097538 141.72680886 318.2109375 136.86328125 C318.71798195 132.39604479 319.75210349 128.30953734 321 124 C321.19938681 122.27618747 321.34883291 120.54553862 321.4375 118.8125 C321.72963993 114.90504088 322.34463235 111.33337145 323.37109375 107.5546875 C325.17877823 100.53442228 326.42358694 93.45794126 327.625 86.3125 C327.94984375 84.43208008 327.94984375 84.43208008 328.28125 82.51367188 C329.2660883 76.7353459 330.21864771 70.99657143 330.66943359 65.14916992 C331 63 331 63 331.92626953 59.81054688 C333.12394317 55.56013982 333.91530267 51.33659157 334.65625 46.98828125 C334.87794861 45.71406563 334.87794861 45.71406563 335.10412598 44.41410828 C335.57296675 41.71417288 336.03652574 39.0133612 336.5 36.3125 C336.81085891 34.51882142 337.12205395 32.72520107 337.43359375 30.93164062 C338.85576205 22.7276018 340.26338237 14.52200522 341.58789062 6.30151367 C341.96730081 4.18261567 342.47791815 2.08832741 343 0 C371.38 0 399.76 0 429 0 C427.52087007 7.39564967 425.96328536 14.72321251 424.25 22.0625 C423.95399902 23.33101807 423.65799805 24.59953613 423.35302734 25.90649414 C419.93187099 40.48511751 416.31913906 55.01716425 412.73236084 69.55569458 C407.52271349 90.68246458 402.42744022 111.8351453 397.375 133 C391.35787971 158.20122064 385.27274587 183.384094 379.08023071 208.54290771 C376.45900096 219.19254405 373.85381869 229.84609548 371.25 240.5 C371.02051666 241.43873962 370.79103333 242.37747925 370.55459595 243.34466553 C366.83032253 258.58064571 363.12510502 273.82116629 359.43666077 289.06585693 C358.26215484 293.91946344 357.08466846 298.77234209 355.90625 303.625 C355.37769015 305.80236187 354.84916502 307.97973217 354.32064819 310.15710449 C353.83945421 312.13898447 353.35784963 314.12076474 352.8762207 316.10253906 C350.21719549 327.0606892 347.61187577 338.03012176 345 349 C313.98 349 282.96 349 251 349 C249.56357831 340.38146988 248.18940165 331.75321418 246.8125 323.125 C246.65859802 322.16101288 246.50469604 321.19702576 246.34613037 320.2038269 C243.75633603 303.9607186 241.27082643 287.70367717 238.86645508 271.43212891 C238.68804329 270.22847435 238.68804329 270.22847435 238.50602722 269.00050354 C238.28592875 267.51430116 238.06693722 266.02793422 237.84931946 264.54136658 C237.32559272 261.0036404 236.71697607 257.503085 236 254 C235.69036862 252.1681406 235.39015184 250.33467349 235.09765625 248.5 C234.92943359 247.44683594 234.76121094 246.39367188 234.58789062 245.30859375 C234.41451172 244.21675781 234.24113281 243.12492187 234.0625 242 C233.89298828 240.93910156 233.72347656 239.87820313 233.54882812 238.78515625 C232.70530554 233.4930944 231.87422042 228.1993776 231.0625 222.90234375 C229.84605747 214.96891917 228.59337318 207.04127384 227.34057617 199.11352539 C226.93434642 196.54254136 226.52867299 193.97146995 226.12304688 191.40039062 C225.86201214 189.74739063 225.60094559 188.09439565 225.33984375 186.44140625 C225.22003647 185.68195206 225.10022919 184.92249786 224.97679138 184.14002991 C224.33639041 180.09008067 223.67472152 176.04440007 223 172 C222.7573624 170.44318129 222.51762161 168.88590739 222.28125 167.328125 C222.15363281 166.49925781 222.02601563 165.67039062 221.89453125 164.81640625 C221.62916361 163.09020289 221.36618345 161.36363099 221.10546875 159.63671875 C220.97785156 158.81300781 220.85023438 157.98929688 220.71875 157.140625 C220.60466797 156.39329102 220.49058594 155.64595703 220.37304688 154.87597656 C220.06987922 152.91960856 220.06987922 152.91960856 219 151 C218.60772162 148.29127482 218.25430502 145.59248307 217.9375 142.875 C217.84662109 142.12089844 217.75574219 141.36679688 217.66210938 140.58984375 C217.43809148 138.72695812 217.21861427 136.86352748 217 135 C213.66286826 153.53730537 210.32840962 172.07499386 207.0625 190.625 C201.78933838 220.56283457 196.47901904 250.49330752 191.01367188 280.39672852 C189.24239888 290.09920922 187.49793911 299.8058528 185.7890625 309.51953125 C185.60696228 310.55270477 185.42486206 311.5858783 185.23724365 312.65036011 C184.35794778 317.64046003 183.48236113 322.6311576 182.61328125 327.62304688 C182.29702722 329.42190177 181.98062861 331.22073125 181.6640625 333.01953125 C181.45518906 334.23211357 181.45518906 334.23211357 181.24209595 335.4691925 C181.10758026 336.22935165 180.97306458 336.9895108 180.83447266 337.77270508 C180.66415024 338.74944939 180.66415024 338.74944939 180.49038696 339.7459259 C179.81130323 342.8673487 178.87757965 345.92847124 178 349 C145.66 349 113.32 349 80 349 C75.43288202 330.73152809 75.43288202 330.73152809 73.9296875 323.95703125 C73.58736703 322.43682025 73.24491572 320.91663872 72.90234375 319.39648438 C72.38294992 317.08198823 71.86490983 314.76720666 71.34912109 312.4519043 C70.8379431 310.1611136 70.32166118 307.87151989 69.8046875 305.58203125 C69.65256805 304.89244827 69.50044861 304.2028653 69.34371948 303.49238586 C68.51380911 299.83261577 67.45304731 296.45601118 66 293 C65.65934471 291.25887295 65.37098056 289.50700399 65.125 287.75 C63.97094865 280.34025758 62.1985111 273.10974805 60.4375 265.82666016 C59.93363303 263.7229031 59.45970581 261.6138258 59 259.5 C57.88466584 254.40132956 56.66808654 249.32642572 55.4675293 244.24731445 C54.27027172 239.17349137 53.1217654 234.0910891 52 229 C51.83853485 228.35458252 51.6770697 227.70916504 51.51071167 227.04418945 C50.97620582 224.90476074 50.49107566 222.75888454 50.01611328 220.60546875 C49.82566437 219.74356934 49.63521545 218.88166992 49.43899536 217.99365234 C49.23483002 217.06762207 49.03066467 216.1415918 48.8203125 215.1875 C48.38157476 213.20441285 47.94277049 211.22134041 47.50390625 209.23828125 C46.81649773 206.12955315 46.12957021 203.02072154 45.44384766 199.91162109 C42.19078362 185.06672365 42.19078362 185.06672365 38.5859375 170.3046875 C37.79594889 167.19739896 37.10626737 164.0711331 36.4296875 160.9375 C35.98850726 158.94817821 35.49516309 156.97654314 35 155 C34.34988863 152.29260979 33.70407647 149.58440842 33.0625 146.875 C32.89298828 146.16601562 32.72347656 145.45703125 32.54882812 144.7265625 C31.65510008 140.947758 30.82418711 137.16705885 30.08203125 133.35546875 C28.76633799 126.67728 27.18408733 120.06226525 25.625 113.4375 C25.31221474 112.10038947 24.99963476 110.76323091 24.68725586 109.42602539 C23.36182946 103.75841247 22.02899278 98.09292303 20.65234375 92.4375 C20.46397949 91.65834229 20.27561523 90.87918457 20.08154297 90.07641602 C19.60207133 88.10056885 19.11579361 86.12637662 18.62890625 84.15234375 C18.06486886 81.32515015 17.86438754 78.86955961 18 76 C17.34 75.67 16.68 75.34 16 75 C15.4549408 72.88693237 15.4549408 72.88693237 15.03100586 70.13232422 C14.0689932 64.32303398 12.83392683 58.6176223 11.50390625 52.8828125 C11.26969467 51.86379852 11.03548309 50.84478455 10.79417419 49.79489136 C10.05262956 46.57104846 9.30763175 43.34801547 8.5625 40.125 C8.06682776 37.9727091 7.57138329 35.82036573 7.07617188 33.66796875 C6.59380726 31.57290348 6.11138644 29.47785116 5.62890625 27.3828125 C5.39668365 26.37438293 5.16446106 25.36595337 4.92520142 24.32696533 C3.95434933 20.11637411 2.98114634 15.90657177 1.98388672 11.70214844 C1.70947754 10.53973633 1.43506836 9.37732422 1.15234375 8.1796875 C0.92409912 7.22562012 0.69585449 6.27155273 0.46069336 5.28857422 C0 3 0 3 0 0 Z " fill="#003162" transform="translate(884,970)"/>
<path d="M0 0 C0.825 0.60199219 1.65 1.20398438 2.5 1.82421875 C38.16392992 29.08654979 54.71707245 70.89315843 60.69177246 114.24497986 C62.30796363 126.92710561 62.60739439 139.5127434 62.52148438 152.28442383 C62.49998057 156.06591696 62.52148147 159.84551541 62.546875 163.62695312 C62.60479292 212.87171612 50.36320209 260.52405131 16 297 C15.40058594 297.66386719 14.80117187 298.32773438 14.18359375 299.01171875 C-0.96226279 315.13894828 -21.05423048 324.89101295 -42 331 C-43.06589355 331.32162109 -44.13178711 331.64324219 -45.22998047 331.97460938 C-60.00664035 335.99364651 -74.94362305 336.50563795 -90.17919922 336.44604492 C-93.49639558 336.43750927 -96.81187724 336.46646778 -100.12890625 336.49804688 C-113.26115345 336.54139992 -125.30785189 335.37576195 -138 332 C-139.04140137 331.73695068 -140.08280273 331.47390137 -141.15576172 331.20288086 C-143.5125656 330.58869803 -145.85047496 329.93495296 -148.1875 329.25 C-148.96029297 329.02957031 -149.73308594 328.80914063 -150.52929688 328.58203125 C-152.35454455 328.06053192 -154.17757208 327.53126931 -156 327 C-156 326.34 -156 325.68 -156 325 C-156.83144531 324.91878906 -157.66289063 324.83757812 -158.51953125 324.75390625 C-162.77186522 323.83280585 -165.95420438 322.11084024 -169.6875 319.9375 C-170.74251709 319.33131836 -170.74251709 319.33131836 -171.81884766 318.71289062 C-181.82478823 312.87247407 -190.59277179 305.95684098 -199 298 C-200.16015625 296.91912109 -200.16015625 296.91912109 -201.34375 295.81640625 C-210.72132214 286.8081563 -217.37206009 276.0808574 -224 265 C-224.85658203 263.66582031 -224.85658203 263.66582031 -225.73046875 262.3046875 C-227 260 -227 260 -227 257 C-227.66 256.67 -228.32 256.34 -229 256 C-229 255.01 -229 254.02 -229 253 C-229.66 252.67 -230.32 252.34 -231 252 C-231.94555664 249.74682617 -231.94555664 249.74682617 -232.91015625 246.79296875 C-233.26013672 245.73142578 -233.61011719 244.66988281 -233.97070312 243.57617188 C-234.33099609 242.45791016 -234.69128906 241.33964844 -235.0625 240.1875 C-235.42666016 239.08083984 -235.79082031 237.97417969 -236.16601562 236.83398438 C-239.01033672 228.14329534 -239.01033672 228.14329534 -240 224 C-240.29487305 222.83823242 -240.58974609 221.67646484 -240.89355469 220.47949219 C-243.38470394 210.45105059 -245.13631885 200.51944033 -246.25 190.25 C-246.37657486 189.11910446 -246.37657486 189.11910446 -246.50570679 187.96536255 C-247.85911527 175.61931077 -248.35333326 163.35395086 -248.3125 150.9375 C-248.31004272 150.16176636 -248.30758545 149.38603271 -248.30505371 148.58679199 C-248.24135747 137.41494815 -247.83586804 126.49088967 -245.46875 115.54296875 C-244.80806129 111.95873248 -244.56438074 108.37317274 -244.34375 104.73828125 C-243.9191222 101.35573481 -242.97951042 98.26385603 -242 95 C-241.39299477 92.66740349 -240.78892516 90.33404147 -240.1875 88 C-236.67600144 74.75455467 -232.23207392 62.19829547 -226 50 C-225.66484375 49.34354492 -225.3296875 48.68708984 -224.984375 48.01074219 C-213.36683852 25.6101378 -196.56368872 7.17780977 -175 -6 C-174.41347656 -6.36673828 -173.82695313 -6.73347656 -173.22265625 -7.11132812 C-124.1334062 -37.33294125 -46.3150981 -34.13045747 0 0 Z M-132 55 C-157.88735733 87.12762426 -152.11397059 145.37450077 -150 184 C-149.94473145 185.04510742 -149.88946289 186.09021484 -149.83251953 187.16699219 C-148.49222271 210.59370999 -145.72139423 238.42875075 -127.625 255.3125 C-123.64653555 258.64884956 -119.86886268 261.18731192 -115 263 C-114.22140625 263.29777344 -113.4428125 263.59554687 -112.640625 263.90234375 C-97.04412744 268.79315296 -78.88140176 267.49004622 -64 261 C-61.14828671 259.57802614 -61.14828671 259.57802614 -59 258 C-59 257.34 -59 256.68 -59 256 C-58.41089844 255.7421875 -57.82179688 255.484375 -57.21484375 255.21875 C-47.99823307 250.14717587 -43.73727036 238.87989781 -40.875 229.375 C-34.52329381 205.45365493 -33.64706617 181.03904243 -33.73925781 156.39550781 C-33.74999851 153.0004696 -33.7392633 149.60596019 -33.7265625 146.2109375 C-33.71256569 126.51618597 -33.9221355 106.27695771 -38.375 87 C-38.5709375 86.05640625 -38.766875 85.1128125 -38.96875 84.140625 C-41.7789483 71.26351381 -47.12922078 57.18811916 -58 49 C-81.04864066 35.56788505 -112.36473422 35.36473422 -132 55 Z " fill="#003162" transform="translate(1938,989)"/>
<path d="M0 0 C2.67156558 2.24983987 5.28841718 4.55334993 7.89648438 6.87670898 C8.56421875 7.4709668 9.23195313 8.06522461 9.91992188 8.67749023 C33.62044267 31.09840544 45.51465334 63.75883207 51.89648438 94.87670898 C52.05391113 95.61840332 52.21133789 96.36009766 52.37353516 97.12426758 C64.10920739 153.39463286 58.0188453 221.2113908 27.36083984 270.6784668 C22.79476163 277.53291299 17.3830327 283.75125621 11.89648438 289.87670898 C11.16558594 290.6978418 10.4346875 291.51897461 9.68164062 292.36499023 C0.63525607 301.90863906 -13.95810657 314.41194479 -27.10351562 316.87670898 C-27.43351562 317.53670898 -27.76351563 318.19670898 -28.10351562 318.87670898 C-50.07397469 330.13591874 -74.06665471 331.23400778 -98.16601562 331.37670898 C-99.17533142 331.38742432 -100.18464722 331.39813965 -101.22454834 331.40917969 C-134.98488782 331.68050667 -167.19988342 323.9656852 -194.10351562 302.87670898 C-194.90273437 302.29147461 -195.70195313 301.70624023 -196.52539062 301.10327148 C-201.00215386 297.7832558 -204.73363257 294.31411446 -208.29492188 290.02905273 C-210.29684468 287.64663488 -212.41463742 285.39848057 -214.54101562 283.12670898 C-227.10351562 269.22593579 -227.10351562 269.22593579 -227.10351562 263.87670898 C-227.76351563 263.54670898 -228.42351562 263.21670898 -229.10351562 262.87670898 C-230.10913086 261.13012695 -230.10913086 261.13012695 -231.16210938 258.86889648 C-231.54818359 258.04647461 -231.93425781 257.22405273 -232.33203125 256.37670898 C-232.73099609 255.51045898 -233.12996094 254.64420898 -233.54101562 253.75170898 C-233.93611328 252.90866211 -234.33121094 252.06561523 -234.73828125 251.19702148 C-248.11848527 222.52197526 -253.02835505 191.39532854 -253.89257812 159.93920898 C-253.97991869 156.97609938 -254.19786801 154.31311071 -254.68945312 151.37670898 C-255.10351562 148.87670898 -255.10351562 148.87670898 -254.10351562 145.87670898 C-253.98950004 144.32461443 -253.92547749 142.76857537 -253.89257812 141.21264648 C-253.8535437 139.79628906 -253.8535437 139.79628906 -253.8137207 138.35131836 C-253.78560303 137.32844727 -253.75748535 136.30557617 -253.72851562 135.25170898 C-252.73192705 108.04586831 -248.3895995 82.159605 -238.10351562 56.87670898 C-237.66845703 55.60827148 -237.66845703 55.60827148 -237.22460938 54.31420898 C-233.03198951 42.32372125 -225.0198611 31.36737885 -217.72851562 21.06420898 C-217.33647949 20.50830078 -216.94444336 19.95239258 -216.54052734 19.37963867 C-199.73087384 -3.82926616 -169.92495883 -21.00371974 -142.10351562 -27.12329102 C-141.30026855 -27.30520996 -140.49702148 -27.48712891 -139.66943359 -27.67456055 C-92.22275394 -37.96409712 -38.25087016 -31.56999315 0 0 Z M-137.82226562 49.53295898 C-151.67143908 64.51267721 -154.10125264 88.65963004 -155.79101562 108.12670898 C-155.8535553 108.83592499 -155.91609497 109.54514099 -155.98052979 110.27584839 C-162.44934889 180.387949 -162.44934889 180.387949 -139.79492188 244.10717773 C-129.85200956 254.50934697 -119.15413878 260.63688165 -104.49023438 261.31030273 C-102.59063773 261.33364294 -100.69064712 261.33451556 -98.79101562 261.31420898 C-97.78917236 261.30663574 -96.7873291 261.2990625 -95.75512695 261.29125977 C-81.93586312 260.98582472 -69.87299862 257.16071591 -59.41601562 247.81420898 C-48.16189472 235.71072047 -45.34476607 219.44906032 -42.91601562 203.75170898 C-42.74884033 202.68678223 -42.58166504 201.62185547 -42.40942383 200.5246582 C-40.02218783 183.99726133 -39.93526533 167.28109922 -39.97314453 150.61279297 C-39.97851979 147.81203827 -39.97314723 145.01144337 -39.96679688 142.21069336 C-39.95841083 125.37870449 -40.51760021 108.78687916 -43.04101562 92.12670898 C-43.21052734 90.93561523 -43.38003906 89.74452148 -43.5546875 88.51733398 C-46.10084033 71.16864248 -51.11583747 54.62220653 -65.35351562 43.56420898 C-86.74309345 28.83503468 -119.28134284 31.66625157 -137.82226562 49.53295898 Z " fill="#003162" transform="translate(1587.103515625,994.123291015625)"/>
<path d="M0 0 C133.63696943 0 133.63696943 0 151.9375 2.6875 C153.11989258 2.86047607 154.30228516 3.03345215 155.52050781 3.21166992 C186.69658627 8.05478068 216.37832236 20.31988809 235.5078125 46.421875 C246.95690318 62.63777578 254.21678369 81.55177374 258 101 C258.16983398 101.86979492 258.33966797 102.73958984 258.51464844 103.63574219 C268.67819607 157.39410898 267.97538888 217.3538402 249 269 C248.61328125 270.10214844 248.2265625 271.20429687 247.828125 272.33984375 C242.3323855 286.85576439 232.98498409 301.03438978 222 312 C221.34 312 220.68 312 220 312 C219.67 312.99 219.34 313.98 219 315 C165.14089308 367.76947181 56.5534691 349 0 349 C0 233.83 0 118.66 0 0 Z M85 69 C85 136.98 85 204.96 85 275 C121.97838329 276.57162708 121.97838329 276.57162708 153.5 261 C159.50977394 254.81699533 163.10180284 246.32286449 165 238 C165.23332031 237.10410156 165.46664062 236.20820312 165.70703125 235.28515625 C175.63699326 195.71205643 179.42262557 128.10826837 160 91 C153.06705405 79.9988217 144.05727342 74.53038934 131.7421875 71.08984375 C116.00589256 67.61622628 101.64321891 69 85 69 Z " fill="#003162" transform="translate(0,970)"/>
<path d="M0 0 C30.36 0 60.72 0 92 0 C94.64 8.91 97.28 17.82 100 27 C102.12473805 33.99435376 104.25675262 40.98594904 106.40625 47.97265625 C106.98111115 49.84472734 107.55585573 51.71683423 108.13049316 53.588974 C109.61888561 58.4369752 111.1088477 63.28449247 112.59918213 68.13189697 C114.09707345 73.00494066 115.59337043 77.87847384 117.08984375 82.75195312 C123.25396454 102.82603143 123.25396454 102.82603143 129.43383789 122.89526367 C132.92518844 134.21735043 136.38024971 145.54827201 139.75790405 156.90478516 C145.13541151 174.96745334 150.6838343 192.97549321 156.26531982 210.97601318 C162.62569065 231.49346552 168.8945459 252.03766818 175.1159668 272.59765625 C180.51509337 290.43736902 185.92168744 308.27587364 191.53125 326.05078125 C191.86640625 327.11748047 192.2015625 328.18417969 192.546875 329.28320312 C193.20859349 331.3863289 193.87564178 333.48778221 194.546875 335.58789062 C195.03414062 337.14733398 195.03414062 337.14733398 195.53125 338.73828125 C195.95760742 340.08466675 195.95760742 340.08466675 196.39257812 341.45825195 C197 344 197 344 197 349 C167.63 349 138.26 349 108 349 C104.64099037 337.80330124 104.64099037 337.80330124 103.875 333.5625 C103.39031512 330.91373966 102.85519566 328.56558698 102 326 C101.21343108 322.68273106 100.4678305 319.35716744 99.71875 316.03125 C99.04259241 312.97974465 99.04259241 312.97974465 98 310 C97.45544308 307.80273437 96.92646045 305.60159423 96.40625 303.3984375 C96.09518246 302.0911148 95.78398055 300.78382407 95.47265625 299.4765625 C94.98398501 297.4183246 94.49642792 295.35984098 94.01123047 293.30078125 C93.54190942 291.31173141 93.06816633 289.32377723 92.59375 287.3359375 C92.31208984 286.14532715 92.03042969 284.9547168 91.74023438 283.72802734 C91.27140213 281.10564992 91.27140213 281.10564992 90 280 C87.23061034 279.90482197 84.48622841 279.87445735 81.71655273 279.88647461 C80.84833893 279.88632858 79.98012512 279.88618256 79.08560181 279.8860321 C76.20157414 279.88673154 73.3176102 279.89452537 70.43359375 279.90234375 C68.43962133 279.90420782 66.44564845 279.90563177 64.45167542 279.90663147 C59.19254298 279.91045752 53.93343797 279.92028855 48.67431641 279.93133545 C43.31217825 279.9415477 37.95003569 279.94612869 32.58789062 279.95117188 C22.05858167 279.96191074 11.52929311 279.9789882 1 280 C0.70598801 281.18604073 0.70598801 281.18604073 0.40603638 282.39604187 C-1.44402439 289.85645794 -3.29750168 297.31601293 -5.15479851 304.77463055 C-6.10947457 308.6089739 -7.06283778 312.44363363 -8.01318359 316.27905273 C-8.93079054 319.98213553 -9.85186827 323.68433928 -10.7753334 327.38596535 C-11.1266096 328.79660253 -11.47664544 330.2075492 -11.82540512 331.61881065 C-12.31503158 333.59917123 -12.80910265 335.57837402 -13.30419922 337.55737305 C-13.58399628 338.68322311 -13.86379333 339.80907318 -14.15206909 340.96903992 C-15 344 -15 344 -17 349 C-46.37 349 -75.74 349 -106 349 C-105.26699815 343.86898702 -104.42156145 339.6448016 -102.92578125 334.765625 C-102.72136917 334.094104 -102.51695709 333.42258301 -102.30635071 332.73071289 C-101.64680221 330.56888632 -100.97983627 328.40943388 -100.3125 326.25 C-99.85494162 324.75629646 -99.39774939 323.26248072 -98.94091797 321.76855469 C-96.127686 312.58532955 -93.27733758 303.41366248 -90.3515625 294.265625 C-89.26465733 290.85680197 -88.20914035 287.43893009 -87.15917969 284.01855469 C-85.48428018 278.56974488 -83.79979652 273.1240074 -82.10879517 267.68017578 C-80.65882404 263.01215179 -79.21186948 258.34319361 -77.76464844 253.67431641 C-77.00924963 251.2388511 -76.25307379 248.80362665 -75.49609375 246.36865234 C-71.51645317 233.56481743 -67.56542479 220.76039232 -63.94692993 207.84899902 C-62.24850594 201.79258873 -60.41206577 195.78803472 -58.47470093 189.80383301 C-57.36606287 186.46899118 -57.36606287 186.46899118 -57 183 C-56.34 183 -55.68 183 -55 183 C-54.89131592 181.87182861 -54.78263184 180.74365723 -54.6706543 179.58129883 C-54.06463487 174.76779759 -52.73800972 170.3115117 -51.26953125 165.69921875 C-50.86017586 164.38543999 -50.86017586 164.38543999 -50.44255066 163.04512024 C-49.5722125 160.25721367 -48.69252863 157.4723609 -47.8125 154.6875 C-47.24091889 152.86152132 -46.66995062 151.0353507 -46.09960938 149.20898438 C-43.84002593 141.98382874 -41.56081775 134.76494176 -39.27099609 127.54931641 C-38.99591721 126.68143997 -38.72083832 125.81356354 -38.43742371 124.91938782 C-37.91768456 123.28049849 -37.39684455 121.64195773 -36.87471008 120.00382996 C-35.61629946 116.07425684 -35.61629946 116.07425684 -34.52848816 112.09550476 C-33.89790433 109.59518117 -33.14145658 107.14918972 -32.37353516 104.6875 C-32.04294098 103.62539307 -31.7123468 102.56328613 -31.37173462 101.46899414 C-31.01445282 100.32422607 -30.65717102 99.17945801 -30.2890625 98 C-29.53111991 95.56123834 -28.77331176 93.1224349 -28.015625 90.68359375 C-26.82365809 86.84988541 -25.63019472 83.01665166 -24.43457031 79.18408203 C-23.2789083 75.47781163 -22.12745101 71.77025504 -20.9765625 68.0625 C-20.62332916 66.93392578 -20.27009583 65.80535156 -19.90615845 64.64257812 C-17.95150715 58.33403206 -16.1964722 52.02051269 -14.67514038 45.59301758 C-14.04846377 43.18613522 -13.28307199 40.93792939 -12.375 38.625 C-11.13602325 35.35860674 -10.43163527 32.45308218 -10 29 C-9.34 29 -8.68 29 -8 29 C-7.773125 27.700625 -7.54625 26.40125 -7.3125 25.0625 C-6.29809754 19.95373399 -4.90929783 14.99147464 -3.4375 10 C-3.21553955 9.245979 -2.9935791 8.49195801 -2.76489258 7.71508789 C-1.13840561 2.27681123 -1.13840561 2.27681123 0 0 Z M45 102 C44.72438232 103.08265137 44.44876465 104.16530273 44.16479492 105.28076172 C38.03048083 129.36587373 31.82259989 153.43031519 25.5078125 177.46875 C25.3026149 178.25122101 25.0974173 179.03369202 24.88600159 179.83987427 C23.79197997 184.00709054 22.68731626 188.17117389 21.56933594 192.33203125 C21.22030716 193.63823425 21.22030716 193.63823425 20.86422729 194.9708252 C20.4181779 196.63921021 19.96920441 198.30681706 19.51687622 199.97351074 C18.69349574 203.06178104 18 205.78872736 18 209 C36.48 209 54.96 209 74 209 C72.3472816 200.69271517 72.3472816 200.69271517 70.3359375 192.515625 C70.02269531 191.34902344 69.70945312 190.18242188 69.38671875 188.98046875 C69.05285156 187.74941406 68.71898437 186.51835938 68.375 185.25 C68.01919257 183.92847656 67.66373118 182.6068599 67.30859375 181.28515625 C66.57261985 178.54716548 65.83517907 175.80957625 65.09667969 173.07226562 C63.3838607 166.71856415 61.69325519 160.35893679 60 154 C59.34122664 151.52992636 58.68237202 149.0598744 58.0234375 146.58984375 C56.79640185 141.98876052 55.57056637 137.38736097 54.34625244 132.78555298 C53.6154327 130.03883476 52.88414983 127.29223994 52.15283203 124.5456543 C51.63919755 122.61584261 51.12622991 120.68585347 50.61328125 118.75585938 C49.12210951 113.15629471 47.62223801 107.56312933 46 102 C45.67 102 45.34 102 45 102 Z " fill="#003162" transform="translate(389,970)"/>
<path d="M0 0 C65.67 0 131.34 0 199 0 C199 23.76 199 47.52 199 72 C163.03 72 127.06 72 90 72 C90 93.78 90 115.56 90 138 C118.71 138 147.42 138 177 138 C177 158.46 177 178.92 177 200 C148.29 200 119.58 200 90 200 C90 225.08 90 250.16 90 276 C130.26 276 170.52 276 212 276 C212 300.09 212 324.18 212 349 C142.04 349 72.08 349 0 349 C0 233.83 0 118.66 0 0 Z " fill="#003061" transform="translate(637,970)"/>
<path d="M0 0 C0.99 0 1.98 0 3 0 C2.690625 0.763125 2.38125 1.52625 2.0625 2.3125 C1.32106407 4.18789677 0.63771783 6.08684652 0 8 C2.31 7.34 4.62 6.68 7 6 C6.4375 8.875 6.4375 8.875 5 12 C1.49216055 13.40313578 -1.23006774 14 -5 14 C-5.33 13.34 -5.66 12.68 -6 12 C-7.65 12.33 -9.3 12.66 -11 13 C-11.33 12.34 -11.66 11.68 -12 11 C-10.02 10.34 -8.04 9.68 -6 9 C-6.33 6.36 -6.66 3.72 -7 1 C-5.0549 3.91765 -4.54723683 5.62537285 -4 9 C-3.79503906 8.43410156 -3.59007812 7.86820312 -3.37890625 7.28515625 C-3.10949219 6.55167969 -2.84007812 5.81820313 -2.5625 5.0625 C-2.29566406 4.33160156 -2.02882813 3.60070312 -1.75390625 2.84765625 C-1 1 -1 1 0 0 Z " fill="#E8E9E9" transform="translate(1013,390)"/>
<path d="M0 0 C0 3 0 3 -1.52880859 4.90112305 C-2.5780249 5.94586792 -2.5780249 5.94586792 -3.6484375 7.01171875 C-4.40640625 7.76904297 -5.164375 8.52636719 -5.9453125 9.30664062 C-6.74710938 10.09232422 -7.54890625 10.87800781 -8.375 11.6875 C-9.1690625 12.48478516 -9.963125 13.28207031 -10.78125 14.10351562 C-16.73321883 20 -16.73321883 20 -19 20 C-19 18 -19 18 -17.0625 15.9375 C-16.61390625 15.50953125 -16.1653125 15.0815625 -15.703125 14.640625 C-14.35571627 13.34266247 -13.03917204 12.01266644 -11.734375 10.671875 C-10.93515625 9.85203125 -10.1359375 9.0321875 -9.3125 8.1875 C-8.54550781 7.39730469 -7.77851562 6.60710937 -6.98828125 5.79296875 C-5 4 -5 4 -3 4 C-3 3.34 -3 2.68 -3 2 C-2.01 1.34 -1.02 0.68 0 0 Z " fill="#A6A9AC" transform="translate(1242,123)"/>
<path d="M0 0 C6.13370756 0.68717885 11.88886891 2.23276973 17.8125 3.9375 C19.24239258 4.33485352 19.24239258 4.33485352 20.70117188 4.74023438 C22.06532227 5.12985352 22.06532227 5.12985352 23.45703125 5.52734375 C24.28178955 5.76187256 25.10654785 5.99640137 25.95629883 6.23803711 C28 7 28 7 30 9 C28.68 9.33 27.36 9.66 26 10 C26 9.34 26 8.68 26 8 C24.9171875 8.061875 24.9171875 8.061875 23.8125 8.125 C20.71846449 7.98748731 18.85865971 7.16630054 16 6 C12.66306386 4.96579219 9.31356895 3.98200646 5.9609375 3 C3 2 3 2 0 0 Z " fill="#8E9296" transform="translate(609,764)"/>
<path d="M0 0 C3.36179774 1.44077046 5.59156268 3.24750021 8 6 C8 6.66 8 7.32 8 8 C8.598125 8.2475 9.19625 8.495 9.8125 8.75 C12.31626919 10.18072525 13.48072388 11.5691582 15 14 C15 14.66 15 15.32 15 16 C14.34 16 13.68 16 13 16 C11.64721885 14.01310269 10.31431695 12.01254782 9 10 C8.34 9.67 7.68 9.34 7 9 C7 8.34 7 7.68 7 7 C6.34 7 5.68 7 5 7 C0 1.4047619 0 1.4047619 0 0 Z " fill="#868C93" transform="translate(798,399)"/>
<path d="M0 0 C0.33 0.66 0.66 1.32 1 2 C-0.59235692 4.34222857 -2.19773557 6.67330188 -3.8125 9 C-4.26431641 9.66773438 -4.71613281 10.33546875 -5.18164062 11.0234375 C-6.37950812 12.73717493 -7.68400422 14.37521151 -9 16 C-9.99 16 -10.98 16 -12 16 C-11.34 15.67 -10.68 15.34 -10 15 C-9.71125 14.071875 -9.4225 13.14375 -9.125 12.1875 C-7.89821267 8.71160256 -6.68217462 7.44551215 -4 5 C-2.64843325 3.34808509 -1.31037934 1.68477344 0 0 Z " fill="#8E9193" transform="translate(1536,524)"/>
<path d="M0 0 C-2.79738782 1.5067748 -5.40322432 2.48224115 -8.5 3.1875 C-9.2528125 3.36667969 -10.005625 3.54585937 -10.78125 3.73046875 C-13.14833379 4.01801942 -14.74544015 3.72248395 -17 3 C-4.625 -1.125 -4.625 -1.125 0 0 Z " fill="#8E9196" transform="translate(1392,770)"/>
<path d="M0 0 C0.99 0.33 1.98 0.66 3 1 C-0.3 4.63 -3.6 8.26 -7 12 C-7 8.19654123 -5.86213669 7.22298985 -3.5 4.3125 C-2.8503125 3.50425781 -2.200625 2.69601563 -1.53125 1.86328125 C-1.0259375 1.24839844 -0.520625 0.63351563 0 0 Z " fill="#E5E5E6" transform="translate(297,241)"/>
<path d="M0 0 C0.66 0 1.32 0 2 0 C2.3152595 5.98993047 1.68219822 9.63560356 -1 15 C-2.05802584 11.75933345 -1.9025427 9.65830415 -1.0625 6.375 C-0.25306985 3.22191545 -0.25306985 3.22191545 0 0 Z " fill="#878B91" transform="translate(1585,399)"/>
<path d="M0 0 C0.99 0.33 1.98 0.66 3 1 C3 4.63 3 8.26 3 12 C0.50494038 9.50494038 0.64051624 8.32671112 0.375 4.875 C0.30023437 3.96492187 0.22546875 3.05484375 0.1484375 2.1171875 C0.09945312 1.41851563 0.05046875 0.71984375 0 0 Z " fill="#BBBBBB" transform="translate(988,585)"/>
<path d="M0 0 C0 3 0 3 -1 5 C-2.98 5 -4.96 5 -7 5 C-6.3125 3.0625 -6.3125 3.0625 -5 1 C-2.375 0.25 -2.375 0.25 0 0 Z " fill="#E2E3E3" transform="translate(1019,396)"/>
<path d="M0 0 C3.81684226 1.55500981 6.19195732 4.03595495 9 7 C8.67 7.66 8.34 8.32 8 9 C6.66079162 7.88200014 5.32877444 6.75538103 4 5.625 C2.88625 4.68527344 2.88625 4.68527344 1.75 3.7265625 C1.1725 3.15679688 0.595 2.58703125 0 2 C0 1.34 0 0.68 0 0 Z " fill="#A8AAAD" transform="translate(526,578)"/>
<path d="M0 0 C0.33 0.66 0.66 1.32 1 2 C-1.64 5.3 -4.28 8.6 -7 12 C-7.33 11.01 -7.66 10.02 -8 9 C-5.36 6.03 -2.72 3.06 0 0 Z " fill="#838587" transform="translate(1197,422)"/>
<path d="M0 0 C2.70608417 1.35304209 2.96183047 2.80966544 4.125 5.5625 C4.47820312 6.38878906 4.83140625 7.21507812 5.1953125 8.06640625 C5.46085937 8.70449219 5.72640625 9.34257813 6 10 C5.01 10 4.02 10 3 10 C1.68 7.03 0.36 4.06 -1 1 C-0.67 0.67 -0.34 0.34 0 0 Z " fill="#898D92" transform="translate(330,526)"/>
<path d="M0 0 C4.455 0.99 4.455 0.99 9 2 C9 2.66 9 3.32 9 4 C2.25 3.125 2.25 3.125 0 2 C0 1.34 0 0.68 0 0 Z " fill="#7F848A" transform="translate(708,788)"/>
<path d="M0 0 C3.48670834 1.1094072 6.77484237 2.26337666 10 4 C9.67 4.66 9.34 5.32 9 6 C4.545 4.02 4.545 4.02 0 2 C0 1.34 0 0.68 0 0 Z " fill="#A4A8AE" transform="translate(540,736)"/>
<path d="M0 0 C-1.34882814 4.04648443 -3.34826069 4.95502599 -7 7 C-7.99 6.67 -8.98 6.34 -10 6 C-8.71283353 4.99421411 -7.42011342 3.99553202 -6.125 3 C-5.40570312 2.443125 -4.68640625 1.88625 -3.9453125 1.3125 C-2 0 -2 0 0 0 Z " fill="#B9BBBC" transform="translate(1468,599)"/>
<path d="M0 0 C0.66 0 1.32 0 2 0 C3.05404945 3.98196457 2.84098656 6.98195309 2 11 C1.01 10.67 0.02 10.34 -1 10 C-0.835 8.906875 -0.67 7.81375 -0.5 6.6875 C0.06718184 3.12474127 0.06718184 3.12474127 0 0 Z " fill="#ACB0B4" transform="translate(1592,347)"/>
<path d="M0 0 C0.33 0.99 0.66 1.98 1 3 C0.00390625 4.82421875 0.00390625 4.82421875 -1.4375 6.6875 C-1.91058594 7.31011719 -2.38367187 7.93273437 -2.87109375 8.57421875 C-3.24363281 9.04472656 -3.61617187 9.51523437 -4 10 C-4.33 9.01 -4.66 8.02 -5 7 C-4.00390625 5.17578125 -4.00390625 5.17578125 -2.5625 3.3125 C-2.08941406 2.68988281 -1.61632813 2.06726563 -1.12890625 1.42578125 C-0.75636719 0.95527344 -0.38382813 0.48476563 0 0 Z " fill="#818487" transform="translate(1548,504)"/>
<path d="" fill="#6A7789" transform="translate(0,0)"/>
<path d="" fill="#6A7789" transform="translate(0,0)"/>
<path d="" fill="#6A7789" transform="translate(0,0)"/>
<path d="" fill="#6A7789" transform="translate(0,0)"/>
<path d="" fill="#6A7789" transform="translate(0,0)"/>
<path d="" fill="#6A7789" transform="translate(0,0)"/>
<path d="" fill="#6A7789" transform="translate(0,0)"/>
<path d="" fill="#6A7789" transform="translate(0,0)"/>
<path d="" fill="#6A7789" transform="translate(0,0)"/>
<path d="" fill="#6A7789" transform="translate(0,0)"/>
<path d="" fill="#6A7789" transform="translate(0,0)"/>
<path d="" fill="#6A7789" transform="translate(0,0)"/>
<path d="" fill="#6A7789" transform="translate(0,0)"/>
<path d="" fill="#6A7789" transform="translate(0,0)"/>
<path d="" fill="#6A7789" transform="translate(0,0)"/>
<path d="" fill="#6A7789" transform="translate(0,0)"/>
<path d="" fill="#6A7789" transform="translate(0,0)"/>
</svg>
