<?xml version="1.0" encoding="UTF-8"?>
<svg version="1.1" xmlns="http://www.w3.org/2000/svg" width="2000" height="1483">
<path d="M0 0 C3.67782197 0.01707495 7.3549914 0.00690886 11.03279114 -0.01031685 C36.44866325 -0.11115494 61.52295052 1.69523627 86.60522461 6.01611328 C87.33660645 6.14016541 88.06798828 6.26421753 88.8215332 6.39202881 C129.33909409 13.33133985 168.40003702 25.83411665 205.98022461 42.39111328 C206.81489258 42.7565625 207.64956055 43.12201172 208.50952148 43.49853516 C247.54629371 60.74734149 284.5015829 84.98910368 316.87084961 112.75439453 C319.64238858 115.12452057 322.49140812 117.38310412 325.35522461 119.64111328 C330.87147353 124.11089733 335.81564706 129.08717285 340.7668457 134.16357422 C344.02541824 137.49602743 347.31527804 140.49973675 350.98022461 143.39111328 C352.09833989 144.58872759 353.1836669 145.81798695 354.23022461 147.07861328 C356.81294783 150.1085613 359.50059352 152.92855379 362.35522461 155.70361328 C366.40887501 159.70941283 369.99416086 163.95428527 373.55053711 168.40283203 C375.24496513 170.48681504 376.95020165 172.52109632 378.72241211 174.53564453 C438.54393212 242.53797123 475.31796099 332.17583967 489.98022461 447.39111328 C490.0744873 448.50139893 490.16875 449.61168457 490.26586914 450.75561523 C491.11313122 461.85868919 491.22344377 472.94757577 491.23022461 484.07861328 C491.23123672 485.58553238 491.23123672 485.58553238 491.23226929 487.12289429 C491.17882589 537.68384478 483.43918753 587.22439127 467.98022461 635.39111328 C467.63765625 636.46135742 467.29508789 637.53160156 466.94213867 638.63427734 C461.31319986 656.00372412 454.43314066 672.73118128 446.98022461 689.39111328 C446.6104248 690.22465332 446.240625 691.05819336 445.85961914 691.91699219 C433.48834688 719.66027966 417.6185317 746.29026572 399.36743164 770.54541016 C398.10970891 772.21883216 396.87006631 773.90580513 395.63256836 775.59423828 C387.37161259 786.80874811 378.6174599 797.74018592 369.17553711 807.98486328 C367.98748736 809.28706728 366.80639026 810.59653918 365.66772461 811.94213867 C360.0120685 818.59162004 353.8350683 824.72235378 347.66625977 830.89038086 C345.74326279 832.8155603 343.82841887 834.74860359 341.91381836 836.68212891 C335.61677019 843.00724395 329.2943556 849.04610497 322.27075195 854.56811523 C320.0413211 856.34248745 317.94416494 858.20456991 315.85522461 860.14111328 C287.00148953 886.01706076 252.39519544 906.00191288 217.98022461 923.39111328 C217.18181152 923.79571777 216.38339844 924.20032227 215.56079102 924.6171875 C158.83005333 953.11013671 95.21049533 968.07158486 32.04272461 971.57861328 C31.27593384 971.62167603 30.50914307 971.66473877 29.71911621 971.70910645 C12.54454889 972.64895308 -4.5345204 972.5805609 -21.70727539 971.64111328 C-22.50036102 971.59787933 -23.29344666 971.55464539 -24.11056519 971.51010132 C-116.96715861 966.29616358 -206.15692284 933.89335198 -316.61352539 850.58642578 C-317.91384295 849.4000971 -319.22152491 848.22076471 -320.56640625 847.08520508 C-327.27144175 841.39045594 -333.42325228 835.13832059 -339.62890625 828.91235352 C-341.57774409 826.95815705 -343.53186811 825.00936181 -345.48657227 823.06103516 C-351.54212813 817.00900595 -357.52101407 810.96165877 -363.01977539 804.39111328 C-363.90777278 803.3691267 -364.79704217 802.34824358 -365.68774414 801.32861328 C-372.29280186 793.62783281 -378.47000094 785.67909667 -384.46948242 777.49902344 C-386.01594725 775.39631835 -387.57766553 773.30561147 -389.14086914 771.21533203 C-406.2493267 748.15221513 -420.54096165 723.19959929 -433.05004883 697.37939453 C-434.0580499 695.31263706 -435.08922123 693.25842088 -436.12133789 691.20361328 C-461.67474976 639.62959227 -475.28399813 581.55498614 -480.01977539 524.39111328 C-480.11403809 523.28662842 -480.20830078 522.18214355 -480.30541992 521.04418945 C-481.16904353 509.76996176 -481.26305419 498.5062877 -481.26977539 487.20361328 C-481.27045013 486.17565643 -481.27112488 485.14769958 -481.27182007 484.08859253 C-481.20016658 414.77690293 -466.69226569 345.50348282 -437.0949707 282.68554688 C-436.01630225 280.3837017 -434.96515667 278.07081851 -433.91821289 275.75439453 C-415.5618213 235.54034638 -389.91770227 197.39774277 -360.14086914 164.73095703 C-358.21191204 162.60306513 -356.32941187 160.44390469 -354.45727539 158.26611328 C-351.46064577 154.81964319 -348.27174662 151.6187271 -345.01196289 148.42236328 C-342.33913414 145.69712612 -339.89672377 142.8004462 -337.46508789 139.85986328 C-336.98813477 139.37517578 -336.51118164 138.89048828 -336.01977539 138.39111328 C-335.35977539 138.39111328 -334.69977539 138.39111328 -334.01977539 138.39111328 C-334.01977539 137.73111328 -334.01977539 137.07111328 -334.01977539 136.39111328 C-332.76196289 135.12158203 -332.76196289 135.12158203 -330.89477539 133.57861328 C-327.50994036 130.70899208 -324.24042096 127.7505634 -321.00952148 124.7109375 C-314.55988129 118.64572452 -307.97818588 112.87296144 -301.01977539 107.39111328 C-300.39151855 106.8903125 -299.76326172 106.38951172 -299.1159668 105.87353516 C-270.19795668 82.83703897 -239.18385398 63.42184439 -205.90454102 47.30908203 C-204.04463002 46.40321865 -202.19629301 45.47645989 -200.34790039 44.54736328 C-161.69824034 25.42766957 -119.00379793 13.14555478 -76.58227539 6.01611328 C-75.90659515 5.90064148 -75.23091492 5.78516968 -74.53475952 5.66619873 C-69.37687628 4.79706901 -64.20670022 4.06413762 -59.01977539 3.39111328 C-58.01588776 3.25981018 -57.01200012 3.12850708 -55.97769165 2.9932251 C-37.2643425 0.62161519 -18.83152022 -0.08806322 0 0 Z M-141.49414062 90.17358398 C-144.66255309 91.26775149 -147.83760325 92.33774473 -151.01977539 93.39111328 C-151.01977539 93.72111328 -151.01977539 94.05111328 -151.01977539 94.39111328 C-149.5304248 94.45057129 -149.5304248 94.45057129 -148.01098633 94.51123047 C-64.53124574 97.93448678 16.6549015 114.37522581 115.98022461 178.39111328 C116.87225586 179.08333984 117.76428711 179.77556641 118.68334961 180.48876953 C121.1452031 182.42251574 123.56578295 184.39853975 125.98022461 186.39111328 C126.94057617 187.16583984 127.90092773 187.94056641 128.89038086 188.73876953 C136.95591668 195.36293115 144.40079118 202.59750625 151.79272461 209.95361328 C152.28050385 210.43621613 152.76828308 210.91881897 153.27084351 211.41604614 C159.97152077 218.06060831 166.10700462 225.00392725 171.98022461 232.39111328 C172.95677714 233.5649553 173.93667736 234.7360302 174.92163086 235.90283203 C192.65497993 257.23203637 207.08488837 281.50563418 219.05786133 306.48144531 C219.97314482 308.37645522 220.913893 310.2569897 221.85913086 312.13720703 C248.37163192 365.66129974 259.26255709 425.55423535 265.98022461 484.39111328 C275.23805041 477.62312053 283.89833658 470.2128589 291.28491211 461.39892578 C293.22286277 459.10374919 295.25557427 456.91111765 297.29272461 454.70361328 C302.54593911 448.86572398 307.29908649 442.68796726 311.98022461 436.39111328 C312.47006836 435.73643066 312.95991211 435.08174805 313.46459961 434.40722656 C336.89314834 402.98427721 355.9694282 368.56994987 373.48022461 333.57861328 C373.81970123 332.90074768 374.15917786 332.22288208 374.50894165 331.5244751 C376.69138893 327.15878429 378.84137654 322.77832138 380.98022461 318.39111328 C381.51260742 317.32973145 382.04499023 316.26834961 382.59350586 315.17480469 C383.06143555 314.21106934 383.52936523 313.24733398 384.01147461 312.25439453 C384.41946289 311.4285083 384.82745117 310.60262207 385.24780273 309.75170898 C386.56959076 305.49158617 385.01559991 302.08313936 383.11694336 298.23095703 C382.73103027 297.44769043 382.34511719 296.66442383 381.94750977 295.85742188 C381.52518066 295.02291504 381.10285156 294.1884082 380.66772461 293.32861328 C380.22477051 292.45027832 379.78181641 291.57194336 379.32543945 290.66699219 C364.7758261 262.26108618 346.25595781 235.17214115 324.98022461 211.39111328 C323.74272461 210.00472656 323.74272461 210.00472656 322.48022461 208.59033203 C321.06202546 207.01162723 319.63977919 205.43653249 318.21069336 203.86767578 C316.94726215 202.46484673 315.69098425 201.05526767 314.45898438 199.62475586 C310.0222939 194.4773856 305.3600199 189.61989258 300.54272461 184.82861328 C299.47441406 183.75450195 299.47441406 183.75450195 298.38452148 182.65869141 C293.74675227 178.02934685 288.94994537 173.65951725 283.98022461 169.39111328 C282.93208248 168.46546278 281.88513114 167.53846147 280.83959961 166.60986328 C258.33652283 146.83027285 233.23082106 129.78439071 206.98022461 115.39111328 C206.1379834 114.92286133 205.29574219 114.45460937 204.42797852 113.97216797 C128.93354459 72.22114179 39.35390052 56.64227654 -141.49414062 90.17358398 Z M-172.14086914 102.59423828 C-173.65076416 103.31281006 -173.65076416 103.31281006 -175.19116211 104.04589844 C-176.26897949 104.57231934 -177.34679687 105.09874023 -178.45727539 105.64111328 C-179.5789209 106.18687012 -180.70056641 106.73262695 -181.85620117 107.29492188 C-197.60538048 115.04798664 -212.47580869 123.86163145 -227.08227539 133.57861328 C-227.64186951 133.95052795 -228.20146362 134.32244263 -228.77801514 134.70562744 C-239.59039831 141.91640781 -250.01358159 149.61178382 -260.08227539 157.82861328 C-260.75709961 158.37791504 -261.43192383 158.9272168 -262.12719727 159.49316406 C-267.02557258 163.50950557 -271.7576552 167.66025797 -276.39477539 171.97705078 C-278.48873189 173.90274292 -280.61061501 175.76634226 -282.76586914 177.62158203 C-287.40114502 181.66426458 -291.74568917 185.96995792 -296.08227539 190.32861328 C-296.84604492 191.08851563 -297.60981445 191.84841797 -298.39672852 192.63134766 C-303.14567246 197.3884164 -307.64523545 202.28984286 -312.01977539 207.39111328 C-312.94534266 208.43932891 -313.87234353 209.48628107 -314.80102539 210.53173828 C-376.45567792 280.68388309 -415.82630035 376.73839968 -416.22290039 470.63720703 C-416.2299147 471.7587468 -416.23692902 472.88028656 -416.24415588 474.03581238 C-416.26154991 477.6334541 -416.26800791 481.23093106 -416.26977539 484.82861328 C-416.27045013 486.05964783 -416.27112488 487.29068237 -416.27182007 488.559021 C-416.25573341 507.03100937 -415.79979908 525.1004932 -413.01977539 543.39111328 C-412.75438965 545.18427979 -412.75438965 545.18427979 -412.48364258 547.01367188 C-406.4999712 586.51727091 -395.39176258 624.92331435 -379.01977539 661.39111328 C-378.68977539 661.39111328 -378.35977539 661.39111328 -378.01977539 661.39111328 C-378.07512451 660.70710449 -378.13047363 660.0230957 -378.1875 659.31835938 C-378.44476007 656.13433095 -378.70102001 652.95022272 -378.95727539 649.76611328 C-379.08779297 648.15349609 -379.08779297 648.15349609 -379.22094727 646.50830078 C-379.40093784 644.26841805 -379.57737808 642.0282479 -379.75073242 639.7878418 C-379.92074412 637.64140553 -380.10247825 635.4958368 -380.30053711 633.35180664 C-383.14068687 600.11486422 -382.36175011 565.4803865 -378.01977539 532.39111328 C-377.9250293 531.66373962 -377.8302832 530.93636597 -377.73266602 530.18695068 C-368.37461302 459.31537245 -343.9746252 388.37097378 -297.01977539 333.39111328 C-296.31079102 332.49908203 -295.60180664 331.60705078 -294.87133789 330.68798828 C-288.40915608 322.69914216 -281.26163598 315.41652603 -274.01977539 308.14111328 C-273.5113913 307.6275528 -273.0030072 307.11399231 -272.47921753 306.58486938 C-265.66481071 299.71587819 -258.62804561 293.38974563 -251.01977539 287.39111328 C-249.58344202 286.22982247 -248.14723477 285.06837563 -246.71118164 283.90673828 C-177.50138577 228.83372852 -89.92923019 204.34072008 -1.01977539 194.39111328 C-0.7048692 191.4612989 -0.7048692 191.4612989 -2.22216797 189.90820312 C-2.78057373 189.39467285 -3.33897949 188.88114258 -3.91430664 188.35205078 C-4.53394287 187.77656494 -5.1535791 187.2010791 -5.79199219 186.6081543 C-6.46528564 186.00028076 -7.1385791 185.39240723 -7.83227539 184.76611328 C-8.52297119 184.13439209 -9.21366699 183.5026709 -9.92529297 182.85180664 C-15.46222478 177.82156421 -21.10021053 172.96709828 -27.01977539 168.39111328 C-27.7166748 167.84874023 -28.41357422 167.30636719 -29.1315918 166.74755859 C-45.31506869 154.20645907 -62.18108247 143.19730057 -80.15942383 133.41162109 C-81.92785072 132.44153915 -83.68133656 131.44436561 -85.43383789 130.44580078 C-102.71940512 120.80802402 -152.61770888 93.27048013 -172.14086914 102.59423828 Z M2.98022461 196.39111328 C-3.26564445 202.53533167 -9.34318687 208.71073777 -15.01977539 215.39111328 C-15.90930504 216.40639693 -16.80003525 217.42062936 -17.69165039 218.43408203 C-37.11918902 240.61955417 -53.91914943 265.50567684 -68.01977539 291.39111328 C-68.49044434 292.24495605 -68.96111328 293.09879883 -69.44604492 293.97851562 C-92.18244798 335.43373422 -107.32032403 380.57249374 -114.01977539 427.39111328 C-114.16930664 428.38723633 -114.31883789 429.38335937 -114.47290039 430.40966797 C-119.38685698 464.35197587 -119.12054511 500.4930417 -114.01977539 534.39111328 C-113.87523926 535.39062012 -113.73070312 536.39012695 -113.58178711 537.41992188 C-103.37658617 606.46042305 -72.37516987 677.87773493 -29.37670898 732.65332031 C-28.0576117 734.3426572 -26.76350751 736.04811078 -25.47680664 737.76220703 C-15.19424858 751.42143105 -3.76569349 763.98492168 7.98022461 776.39111328 C10.942008 775.05623068 13.03775505 773.58978592 15.33569336 771.30126953 C15.95331543 770.68775635 16.5709375 770.07424316 17.20727539 769.44213867 C17.85422363 768.78592529 18.50117187 768.12971191 19.16772461 767.45361328 C19.8404541 766.77484131 20.51318359 766.09606934 21.20629883 765.39672852 C25.62644405 760.88877642 29.78581813 756.26705336 33.69116211 751.30126953 C35.41572572 749.10877826 37.16465318 746.96070031 38.95678711 744.82470703 C56.44801953 723.8839399 71.25457616 700.50286823 83.98022461 676.39111328 C84.44928223 675.50359375 84.91833984 674.61607422 85.40161133 673.70166016 C122.95562994 602.03576509 138.24919675 519.67274796 126.98022461 439.39111328 C126.81925293 438.23514648 126.65828125 437.07917969 126.49243164 435.88818359 C114.05403838 350.50416991 70.30556655 268.39520401 12.48022461 205.20361328 C11.9878833 204.662771 11.49554199 204.12192871 10.98828125 203.56469727 C8.4935461 200.86755826 6.01313694 198.47266396 2.98022461 196.39111328 Z M391.98022461 319.39111328 C392.12462667 322.24535835 392.27074111 325.09950082 392.41772461 327.95361328 C392.45704102 328.73414063 392.49635742 329.51466797 392.53686523 330.31884766 C392.73080354 334.06334882 392.93356413 337.80219592 393.22973633 341.5402832 C394.15834956 353.54760489 394.22369154 365.54037833 394.23022461 377.57861328 C394.23089935 378.70127594 394.2315741 379.8239386 394.23226929 380.98062134 C394.14622974 471.64780896 370.97484103 564.89510468 312.98022461 636.39111328 C311.8993457 637.75816406 311.8993457 637.75816406 310.79663086 639.15283203 C298.64346395 654.33887481 284.95211714 669.19908909 269.66772461 681.26220703 C266.83333491 683.50747213 264.10025455 685.85019767 261.35522461 688.20361328 C225.39605197 718.14645073 182.09096619 738.68541805 137.98022461 753.39111328 C136.39056885 753.92430176 136.39056885 753.92430176 134.76879883 754.46826172 C94.93606805 767.6776213 53.57918785 774.67300647 11.98022461 779.39111328 C27.93806936 798.54324263 49.99700609 814.09380625 70.98022461 827.39111328 C71.84019043 827.93880371 71.84019043 827.93880371 72.7175293 828.49755859 C97.80853332 844.34824952 125.02149354 856.97691811 153.1340332 866.38378906 C155.72540242 867.3009266 158.2075641 868.33487265 160.71850586 869.44970703 C167.5117778 872.25353211 172.53422609 873.18706637 179.61303711 870.69580078 C185.9809247 868.04493659 191.97136223 864.76238122 197.98022461 861.39111328 C199.97155381 860.3153043 201.96373 859.24106148 203.95678711 858.16845703 C245.96248362 835.23274556 287.04160991 805.00631299 318.25366211 768.39501953 C320.19763507 766.13877943 322.21345979 763.95747435 324.23022461 761.76611328 C378.51403352 701.43039324 411.32814327 623.11760787 422.98022461 543.39111328 C423.22796631 541.75553467 423.22796631 541.75553467 423.48071289 540.08691406 C428.73606199 503.86467854 428.45949797 464.56500872 422.98022461 428.39111328 C422.80861816 427.21693848 422.63701172 426.04276367 422.46020508 424.83300781 C418.72073637 399.80630434 412.92034052 375.50098017 404.91772461 351.51611328 C404.54355911 350.39376785 404.54355911 350.39376785 404.16183472 349.24874878 C400.77507967 339.1516886 397.03672693 329.2376199 392.98022461 319.39111328 C392.65022461 319.39111328 392.32022461 319.39111328 391.98022461 319.39111328 Z M-272.76977539 505.89111328 C-277.02924251 510.23675459 -280.93311964 514.77081618 -284.71899414 519.53173828 C-286.74369316 522.04800259 -288.83170575 524.49203499 -290.95361328 526.92626953 C-297.9383586 534.98092891 -304.0164012 543.59085353 -310.01977539 552.39111328 C-310.44613281 553.01211914 -310.87249023 553.633125 -311.31176758 554.27294922 C-333.68372134 586.93493723 -352.68519897 622.08052754 -369.51977539 657.89111328 C-369.99511719 658.88199951 -370.47045898 659.87288574 -370.96020508 660.89379883 C-371.38205078 661.8107251 -371.80389648 662.72765137 -372.23852539 663.67236328 C-372.79443359 664.86442383 -372.79443359 664.86442383 -373.36157227 666.08056641 C-375.14605751 672.34479798 -370.71603637 678.34092663 -367.89477539 683.70361328 C-367.36489014 684.71254639 -366.83500488 685.72147949 -366.2890625 686.76098633 C-353.69036437 710.36691053 -338.51005934 732.10778585 -321.44213867 752.66455078 C-320.19899562 754.17356342 -318.98028493 755.70263677 -317.76586914 757.23486328 C-305.82098457 772.28496452 -291.96974518 786.99747838 -277.29711914 799.44970703 C-275.47453938 801.00343283 -273.68303 802.57941281 -271.89868164 804.17626953 C-251.1722355 822.61508549 -228.14501177 838.70536539 -204.01977539 852.39111328 C-203.1820459 852.86871094 -202.34431641 853.34630859 -201.48120117 853.83837891 C-116.19884706 902.12445707 -16.21839196 917.68729418 114.48999023 893.44042969 C128.16505102 889.61373301 141.67202077 885.34649525 154.98022461 880.39111328 C154.98022461 880.06111328 154.98022461 879.73111328 154.98022461 879.39111328 C150.45114833 878.69441489 145.99773004 878.21739549 141.42163086 877.99658203 C82.24241758 874.88448334 23.47903034 863.44849963 -30.56518555 838.52148438 C-32.85844079 837.46541 -35.16140221 836.43491424 -37.46899414 835.41064453 C-68.01481046 821.67881204 -95.7840175 802.25310675 -121.01977539 780.39111328 C-121.81383789 779.71048828 -122.60790039 779.02986328 -123.42602539 778.32861328 C-135.06183618 768.12735451 -146.51419609 757.14125656 -156.03930664 744.92626953 C-158.17767475 742.18898965 -160.43694108 739.58222901 -162.70727539 736.95361328 C-174.70971983 722.53207151 -184.69974005 706.63664702 -194.01977539 690.39111328 C-194.50655762 689.55451172 -194.99333984 688.71791016 -195.49487305 687.85595703 C-230.57696972 627.28587909 -244.97027669 558.16126782 -253.01977539 489.39111328 C-258.48427439 489.39111328 -268.89239067 502.08512516 -272.76977539 505.89111328 Z " fill="#E82027" transform="translate(995.019775390625,-0.39111328125)"/>
<path d="M0 0 C48.15445248 -0.1764583 96.30859935 -0.32413485 144.46328277 -0.40852264 C150.15203609 -0.41852795 155.84078872 -0.42888256 161.52954102 -0.43945312 C163.22828945 -0.44260085 163.22828945 -0.44260085 164.96135604 -0.44581217 C183.28393197 -0.48059574 201.60630652 -0.54365742 219.9287631 -0.61722237 C238.73787937 -0.69210983 257.54689038 -0.73648615 276.35614961 -0.75270796 C287.95685477 -0.76366941 299.55699066 -0.79825374 311.15752053 -0.86333174 C319.11907653 -0.90571254 327.08033946 -0.91837983 335.042 -0.90801102 C339.63147729 -0.90290119 344.21996186 -0.91057475 348.80926132 -0.9536438 C353.020282 -0.99287201 357.22965234 -0.9943549 361.44075256 -0.96719116 C362.95517486 -0.96383936 364.46970455 -0.97374017 365.98391879 -0.99906546 C377.58661154 -1.18166262 385.37272805 1.91953857 395 8 C395.86198047 8.5321548 396.72396094 9.06430961 397.61206204 9.61259031 C399.55541161 10.83470136 401.43755326 12.11326518 403.3125 13.4375 C404.30612549 14.12900146 404.30612549 14.12900146 405.31982422 14.83447266 C410.17387144 18.27191852 414.64680394 22.00542369 418.97265625 26.09375 C421.10406746 28.15823626 421.10406746 28.15823626 424.0625 30.375 C439.09504487 43.80833797 450.26653809 64.00150169 453 84 C453.14550259 86.96806952 453.15209917 89.93219885 453.15390015 92.90344238 C453.1582824 93.78890543 453.16266465 94.67436847 453.1671797 95.58666372 C453.18051348 98.54801242 453.18673437 101.5093314 453.19287109 104.47070312 C453.2007764 106.59663017 453.20904562 108.7225559 453.21765137 110.84848022 C453.24382414 117.8260572 453.25917532 124.80364003 453.2734375 131.78125 C453.27879933 134.18743391 453.28417684 136.59361779 453.28956985 138.99980164 C453.31119253 149.01267223 453.32992728 159.02554124 453.34119225 169.03842926 C453.3574195 183.3655792 453.39057499 197.69245747 453.44759309 212.01950502 C453.48635791 222.10553628 453.50583275 232.19149508 453.51111281 242.27759886 C453.51475754 248.29534279 453.52668567 254.31279663 453.55921555 260.33045959 C453.58941074 265.99735258 453.59556708 271.66378167 453.58383179 277.33073807 C453.583612 279.40185404 453.59183734 281.47299226 453.60948563 283.54403305 C453.70512131 295.42077277 453.041228 305.11716392 448 316 C447.69260077 316.69880531 447.38520153 317.39761063 447.06848717 318.11759186 C443.476825 325.87185749 438.66356382 332.6444594 433 339 C432.33484375 339.75925781 431.6696875 340.51851562 430.984375 341.30078125 C421.2207169 351.76959243 409.59426958 357.98269606 396 362 C395.41534855 362.18050901 394.8306971 362.36101803 394.22832894 362.54699701 C391.25077376 363.15231222 388.42500523 363.1240182 385.38579941 363.12304783 C384.38611262 363.1247786 384.38611262 363.1247786 383.36623013 363.12654433 C381.12317716 363.12920048 378.88019533 363.12469705 376.637146 363.12025452 C375.01677186 363.12069042 373.39639779 363.12156569 371.7760241 363.12284368 C367.3156356 363.12508483 362.855271 363.12107252 358.39488554 363.11606562 C353.58782164 363.11175588 348.78075914 363.11320792 343.97369385 363.1139679 C335.64255198 363.1144928 327.31141792 363.11134951 318.98027802 363.10573006 C306.93477833 363.0976105 294.88928243 363.09499937 282.84378031 363.09374207 C263.30177587 363.09155227 243.75977561 363.08489412 224.21777344 363.07543945 C205.23209656 363.06626348 186.24642083 363.05919501 167.26074219 363.05493164 C165.48805839 363.05452964 165.48805839 363.05452964 163.67956281 363.05411953 C154.43749303 363.05204016 145.19542322 363.05008322 135.9533534 363.04816496 C90.63556511 363.03872759 45.31778725 363.01861015 0 363 C0 287.43 0 211.86 0 134 C21.264375 133.979375 42.52875 133.95875 64.4375 133.9375 C74.52590454 133.92384399 74.52590454 133.92384399 84.81811523 133.90991211 C93.0020752 133.90539551 93.0020752 133.90539551 96.82777405 133.90455627 C99.5119152 133.90301608 102.19601009 133.89985878 104.88014221 133.89442444 C108.93499644 133.88632288 112.98981545 133.88609241 117.04467773 133.88647461 C118.24959838 133.8828765 119.45451902 133.87927839 120.69595242 133.87557125 C121.7804823 133.87694875 122.86501219 133.87832624 123.98240662 133.87974548 C124.93277518 133.87882369 125.88314375 133.8779019 126.86231136 133.87695217 C129 134 129 134 130 135 C130.09641497 136.80960871 130.12187398 138.62302128 130.12025452 140.43519592 C130.12231651 142.20423027 130.12231651 142.20423027 130.12442017 144.00900269 C130.12082489 145.3145108 130.11722961 146.62001892 130.11352539 147.96508789 C130.11324352 149.34452818 130.11340125 150.72396861 130.1139679 152.10340881 C130.11425588 155.85944118 130.10835905 159.61544189 130.10139394 163.37146688 C130.09516051 167.29260045 130.09455661 171.21373467 130.09336853 175.13487244 C130.09025518 182.56511611 130.08204175 189.99534514 130.07201904 197.42558235 C130.06085801 205.88251638 130.05534748 214.3394511 130.05032361 222.79639065 C130.03985914 240.19760225 130.02225963 257.59879958 130 275 C156.32984782 275.03291933 182.65942385 275.02595057 208.98924255 274.97153378 C221.21474836 274.94719623 233.44000629 274.93589715 245.66552734 274.95532227 C256.32168308 274.97222071 266.97749212 274.96462509 277.63360214 274.92765242 C283.27572677 274.90893082 288.91726508 274.90245073 294.55938721 274.92530632 C299.87186245 274.94643945 305.1832642 274.93478072 310.49564552 274.89815521 C312.44346971 274.8904724 314.39138351 274.89468929 316.33914757 274.91181374 C327.98479943 275.44049266 327.98479943 275.44049266 338.10644531 270.6108551 C340.47525758 267.95500667 342.4542315 265.18379939 343.9375 261.9375 C344.31777344 261.14214844 344.69804687 260.34679688 345.08984375 259.52734375 C347.48182978 252.88521944 347.17274119 246.00122936 347.20874023 239.03466797 C347.21852402 237.833871 347.2283078 236.63307404 347.23838806 235.39588928 C347.26826422 231.42800963 347.29002362 227.46013198 347.30859375 223.4921875 C347.31353973 222.4759662 347.31353973 222.4759662 347.31858563 221.43921518 C347.34936093 215.03783908 347.37603837 208.63645781 347.39300442 202.23502922 C347.41488072 194.08004232 347.45681405 185.92571607 347.52644199 177.77099311 C347.57386957 172.01871925 347.59796273 166.26662244 347.6052013 160.51415932 C347.61012942 157.08740545 347.62493452 153.66139839 347.6649456 150.23485947 C347.70400788 146.40328869 347.70487419 142.57342307 347.69702148 138.74169922 C347.71702209 137.62542648 347.73702271 136.50915375 347.75762939 135.35905457 C347.66221328 124.92876012 343.8242854 116.84006643 336.875 109.125 C325.6186458 98.68349972 312.85086309 96.69743844 298.11094666 96.7215271 C296.83327205 96.7157347 295.55559744 96.7099423 294.23920542 96.70397437 C290.7136338 96.68825329 287.18814204 96.68474807 283.6625396 96.68332577 C279.85282339 96.67961785 276.0431503 96.66445549 272.23345947 96.65071106 C265.63981011 96.62847798 259.04617617 96.61344098 252.45249748 96.60334396 C242.91924607 96.58873505 233.38604839 96.56319204 223.85282857 96.53501268 C208.38440322 96.48958485 192.91597011 96.45295349 177.44750977 96.421875 C162.42470947 96.39167303 147.40192811 96.35731519 132.37915039 96.31738281 C131.45255928 96.31492126 130.52596816 96.31245972 129.57129853 96.30992357 C124.9226879 96.29754865 120.27407749 96.28509218 115.62546718 96.27259517 C77.0836672 96.16908741 38.54185406 96.08148874 0 96 C0 64.32 0 32.64 0 0 Z " fill="#231E1F" transform="translate(0,1120)"/>
<path d="M0 0 C38.97321865 -0.13764284 77.94640535 -0.2432146 116.91981894 -0.30639198 C121.53175144 -0.31389529 126.14368345 -0.32166132 130.75561523 -0.32958984 C131.67368206 -0.33116371 132.59174888 -0.33273757 133.53763591 -0.33435912 C148.3596177 -0.36039376 163.18145839 -0.40766036 178.00335676 -0.46291678 C193.23715619 -0.51923076 208.47088224 -0.55239575 223.70478147 -0.56453097 C233.08816578 -0.57272149 242.47115113 -0.59849144 251.85441249 -0.6474988 C258.30829622 -0.67946822 264.76197684 -0.68874397 271.21593381 -0.68100826 C274.92731922 -0.67720406 278.63801274 -0.68260053 282.34927177 -0.71523285 C326.0223468 -1.07972722 368.03358625 15.42343088 399.5 46.0625 C420.15341656 66.7468696 429.78938078 93.85598928 430.25 122.875 C429.7757928 153.16498512 421.99827375 182.28659598 400 204 C398.88818359 205.10988281 398.88818359 205.10988281 397.75390625 206.2421875 C370.52034113 231.92668744 331.08015949 235.66739793 295.61490595 235.46426249 C291.75365471 235.44669877 287.89242324 235.45285421 284.03114319 235.45587158 C277.36946155 235.45795102 270.70793877 235.44559152 264.04629707 235.42292023 C254.41516403 235.39016463 244.7841064 235.37996937 235.1529237 235.37496826 C219.52028144 235.36625216 203.88772352 235.33973762 188.25512695 235.30175781 C173.08553484 235.26494162 157.91596577 235.23667713 142.74633789 235.21972656 C141.33956595 235.21815022 141.33956595 235.21815022 139.90437437 235.21654204 C135.19863259 235.21132121 130.49289064 235.20626654 125.78714859 235.20129442 C86.85802411 235.15994736 47.92905593 235.08627232 9 235 C9 208.93 9 182.86 9 156 C17.63647705 155.9906543 26.2729541 155.98130859 35.17114258 155.97167969 C62.82233426 155.93895386 90.47345804 155.88665551 118.12459295 155.82207905 C122.42152191 155.8120619 126.71845125 155.80221772 131.01538086 155.79248047 C131.87080188 155.7905391 132.72622291 155.78859772 133.60756578 155.78659752 C147.4481971 155.7555985 161.28881185 155.73860273 175.12947134 155.72680578 C189.33721757 155.71438334 203.544877 155.68685729 217.75256842 155.64538693 C226.51551826 155.62028279 235.27832409 155.60688047 244.04131039 155.60857043 C250.05501306 155.60860024 256.06856934 155.59392471 262.08221493 155.56783572 C265.54890039 155.55322578 269.01528566 155.54495557 272.48199654 155.55419731 C276.24884036 155.56084353 280.01481416 155.54289924 283.78157043 155.51898193 C284.86623134 155.52674235 285.95089224 155.53450277 287.06842166 155.54249835 C296.90831362 155.43224085 306.66486406 152.91426749 314 146 C319.58778531 138.90200245 321.48434997 130.90445682 320.75390625 122 C319.70191893 114.55230213 318.19940497 109.11293457 312.6875 103.75 C306.70027969 99.85134491 301.87011877 98.55583272 294.75817871 98.65510559 C293.55460889 98.65360214 293.55460889 98.65360214 292.32672453 98.65206832 C289.65183237 98.6521485 286.97753671 98.67346255 284.30273438 98.69458008 C282.37845603 98.69866327 280.45417419 98.70131175 278.52989197 98.70263672 C274.38949506 98.70784769 270.24925179 98.72180463 266.10890198 98.742136 C259.54062135 98.77291289 252.97251607 98.77545589 246.4041748 98.77262878 C227.72685148 98.76831932 209.04974117 98.7913612 190.37255859 98.8659668 C180.05390509 98.90694325 169.73562249 98.91882442 159.41690111 98.89972991 C153.96818454 98.89096506 148.5204006 98.89686107 143.07182312 98.93934059 C99.84641354 99.26275328 99.84641354 99.26275328 81 90 C79.67778632 89.42004914 78.35209605 88.84793254 77.02238464 88.28538513 C73.95749915 86.97227905 70.9817424 85.55349887 68 84.0625 C66.95803467 83.55017822 65.91606934 83.03785645 64.8425293 82.51000977 C37.98670253 69.14154423 13.07895956 51.33412366 1.9609375 22.28515625 C0.2995229 16.99813127 -0.12890823 12.18898898 -0.0703125 6.6484375 C-0.06016113 5.39981934 -0.05000977 4.15120117 -0.03955078 2.86474609 C-0.02649902 1.91937988 -0.01344727 0.97401367 0 0 Z " fill="#010101" transform="translate(1025,1248)"/>
<path d="M0 0 C131.01 0 262.02 0 397 0 C397 33 397 66 397 100 C307.9 100 218.8 100 127 100 C127 144.88 127 189.76 127 236 C85.09 236 43.18 236 0 236 C0 158.12 0 80.24 0 0 Z " fill="#221E1F" transform="translate(531,1247)"/>
<path d="M0 0 C37.29 0 74.58 0 113 0 C114 1 114 1 114.1241985 3.37482077 C114.12381878 4.44069574 114.12343906 5.5065707 114.12304783 6.60474491 C114.12503888 7.82940781 114.12702993 9.0540707 114.12908131 10.3158446 C114.12622772 11.69242055 114.12328211 13.06899632 114.12025452 14.4455719 C114.12069009 15.89424007 114.12156474 17.34290817 114.12284368 18.79157585 C114.12509136 22.79127887 114.12106366 26.79095538 114.11606562 30.79065502 C114.11176519 35.09674448 114.11320725 39.40283233 114.1139679 43.70892334 C114.11449339 51.17578552 114.11134393 58.64263899 114.10573006 66.10949898 C114.0976185 76.90545402 114.09500019 87.70140484 114.09374207 98.49736261 C114.091551 116.01118358 114.08488945 133.52499991 114.07543945 151.03881836 C114.06626674 168.05639625 114.05918522 185.07397288 114.05493164 202.09155273 C114.05466892 203.13972546 114.05440619 204.18789818 114.05413551 205.26783372 C114.05283051 210.52597209 114.0515668 215.78411046 114.05032361 221.04224885 C114.0399493 264.69483669 114.02151009 308.34741594 114 352 C76.38 352 38.76 352 0 352 C0 235.84 0 119.68 0 0 Z " fill="#010101" transform="translate(1561,1131)"/>
<path d="M0 0 C1.27444548 -0.00170885 2.54889096 -0.0034177 3.861956 -0.00517833 C7.37389673 -0.00962174 10.88571401 -0.00168993 14.39763904 0.00837779 C18.19436287 0.01705367 21.99108032 0.01408921 25.78781128 0.01257324 C32.35745504 0.011527 38.92705893 0.01777629 45.49669266 0.02904892 C54.99515279 0.04533638 64.49359373 0.05051524 73.99206631 0.0530249 C89.40450165 0.05739692 104.81691577 0.07069262 120.2293396 0.08963013 C135.19678644 0.10800171 150.1642275 0.12215195 165.13168335 0.13064575 C166.05502474 0.1311712 166.97836614 0.13169665 167.92968757 0.13223802 C172.56204328 0.13484818 177.19439903 0.13737558 181.82675481 0.13986182 C220.2274074 0.16057896 258.6280207 0.19744042 297.02865601 0.24050903 C297.02865601 30.93050903 297.02865601 61.62050903 297.02865601 93.24050903 C161.39865601 93.24050903 25.76865601 93.24050903 -113.97134399 93.24050903 C-113.97134399 71.04599289 -99.90063227 49.66578695 -84.97134399 34.24050903 C-84.25720337 33.50058716 -83.54306274 32.76066528 -82.80728149 31.99832153 C-61.75514097 11.66962227 -28.99374868 -0.14349956 0 0 Z " fill="#010101" transform="translate(1138.9713439941406,1119.7594909667969)"/>
<path d="M0 0 C1.12663288 -0.0039821 2.25326575 -0.00796419 3.41403902 -0.01206696 C4.64166542 -0.00624128 5.86929183 -0.00041559 7.13411903 0.00558662 C8.44598234 0.00387777 9.75784564 0.00216892 11.10946238 0.00040829 C14.74445426 -0.00405892 18.37932804 0.0039298 22.01430488 0.01396441 C25.93652638 0.02260565 29.85874128 0.01967828 33.78096962 0.01815987 C40.57440581 0.01711144 47.36780356 0.02338361 54.16123009 0.03463554 C63.98336505 0.05089333 73.80548144 0.05609884 83.6276284 0.05861153 C99.56360985 0.06298819 115.49957082 0.07629653 131.43554115 0.09521675 C146.91535782 0.11357629 162.39516892 0.12773243 177.87499428 0.13623238 C179.30638764 0.13702055 179.30638764 0.13702055 180.76669805 0.13782464 C185.55397701 0.14043472 190.34125601 0.14296214 195.12853503 0.14544845 C234.84042636 0.16618006 274.5522798 0.20304935 314.26415443 0.24609566 C314.26415443 31.26609566 314.26415443 62.28609566 314.26415443 94.24609566 C183.25415443 94.24609566 52.24415443 94.24609566 -82.73584557 94.24609566 C-81.60850516 86.35471285 -81.60850516 86.35471285 -80.02100182 82.60156441 C-79.49421837 81.35258369 -79.49421837 81.35258369 -78.95679283 80.07837105 C-78.57450523 79.20559517 -78.19221764 78.33281929 -77.79834557 77.43359566 C-77.39865562 76.51505806 -76.99896568 75.59652046 -76.58716393 74.65014839 C-63.07356148 44.19928766 -43.1227389 15.9335007 -11.73584557 2.24609566 C-7.67815785 0.72170197 -4.32966348 -0.0033905 0 0 Z " fill="#221E1F" transform="translate(613.7358455657959,1119.7539043426514)"/>
<path d="M0 0 C17.19454926 -0.35177438 34.38796235 -0.61557007 51.58529663 -0.77718258 C59.57209168 -0.8542479 67.55664028 -0.95912839 75.54199219 -1.1315918 C82.50940052 -1.28199733 89.47518133 -1.37807749 96.44416809 -1.41132742 C100.12885306 -1.43074231 103.80888629 -1.47569995 107.49206543 -1.58595085 C132.82129262 -2.3148551 132.82129262 -2.3148551 141.48544312 5.16702175 C143.99377437 7.68963418 146.26825479 10.31622075 148.45802307 13.11816216 C150.91707263 16.11920091 153.78678385 18.62441618 156.6875 21.1875 C157.74541775 22.15805871 158.80165824 23.13045204 159.85546875 24.10546875 C160.37286621 24.58161621 160.89026367 25.05776367 161.42333984 25.54833984 C164.11810946 28.02946406 166.80881314 30.51499116 169.5 33 C170.58331462 34.00002027 171.66664794 35.00002029 172.75 36 C174.91666667 38 177.08333333 40 179.25 42 C179.78608887 42.49483887 180.32217773 42.98967773 180.87451172 43.49951172 C181.95952256 44.50108526 183.04448338 45.502713 184.12939453 46.50439453 C186.81165757 48.98076272 189.49473934 51.45623064 192.1796875 53.9296875 C197.99300041 59.28712413 203.78773321 64.66351874 209.5625 70.0625 C215.02745856 75.17110874 220.52199183 80.24500725 226.04296875 85.29296875 C230.834433 89.67487879 235.59882411 94.08619455 240.36767578 98.49267578 C241.97195361 99.97410134 243.57754366 101.45408992 245.18359375 102.93359375 C250.99579858 108.28952001 256.78907652 113.66477464 262.5625 119.0625 C268.02477183 124.1685972 273.5162593 129.24036589 279.03515625 134.28515625 C282.76660342 137.69744188 286.47874367 141.13064835 290.18676758 144.56835938 C292.85812393 147.04083233 295.54355433 149.49354056 298.265625 151.91015625 C298.77923584 152.3683374 299.29284668 152.82651855 299.82202148 153.29858398 C301.22783918 154.54965811 302.63914014 155.79456292 304.05078125 157.0390625 C306 159 306 159 306 161 C288.29307336 161.21052797 270.58647285 161.36908795 252.87856388 161.46630955 C244.65583953 161.51265762 236.43389416 161.57580954 228.21166992 161.67895508 C221.04254494 161.76884667 213.87398422 161.82676729 206.70431131 161.84679645 C202.90996729 161.8584998 199.11723703 161.88586845 195.32341194 161.95157051 C191.74666742 162.0130069 188.17218896 162.03143844 184.59496689 162.01796913 C182.66767588 162.02159717 180.74062777 162.06985614 178.8139801 162.11978149 C172.22955413 162.04986337 168.65572164 161.4002984 163.90403748 156.65879822 C162.59362576 155.1135079 161.29174919 153.56092444 160 152 C158.67049929 150.78494796 157.31982766 149.59209683 155.9375 148.4375 C153.1677954 146.06268398 150.55990134 143.59982183 148 141 C143.59375341 136.53339386 138.90333172 132.45759199 134.1171875 128.40625 C133.22386719 127.64828125 133.22386719 127.64828125 132.3125 126.875 C131.79300781 126.43929688 131.27351563 126.00359375 130.73828125 125.5546875 C127.87274594 122.99180423 125.21184842 120.22634849 122.51049805 117.49267578 C113.911302 108.79046082 113.911302 108.79046082 104.82421875 100.60546875 C102.79194494 98.81689372 100.89942105 96.92881247 99 95 C94.59375341 90.53339386 89.90333172 86.45759199 85.1171875 82.40625 C84.22386719 81.64828125 84.22386719 81.64828125 83.3125 80.875 C82.79300781 80.43929688 82.27351563 80.00359375 81.73828125 79.5546875 C78.87274594 76.99180423 76.21184842 74.22634849 73.51049805 71.49267578 C64.911302 62.79046082 64.911302 62.79046082 55.82421875 54.60546875 C53.79194494 52.81689372 51.89942105 50.92881247 50 49 C45.59375341 44.53339386 40.90333172 40.45759199 36.1171875 36.40625 C35.52164062 35.9009375 34.92609375 35.395625 34.3125 34.875 C33.79300781 34.43929688 33.27351563 34.00359375 32.73828125 33.5546875 C29.87274594 30.99180423 27.21184842 28.22634849 24.51049805 25.49267578 C15.82229655 16.70669683 15.82229655 16.70669683 6.65625 8.42578125 C4.29171826 6.39027633 2.10627931 4.30374299 0 2 C0 1.34 0 0.68 0 0 Z " fill="#010101" transform="translate(1694,1322)"/>
<path d="M0 0 C1.10775284 -0.00412399 2.21550568 -0.00824799 3.35682678 -0.01249695 C4.56739243 -0.00171112 5.77795807 0.00907471 7.02520752 0.02018738 C8.94266029 0.01953026 8.94266029 0.01953026 10.89884949 0.01885986 C14.40069374 0.01799926 17.9022296 0.03563527 21.40400219 0.05658174 C25.06485111 0.07533782 28.72570713 0.07709813 32.38659668 0.08065796 C39.31743644 0.08998159 46.24813421 0.1145996 53.17891145 0.14470643 C61.07000693 0.1782406 68.9611092 0.19473396 76.85225821 0.20979273 C93.0834937 0.24114893 109.31458639 0.29391553 125.54571533 0.36076355 C123.80047174 4.12572232 121.7238219 6.27237879 118.60821533 9.04826355 C118.11877441 9.48614197 117.6293335 9.92402039 117.12506104 10.37516785 C113.90123414 13.23557214 110.59217857 15.97213881 107.23321533 18.67326355 C102.17734967 22.748248 97.4638431 27.11308348 92.74005127 31.56095886 C88.42726119 35.599921 83.94751022 39.35008932 79.33477783 43.0443573 C74.9083737 46.72062852 70.73770421 50.66502727 66.53009033 54.58732605 C61.92423307 58.88058154 57.16471463 62.98405777 52.36993408 67.06388855 C51.17825848 68.07919749 49.98686124 69.09483322 48.79571533 70.11076355 C48.19211182 70.62550232 47.5885083 71.14024109 46.96661377 71.670578 C43.0210558 75.05165814 39.16462877 78.51172876 35.35821533 82.04826355 C31.71158158 85.43600728 27.98954132 88.67974151 24.10821533 91.79826355 C18.6866319 96.16216814 13.61729416 100.84497885 8.53009033 105.58732605 C3.92423307 109.88058154 -0.83528537 113.98405777 -5.63006592 118.06388855 C-6.82174152 119.07919749 -8.01313876 120.09483322 -9.20428467 121.11076355 C-9.80788818 121.62550232 -10.4114917 122.14024109 -11.03338623 122.670578 C-14.9789442 126.05165814 -18.83537123 129.51172876 -22.64178467 133.04826355 C-27.13223715 137.21991973 -31.79359568 141.11298347 -36.57147217 144.9506073 C-40.5896095 148.30994434 -44.40735928 151.87016195 -48.21575928 155.46403503 C-52.23275023 159.23865867 -53.97306921 160.48649623 -59.4402771 160.48101807 C-60.49479568 160.48239273 -61.54931427 160.4837674 -62.63578796 160.48518372 C-63.79743973 160.48158844 -64.95909149 160.47799316 -66.15594482 160.47428894 C-67.3754332 160.47443497 -68.59492157 160.47458099 -69.85136414 160.47473145 C-73.20033648 160.4741531 -76.54924759 160.46912901 -79.8982091 160.46215749 C-83.39625907 160.45591703 -86.89430982 160.4553196 -90.3923645 160.45413208 C-97.01863328 160.45102081 -103.64488561 160.44281017 -110.27114713 160.43278259 C-117.81397396 160.42161512 -125.35680157 160.4161094 -132.8996346 160.41108716 C-148.41786082 160.40062739 -163.93607063 160.38303189 -179.45428467 160.36076355 C-178.07719723 157.4903016 -176.83670108 155.52480627 -174.47772217 153.3724823 C-173.89385742 152.8350238 -173.30999268 152.29756531 -172.70843506 151.74382019 C-172.08831543 151.1842865 -171.4681958 150.62475281 -170.82928467 150.04826355 C-170.19047363 149.46359314 -169.5516626 148.87892273 -168.89349365 148.27653503 C-165.21200461 144.91717043 -161.48352122 141.61814019 -157.70819092 138.3646698 C-154.40039926 135.42377357 -151.18268899 132.38829984 -147.95428467 129.36076355 C-143.5434056 125.22459195 -139.11559845 121.13441628 -134.53240967 117.18888855 C-131.08759847 114.15849073 -127.73900165 111.0238234 -124.3739624 107.90544128 C-120.27680116 104.11146642 -116.13991984 100.36506866 -111.98162842 96.6381073 C-109.12346263 94.0626658 -106.28718205 91.46390591 -103.45428467 88.86076355 C-99.80501296 85.50783238 -96.14258869 82.17077998 -92.45428467 78.86076355 C-86.74766773 73.73757071 -81.10113113 68.54956416 -75.45428467 63.36076355 C-69.00331659 57.43306791 -62.53709751 51.52482635 -56.01678467 45.67326355 C-53.14828058 43.08461352 -50.29951816 40.47491209 -47.45428467 37.86076355 C-43.0009298 33.76910248 -38.51768613 29.71253409 -34.01678467 25.67326355 C-31.14827915 23.08461223 -28.29966507 20.47475342 -25.45428467 17.86076355 C-21.63003886 14.35070481 -17.80139244 10.84579059 -13.95428467 7.36076355 C-13.18084717 6.65951355 -12.40740967 5.95826355 -11.61053467 5.23576355 C-10.89897217 4.61701355 -10.18740967 3.99826355 -9.45428467 3.36076355 C-8.86230663 2.83453242 -8.2703286 2.3083013 -7.66041183 1.76612377 C-4.90645361 0.01178096 -3.25023262 -0.00933975 0 0 Z " fill="#E82027" transform="translate(1874.4542846679688,1134.6392364501953)"/>
</svg>
