<?xml version="1.0" encoding="UTF-8"?>
<svg version="1.1" xmlns="http://www.w3.org/2000/svg" width="2000" height="270">
<path d="M0 0 C1.27069163 0.00138269 1.27069163 0.00138269 2.56705379 0.00279331 C3.53605618 0.00141865 4.50505856 0.00004398 5.50342464 -0.00137234 C6.5751643 0.00222294 7.64690395 0.00581821 8.75112057 0.00952244 C10.43383053 0.0093034 10.43383053 0.0093034 12.15053463 0.00907993 C15.87866266 0.00977963 19.60674144 0.01757468 23.3348608 0.02539158 C25.91175973 0.02725556 28.48865902 0.02867955 31.06555843 0.0296793 C37.16770571 0.03311441 43.26983249 0.04100523 49.37197202 0.05102879 C56.31744705 0.06219094 63.26292291 0.06770063 70.20840466 0.07272422 C84.49926422 0.08318787 98.79010875 0.10078668 113.08095455 0.12304783 C108.82442612 9.00058165 101.16165856 16.18914532 94.5536108 23.36914158 C91.33385937 26.95512067 88.32190279 30.69006275 85.2957983 34.43945408 C83.12462629 37.0701334 80.87854098 39.60247207 78.58095455 42.12304783 C75.46636787 45.54044155 72.48908835 49.02827133 69.58095455 52.62304783 C65.97063013 57.08580996 62.19667526 61.35024316 58.33095455 65.59179783 C56.00233402 68.21149593 53.78532508 70.89820093 51.58095455 73.62304783 C47.96946321 78.0872524 44.19434761 82.35306896 40.3270483 86.59570408 C38.01907857 89.19267176 35.82539593 91.85708795 33.64345455 94.56054783 C29.78270318 99.33445083 25.7065838 103.8569321 21.54970455 108.37304783 C19.13717352 111.06042417 16.84839245 113.81270227 14.58095455 116.62304783 C11.52746776 120.40765117 8.37427154 124.0451232 5.08095455 127.62304783 C1.06565709 131.98991512 -2.71042503 136.4911661 -6.4385767 141.10351658 C-12.96134136 149.04382695 -19.75604229 156.77116149 -26.66904545 164.37304783 C-30.40528965 168.49509986 -33.91769134 172.7659076 -37.41904545 177.08789158 C-41.91320906 182.54408709 -46.58022132 187.8514135 -51.22519779 193.17920017 C-53.9825122 196.34347479 -56.73241043 199.51416678 -59.48154545 202.68554783 C-60.01932621 203.30582859 -60.55710697 203.92610935 -61.11118412 204.5651865 C-66.24169146 210.48726225 -71.34137498 216.43549696 -76.43515873 222.38916111 C-79.42829961 225.88657581 -82.42526775 229.38071174 -85.42148685 232.87548923 C-87.91018836 235.77856965 -90.39802096 238.68238453 -92.8838892 241.58789158 C-93.87472128 242.74548932 -94.86560665 243.90304144 -95.85654545 245.06054783 C-96.34171635 245.62749363 -96.82688725 246.19443943 -97.32676029 246.77856541 C-100.03648869 249.9408051 -102.75827042 253.09199952 -105.4932642 256.23242283 C-106.08566898 256.9131284 -106.67807377 257.59383396 -107.28843021 258.29516697 C-108.4345001 259.61081249 -109.58205808 260.92516362 -110.73130131 262.23803806 C-111.249585 262.83302097 -111.76786869 263.42800388 -112.30185795 264.04101658 C-112.75963627 264.56461765 -113.21741459 265.08821873 -113.68906498 265.6276865 C-115.12177785 267.31864181 -115.12177785 267.31864181 -116.91904545 270.12304783 C-118.9767561 270.49219131 -118.9767561 270.49219131 -121.56336308 270.48381138 C-123.03154987 270.48999737 -123.03154987 270.48999737 -124.52939701 270.49630833 C-125.60689213 270.4855225 -126.68438725 270.47473667 -127.79453373 270.463624 C-128.92623997 270.46406208 -130.05794621 270.46450016 -131.22394657 270.46495152 C-134.97925684 270.46285496 -138.7341253 270.43948256 -142.48935795 270.41601658 C-145.08724568 270.41042372 -147.68513658 270.40615216 -150.2830286 270.40315342 C-156.43125813 270.39285409 -162.57930425 270.3691898 -168.72746456 270.33910495 C-175.72614605 270.30559993 -182.72483508 270.28908478 -189.72357678 270.27401865 C-204.12215213 270.24264117 -218.52059313 270.18985637 -232.91904545 270.12304783 C-231.49172551 267.19458107 -230.04975633 264.60887719 -227.91904545 262.12304783 C-227.25904545 262.12304783 -226.59904545 262.12304783 -225.91904545 262.12304783 C-225.67283451 261.55714939 -225.42662357 260.99125095 -225.1729517 260.40820408 C-223.70368321 257.73056525 -221.9415211 255.79261171 -219.85654545 253.56054783 C-214.08851399 247.2664719 -208.73171787 240.66524684 -203.4229517 233.98242283 C-202.61728764 232.97695408 -201.81162357 231.97148533 -200.98154545 230.93554783 C-200.25064701 230.01386814 -199.51974857 229.09218845 -198.7667017 228.14257908 C-198.15697514 227.47613377 -197.54724857 226.80968845 -196.91904545 226.12304783 C-196.25904545 226.12304783 -195.59904545 226.12304783 -194.91904545 226.12304783 C-194.64665043 225.53297947 -194.37425541 224.94291111 -194.093606 224.33496189 C-192.94676229 222.17524376 -191.73632848 220.56286866 -190.1260767 218.73242283 C-189.58201176 218.10972507 -189.03794682 217.48702732 -188.47739506 216.84545994 C-187.6131995 215.86911594 -187.6131995 215.86911594 -186.73154545 214.87304783 C-186.1393018 214.19701511 -185.54705814 213.5209824 -184.93686771 212.82446384 C-183.26801618 210.92064683 -181.59427728 209.0212499 -179.91904545 207.12304783 C-175.56440547 202.16217366 -171.22894214 197.18534641 -166.91904545 192.18554783 C-166.18899296 191.3433469 -166.18899296 191.3433469 -165.44419193 190.48413181 C-162.61120863 187.18962427 -159.88870991 183.82960626 -157.2276392 180.39428806 C-156.60558598 179.59200275 -155.98353275 178.78971745 -155.34262943 177.96312046 C-154.87284672 177.35589649 -154.403064 176.74867252 -153.91904545 176.12304783 C-154.72357245 176.12065948 -155.52809946 176.11827112 -156.35700607 176.11581039 C-175.92834403 176.05668746 -195.49955558 175.98115477 -215.07075882 175.88733292 C-224.53523171 175.84235762 -233.99966683 175.80294696 -243.46421146 175.77661228 C-251.71302199 175.75364624 -259.96171314 175.72026385 -268.21042901 175.67434627 C-272.57851583 175.65039521 -276.94648428 175.63167879 -281.31463528 175.62543392 C-285.42605532 175.61939156 -289.53717245 175.59942261 -293.64848042 175.56877232 C-295.15732502 175.55997845 -296.66620919 175.5562723 -298.17507839 175.55803967 C-300.23621786 175.55969164 -302.29643306 175.54300148 -304.35744572 175.52177525 C-305.51060874 175.51716628 -306.66377176 175.51255732 -307.85187912 175.50780869 C-311.30040963 175.07520758 -313.15379412 174.19873984 -315.91904545 172.12304783 C-317.95145471 169.07443394 -318.16940254 168.49065358 -318.17301273 165.0687418 C-318.17865238 164.24581135 -318.18429203 163.4228809 -318.19010258 162.57501316 C-318.18605412 161.67571079 -318.18200565 160.77640842 -318.17783451 159.84985447 C-318.18133915 158.89999165 -318.18484379 157.95012882 -318.18845463 156.97148228 C-318.19727142 153.82531563 -318.19142245 150.67937309 -318.18467045 147.53320408 C-318.18601722 145.34988963 -318.18795786 143.16657548 -318.19046879 140.98326206 C-318.19342007 136.40425865 -318.18912263 131.8253332 -318.17978764 127.24633884 C-318.16839989 121.37382161 -318.17494832 115.50148732 -318.18693256 109.62897682 C-318.19415676 105.11916314 -318.19186053 100.60939289 -318.18667698 96.0995779 C-318.18534168 93.93420929 -318.186984 91.76883674 -318.19163609 89.60347271 C-318.19670968 86.57742072 -318.18897887 83.55166558 -318.17783451 80.52563572 C-318.18188297 79.62835758 -318.18593143 78.73107944 -318.19010258 77.80661106 C-318.18446293 76.98086079 -318.17882328 76.15511051 -318.17301273 75.3043375 C-318.17225868 74.58923543 -318.17150463 73.87413336 -318.17072773 73.13736153 C-317.86966808 70.72786107 -317.21002749 69.17657137 -315.91904545 67.12304783 C-312.78850886 65.03602343 -312.13501207 64.87596004 -308.58537483 64.90044117 C-307.69505281 64.90160946 -306.80473078 64.90277775 -305.8874293 64.90398145 C-304.41869109 64.92120806 -304.41869109 64.92120806 -302.92028141 64.93878269 C-301.36105258 64.94491097 -301.36105258 64.94491097 -299.77032417 64.95116305 C-296.26973473 64.96700248 -292.7693982 64.99690117 -289.26889896 65.02636814 C-286.76579673 65.03998257 -284.26268847 65.05252528 -281.75957584 65.06407261 C-277.05967949 65.08654898 -272.35982822 65.11183779 -267.65997081 65.14125922 C-258.41609818 65.19864604 -249.17233526 65.22648897 -239.92830753 65.24310398 C-238.47257139 65.24584515 -237.01683525 65.24858992 -235.56109911 65.25133824 C-232.61346364 65.25681164 -229.66582791 65.26212356 -226.71819198 65.26734591 C-219.13775874 65.28087385 -211.55733042 65.29578907 -203.97690678 65.3139658 C-202.83577705 65.3166849 -202.83577705 65.3166849 -201.6715942 65.31945893 C-189.36085972 65.35015119 -177.05072414 65.42442677 -164.74028803 65.51311055 C-152.09293696 65.60303016 -139.44620041 65.63932738 -126.7985329 65.62797904 C-119.00250543 65.62279351 -111.2090444 65.65991083 -103.41354971 65.75207594 C-97.42843552 65.81850213 -91.44570432 65.81091461 -85.46022701 65.77637005 C-83.01246773 65.77380296 -80.56454512 65.79506718 -78.11724186 65.84238338 C-64.5969262 66.56898291 -64.5969262 66.56898291 -52.85288143 61.04316044 C-50.16615572 58.17473596 -47.97750845 55.10084752 -45.93783748 51.74815512 C-44.59787157 49.61073325 -42.99532627 47.78461462 -41.2901392 45.93164158 C-40.79868412 45.36662937 -40.30722904 44.80161716 -39.80088139 44.21948338 C-39.0859351 43.39831028 -39.0859351 43.39831028 -38.35654545 42.56054783 C-33.7923181 37.3092103 -29.28397398 32.01465145 -24.80600834 26.68969822 C-22.02973213 23.40059694 -19.19120516 20.1809136 -16.29404545 16.99804783 C-12.25196174 12.55467423 -8.44330421 7.9473473 -4.66904545 3.27539158 C-2.11625973 0.13569307 -2.11625973 0.13569307 0 0 Z M-208.27266788 87.14072514 C-213.97695377 87.17520686 -219.6799372 87.23261637 -225.38341236 87.33584881 C-226.9822969 87.36284991 -228.58130292 87.3835384 -230.18035603 87.39732265 C-232.30427743 87.41766875 -234.426101 87.46268145 -236.54941654 87.51587009 C-238.27229389 87.5466943 -238.27229389 87.5466943 -240.02997684 87.57814121 C-243.55962036 88.24386653 -244.76921866 89.28911958 -246.91904545 92.12304783 C-247.55117806 95.25319061 -247.55117806 95.25319061 -247.41904545 98.62304783 C-247.42935795 99.74711033 -247.43967045 100.87117283 -247.45029545 102.02929783 C-246.8002897 105.81462544 -245.90775455 106.77508597 -242.91904545 109.12304783 C-240.0807024 109.74181985 -240.0807024 109.74181985 -236.8866663 109.67808628 C-235.65032444 109.6994817 -234.41398258 109.72087711 -233.14017582 109.74292088 C-231.7726842 109.74630723 -230.40519134 109.74922103 -229.03769779 109.75170994 C-227.5952044 109.76859367 -226.15272892 109.78707135 -224.7102747 109.80702305 C-220.79259748 109.85518616 -216.87521347 109.87689966 -212.95727968 109.89087081 C-210.5068105 109.90038448 -208.05641924 109.91483653 -205.60598469 109.93088055 C-197.04869224 109.98587126 -188.49163718 110.01684923 -179.93418217 110.02905369 C-171.97188996 110.04114452 -164.01140423 110.10964539 -156.04969919 110.20378011 C-149.20445566 110.28187643 -142.35981137 110.31733735 -135.51412642 110.32070261 C-131.42964455 110.32358414 -127.34709605 110.34391671 -123.26308155 110.4083395 C-119.41578943 110.46776754 -115.57193247 110.47386924 -111.72436237 110.44040585 C-110.31909818 110.43706729 -108.91363783 110.45224701 -107.50882816 110.48814106 C-101.47788343 110.63293321 -96.80935441 110.61432092 -91.95419025 106.78406048 C-89.39635548 104.00593642 -87.14432333 101.17142507 -84.91904545 98.12304783 C-83.38462131 96.24211623 -81.84401296 94.36619178 -80.29404545 92.49804783 C-78.01186656 90.08228845 -78.01186656 90.08228845 -76.91904545 87.12304783 C-92.95188305 87.09938823 -108.98471474 87.08191015 -125.01756573 87.07123566 C-132.4666653 87.06614131 -139.9157537 87.05919475 -147.36484623 87.04760838 C-167.66785476 87.01691696 -187.96985568 87.03370681 -208.27266788 87.14072514 Z M-245.91904545 132.12304783 C-248.34235435 136.24267297 -248.37037547 140.4781097 -247.91904545 145.12304783 C-246.95760292 148.85640934 -246.95760292 148.85640934 -244.12735939 151.23578167 C-241.70585277 152.20870533 -239.93846665 152.39921908 -237.33602238 152.44430637 C-236.42086353 152.46439762 -235.50570469 152.48448887 -234.56281376 152.50518894 C-233.56589512 152.51685093 -232.56897648 152.52851292 -231.54184818 152.5405283 C-230.48604053 152.56009586 -229.43023289 152.57966343 -228.34243107 152.59982395 C-224.84588484 152.65968177 -221.34949162 152.70249239 -217.8526392 152.74023533 C-216.65645529 152.75337898 -215.46027138 152.76652264 -214.22783947 152.78006458 C-207.89342955 152.84523654 -201.5590866 152.89413656 -195.22446537 152.93310642 C-189.99071762 152.96870186 -184.75913168 153.03828275 -179.52622318 153.13818455 C-173.19950107 153.25881917 -166.87477917 153.32008692 -160.54696178 153.33945179 C-158.14152652 153.35652879 -155.73614242 153.39408827 -153.33136654 153.45293903 C-139.99433668 154.33342491 -139.99433668 154.33342491 -128.07605839 149.54962254 C-125.20311885 146.7205773 -123.05986402 143.53692005 -120.91904545 140.12304783 C-119.54090507 138.37974718 -118.14835151 136.64757255 -116.73154545 134.93554783 C-114.77151862 132.75909341 -114.77151862 132.75909341 -113.91904545 130.12304783 C-130.53908066 130.07633913 -147.1590946 130.04106454 -163.77917957 130.01942348 C-171.49607124 130.00910835 -179.21292214 129.9950435 -186.92978764 129.97216892 C-193.65534977 129.95224229 -200.38088238 129.93933311 -207.10647321 129.93487084 C-210.66803501 129.93226222 -214.22951235 129.92612594 -217.7910471 129.91158772 C-221.76569554 129.89549457 -225.74026113 129.89506768 -229.71494389 129.89599705 C-230.89745731 129.8888065 -232.07997074 129.88161594 -233.29831791 129.8742075 C-234.38082829 129.87695683 -235.46333866 129.87970615 -236.57865238 129.8825388 C-237.51888123 129.88069521 -238.45911007 129.87885162 -239.4278307 129.87695217 C-242.08047051 130.13899427 -243.68375042 130.69066958 -245.91904545 132.12304783 Z " fill="#EC3429" transform="translate(1731.9190454483032,-0.1230478286743164)"/>
<path d="M0 0 C1.09327606 -0.00102219 2.18655212 -0.00204437 3.31295776 -0.00309753 C6.91748161 0.00176951 10.51945526 0.05617517 14.12353516 0.11108398 C16.62601335 0.12414316 19.12850946 0.13410582 21.63101196 0.14109802 C27.53860649 0.16507032 33.44538625 0.22020564 39.35256255 0.29054445 C46.74090143 0.37660176 54.12935434 0.41408843 61.51806641 0.45288086 C74.69170599 0.52790593 87.86459404 0.64599596 101.03759766 0.79467773 C100.38839648 6.77641382 99.29519881 9.28305156 95.03759766 13.60717773 C91.63332452 16.9108688 91.63332452 16.9108688 89.03759766 20.79467773 C88.37759766 20.79467773 87.71759766 20.79467773 87.03759766 20.79467773 C86.79138672 21.36057617 86.54517578 21.92647461 86.29150391 22.50952148 C84.82223542 25.18716032 83.0600733 27.12511386 80.97509766 29.35717773 C77.79974649 32.82027932 74.73931581 36.32663029 71.78759766 39.98217773 C67.1081209 45.76031425 62.24343946 51.36366729 57.36181641 56.97045898 C54.23467734 60.56235719 51.13240999 64.17492125 48.03759766 67.79467773 C43.88917079 72.64397725 39.72085303 77.47539362 35.53759766 82.29467773 C29.34034253 89.43529383 23.18370011 96.61002595 17.03759766 103.79467773 C10.34858092 111.61398377 3.64011009 119.4153332 -3.10449219 127.18676758 C-8.25401983 133.12356251 -13.36940469 139.08921229 -18.47851562 145.06079102 C-21.4716565 148.55820571 -24.46862465 152.05234164 -27.46484375 155.54711914 C-29.95354525 158.45019956 -32.44137786 161.35401443 -34.92724609 164.25952148 C-40.63035115 170.9231495 -46.35720008 177.56531405 -52.10668945 184.18896484 C-56.23738558 188.95050852 -60.34334112 193.73269022 -64.44067383 198.52294922 C-68.11680888 202.81730768 -71.81736069 207.08992464 -75.52490234 211.35717773 C-80.01271467 216.52490126 -84.46004824 221.72407982 -88.87329102 226.95556641 C-92.17934874 230.87348083 -95.50167087 234.77699386 -98.83740234 238.66967773 C-99.33087158 239.24564697 -99.82434082 239.82161621 -100.33276367 240.41503906 C-102.98666865 243.50762018 -105.6516063 246.59010582 -108.32958984 249.66186523 C-108.89436035 250.3104248 -109.45913086 250.95898438 -110.04101562 251.62719727 C-111.1078658 252.85112967 -112.17638281 254.07361251 -113.24707031 255.29418945 C-113.74609863 255.86669434 -114.24512695 256.43919922 -114.75927734 257.02905273 C-115.24725044 257.5796467 -115.73522354 258.13024067 -116.2379837 258.6975193 C-118.03232599 260.80447989 -118.03232599 260.80447989 -119.61891937 263.31000328 C-124.38273759 270.23861972 -124.38273759 270.23861972 -128.54103088 271.70238113 C-131.57616412 272.02344846 -134.46860683 272.03379485 -137.51904297 271.92993164 C-138.65162537 271.93139191 -139.78420776 271.93285217 -140.95111084 271.93435669 C-144.67560928 271.92741777 -148.39503409 271.84978325 -152.11865234 271.77124023 C-154.70793932 271.75257875 -157.29726171 271.73834898 -159.88659668 271.72836304 C-165.99299589 271.69415089 -172.09731728 271.61544135 -178.2029357 271.51486814 C-185.15799266 271.40280795 -192.11313928 271.34804145 -199.06887531 271.29791379 C-213.36768459 271.19359224 -227.6649792 271.0178816 -241.96240234 270.79467773 C-240.18208548 267.78554121 -238.44696568 265.00877167 -236.14208984 262.37670898 C-235.61131836 261.76730469 -235.08054687 261.15790039 -234.53369141 260.5300293 C-233.97391602 259.89548828 -233.41414063 259.26094727 -232.83740234 258.60717773 C-232.25700195 257.94298828 -231.67660156 257.27879883 -231.07861328 256.59448242 C-227.82448277 252.87933508 -224.53346853 249.20019758 -221.21240234 245.54467773 C-217.48225813 241.42935559 -213.97409715 237.16717166 -210.48193359 232.84936523 C-206.97410568 228.59646379 -203.3440024 224.45416725 -199.71411133 220.30541992 C-195.79270246 215.80557569 -192.06116026 211.20953023 -188.45068359 206.45483398 C-187.95955078 205.90698242 -187.46841797 205.35913086 -186.96240234 204.79467773 C-186.30240234 204.79467773 -185.64240234 204.79467773 -184.96240234 204.79467773 C-184.68638184 204.20025879 -184.41036133 203.60583984 -184.12597656 202.9934082 C-183.02445283 200.91193049 -181.89736986 199.37256949 -180.34521484 197.61499023 C-179.82693115 197.02322998 -179.30864746 196.43146973 -178.7746582 195.82177734 C-178.21786377 195.19408447 -177.66106934 194.5663916 -177.08740234 193.91967773 C-175.9034337 192.56974603 -174.71984835 191.21947807 -173.53662109 189.86889648 C-172.93769043 189.18746582 -172.33875977 188.50603516 -171.72167969 187.80395508 C-169.09127536 184.79976029 -166.49416614 181.76757839 -163.89990234 178.73217773 C-162.90904398 177.57460249 -161.91815855 176.41705042 -160.92724609 175.25952148 C-160.43853027 174.68830566 -159.94981445 174.11708984 -159.44628906 173.52856445 C-156.45314818 170.03114976 -153.45618004 166.53701383 -150.45996094 163.04223633 C-147.97125943 160.13915591 -145.48342683 157.23534104 -142.99755859 154.32983398 C-134.49723234 144.39765326 -125.97530679 134.48266704 -117.33740234 124.66967773 C-114.46198109 121.39254322 -111.64791237 118.06492929 -108.83740234 114.73217773 C-104.22784226 109.26636251 -99.56135574 103.85253079 -94.87231445 98.45483398 C-89.70307903 92.50261256 -84.57136895 86.51880784 -79.44628906 80.52856445 C-76.45314818 77.03114976 -73.45618004 73.53701383 -70.45996094 70.04223633 C-67.97125943 67.13915591 -65.48342683 64.23534104 -62.99755859 61.32983398 C-54.58887472 51.50471775 -46.12238165 41.73040136 -37.63818359 31.97045898 C-31.5417092 24.95286339 -25.48683801 17.90405422 -19.49755859 10.79467773 C-18.66095703 9.80467773 -17.82435547 8.81467773 -16.96240234 7.79467773 C-16.57475897 7.20190505 -16.18711559 6.60913237 -15.78772545 5.99839687 C-11.4286277 -0.18316728 -7.20835965 -0.17686491 0 0 Z " fill="#ED3429" transform="translate(1898.96240234375,-0.794677734375)"/>
<path d="M0 0 C5.75383281 0.01145593 11.50765844 0.00719716 17.2614994 0.00525308 C26.8900695 0.00437622 36.51856834 0.01533623 46.14711952 0.03386331 C57.28231701 0.05516644 68.4174114 0.05850671 79.55262518 0.05230135 C90.30081703 0.04661886 101.04897258 0.05223085 111.79715919 0.06347489 C116.36173104 0.068121 120.92628069 0.06899489 125.49085426 0.06688905 C130.8427068 0.06501271 136.19445343 0.07305914 141.54628181 0.08894944 C143.51277923 0.09320614 145.47928736 0.0940336 147.44578743 0.09125924 C150.11942067 0.0880578 152.79273316 0.09706625 155.46633339 0.10934854 C156.25208984 0.10556921 157.03784629 0.10178989 157.84741354 0.09789604 C163.20003504 0.14171046 163.20003504 0.14171046 165.42836952 2.37004495 C165.68715858 4.2177012 165.68715858 4.2177012 165.69399452 6.43254495 C165.69657265 7.22918557 165.69915077 8.0258262 165.70180702 8.84660745 C165.69407265 9.67934182 165.68633827 10.5120762 165.67836952 11.37004495 C165.6861039 12.20277932 165.69383827 13.0355137 165.70180702 13.89348245 C165.69793983 15.08844338 165.69793983 15.08844338 165.69399452 16.30754495 C165.69173866 17.03844338 165.6894828 17.76934182 165.68715858 18.5223887 C165.42836952 20.37004495 165.42836952 20.37004495 163.42836952 22.37004495 C160.67968464 22.62896466 160.67968464 22.62896466 157.10309792 22.64178872 C156.44650336 22.64687556 155.78990881 22.65196239 155.11341745 22.65720338 C152.90218065 22.67192367 150.69116565 22.67239899 148.47988319 22.67302346 C146.89791364 22.68068211 145.31594816 22.68922799 143.73398781 22.69859719 C140.31820345 22.7169171 136.90247429 22.72893017 133.48664856 22.73613572 C128.0660644 22.74762851 122.64560069 22.77309821 117.22507668 22.80044961 C108.62639256 22.84217777 100.02770249 22.87453578 91.42896491 22.90292376 C76.10069451 22.95365423 60.77247869 23.01670649 45.44429189 23.08826417 C40.07712403 23.11291077 34.70996972 23.13234219 29.34276789 23.14777344 C-1.64095014 22.88064165 -1.64095014 22.88064165 -32.44663048 25.62004495 C-33.306838 25.74790383 -34.16704552 25.87576272 -35.05331993 26.00749612 C-47.56965365 28.01649171 -61.92463376 31.57349091 -70.57163048 41.49504495 C-75.28355441 48.2684356 -75.37138804 54.18205089 -74.57163048 62.37004495 C-73.54301004 64.99011587 -72.48642855 66.22997651 -70.57163048 68.37004495 C-70.24163048 69.11254495 -69.91163048 69.85504495 -69.57163048 70.62004495 C-68.24321855 72.94476583 -67.00390522 73.23067372 -64.57163048 74.37004495 C-63.56873985 74.89340432 -62.56584923 75.4167637 -61.53256798 75.95598245 C-45.85930192 83.88650044 -29.38505887 86.54250373 -11.92319298 86.48357034 C-10.78085701 86.48371636 -9.63852104 86.48386239 -8.46156883 86.48401284 C-4.70656969 86.48331926 -0.95162089 86.47555284 2.80336952 86.4677012 C5.41510427 86.46583505 8.02683937 86.46441207 10.6385746 86.46341348 C16.79715348 86.46031456 22.95571445 86.45212069 29.11428547 86.44206399 C36.13005448 86.430858 43.14582437 86.42538113 50.16160011 86.42036855 C64.58386579 86.40993678 79.0061174 86.39236539 93.42836952 86.37004495 C94.57663802 84.07350795 94.54398127 82.78691327 94.52602577 80.23723245 C94.52280312 79.43156838 94.51958046 78.62590432 94.51626015 77.7958262 C94.50788124 76.95406838 94.49950233 76.11231057 94.49086952 75.24504495 C94.48410194 73.97080667 94.48410194 73.97080667 94.47719765 72.6708262 C94.46539826 70.57053586 94.44746258 68.47028164 94.42836952 66.37004495 C93.24264351 66.36195809 92.0569175 66.35387124 90.83526039 66.34553933 C79.68094809 66.26817824 68.52675928 66.1804647 57.37260818 66.08251786 C51.63763935 66.03249333 45.90268949 65.98616398 40.16762733 65.94816995 C34.63679321 65.91139476 29.10611555 65.86505631 23.57541466 65.81198144 C21.46145169 65.79339607 19.34745513 65.77830357 17.23344231 65.76670098 C14.28083838 65.74990921 11.32859607 65.72089177 8.37612343 65.6888926 C7.49499382 65.68673242 6.61386421 65.68457223 5.70603371 65.68234658 C-0.34352616 65.59814927 -0.34352616 65.59814927 -2.57163048 63.37004495 C-2.79715286 60.67842069 -2.89596338 58.1233475 -2.88413048 55.43254495 C-2.90024376 54.7035801 -2.91635704 53.97461526 -2.9329586 53.22356057 C-2.93781512 47.92510556 -2.93781512 47.92510556 -1.44426346 45.66118836 C1.2987873 43.7699091 3.44044216 43.99233624 6.75377846 43.98909402 C7.72013354 43.98207406 7.72013354 43.98207406 8.70601094 43.97491229 C10.86871766 43.96292874 13.03079461 43.97243214 15.19350624 43.98186135 C16.74247038 43.97779704 18.29143162 43.97245595 19.84038734 43.96593118 C24.05122697 43.95223269 28.26184654 43.9575672 32.47269011 43.96706843 C36.87728507 43.97465467 41.28186098 43.96762206 45.68645668 43.96290994 C53.08597641 43.95744821 60.48540638 43.96465372 67.88491249 43.97893167 C76.43902156 43.99524695 84.992916 43.98997955 93.54701984 43.97345245 C100.88894229 43.95983506 108.23080014 43.95791952 115.57273114 43.96576846 C119.95867627 43.97044514 124.34452056 43.97107021 128.73045921 43.96115899 C132.85583592 43.95248835 136.98093631 43.95851294 141.10628319 43.97584176 C142.61998473 43.97980661 144.13370955 43.97867256 145.64740181 43.97205377 C147.71491224 43.96384742 149.78153906 43.97414766 151.8489933 43.98909402 C153.58395467 43.99079063 153.58395467 43.99079063 155.35396576 43.99252152 C158.81109906 44.41704247 160.6585261 45.2884724 163.42836952 47.37004495 C165.64268073 50.69151175 165.69520613 51.8024842 165.75063515 55.68010354 C165.76985023 56.76487985 165.78906532 57.84965615 165.80886269 58.96730447 C165.82161232 60.72513757 165.82161232 60.72513757 165.83461952 62.51848245 C165.84601967 63.72316171 165.85741982 64.92784097 165.86916542 66.16902566 C165.88806943 68.71939475 165.90113499 71.26981274 165.90883827 73.82024026 C165.92826044 77.72312395 165.9903006 81.6239055 166.05336952 85.52629495 C166.06642877 88.00284492 166.07693004 90.47940998 166.08461952 92.95598245 C166.10931313 94.12382272 166.13400673 95.29166299 166.15944862 96.49489236 C166.15344643 97.58597299 166.14744423 98.67705361 166.14126015 99.80119729 C166.15219704 101.23657342 166.15219704 101.23657342 166.16335487 102.70094705 C165.11281826 106.51596875 162.7553646 108.44694265 159.42836952 110.37004495 C156.56647255 111.05803878 153.81545739 111.03411884 150.88247108 110.98477578 C150.03532099 110.99045904 149.18817089 110.99614229 148.31534958 111.00199777 C145.48272802 111.01489355 142.65153763 110.99211631 139.81899452 110.96941018 C137.78486265 110.97127463 135.75073179 110.9753121 133.71660805 110.98135781 C128.19067353 110.99134243 122.66525116 110.97013481 117.13939095 110.94287777 C111.33875472 110.91901323 105.53812812 110.9219923 99.73745155 110.92157388 C89.97906303 110.91694229 80.22086924 110.89329514 70.46254921 110.85710549 C59.23045905 110.81555703 47.99854485 110.79780151 36.76638222 110.79448575 C24.76380455 110.79086191 12.76128901 110.77193434 0.75873756 110.74736547 C-2.67344756 110.74118047 -6.10562792 110.73751647 -9.537817 110.73433137 C-14.97484164 110.72835247 -20.41174514 110.71182776 -25.84871864 110.68772721 C-27.82614387 110.68039394 -29.80358426 110.67622235 -31.78102303 110.67574716 C-64.82221186 110.6601337 -107.39479943 109.65882186 -133.57163048 86.37004495 C-134.1826461 85.85055276 -134.79366173 85.33106057 -135.42319298 84.7958262 C-143.50727679 77.4169497 -147.419553 67.35413194 -147.94663048 56.55754495 C-147.61930061 45.30773439 -142.42214904 38.00399748 -134.57163048 30.37004495 C-134.05084923 29.8286387 -133.53006798 29.28723245 -132.99350548 28.72941995 C-100.03219448 -2.84404638 -41.84754368 -0.10297855 0 0 Z " fill="#000000" transform="translate(1200.5716304779053,64.62995505332947)"/>
<path d="M0 0 C0.82038323 -0.00568326 1.64076645 -0.01136651 2.48600978 -0.01722199 C5.23416579 -0.03013644 7.98085206 -0.00732429 10.72892761 0.0153656 C12.70055449 0.01350145 14.67218034 0.00946463 16.64379883 0.00341797 C22.0046486 -0.00657461 27.36497121 0.01465612 32.72574449 0.04189801 C38.35461789 0.06575653 43.98348128 0.06278346 49.61239624 0.0632019 C59.08590065 0.06783529 68.55920465 0.09149055 78.03263855 0.12767029 C88.9289591 0.16917811 99.82509841 0.18697174 110.72149354 0.19029003 C122.370722 0.19391806 134.01988665 0.21285565 145.66908813 0.23741031 C148.99637043 0.24358833 152.32364784 0.24725675 155.65093422 0.25044441 C247.36177477 0.36218377 247.36177477 0.36218377 277.32731628 29.00144958 C284.72883003 36.77478192 289.12031017 44.24468481 290.12809753 54.92723083 C289.07404756 67.36502049 283.72292737 76.1768498 274.75309753 84.73973083 C264.24319364 93.50696691 252.61576021 98.98685182 239.63249207 103.04197693 C238.14099199 103.51215419 236.66175424 104.02106198 235.18669128 104.54051208 C215.71924289 111.14251632 194.6381872 110.1689605 174.36890411 110.28549957 C171.60494439 110.30237217 168.84105133 110.32359542 166.07713318 110.34623718 C154.63384944 110.43953644 143.19058364 110.5058258 131.74704742 110.55887985 C123.30132056 110.59921117 114.85574802 110.65408793 106.4101454 110.7142309 C92.53890001 110.81283097 78.66772331 110.88953699 64.79620838 110.93815136 C57.51679588 110.96394568 50.23759998 110.99711067 42.95832825 111.04988098 C36.03887253 111.09976907 29.11974824 111.12297046 22.20011711 111.12874794 C19.62521751 111.13497983 17.05032293 111.14984607 14.47552681 111.17375755 C10.93337389 111.20518295 7.39251977 111.20558577 3.8502655 111.19822693 C2.81300733 111.21463573 1.77574915 111.23104452 0.70705891 111.24795055 C-3.58384792 111.2106724 -7.19259322 111.13896708 -10.82653809 108.68251038 C-14.11514261 104.40375976 -14.02435371 101.21359879 -13.94490051 95.94676208 C-13.95380814 94.97870636 -13.96271576 94.01065063 -13.97189331 93.01325989 C-13.99318226 89.81722875 -13.97086508 86.62321252 -13.94612122 83.42723083 C-13.94762356 81.20432835 -13.95105339 78.9814264 -13.95632935 76.75852966 C-13.96066169 72.10127903 -13.94381519 67.44472059 -13.91169739 62.7875824 C-13.8719168 56.8184592 -13.88121547 50.85063408 -13.90593243 44.88146973 C-13.92011604 40.29174666 -13.9100282 35.70232673 -13.89241982 31.11262512 C-13.88657032 28.91180648 -13.88787187 26.71095682 -13.89644432 24.51014709 C-13.90443682 21.43363022 -13.88019163 18.35901433 -13.84724426 15.28269958 C-13.85579437 14.37345734 -13.86434448 13.46421509 -13.87315369 12.52742004 C-13.85760941 11.68635712 -13.84206512 10.84529419 -13.8260498 9.97874451 C-13.82286586 9.25241318 -13.81968191 8.52608185 -13.81640148 7.77774048 C-11.77941726 0.80618451 -6.41123926 -0.11094142 0 0 Z M57.18315125 25.30612183 C55.52862844 28.0991721 55.30883817 29.79814805 55.29801941 33.03831482 C55.28541077 34.12301559 55.27280212 35.20771637 55.2598114 36.32528687 C55.26790833 37.49201431 55.27600525 38.65874176 55.28434753 39.86082458 C55.28052063 41.0640889 55.27669373 42.26735321 55.27275085 43.50708008 C55.27002908 46.05151709 55.27740866 48.59598196 55.29411316 51.1403656 C55.31549823 55.03414909 55.29432781 58.92608332 55.26872253 62.81980896 C55.27136613 65.29181824 55.27649175 67.76382637 55.28434753 70.23582458 C55.27625061 71.4005278 55.26815369 72.56523102 55.2598114 73.76522827 C55.27242004 74.85308121 55.28502869 75.94093414 55.29801941 77.06175232 C55.30120178 78.01565353 55.30438416 78.96955475 55.30766296 79.95236206 C56.02047564 83.68861141 56.87517247 85.15345112 59.81559753 87.61473083 C63.28035517 88.35491352 66.68989248 88.27680137 70.22111511 88.22996521 C71.28025116 88.23551422 72.33938721 88.24106323 73.43061829 88.2467804 C76.94091222 88.25861233 80.44992447 88.23424645 83.96012878 88.20848083 C86.40712424 88.20676925 88.85412153 88.2068359 91.30111694 88.20860291 C96.44015462 88.20694713 101.57875746 88.18821464 106.71769714 88.15672302 C113.26964699 88.11727538 119.82102102 88.11264973 126.3730669 88.12018585 C131.43409392 88.1232749 136.49499425 88.11106282 141.55599022 88.09405518 C143.9690388 88.0870723 146.38210176 88.08389486 148.79516029 88.08474731 C170.75792504 88.07296967 192.6438542 87.25279475 209.37028503 71.11473083 C213.33493399 66.79818996 215.73270512 61.96151194 215.87809753 56.09129333 C215.22989724 47.09751422 211.75291933 41.91569507 205.34684753 35.72801208 C201.4986362 32.51523071 197.42526054 30.5172508 192.81559753 28.61473083 C192.15946472 28.31953552 191.50333191 28.02434021 190.82731628 27.72019958 C181.45773123 23.78225804 171.17611138 23.31517547 161.14372253 23.32420349 C160.04624191 23.31748627 158.94876129 23.31076904 157.81802368 23.30384827 C154.23383419 23.28503288 150.64983314 23.28095414 147.06559753 23.27879333 C144.55884221 23.27235993 142.05208764 23.26563117 139.54533386 23.25862122 C134.31395218 23.24669413 129.08263637 23.24293628 123.85124207 23.24412537 C117.80927939 23.24533243 111.76767061 23.22409643 105.72579765 23.19263804 C99.89197722 23.16335087 94.05829758 23.15614833 88.22441101 23.15734482 C85.74921714 23.15498259 83.27402071 23.14612426 80.7988739 23.13068008 C77.34971693 23.1111512 73.9014872 23.11680433 70.45231628 23.12889099 C69.42891647 23.11765198 68.40551666 23.10641296 67.35110474 23.09483337 C61.96723199 23.10121455 61.96723199 23.10121455 57.18315125 25.30612183 Z " fill="#000000" transform="translate(725.1844024658203,64.38526916503906)"/>
<path d="M0 0 C0.85839747 -0.0055344 1.71679494 -0.01106879 2.60120445 -0.0167709 C5.48362033 -0.03040575 8.36517448 -0.01539192 11.24757385 -0.00050354 C13.31259021 -0.00428616 15.37760404 -0.00978573 17.44261169 -0.01687622 C23.06148153 -0.0308703 28.68004641 -0.0196266 34.29889941 -0.00316501 C40.19211742 0.01068727 46.08531773 0.00422401 51.97854614 0.0007019 C61.894281 -0.00200368 71.80989509 0.01149298 81.7256012 0.03465271 C93.14401238 0.06113998 104.56222003 0.06305061 115.98065132 0.05126435 C126.99464515 0.04042265 138.00856629 0.0467315 149.0225544 0.06081963 C153.69145007 0.06653689 158.36029179 0.06653028 163.02918816 0.06175423 C168.55567669 0.05692531 174.08194739 0.06732677 179.60839462 0.08870888 C181.620104 0.09420204 183.63183463 0.09481235 185.64354515 0.08975601 C208.27189718 0.04008416 232.06291701 2.13884051 252.57398987 12.50120544 C254.15180237 13.20309998 254.15180237 13.20309998 255.76148987 13.91917419 C269.7824306 20.39156021 282.67149083 30.04954121 288.51148987 44.87620544 C291.14073661 54.19359858 290.19104516 63.04138363 285.57398987 71.50120544 C283.78088007 74.37654719 281.79461266 76.94412466 279.57398987 79.50120544 C279.01066956 80.15862732 278.44734924 80.81604919 277.86695862 81.49339294 C258.80765238 102.11756854 226.45323037 108.88636515 199.57398987 110.50120544 C192.88327755 110.69594129 186.1872926 110.65875047 179.49440002 110.66233826 C177.47135835 110.66697355 175.44831753 110.67199915 173.42527771 110.67738342 C167.95882588 110.69043015 162.49238629 110.69693572 157.02592134 110.70139408 C153.60912571 110.70433382 150.19233337 110.70844002 146.7755394 110.71289825 C136.0792275 110.72654501 125.38292318 110.73622873 114.68660319 110.74010015 C102.34708475 110.74459166 90.00767648 110.76220188 77.66819155 110.79110074 C68.11807453 110.81269084 58.5679886 110.82280279 49.01784742 110.82414126 C43.31744918 110.82519005 37.6171549 110.83111507 31.91678238 110.84896088 C26.56346556 110.86539805 21.21033145 110.86761831 15.85699844 110.85882187 C13.89176444 110.85804949 11.92652076 110.86242047 9.96131134 110.87228012 C7.28125435 110.88493982 4.60185068 110.87915583 1.92179871 110.86869812 C1.14233088 110.87675452 0.36286306 110.88481093 -0.44022501 110.89311147 C-4.93731303 110.85199448 -7.8573654 110.30265028 -11.42601013 107.50120544 C-12.56138504 105.23045562 -12.55857349 103.97511505 -12.57318115 101.45326233 C-12.58033646 100.60646408 -12.58749176 99.75966583 -12.59486389 98.88720703 C-12.5975528 97.95625717 -12.6002417 97.02530731 -12.60301208 96.06614685 C-12.60958328 95.08716934 -12.61615448 94.10819183 -12.6229248 93.09954834 C-12.64268237 89.85062083 -12.6543248 86.60173955 -12.66429138 83.35276794 C-12.66836691 82.2453059 -12.67244244 81.13784386 -12.67664146 79.99682236 C-12.69751094 74.13728267 -12.71180987 68.27776647 -12.72117615 62.41819763 C-12.73225302 56.35610027 -12.7666654 50.29436872 -12.80634785 44.23240089 C-12.83244826 39.57933351 -12.84086205 34.92635422 -12.84445763 30.27322006 C-12.84933923 28.03804931 -12.86099763 25.80288289 -12.87949562 23.56778336 C-12.90375084 20.44324177 -12.902947 17.31965929 -12.89598083 14.1950531 C-12.90879089 13.2681517 -12.92160095 12.34125031 -12.93479919 11.38626099 C-12.92785538 10.53382309 -12.92091156 9.68138519 -12.91375732 8.80311584 C-12.91614568 8.06459192 -12.91853403 7.326068 -12.92099476 6.56516457 C-11.31105661 -0.14786519 -5.85921983 -0.07010229 0 0 Z M82.71376038 22.76567078 C80.66833797 22.79759881 78.62283554 22.82476783 76.57728577 22.84709167 C73.75409256 22.87988171 70.9319243 22.93174611 68.10914612 22.98948669 C66.86642693 22.99908669 66.86642693 22.99908669 65.59860229 23.00888062 C61.50364852 23.03887815 61.50364852 23.03887815 57.86582947 24.68388367 C56.08111479 27.19456755 56.18661124 28.94354604 56.16993713 32.01072693 C56.15725296 33.13877243 56.14456879 34.26681793 56.13150024 35.42904663 C56.13443588 36.64781998 56.13737152 37.86659332 56.14039612 39.12229919 C56.13515427 40.37374222 56.12991241 41.62518524 56.12451172 42.91455078 C56.1180822 45.56362754 56.11800504 48.21184484 56.12794495 50.86082458 C56.13943038 54.25177104 56.11923307 57.64167547 56.09002781 61.03248501 C56.06724446 64.27076174 56.07413332 67.50896108 56.07789612 70.74729919 C56.06666214 71.96404831 56.05542816 73.18079742 56.04385376 74.43441772 C56.05323471 75.56561539 56.06261566 76.69681305 56.07228088 77.86228943 C56.07244705 78.85695724 56.07261322 79.85162506 56.07278442 80.87643433 C56.43129249 83.55925097 56.43129249 83.55925097 57.94749451 85.82029724 C62.12067813 88.49105718 66.24506588 88.06594487 71.09962463 88.03465271 C72.17184265 88.04326828 73.24406067 88.05188385 74.34877014 88.0607605 C77.9045561 88.0835124 81.45955853 88.07665629 85.01539612 88.06761169 C87.49765252 88.07284874 89.97990692 88.07912551 92.4621582 88.08639526 C98.34687289 88.09815658 104.23130883 88.08851541 110.11600393 88.07199091 C116.0843975 88.05806516 122.05231027 88.08732032 128.02063084 88.11911106 C133.15731386 88.14125613 138.29379356 88.13960026 143.43050957 88.13134575 C145.8737629 88.13053303 148.31703223 88.13726448 150.76024055 88.15211678 C169.42144488 88.24804069 187.62025515 87.25263536 203.57398987 76.50120544 C204.16180237 76.12479919 204.74961487 75.74839294 205.35523987 75.36058044 C211.04789005 71.23631348 214.63302016 64.60087037 216.63648987 58.00120544 C216.48119133 49.3044875 213.52748848 43.13561051 207.48414612 36.89573669 C191.83462908 24.01901999 171.96588118 22.33226837 152.46461487 22.36839294 C151.31882462 22.36693771 150.17303436 22.36548248 148.99252319 22.36398315 C145.26964502 22.36174484 141.54685889 22.3680047 137.82398987 22.37620544 C136.55296417 22.37808868 135.28193848 22.37997192 133.97239685 22.38191223 C116.88589859 22.41151513 99.79822046 22.48793133 82.71376038 22.76567078 Z " fill="#000000" transform="translate(12.426010131835938,64.49879455566406)"/>
<path d="M0 0 C1.3327079 -0.00689819 1.3327079 -0.00689819 2.69233918 -0.01393574 C4.15800785 -0.0062204 4.15800785 -0.0062204 5.65328598 0.00165081 C6.69065517 -0.00076361 7.72802436 -0.00317802 8.79682899 -0.0056656 C12.29036519 -0.01132363 15.78372025 -0.00262321 19.27724838 0.00596905 C21.77548904 0.00489661 24.27372946 0.0029585 26.77196884 0.00021648 C32.86668127 -0.00413851 38.96132227 0.00082514 45.05602399 0.01006678 C52.16204893 0.02045343 59.26806216 0.02038044 66.37409326 0.01989421 C79.06675794 0.01939317 91.75939747 0.02856224 104.45205307 0.04307842 C116.74567753 0.05713086 129.03927984 0.06425072 141.33291245 0.06358624 C142.46601492 0.0635263 142.46601492 0.0635263 143.62200835 0.06346516 C144.7532132 0.06340462 144.7532132 0.06340462 145.90727067 0.06334287 C159.91984267 0.06265059 173.93240531 0.06856168 187.94497426 0.07749609 C192.88674915 0.08049918 197.8285223 0.08157411 202.770298 0.08202839 C209.44494448 0.08278708 216.11956478 0.08918774 222.79420471 0.09919453 C225.2357672 0.10209851 227.67733234 0.10334919 230.11889648 0.10276699 C259.38244887 0.0984324 259.38244887 0.0984324 266.67470932 1.24888897 C269.30194756 3.87612721 268.93586903 5.7910057 268.94814682 9.36998272 C268.94041245 10.15502178 268.93267807 10.94006084 268.92470932 11.74888897 C268.9324437 12.53392803 268.94017807 13.31896709 268.94814682 14.12779522 C268.92801719 19.9955811 268.92801719 19.9955811 266.67470932 22.24888897 C263.98912811 22.50780869 263.98912811 22.50780869 260.50179672 22.52063274 C259.18245636 22.53035107 257.863116 22.54006939 256.50379562 22.55008221 C255.03179558 22.55085265 253.55979544 22.55144154 252.08779526 22.55186749 C250.54326049 22.55952735 248.99872991 22.56807346 247.45420456 22.57744122 C244.11539623 22.59577226 240.77664447 22.60777905 237.43779373 22.61497974 C232.11755516 22.62650419 226.79743826 22.65199742 221.47726059 22.67929363 C213.01216027 22.72105867 204.54705371 22.75338045 196.08189893 22.78176779 C181.06158618 22.83230247 166.04133289 22.89623956 151.02110314 22.96710819 C145.77674723 22.99145941 140.53240323 23.01098306 135.28801465 23.02665442 C124.7497535 23.05932008 114.21234995 23.12897392 103.67470932 23.24888897 C102.36732142 23.26336897 102.36732142 23.26336897 101.03352165 23.2781415 C95.67608195 23.34024631 90.31946029 23.42212131 84.96271753 23.52873695 C83.27177074 23.56050657 81.58072448 23.58739438 79.88961935 23.6091615 C77.55876256 23.64056982 75.22904632 23.69065768 72.89864731 23.74582195 C71.86240557 23.75424006 71.86240557 23.75424006 70.80522966 23.76282823 C67.99181526 23.84698936 66.09111843 23.95883496 63.74811554 25.59087753 C62.03540766 28.23637111 62.27873825 30.64517114 62.29970932 33.74888897 C62.29197495 34.89357647 62.28424057 36.03826397 62.27627182 37.21763897 C62.42605042 40.16808916 62.42605042 40.16808916 63.8439827 41.9138422 C66.40618975 43.78231683 68.20821751 43.63077032 71.3647728 43.64088726 C72.55204971 43.65198025 73.73932663 43.66307323 74.96258163 43.67450237 C76.26815018 43.67149624 77.57371872 43.6684901 78.91884995 43.66539288 C80.30764118 43.67277407 81.69642591 43.68147944 83.08520126 43.69140911 C86.87294747 43.71481888 90.66052984 43.71988951 94.44833946 43.72206831 C98.45349747 43.72775536 102.4585515 43.75107318 106.46364975 43.77266216 C114.10111557 43.81130414 121.73855168 43.83541638 129.37609053 43.85378683 C138.72827519 43.8766496 148.08039218 43.91300027 157.43252182 43.95201397 C158.67064495 43.95717722 158.67064495 43.95717722 159.93378067 43.96244478 C164.87696795 43.98322536 169.82015131 44.00479346 174.76333237 44.02700233 C176.39166859 44.03430139 178.02000519 44.04151944 179.64834213 44.04865646 C218.55882402 44.21963074 218.55882402 44.21963074 237.06251144 44.59191799 C238.88509425 44.62839567 240.70774018 44.66186366 242.53043747 44.69208431 C244.94152459 44.73375639 247.35190161 44.78829784 249.76259995 44.84801006 C251.06668808 44.87704418 252.37077621 44.9060783 253.71438217 44.93599224 C256.67470932 45.24888897 256.67470932 45.24888897 258.67470932 47.24888897 C258.81978627 49.9937449 258.86123355 52.6336944 258.79970932 55.37388897 C258.79068588 56.12799053 258.78166245 56.88209209 258.77236557 57.65904522 C258.74877802 59.52246151 258.71290651 61.3857149 258.67470932 63.24888897 C256.27035184 64.45106771 254.71382056 64.40215818 252.02688217 64.44627666 C251.04411804 64.46462566 250.06135391 64.48297466 249.04880905 64.50187969 C247.96436005 64.51700603 246.87991104 64.53213238 245.76259995 64.54771709 C244.05024406 64.57687206 244.05024406 64.57687206 242.30329514 64.60661602 C238.47924792 64.66979569 234.65513421 64.72526633 230.83095932 64.78013897 C229.49191108 64.80068905 228.15286587 64.82143742 226.8138237 64.84237957 C192.44974569 65.37831714 158.08246851 65.57478805 123.71511459 65.77495098 C115.6717583 65.82180527 107.62842752 65.87067775 99.58512735 65.92643785 C96.16982205 65.94992778 92.75452811 65.97153488 89.33918381 65.98852825 C85.59616551 66.00781459 81.85322946 66.03295368 78.1102562 66.05943584 C76.44982788 66.06571247 76.44982788 66.06571247 74.75585556 66.0721159 C73.74322647 66.08045956 72.73059738 66.08880322 71.68728256 66.09739971 C70.37170994 66.10513031 70.37170994 66.10513031 69.02956009 66.11301708 C66.78196779 66.24270029 64.8312657 66.62171706 62.67470932 67.24888897 C61.3914335 72.38199224 60.40090773 79.32231885 62.67470932 84.24888897 C66.39849408 86.87762708 70.51428762 86.54855207 74.88689804 86.55186749 C75.72194929 86.56033231 76.55700054 86.56879713 77.41735637 86.57751846 C80.21945649 86.60358078 83.02144278 86.61562185 85.8236351 86.62779522 C87.83081381 86.64367895 89.83798563 86.66045478 91.84514999 86.67805767 C96.16890212 86.71417898 100.49263904 86.74420713 104.81646729 86.7696104 C111.64764029 86.81001847 118.47864219 86.86532517 125.30968857 86.92296124 C141.04069088 87.05340435 156.77181983 87.16429127 172.50297165 87.27493572 C186.92421679 87.37655031 201.34539971 87.48224356 215.76649082 87.60398674 C222.56326054 87.66079503 229.36000958 87.70794625 236.15689874 87.74783611 C240.37658203 87.77454356 244.59616939 87.80937105 248.81577301 87.84645748 C250.77900653 87.86201445 252.74227061 87.87413387 254.70554733 87.8826437 C257.3760256 87.89467526 260.04612725 87.91873978 262.71648788 87.94591045 C263.50168718 87.94650243 264.28688647 87.9470944 265.09587967 87.94770432 C270.44652295 88.0207026 270.44652295 88.0207026 272.67470932 90.24888897 C272.87323034 92.95811698 272.95310409 95.54192076 272.92470932 98.24888897 C272.9324437 98.98623272 272.94017807 99.72357647 272.94814682 100.48326397 C272.92802892 105.99556937 272.92802892 105.99556937 270.67470932 108.24888897 C268.68505478 108.50780869 268.68505478 108.50780869 266.19570541 108.52063274 C265.25346115 108.53035107 264.31121689 108.54006939 263.34041977 108.55008221 C262.3034697 108.55067135 261.26651962 108.55126049 260.19814682 108.55186749 C258.56392776 108.56452648 258.56392776 108.56452648 256.89669418 108.57744122 C253.28102836 108.6033155 249.66544426 108.61538141 246.04970932 108.62779522 C243.54628468 108.64395913 241.0428664 108.66113794 238.53945541 108.67929363 C232.61329751 108.72039217 226.68713336 108.75337007 220.76090431 108.78176779 C209.51751673 108.83573294 198.27423275 108.90380703 187.03097153 108.97970676 C183.3293808 109.00261162 179.62780203 109.01883737 175.92617416 109.03442669 C173.66787205 109.04782952 171.40957117 109.06144398 169.15127182 109.07530499 C167.59584671 109.07922504 167.59584671 109.07922504 166.00899887 109.0832243 C165.06675461 109.0901228 164.12451035 109.09702129 163.15371323 109.10412884 C162.33222794 109.10798375 161.51074265 109.11183867 160.66436386 109.11581039 C158.60012504 109.12512862 158.60012504 109.12512862 156.67470932 110.24888897 C154.59557751 110.34952483 152.51315015 110.38401217 150.43159103 110.38933086 C149.46039227 110.39378755 149.46039227 110.39378755 148.46957332 110.39833426 C146.29013632 110.40703736 144.11075414 110.40853087 141.93130112 110.41002178 C140.37263496 110.41464884 138.81396994 110.41967335 137.25530624 110.42506695 C133.01348914 110.43820434 128.77168786 110.44463859 124.52985358 110.44907761 C121.880803 110.45200637 119.23175676 110.45611081 116.58270836 110.46058178 C108.29762055 110.47426066 100.01254267 110.48392522 91.72744435 110.48778367 C82.15775641 110.49226458 72.58821129 110.50981233 63.01856679 110.53878427 C55.6257252 110.56039031 48.23292383 110.57048739 40.840051 110.57182479 C36.42277181 110.57287366 32.00562681 110.57879866 27.58838081 110.5966444 C23.43267925 110.61310636 19.277213 110.61528978 15.12149048 110.60650539 C13.59649081 110.60573399 12.0714786 110.61009135 10.5465107 110.61996365 C8.46365243 110.63265633 6.38163093 110.62682181 4.29877853 110.61638165 C3.13346446 110.61784821 1.96815039 110.61931477 0.76752377 110.62082577 C-2.70402831 110.2033426 -4.5468584 109.34061112 -7.32529068 107.24888897 C-9.35769994 104.20027508 -9.57564777 103.61649472 -9.57925797 100.19458294 C-9.58489761 99.37165249 -9.59053726 98.54872204 -9.59634781 97.7008543 C-9.59229935 96.80155193 -9.58825089 95.90224957 -9.58407974 94.97569561 C-9.58758438 94.02583279 -9.59108902 93.07596996 -9.59469986 92.09732342 C-9.60351665 88.95115677 -9.59766768 85.80521423 -9.59091568 82.65904522 C-9.59226246 80.47573077 -9.59420309 78.29241662 -9.59671402 76.1091032 C-9.59966531 71.53009979 -9.59536786 66.95117434 -9.58603287 62.37217999 C-9.57464512 56.49966275 -9.58119355 50.62732846 -9.5931778 44.75481796 C-9.60040199 40.24500428 -9.59810576 35.73523403 -9.59292221 31.22541904 C-9.59158692 29.06005043 -9.59322923 26.89467788 -9.59788132 24.72931385 C-9.60295491 21.70326186 -9.5952241 18.67750672 -9.58407974 15.65147686 C-9.5881282 14.75419872 -9.59217667 13.85692059 -9.59634781 12.9324522 C-9.59070816 12.10670193 -9.58506851 11.28095165 -9.57925797 10.43017864 C-9.57850391 9.71507657 -9.57774986 8.9999745 -9.57697296 8.26320267 C-9.27591331 5.85370221 -8.61627272 4.30241251 -7.32529068 2.24888897 C-4.20597012 0.16934193 -3.53759189 -0.00100073 0 0 Z " fill="#000000" transform="translate(1423.3252906799316,64.75111103057861)"/>
<path d="M0 0 C1.06301205 -0.00407553 2.12602409 -0.00815105 3.22124863 -0.01235008 C8.86787463 -0.03314825 14.51447692 -0.04746673 20.16113281 -0.05688477 C24.75925254 -0.06566857 29.35706256 -0.08636944 33.95507812 -0.1184082 C141.73642789 -0.85270849 141.73642789 -0.85270849 178.9921875 32.23828125 C179.62640625 32.79128906 180.260625 33.34429687 180.9140625 33.9140625 C187.88315734 40.3917468 191.60890042 47.48897505 192.2421875 56.98828125 C192.08157304 65.53297046 188.47131093 71.91330236 182.9921875 78.23828125 C182.47398437 78.87378906 181.95578125 79.50929688 181.421875 80.1640625 C160.31678637 103.77715493 119.32386041 110.7252239 89.4921875 113.30078125 C88.25082031 113.41776367 88.25082031 113.41776367 86.984375 113.53710938 C67.71966594 115.2561579 48.44647902 115.43953038 29.1171875 115.42578125 C27.16028488 115.42587189 27.16028488 115.42587189 25.16384888 115.42596436 C6.34608691 115.4135433 -12.27332318 115.07440783 -31.0078125 113.23828125 C-32.66129986 113.10222683 -34.31493799 112.9679871 -35.96875 112.8359375 C-66.35582397 110.19992692 -104.59316475 101.5157866 -126.0078125 78.11328125 C-132.93271979 69.63449233 -134.97068254 62.14622327 -134.0078125 51.23828125 C-130.91765772 39.30581612 -119.62684314 29.66922271 -109.6328125 23.23828125 C-96.28997189 15.65806066 -81.83409719 10.90562462 -67.0078125 7.23828125 C-65.92628906 6.95339844 -64.84476562 6.66851562 -63.73046875 6.375 C-53.64663218 3.84430742 -43.31548139 2.50617378 -33.0078125 1.23828125 C-31.94781036 1.10280128 -31.94781036 1.10280128 -30.86639404 0.96458435 C-20.61867182 -0.15366546 -10.29492031 0.033645 0 0 Z M10.140625 22.27636719 C-11.71828676 22.65780831 -38.29195425 25.56571146 -55.1015625 41.18359375 C-60.22077463 46.70143305 -62.4926353 51.52143936 -62.2578125 59.2265625 C-61.52593804 65.11586481 -58.42076528 70.36280349 -54.0078125 74.23828125 C-46.49197045 79.58449486 -38.84651177 83.55952993 -30.0078125 86.23828125 C-29.30712143 86.46415924 -28.60643036 86.69003723 -27.88450623 86.92276001 C-10.64912877 92.34747538 7.36143747 92.75171661 25.29492188 92.68432617 C28.72587356 92.67582169 32.15514864 92.70471586 35.5859375 92.73632812 C47.17828789 92.77410002 58.47355664 92.1915127 69.9453125 90.4609375 C70.97952332 90.30572128 72.01373413 90.15050507 73.07928467 89.99058533 C89.02359638 87.33247296 105.07050614 81.64086855 115.9921875 69.23828125 C119.47916357 64.12699228 120.68813777 59.47446691 119.5859375 53.359375 C117.16474384 44.70997922 110.68137867 39.12342716 103.23046875 34.5390625 C95.78879499 30.59467734 88.13871823 28.26361186 79.9921875 26.23828125 C78.98542969 25.94953125 77.97867188 25.66078125 76.94140625 25.36328125 C55.73942304 19.87136032 31.87425542 21.98608925 10.140625 22.27636719 Z " fill="#000000" transform="translate(478.0078125,62.76171875)"/>
<path d="M0 0 C0.66 0.33 1.32 0.66 2 1 C1.22914062 1.90363281 0.45828125 2.80726563 -0.3359375 3.73828125 C-1.34904163 4.92961667 -2.36205788 6.12102683 -3.375 7.3125 C-3.88289063 7.90740234 -4.39078125 8.50230469 -4.9140625 9.11523438 C-5.40390625 9.69208984 -5.89375 10.26894531 -6.3984375 10.86328125 C-6.84880371 11.39219971 -7.29916992 11.92111816 -7.76318359 12.46606445 C-8.92874273 13.91162467 -9.96996304 15.45494456 -11 17 C-11.66 17 -12.32 17 -13 17 C-11.63055898 14.05043472 -10.12169591 11.47531189 -8 9 C-7.34 9 -6.68 9 -6 9 C-5.7525 8.443125 -5.505 7.88625 -5.25 7.3125 C-3.78393985 4.60028873 -1.97010529 2.36412635 0 0 Z " fill="#C72B22" transform="translate(1512,253)"/>
<path d="M0 0 C0.66 0 1.32 0 2 0 C0.55746343 3.36591866 -1.33264727 5.51047079 -4 8 C-4.66 7.67 -5.32 7.34 -6 7 C-5.04882866 5.8274869 -4.08882991 4.66212985 -3.125 3.5 C-2.59132813 2.8503125 -2.05765625 2.200625 -1.5078125 1.53125 C-0.76144531 0.77328125 -0.76144531 0.77328125 0 0 Z " fill="#B3271E" transform="translate(1535,226)"/>
</svg>
