<?xml version="1.0" encoding="UTF-8"?>
<svg version="1.1" xmlns="http://www.w3.org/2000/svg" width="2000" height="216">
<path d="M0 0 C46.53 0 93.06 0 141 0 C145.33163457 7.58036049 149.37732258 14.71937 153.171875 22.46484375 C158.42484648 32.62283347 164.27118583 42.50978349 170.1953125 52.2890625 C172.25630059 55.71041001 174.15601829 59.1412061 175.875 62.75 C179.26974214 69.68394139 183.11448038 76.33347395 187 83 C189.48807742 79.86050722 191.41780535 76.58809201 193.3359375 73.07421875 C193.65146576 72.49876312 193.96699402 71.9233075 194.29208374 71.33041382 C194.96956662 70.09436165 195.64572505 68.85758278 196.32067871 67.62014771 C198.11605611 64.32909019 199.92142985 61.04352656 201.7265625 57.7578125 C202.08983643 57.09614578 202.45311035 56.43447906 202.82739258 55.75276184 C206.08495016 49.82750772 209.40723224 43.94008012 212.75 38.0625 C217.6407201 29.45668447 222.42138022 20.79588316 227.13183594 12.09008789 C227.5962207 11.23278076 228.06060547 10.37547363 228.5390625 9.4921875 C228.94334473 8.74308105 229.34762695 7.99397461 229.76416016 7.22216797 C230.1719873 6.48885254 230.57981445 5.75553711 231 5 C231.60417535 3.71256173 231.60417535 3.71256173 232.22055626 2.39911461 C234 0 234 0 236.56839943 -0.61803246 C237.60411772 -0.61472231 238.63983601 -0.61141216 239.7069397 -0.60800171 C240.89601425 -0.61632019 242.08508881 -0.62463867 243.31019592 -0.63320923 C245.26934181 -0.60860123 245.26934181 -0.60860123 247.26806641 -0.58349609 C248.65603328 -0.58372276 250.04400127 -0.58613619 251.43196106 -0.59057617 C255.20269759 -0.59628935 258.97266293 -0.57097045 262.74325228 -0.53990126 C266.68390005 -0.51239094 270.62454827 -0.51236309 274.5652771 -0.50918579 C281.18134947 -0.49997882 287.79713296 -0.47243327 294.41308594 -0.43212891 C303.75491353 -0.37527201 313.09659583 -0.35297823 322.43856931 -0.33684421 C328.89813674 -0.32440304 335.35768195 -0.30371681 341.81722212 -0.2814641 C343.38661355 -0.27609651 344.95600579 -0.27096048 346.52539873 -0.26605177 C350.99670432 -0.25177789 355.46792622 -0.23239439 359.93916893 -0.20457458 C361.94638379 -0.19312403 363.95362429 -0.1864887 365.96086121 -0.17996216 C367.14429611 -0.17136169 368.32773102 -0.16276123 369.54702759 -0.15390015 C370.58199183 -0.14832785 371.61695606 -0.14275555 372.68328285 -0.13701439 C375 0 375 0 376 1 C376.10008432 3.72886132 376.134397 6.4324844 376.12698364 9.16186523 C376.12854363 10.02772719 376.13010362 10.89358915 376.13171089 11.78568935 C376.1357247 14.71000773 376.13252977 17.63427491 376.12939453 20.55859375 C376.1307484 22.64576244 376.13252825 24.73293089 376.13470459 26.82009888 C376.1392806 32.50588181 376.13748868 38.19164669 376.1343255 43.87742996 C376.13180276 49.81338807 376.1341392 55.74934457 376.13571167 61.68530273 C376.13753362 71.65576456 376.13512639 81.62621899 376.13037109 91.59667969 C376.12492843 103.14204342 376.12669107 114.6873895 376.1321975 126.2327528 C376.13672791 136.12570186 376.13737953 146.01864558 376.13475883 155.91159534 C376.13319566 161.82883303 376.13300338 167.7460624 376.13629532 173.66329956 C376.13917299 179.22490139 376.13720026 184.78648034 376.13140106 190.34807968 C376.1300729 192.39560788 376.13046852 194.44313798 376.13266373 196.49066544 C376.13537306 199.27318167 376.13199679 202.05562335 376.12698364 204.83813477 C376.12921436 205.65942084 376.13144509 206.48070692 376.13374341 207.32688046 C376.11414983 212.88585017 376.11414983 212.88585017 375 214 C373.51983606 214.09568576 372.03511727 214.12188268 370.55186462 214.12025452 C369.11098228 214.12231651 369.11098228 214.12231651 367.64099121 214.12442017 C366.57860229 214.12082489 365.51621338 214.11722961 364.42163086 214.11352539 C362.75355125 214.11374443 362.75355125 214.11374443 361.05177307 214.1139679 C357.35611049 214.11326821 353.66049759 214.1054732 349.96484375 214.09765625 C347.41036507 214.09579227 344.85588603 214.09436827 342.30140686 214.09336853 C336.2523829 214.08993344 330.20338045 214.08204264 324.15436512 214.07201904 C316.59444999 214.05976266 309.03453196 214.05427517 301.47460938 214.04882812 C287.98305889 214.0390772 274.49154768 214.01904689 261 214 C260.505 172.915 260.505 172.915 260 131 C251.3357906 146.70387954 242.70055689 162.398361 234.1796875 178.17578125 C227.63605899 190.21875528 220.80081003 202.10108241 214 214 C206.56259173 214.25382664 199.12630089 214.42877542 191.68554688 214.54931641 C189.15549997 214.59956721 186.62574293 214.66778278 184.09667969 214.75439453 C180.45695605 214.87590926 176.82107103 214.93244602 173.1796875 214.9765625 C171.48717361 215.05398178 171.48717361 215.05398178 169.76046753 215.13296509 C166.55081582 215.13525075 164.04373919 215.02694753 161 214 C158.17099444 211.01078283 156.62509622 207.7501429 155 204 C154.41395996 202.95295898 153.82791992 201.90591797 153.22412109 200.82714844 C152.74539551 199.9302832 152.26666992 199.03341797 151.7734375 198.109375 C151.22300781 197.08191162 150.67257812 196.05444824 150.10546875 194.99584961 C149.53441406 193.92471924 148.96335937 192.85358887 148.375 191.75 C147.13324618 189.43336124 145.89105172 187.11695862 144.6484375 184.80078125 C144.03323242 183.65303223 143.41802734 182.5052832 142.78417969 181.32275391 C134.11033843 165.16908949 125.20276784 149.14970666 116.20825195 133.17285156 C115.44345294 131.79748054 114.70378448 130.40756896 114 129 C113.67 157.05 113.34 185.1 113 214 C75.71 214 38.42 214 0 214 C0 143.38 0 72.76 0 0 Z " fill="#000000" transform="translate(637,2)"/>
<path d="M0 0 C46.53 0 93.06 0 141 0 C145.29 7.92 149.58 15.84 154 24 C158.78136178 32.48918301 158.78136178 32.48918301 163.5859375 40.96484375 C167.43175316 47.74538573 171.21848406 54.55848287 175 61.375 C175.93465088 63.0597644 175.93465088 63.0597644 176.88818359 64.77856445 C178.05592418 66.88445865 179.22341924 68.99048902 180.390625 71.09667969 C182.59092163 75.0660255 184.79499116 79.03327039 187 83 C191.51179869 76.52537349 195.36971824 69.84357188 199.0625 62.875 C203.46643273 54.6513621 207.94732167 46.4820121 212.5625 38.375 C217.51756248 29.666239 222.3630976 20.90388819 227.13110352 12.09130859 C227.59572998 11.23359863 228.06035645 10.37588867 228.5390625 9.4921875 C228.94334473 8.74308105 229.34762695 7.99397461 229.76416016 7.22216797 C230.1719873 6.48885254 230.57981445 5.75553711 231 5 C231.60396717 3.71235355 231.60396717 3.71235355 232.22013569 2.39869404 C234 -0 234 -0 236.57119274 -0.61523914 C237.60820985 -0.61063018 238.64522696 -0.60602121 239.71366882 -0.60127258 C240.90171206 -0.60816007 242.08975531 -0.61504755 243.31379986 -0.62214375 C244.62394464 -0.6041532 245.93408941 -0.58616266 247.28393555 -0.56762695 C248.69603564 -0.56609546 250.10813956 -0.56676244 251.52023792 -0.56945324 C255.30568952 -0.57058318 259.09035263 -0.54158278 262.87561798 -0.50640106 C266.42609676 -0.47794855 269.97638271 -0.47658681 273.52697754 -0.47302246 C283.91392302 -0.44677453 294.30072143 -0.37696879 304.6875 -0.3125 C327.890625 -0.209375 351.09375 -0.10625 375 0 C375 70.62 375 141.24 375 214 C337.38 214 299.76 214 261 214 C260.67 186.28 260.34 158.56 260 130 C258.02 133.96 256.04 137.92 254 142 C252.36082111 144.85856807 250.7099315 147.6861714 249 150.5 C246.22621914 155.13849459 243.53805925 159.75344821 241.1875 164.625 C237.80206828 171.61644398 233.89430809 178.30435189 230.04663086 185.04785156 C225.86926922 192.39521682 221.86538344 199.81714687 217.98339844 207.32446289 C215.09009837 212.90990163 215.09009837 212.90990163 214 214 C206.66689978 214.83325389 199.20159874 214.8288546 191.82983398 215.00927734 C189.33317307 215.08596824 186.83728048 215.19497577 184.34350586 215.33740234 C164.36379042 216.45542723 164.36379042 216.45542723 158.98773193 212.53112793 C155.56908477 208.64226947 153.70039214 204.14857857 151.91061401 199.33782959 C150.48897515 195.68804015 148.55916863 192.35296905 146.65625 188.9375 C145.96083539 187.62374694 145.269827 186.30765202 144.58325195 184.98925781 C138.99341567 174.2817517 133.37117788 163.63348844 127.12866211 153.28808594 C124.23812991 148.4821561 121.67416372 143.57287942 119.25390625 138.515625 C117.96973018 135.93927176 116.48106021 133.46843368 115 131 C114.67 158.39 114.34 185.78 114 214 C76.38 214 38.76 214 0 214 C0 143.38 0 72.76 0 0 Z " fill="#000000" transform="translate(1026,2)"/>
<path d="M0 0 C0.87240635 -0.00384115 1.74481269 -0.00768229 2.6436556 -0.01163983 C4.09778664 -0.01034011 4.09778664 -0.01034011 5.58129406 -0.00901413 C6.60273689 -0.01198525 7.62417972 -0.01495637 8.67657536 -0.01801753 C12.12799259 -0.02674688 15.57937531 -0.02821637 19.03080273 -0.02970505 C21.49420783 -0.03433046 23.95761221 -0.03935474 26.42101574 -0.04475021 C33.13642545 -0.05790839 39.85182154 -0.06436311 46.56724095 -0.06876087 C50.762287 -0.07152166 54.95733074 -0.07575894 59.15237522 -0.08026505 C70.77006193 -0.09246526 82.38774678 -0.10276018 94.00543976 -0.10614014 C94.74972393 -0.1063597 95.49400809 -0.10657927 96.26084633 -0.10680549 C97.37995625 -0.10713291 97.37995625 -0.10713291 98.52167445 -0.10746694 C100.03350628 -0.1079104 101.5453381 -0.10835696 103.05716991 -0.10880661 C103.80709161 -0.10902804 104.55701331 -0.10924947 105.3296599 -0.10947761 C117.45918757 -0.11341873 129.5886549 -0.13084838 141.7181593 -0.15416613 C154.175508 -0.1779202 166.63282651 -0.19034398 179.09019822 -0.19150805 C186.08260769 -0.19242302 193.07493875 -0.19812931 200.06732655 -0.21632767 C206.65249406 -0.23340543 213.23753958 -0.23495091 219.82273197 -0.22618866 C222.23491978 -0.22541953 224.64711565 -0.22974453 227.05928326 -0.23964691 C250.56709523 -0.33045745 250.56709523 -0.33045745 259.97489452 3.13142776 C260.64060624 3.37400188 261.30631796 3.616576 261.99220276 3.86650085 C279.05840776 10.74374241 289.87916655 24.10436729 296.91239452 40.63142776 C297.62675755 42.45446173 298.31534088 44.28785614 298.97489452 46.13142776 C299.32423046 47.08275589 299.6735664 48.03408401 300.03348827 49.01424026 C301.0897335 52.51168298 301.62936926 55.88413012 302.09989452 59.50642776 C302.26747265 60.75166214 302.43505077 61.99689651 302.60770702 63.27986526 C303.99662381 77.84871586 300.95769534 91.84009185 294.97489452 105.13142776 C294.29426952 106.67443558 294.29426952 106.67443558 293.59989452 108.24861526 C287.06117217 122.21447332 277.37394192 133.20528921 262.97489452 139.13142776 C261.64989395 139.49647894 260.3183936 139.8417743 258.97489452 140.13142776 C259.59235546 140.79787308 260.2098164 141.46431839 260.84598827 142.15095901 C265.95901176 147.71536053 270.87702012 153.36739279 275.62723827 159.24861526 C278.20304485 162.41158573 280.83186882 165.52467326 283.47489452 168.63142776 C286.81119384 172.55526955 290.10760928 176.50404634 293.34989452 180.50642776 C296.97216464 184.95961289 300.70399498 189.30453094 304.47489452 193.63142776 C308.45244856 198.20297558 312.41096038 202.78610217 316.28739452 207.44392776 C317.00540234 208.30631058 317.72341015 209.16869339 318.46317577 210.05720901 C319.97489452 212.13142776 319.97489452 212.13142776 319.97489452 214.13142776 C300.34699703 214.43561655 280.71958015 214.66459773 261.08981133 214.804986 C251.97444918 214.87191533 242.8605546 214.96309411 233.74613476 215.11214066 C225.79837196 215.24204668 217.85167215 215.32566035 209.90287715 215.3545782 C205.6964805 215.37147473 201.49312363 215.41093382 197.28770542 215.5059185 C193.32138247 215.5947695 189.35932209 215.62126769 185.39209843 215.60182762 C183.94356807 215.60537831 182.49488209 215.63090262 181.04721737 215.68109894 C170.45370438 216.03012239 170.45370438 216.03012239 166.32982183 212.871351 C163.17941304 209.80211516 160.59906407 206.37688832 158.11371577 202.75948751 C156.40593219 200.31803876 154.50313745 198.04673909 152.59989452 195.75642776 C151.88188671 194.87341995 151.1638789 193.99041214 150.42411327 193.08064651 C147.47417165 189.52848396 144.44744783 186.04834689 141.41239452 182.56892776 C127.4376255 166.51962069 127.4376255 166.51962069 125.97489452 162.13142776 C125.31489452 162.13142776 124.65489452 162.13142776 123.97489452 162.13142776 C122.65489452 160.48142776 121.33489452 158.83142776 119.97489452 157.13142776 C119.64489452 175.94142776 119.31489452 194.75142776 118.97489452 214.13142776 C78.05489452 214.13142776 37.13489452 214.13142776 -5.02510548 214.13142776 C-5.06540851 160.75677611 -5.06540851 160.75677611 -5.0739336 138.46541214 C-5.07987738 123.04703312 -5.08688122 107.62865955 -5.10054493 92.21028519 C-5.11048947 80.98336866 -5.11695835 69.75645652 -5.11919397 58.52953571 C-5.12050147 52.5809814 -5.12358979 46.63243968 -5.13083553 40.68388939 C-5.13759213 35.09193584 -5.13972318 29.50000015 -5.13821316 23.90804291 C-5.13848965 21.84922628 -5.1404969 19.7904091 -5.14431095 17.73159599 C-5.14924257 14.93370361 -5.14810574 12.13587977 -5.14535999 9.33798599 C-5.14827283 8.51212685 -5.15118568 7.6862677 -5.15418679 6.83538252 C-5.1359158 0.00843876 -5.1359158 0.00843876 0 0 Z M118.97489452 52.13142776 C118.97489452 67.31142776 118.97489452 82.49142776 118.97489452 98.13142776 C124.39926952 98.17267776 129.82364452 98.21392776 135.41239452 98.25642776 C137.95204906 98.28373978 137.95204906 98.28373978 140.54300976 98.31160355 C156.20129224 98.41835954 156.20129224 98.41835954 169.09208202 90.22127151 C174.07787488 84.68724832 175.33341463 78.61012398 175.18192577 71.31111526 C174.62124352 65.40808322 173.08390187 60.70901931 168.59989452 56.69392776 C162.88145076 52.11133927 157.57705101 51.852097 150.51786327 51.93611526 C149.71691235 51.93812943 148.91596142 51.94014359 148.09073925 51.94221878 C145.11456562 51.95263926 142.13847399 51.98056175 139.16239452 52.00642776 C132.50051952 52.04767776 125.83864452 52.08892776 118.97489452 52.13142776 Z " fill="#000000" transform="translate(1669.0251054763794,1.8685722351074219)"/>
<path d="M0 0 C40.59 0 81.18 0 123 0 C123 26.73 123 53.46 123 81 C141.48 81 159.96 81 179 81 C179 54.27 179 27.54 179 0 C219.92 0 260.84 0 303 0 C303 70.62 303 141.24 303 214 C262.08 214 221.16 214 179 214 C179 186.94 179 159.88 179 132 C160.52 132 142.04 132 123 132 C123 159.06 123 186.12 123 214 C82.41 214 41.82 214 0 214 C0 143.38 0 72.76 0 0 Z " fill="#000000" transform="translate(0,2)"/>
<path d="M0 0 C40.92 0 81.84 0 124 0 C124.02578125 10.62832031 124.0515625 21.25664062 124.078125 32.20703125 C124.10329654 38.94728396 124.12946948 45.68750825 124.16015625 52.42773438 C124.20865907 63.12198681 124.25311735 73.81614469 124.27099609 84.51049805 C124.28403761 92.30013795 124.31106578 100.08958498 124.35461307 107.87911624 C124.37717191 112.00039318 124.39291405 116.12143272 124.39188385 120.24277687 C124.39113391 124.12940448 124.40921699 128.01550843 124.44116783 131.90200043 C124.44962108 133.32124375 124.45144816 134.74054612 124.44580269 136.15980339 C124.40665281 147.52392357 125.74944423 157.87323856 133.97265625 166.33984375 C140.70102443 171.84958648 148.10606297 172.67003907 156.59765625 172.375 C163.62072831 171.60093006 168.91129824 169.54811894 173.875 164.4375 C180.90682386 155.16353177 181.5908345 145.37030407 181.54589844 134.07348633 C181.55465159 132.60389115 181.56514339 131.13430547 181.57722473 129.66473389 C181.60489258 125.70882281 181.60849371 121.75322565 181.60750484 117.79723191 C181.61065062 113.65053304 181.6363032 109.50397213 181.65948486 105.35734558 C181.69992161 97.52016009 181.72035646 89.68305756 181.73345876 81.84578389 C181.74937074 72.91696682 181.78780388 63.98829006 181.82805204 55.0595547 C181.91028214 36.70641426 181.96447955 18.35328732 182 0 C198.01993537 -0.02332916 214.03986526 -0.04097926 230.0598135 -0.05181217 C237.4976451 -0.05697509 244.93546617 -0.06401771 252.37329102 -0.07543945 C258.85381342 -0.08538641 265.33432819 -0.09185346 271.81485802 -0.09408849 C275.24830542 -0.09539558 278.681731 -0.0984813 282.11517143 -0.10573006 C285.94193821 -0.11374416 289.76868335 -0.11399113 293.59545898 -0.11352539 C294.74200455 -0.11712067 295.88855011 -0.12071594 297.06983948 -0.12442017 C298.6243129 -0.12235817 298.6243129 -0.12235817 300.21018982 -0.12025452 C301.11631232 -0.12117631 302.02243483 -0.1220981 302.95601559 -0.12304783 C305 0 305 0 306 1 C306.10091425 2.87345444 306.13077105 4.75075455 306.13371277 6.62692261 C306.13797775 7.84928116 306.14224274 9.07163971 306.14663696 10.33103943 C306.14628738 11.69839481 306.14582581 13.06575016 306.14526367 14.43310547 C306.14825382 15.86366362 306.15165601 17.29422096 306.15544128 18.72477722 C306.1643073 22.62409685 306.16662068 26.52339456 306.16725707 30.42272329 C306.16820539 33.6800043 306.1718834 36.93728018 306.17542917 40.19455922 C306.18358609 47.88849783 306.18601254 55.58242474 306.18530273 63.27636719 C306.18470385 71.19747699 306.19521488 79.11851826 306.2110464 87.03961074 C306.22416184 93.84569457 306.22948485 100.65175613 306.22884732 107.45785248 C306.22859321 111.51983742 306.23139567 115.58176168 306.24202538 119.64373398 C306.25177204 123.47355934 306.25174094 127.30326696 306.24450874 131.13309669 C306.24347051 132.53140372 306.24577998 133.92971832 306.2518692 135.32801247 C306.33961773 156.8934984 300.37573479 174.73140491 285.43359375 190.65625 C266.68882494 208.70899684 242.35828326 214.31011886 217.15991211 214.29052734 C215.60277998 214.29652605 214.04565079 214.30333463 212.48852539 214.31088257 C208.29179691 214.32841706 204.0951502 214.33323271 199.89838862 214.33451414 C197.26558462 214.33594389 194.63280085 214.34022901 192.00000191 214.34550858 C182.7839236 214.36397003 173.56790283 214.37218441 164.35180664 214.37060547 C155.81195665 214.36940635 147.27236031 214.39047354 138.7325744 214.4220928 C131.35968545 214.44840157 123.98687858 214.45896664 116.61394316 214.45769465 C112.22874825 214.45718912 107.84377893 214.46264178 103.45863152 214.48405075 C72.24813382 214.62565918 44.44905198 212.72739478 20.41796875 190.41015625 C6.75940117 176.79571974 -0.41588275 159.92394721 -0.49768066 140.61199951 C-0.48353438 139.22716892 -0.4689953 137.84234229 -0.45410156 136.45751953 C-0.4529699 134.95793692 -0.45361315 133.45835209 -0.45587158 131.95877075 C-0.45700724 127.93473447 -0.43368701 123.91118674 -0.40557575 119.88726282 C-0.38036785 115.6646038 -0.37820496 111.44193042 -0.37347412 107.21920776 C-0.36110078 99.24389154 -0.3283566 91.26879778 -0.28807616 83.29357898 C-0.23476745 72.50185464 -0.21336733 61.71006836 -0.19006729 50.91824532 C-0.15259027 33.94533065 -0.07286237 16.97288513 0 0 Z " fill="#000000" transform="translate(318,2)"/>
<path d="M0 0 C78.87 0 157.74 0 239 0 C239 20.13 239 40.26 239 61 C202.37 61 165.74 61 128 61 C128 67.6 128 74.2 128 81 C164.63 81 201.26 81 239 81 C239 97.83 239 114.66 239 132 C202.37 132 165.74 132 128 132 C128.33 138.93 128.66 145.86 129 153 C132.29669678 152.99476318 135.59339355 152.98952637 138.98999023 152.98413086 C149.85455474 152.96759745 160.71911978 152.95652978 171.5836935 152.94818783 C178.17404785 152.94295828 184.76438937 152.93585933 191.35473633 152.92456055 C197.70892018 152.91373422 204.06309165 152.90772371 210.41728401 152.90512276 C212.84749611 152.90326805 215.27770749 152.89964657 217.70791435 152.89426994 C221.09882981 152.88706289 224.48969341 152.88600892 227.88061523 152.88647461 C228.89625046 152.88287933 229.91188568 152.87928406 230.95829773 152.87557983 C231.87681519 152.8769545 232.79533264 152.87832916 233.74168396 152.87974548 C234.54456565 152.87882369 235.34744734 152.8779019 236.17465878 152.87695217 C238 153 238 153 239 154 C239 173.8 239 193.6 239 214 C160.13 214 81.26 214 0 214 C0 143.38 0 72.76 0 0 Z " fill="#000000" transform="translate(1412,2)"/>
<path d="M0 0 C5.2001799 2.36014216 8.51901892 5.87655385 11 11 C11.79478726 17.12200996 11.93850038 22.98396215 9.3125 28.625 C4.56107642 33.50484044 0.25691021 37.263425 -6.75 37.375 C-11.93344498 37.26032201 -15.78193991 36.01708465 -20 33 C-25.3251532 27.39457558 -26.57571414 22.73636877 -26.4453125 15.1171875 C-25.73714308 10.16000153 -23.58038822 6.46988241 -20 3 C-13.60226609 -0.93568462 -7.31219826 -1.0338798 0 0 Z M-13 5 C-13.33 5.66 -13.66 6.32 -14 7 C-13.08476563 7.03738281 -12.16953125 7.07476562 -11.2265625 7.11328125 C-10.03804687 7.17902344 -8.84953125 7.24476562 -7.625 7.3125 C-6.44164062 7.37050781 -5.25828125 7.42851563 -4.0390625 7.48828125 C-2.53472656 7.74158203 -2.53472656 7.74158203 -1 8 C1 11 1 11 0.75 14.4375 C0.13121575 17.3767252 -0.47419143 19.45698571 -2 22 C-0.02 24.97 -0.02 24.97 2 28 C5.34916507 24.94206668 5.9363898 22.7760444 6.3125 18.1875 C6.25622504 13.8141315 4.82644126 11.37602706 2 8 C-1.24083914 4.98658816 -3.37275448 4.6561698 -7.75 4.8125 C-9.22726562 4.85310547 -9.22726562 4.85310547 -10.734375 4.89453125 C-11.85585937 4.94673828 -11.85585937 4.94673828 -13 5 Z M-16 7 C-19.86529052 11.4509406 -20.57045188 14.79286855 -20.33203125 20.65625 C-19.90248217 23.68836115 -18.96423161 25.65803154 -17 28 C-16.34 28.33 -15.68 28.66 -15 29 C-15 21.74 -15 14.48 -15 7 C-15.33 7 -15.66 7 -16 7 Z M-10 12 C-10 13.32 -10 14.64 -10 16 C-6.535 15.505 -6.535 15.505 -3 15 C-3.33 14.01 -3.66 13.02 -4 12 C-5.98 12 -7.96 12 -10 12 Z M-10 21 C-10.12375 22.27875 -10.2475 23.5575 -10.375 24.875 C-10.75 28.75 -10.75 28.75 -13 31 C-6.71148966 32.29616272 -6.71148966 32.29616272 -1 30 C-1.598125 29.2575 -2.19625 28.515 -2.8125 27.75 C-4.12758359 26.09675206 -5.41042523 24.41593332 -6.625 22.6875 C-7.07875 22.130625 -7.5325 21.57375 -8 21 C-8.66 21 -9.32 21 -10 21 Z " fill="#000000" transform="translate(1989,0)"/>
</svg>
