<?xml version="1.0" encoding="UTF-8"?>
<svg version="1.1" xmlns="http://www.w3.org/2000/svg" width="2000" height="334">
<path d="M0 0 C0.99261605 -0.00384115 1.9852321 -0.00768229 3.00792742 -0.01163983 C4.10652574 -0.01077335 5.20512406 -0.00990687 6.33701324 -0.00901413 C7.49800144 -0.01198525 8.65898963 -0.01495637 9.85515928 -0.01801753 C13.0881497 -0.02521333 16.32110782 -0.02787807 19.55410504 -0.028615 C23.03775204 -0.03046285 26.52138745 -0.03800938 30.00502777 -0.04475021 C37.63190616 -0.05835168 45.2587793 -0.06436259 52.8856678 -0.06876087 C57.65281155 -0.07152326 62.41995327 -0.0757609 67.18709564 -0.08026505 C80.39609652 -0.0924658 93.60509578 -0.10275979 106.81410217 -0.10614014 C108.08326127 -0.10646949 108.08326127 -0.10646949 109.37805995 -0.10680549 C110.22617556 -0.10702377 111.07429116 -0.10724204 111.94810724 -0.10746694 C113.66665046 -0.1079104 115.38519367 -0.10835696 117.10373688 -0.10880661 C118.38241765 -0.10913875 118.38241765 -0.10913875 119.68693036 -0.10947761 C133.46453527 -0.1134159 147.24208698 -0.13083659 161.01967138 -0.15416613 C175.1788791 -0.17794708 189.33806023 -0.19034524 203.49728823 -0.19150805 C211.44114098 -0.19242165 219.38492463 -0.1980929 227.32875824 -0.21632767 C234.1021076 -0.23182068 240.87536655 -0.23679585 247.64873028 -0.22858956 C251.09804611 -0.22471374 254.54718045 -0.22545951 257.99647331 -0.23964691 C289.37755642 -0.34676118 320.41357611 3.76057189 343.92014313 26.68123245 C359.32724484 42.61961353 366.14777683 63.78400696 366.5719986 85.63142776 C366.04047708 110.1109464 357.89424369 130.08587121 340.3219986 147.13142776 C336.84146566 150.15427594 333.22737347 152.68619305 329.3219986 155.13142776 C328.26367828 155.81334183 327.20535797 156.49525589 326.11496735 157.19783401 C312.63416299 165.33614301 297.16937024 169.47912448 282.2673111 174.23054886 C275.56936387 176.36739819 268.88352892 178.54120192 262.1969986 180.71345901 C234.5501017 189.68492066 206.86178261 198.52135597 179.13816071 207.2530098 C161.0234587 212.95836069 142.91958238 218.69700711 124.82170868 224.45548248 C122.74908445 225.11485741 120.67636625 225.77393601 118.60361481 226.43291092 C117.27373548 226.85575802 115.94386076 227.27861961 114.61399078 227.70149612 C113.96132484 227.90903047 113.30865891 228.11656481 112.63621521 228.33038807 C109.40978414 229.35675558 106.18393221 230.38488808 102.95920563 231.41659927 C101.68528001 231.8241468 100.41135423 232.23169379 99.13742828 232.63924026 C98.50718498 232.84091781 97.87694168 233.04259535 97.2276001 233.25038433 C93.08436437 234.57420836 88.93629154 235.88184953 84.78531456 237.18118668 C81.89908663 238.08612995 79.01520885 238.99841388 76.13167953 239.91191483 C74.75534224 240.34600988 73.37797007 240.77683881 71.99953079 241.20421219 C70.09476149 241.79515558 68.19387076 242.39855726 66.29319 243.00252151 C65.20986389 243.34210892 64.12653778 243.68169632 63.01038361 244.03157425 C60.37468713 245.1098722 58.94795001 245.80786447 57.3219986 248.13142776 C57.39778815 251.74605562 57.39778815 251.74605562 58.3219986 255.13142776 C60.77049435 256.35567564 62.34943124 256.25849641 65.08760929 256.26171303 C66.09970921 256.26533738 67.11180913 256.26896172 68.15457875 256.2726959 C69.83503054 256.27109352 69.83503054 256.27109352 71.54943085 256.26945877 C73.32493959 256.27369069 73.32493959 256.27369069 75.13631719 256.2780081 C78.43229612 256.28492289 81.72822578 256.28738155 85.02420843 256.28805923 C88.57516897 256.2898956 92.12611724 256.29750074 95.67707062 256.30453873 C101.83484049 256.31607705 107.99260762 256.32431491 114.1503849 256.33065796 C123.88586613 256.34097605 133.62131312 256.36153857 143.35677338 256.38377762 C146.68668831 256.3912579 150.01660339 256.39867159 153.34651852 256.40606499 C154.1787899 256.40791555 155.01106128 256.40976612 155.868553 256.41167276 C165.34806734 256.43261077 174.82758547 256.45143264 184.30710602 256.46931839 C185.60727167 256.47177566 185.60727167 256.47177566 186.9337033 256.47428258 C200.96955266 256.50054847 215.00540466 256.5192015 229.04126818 256.53591029 C243.45019398 256.55334019 257.85906824 256.58219708 272.26795286 256.62079966 C281.15539648 256.64418393 290.04275604 256.65819282 298.93023067 256.6601273 C305.02516806 256.66223913 311.12002195 256.67518892 317.21492184 256.69660662 C320.72993699 256.70861661 324.24478638 256.71579978 327.75982094 256.70989418 C331.57528888 256.70600002 335.39026796 256.72045366 339.20568085 256.73942947 C340.31036699 256.73389978 341.41505313 256.72837008 342.55321461 256.72267282 C349.20766183 256.77976412 356.67459384 256.94359897 361.94263798 261.54786527 C365.54319366 265.68145069 366.44416506 269.00051667 366.48313141 274.33382034 C366.49273895 275.39534821 366.5023465 276.45687607 366.51224518 277.55057144 C366.51862 279.27088829 366.51862 279.27088829 366.5251236 281.02595901 C366.53082367 282.20607056 366.53652374 283.3861821 366.54239655 284.6020546 C366.55184896 287.10117572 366.55838148 289.60030931 366.56223297 292.09944534 C366.57193342 295.91827078 366.60295336 299.73655692 366.6344986 303.55525589 C366.6410292 305.98298707 366.64627944 308.4107221 366.6501236 310.83845901 C366.6624704 311.97926422 366.6748172 313.12006943 366.68753815 314.29544449 C366.6716561 319.96317687 366.64339304 324.29493283 363.3219986 329.13142776 C358.75088309 333.4681271 355.31220472 334.25439694 349.16478348 334.26285553 C348.1161512 334.26669667 347.06751892 334.27053782 345.9871099 334.27449536 C344.83617481 334.27362888 343.68523971 334.2727624 342.4994278 334.27186966 C340.66372707 334.27632634 340.66372707 334.27632634 338.79094148 334.28087306 C335.39162124 334.28805454 331.99235155 334.2907325 328.59302735 334.29147053 C324.92661362 334.29332189 321.26021082 334.30087027 317.59380341 334.30760574 C309.56995895 334.32119379 301.54611948 334.32721625 293.52226543 334.3316164 C288.50346458 334.33438147 283.48466565 334.33861964 278.46586609 334.34312057 C264.54993943 334.35532036 250.63401432 334.36561404 236.71808243 334.36899567 C235.8270742 334.36921523 234.93606596 334.3694348 234.01805748 334.36966102 C233.12497166 334.3698793 232.23188585 334.37009757 231.31173682 334.37032247 C229.50216913 334.37076592 227.69260144 334.37121248 225.88303375 334.37166214 C224.98543493 334.37188357 224.08783611 334.372105 223.16303733 334.37233314 C208.66536318 334.37626895 194.16773968 334.39368241 179.67008504 334.41702166 C164.75819689 334.44083197 149.846334 334.45320212 134.93442655 334.45436358 C126.5734642 334.45527563 118.21256761 334.46090697 109.85162354 334.4791832 C102.72056898 334.49471624 95.58960042 334.49962846 88.45853212 334.49144509 C84.83023885 334.48758287 81.20211799 334.48824557 77.57384682 334.50250244 C47.91922848 334.61211098 19.54722913 333.03475261 -6.6780014 318.13142776 C-7.55069672 317.63771683 -8.42339203 317.14400589 -9.32253265 316.63533401 C-25.29680969 306.75981774 -35.08154493 290.51235528 -39.4905014 272.56892776 C-43.9136928 248.05180972 -41.66877049 220.60335556 -27.4748764 199.61580276 C-15.75386842 183.4102352 1.46133619 173.50681363 20.02121735 166.81111526 C20.83750107 166.5139209 21.65378479 166.21672653 22.49480438 165.91052628 C32.26546275 162.38490088 42.13069367 159.15105358 52.0094986 155.94392776 C53.04299438 155.60717026 54.07649017 155.27041275 55.14130402 154.92345047 C74.67644506 148.56171326 94.27995573 142.42215356 113.8975296 136.32069778 C137.60496284 128.94708794 161.2639512 121.42870373 184.90634918 113.84932327 C189.39227705 112.41123885 193.87844997 110.97392206 198.36496735 109.53767776 C199.08884266 109.30594612 199.81271797 109.07421448 200.5585289 108.83546066 C210.50477009 105.65316142 220.46254498 102.51101178 230.43527985 99.41267776 C231.58189087 99.05627716 232.72850189 98.69987656 233.9098587 98.33267593 C239.15613692 96.70379751 244.40446498 95.08195396 249.65598297 93.47005081 C251.45743511 92.91323026 253.2588687 92.35634968 255.06027985 91.79939651 C256.26869286 91.43237625 256.26869286 91.43237625 257.50151825 91.05794144 C260.8071386 90.0325011 263.42163891 89.06500089 266.3219986 87.13142776 C267.48802113 84.21637143 267.52659917 82.04254581 266.3219986 79.13142776 C263.48643092 78.18623854 261.75226356 78.0049132 258.8153944 78.0011425 C257.42211014 77.99570598 257.42211014 77.99570598 256.00067872 77.99015963 C254.97851771 77.99122788 253.95635671 77.99229614 252.90322113 77.99339676 C251.81866632 77.99057548 250.73411152 77.9877542 249.61669141 77.98484743 C245.96400997 77.97648055 242.31135877 77.97516139 238.65866852 77.97371292 C236.04730392 77.96904627 233.43594013 77.96390296 230.82457733 77.9583168 C225.19174809 77.94678696 219.55892184 77.93854482 213.92608452 77.93219757 C205.02306772 77.92187535 196.1200883 77.90131278 187.21709442 77.87907791 C184.17166818 77.87159806 181.12624177 77.86418435 178.08081532 77.85679054 C177.31970721 77.85493998 176.5585991 77.85308941 175.77442711 77.85118277 C167.10889142 77.830252 158.44335161 77.81142549 149.77780914 77.79353714 C148.98557598 77.79189896 148.19334282 77.79026078 147.37710259 77.78857295 C134.5388313 77.76228816 121.70055713 77.74364466 108.86227032 77.72694524 C95.68390789 77.70952648 82.50560194 77.68068353 69.32728463 77.64205587 C61.19752026 77.61865308 53.06784797 77.60466105 44.93804965 77.60272823 C38.70815606 77.60037019 32.47839564 77.58250736 26.24854851 77.55885887 C23.69194717 77.55164952 21.13532553 77.54957278 18.57871628 77.55296135 C15.09285314 77.55684407 11.60752941 77.54243946 8.12172699 77.52342606 C7.10625815 77.52895575 6.09078931 77.53448545 5.04454869 77.54018271 C-1.45612881 77.47883305 -5.63116435 76.41655556 -10.9280014 72.44392776 C-15.47850471 66.43076269 -14.98547797 58.36885691 -14.97878265 51.16658401 C-14.98306778 50.1338385 -14.98735291 49.10109299 -14.99176788 48.03705215 C-14.99748566 45.86287033 -14.99803038 43.68866939 -14.99367523 41.51448441 C-14.99051431 38.20742739 -15.0140106 34.90126515 -15.03932953 31.59431839 C-15.04160284 29.47257472 -15.04230587 27.35082866 -15.04128265 25.22908401 C-15.0504924 24.25069061 -15.05970215 23.27229721 -15.06919098 22.26425552 C-15.02863106 16.17911954 -14.38817409 10.6587993 -11.6780014 5.13142776 C-7.85006112 1.39685188 -5.26076653 0.00761334 0 0 Z " fill="#ED1C24" transform="translate(1174.6780014038086,-0.13142776489257813)"/>
<path d="M0 0 C1.76828048 -0.00679667 1.76828048 -0.00679667 3.5722838 -0.01373065 C6.80362385 -0.02410775 10.03482185 -0.02571671 13.26617301 -0.02334189 C16.76644862 -0.02293027 20.26669221 -0.0340048 23.76695251 -0.04345703 C30.60589332 -0.05998716 37.44479963 -0.06556273 44.28375875 -0.06668179 C49.84165918 -0.06763507 55.3995483 -0.07175923 60.95744514 -0.07808304 C76.73212162 -0.0956654 92.50677101 -0.10492539 108.28145736 -0.10342209 C109.12979851 -0.10334218 109.97813965 -0.10326227 110.85218811 -0.10317993 C112.1262597 -0.10305729 112.1262597 -0.10305729 113.4260701 -0.10293217 C127.2175712 -0.10211776 141.0089635 -0.12130216 154.80043309 -0.14945666 C168.97801697 -0.17817048 183.15554771 -0.19199813 197.33316141 -0.19026911 C205.28654595 -0.1896052 213.23981606 -0.19509928 221.19317436 -0.21662521 C227.95711029 -0.23481613 234.72087976 -0.23920081 241.48482954 -0.22560637 C244.93480876 -0.21906907 248.38446837 -0.21898705 251.83441734 -0.23631287 C255.57381874 -0.25168232 259.31237542 -0.24251129 263.05175781 -0.22705078 C264.14211537 -0.23733791 265.23247292 -0.24762503 266.35587162 -0.25822389 C272.42163395 -0.20263714 275.96245496 0.21730427 280.58143616 4.26742554 C284.01998777 8.18026013 284.70583287 11.43798611 284.74256897 16.56161499 C284.75217651 17.6431636 284.76178406 18.72471222 284.77168274 19.83903503 C284.77805756 21.59216255 284.77805756 21.59216255 284.78456116 23.38070679 C284.79026123 24.58301437 284.7959613 25.78532196 284.80183411 27.02406311 C284.81128691 29.57026285 284.8178192 32.11647484 284.82167053 34.66268921 C284.83137137 38.55393887 284.86239115 42.44465936 284.89393616 46.33578491 C284.9004667 48.80908907 284.90571697 51.282397 284.90956116 53.75570679 C284.92190796 54.91838577 284.93425476 56.08106476 284.94697571 57.27897644 C284.9190062 67.44687848 284.9190062 67.44687848 281.58143616 72.26742554 C277.53600514 76.00944923 274.51652302 77.3907338 269.05083466 77.3977108 C268.11664499 77.40133515 267.18245532 77.4049595 266.21995687 77.40869367 C265.19185856 77.40762542 264.16376025 77.40655717 263.10450745 77.40545654 C262.01375239 77.40827782 260.92299733 77.4110991 259.79918909 77.41400588 C256.12568622 77.42237276 252.45221341 77.4236919 248.77870178 77.42514038 C246.15261754 77.42980695 243.52653411 77.43495025 240.90045166 77.4405365 C235.23651291 77.45206556 229.57257715 77.46030797 223.90863037 77.46665573 C214.96023084 77.47697475 206.01186853 77.49753563 197.06349182 77.51977539 C194.00327313 77.5272551 190.94305429 77.5346688 187.88283539 77.54206276 C187.11805708 77.54391333 186.35327876 77.54576389 185.56532535 77.54767054 C176.85862241 77.56860014 168.15191537 77.58742817 159.44520569 77.60531616 C158.64919498 77.60695434 157.85318427 77.60859253 157.03305203 77.61028035 C144.12485549 77.63658225 131.21665609 77.65521659 118.30844408 77.67190807 C105.0634255 77.68931211 91.81846326 77.71813789 78.57348967 77.75679743 C70.39918791 77.78022829 62.22497798 77.79419476 54.05064237 77.79612507 C47.79205654 77.79847837 41.53360392 77.81631074 35.27506447 77.83999443 C32.70268998 77.8472187 30.13029524 77.84927339 27.55791283 77.84589195 C24.05786212 77.84202464 20.55835447 77.85636307 17.05836487 77.87542725 C16.03026656 77.86989755 15.00216825 77.86436785 13.94291544 77.85867059 C13.00872577 77.86751043 12.0745361 77.87635028 11.11203766 77.88545799 C10.30372041 77.88681452 9.49540317 77.88817105 8.66259146 77.88956869 C6.05612101 78.36280233 5.17106808 79.18181395 3.58143616 81.26742554 C2.99810282 83.76742554 2.99810282 83.76742554 3.58143616 86.26742554 C6.54244402 88.98327322 9.5573755 90.10932739 13.35389709 91.31015015 C14.53096725 91.68661179 15.70803741 92.06307343 16.92077637 92.45094299 C18.21906754 92.85739019 19.51741428 93.26365991 20.81581116 93.66976929 C22.18113533 94.1030222 23.54624788 94.53694249 24.91116333 94.97148132 C28.60868868 96.14637783 32.30927728 97.31133872 36.01051712 98.47447205 C39.12528946 99.45477179 42.2381426 100.44108527 45.35096836 101.42754555 C68.00422119 108.60636458 90.68724122 115.69068086 113.37556458 122.75775146 C134.39871768 129.30647963 155.38409863 135.966442 176.33583069 142.74081421 C178.59867376 143.47238729 180.86153175 144.20391426 183.12440491 144.93539429 C184.23358276 145.29401047 185.34276062 145.65262665 186.48554993 146.02210999 C194.4603887 148.59560617 202.44955494 151.1211581 210.44471741 153.63070679 C213.81318534 154.69244504 217.18139239 155.75500671 220.54951477 156.81784058 C222.64445026 157.47642249 224.74054765 158.13132355 226.83796692 158.7819519 C250.64908736 166.17007526 273.56812191 174.35148056 291.58143616 192.26742554 C292.20405334 192.85523804 292.82667053 193.44305054 293.46815491 194.04867554 C309.18599537 210.15504689 312.04567366 234.46991374 311.80018616 255.85336304 C311.1924678 277.41976835 303.15131608 296.38099713 287.58143616 311.26742554 C260.9674039 333.79354244 224.31697428 334.75163462 191.28194869 334.65959954 C187.59506983 334.65268753 183.90822982 334.66334828 180.22135925 334.67153931 C173.03932424 334.68474526 165.85738427 334.68206042 158.67534583 334.67330138 C152.83882403 334.66648172 147.00232857 334.66562641 141.16580391 334.66887283 C139.91231145 334.66956238 139.91231145 334.66956238 138.63349592 334.67026586 C136.93524185 334.67122515 135.23698778 334.67219779 133.53873373 334.67318363 C117.6926714 334.68169658 101.84666152 334.67196348 86.0006078 334.65578254 C72.41595228 334.64234095 58.83137355 334.64474687 45.24671936 334.65853882 C29.42478441 334.67459491 13.60289495 334.68091701 -2.21904701 334.67170203 C-3.90529787 334.67074646 -5.59154873 334.66980334 -7.27779961 334.66887283 C-8.10726033 334.66841001 -8.93672105 334.66794718 -9.79131695 334.66747033 C-15.62677417 334.66488366 -21.46220238 334.66924356 -27.29765511 334.67631149 C-34.39907959 334.68472514 -41.50040459 334.68244745 -48.60181767 334.66646926 C-52.22205875 334.65859121 -55.84213393 334.65548754 -59.46237373 334.66541672 C-63.38675264 334.67601775 -67.31086036 334.66335239 -71.23522949 334.64837646 C-72.37742606 334.65506863 -73.51962263 334.6617608 -74.69643122 334.66865575 C-81.87186986 334.61542713 -86.82304044 333.89118586 -92.73106384 329.57992554 C-97.15598291 323.51614755 -96.71433636 315.63568968 -96.68418884 308.45101929 C-96.68610229 307.43572647 -96.68801575 306.42043365 -96.68998718 305.37437439 C-96.69134178 303.23886872 -96.68769632 301.10335461 -96.67930603 298.96786499 C-96.66858519 295.71140969 -96.67923196 292.45550461 -96.69200134 289.19906616 C-96.69067984 287.11638266 -96.68811763 285.0336995 -96.68418884 282.95101929 C-96.6882373 281.98417709 -96.69228577 281.0173349 -96.69645691 280.02119446 C-96.65137153 273.48024898 -96.4068571 267.91848322 -92.35606384 262.51742554 C-85.10229475 256.96134709 -77.04927532 256.83024063 -68.21286011 256.86869812 C-66.40660411 256.85872788 -66.40660411 256.85872788 -64.56385809 256.84855622 C-61.24337108 256.83319595 -57.92336508 256.83107649 -54.60287726 256.83468568 C-51.01400853 256.8353118 -47.42521372 256.81866836 -43.83638 256.8041687 C-37.62577701 256.78141844 -31.41522997 256.76950377 -25.20458794 256.76503944 C-16.22516133 256.75856905 -7.24583571 256.73561606 1.73355012 256.70869615 C16.30351809 256.66546095 30.8734818 256.63547555 45.4434967 256.61386108 C59.59325758 256.5928416 73.74298362 256.56555804 87.89271545 256.52987671 C88.76554065 256.52767788 89.63836584 256.52547906 90.53764028 256.5232136 C94.91653771 256.51214371 99.29543482 256.50095094 103.67433178 256.4896971 C139.97666983 256.39655827 176.27902506 256.32493886 212.58143616 256.26742554 C213.56407299 251.82262188 213.56407299 251.82262188 212.44718933 247.51905823 C210.28386152 244.90830581 208.94008588 244.24614543 205.72938538 243.24130249 C204.73001953 242.9186441 203.73065369 242.59598572 202.70100403 242.2635498 C201.06013824 241.76466751 201.06013824 241.76466751 199.38612366 241.25570679 C198.23710571 240.89040863 197.08808777 240.52511047 195.9042511 240.14874268 C192.75399075 239.1509931 189.59943281 238.16979914 186.44194794 237.1953392 C183.08818064 236.15583178 179.74117863 235.09497722 176.39344788 234.03622437 C170.83905504 232.28236023 165.28108271 230.54034206 159.72010803 228.8074646 C152.27714586 226.48783721 144.84184483 224.14450003 137.40956116 221.79086304 C130.51146914 219.6072354 123.61315232 217.42439704 116.71180725 215.25106812 C103.6897476 211.15013214 90.67414211 207.02984318 77.66737366 202.88070679 C76.58813566 202.53646479 76.58813566 202.53646479 75.48709488 202.1852684 C68.1610432 199.84823966 60.83570692 197.50898353 53.51146889 195.16627693 C49.88920417 194.00781591 46.26666487 192.85021595 42.64393616 191.69320679 C41.93101788 191.46551731 41.21809959 191.23782784 40.48357773 191.00323868 C30.7528458 187.89730983 21.01043493 184.83128982 11.25540161 181.80257797 C9.28392621 181.19005161 7.31290563 180.57608537 5.34205627 179.96154785 C4.70363045 179.76249407 4.06520462 179.56344028 3.40743256 179.35835457 C2.77584984 179.16141439 2.14426712 178.96447422 1.49354553 178.76156616 C-3.27239433 177.27563243 -8.04227599 175.80350621 -12.81504822 174.33969116 C-35.87044701 167.19573476 -56.9030959 159.42664667 -74.41856384 142.26742554 C-75.11723572 141.60484741 -75.81590759 140.94226929 -76.53575134 140.25961304 C-90.81352816 125.64850291 -95.73106384 104.24785435 -95.73106384 84.45004272 C-95.37264268 61.84507182 -87.63097011 42.05394787 -72.04356384 25.51742554 C-61.35522335 15.45077823 -47.72749018 8.56211767 -33.73106384 4.39242554 C-33.09160828 4.20148315 -32.45215271 4.01054077 -31.7933197 3.81381226 C-21.35356293 0.92891893 -10.79363159 -0.0311052 0 0 Z " fill="#ED1C24" transform="translate(287.41856384277344,-0.267425537109375)"/>
<path d="M0 0 C0.79073914 -0.00671722 1.58147827 -0.01343445 2.3961792 -0.02035522 C5.0078359 -0.03933874 7.61923565 -0.04325959 10.23095703 -0.04541016 C12.04932765 -0.05183787 13.86769723 -0.05856621 15.68606567 -0.06558228 C19.49744057 -0.07755593 23.30872481 -0.08126301 27.12011719 -0.08007812 C31.99825593 -0.07987494 36.87581209 -0.10717642 41.75381279 -0.14162254 C45.50968076 -0.16388636 49.26540841 -0.16791583 53.0213356 -0.16685867 C54.81943901 -0.16921544 56.61754625 -0.17804323 58.41558456 -0.19352341 C60.9337185 -0.21317315 63.45059476 -0.20734994 65.96875 -0.1953125 C66.70765472 -0.20655151 67.44655945 -0.21779053 68.20785522 -0.22937012 C73.31026126 -0.16755291 76.16493503 1.11438445 80.11376953 4.29052734 C84.53856474 9.17305998 84.26047943 14.15697149 84.25180054 20.49116516 C84.25462182 21.32521116 84.2574431 22.15925716 84.26034987 23.01857728 C84.2686935 25.81797692 84.27003396 28.61733699 84.27148438 31.41674805 C84.27615303 33.42253226 84.28129668 35.42831542 84.28688049 37.43409729 C84.29816374 41.7578401 84.30659709 46.08157601 84.31299973 50.40532875 C84.32368792 57.25260094 84.3439375 64.09982386 84.36611938 70.94706726 C84.4280079 90.42001066 84.48197006 109.89295176 84.51513672 129.3659668 C84.53352961 140.11772284 84.56252801 150.86939683 84.60314143 161.6210925 C84.62414108 167.30624158 84.63965861 172.99128754 84.6419487 178.67647743 C84.64410913 184.03387429 84.66011974 189.39105685 84.68633842 194.74838829 C84.69348126 196.70456126 84.69565704 198.66076034 84.69223595 200.61694336 C84.47749652 224.0058143 84.47749652 224.0058143 94.86376953 244.24755859 C109.2898165 258.06282535 131.69670541 256.45086509 150.21923828 256.45849609 C152.07090784 256.46171762 153.92257716 256.46508233 155.77424622 256.46858215 C159.64304188 256.4745427 163.51181531 256.47642527 167.38061523 256.47583008 C172.29437998 256.47572871 177.20799943 256.48936884 182.12172985 256.50660229 C185.94402193 256.51781978 189.76627997 256.51974631 193.58858681 256.51922035 C195.39794731 256.5203863 197.2073091 256.52472837 199.01665306 256.53255272 C226.7746285 257.04733373 226.7746285 257.04733373 250.66455078 244.82177734 C260.74810314 233.41210023 259.68817707 215.64696134 259.61206055 201.41552734 C259.61589245 199.36705634 259.62151888 197.31858804 259.62878418 195.27012634 C259.64065285 190.89247899 259.6403097 186.51507184 259.6301899 182.13742065 C259.61452443 175.21123749 259.62837709 168.28529736 259.64622498 161.35913086 C259.6769235 147.91770122 259.67854954 134.47634745 259.67657471 121.03488922 C259.6751779 103.8966919 259.68553843 86.75855222 259.72515243 69.62039757 C259.7400648 62.7382106 259.73983299 55.85624169 259.7276746 48.97405148 C259.72296136 44.69620078 259.73048613 40.41843351 259.74121857 36.14059639 C259.74362245 34.16049705 259.74089735 32.18038368 259.7326107 30.20030022 C259.72195947 27.4930956 259.72976346 24.7865301 259.74195862 22.0793457 C259.73438256 21.30035416 259.72680651 20.52136261 259.71900088 19.71876526 C259.77060185 14.29942612 260.86488847 10.24057001 263.11376953 5.29052734 C268.00059267 0.64208582 271.35499189 0.13897942 277.88061523 0.12939453 C278.68242218 0.12442963 279.48422913 0.11946472 280.31033325 0.11434937 C282.97008108 0.09971225 285.62976925 0.09292279 288.28955078 0.08740234 C290.13559471 0.08165168 291.98163861 0.07589394 293.8276825 0.07012939 C297.70226317 0.05961466 301.57682307 0.05377525 305.45141602 0.05029297 C310.41478707 0.0448106 315.37788346 0.02079009 320.3411684 -0.00767899 C324.15617167 -0.02630977 327.97110888 -0.03151122 331.78615379 -0.03304291 C333.61578051 -0.03606953 335.44540606 -0.04409838 337.27498817 -0.05722809 C339.83645074 -0.07429607 342.39724376 -0.07240649 344.95874023 -0.06591797 C345.71373306 -0.07513275 346.46872589 -0.08434753 347.24659729 -0.09384155 C351.72902757 -0.05829936 354.54075897 0.55079198 358.11376953 3.29052734 C363.08510531 8.81423377 363.26010384 13.15181603 363.2474823 20.33778381 C363.24974786 21.27503105 363.25201341 22.21227829 363.25434762 23.17792696 C363.26070025 26.33274167 363.25985741 29.48751356 363.2590332 32.64233398 C363.26202417 34.89925696 363.26542655 37.15617942 363.26921082 39.4131012 C363.27806785 45.55856698 363.28038983 51.70401885 363.2810266 57.8494904 C363.28173689 61.69315883 363.28387095 65.53682371 363.28652382 69.38049126 C363.29530881 82.10989458 363.29994282 94.8392863 363.29919335 107.56869192 C363.29913341 108.59852853 363.29913341 108.59852853 363.29907227 109.64916992 C363.29903138 110.33657446 363.2989905 111.02397899 363.29894838 111.73221397 C363.29854323 122.8358367 363.30807778 133.93942531 363.32221063 145.0430382 C363.33663043 156.4631297 363.34329514 167.88319773 363.34261686 179.30329984 C363.34236283 185.70675807 363.34516012 192.1101778 363.35579491 198.51362801 C363.36554565 204.55055408 363.36550766 210.58740548 363.35827827 216.62433434 C363.35724059 218.82759334 363.35954613 221.03085715 363.36563873 223.23410797 C363.44415316 253.62289825 360.56114902 284.51063143 338.21923828 307.39990234 C320.24322514 324.77346372 293.26860799 331.28311199 269.11376953 333.29052734 C268.16207351 333.37261098 267.21037748 333.45469461 266.22984219 333.53926563 C256.96433421 334.274309 247.75646991 334.43927587 238.4675293 334.43579102 C236.84763005 334.43879165 235.2277315 334.44219622 233.60783386 334.44596863 C229.24774963 334.45472368 224.88768508 334.4571432 220.5275929 334.45778441 C217.78989224 334.45850009 215.05219643 334.46064416 212.31449699 334.46328163 C202.72422855 334.47250897 193.13397391 334.47662005 183.54370117 334.47583008 C174.66882748 334.47523091 165.79401488 334.48575785 156.91915661 334.50157374 C149.24808713 334.5147467 141.57703736 334.52000988 133.90595669 334.51937467 C129.34746992 334.51912241 124.78903749 334.52182005 120.23056221 334.53255272 C39.38863852 334.70938892 39.38863852 334.70938892 9.11376953 308.29052734 C8.49888672 307.77103516 7.88400391 307.25154297 7.25048828 306.71630859 C-9.73857124 291.21135082 -16.87341375 265.48055964 -17.99294186 243.16328526 C-18.04751889 240.86886005 -18.07508989 238.57577804 -18.09155273 236.28076172 C-18.10638938 234.96977949 -18.10638938 234.96977949 -18.12152576 233.63231277 C-18.15318397 230.7163281 -18.17804175 227.80032956 -18.20263672 224.88427734 C-18.22349142 222.77874483 -18.24462735 220.67321509 -18.26602173 218.56768799 C-18.32246992 212.83898442 -18.37192525 207.11024155 -18.41906357 201.38145447 C-18.44873365 197.79014231 -18.47970099 194.19884316 -18.51089478 190.60754395 C-18.83845248 152.42150424 -19.01898398 114.23510829 -19.06488568 76.04773808 C-19.0708678 71.37938495 -19.0818116 66.71106447 -19.09451294 62.04272461 C-19.11108409 55.73317531 -19.11733261 49.42369815 -19.11548996 43.11412811 C-19.11628626 40.79176218 -19.12040455 38.46939464 -19.12810135 36.14704132 C-19.13789863 32.96399462 -19.13511889 29.78119532 -19.12915039 26.59814453 C-19.13477273 25.67941811 -19.14039507 24.76069168 -19.14618778 23.81412506 C-19.11243308 16.86338426 -19.0075512 9.91426614 -14.51123047 4.35302734 C-9.66479894 0.54511686 -6.10804006 -0.00745156 0 0 Z " fill="#ED1C24" transform="translate(693.88623046875,-0.29052734375)"/>
<path d="M0 0 C0.78884079 -0.0065712 1.57768158 -0.0131424 2.39042664 -0.01991272 C5.00808809 -0.03966554 7.62569204 -0.05131437 10.2434082 -0.0612793 C11.13750711 -0.06535482 12.03160603 -0.06943035 12.95279884 -0.07362938 C17.68760574 -0.09450129 22.42238359 -0.1087966 27.15722656 -0.11816406 C32.04201627 -0.12921448 36.92634867 -0.16359524 41.81097698 -0.20333576 C45.57116018 -0.22951998 49.33123489 -0.23785763 53.09150124 -0.24144554 C54.89158011 -0.24630898 56.69165422 -0.25791606 58.49164391 -0.27648354 C61.01692926 -0.30090767 63.54103823 -0.29990399 66.06640625 -0.29296875 C66.80485779 -0.30577881 67.54330933 -0.31858887 68.30413818 -0.33178711 C73.87960956 -0.27621736 76.96405109 0.92603041 81.35668945 4.17700195 C84.33029067 8.85921982 84.78875602 12.94438414 84.74868774 18.35913086 C84.75462901 19.16700641 84.76057027 19.97488195 84.76669157 20.80723858 C84.78296208 23.50615513 84.778038 26.20460947 84.77319336 28.90356445 C84.78057525 30.84230576 84.78928083 32.78104241 84.79920959 34.71977234 C84.82253712 39.98261013 84.82768285 45.24532995 84.82986879 50.50821304 C84.83553598 56.02569767 84.85881815 61.54310589 84.88046265 67.06054688 C84.91900415 77.52324307 84.94320599 87.9859174 84.96158731 98.44866657 C84.99493132 117.15456829 85.05297823 135.86040297 85.11557901 154.56622696 C85.13696624 161.1238588 85.15229652 167.68146853 85.1624186 174.23912716 C85.16948434 178.33588276 85.18037155 182.4326227 85.19206047 186.52936745 C85.19658202 188.41663091 85.19945758 190.30389923 85.20048332 192.19116783 C84.42951512 219.71974037 84.42951512 219.71974037 95.35668945 244.17700195 C110.19093805 257.62325068 132.45012274 256.49122537 151.16918945 256.44262695 C153.03613332 256.44397924 154.90307685 256.44592443 156.77001953 256.44842529 C160.65604044 256.45135007 164.54196852 256.44716517 168.42797852 256.43774414 C173.36291396 256.42635129 178.29763171 256.4329251 183.2325592 256.44488907 C187.07972804 256.45217981 190.92684683 256.44978696 194.77401733 256.44463348 C196.59174629 256.44331684 198.40948007 256.44487342 200.22720337 256.44959259 C224.55653292 257.12787672 224.55653292 257.12787672 246.52856445 248.5480957 C248.35668945 247.17700195 248.35668945 247.17700195 250.35668945 247.17700195 C250.72793945 246.40356445 250.72793945 246.40356445 251.10668945 245.61450195 C252.35668945 243.17700195 252.35668945 243.17700195 254.29418945 240.05200195 C262.35066084 225.83293119 260.5035973 207.96057448 260.49853516 192.15576172 C260.50157335 190.17493107 260.50509661 188.19410111 260.50906372 186.21327209 C260.51689782 181.97590116 260.52207649 177.73853843 260.52535439 173.50116158 C260.53130451 166.79810684 260.54787855 160.09510406 260.56669617 153.39207458 C260.57303162 151.09078696 260.57935727 148.78949931 260.58567333 146.48821163 C260.58883914 145.33663472 260.59200495 144.18505781 260.5952667 142.99858463 C260.63725777 127.41231387 260.67035944 111.82606978 260.68261719 96.23974609 C260.69099335 85.69672958 260.71345612 75.15384444 260.75197285 64.61089367 C260.77172593 59.04013445 260.78413994 53.46957159 260.77913857 47.8987751 C260.77449782 42.66761372 260.78826623 37.43682601 260.81615067 32.20573997 C260.8230684 30.28812512 260.82318276 28.37047167 260.81595039 26.45285797 C260.80706596 23.83255303 260.82274784 21.21348182 260.84443665 18.59327698 C260.83599411 17.83724499 260.82755157 17.081213 260.8188532 16.30227095 C260.90195127 10.86298284 262.28708724 7.68120791 265.35668945 3.17700195 C269.37734701 -0.25059351 273.37447021 -0.25233444 278.44824219 -0.21118164 C279.24888092 -0.2164386 280.04951965 -0.22169556 280.87442017 -0.22711182 C283.51324139 -0.24028342 286.15145615 -0.23158311 288.7902832 -0.22143555 C290.62964493 -0.2234573 292.46900588 -0.22636959 294.30836487 -0.23013306 C298.1608952 -0.23455273 302.01321664 -0.22813758 305.86572266 -0.21411133 C310.79644906 -0.1970317 315.7266851 -0.20685512 320.65739346 -0.22482872 C324.45530367 -0.23568647 328.25309828 -0.23221087 332.05101204 -0.22444534 C333.86863323 -0.22244822 335.68626501 -0.22488545 337.50387383 -0.231884 C340.04811129 -0.23952996 342.59156301 -0.22785013 345.13574219 -0.21118164 C346.25576881 -0.22029068 346.25576881 -0.22029068 347.39842224 -0.22958374 C352.11877372 -0.17248929 355.33852033 0.7026387 359.35668945 3.17700195 C362.45116639 6.5915972 363.48011976 9.64543541 363.48811722 14.2072134 C363.49195836 15.02990072 363.49579951 15.85258803 363.49975705 16.70020527 C363.49889057 17.60387004 363.49802409 18.50753482 363.49713135 19.43858337 C363.50158803 20.8790895 363.50158803 20.8790895 363.50613475 22.34869677 C363.51483828 25.58175709 363.51633146 28.81478044 363.51782227 32.04785156 C363.52244968 34.36064229 363.52747423 36.67343225 363.53286743 38.98622131 C363.54601046 45.28470605 363.55244139 51.58318012 363.55687809 57.88167644 C363.55980887 61.82184604 363.56391394 65.76201273 363.56838226 69.70218086 C363.58049972 80.62851676 363.59087605 91.5548501 363.59425735 102.48119259 C363.59447692 103.18084746 363.59469649 103.88050233 363.59492271 104.60135886 C363.59514098 105.302643 363.59535926 106.00392713 363.59558415 106.7264623 C363.59602761 108.14739414 363.59647417 109.56832598 363.59692383 110.98925781 C363.59714526 111.69408142 363.59736669 112.39890502 363.59759483 113.12508691 C363.6015294 124.5054343 363.61893857 135.88571713 363.64228335 147.26603966 C363.66610244 158.97316222 363.67846422 170.68025258 363.67962527 182.38739973 C363.680669 188.95079328 363.68648304 195.51409605 363.70444489 202.07746696 C363.72105197 208.26708736 363.72302032 214.45655004 363.71430588 220.64618492 C363.71354192 222.903434 363.7177922 225.16069198 363.72776413 227.41791916 C363.84061928 254.58466442 361.50294736 283.26150423 341.6574707 303.9074707 C340.51858398 305.03088867 340.51858398 305.03088867 339.35668945 306.17700195 C338.32608398 307.22307617 338.32608398 307.22307617 337.2746582 308.2902832 C307.03582944 337.18267061 258.45993139 334.50313089 219.72364187 334.44565296 C215.14828875 334.44050086 210.57294265 334.44530929 205.99758911 334.44842529 C198.3241428 334.4520379 190.65073531 334.44733693 182.97729492 334.43774414 C174.16807888 334.42685707 165.35895545 334.43039805 156.54974163 334.44139695 C148.91584807 334.45053841 141.28198203 334.45172215 133.64808476 334.44651961 C129.1194076 334.44343825 124.59077365 334.44288278 120.06209946 334.44959259 C36.73695203 334.5559194 36.73695203 334.5559194 7.5559082 306.5324707 C-15.38466888 281.96201247 -18.13140623 248.91245304 -18.03149414 216.86083984 C-18.03557227 214.62267299 -18.04092103 212.38450816 -18.04742432 210.14634705 C-18.06094433 204.14318754 -18.05586669 198.14018499 -18.04628706 192.13702321 C-18.03862433 185.82762725 -18.04575294 179.5182436 -18.05044556 173.20884705 C-18.05622448 161.96146077 -18.04699195 150.7141386 -18.03166755 139.46676742 C-18.01821956 129.28070736 -18.02063936 119.09474971 -18.03442383 108.90869141 C-18.05048821 97.03257441 -18.05645288 85.15651944 -18.04758704 73.28038782 C-18.04291662 67.01001586 -18.04226967 60.7397144 -18.0521965 54.469347 C-18.06086059 48.58810319 -18.05485437 42.70705332 -18.03751373 36.82583046 C-18.03354867 34.66954114 -18.03468326 32.51323548 -18.04130173 30.35695267 C-18.04950468 27.41324975 -18.03921116 24.47016791 -18.02426147 21.52650452 C-18.03095364 20.67476483 -18.0376458 19.82302514 -18.04454076 18.94547516 C-17.99206976 13.61614616 -17.16590143 9.90060606 -14.64331055 5.17700195 C-9.72681247 0.62024764 -6.5079698 0.02337689 0 0 Z " fill="#ED1C24" transform="translate(1636.643310546875,-0.177001953125)"/>
<path d="M0 0 C0.77923325 -0.0065712 1.55846649 -0.0131424 2.36131287 -0.01991272 C4.94107156 -0.03962864 7.52077206 -0.05130506 10.10058594 -0.0612793 C11.42380985 -0.06739259 11.42380985 -0.06739259 12.77376556 -0.07362938 C17.44373846 -0.09448375 22.11368203 -0.10878769 26.78369141 -0.11816406 C31.60007373 -0.12922175 36.41599321 -0.16361595 41.23221207 -0.20333576 C44.94178102 -0.2295191 48.65124002 -0.23785746 52.36089325 -0.24144554 C54.13585279 -0.24630777 55.91080754 -0.25791141 57.68567657 -0.27648354 C60.17493539 -0.30091005 62.66300103 -0.29990383 65.15234375 -0.29296875 C65.8798735 -0.30577881 66.60740326 -0.31858887 67.35697937 -0.33178711 C72.86227745 -0.27612912 75.90322988 1.14209139 80.33496094 4.17700195 C83.76726476 8.75340705 84.45883579 12.82598784 84.4663887 18.44137955 C84.47022985 19.51381259 84.47407099 20.58624564 84.47802854 21.69117665 C84.47716205 22.86858946 84.47629557 24.04600226 84.47540283 25.25909424 C84.47837395 26.51051799 84.48134508 27.76194173 84.48440623 29.05128741 C84.49247351 32.52709238 84.49426565 36.00287669 84.4950037 39.47868991 C84.49685473 43.22659786 84.50440231 46.9744951 84.51113892 50.72239685 C84.5247208 58.91871525 84.53074672 67.11502876 84.53514957 75.31135654 C84.53791222 80.42919837 84.54214962 85.5470383 84.54665375 90.66487885 C84.55884619 104.83475755 84.56914558 119.00463475 84.57252884 133.17451859 C84.57285819 134.5348741 84.57285819 134.5348741 84.57319419 135.92271154 C84.57352161 137.28632097 84.57352161 137.28632097 84.57385564 138.67747808 C84.5742991 140.51960452 84.57474567 142.36173097 84.57519531 144.20385742 C84.57541674 145.11761567 84.57563817 146.03137391 84.57586631 146.9728218 C84.57981427 161.77876457 84.59726835 176.58465812 84.62055483 191.39058188 C84.64426986 206.59167592 84.65673076 221.79274526 84.65789676 236.9938581 C84.65881343 245.52869074 84.66456378 254.06345925 84.68271637 262.59827423 C84.69811938 269.86592961 84.70323664 277.13350103 84.69497827 284.40116963 C84.69107247 288.1084896 84.6919978 291.81564053 84.70603561 295.52293968 C84.72112364 299.54440683 84.712906 303.56549332 84.70245361 307.5869751 C84.71051002 308.75546501 84.71856642 309.92395493 84.72686696 311.12785363 C84.6821752 318.47174515 84.4281627 325.0838002 78.95996094 330.55200195 C73.84387287 333.71910409 69.94807171 334.43052989 63.91772461 334.45166016 C62.82399788 334.45932655 62.82399788 334.45932655 61.70817566 334.46714783 C59.30634263 334.48100626 56.90479787 334.48008954 54.50292969 334.4777832 C52.82530105 334.48167295 51.14767339 334.4860082 49.470047 334.49076843 C45.95550341 334.49822314 42.44106028 334.49794536 38.92651367 334.49267578 C34.43766828 334.48689027 29.94923674 334.5037934 25.46045971 334.52702045 C21.99532188 334.54180395 18.53028257 334.5426231 15.06511879 334.53951073 C13.41102595 334.54002189 11.75692729 334.54522091 10.10286522 334.55532265 C7.78176964 334.56775611 5.46146521 334.56085427 3.14038086 334.54931641 C1.82309494 334.54994583 0.50580902 334.55057526 -0.85139465 334.55122375 C-6.49152544 333.99777417 -11.09880836 332.78339242 -15.10253906 328.67700195 C-17.42102111 324.96743067 -17.79082797 322.21745669 -17.79646683 317.93358803 C-17.80030797 316.84039556 -17.80414912 315.74720309 -17.80810666 314.62088358 C-17.80724018 313.41516589 -17.8063737 312.2094482 -17.80548096 310.9671936 C-17.80845208 309.69000627 -17.8114232 308.41281893 -17.81448436 307.09692895 C-17.82256257 303.54466345 -17.82434438 299.99241814 -17.82508183 296.44014454 C-17.82693093 292.61183949 -17.83447748 288.78354495 -17.84121704 284.95524597 C-17.85480618 276.58138947 -17.86082583 268.20753774 -17.8652277 259.83367205 C-17.86798884 254.60714523 -17.87222593 249.38062026 -17.87673187 244.1540947 C-17.88892472 229.68915485 -17.89922438 215.22421649 -17.90260696 200.75927162 C-17.90282653 199.83327247 -17.9030461 198.90727332 -17.90327232 197.95321359 C-17.90349059 197.02497647 -17.90370887 196.09673935 -17.90393376 195.14037383 C-17.90437723 193.25935403 -17.9048238 191.37833424 -17.90527344 189.49731445 C-17.90549487 188.56426009 -17.9057163 187.63120572 -17.90594444 186.66987698 C-17.90989397 171.54498464 -17.92735264 156.42014044 -17.95063296 141.2952667 C-17.97433037 125.77442534 -17.98680806 110.25360814 -17.98797488 94.73274839 C-17.98889249 86.01523237 -17.99466641 77.29777908 -18.01279449 68.5802803 C-18.02817369 61.15843866 -18.03332884 53.73667914 -18.02505639 46.3148246 C-18.02114227 42.526874 -18.02211643 38.73908889 -18.03611374 34.95115852 C-18.05113907 30.84757788 -18.04300891 26.74437221 -18.03253174 22.64077759 C-18.04058814 21.43952134 -18.04864455 20.23826509 -18.05694509 19.00060713 C-18.05035524 17.90219917 -18.0437654 16.80379121 -18.03697586 15.67209816 C-18.03757295 14.72480327 -18.03817004 13.77750839 -18.03878522 12.80150759 C-17.33113864 7.83229948 -14.35810893 4.40843809 -10.66503906 1.17700195 C-7.05980644 -0.02474225 -3.75390009 0.01372147 0 0 Z " fill="#ED1C24" transform="translate(17.6650390625,-0.177001953125)"/>
</svg>
