<?xml version="1.0" encoding="UTF-8"?>
<svg version="1.1" xmlns="http://www.w3.org/2000/svg" width="2000" height="528">
<path d="M0 0 C3.2756186 0.00016118 6.55066971 -0.01353189 9.82617188 -0.04101562 C41.96965375 -0.30634945 72.86123668 2.83970974 104.39086914 9.37060547 C105.41422363 9.57347168 106.43757813 9.77633789 107.49194336 9.98535156 C121.6843533 12.82023655 135.36689821 16.79187442 149.07836914 21.37060547 C149.83173553 21.62182159 150.58510193 21.87303772 151.36129761 22.13186646 C164.27945859 26.46452649 177.19401645 30.99741944 189.32836914 37.24560547 C190.67191959 37.93349536 192.01567569 38.62098372 193.35961914 39.30810547 C194.02606445 39.65099609 194.69250977 39.99388672 195.37915039 40.34716797 C197.36258167 41.35621456 199.35752789 42.33667658 201.35961914 43.30810547 C220.4960635 52.61830023 238.07009621 63.96542058 255.01586914 76.80810547 C255.64750977 77.28481689 256.27915039 77.76152832 256.92993164 78.25268555 C268.6544411 87.26324291 279.50410088 97.14886025 289.91552734 107.63452148 C291.71302719 109.44282154 293.5210923 111.24006524 295.33032227 113.03662109 C301.44131662 119.14110269 307.22336453 125.31407056 312.57983398 132.1003418 C314.21470644 134.14977278 315.91638676 136.07917788 317.70336914 137.99560547 C323.03847101 144.26695084 325.04756891 150.5836387 324.71508789 158.79248047 C323.99226771 164.54020723 321.55268984 169.31549812 317.39086914 173.37060547 C310.24562443 177.59333773 304.64134521 179.48989445 296.34451294 179.51777649 C295.27992932 179.52329152 295.27992932 179.52329152 294.19383895 179.52891797 C291.81566067 179.53993117 289.43752611 179.54379457 287.05932617 179.54760742 C285.35420595 179.55387371 283.64908709 179.56052066 281.94396973 179.56752014 C276.34555 179.58853794 270.74713006 179.5989183 265.14868164 179.60888672 C263.22089499 179.6129347 261.29310847 179.61705163 259.36532211 179.6212368 C250.31083983 179.64028104 241.25636568 179.65451541 232.20186722 179.66284877 C221.74923821 179.67262796 211.29682057 179.69896845 200.84426606 179.73934966 C192.76432652 179.76949437 184.68444765 179.78431596 176.60445297 179.78762978 C171.7785662 179.78998155 166.95290547 179.7989589 162.12707901 179.82409096 C157.58800658 179.84734884 153.04930941 179.85161417 148.51019287 179.84132957 C146.84531278 179.8408336 145.18041435 179.84717232 143.51559067 179.86088562 C141.24034136 179.87857717 138.96644294 179.8715133 136.69119263 179.85835266 C135.41878283 179.86074101 134.14637302 179.86312937 132.83540535 179.8655901 C128.75925645 179.27984185 126.61923955 177.86972703 123.39086914 175.37060547 C122.69219727 174.83177734 121.99352539 174.29294922 121.27368164 173.73779297 C120.69360352 173.24537109 120.11352539 172.75294922 119.51586914 172.24560547 C118.92032227 171.74802734 118.32477539 171.25044922 117.71118164 170.73779297 C116.39086914 169.37060547 116.39086914 169.37060547 116.39086914 167.37060547 C115.84043945 167.13341797 115.29000977 166.89623047 114.72290039 166.65185547 C111.81775371 165.05572798 109.57471054 163.05274622 107.07836914 160.87060547 C75.35845742 133.93591948 33.09864953 118.80409493 -8.58178711 121.66748047 C-47.81405925 124.95369375 -83.32653981 141.71205419 -109.60913086 171.37060547 C-113.59197976 176.15254893 -117.16099662 181.19434749 -120.60913086 186.37060547 C-121.00970703 186.96421875 -121.4102832 187.55783203 -121.82299805 188.16943359 C-142.94835254 219.90100482 -147.70257413 258.46771944 -140.60913086 295.37060547 C-135.73886698 318.07497572 -124.37540403 338.66109246 -109.60913086 356.37060547 C-109.1840625 356.88220215 -108.75899414 357.39379883 -108.32104492 357.92089844 C-82.00331807 389.13978209 -42.44274877 404.86890349 -2.60913086 408.37060547 C26.15335022 410.57591591 57.29439695 403.39351739 81.39086914 387.37060547 C82.16172852 386.86142578 82.93258789 386.35224609 83.72680664 385.82763672 C97.91377675 376.16305028 110.88570083 365.29608287 122.01586914 352.18310547 C129.0482291 343.98159385 136.35364031 336.06166846 147.60894585 335.0939064 C151.61734827 334.97991185 155.61550408 334.96460092 159.625 334.98242188 C161.16508353 334.97835146 162.70516413 334.97300694 164.24523926 334.9664917 C168.41320275 334.95285782 172.58094249 334.95810319 176.74890971 334.96762896 C181.13050966 334.97525828 185.51209126 334.96816975 189.89369202 334.96347046 C197.26005461 334.95801721 204.62632691 334.96518776 211.99267578 334.97949219 C220.46883021 334.9957633 228.94476748 334.99056892 237.4209165 334.97401297 C244.72745886 334.96032029 252.03393647 334.95851779 259.34048754 334.96632898 C263.69097059 334.97097007 268.04135229 334.97173104 272.39182854 334.96171951 C276.49350549 334.95294012 280.59490822 334.95926784 284.69655609 334.97640228 C286.18748333 334.98031178 287.67843434 334.9793305 289.16935158 334.97261429 C297.10455576 334.94021399 304.7591044 335.38564478 312.58375549 336.71908569 C313.63842511 336.89575301 313.63842511 336.89575301 314.71440119 337.07598937 C322.04379036 338.4482892 326.89117191 341.34066943 331.58227539 347.02685547 C333.85244463 351.22397182 334.08365769 354.3594187 334.01586914 359.05810547 C334.00676514 359.85539062 333.99766113 360.65267578 333.98828125 361.47412109 C333.56411816 372.39825884 328.03280158 379.12619788 320.74243164 386.84326172 C318.35203021 389.41234764 316.14989346 392.07215203 313.95336914 394.80810547 C310.11253218 399.55385166 306.08780778 404.08587223 301.94555664 408.56982422 C299.97022133 410.73544413 298.04619038 412.92457746 296.13305664 415.14404297 C286.23339057 426.48713217 275.36888741 437.23849229 263.39086914 446.37060547 C262.46145508 447.11697266 261.53204102 447.86333984 260.57446289 448.63232422 C217.99692482 482.40071648 166.29104227 505.53690118 113.39086914 517.37060547 C112.3196582 517.61037109 111.24844727 517.85013672 110.14477539 518.09716797 C106.23763708 518.91924794 102.31898751 519.65758828 98.39086914 520.37060547 C97.37283203 520.55768066 96.35479492 520.74475586 95.3059082 520.9375 C91.67023019 521.59782834 88.03115358 522.23618828 84.39086914 522.87060547 C83.2788916 523.07226318 82.16691406 523.2739209 81.02124023 523.48168945 C56.08145914 527.72933658 31.07329477 528.92922116 5.82847214 528.81723404 C3.59911432 528.80793123 1.36978505 528.80356141 -0.85958862 528.79989624 C-22.66544441 528.74998133 -44.07221071 528.0724978 -65.60913086 524.37060547 C-66.79909668 524.17805176 -67.9890625 523.98549805 -69.21508789 523.78710938 C-121.0148651 515.34310375 -171.6689992 498.77581459 -216.60913086 471.37060547 C-217.27283691 470.97212402 -217.93654297 470.57364258 -218.62036133 470.16308594 C-235.76615052 459.83306138 -252.02524181 448.11367387 -266.60913086 434.37060547 C-267.8554641 433.30380666 -269.10547275 432.24128674 -270.35913086 431.18310547 C-279.55743623 423.14158495 -288.11270924 414.38255375 -295.67944336 404.79248047 C-297.35616171 402.68809712 -299.09624423 400.71946852 -300.92163086 398.74560547 C-311.58931451 386.59972085 -319.88456073 372.49960402 -327.60913086 358.37060547 C-327.9584668 357.73525879 -328.30780273 357.09991211 -328.66772461 356.4453125 C-340.10951316 335.39402984 -345.65729308 311.9853077 -348.60913086 288.37060547 C-348.70411865 287.68289063 -348.79910645 286.99517578 -348.89697266 286.28662109 C-352.52332216 258.00828884 -349.31132829 227.41749024 -340.60913086 200.37060547 C-340.36855957 199.61199219 -340.12798828 198.85337891 -339.88012695 198.07177734 C-333.71042992 179.042924 -324.18286854 161.62918659 -312.60913086 145.37060547 C-311.92077148 144.38833984 -311.23241211 143.40607422 -310.52319336 142.39404297 C-295.31091529 121.0487516 -276.52038326 100.2733441 -255.60913086 84.37060547 C-254.30230865 83.34823136 -252.99639264 82.32469834 -251.69116211 81.30029297 C-196.8393539 38.49126958 -131.50172035 14.91345793 -63.23413086 4.18310547 C-62.24960938 4.0280957 -61.26508789 3.87308594 -60.25073242 3.71337891 C-57.04094387 3.23017361 -53.82700528 2.79659745 -50.60913086 2.37060547 C-49.37783447 2.19110352 -48.14653809 2.01160156 -46.87792969 1.82666016 C-31.33978491 -0.25048308 -15.6451257 -0.00404369 0 0 Z " fill="#CC000C" transform="translate(1666.609130859375,-0.37060546875)"/>
<path d="M0 0 C1.39864541 -0.0076306 2.79728665 -0.01605964 4.19592285 -0.02522278 C7.98139268 -0.04709083 11.76678176 -0.05595672 15.55230761 -0.06104922 C17.92322133 -0.0647031 20.29411424 -0.07094859 22.66501999 -0.07805061 C30.95344716 -0.10252217 39.241812 -0.11559123 47.53027344 -0.11914062 C55.22780744 -0.12277012 62.92494132 -0.15262907 70.6223532 -0.19454521 C77.25280496 -0.22937129 83.88312497 -0.24469121 90.51366746 -0.24538666 C94.46398745 -0.24617555 98.41389971 -0.25473281 102.3641243 -0.28338432 C106.08588448 -0.30977629 109.8069051 -0.31165458 113.52871704 -0.29572868 C115.52410583 -0.29308186 117.51948161 -0.31495488 119.51473999 -0.33792114 C134.61672508 -0.21699999 147.63482797 5.9862714 158.55224609 16.28295898 C163.61780858 21.44314593 167.12089649 27.18115438 170.69287109 33.43139648 C171.34304199 34.54232666 171.99321289 35.65325684 172.66308594 36.79785156 C173.94606847 38.99023949 175.22409872 41.18553481 176.49658203 43.3840332 C178.56379814 46.94542883 180.68375892 50.4723842 182.81787109 53.99389648 C186.41435014 59.97382076 189.95956758 65.98383198 193.50537109 71.99389648 C199.6825748 82.46291389 205.92725911 92.89012314 212.19287109 103.30639648 C220.00360494 116.29418707 227.79373239 129.29257363 235.48950195 142.34887695 C239.51444218 149.17267397 243.58350926 155.96898045 247.66748047 162.75756836 C251.43514392 169.02707947 255.16402881 175.31884752 258.88037109 181.61889648 C268.17096189 197.46578317 268.17096189 197.46578317 277.88037109 213.05639648 C280.039963 216.41352629 282.03625528 219.79681583 283.90771484 223.32202148 C287.08278753 229.18596083 290.50886777 234.87547766 293.99572754 240.55828857 C295.87274575 243.61872799 297.73995238 246.68513949 299.60693359 249.75170898 C300.18030457 250.6932634 300.18030457 250.6932634 300.76525879 251.65383911 C307.34577956 262.47539877 313.75976433 273.39682743 320.19287109 284.30639648 C330.83685317 302.35607209 341.52653502 320.37738862 352.43115234 338.27124023 C359.63710196 350.09721571 366.78503923 361.94699727 373.73291016 373.92749023 C378.76999872 382.60678129 383.87943171 391.24190454 389.00537109 399.86889648 C389.39811218 400.53022583 389.79085327 401.19155518 390.19549561 401.8729248 C396.87578619 413.11999148 403.60314357 424.3384602 410.34521484 435.54858398 C415.47084203 444.07218943 420.56961252 452.60980826 425.59472656 461.19311523 C427.6342474 464.67283495 429.69013254 468.14107246 431.77880859 471.59155273 C432.19493408 472.27950928 432.61105957 472.96746582 433.03979492 473.67626953 C433.8286557 474.97751749 434.62001489 476.27725533 435.41430664 477.57519531 C439.27305701 483.94031786 439.75302942 488.97047689 439.19287109 496.30639648 C437.83934953 500.28236606 436.45381602 501.14102175 432.88627625 503.40196228 C427.14571844 506.17165711 421.35902108 505.87352109 415.09838867 505.83984375 C413.80137024 505.84845932 412.50435181 505.85707489 411.16802979 505.86595154 C407.62835219 505.88835302 404.08912374 505.88552639 400.54940248 505.87663007 C397.58271409 505.87149693 394.6161084 505.87883214 391.64942855 505.88610214 C384.64129272 505.90307447 377.63337473 505.89956549 370.62524414 505.8828125 C363.42580726 505.86592309 356.22697816 505.88168739 349.02760774 505.91403538 C342.82172918 505.94085011 336.6160384 505.94797459 330.41010779 505.9395203 C326.71469785 505.93462184 323.01965257 505.93663615 319.32428932 505.95730782 C315.19392478 505.97930802 311.0646875 505.96013321 306.93432617 505.9375 C305.73128342 505.9491922 304.52824066 505.9608844 303.28874207 505.97293091 C287.77235951 505.80103436 274.94002901 498.67637968 263.63037109 488.43139648 C257.85404184 482.35378387 253.85280692 475.02284892 249.65625 467.81811523 C235.79876425 440.41399528 235.79876425 440.41399528 212.32853037 422.85229659 C205.5369837 421.11629587 198.44974802 421.16207553 191.48414612 421.18182373 C190.54837846 421.18041358 189.61261081 421.17900343 188.64848655 421.17755055 C185.53509212 421.17392127 182.42174392 421.17722378 179.30834961 421.18041992 C177.06711797 421.17902396 174.82588659 421.17712387 172.58465576 421.17475891 C167.76879731 421.17027318 162.95294735 421.16840608 158.13708687 421.16829681 C150.51787799 421.16715363 142.89871724 421.15429538 135.27952576 421.13873291 C133.99203778 421.13616006 132.70454981 421.1335872 131.37804705 421.13093638 C128.74603077 421.12567027 126.11401453 421.12038478 123.48199832 421.11508036 C116.72929302 421.10171998 109.97658642 421.08943193 103.22387695 421.07836914 C102.54673879 421.07725558 101.86960062 421.07614202 101.17194312 421.07499471 C90.19586738 421.0574145 79.21982851 421.05455132 68.24374104 421.05621955 C56.9545246 421.0575003 45.6654433 421.03938504 34.37626976 421.00520158 C28.04574519 420.98675598 21.71549626 420.97738729 15.38495064 420.98967743 C9.43152665 421.00112463 3.47859641 420.98938505 -2.47476196 420.96004295 C-4.65557526 420.95341086 -6.83643388 420.95525457 -9.01722908 420.96634102 C-30.66722606 421.06724709 -30.66722606 421.06724709 -37.80712891 415.30639648 C-40.8252918 411.83093619 -42.07085974 407.90218849 -41.80712891 403.30639648 C-39.72417887 394.0203822 -35.89142285 386.20633294 -30.99462891 378.11889648 C-29.65949875 375.86267876 -28.32487929 373.60615876 -26.99072266 371.34936523 C-26.29791656 370.18705435 -25.60504493 369.02478254 -24.91210938 367.86254883 C-22.76918758 364.25638696 -20.67550681 360.62307736 -18.59228516 356.98217773 C-18.25178635 356.38764297 -17.91128754 355.79310822 -17.56047058 355.18055725 C-15.92021917 352.31548445 -14.28171622 349.44941549 -12.64379883 346.58300781 C-12.0531665 345.5558667 -11.46253418 344.52872559 -10.85400391 343.47045898 C-10.33676758 342.56763184 -9.81953125 341.66480469 -9.28662109 340.73461914 C-7.90125802 338.46088628 -6.5383979 336.33053161 -4.80712891 334.30639648 C-4.14712891 334.30639648 -3.48712891 334.30639648 -2.80712891 334.30639648 C-2.59958984 333.73920898 -2.39205078 333.17202148 -2.17822266 332.58764648 C-0.27855641 329.42694824 2.10887501 327.90455786 5.13037109 325.80639648 C6.19126953 325.05358398 7.25216797 324.30077148 8.34521484 323.52514648 C16.64971217 318.38657453 24.95095642 316.71303022 34.59594727 316.79223633 C35.67710312 316.78511124 36.75825897 316.77798615 37.87217712 316.77064514 C41.41025554 316.75150282 44.94772754 316.75961677 48.48583984 316.76733398 C50.96202967 316.75741766 53.43821213 316.74547287 55.91438293 316.7315979 C62.40989335 316.69933159 68.90523521 316.68885196 75.40081787 316.68475342 C85.80655986 316.6759757 96.21216412 316.64042271 106.61779213 316.59257889 C110.2427401 316.58002651 113.86751219 316.58074859 117.49247742 316.58285522 C119.72097915 316.57627319 121.94947968 316.56926659 124.17797852 316.56176758 C125.17921753 316.56589157 126.18045654 316.57001556 127.21203613 316.57426453 C134.2249984 316.5339976 142.81201635 316.3509478 148.19287109 311.30639648 C149.68750117 303.69737064 146.12066962 298.62439523 142.19287109 292.30639648 C141.74766113 291.58919434 141.30245117 290.87199219 140.84375 290.13305664 C137.33541012 284.49718328 133.77004076 278.89873272 130.19287109 273.30639648 C125.45989019 265.89679554 120.7790465 258.45663636 116.13037109 250.99389648 C110.62685672 242.17184508 105.07388711 233.38335951 99.47729492 224.62011719 C95.70980572 218.71284302 91.98389831 212.78107307 88.28076172 206.83325195 C85.79020851 202.83411738 83.29105863 198.84043032 80.78759766 194.84936523 C79.81346834 193.29600777 78.84103346 191.74158397 77.87158203 190.18530273 C71.07071877 179.23455687 71.07071877 179.23455687 60.31787109 172.68139648 C56.21558885 171.91818118 53.23404708 172.96909077 49.46630859 174.57983398 C42.49914212 179.87104976 38.2749232 188.83835622 33.81787109 196.18139648 C33.12087294 197.3227726 32.42343549 198.46388056 31.72558594 199.60473633 C30.27545621 201.97624723 28.82721201 204.34889339 27.38037109 206.72241211 C23.87567234 212.46865128 20.3461783 218.1996322 16.81787109 223.93139648 C16.14393311 225.02677734 15.46999512 226.1221582 14.77563477 227.25073242 C9.07696034 236.50764819 3.32219847 245.72806879 -2.45703125 254.93481445 C-9.9424815 266.86481426 -17.36968625 278.82548876 -24.67504883 290.86669922 C-30.13032867 299.85462888 -35.66152811 308.79435081 -41.20703125 317.72680664 C-42.80151994 320.29735402 -44.39278738 322.86986518 -45.98291016 325.44311523 C-51.6689284 334.64328774 -57.37958865 343.82732353 -63.11962891 352.99389648 C-70.40045108 364.62574024 -77.59712851 376.30835554 -84.77783203 388.00219727 C-110.44385325 429.79285309 -110.44385325 429.79285309 -121.99560547 448.20019531 C-124.36393621 451.97872461 -126.70757966 455.77123939 -129.03369141 459.57592773 C-141.66775656 480.21885988 -153.36597181 498.10314679 -177.80712891 505.30639648 C-180.63141441 505.56366539 -180.63141441 505.56366539 -183.59994507 505.57382202 C-185.29884132 505.58661697 -185.29884132 505.58661697 -187.03205872 505.59967041 C-188.2602684 505.59876404 -189.48847809 505.59785767 -190.75390625 505.59692383 C-192.71104301 505.60699966 -192.71104301 505.60699966 -194.7077179 505.61727905 C-198.27598666 505.63489644 -201.84415942 505.6396326 -205.41246748 505.64091063 C-207.64480676 505.64233509 -209.87712185 505.64661026 -212.10945511 505.65190506 C-219.90583081 505.67039058 -227.70213826 505.67857745 -235.49853516 505.67700195 C-242.75246091 505.67580065 -250.00608908 505.69690448 -257.25993955 505.72848928 C-263.49963853 505.75468483 -269.7392405 505.7653679 -275.97899401 505.76409113 C-279.70051273 505.7635825 -283.42176676 505.76921073 -287.14323044 505.79044724 C-291.29621313 505.81350087 -295.44853328 505.80428878 -299.6015625 505.79223633 C-300.82572372 505.80347534 -302.04988495 505.81471436 -303.31114197 505.82629395 C-311.073297 505.76908571 -316.92478485 505.00349947 -322.77197266 499.43530273 C-325.08679345 494.67463356 -324.49405126 489.42602295 -323.80712891 484.30639648 C-322.36728478 480.27240283 -320.11905988 476.89791402 -317.80712891 473.30639648 C-316.44491336 471.05250067 -315.09974149 468.78881147 -313.75341797 466.52539062 C-312.2064053 463.9297637 -310.6466379 461.34214722 -309.08447266 458.75561523 C-305.7912542 453.29251532 -302.54544735 447.80216618 -299.30712891 442.30639648 C-293.6395486 432.69530483 -287.91400472 423.12014912 -282.16210938 413.55932617 C-279.77791352 409.59511728 -277.39926994 405.62757859 -275.02001953 401.66040039 C-273.25202712 398.71294998 -271.48254194 395.76642105 -269.70947266 392.82202148 C-265.26847711 385.44204215 -260.87095761 378.03741722 -256.49462891 370.61889648 C-248.96552999 357.86234594 -241.37035349 345.14731876 -233.66259766 332.49780273 C-226.90334773 321.40228938 -220.1590948 310.30812544 -213.69311523 299.0378418 C-210.02117514 292.64447708 -206.23853525 286.32174944 -202.43359375 280.00683594 C-198.62902492 273.68859989 -194.86586587 267.34687634 -191.11962891 260.99389648 C-186.0547905 252.40737768 -180.95117044 243.84565177 -175.80712891 235.30639648 C-169.80458373 225.34146392 -163.86182271 215.3420061 -157.93640137 205.33102417 C-153.64423909 198.08049288 -149.33869148 190.83849782 -144.99462891 183.61889648 C-138.86651948 173.43406035 -132.80433907 163.2102519 -126.7434082 152.98535156 C-120.52480399 142.49729068 -114.25650422 132.03975852 -107.97119141 121.59155273 C-100.84934703 109.75133079 -93.79054242 97.87407636 -86.74511719 85.98828125 C-82.14663355 78.23265038 -77.52675245 70.49036782 -72.88183594 62.76245117 C-71.03109951 59.68246134 -69.18920103 56.597255 -67.34890747 53.51101685 C-63.40657216 46.90024305 -59.36900865 40.35404954 -55.2565918 33.84765625 C-53.35037686 30.82239716 -51.51537292 27.79370192 -49.80322266 24.65405273 C-42.57054132 12.52409597 -29.52424509 4.46494796 -16.09614944 0.72785759 C-10.80457738 -0.24644202 -5.36186434 0.00273952 0 0 Z " fill="#CC000C" transform="translate(908.80712890625,11.693603515625)"/>
<path d="M0 0 C1.86090271 -0.00065712 1.86090271 -0.00065712 3.75939941 -0.00132751 C7.11618571 0.00038738 10.47239783 0.01528736 13.82908273 0.03639436 C17.35374477 0.05532568 20.8784169 0.05692441 24.40312195 0.06047058 C31.0574213 0.06974326 37.71157033 0.09429125 44.3658039 0.12451905 C51.94997845 0.15821315 59.5341607 0.17458654 67.11839163 0.18960536 C82.70100332 0.22084594 98.28346557 0.2735119 113.8659668 0.34057617 C113.98064035 46.0316589 114.06863117 91.72272628 114.12129344 137.41392478 C114.12754629 142.81940712 114.13401797 148.22488918 114.140625 153.63037109 C114.14193655 154.70641588 114.1432481 155.78246067 114.1445994 156.89111287 C114.16630169 174.26922418 114.2056944 191.64725202 114.25173078 209.02531397 C114.29864 226.88301544 114.32629263 244.74067348 114.33640927 262.59843403 C114.34323856 273.6001303 114.36473545 284.60159055 114.40554913 295.60321409 C114.4321665 303.16767047 114.43992527 310.73200646 114.43347368 318.29650616 C114.43030003 322.64801226 114.43484403 326.99910866 114.46199417 331.35054016 C114.71527341 374.11591275 105.33790157 415.13162948 76.8659668 448.34057617 C75.90274333 449.49861268 74.94057738 450.65752929 73.97924805 451.81713867 C68.6715087 458.17616533 63.44074552 464.25217482 56.8659668 469.34057617 C56.31457031 469.7757959 55.76317383 470.21101563 55.19506836 470.65942383 C22.2551322 496.57251513 -12.8186764 506.02358866 -54.40656638 505.86347485 C-57.96358319 505.85425936 -61.52052838 505.86847396 -65.07752991 505.87939453 C-72.01176196 505.89701209 -78.94581906 505.89341566 -85.88005745 505.88174397 C-91.52482461 505.87264296 -97.16954337 505.87151413 -102.8143158 505.87583923 C-103.62329047 505.87645217 -104.43226514 505.8770651 -105.26575419 505.8776966 C-106.9101021 505.87897574 -108.55445 505.8802726 -110.19879788 505.88158697 C-125.5522502 505.89294365 -140.90560638 505.87995673 -156.25904292 505.8583855 C-169.3809953 505.84051901 -182.50280603 505.84362451 -195.62475586 505.86206055 C-210.93009212 505.88355469 -226.23534451 505.89184547 -241.54069376 505.87961149 C-243.17837936 505.87833754 -244.81606498 505.87708005 -246.45375061 505.87583923 C-247.25914204 505.87522213 -248.06453348 505.87460503 -248.89433071 505.87396923 C-254.52038983 505.87054183 -260.14639493 505.87628769 -265.77244568 505.88575745 C-272.64582916 505.89707444 -279.51903039 505.89373682 -286.39239347 505.87263447 C-289.88706425 505.86225245 -293.38143324 505.85777657 -296.87610054 505.87123108 C-336.91378174 505.98795544 -376.47833999 496.92759576 -406.1340332 468.34057617 C-407.52296132 467.12431188 -408.91848104 465.91551983 -410.3215332 464.71557617 C-431.46061197 446.14519025 -445.8704587 421.34250721 -454.9465332 394.90307617 C-455.21232178 394.14293213 -455.47811035 393.38278809 -455.75195312 392.59960938 C-456.64353324 389.86713073 -457.39735673 387.11905786 -458.1340332 384.34057617 C-458.48997559 383.07938965 -458.84591797 381.81820313 -459.21264648 380.51879883 C-463.42608508 363.9904712 -462.59637001 346.97293223 -462.40869141 330.05438232 C-462.36715136 325.90377063 -462.34937339 321.75305628 -462.3293457 317.60229492 C-462.28694628 309.5147802 -462.21903561 301.42775507 -462.1340332 293.34057617 C-444.90440262 293.29370508 -427.67479213 293.25851367 -410.44511223 293.23695183 C-402.44377375 293.22667097 -394.44247505 293.21267219 -386.44116211 293.18969727 C-379.46133715 293.16966511 -372.48154103 293.1568366 -365.50168812 293.15239918 C-361.81125829 293.14980831 -358.12091089 293.14378646 -354.43050766 293.12911606 C-350.29502569 293.11281208 -346.15968399 293.11260273 -342.02416992 293.11352539 C-340.82150482 293.10633484 -339.61883972 293.09914429 -338.37973022 293.09173584 C-324.79003673 293.12431731 -309.27795997 293.41045268 -298.9230957 303.27026367 C-290.98664257 312.45436882 -290.21621999 323.58845519 -289.85131836 335.22045898 C-289.13708061 357.43363084 -283.44536356 376.74270875 -266.9465332 392.52807617 C-254.56856376 403.1468479 -240.71705911 405.48017246 -225.02685547 405.51757812 C-223.82258408 405.52414932 -222.61831268 405.53072052 -221.37754822 405.53749084 C-217.40185163 405.55715952 -213.42616836 405.56888553 -209.45043945 405.57885742 C-208.07295145 405.5829105 -206.69546363 405.58702758 -205.317976 405.5912075 C-198.83919158 405.61023633 -192.36041835 405.62446881 -185.88161141 405.63281947 C-178.44635003 405.64256545 -171.01138843 405.66882511 -163.57623249 405.70932037 C-157.80178908 405.73967175 -152.02743064 405.75430642 -146.25290912 405.75760049 C-142.81728465 405.75993052 -139.38198117 405.76861807 -135.94644356 405.79406166 C-109.09041107 406.26945826 -109.09041107 406.26945826 -85.1340332 395.34057617 C-84.37864258 394.78885742 -83.62325195 394.23713867 -82.8449707 393.66870117 C-69.19373875 382.69142187 -62.12381741 365.1475945 -59.1340332 348.34057617 C-58.7604152 344.06580345 -58.73305109 339.82959762 -58.76222229 335.54046631 C-58.75839773 334.32037125 -58.75457316 333.10027619 -58.7506327 331.84320855 C-58.74301715 328.49614428 -58.74858698 325.14959333 -58.75992954 321.80257297 C-58.7688536 318.1773452 -58.76025858 314.55215262 -58.75372314 310.92692566 C-58.74460129 304.65529744 -58.74586905 298.38374255 -58.75390816 292.11211395 C-58.76518728 283.02609038 -58.75605622 273.94017019 -58.74134635 264.85415557 C-58.71761459 250.08514521 -58.7042155 235.31614765 -58.70019531 220.54711914 C-58.69995044 219.66473612 -58.69970558 218.7823531 -58.69945329 217.8732312 C-58.69690859 208.03387508 -58.69634012 198.19451994 -58.6973877 188.35516357 C-58.69772073 184.78861491 -58.69800613 181.22206625 -58.69824219 177.65551758 C-58.69833637 176.33539095 -58.69833637 176.33539095 -58.69843245 174.9885951 C-58.69903875 160.27644213 -58.68409683 145.56434818 -58.65740913 130.85221982 C-58.6416662 121.79742464 -58.63928042 112.7428209 -58.65454315 103.6880239 C-58.66405646 97.47586003 -58.6591786 91.26381094 -58.64332933 85.05166045 C-58.63469272 81.47678627 -58.63235372 77.90221797 -58.64785576 74.32736015 C-58.79689319 37.44149475 -58.79689319 37.44149475 -48.1340332 21.34057617 C-47.4224707 20.23456055 -47.4224707 20.23456055 -46.6965332 19.10620117 C-39.39450264 8.55000481 -28.88264969 3.69007846 -16.68696022 0.96762657 C-11.10712412 -0.01714977 -5.65260768 -0.053443 0 0 Z " fill="#CC000C" transform="translate(462.134033203125,11.659423828125)"/>
</svg>
