<?xml version="1.0" encoding="UTF-8"?>
<svg version="1.1" xmlns="http://www.w3.org/2000/svg" width="2000" height="1022">
<path d="M0 0 C3.87480579 0.01700053 7.74898857 0.00696552 11.62377262 -0.01032925 C33.4098722 -0.09241246 54.87877481 1.15265371 76.54589844 3.39111328 C77.2872617 3.46711573 78.02862495 3.54311817 78.79245377 3.62142372 C172.22606078 13.21374508 263.91767546 36.21017115 520.73339844 123.76611328 C521.75396332 124.17459503 522.7745282 124.58307678 523.82601929 125.00393677 C544.95594 133.47475331 565.97462065 142.20530732 586.85839844 151.26611328 C587.63928833 151.6042807 588.42017822 151.94244812 589.22473145 152.29086304 C601.62622948 157.6618064 613.99121746 163.11029734 626.33105469 168.62158203 C631.30268312 170.84137524 636.28490359 173.03575688 641.27246094 175.21948242 C657.63758572 182.38597135 673.91694082 189.741798 690.20343018 197.08470154 C695.4769337 199.46143005 700.7537208 201.83066118 706.03417969 204.19189453 C706.68814728 204.48443115 707.34211487 204.77696777 708.01589966 205.07836914 C710.99299994 206.40988371 713.97064319 207.74014627 716.94921875 209.06835938 C730.58102961 215.16329162 744.06164285 221.57524548 757.54779053 227.98394775 C769.305337 233.56999771 781.06930583 239.13177515 792.92089844 244.51611328 C799.69762807 247.59773832 806.41261521 250.75532141 813.05004883 254.1262207 C819.94150332 257.61869485 826.89977513 260.97266658 833.85839844 264.32861328 C834.49090515 264.63378876 835.12341187 264.93896423 835.77508545 265.25338745 C844.11651031 269.27635075 852.46608906 273.2818907 860.85766602 277.19946289 C867.76634639 280.44307433 874.57344542 283.89163061 881.39480591 287.31365967 C884.88586559 289.06228499 888.38212887 290.80042929 891.87792969 292.53955078 C906.12686519 299.63502433 920.35917725 306.7423246 934.39941406 314.24511719 C943.93568896 319.33648142 953.48438724 324.4031404 963.17089844 329.20361328 C979.18466311 337.15729374 995.01079783 345.41942715 1010.52856445 354.30395508 C1018.45412152 358.82274171 1026.48376309 363.12318504 1034.54589844 367.39111328 C1046.37588564 373.65813003 1058.06675261 380.13325139 1069.69335938 386.77148438 C1073.72318904 389.05956123 1077.77247161 391.31219999 1081.82104492 393.56689453 C1092.21632273 399.35801046 1102.53792719 405.26044483 1112.80297852 411.27929688 C1119.23394479 415.04915543 1125.69026207 418.76987032 1132.17089844 422.45361328 C1139.27172933 426.49439911 1146.32985771 430.60086647 1153.35839844 434.76611328 C1154.26477051 435.30300781 1155.17114258 435.83990234 1156.10498047 436.39306641 C1157.02005371 436.93511719 1157.93512695 437.47716797 1158.87792969 438.03564453 C1183.39786144 452.55823413 1208.19972884 466.36110224 1233.54589844 479.39111328 C1234.42117188 479.84309082 1235.29644531 480.29506836 1236.19824219 480.76074219 C1252.70017039 489.25675372 1269.55620159 496.93130711 1286.54589844 504.39111328 C1287.52929199 504.82649414 1288.51268555 505.261875 1289.52587891 505.71044922 C1321.83660422 519.89103796 1360.05960828 524.82516671 1393.79589844 512.64111328 C1398.69072005 510.52002392 1403.08633577 507.65678656 1407.58496094 504.80908203 C1412.50710693 501.75122802 1417.58758368 498.98224107 1422.67089844 496.20361328 C1423.57678711 495.70474609 1424.48267578 495.20587891 1425.41601562 494.69189453 C1448.67562447 482.04001327 1448.67562447 482.04001327 1461.67089844 485.64111328 C1468.03647157 487.73042716 1472.86671896 490.68204168 1476.54589844 496.39111328 C1479.77029102 503.22629259 1480.33400628 509.20966442 1477.85839844 516.38330078 C1475.18119979 522.33528706 1471.0140089 527.67155071 1466.54589844 532.39111328 C1465.88589844 532.39111328 1465.22589844 532.39111328 1464.54589844 532.39111328 C1464.50851562 531.59447266 1464.47113281 530.79783203 1464.43261719 529.97705078 C1464.04676347 521.71397962 1464.04676347 521.71397962 1460.54589844 514.39111328 C1455.89934621 510.29772204 1451.60633686 509.05927371 1445.54589844 509.39111328 C1431.298217 511.71372802 1417.94076489 518.42419434 1405.29589844 525.14111328 C1380.51278229 537.72798488 1346.20033704 539.56518578 1319.54589844 532.39111328 C1318.57958496 532.13297852 1318.57958496 532.13297852 1317.59375 531.86962891 C1301.67289326 527.45791848 1286.60448341 520.08751943 1271.54589844 513.39111328 C1269.60851676 512.53667828 1267.67102876 511.68248427 1265.73339844 510.82861328 C1264.04545279 510.07961679 1262.35791643 509.32969685 1260.67089844 508.57861328 C1259.96723145 508.26690186 1259.26356445 507.95519043 1258.53857422 507.6340332 C1245.8063573 501.90144167 1233.42332409 495.34856831 1221.00878906 488.96386719 C1219.61402834 488.247242 1218.21851598 487.53207786 1216.82226562 486.81835938 C1207.24258417 481.92143324 1197.83904911 476.81387491 1188.54589844 471.39111328 C1187.35646982 470.69917661 1186.16701641 470.00728258 1184.97753906 469.31542969 C1181.35009911 467.2022939 1177.72878115 465.07881049 1174.10839844 462.95361328 C1173.47393799 462.58160797 1172.83947754 462.20960266 1172.18579102 461.82632446 C1165.28415823 457.77951907 1158.39004068 453.72218463 1151.54589844 449.57861328 C1144.05751325 445.05945989 1136.45531238 440.74500422 1128.85449219 436.41845703 C1124.01000165 433.65980096 1119.18075449 430.87574579 1114.35839844 428.07861328 C1112.79720818 427.17365215 1111.23601003 426.26870464 1109.67480469 425.36376953 C1108.85898926 424.89084473 1108.04317383 424.41791992 1107.20263672 423.93066406 C1090.03939591 413.9847537 1072.84568203 404.09794181 1055.54589844 394.39111328 C1054.76875488 393.95492676 1053.99161133 393.51874023 1053.19091797 393.06933594 C1040.0508771 385.70551579 1026.80633402 378.5352938 1013.54589844 371.39111328 C1012.42296387 370.7857373 1011.3000293 370.18036133 1010.14306641 369.55664062 C995.59744862 361.72092715 981.00206603 353.99013829 966.33105469 346.39111328 C961.01775283 343.63900064 955.71559061 340.86634484 950.42089844 338.07861328 C949.65148926 337.67360596 948.88208008 337.26859863 948.08935547 336.85131836 C944.03116666 334.71166573 939.98083441 332.55831369 935.94213867 330.38208008 C930.43416758 327.43223405 924.9071898 324.54256935 919.31152344 321.76220703 C917.89779538 321.05759979 916.48414318 320.35284033 915.07055664 319.64794922 C914.33286041 319.28028442 913.59516418 318.91261963 912.83511353 318.53381348 C908.90066313 316.56986642 904.97174464 314.59490727 901.04199219 312.62158203 C884.12760546 304.13514243 867.21529485 295.66370964 850.09619141 287.59570312 C847.37917936 286.31236621 844.66714657 285.01893866 841.95605469 283.72314453 C832.51625901 279.21182908 823.06409466 274.7352251 813.54589844 270.39111328 C814.21794312 271.05530273 814.21794312 271.05530273 814.90356445 271.73291016 C816.9745994 273.78288011 819.04150541 275.83696761 821.10839844 277.89111328 C821.81287109 278.58720703 822.51734375 279.28330078 823.24316406 280.00048828 C827.3339132 284.07238604 831.24521233 288.2355471 835.01147461 292.609375 C836.93857114 294.84707596 838.928424 297.0241058 840.92089844 299.20361328 C843.97787864 302.58996509 846.92433299 306.03386033 849.79589844 309.57861328 C858.84851777 320.71067712 868.18879248 331.31307315 878.5168457 341.28833008 C879.49995728 342.24606323 879.49995728 342.24606323 880.50292969 343.22314453 C881.09050049 343.78751221 881.67807129 344.35187988 882.28344727 344.93334961 C883.54589844 346.39111328 883.54589844 346.39111328 883.54589844 348.39111328 C884.20589844 348.39111328 884.86589844 348.39111328 885.54589844 348.39111328 C885.54589844 349.05111328 885.54589844 349.71111328 885.54589844 350.39111328 C886.53589844 350.72111328 887.52589844 351.05111328 888.54589844 351.39111328 C888.54589844 352.05111328 888.54589844 352.71111328 888.54589844 353.39111328 C889.53589844 353.72111328 890.52589844 354.05111328 891.54589844 354.39111328 C891.54589844 355.05111328 891.54589844 355.71111328 891.54589844 356.39111328 C892.53589844 356.72111328 893.52589844 357.05111328 894.54589844 357.39111328 C894.54589844 358.05111328 894.54589844 358.71111328 894.54589844 359.39111328 C895.20589844 359.39111328 895.86589844 359.39111328 896.54589844 359.39111328 C898.17089844 360.76611328 898.17089844 360.76611328 899.54589844 362.39111328 C899.54589844 363.05111328 899.54589844 363.71111328 899.54589844 364.39111328 C900.37492676 364.73335938 900.37492676 364.73335938 901.22070312 365.08251953 C904.21836246 366.76956847 906.31354904 368.89923846 908.74902344 371.32861328 C909.23167664 371.80935303 909.71432983 372.29009277 910.21160889 372.78540039 C911.22588908 373.79832421 912.23766648 374.81375966 913.24707031 375.83154297 C914.79761816 377.39284493 916.35860347 378.94313825 917.92089844 380.49267578 C918.90591577 381.47901389 919.89031297 382.46597178 920.87402344 383.45361328 C921.77024414 384.35208984 922.66646484 385.25056641 923.58984375 386.17626953 C925.54589844 388.39111328 925.54589844 388.39111328 925.54589844 390.39111328 C905.37687113 383.29827264 887.01648567 366.64301299 870.54589844 353.39111328 C869.58167969 352.62154297 868.61746094 351.85197266 867.62402344 351.05908203 C859.19883562 344.26419186 851.16211721 337.08295408 843.54589844 329.39111328 C840.48611831 326.30506895 837.42276677 323.22260099 834.35839844 320.14111328 C833.53919922 319.31353516 832.72 318.48595703 831.87597656 317.63330078 C831.09287109 316.84697266 830.30976562 316.06064453 829.50292969 315.25048828 C828.43522339 314.17492676 828.43522339 314.17492676 827.34594727 313.07763672 C825.64165067 311.32016157 825.64165067 311.32016157 823.54589844 310.39111328 C823.54589844 309.73111328 823.54589844 309.07111328 823.54589844 308.39111328 C822.94519531 308.12169922 822.34449219 307.85228516 821.72558594 307.57470703 C819.5311097 306.38308284 818.33257765 305.29044246 816.67089844 303.45361328 C800.61056899 287.0197878 779.47215831 275.39031472 759.54589844 264.39111328 C758.43432373 263.77042969 758.43432373 263.77042969 757.30029297 263.13720703 C721.39269928 243.14179993 686.14033765 234.2635803 645.17089844 240.73486328 C641.59355131 241.28877509 638.17498031 241.53436651 634.54589844 241.39111328 C634.54589844 240.07111328 634.54589844 238.75111328 634.54589844 237.39111328 C658.44593916 226.34639749 684.640902 224.95473303 710.54589844 223.39111328 C672.72064048 207.82121734 634.53683208 193.23164717 595.84155273 179.95996094 C584.28573032 175.98480743 572.79379648 171.83360324 561.29638672 167.69335938 C551.610871 164.20614677 541.91709572 160.74437659 532.2102356 157.31704712 C522.08062576 153.74038037 511.98384704 150.0891057 501.92089844 146.32861328 C488.54033502 141.33918425 475.06662691 136.64595217 461.54071045 132.06689453 C459.4887179 131.37174227 457.43744187 130.67450434 455.38623047 129.97705078 C381.39459866 98.4712205 381.39459866 98.4712205 308.14355469 91.36376953 C307.61632812 91.70279297 307.08910156 92.04181641 306.54589844 92.39111328 C307.39861328 93.82777344 307.39861328 93.82777344 308.26855469 95.29345703 C312.46491747 102.48200893 316.33652081 109.70389382 319.54589844 117.39111328 C319.83601807 118.07165771 320.1261377 118.75220215 320.42504883 119.45336914 C322.30814624 124.11305415 323.09888701 128.38458527 323.54589844 133.39111328 C319.56063026 131.81010314 317.05316491 129.00198944 314.17089844 125.95361328 C257.76281178 68.1259623 159.90163314 37.45805589 80.48339844 35.20361328 C61.56707632 35.50103973 46.17529794 45.10571277 32.40917969 57.31298828 C30.51700503 59.42333822 29.9140812 60.62038199 29.54589844 63.39111328 C31.4823589 65.0381822 33.42004735 66.68377158 35.35839844 68.32861328 C35.95297852 68.83440918 36.54755859 69.34020508 37.16015625 69.86132812 C40.6513977 72.82169935 44.19369162 75.69096186 47.79589844 78.51611328 C59.57858364 88.12193876 70.31305225 99.32827593 79.54589844 111.39111328 C80.36316406 112.41462891 81.18042969 113.43814453 82.02246094 114.49267578 C97.54589844 134.03853491 97.54589844 134.03853491 97.54589844 140.39111328 C93.69961678 138.79301034 91.16407699 136.31148376 88.17089844 133.45361328 C58.53301917 105.74027163 22.58059271 85.47575122 -17.18115234 77.2097168 C-30.32854764 74.43514011 -44.16087145 70.57865289 -53.57910156 60.32861328 C-55.55803327 57.22828694 -56.19378623 55.03552791 -56.45410156 51.39111328 C-55.80183594 51.52388672 -55.14957031 51.65666016 -54.47753906 51.79345703 C-53.60355469 51.97005859 -52.72957031 52.14666016 -51.82910156 52.32861328 C-50.97058594 52.50263672 -50.11207031 52.67666016 -49.22753906 52.85595703 C-48.31230469 53.03255859 -47.39707031 53.20916016 -46.45410156 53.39111328 C-45.56722656 53.57158203 -44.68035156 53.75205078 -43.76660156 53.93798828 C-19.12598364 57.30863885 4.45514384 50.9045265 24.54589844 36.39111328 C30.24870102 32.13048111 30.24870102 32.13048111 35.54589844 27.39111328 C33.02563467 27.07338113 30.50481581 26.7619566 27.98339844 26.45361328 C26.95569336 26.3230957 26.95569336 26.3230957 25.90722656 26.18994141 C11.26710739 24.41737092 -3.32986031 24.20472998 -18.05688477 24.20581055 C-21.35413812 24.20363797 -24.65104825 24.18545754 -27.94824219 24.16650391 C-72.60604703 24.047093 -130.01973349 27.65970481 -165.45410156 58.39111328 C-166.11410156 59.05111328 -166.77410156 59.71111328 -167.45410156 60.39111328 C-167.43743828 62.8943566 -167.43743828 62.8943566 -166.45410156 65.39111328 C-164.49727276 67.21449081 -164.49727276 67.21449081 -162.45410156 68.39111328 C-162.20660156 67.50423828 -161.95910156 66.61736328 -161.70410156 65.70361328 C-158.57373225 57.40813461 -151.29468673 51.7648495 -143.81347656 47.44970703 C-132.99454383 42.59551702 -120.06345502 45.38581444 -109.45410156 49.39111328 C-107.76054977 50.34487431 -106.08290938 51.3305649 -104.45410156 52.39111328 C-107.90914369 65.48390449 -116.03015206 72.94914195 -127.41113281 79.83642578 C-137.58005946 85.68496315 -147.9195619 89.29420385 -159.15551758 92.56518555 C-175.29054751 97.30430444 -190.2111942 104.6800737 -199.45410156 119.39111328 C-200.88714221 122.25719457 -200.76054312 124.20412111 -200.45410156 127.39111328 C-197.26351805 133.7722803 -191.87428766 137.79017511 -185.51660156 140.76611328 C-179.67382777 141.9585161 -174.68657946 142.46459892 -169.32910156 139.45361328 C-161.14134669 133.47725203 -156.3841248 124.17800503 -151.51660156 115.51611328 C-136.35219207 88.55334668 -136.35219207 88.55334668 -123.87207031 84.89501953 C-114.19957259 82.87926475 -105.0599914 84.88394752 -96.76660156 90.14111328 C-87.27007147 96.99600296 -81.38655848 105.11348208 -78.07910156 116.51611328 C-75.29355503 133.78650176 -82.68529954 150.34968499 -92.51269531 164.31689453 C-94.7248007 167.12160063 -97.03338055 169.76429373 -99.45410156 172.39111328 C-99.91913086 172.89852051 -100.38416016 173.40592773 -100.86328125 173.92871094 C-109.21370779 182.93895807 -118.46550153 190.27471659 -128.45410156 197.39111328 C-128.18471964 199.83370002 -128.18471964 199.83370002 -127.45410156 202.39111328 C-122.82387962 205.28500199 -119.14343316 205.89405772 -113.77050781 205.01220703 C-101.77158566 201.79495809 -93.76457048 191.75070576 -87.14160156 181.82861328 C-86.71121582 181.18384033 -86.28083008 180.53906738 -85.83740234 179.87475586 C-83.57940157 176.39814445 -81.89970429 173.07611435 -80.39160156 169.20361328 C-78.63010771 165.84987943 -77.50907808 165.41015046 -73.83300781 164.13720703 C-70.86811023 163.41033988 -67.88424061 162.83316923 -64.88378906 162.27392578 C-51.39996331 159.75547829 -37.13020547 153.26188177 -28.45410156 142.39111328 C-21.76432681 132.12680216 -21.56140066 121.61157015 -23.70410156 109.89111328 C-25.23555192 102.66208697 -27.35815707 96.53503002 -31.45410156 90.39111328 C-31.45410156 89.40111328 -31.45410156 88.41111328 -31.45410156 87.39111328 C-17.10744006 89.70509094 -6.02129871 99.02838044 2.60839844 110.45361328 C4.91700348 113.76513691 7.01002435 117.15635622 9.01464844 120.65673828 C9.44511475 121.40689209 9.87558105 122.1570459 10.3190918 122.92993164 C11.1550788 124.40418784 11.97715524 125.88645364 12.7824707 127.37768555 C16.77597493 134.50817167 21.65027335 139.24326179 29.49658203 141.83105469 C32.20605735 142.5715284 34.92280254 143.15141599 37.68286133 143.66918945 C66.40029437 149.07364857 92.54631457 165.88678449 114.05078125 185.06787109 C116.75206437 187.45862134 119.52740941 189.76468527 122.28808594 192.08642578 C123.54589844 193.39111328 123.54589844 193.39111328 123.54589844 195.39111328 C124.53589844 195.72111328 125.52589844 196.05111328 126.54589844 196.39111328 C126.54589844 197.05111328 126.54589844 197.71111328 126.54589844 198.39111328 C127.53589844 198.72111328 128.52589844 199.05111328 129.54589844 199.39111328 C129.54589844 200.05111328 129.54589844 200.71111328 129.54589844 201.39111328 C130.20589844 201.39111328 130.86589844 201.39111328 131.54589844 201.39111328 C132.94189239 202.91948598 134.26177493 204.51761427 135.54589844 206.14111328 C136.73505859 207.62804687 136.73505859 207.62804687 137.94824219 209.14501953 C138.36831543 209.67240723 138.78838867 210.19979492 139.22119141 210.74316406 C141.47961348 213.55266443 143.79508428 216.31428608 146.10839844 219.07861328 C146.96389197 220.10333218 147.81936292 221.12806992 148.67480469 222.15283203 C149.29226563 222.89146484 149.90972656 223.63009766 150.54589844 224.39111328 C150.21589844 225.05111328 149.88589844 225.71111328 149.54589844 226.39111328 C146.85302257 225.11873219 144.52461122 223.73039458 142.16699219 221.91455078 C128.94473348 211.9409686 114.9050904 203.58683096 100.54589844 195.39111328 C99.74297363 194.92688965 98.94004883 194.46266602 98.11279297 193.984375 C60.27886203 172.22964742 18.0926789 160.46779632 -24.66894531 171.98779297 C-47.90634027 178.50130519 -68.27048858 190.73765735 -84.97973633 207.97705078 C-94.31640656 217.50033245 -104.33475583 224.12705461 -117.95410156 224.89111328 C-124.92213365 224.64506695 -130.33367103 222.26215268 -135.45800781 217.54736328 C-140.96283215 211.17460768 -145.52798872 202.18715003 -145.41894531 193.63330078 C-144.5865388 189.3943231 -143.027725 186.82261119 -140.45410156 183.39111328 C-140.73595581 180.50210723 -141.53525824 178.14764325 -142.45410156 175.39111328 C-142.58191942 172.71716364 -142.49802027 170.07015471 -142.45410156 167.39111328 C-138.13392926 166.12047437 -135.59117131 166.71868083 -131.45410156 168.39111328 C-130.50470703 168.92091797 -130.50470703 168.92091797 -129.53613281 169.46142578 C-125.76607401 171.14486667 -122.33101349 170.56632217 -118.45410156 169.39111328 C-110.88069984 164.88280881 -105.59404659 156.78336939 -103.01660156 148.45361328 C-101.10330593 138.4037762 -104.06455607 129.8552317 -109.45410156 121.39111328 C-112.67193379 117.33169416 -116.20326074 113.39127344 -121.45410156 112.39111328 C-126.11984083 112.49199413 -130.45787651 112.81685788 -134.45410156 115.39111328 C-140.93878964 123.6753023 -146.23124651 135.69692297 -145.45410156 146.39111328 C-144.62637309 149.03100457 -143.59779844 151.47495419 -142.45410156 153.99267578 C-140.97805791 157.53287424 -140.5908066 160.56337215 -140.45410156 164.39111328 C-143.07248577 167.00949749 -144.36477125 166.74932705 -148.01660156 166.82861328 C-154.40775288 166.73687427 -158.2200654 164.83591115 -163.45410156 161.39111328 C-168.38616136 158.6291598 -171.84139391 158.2816757 -177.51660156 158.14111328 C-189.34921945 157.57765529 -199.34790032 151.8939772 -207.43847656 143.27783203 C-225.11716313 121.2576981 -225.11716313 121.2576981 -224.82397461 111.8449707 C-223.49819107 103.0492939 -217.35840366 96.51463081 -211.20410156 90.57861328 C-210.42357422 89.81178223 -209.64304688 89.04495117 -208.83886719 88.25488281 C-188.23449888 68.39111328 -188.23449888 68.39111328 -182.45410156 68.39111328 C-182.53660156 67.11236328 -182.61910156 65.83361328 -182.70410156 64.51611328 C-182.64269782 56.68099529 -179.97323179 50.60501134 -174.64160156 44.89111328 C-130.50787868 4.19080806 -56.90522927 -0.25174523 0 0 Z M-147.82910156 65.95361328 C-149.98994281 68.35185805 -149.98994281 68.35185805 -150.45410156 71.39111328 C-141.72094507 70.98680048 -134.91060906 68.4563173 -128.45410156 62.39111328 C-128.12410156 61.40111328 -127.79410156 60.41111328 -127.45410156 59.39111328 C-136.13672615 58.97397651 -141.76286696 59.19771396 -147.82910156 65.95361328 Z M-203.45410156 99.39111328 C-204.1128125 99.96087891 -204.77152344 100.53064453 -205.45019531 101.11767578 C-207.34239107 102.7515193 -207.34239107 102.7515193 -209.45410156 105.39111328 C-209.49507938 108.20527444 -209.49507938 108.20527444 -208.45410156 110.39111328 C-205.04353887 109.25425905 -204.25475992 108.23779359 -202.01660156 105.51611328 C-200.17631542 103.28471487 -198.56807526 101.47484089 -196.23144531 99.75830078 C-195.64492187 99.30712891 -195.05839844 98.85595703 -194.45410156 98.39111328 C-194.45410156 97.73111328 -194.45410156 97.07111328 -194.45410156 96.39111328 C-193.93589844 96.17197266 -193.41769531 95.95283203 -192.88378906 95.72705078 C-189.48113377 93.85613742 -186.59530132 91.44956531 -183.57910156 89.01611328 C-182.37513997 88.04776568 -181.1694273 87.08159091 -179.96191406 86.11767578 C-179.08841309 85.42013184 -179.08841309 85.42013184 -178.19726562 84.70849609 C-176.51805073 83.43944237 -174.79884593 82.3317776 -173.00878906 81.22705078 C-171.74421875 80.31826172 -171.74421875 80.31826172 -170.45410156 79.39111328 C-170.45410156 78.40111328 -170.45410156 77.41111328 -170.45410156 76.39111328 C-182.23255431 76.39111328 -195.26631257 91.83531486 -203.45410156 99.39111328 Z " fill="#000000" transform="translate(373.4541015625,-0.39111328125)"/>
<path d="M0 0 C3.27046738 1.21652333 6.02627229 2.55466179 8.875 4.5625 C44.18142695 28.56620941 84.66582765 43.55812035 125.20874023 56.12133789 C128.15085141 57.04748659 131.07638252 58.01718297 134 59 C134 59.66 134 60.32 134 61 C123.49094941 63.4897319 113.66944207 64.5007036 102.875 64.375 C102.15733459 64.37034729 101.43966919 64.36569458 100.70025635 64.36090088 C78.40746528 64.19233885 57.08756679 60.35776537 36 53 C36.27263672 53.78697266 36.27263672 53.78697266 36.55078125 54.58984375 C42.34972293 72.46247939 43.3021498 90.43427581 41 109 C55.57089633 117.09299182 70.5513821 123.762156 86 130 C86.92071289 130.37398926 87.84142578 130.74797852 88.79003906 131.13330078 C99.09382502 135.28817688 109.53709534 138.94834371 120.125 142.3125 C121.12466797 142.63822998 122.12433594 142.96395996 123.15429688 143.29956055 C138.3054972 147.97653271 154.29371479 149.5069168 170.05078125 150.671875 C170.88540705 150.73492577 171.72003284 150.79797653 172.57995033 150.86293793 C194.68524856 152.48803779 216.79979417 152.3811029 238.95159912 152.26428223 C243.30603042 152.24506317 247.66041972 152.24111655 252.01488781 152.2375679 C257.31593318 152.23237054 262.61694309 152.21793518 267.91796875 152.203125 C268.88655508 152.20124428 269.85514141 152.19936356 270.85307884 152.19742584 C282.69418744 152.16761902 294.48640968 151.87249284 306.31091309 151.23487854 C312.94826763 150.88298391 319.58571376 150.74303373 326.23168945 150.70483398 C327.62795047 150.69320257 329.02416334 150.67257922 330.42016602 150.64331055 C349.73347315 150.24387878 367.18997933 155.02332811 382 168 C382.61488281 168.53238281 383.22976563 169.06476563 383.86328125 169.61328125 C392.42353262 177.56615337 397.11764953 187.94540968 401.375 198.625 C407.57348192 213.68715089 414.49981597 227.7217505 424 241 C424.70898438 241.99515625 425.41796875 242.9903125 426.1484375 244.015625 C430.67934777 250.21581801 435.49288566 255.92718711 440.73828125 261.52734375 C443 264 443 264 445.16796875 266.75390625 C446.80347373 269.07275347 446.80347373 269.07275347 449 270 C449 270.66 449 271.32 449 272 C449.57878906 272.25265625 450.15757812 272.5053125 450.75390625 272.765625 C453.26941121 274.14805903 454.89837587 275.72986213 456.9375 277.75 C469.40315712 289.14769832 484.53765183 298.27344176 500 305 C500.68562012 305.2995459 501.37124023 305.5990918 502.07763672 305.90771484 C523.47281592 315.08266375 546.14362144 320.55355701 569.41015625 321.55078125 C570.84161987 321.61242966 570.84161987 321.61242966 572.30200195 321.67532349 C582.68808589 322.06758447 593.07664636 322.13398515 603.46875 322.2109375 C604.85426906 322.22169217 604.85426906 322.22169217 606.2677784 322.23266411 C614.96442966 322.29987731 623.66107451 322.36382063 632.35791016 322.40136719 C675.14621161 322.59643672 675.14621161 322.59643672 693 326 C694.23202148 326.22929199 695.46404297 326.45858398 696.73339844 326.69482422 C699.72193307 327.30719935 702.66940738 327.99605406 705.625 328.75 C707.16800781 329.13406006 707.16800781 329.13406006 708.7421875 329.52587891 C743.48957429 338.39994213 768.9725194 353.33026435 794.86474609 377.97363281 C807.3937184 389.86369343 820.09696349 401.71488221 833.86328125 412.17578125 C834.56839844 412.77777344 835.27351563 413.37976563 836 414 C836 414.66 836 415.32 836 416 C832.55778113 414.74065163 829.81363227 413.30457596 826.875 411.125 C792.85341587 386.89523744 754.09375262 366.62052226 713.5625 356.0625 C712.85544922 355.87494141 712.14839844 355.68738281 711.41992188 355.49414062 C696.94366833 352.00887489 681.95387254 351.70455037 667.14511681 351.66447449 C664.10914339 351.65599852 661.07344512 351.63533044 658.03755188 351.61193848 C651.58757689 351.56428194 645.13757368 351.53101461 638.6875 351.5 C631.20784987 351.46397005 623.72833764 351.4215851 616.24881935 351.36405945 C613.29978498 351.34441974 610.35086426 351.33576187 607.40177917 351.32775879 C591.12414111 351.23599705 574.60363661 350.55140775 558.6875 346.875 C557.74567871 346.66109619 556.80385742 346.44719238 555.83349609 346.22680664 C520.32384557 337.82033261 488.19461727 321.01961125 460 298 C459.07791748 297.25145752 459.07791748 297.25145752 458.13720703 296.48779297 C442.7532064 283.88438135 428.17947729 269.73389617 416 254 C414.42034809 252.14269596 412.83676743 250.28872867 411.25 248.4375 C396.44996755 230.60448709 384.10391907 210.96368248 373.45483398 190.3972168 C365.73450491 177.67596975 349.61725721 172.68738663 336.0078125 169.140625 C334.34053471 168.75176995 332.67094155 168.3727973 331 168 C329.87803223 167.73670898 328.75606445 167.47341797 327.60009766 167.20214844 C316.38461677 164.80237269 305.56084651 164.61883617 294.125 164.75 C292.34635843 164.75650326 290.56771166 164.76171445 288.7890625 164.765625 C279.12504087 164.80893336 269.48656452 165.0844519 259.83203125 165.50390625 C243.41235902 166.19807138 226.99395794 166.20261035 210.5625 166.1875 C209.76280666 166.18693855 208.96311333 166.18637711 208.13918686 166.18579865 C148.05866907 166.13313384 86.7388218 164.0801406 30.35522461 140.54345703 C28.01534901 139.78503158 28.01534901 139.78503158 25.86938477 140.72998047 C23.73261 142.11138098 23.73261 142.11138098 21.125 144.6875 C11.68181534 152.90768197 -1.05993056 156.955374 -13 160 C-13.77166504 160.19754883 -14.54333008 160.39509766 -15.33837891 160.59863281 C-38.95192707 166.39412505 -61.57670488 164.82295848 -85 159 C-85.92200195 158.77538086 -86.84400391 158.55076172 -87.79394531 158.31933594 C-115.24166873 151.53395055 -142.61687534 142.05591464 -168.26098633 130.14794922 C-189.86860767 120.12744777 -220.54687135 109.80735426 -244.5234375 115.89453125 C-247.1381664 116.74761226 -247.1381664 116.74761226 -248 119 C-247.96801173 121.00072062 -247.89972376 123.00092565 -247.8125 125 C-247.75971889 132.9523541 -249.36272896 138.91246317 -254.5625 145 C-257 147 -257 147 -260 149 C-259.89300781 148.31035156 -259.78601563 147.62070312 -259.67578125 146.91015625 C-258.84746572 140.41723132 -258.48432338 134.74616632 -262 129 C-264.13645567 126.93185448 -264.13645567 126.93185448 -266.5625 125 C-270.56470677 121.71597063 -272.37044287 119.33911437 -273.046875 114.16796875 C-272.93592632 109.03659238 -270.88719189 105.93046955 -267.4375 102.3125 C-252.58405006 91.13564658 -231.11140447 92.74613736 -213.80078125 95.02685547 C-190.35061364 98.52058431 -167.85740069 104.79088525 -145.56985474 112.71237183 C-122.8641705 120.75306313 -98.98788972 127.33744378 -75 130 C-73.86046875 130.12761719 -72.7209375 130.25523437 -71.546875 130.38671875 C-48.2420877 132.55395139 -22.26063512 131.85343817 -3.19921875 116.5546875 C9.27494601 103.7106688 12.36333582 84.59748506 12.15234375 67.55078125 C11.65830612 48.33230903 7.51853793 29.07307551 1.93066406 10.75097656 C1.68026367 9.92436523 1.42986328 9.09775391 1.171875 8.24609375 C0.9459668 7.52091553 0.72005859 6.7957373 0.48730469 6.04858398 C0 4 0 4 0 0 Z " fill="#000000" transform="translate(718,193)"/>
<path d="M0 0 C121.282 0 121.282 0 139.25 3.75 C140.06662109 3.91846436 140.88324219 4.08692871 141.72460938 4.26049805 C161.78647401 8.64171265 180.90118415 17.78647917 192.47265625 35.40234375 C203.26445313 53.75667859 206.33904942 76.85267387 201.17578125 97.5546875 C197.83513723 107.34355138 192.97209008 117.28820736 186 125 C184.84951172 126.28777344 184.84951172 126.28777344 183.67578125 127.6015625 C174.00140572 137.85498825 162.44082051 144.52569545 150 151 C161.14257139 166.86059712 172.45938078 182.58327652 183.9777832 198.1730957 C187.77850687 203.3236785 191.53423611 208.50270864 195.24072266 213.72143555 C198.09432642 217.7387182 200.97576564 221.73492261 203.86816406 225.72436523 C208.38506743 231.95756171 212.89258636 238.19751392 217.3125 244.5 C218.03050781 245.5209375 218.74851562 246.541875 219.48828125 247.59375 C221 250 221 250 221 252 C169.62558132 256.03492763 169.62558132 256.03492763 159.90722656 249.88623047 C154.30542279 244.60771772 151.59385323 238.20499385 149.13769531 231.01318359 C147.48521543 226.63659417 144.92935884 223.34629157 142 219.75 C138.27862084 214.81328604 134.79422977 209.75744105 131.40234375 204.58984375 C129.45775849 201.65610529 127.45513646 198.76558355 125.44140625 195.87890625 C124.78688477 194.9367627 124.13236328 193.99461914 123.45800781 193.02392578 C122.05726152 191.03247565 120.63553796 189.05563286 119.19433594 187.09326172 C115.61491103 182.15005503 112.68806509 177.62255246 110.57421875 171.87890625 C107.88237955 165.31741174 105.54588147 160.30967356 99 157 C83.29348716 153.4373487 65.60991028 155.46315123 50 156 C50 187.68 50 219.36 50 252 C33.5 252 17 252 0 252 C0 168.84 0 85.68 0 0 Z M50 19 C50 57.94 50 96.88 50 137 C97.4331502 139.18197962 97.4331502 139.18197962 137.25 118.90625 C149.04549583 106.57459526 152.53373958 91.18179009 152.41967773 74.59594727 C151.98235479 59.73399795 147.93687065 47.30710023 137.6875 36.1875 C114.33544246 14.49235119 78.73130194 19 50 19 Z " fill="#000000" transform="translate(1779,709)"/>
<path d="M0 0 C0 10.23 0 20.46 0 31 C-4.82026003 30.03594799 -7.53062427 28.56341921 -11.4375 25.875 C-41.85702556 5.7436651 -78.51413063 -1.51743055 -114.33251953 5.40917969 C-139.98740128 11.09148006 -164.63708962 24.33730101 -179.47265625 46.60546875 C-197.38134738 74.79030234 -202.38242837 109.60325824 -195.54345703 142.17431641 C-191.1460586 161.65213022 -181.55704158 181.91580808 -166 195 C-165.16339844 195.70382812 -164.32679688 196.40765625 -163.46484375 197.1328125 C-152.44415397 205.88410048 -139.64976225 212.46370365 -126 216 C-124.85660156 216.29777344 -123.71320313 216.59554687 -122.53515625 216.90234375 C-95.70295342 223.0569932 -68.24470181 218.17522395 -42 212 C-42 181.64 -42 151.28 -42 120 C-33.935625 119.979375 -25.87125 119.95875 -17.5625 119.9375 C-15.01345947 119.928396 -12.46441895 119.91929199 -9.83813477 119.90991211 C-7.83089246 119.90699312 -5.82364957 119.90444452 -3.81640625 119.90234375 C-2.23708313 119.8946698 -2.23708313 119.8946698 -0.62585449 119.88684082 C0.36885864 119.88671997 1.36357178 119.88659912 2.38842773 119.88647461 C3.25668686 119.884254 4.12494598 119.88203339 5.01951599 119.87974548 C7 120 7 120 8 121 C8.09527037 122.34072817 8.1218877 123.68642503 8.12025452 125.03053284 C8.12231651 126.33258163 8.12231651 126.33258163 8.12442017 127.66093445 C8.12082489 128.62046524 8.11722961 129.57999603 8.11352539 130.56860352 C8.11367142 131.57336731 8.11381744 132.5781311 8.1139679 133.61334229 C8.1132683 136.95188517 8.10547374 140.29037305 8.09765625 143.62890625 C8.09579224 145.93676218 8.09436826 148.24461851 8.09336853 150.55247498 C8.08954204 156.64017826 8.07971065 162.72785786 8.06866455 168.81555176 C8.05845323 175.02221354 8.05387151 181.22887913 8.04882812 187.43554688 C8.0380885 199.62370835 8.02101052 211.81185221 8 224 C5.78132633 224.96645961 3.56119085 225.92928896 1.34008789 226.89013672 C0.71794655 227.16158005 0.09580521 227.43302338 -0.5451889 227.71269226 C-5.79166153 229.97698996 -11.03855643 231.69644798 -16.5625 233.125 C-17.50029297 233.37161377 -18.43808594 233.61822754 -19.40429688 233.87231445 C-79.00248029 249.19656232 -149.41952925 249.13229799 -203.6875 217.09375 C-207.71131312 214.55039643 -211.37652257 211.73106835 -215.01171875 208.6640625 C-217.10127609 206.85401842 -217.10127609 206.85401842 -220 205 C-220 204.34 -220 203.68 -220 203 C-220.99 202.67 -221.98 202.34 -223 202 C-223 201.34 -223 200.68 -223 200 C-223.99 199.67 -224.98 199.34 -226 199 C-248.05815628 175.11030006 -254.90624735 142.8613217 -254.08886719 111.20458984 C-252.67683611 76.17535742 -234.75618433 44.03900094 -209.578125 20.43457031 C-155.36538628 -28.84668785 -63.14081031 -31.57040515 0 0 Z " fill="#000000" transform="translate(872,724)"/>
<path d="M0 0 C16.5 0 33 0 50 0 C50.029729 7.55358398 50.029729 7.55358398 50.06005859 15.25976562 C50.12708301 31.93175355 50.20462358 48.60368046 50.28752708 65.27559662 C50.33751697 75.37984219 50.38396074 85.48408021 50.421875 95.58837891 C50.45495408 104.40163379 50.49487153 113.21482752 50.54279006 122.02801466 C50.56789786 126.68874276 50.5897243 131.34943113 50.60334396 136.01020813 C50.61630857 140.40968779 50.63851309 144.80903004 50.66738319 149.20843315 C50.67634785 150.81102944 50.68212269 152.41364778 50.68421364 154.01626778 C50.71822812 176.15474475 52.22936343 199.83024251 68.3203125 216.6796875 C88.52652724 234.17603088 115.62817487 235.25996649 141 234 C157.76341748 232.76293195 173.33170143 228.02799795 187 218 C187.83144531 217.39285156 188.66289063 216.78570313 189.51953125 216.16015625 C206.58295279 201.30020017 209.31207909 176.7145961 210.80617523 155.52944183 C211.47239381 143.39797004 211.36472196 131.22230665 211.40471697 119.07611132 C211.42058394 114.87478849 211.44729584 110.67353324 211.4727478 106.47225952 C211.51912594 98.55400781 211.55606518 90.63574278 211.58942068 82.71742666 C211.62793568 73.68681624 211.67726648 64.65627437 211.72740483 55.62572217 C211.83011369 37.08385961 211.91814142 18.54196714 212 0 C222.23 0 232.46 0 243 0 C243.02264434 19.39435323 243.04103568 38.78869561 243.05181217 58.18305874 C243.05695068 67.18983372 243.06394635 76.19659985 243.07543945 85.20336914 C243.08546146 93.06108595 243.09187118 100.91879634 243.09408849 108.77651936 C243.09538293 112.93035589 243.0983874 117.08417408 243.10573006 121.23800468 C243.11260939 125.16219364 243.11459323 129.08635704 243.11310768 133.01055145 C243.11337874 134.43697563 243.11531222 135.86340083 243.11920547 137.28981972 C243.15328994 150.44322113 243.06244827 163.93869946 240.8125 176.9375 C240.68649414 177.66928467 240.56048828 178.40106934 240.43066406 179.1550293 C237.10321197 197.01248245 230.15976248 213.35733966 218 227 C217.32324219 227.77085937 216.64648438 228.54171875 215.94921875 229.3359375 C195.61954502 251.11507608 163.31855076 257.02590745 134.85253906 258.12109375 C99.809201 259.1442569 59.21562939 256.76164176 30 235 C29.2884375 234.47019531 28.576875 233.94039062 27.84375 233.39453125 C11.3941392 220.07667328 3.72271628 198.37045413 1 178 C0.04145379 167.44488919 -0.14007935 156.92525368 -0.11352539 146.33422852 C-0.11324248 144.7261251 -0.11340329 143.11802155 -0.1139679 141.50991821 C-0.1142518 137.19481676 -0.10842155 132.87974378 -0.10139394 128.56464887 C-0.09509199 124.03634112 -0.09455124 119.50803253 -0.09336853 114.97972107 C-0.09027522 106.4272583 -0.08208909 97.87480849 -0.07201904 89.3223514 C-0.06079541 79.57612063 -0.05533178 69.8298892 -0.05032361 60.08365357 C-0.03990455 40.05576023 -0.02158428 20.02788463 0 0 Z " fill="#000000" transform="translate(1030,709)"/>
<path d="M0 0 C1.29349365 0.00523682 2.5869873 0.01047363 3.91967773 0.01586914 C4.9496714 0.01799156 4.9496714 0.01799156 6.00047302 0.02015686 C8.20144949 0.0257706 10.40232557 0.03832532 12.60327148 0.05102539 C14.09220231 0.05603863 15.58113473 0.06060184 17.07006836 0.06469727 C20.72700223 0.07574446 24.38387707 0.09301826 28.04077148 0.11352539 C33.48237476 10.2142005 38.71208604 20.38760752 43.63842773 30.75024414 C49.23667351 42.46812834 54.92878581 54.13768671 60.65737915 65.79229736 C63.38946661 71.35115988 66.11755964 76.91198171 68.84545898 82.47290039 C69.38328506 83.56921783 69.92111115 84.66553528 70.47523499 85.79507446 C75.62516683 96.29723199 80.74006432 106.81615557 85.84228516 117.34155273 C89.61970815 125.13311978 93.40765013 132.91940929 97.20874023 140.69946289 C97.65216263 141.60729523 98.09558502 142.51512756 98.55244446 143.45046997 C100.70185702 147.85072327 102.85241459 152.25041058 105.00488281 156.64916992 C109.39344404 165.62701449 113.73188489 174.62580437 117.98376465 183.66931152 C120.22836937 188.43597941 122.54303285 193.15922364 124.91577148 197.86352539 C128.21333369 204.40534391 131.39245753 210.99856496 134.54077148 217.61352539 C141.63646769 232.61366828 141.63646769 232.61366828 149.25561523 247.35180664 C150.04077148 249.11352539 150.04077148 249.11352539 150.04077148 252.11352539 C130.90077148 252.11352539 111.76077148 252.11352539 92.04077148 252.11352539 C82.84636665 233.72471572 82.84636665 233.72471572 80.00561523 227.23852539 C79.67839981 226.50005371 79.35118439 225.76158203 79.01405334 225.00073242 C77.99854292 222.70655967 76.98829298 220.41011898 75.97827148 218.11352539 C75.30348667 216.58733097 74.62835695 215.06128899 73.95288086 213.53540039 C72.62770813 210.53976882 71.30674319 207.5423402 69.98950195 204.54321289 C68.66336764 201.52389745 67.3280075 198.50888515 65.98657227 195.49633789 C65.33922828 194.03542069 64.69192829 192.57448399 64.04467773 191.11352539 C63.74142075 190.43660645 63.43816376 189.7596875 63.12571716 189.06225586 C61.04077148 184.33971541 61.04077148 184.33971541 61.04077148 182.11352539 C20.12077148 182.11352539 -20.79922852 182.11352539 -62.95922852 182.11352539 C-63.94922852 185.08352539 -64.93922852 188.05352539 -65.95922852 191.11352539 C-66.6836073 192.76232942 -67.44698111 194.39537847 -68.27172852 195.99633789 C-68.70187256 196.84180176 -69.1320166 197.68726563 -69.57519531 198.55834961 C-70.03192627 199.44280762 -70.48865723 200.32726562 -70.95922852 201.23852539 C-71.94668495 203.18032991 -72.93230401 205.12306966 -73.91625977 207.06665039 C-74.4197998 208.06116211 -74.92333984 209.05567383 -75.44213867 210.08032227 C-77.91149194 215.01743927 -80.27988762 220.00165441 -82.64672852 224.98852539 C-86.97226923 234.08978317 -91.41845928 243.11766181 -95.95922852 252.11352539 C-106.51922852 252.11352539 -117.07922852 252.11352539 -127.95922852 252.11352539 C-126.50129923 247.73973753 -125.07677665 244.12163493 -123.01782227 240.07055664 C-122.4385498 238.92353271 -121.85927734 237.77650879 -121.26245117 236.59472656 C-120.95784973 235.99582611 -120.65324829 235.39692566 -120.3394165 234.77987671 C-118.74162497 231.63772578 -117.15657075 228.48917822 -115.57250977 225.34008789 C-115.10158905 224.40446266 -115.10158905 224.40446266 -114.62115479 223.44993591 C-112.022796 218.27272183 -109.53038086 213.05145163 -107.08422852 207.80102539 C-104.23249054 201.69182755 -101.20284584 195.72728765 -97.97509766 189.80908203 C-95.30419 184.86899128 -92.89451034 179.82758524 -90.52172852 174.73852539 C-87.69886732 168.68694875 -84.75851034 162.73837876 -81.58422852 156.86352539 C-77.99232051 150.21102397 -74.68891722 143.44878622 -71.45922852 136.61352539 C-67.95459387 129.19750058 -64.31650658 121.90015492 -60.41696167 114.68508911 C-57.6187132 109.46142 -55.05040018 104.15504132 -52.52954102 98.79321289 C-44.36184533 81.58233066 -35.76744564 64.57910403 -27.23999023 47.54467773 C-24.79046388 42.65140952 -22.34462979 37.75630593 -19.899786 32.86069679 C-18.00712175 29.07177092 -16.11256959 25.28379162 -14.2174263 21.49610519 C-13.31334325 19.68860615 -12.40985432 17.88080981 -11.50696945 16.07271194 C-10.25779341 13.57183759 -9.00608522 11.0722475 -7.75366211 8.57299805 C-7.38180786 7.82726532 -7.00995361 7.08153259 -6.62683105 6.3132019 C-3.52493828 0.13522781 -3.52493828 0.13522781 0 0 Z M0.04077148 51.11352539 C-17.12339422 86.25459644 -17.12339422 86.25459644 -33.93188477 121.56665039 C-34.28373337 122.31561081 -34.63558197 123.06457123 -34.99809265 123.83622742 C-36.74012263 127.54495761 -38.48011315 131.25461491 -40.21582031 134.96630859 C-40.86428746 136.35019311 -41.51312609 137.73390363 -42.16235352 139.11743164 C-42.47622513 139.78652054 -42.79009674 140.45560944 -43.11347961 141.14497375 C-45.8600092 146.96772287 -48.7572968 152.70804428 -51.70043945 158.43359375 C-53.10094374 160.92176009 -53.10094374 160.92176009 -52.95922852 163.11352539 C-18.63922852 163.11352539 15.68077148 163.11352539 51.04077148 163.11352539 C49.12122924 157.35489866 47.31942043 152.23959111 44.81030273 146.80883789 C44.5031131 146.14031799 44.19592346 145.4717981 43.87942505 144.78302002 C42.87497528 142.59952628 41.86409747 140.41907361 40.85327148 138.23852539 C40.13800917 136.68618403 39.42325657 135.13360773 38.70898438 133.58081055 C37.22619243 130.35837188 35.74122695 127.13694877 34.25463867 123.91625977 C31.14193685 117.16872988 28.05360102 110.41008474 24.96615601 103.65097046 C23.98084004 101.49414787 22.9948873 99.33761738 22.00878906 97.18115234 C14.9936474 81.83701631 8.01490724 66.47633357 1.04077148 51.11352539 C0.71077148 51.11352539 0.38077148 51.11352539 0.04077148 51.11352539 Z " fill="#000000" transform="translate(1508.959228515625,708.886474609375)"/>
<path d="M0 0 C10.56 0 21.12 0 32 0 C33.60875 3.361875 35.2175 6.72375 36.875 10.1875 C37.41406982 11.31381836 37.95313965 12.44013672 38.50854492 13.60058594 C40.90510674 18.6104089 43.29757934 23.62205718 45.67578125 28.640625 C50.66118698 39.15875566 55.75709824 49.60817935 61 60 C68.85130146 75.58203448 76.51604912 91.23842657 84 107 C91.84070618 123.49616378 91.84070618 123.49616378 99.94213867 139.86499023 C102.87943219 145.70313073 105.69095654 151.59928715 108.5 157.5 C112.51952797 165.93691414 116.61537535 174.32638985 120.82470703 182.66992188 C128.07302722 197.04008554 135.26547137 211.42909514 142.16259766 225.97167969 C145.24807251 232.46826108 148.41972307 238.91474601 151.71606445 245.30712891 C154 249.78778528 154 249.78778528 154 252 C134.53 252 115.06 252 95 252 C86.91955348 234.68475745 86.91955348 234.68475745 84.09765625 228.51171875 C83.77357285 227.80380188 83.44948944 227.09588501 83.11558533 226.36651611 C82.09701715 224.14057528 81.07953017 221.91414394 80.0625 219.6875 C79.53982544 218.54319016 79.53982544 218.54319016 79.0065918 217.37576294 C70.61570042 198.99841029 70.61570042 198.99841029 67 190.9375 C66.68039307 190.23133545 66.36078613 189.5251709 66.03149414 188.79760742 C64 184.23570722 64 184.23570722 64 182 C3.115 182.495 3.115 182.495 -59 183 C-74.71134106 215.03904482 -74.71134106 215.03904482 -90.09643555 247.23046875 C-91 249 -91 249 -93 252 C-95.48340903 252.26727014 -97.71472068 252.34866334 -100.1953125 252.29296875 C-100.90275604 252.28872391 -101.61019958 252.28447906 -102.33908081 252.28010559 C-104.60143905 252.26329547 -106.86291048 252.22564128 -109.125 252.1875 C-110.65753923 252.17245607 -112.1900924 252.15876716 -113.72265625 252.14648438 C-117.48211318 252.11338462 -121.24090618 252.06158825 -125 252 C-123.35047355 246.37560939 -120.80349316 241.33350252 -118.17932129 236.11813354 C-117.68491374 235.12760959 -117.19050618 234.13708563 -116.68111658 233.1165458 C-115.02362949 229.79827768 -113.36044034 226.48290105 -111.69726562 223.16748047 C-110.50776856 220.78905048 -109.31858959 218.41046393 -108.12980652 216.03167725 C-105.56947311 210.90996261 -103.00621816 205.78971895 -100.44096375 200.67046738 C-96.72987966 193.26457343 -93.02323088 185.85646675 -89.31765085 178.44781758 C-83.30229887 166.42148934 -77.28337769 154.39695112 -71.26220703 142.37353516 C-65.41886564 130.70519962 -59.57719827 119.03602854 -53.73779297 107.36572266 C-53.37802276 106.64670768 -53.01825255 105.9276927 -52.64758021 105.1868894 C-50.84240343 101.57914631 -49.03725984 97.97138663 -47.23213291 94.36361861 C-33.2978114 66.51426069 -19.35880247 38.66725184 -5.41578531 10.82224643 C-4.99154575 9.9750007 -4.56730618 9.12775497 -4.13021088 8.25483513 C-3.58162234 7.15928427 -3.58162234 7.15928427 -3.0219512 6.04160106 C-2.01403317 4.02803475 -1.00701023 2.01402047 0 0 Z M3 51 C-3.35680648 64.14005811 -9.63234805 77.30968293 -15.75 90.5625 C-19.33881813 98.3286815 -22.95637597 106.06427729 -26.82861328 113.69311523 C-30.02026043 119.99442379 -33.11267547 126.3434541 -36.19192505 132.70022583 C-36.80096482 133.9565708 -37.41116244 135.21235534 -38.02267456 136.46749878 C-38.89597004 138.26060772 -39.76440952 140.05607901 -40.6328125 141.8515625 C-41.13699707 142.89135254 -41.64118164 143.93114258 -42.16064453 145.00244141 C-44.89583647 150.94696395 -47.42235202 156.98548804 -50 163 C-15.35 163 19.3 163 55 163 C49.74246084 150.93596004 49.74246084 150.93596004 44.34375 138.94140625 C44.03934998 138.27705063 43.73494995 137.61269501 43.42132568 136.9282074 C42.77873007 135.52601312 42.13556115 134.12408144 41.49182129 132.72241211 C39.74662005 128.9218471 38.00663437 125.11889283 36.265625 121.31640625 C35.91022644 120.54052155 35.55482788 119.76463684 35.18865967 118.96524048 C31.84604821 111.66716429 28.511946 104.36524005 25.18710327 97.05905151 C24.56456052 95.69116855 23.94169898 94.32343063 23.31851196 92.95584106 C19.98857598 85.64637828 16.68971359 78.32523986 13.46484375 70.96875 C13.04469498 70.01270874 13.04469498 70.01270874 12.61605835 69.03735352 C11.2951929 66.03105502 9.98106238 63.02218709 8.67871094 60.0078125 C8.22141602 58.96367188 7.76412109 57.91953125 7.29296875 56.84375 C6.8961792 55.92787109 6.49938965 55.01199219 6.09057617 54.06835938 C5.17474867 51.84462341 5.17474867 51.84462341 3 51 Z " fill="#000000" transform="translate(367,709)"/>
<path d="M0 0 C16.17 0 32.34 0 49 0 C49.06785934 26.80896128 49.1230645 53.61785245 49.15543652 80.42687798 C49.17087046 92.87625083 49.19189324 105.32556632 49.22631836 117.77490234 C49.2563274 128.63245278 49.27560021 139.48996165 49.28226548 150.34755242 C49.28615832 156.09045634 49.29523386 161.8332414 49.31719017 167.57610703 C49.3377375 172.99496891 49.34379737 178.41366434 49.33932304 183.83256149 C49.34014016 185.80845549 49.34599604 187.78435577 49.35761642 189.76021576 C49.53527905 221.56160978 42.12984926 251.81368622 22 277 C21.28199219 277.90105469 20.56398438 278.80210937 19.82421875 279.73046875 C4.93751579 297.28425926 -18.05990812 310.22599432 -41 313 C-43.29083289 313.06522873 -45.58335794 313.0858841 -47.875 313.0625 C-49.02742188 313.05347656 -50.17984375 313.04445313 -51.3671875 313.03515625 C-52.67042969 313.01775391 -52.67042969 313.01775391 -54 313 C-52.70551455 309.11654366 -50.31328394 307.79560056 -47.125 305.5 C-22.05685884 286.73255538 -9.08176407 261.09448822 -4.3125 230.5625 C-3.11740607 221.57456573 -2.46930474 212.5551871 -1.94384766 203.5065918 C-1.90036988 202.76036792 -1.85689211 202.01414405 -1.81209683 201.24530733 C-0.71763765 181.93789263 -0.64852393 162.62944539 -0.59528303 143.29625916 C-0.57931926 138.23284945 -0.55264141 133.16949451 -0.5272522 128.10612488 C-0.48103786 118.58041644 -0.44402243 109.054697 -0.41057932 99.52893609 C-0.37194447 88.6576801 -0.3226475 77.78647988 -0.27259517 66.9152714 C-0.17013165 44.61021758 -0.08200786 22.30513906 0 0 Z " fill="#000000" transform="translate(54,709)"/>
<path d="M0 0 C0.99 0 1.98 0 3 0 C2.97679687 1.23492187 2.95359375 2.46984375 2.9296875 3.7421875 C2.57823896 30.51085135 5.58991678 57.50886817 24.5625 78.0625 C55.27915865 107.15024494 107.57334923 117.60620923 147.66015625 127.16015625 C151 128 151 128 153 129 C153 129.66 153 130.32 153 131 C146.98589432 130.37244439 141.04144437 129.57644871 135.078125 128.58203125 C133.33698098 128.29695427 131.59576674 128.01230592 129.85449219 127.72802734 C128.94356812 127.57887878 128.03264404 127.42973022 127.09411621 127.27606201 C88.02839969 120.9087476 48.84191942 116.01087336 9.44293213 112.23565674 C7.27312197 112.02634663 5.10400004 111.81135342 2.93505859 111.59326172 C-11.7018238 110.14847158 -26.30205095 109.78483303 -41 109.6875 C-41.856008 109.67778168 -42.71201599 109.66806335 -43.59396362 109.65805054 C-72.52612094 109.37833272 -101.1852163 115.1892734 -124 134 C-124.55042969 134.57105469 -125.10085938 135.14210938 -125.66796875 135.73046875 C-127 137 -127 137 -129 137 C-129.26167969 137.5671875 -129.52335937 138.134375 -129.79296875 138.71875 C-131.0978121 141.1848617 -132.63663494 143.27046777 -134.3125 145.5 C-141.52477939 155.68734463 -146.47320139 168.37522355 -145 181 C-143.22754892 188.60986483 -140.07957399 194.96535279 -134 200 C-127.47513665 203.79147465 -121.56842518 205.14102119 -114.0625 205.125 C-112.85722656 205.12757813 -111.65195312 205.13015625 -110.41015625 205.1328125 C-107.46777408 205.01821801 -104.85510777 204.68262539 -102 204 C-102.3393768 206.80591887 -102.7361596 207.78589143 -104.96875 209.59765625 C-115.05109736 215.43234801 -124.02107703 218.99671154 -135.79296875 216.37890625 C-147.79900825 212.56880909 -156.74793374 203.77942459 -163 193 C-168.55956782 176.37458314 -165.92304354 157.24291631 -158.42578125 141.74609375 C-145.62295619 118.37869977 -125.18375393 103.44720909 -100 96 C-75.24352106 89.29936447 -49.73254315 87.14491896 -24.1875 86.4375 C-22.70506987 86.39416168 -21.2226479 86.35054344 -19.74023438 86.30664062 C-16.16024412 86.2012123 -12.58015971 86.09952889 -9 86 C-9.32613281 85.33355469 -9.65226563 84.66710937 -9.98828125 83.98046875 C-15.01534795 73.37765846 -17.55622582 63.94610523 -17.4375 52.1875 C-17.43065186 51.13723633 -17.42380371 50.08697266 -17.41674805 49.00488281 C-17.24596141 40.71245599 -16.0640922 33.75566943 -13 26 C-12.63777344 25.00484375 -12.27554688 24.0096875 -11.90234375 22.984375 C-8.76506937 14.85936611 -4.44685615 7.45924257 0 0 Z " fill="#000000" transform="translate(545,148)"/>
<path d="M0 0 C-4.46813204 13.40439613 -33.0285324 26.97519491 -45.05615234 33.03613281 C-65.53329725 42.89568238 -87.44814421 48.2011583 -110.1875 48.1875 C-111.84446899 48.1884668 -111.84446899 48.1884668 -113.53491211 48.18945312 C-121.20086168 48.13979515 -128.4958489 47.67090442 -136 46 C-135.505 47.794375 -135.505 47.794375 -135 49.625 C-132.73194631 60.0777692 -132.95753581 70.43332488 -138 80 C-140.47571986 83.83026331 -143.15752891 87.43580774 -146 91 C-146.65097656 91.86753906 -147.30195312 92.73507812 -147.97265625 93.62890625 C-155.14779745 102.02064171 -167.46473405 105.27425441 -178 107 C-204.30550181 108.80937314 -227.35045162 98.16829977 -249.5 85.125 C-250.48045288 84.5530188 -250.48045288 84.5530188 -251.48071289 83.96948242 C-253.02395763 83.03809499 -254.5181335 82.02623513 -256 81 C-256 80.34 -256 79.68 -256 79 C-250.36470955 79.46250764 -244.7646449 80.02649225 -239.16088867 80.78662109 C-218.00709051 83.56774872 -191.97582355 84.51660097 -174.16015625 70.98828125 C-167.33235115 64.70373731 -164.07510371 57.28962609 -163.625 48.0625 C-163.79371893 41.52216014 -166.02089536 36.59300707 -170.75 32.0625 C-182.31850836 23.00460409 -197.70639415 15.35950758 -212 12 C-211.67 11.01 -211.34 10.02 -211 9 C-193.15710375 11.28061168 -176.68578212 14.14398225 -160.04101562 21.15722656 C-120.89169479 37.32271167 -81.3938513 37.42409303 -41.90234375 21.66015625 C-29.5831285 16.53360326 -15.60478862 10.27696839 -5.29296875 1.765625 C-3 0 -3 0 0 0 Z " fill="#000000" transform="translate(1830,541)"/>
<path d="M0 0 C5.87190537 1.22154983 11.57069944 2.71792491 17.30786133 4.4621582 C25.90667137 7.0745699 34.50219093 9.52180846 43.3125 11.3125 C44.0135083 11.45929199 44.7145166 11.60608398 45.43676758 11.75732422 C63.82491249 15.29263329 82.396748 15.35194024 101.04711914 15.45629883 C127.50251577 15.63198598 154.23767966 18.81830704 175 37 C175.65355469 37.54785156 176.30710937 38.09570312 176.98046875 38.66015625 C182.75631609 43.90568627 186.43333033 50.24926514 190.44140625 56.8515625 C200.91807649 74.0283827 214.14094448 89.48392259 228 104 C228.94939453 105.01126953 228.94939453 105.01126953 229.91796875 106.04296875 C239.38480228 115.86958693 250.70367476 123.4691165 262 131 C262 131.66 262 132.32 262 133 C258.38579909 132.39749902 255.38700892 131.41175655 252.078125 129.84765625 C251.14371582 129.40623291 250.20930664 128.96480957 249.24658203 128.51000977 C248.25770996 128.03233154 247.26883789 127.55465332 246.25 127.0625 C245.22374512 126.56741943 244.19749023 126.07233887 243.14013672 125.56225586 C222.29930773 115.37575246 203.08914285 102.72660313 186 87 C185.43796875 86.48324707 184.8759375 85.96649414 184.296875 85.43408203 C175.24478226 77.0022445 167.82426 67.89424364 161.3671875 57.328125 C155.64584869 48.01140935 146.49962557 43.05108834 135.97468567 40.51126099 C129.15444984 39.05260164 122.43071177 38.47497327 115.4765625 38.0703125 C113.04815313 37.91313008 110.61976847 37.7555655 108.19140625 37.59765625 C104.42297832 37.36014824 100.65439712 37.12676175 96.88525391 36.90087891 C62.30292981 34.80235957 24.98204136 28.60777073 0 2 C0 1.34 0 0.68 0 0 Z " fill="#000000" transform="translate(1342,413)"/>
<path d="M0 0 C-4.6375651 5.26335702 -10.51253909 6.78785776 -17 9 C-17.84433594 9.29003906 -18.68867188 9.58007812 -19.55859375 9.87890625 C-31.96893197 13.67150561 -45.55238891 15.23348824 -58.5 15.375 C-59.18723145 15.38877686 -59.87446289 15.40255371 -60.58251953 15.41674805 C-64.85698084 15.3765846 -67.63079982 14.66122566 -71 12 C-71.8125 9.3125 -71.8125 9.3125 -72 7 C-69.45219113 4.30945674 -67.36372654 3.77618585 -63.80078125 3.62890625 C-61.97149781 3.59703899 -60.14201243 3.57583035 -58.3125 3.5625 C-44.34010813 3.25133081 -30.51639005 1.76208919 -16.62817383 0.28344727 C-15.7506546 0.19234177 -14.87313538 0.10123627 -13.96902466 0.00737 C-12.30465732 -0.16564114 -10.6408514 -0.34416805 -8.97775269 -0.52897644 C-5.60898833 -0.87749997 -3.25243227 -1.08414409 0 0 Z " fill="#000000" transform="translate(389,31)"/>
</svg>
