<?xml version="1.0" encoding="UTF-8"?>
<svg version="1.1" xmlns="http://www.w3.org/2000/svg" width="2000" height="799">
<path d="M0 0 C0.70686951 0.00093658 1.41373901 0.00187317 2.14202881 0.00283813 C46.44603956 0.12977835 88.19648029 13.32005772 121.5 43.1875 C122.37140625 43.93773437 123.2428125 44.68796875 124.140625 45.4609375 C145.4267685 64.00264111 160.49798601 87.85911186 172.5 113.1875 C172.94730469 114.10273438 173.39460938 115.01796875 173.85546875 115.9609375 C183.4075528 136.05431819 189.7999615 157.94666999 194.25 179.6875 C194.43643066 180.58549316 194.62286133 181.48348633 194.81494141 182.40869141 C195.44487835 185.66007 195.98355559 188.91598703 196.5 192.1875 C196.62601593 192.97156219 196.75203186 193.75562439 196.88186646 194.56344604 C199.45636826 211.05119656 200.00340038 227.4147804 199.94604492 244.06616211 C199.9368978 246.84316293 199.94370786 249.61931914 199.96655273 252.39624023 C200.34526286 298.7620076 192.23786966 344.97800823 172.5 387.1875 C172.16500488 387.91114746 171.83000977 388.63479492 171.48486328 389.38037109 C161.87243938 409.95928359 149.11865596 427.78095932 133.5 444.1875 C132.79617188 444.95578125 132.09234375 445.7240625 131.3671875 446.515625 C111.22947911 467.80187189 82.86818419 481.21890345 54.5 487.1875 C53.74187012 487.35121094 52.98374023 487.51492188 52.20263672 487.68359375 C28.8779299 492.4762739 1.95930053 492.11160118 -21.5 488.1875 C-22.29148437 488.05859375 -23.08296875 487.9296875 -23.8984375 487.796875 C-60.44437249 481.6489607 -91.26271392 466.42478608 -117.5 440.1875 C-117.83 499.2575 -118.16 558.3275 -118.5 619.1875 C-174.6 619.1875 -230.7 619.1875 -288.5 619.1875 C-288.52013078 548.4067424 -288.52013078 548.4067424 -288.52565002 526.51393127 C-288.52584736 525.73313368 -288.52604469 524.95233609 -288.52624801 524.14787796 C-288.53286966 497.8770228 -288.53812179 471.60616754 -288.54234314 445.33531189 C-288.5424812 444.47832952 -288.54261925 443.62134715 -288.54276149 442.73839562 C-288.54575404 424.11617878 -288.54852427 405.49396191 -288.55106533 386.87174499 C-288.55231272 377.74009887 -288.55360927 368.60845275 -288.55493164 359.47680664 C-288.5550624 358.56807304 -288.55519316 357.65933944 -288.55532788 356.72306846 C-288.55959316 327.24095708 -288.5671074 297.75884761 -288.57629722 268.27673739 C-288.58571979 237.9931137 -288.59188311 207.70949108 -288.59391499 177.42586595 C-288.59420317 173.15358977 -288.5945288 168.88131358 -288.59487724 164.6090374 C-288.59494467 163.76814933 -288.59501209 162.92726126 -288.59508156 162.06089173 C-288.59626565 148.49668198 -288.6009101 134.93247549 -288.60683203 121.36826707 C-288.61270486 107.74876681 -288.61497161 94.1292698 -288.61350138 80.50976831 C-288.61273781 72.40712415 -288.61479507 64.30449183 -288.62079754 56.20184979 C-288.62496383 50.16843639 -288.62397507 44.13503588 -288.62089889 38.10162132 C-288.62047295 35.6480528 -288.62177078 33.19448332 -288.62488318 30.74091674 C-288.6288429 27.42922721 -288.62676606 24.11759758 -288.62304783 20.80590916 C-288.62567484 19.83309414 -288.62830186 18.86027913 -288.63100848 17.85798487 C-288.62876118 16.98421992 -288.62651389 16.11045497 -288.6241985 15.21021229 C-288.62435448 14.45167851 -288.62451046 13.69314474 -288.62467116 12.91162509 C-288.5 11.1875 -288.5 11.1875 -287.5 10.1875 C-285.51305149 10.090792 -283.52260987 10.06562948 -281.53330994 10.06724548 C-279.58757835 10.06518349 -279.58757835 10.06518349 -277.60253906 10.06307983 C-276.1516111 10.06661945 -274.70068337 10.07025427 -273.24975586 10.07397461 C-271.73238629 10.07425647 -270.21501658 10.07409877 -268.69764709 10.0735321 C-264.56559484 10.07324409 -260.43357137 10.07914142 -256.30152583 10.08610606 C-251.98801108 10.09233898 -247.67449573 10.09294335 -243.36097717 10.09413147 C-235.18699883 10.09724497 -227.01303379 10.10545861 -218.83906132 10.11548096 C-209.53571031 10.12664152 -200.23235868 10.1321524 -190.92900264 10.13717639 C-171.78599268 10.14764121 -152.64300096 10.16598692 -133.5 10.1875 C-133.17 29.3275 -132.84 48.4675 -132.5 68.1875 C-129.2 63.5675 -125.9 58.9475 -122.5 54.1875 C-118.71658263 49.6371737 -114.67053118 45.38082096 -110.5 41.1875 C-110.01805176 40.70152344 -109.53610352 40.21554688 -109.03955078 39.71484375 C-96.99929244 27.74389946 -82.940115 19.11037765 -67.5 12.1875 C-66.57960938 11.77008545 -66.57960938 11.77008545 -65.640625 11.34423828 C-45.08907708 2.24864135 -22.23443037 -0.0381497 0 0 Z M-103.68359375 146.4609375 C-128.03476876 175.0367803 -130.12915456 217.78420554 -129.9375 253.4375 C-129.93445862 254.64162537 -129.93141724 255.84575073 -129.92828369 257.08636475 C-129.86242847 274.72766205 -129.48130134 291.92610445 -125.5 309.1875 C-125.28569336 310.13512207 -125.07138672 311.08274414 -124.85058594 312.05908203 C-119.46305669 334.95412081 -109.38332703 357.47361531 -89.1875 370.9375 C-69.8199954 382.55800276 -46.40999033 385.68612176 -24.375 380.625 C-4.08009779 375.37365176 11.04617913 362.48830218 21.62109375 344.62890625 C35.20140223 319.75520195 39.04340197 291.18632526 39.5 263.1875 C39.51514648 262.41035645 39.53029297 261.63321289 39.54589844 260.83251953 C39.64008451 255.28128437 39.6053453 249.73830063 39.5 244.1875 C39.48114746 242.9806958 39.48114746 242.9806958 39.46191406 241.74951172 C38.84812413 210.03911971 34.27785742 173.51827438 13.5 148.1875 C12.93539062 147.46046875 12.37078125 146.7334375 11.7890625 145.984375 C1.06981521 132.79919758 -15.14730338 126.21319354 -31.58984375 123.71875 C-34.23083668 123.45205787 -36.84779268 123.28463498 -39.5 123.1875 C-40.18578125 123.14753906 -40.8715625 123.10757813 -41.578125 123.06640625 C-64.77864611 122.31371759 -87.4198086 129.52798051 -103.68359375 146.4609375 Z " fill="#2A2928" transform="translate(1800.5,179.8125)"/>
<path d="M0 0 C54.78 0 109.56 0 166 0 C166.06620836 56.91882087 166.12157922 113.83760532 166.15319599 170.75645372 C166.15693763 177.48509683 166.16082734 184.21373984 166.16479492 190.94238281 C166.1651872 191.61192381 166.16557948 192.2814648 166.16598364 192.97129492 C166.17874216 214.62936709 166.2012569 236.28741561 166.22889166 257.94547348 C166.25807106 280.85599501 166.27600494 303.76650619 166.28226548 326.6770463 C166.2863699 340.38571156 166.29930608 354.09430886 166.3237494 367.80295318 C166.33967834 377.21943391 166.34438425 386.63587979 166.34050413 396.05237299 C166.33859367 401.47500627 166.34140126 406.89752128 166.35761642 412.32013321 C166.47823876 454.78824585 166.47823876 454.78824585 163 474 C162.76850567 475.2913267 162.76850567 475.2913267 162.53233469 476.60874081 C156.05656527 512.07400821 142.21519887 545.99898179 118 573 C117.24976563 573.87140625 116.49953125 574.7428125 115.7265625 575.640625 C101.85677266 591.56334403 85.27399874 603.61660528 67 614 C66.42378906 614.33596191 65.84757812 614.67192383 65.25390625 615.01806641 C18.09280313 642.43513628 -40.1322966 648.4572291 -93.625 648.375 C-94.31614647 648.37476082 -95.00729294 648.37452164 -95.71938324 648.37427521 C-161.61133778 648.34548179 -230.66551148 637.07889379 -281 591 C-281.53189941 590.51337891 -282.06379883 590.02675781 -282.61181641 589.52539062 C-324.70367103 550.45363605 -343.47064365 490.07893678 -346.09306335 434.01025772 C-346.43207217 424.26860135 -346.3417707 414.51770811 -346.26428223 404.77227783 C-346.24504071 401.87939014 -346.24111466 398.98656541 -346.2375679 396.09362221 C-346.23237675 392.57540784 -346.21793858 389.05724714 -346.203125 385.5390625 C-346.19887512 384.26906403 -346.19462524 382.99906555 -346.19024658 381.69058228 C-346.18063904 380.47736298 -346.17103149 379.26414368 -346.16113281 378.01416016 C-346.15430481 376.96974762 -346.14747681 375.92533508 -346.14044189 374.84927368 C-345.93519269 369.22374174 -345.43174568 363.61269387 -345 358 C-290.22 358 -235.44 358 -179 358 C-178.67 382.42 -178.34 406.84 -178 432 C-173.23771232 458.98629688 -164.78148659 483.66973583 -141.78125 500.41015625 C-122.53845227 513.71582007 -99.37194215 519.05565059 -76.21484375 515.30859375 C-61.03072091 512.42476266 -48.2339472 506.32817836 -36 497 C-35.26136719 496.44699219 -34.52273438 495.89398438 -33.76171875 495.32421875 C-14.71065702 479.93829114 -4.64932121 453.37105754 -1.73035485 429.82487601 C-0.83134336 421.11945475 -0.84664832 412.43407117 -0.84178162 403.69441223 C-0.83720905 401.94837653 -0.83220802 400.20234191 -0.82681805 398.45630854 C-0.81330664 393.68110118 -0.80583899 388.9059009 -0.79939139 384.13067949 C-0.79135651 378.97267037 -0.77766945 373.81467583 -0.76467896 368.65667725 C-0.74295985 359.72761811 -0.72479875 350.79855748 -0.70907402 341.86948586 C-0.6863337 328.95964502 -0.6581967 316.04982036 -0.62875474 303.13999327 C-0.58112978 282.19318952 -0.53785183 261.24637913 -0.49731445 240.29956055 C-0.45793357 219.95515426 -0.41650114 199.61075386 -0.37231445 179.26635742 C-0.36822804 177.38440465 -0.36822804 177.38440465 -0.36405908 175.46443263 C-0.35037918 169.17011554 -0.33665899 162.87579854 -0.32291877 156.58148158 C-0.20903407 104.38766593 -0.10300914 52.19383846 0 0 Z " fill="#2A2928" transform="translate(346,0)"/>
<path d="M0 0 C10.51111706 9.56438827 20.11422467 19.56270766 28.40625 31.125 C28.85033203 31.74117188 29.29441406 32.35734375 29.75195312 32.9921875 C43.53028555 52.42062747 52.78802332 74.34149923 59.40625 97.125 C59.68162598 98.06037598 59.95700195 98.99575195 60.24072266 99.95947266 C68.11351361 127.26984753 71.10256348 155.81860886 72.40625 184.125 C72.49084473 185.93967773 72.49084473 185.93967773 72.57714844 187.79101562 C73.08772088 199.21696227 73.4323046 210.62265715 73.41552734 222.06005859 C73.41452278 223.37226631 73.41452278 223.37226631 73.41349792 224.71098328 C73.41176409 226.84898951 73.40910239 228.98699496 73.40625 231.125 C55.90639591 231.30766335 38.40638857 231.47216182 20.90625 231.625 C19.88770943 231.63392281 19.88770943 231.63392281 18.84859228 231.64302588 C-37.27800942 232.13329608 -93.40273508 232.21207868 -149.53125 232.1875 C-150.52874645 232.18707577 -151.5262429 232.18665154 -152.55396652 232.18621445 C-178.23390364 232.17510806 -203.91382802 232.15496443 -229.59375 232.125 C-229.28040541 234.67912756 -228.96548152 237.23304399 -228.6496582 239.78686523 C-228.56176277 240.50465904 -228.47386734 241.22245285 -228.38330841 241.96199799 C-224.83156058 270.60477889 -216.75234493 298.15977606 -193.21875 316.5625 C-175.53015247 328.68246497 -153.58653217 328.98959702 -133.08984375 325.8125 C-120.44865717 323.32663538 -107.56214983 318.85602902 -99.59375 308.125 C-94.67919388 299.76400727 -91.69321913 291.42340739 -88.59375 282.125 C-37.11375 282.125 14.36625 282.125 67.40625 282.125 C66.27847845 292.27494392 66.27847845 292.27494392 64.65625 297.2421875 C64.29990479 298.33426514 63.94355957 299.42634277 63.57641602 300.55151367 C63.19026123 301.68951416 62.80410645 302.82751465 62.40625 304 C62.00398193 305.19020752 61.60171387 306.38041504 61.18725586 307.60668945 C45.28041531 353.58628717 13.22566879 388.81934938 -30.35839844 410.2734375 C-69.21419843 428.70576429 -112.05300511 434.37326755 -154.65625 434.3125 C-155.51125092 434.31156342 -156.36625183 434.31062683 -157.24716187 434.30966187 C-185.59921658 434.24259199 -213.62426859 431.40857234 -240.59375 422.125 C-241.39022949 421.85349121 -242.18670898 421.58198242 -243.00732422 421.30224609 C-261.8399726 414.7747961 -279.64232681 406.15087764 -295.59375 394.125 C-296.625 393.38894531 -297.65625 392.65289063 -298.71875 391.89453125 C-315.89001145 379.34264966 -331.93528993 362.91926282 -343.59375 345.125 C-344.06312988 344.40892578 -344.53250977 343.69285156 -345.01611328 342.95507812 C-351.63343035 332.72408036 -357.45340967 322.16817898 -362.59375 311.125 C-363.12613281 309.98933594 -363.65851562 308.85367187 -364.20703125 307.68359375 C-380.06578671 272.31897887 -385.04224552 233.02482695 -384.90625 194.625 C-384.90409485 193.52660797 -384.9019397 192.42821594 -384.89971924 191.29653931 C-384.79036104 156.50008877 -380.25743164 123.06242708 -368.59375 90.125 C-368.18511719 88.94550781 -367.77648437 87.76601563 -367.35546875 86.55078125 C-358.55590903 62.45026889 -345.52171615 40.37794916 -328.59375 21.125 C-328.08457031 20.54282715 -327.57539062 19.9606543 -327.05078125 19.36083984 C-287.837232 -25.13242571 -232.82661464 -47.17233996 -174.375 -51.44140625 C-111.55835298 -55.35755742 -48.1074161 -42.86600649 0 0 Z M-208.59375 77.125 C-223.2399766 95.65647964 -227.93067846 115.84199837 -229.59375 139.125 C-182.73375 139.125 -135.87375 139.125 -87.59375 139.125 C-88.85736746 124.57255921 -88.85736746 124.57255921 -91.71875 110.4375 C-91.92975342 109.6647876 -92.14075684 108.8920752 -92.3581543 108.09594727 C-97.11075511 91.73071731 -106.33875834 75.23323046 -121.44921875 66.46875 C-149.04734038 52.19747798 -186.79682376 52.40409584 -208.59375 77.125 Z " fill="#2A2928" transform="translate(934.59375,224.875)"/>
<path d="M0 0 C52.32156117 47.69109969 69.52444076 114.09380441 73.1172142 182.87240219 C73.48107756 191.86652748 73.3555841 200.8757282 73.30859375 209.875 C73.30230326 212.0034163 73.29660353 214.13183442 73.29150391 216.26025391 C73.27794019 221.39750745 73.25648336 226.53467005 73.23046875 231.671875 C55.89728424 231.85470706 38.56394328 232.01915863 21.23046875 232.171875 C20.55739024 232.17782354 19.88431173 232.18377208 19.19083691 232.18990088 C-36.75425274 232.68289187 -92.697506 232.75886348 -148.64453125 232.734375 C-150.14141228 232.73373865 -150.14141228 232.73373865 -151.66853333 232.73308945 C-177.36887524 232.72197904 -203.06920445 232.70182828 -228.76953125 232.671875 C-228.31357343 236.49556777 -227.84892962 240.31815845 -227.3828125 244.140625 C-227.25491333 245.2140918 -227.12701416 246.28755859 -226.99523926 247.39355469 C-224.31645106 269.22380376 -217.82001569 292.79063996 -201.76953125 308.671875 C-201.76953125 309.331875 -201.76953125 309.991875 -201.76953125 310.671875 C-201.19332031 310.93355469 -200.61710937 311.19523437 -200.0234375 311.46484375 C-197.62951875 312.7468557 -195.78123322 314.23584212 -193.70703125 315.984375 C-178.01920038 328.25404434 -157.8860302 329.29316817 -138.79296875 327.16796875 C-123.57333942 325.18673307 -109.33599049 321.267383 -99.45703125 308.734375 C-93.80019662 300.5754789 -91.17775773 292.21490914 -87.76953125 282.671875 C-36.28953125 282.671875 15.19046875 282.671875 68.23046875 282.671875 C67.102608 290.56690025 67.102608 290.56690025 66.03125 294.203125 C65.79510986 295.00548584 65.55896973 295.80784668 65.31567383 296.63452148 C55.86122881 327.68034995 41.33014334 354.67998542 18.23046875 377.671875 C17.7307959 378.17412598 17.23112305 378.67637695 16.71630859 379.19384766 C-28.42043638 424.08619739 -96.06889177 435.03352243 -157.02655029 434.91696167 C-216.70257341 434.61522176 -272.00726906 418.20697778 -316.20703125 376.984375 C-317.1820459 376.07643188 -317.1820459 376.07643188 -318.17675781 375.15014648 C-359.62466587 335.85765737 -381.81905838 276.19563186 -383.87568665 219.75881958 C-383.93290539 216.66570402 -383.96030793 213.57408839 -383.97265625 210.48046875 C-383.97835632 209.33691422 -383.9840564 208.19335968 -383.9899292 207.01515198 C-383.99932604 204.60068672 -384.00589187 202.18620895 -384.00976562 199.77172852 C-384.01936655 196.17114208 -384.05039849 192.57115355 -384.08203125 188.97070312 C-384.38460004 121.92312608 -363.6697226 57.33767316 -316.20703125 8.859375 C-310.99477996 3.76609093 -305.5344876 -0.87441363 -299.76953125 -5.328125 C-299.22345215 -5.75593262 -298.67737305 -6.18374023 -298.11474609 -6.62451172 C-288.24081568 -14.32024698 -277.88621971 -20.59165999 -266.76953125 -26.328125 C-266.08697266 -26.68503418 -265.40441406 -27.04194336 -264.70117188 -27.40966797 C-184.84846669 -68.71346032 -67.90817058 -60.70973104 0 0 Z M-209.76953125 79.671875 C-220.49376877 92.9044935 -224.66810208 108.29179647 -227.76953125 124.671875 C-227.96933594 125.65027344 -228.16914062 126.62867188 -228.375 127.63671875 C-228.89239908 131.61710573 -228.76953125 135.65800127 -228.76953125 139.671875 C-182.23953125 139.671875 -135.70953125 139.671875 -87.76953125 139.671875 C-87.76953125 132.25530416 -87.90637986 126.07077619 -89.39453125 118.984375 C-89.57201904 118.12787354 -89.74950684 117.27137207 -89.93237305 116.38891602 C-94.153812 97.08707145 -102.8212072 78.51317767 -119.81640625 67.3046875 C-149.20756666 51.05401944 -186.93964571 54.32047971 -209.76953125 79.671875 Z " fill="#2A2928" transform="translate(1421.76953125,224.328125)"/>
<path d="M0 0 C6.001875 -0.0928125 6.001875 -0.0928125 12.125 -0.1875 C13.37555176 -0.21481201 14.62610352 -0.24212402 15.91455078 -0.27026367 C26.36355608 -0.34854283 26.36355608 -0.34854283 31 3 C33.47717167 6.71575751 33.30345742 8.59986738 33 13 C32.63777344 13.763125 32.27554687 14.52625 31.90234375 15.3125 C30.70602743 18.87555468 31.37094699 21.01640478 32.3125 24.625 C32.59738281 25.75164063 32.88226562 26.87828125 33.17578125 28.0390625 C33.733019 30.0408929 34.34289735 32.02869206 35 34 C32.03 34 29.06 34 26 34 C25.66307215 32.39658445 25.33058907 30.79223445 25 29.1875 C24.814375 28.29417969 24.62875 27.40085937 24.4375 26.48046875 C24 24 24 24 24 21 C18.72 20.67 13.44 20.34 8 20 C8 24.62 8 29.24 8 34 C5.36 34 2.72 34 0 34 C0 22.78 0 11.56 0 0 Z M8 5 C8 8.3 8 11.6 8 15 C14.19539258 15.16973678 19.14856425 15.035282 25 13 C25 11.02 25 9.04 25 7 C19.14856425 4.964718 14.19539258 4.83026322 8 5 Z " fill="#2A2928" transform="translate(1941,716)"/>
<path d="M0 0 C8.93795536 5.59000937 14.82849551 12.43613042 18.3046875 22.44140625 C20.40367648 31.64176515 19.28161949 40.30716193 14.7421875 48.56640625 C9.39006881 56.80840984 2.08738212 63.35998186 -7.6953125 65.44140625 C-16.5993399 66.30308632 -24.92859233 66.43763305 -32.6953125 61.44140625 C-33.39011719 61.01730469 -34.08492187 60.59320312 -34.80078125 60.15625 C-42.02306845 55.29170759 -46.79842004 48.22973357 -49.22265625 39.8828125 C-51.15554177 29.89889971 -49.49804749 20.95713724 -44.38671875 12.19921875 C-43.0703125 10.25390625 -43.0703125 10.25390625 -40.6953125 7.44140625 C-40.0353125 7.44140625 -39.3753125 7.44140625 -38.6953125 7.44140625 C-38.3653125 6.45140625 -38.0353125 5.46140625 -37.6953125 4.44140625 C-26.56160215 -3.37730463 -12.69116248 -6.13192531 0 0 Z M-41.6953125 12.44140625 C-43.47438019 15.01117069 -44.67543507 17.49378363 -45.6953125 20.44140625 C-45.92863281 21.0653125 -46.16195313 21.68921875 -46.40234375 22.33203125 C-48.92522822 30.34015487 -47.68255798 38.8762256 -43.984375 46.3125 C-39.2338528 54.15805939 -32.67884621 60.18733901 -23.7578125 62.75390625 C-14.83991357 64.56182338 -6.18572169 63.70908527 1.7265625 59 C9.13145957 53.64511638 14.75073456 46.60972858 16.3046875 37.44140625 C17.2828053 26.8196583 15.51957774 17.94319491 8.6796875 9.56640625 C2.35452231 2.95696397 -5.65186825 -0.61628824 -14.7578125 -0.87109375 C-26.12759372 -0.68966107 -34.21886632 4.01822201 -41.6953125 12.44140625 Z " fill="#292827" transform="translate(1973.6953125,701.55859375)"/>
</svg>
