<?xml version="1.0" encoding="UTF-8"?>
<svg version="1.1" xmlns="http://www.w3.org/2000/svg" width="2000" height="1006">
<path d="M0 0 C2.3150525 -0.0029858 4.63010064 -0.00709969 6.94515085 -0.01150417 C14.29268243 -0.02512518 21.64020331 -0.03480981 28.9877466 -0.03870606 C36.45538527 -0.04269464 43.92289472 -0.05479515 51.39049006 -0.08106136 C92.59360011 -0.22278804 133.53461103 0.37364979 174.65953302 3.20018864 C176.32949146 3.31442362 176.32949146 3.31442362 178.03318644 3.43096638 C278.54352296 10.34128336 378.3865787 24.95076011 476.33366632 48.63890934 C478.5350234 49.17014191 480.73740796 49.69682479 482.94029474 50.22167301 C567.71407773 70.45260308 651.46909423 99.06220086 746.43443537 144.61913395 C749.32503175 146.03620452 752.22020793 147.44338295 755.11656427 148.84862614 C767.03861433 154.67542787 778.56604469 161.12007982 790.07213068 167.72509098 C792.3140042 169.00320004 794.56485099 170.26016139 796.82750177 171.50096989 C815.37977979 181.68597593 833.20736526 193.24101534 850.65953302 205.20018864 C851.34499201 205.66956852 852.03045099 206.1389484 852.73668146 206.62255192 C868.89178837 217.73918489 884.68774349 229.52828243 899.65953302 242.20018864 C900.19062677 242.64781559 900.72172052 243.09544254 901.26890802 243.55663395 C909.05209076 250.12588559 916.66386235 256.84998754 924.12681818 263.78075504 C925.7507577 265.284671 927.38211628 266.78021174 929.01500177 268.27440739 C936.9309422 275.52623981 944.69505603 282.79969845 951.69468927 290.95800114 C953.59112589 293.12212562 955.54315463 295.22600582 957.51011896 297.32592106 C963.51709787 303.76152076 968.99438805 310.50939232 974.3450799 317.49608707 C975.57434707 319.08975068 976.82706271 320.66525009 978.08140802 322.23925114 C1002.08917542 352.60201578 1020.87865444 387.33962017 1032.65953302 424.20018864 C1032.94908869 425.10478825 1033.23864435 426.00938786 1033.53697443 426.94139957 C1035.52268643 433.3017555 1037.15697232 439.71029049 1038.65953302 446.20018864 C1038.90219904 447.19228336 1039.14486506 448.18437809 1039.39488459 449.20653629 C1047.67170184 484.24942461 1047.34724374 525.303832 1038.65953302 560.20018864 C1038.39720881 561.28348454 1038.13488459 562.36678043 1037.86461115 563.48290348 C1036.05222938 570.80740318 1033.96048596 578.01518339 1031.65953302 585.20018864 C1031.37271662 586.10575504 1031.08590021 587.01132145 1030.7903924 587.94432926 C1014.0509421 639.74971607 981.17981985 683.49195092 944.53453302 722.88768864 C943.96049738 723.50563297 943.38646173 724.12357731 942.79503107 724.76024723 C937.11416388 730.84358032 931.32503825 736.69470058 925.01500177 742.12596989 C922.6434892 744.21431678 920.33108006 746.35493646 918.02208185 748.51171207 C911.76882557 754.34844917 905.33433026 759.8463539 898.65953302 765.20018864 C897.46679961 766.18295514 896.27547902 767.16743795 895.08531427 768.15331364 C851.46664919 804.17795365 802.62352013 832.94092049 752.44615412 858.76513004 C750.65825635 859.6858645 748.87197267 860.60974395 747.08775568 861.53759098 C678.05917906 897.37857486 603.29409753 922.98762148 528.65953302 944.20018864 C527.85918634 944.42815128 527.05883966 944.65611393 526.23424006 944.89098454 C499.25974149 952.56012223 472.022655 959.07540555 444.65953302 965.20018864 C443.76145929 965.40128239 442.86338556 965.60237614 441.93809748 965.80956364 C352.43390215 985.7783637 261.29218206 997.37151925 169.84703302 1003.38768864 C168.55960199 1003.4725452 167.27217096 1003.55740177 165.94572687 1003.64482975 C162.19821893 1003.88975276 158.45044725 1004.13003029 154.70250177 1004.36815739 C153.6266633 1004.4377718 152.55082483 1004.50738621 151.4423852 1004.57911015 C147.84894232 1004.80308732 144.2546794 1005.00605258 140.65953302 1005.20018864 C139.89052668 1005.24307892 139.12152033 1005.2859692 138.32921076 1005.33015919 C121.32949799 1006.25505901 104.3386857 1006.37940322 87.31906605 1006.40037727 C85.00401355 1006.40336307 82.6889654 1006.40747696 80.3739152 1006.41188145 C73.02638362 1006.42550245 65.67886274 1006.43518708 58.33131945 1006.43908334 C50.86368078 1006.44307192 43.39617132 1006.45517243 35.92857599 1006.48143864 C-5.27453406 1006.62316531 -46.21554498 1006.02672748 -87.34046698 1003.20018864 C-88.4537726 1003.12403198 -89.56707823 1003.04787533 -90.71412039 1002.9694109 C-191.22445692 996.05909391 -291.06751265 981.44961716 -389.01460028 957.76146793 C-391.21595735 957.23023536 -393.41834192 956.70355248 -395.62122869 956.17870426 C-480.403903 935.94583275 -564.14441661 907.34086096 -659.11536932 861.78124332 C-662.0059657 860.36417276 -664.90114188 858.95699432 -667.79749823 857.55175114 C-679.71954828 851.7249494 -691.24697864 845.28029746 -702.75306463 838.67528629 C-704.99493815 837.39717723 -707.24578494 836.14021588 -709.50843573 834.89940739 C-728.06071375 824.71440134 -745.88829921 813.15936193 -763.34046698 801.20018864 C-764.36865545 800.49611881 -764.36865545 800.49611881 -765.41761541 799.77782536 C-781.57272232 788.66119238 -797.36867744 776.87209484 -812.34046698 764.20018864 C-812.87156073 763.75256168 -813.40265448 763.30493473 -813.94984198 762.84374332 C-821.73302471 756.27449168 -829.3447963 749.55038973 -836.80775213 742.61962223 C-838.43169165 741.11570628 -840.06305023 739.62016554 -841.69593573 738.12596989 C-849.61187616 730.87413747 -857.37598999 723.60067882 -864.37562323 715.44237614 C-866.27205984 713.27825165 -868.22408858 711.17437145 -870.19105291 709.07445621 C-876.19803183 702.63885651 -881.675322 695.89098495 -887.02601385 688.9042902 C-888.25528102 687.31062659 -889.50799667 685.73512719 -890.76234198 684.16112614 C-914.77010937 653.79836149 -933.55958839 619.06075711 -945.34046698 582.20018864 C-945.63002264 581.29558903 -945.9195783 580.39098942 -946.21790838 579.4589777 C-948.20362038 573.09862178 -949.83790627 566.69008678 -951.34046698 560.20018864 C-951.704466 558.71204655 -951.704466 558.71204655 -952.07581854 557.19384098 C-960.35263579 522.15095267 -960.02817769 481.09654527 -951.34046698 446.20018864 C-951.07814276 445.11689274 -950.81581854 444.03359684 -950.5455451 442.91747379 C-948.73316333 435.5929741 -946.64141991 428.38519389 -944.34046698 421.20018864 C-944.05365057 420.29462223 -943.76683416 419.38905582 -943.47132635 418.45604801 C-926.73187606 366.65066121 -893.8607538 322.90842635 -857.21546698 283.51268864 C-856.64143133 282.8947443 -856.06739569 282.27679996 -855.47596502 281.64013004 C-849.79509784 275.55679695 -844.0059722 269.70567669 -837.69593573 264.27440739 C-835.32442315 262.18606049 -833.01201401 260.04544082 -830.7030158 257.8886652 C-824.44975953 252.05192811 -818.01526421 246.55402338 -811.34046698 241.20018864 C-810.14773356 240.21742214 -808.95641297 239.23293933 -807.76624823 238.24706364 C-764.14758314 202.22242362 -715.30445408 173.45945678 -665.12708807 147.63524723 C-663.3391903 146.71451277 -661.55290662 145.79063333 -659.76868963 144.86278629 C-590.79053449 109.04798223 -515.89143463 83.45608749 -441.34046698 62.20018864 C-440.10544439 61.84727757 -440.10544439 61.84727757 -438.84547186 61.48723698 C-411.90178462 53.80343874 -384.678066 47.31925883 -357.34046698 41.20018864 C-356.44239325 40.99909489 -355.54431952 40.79800114 -354.61903143 40.59081364 C-265.1148361 20.62201357 -173.97311601 9.02885802 -82.52796698 3.01268864 C-81.24053595 2.92783207 -79.95310492 2.8429755 -78.62666082 2.75554752 C-74.87915288 2.51062452 -71.1313812 2.27034698 -67.38343573 2.03221989 C-66.30759726 1.96260548 -65.23175879 1.89299107 -64.12331915 1.82126713 C-60.52987627 1.59728996 -56.93561335 1.39432469 -53.34046698 1.20018864 C-52.57146063 1.15729836 -51.80245428 1.11440807 -51.01014471 1.07021809 C-34.01043194 0.14531827 -17.01961965 0.02097405 0 0 Z M24.97856379 107.22625065 C-85.44435284 108.3043117 -195.81194886 117.23451143 -505.34046698 183.20018864 C-506.22291082 183.47477909 -507.10535467 183.74936954 -508.01453924 184.03228092 C-546.85440859 196.13120149 -585.04135495 209.94568228 -622.34046698 226.20018864 C-623.4891828 226.69486637 -624.63789862 227.18954411 -625.82142401 227.69921207 C-655.59828568 240.54775772 -685.08080728 254.73886521 -712.77894354 271.64598942 C-715.32348111 273.1898825 -717.88622549 274.69767841 -720.45765448 276.19628239 C-749.83164667 293.38734227 -777.88471302 313.58333488 -802.78187323 336.82518864 C-804.92913957 338.81837632 -807.10962861 340.73987931 -809.34046698 342.63768864 C-817.60829639 349.81809998 -825.35350641 357.77391419 -832.34046698 366.20018864 C-832.78970526 366.73563297 -833.23894354 367.27107731 -833.7017951 367.82274723 C-870.94750365 412.31067688 -894.21063881 463.59706099 -889.04310369 522.59520817 C-883.77668599 568.63206278 -859.71490832 610.25231841 -828.59827948 643.75878239 C-826.66702845 645.84707286 -824.80728638 647.97110398 -822.96546698 650.13768864 C-815.73638545 658.44344188 -807.73548461 666.08876772 -799.34046698 673.20018864 C-798.34917791 674.06901676 -797.35788885 674.93784489 -796.33656073 675.83300114 C-787.31942328 683.71609754 -777.95072114 691.05573736 -768.34046698 698.20018864 C-767.61843084 698.73788883 -766.89639471 699.27558903 -766.15247869 699.82958317 C-748.27344232 713.08644834 -729.5652794 724.99841314 -710.34046698 736.20018864 C-709.45987616 736.71597477 -708.57928534 737.2317609 -707.67200994 737.76317692 C-677.38732836 755.40541975 -645.7069694 770.77853094 -613.34046698 784.20018864 C-612.7134992 784.46039799 -612.08653143 784.72060734 -611.44056463 784.98870182 C-592.27554361 792.92510293 -572.88636575 800.25656501 -553.34046698 807.20018864 C-552.64495733 807.44813175 -551.94944769 807.69607487 -551.232862 807.95153141 C-491.86329675 829.10146581 -430.95228284 845.08784467 -369.34046698 858.20018864 C-368.40110296 858.40043644 -367.46173895 858.60068424 -366.49390936 858.80700016 C-259.01930494 881.65091586 -149.16027034 893.39610078 0.28453302 898.76268864 C1.46450861 898.78353519 2.6444842 898.80438175 3.86021662 898.82586002 C21.6700399 899.13694995 39.47442228 899.4243418 57.28715754 899.22625065 C58.97159374 899.20774608 60.656044 899.19050144 62.34050226 899.17412663 C172.76341888 898.09606558 283.13101491 889.16586584 751.26549006 760.87157536 C754.49355999 759.28192158 757.72970374 757.71002262 760.96812677 756.14159489 C774.29076958 749.64339913 787.12518563 742.49828176 799.84019709 734.88329411 C802.49742937 733.29696233 805.16574513 731.7316013 807.83922052 730.17284489 C837.18421662 712.9712999 865.21757415 692.80416449 890.10093927 669.57518864 C892.24820561 667.58200095 894.42869465 665.66049797 896.65953302 663.76268864 C904.92736243 656.58227729 912.67257246 648.62646308 919.65953302 640.20018864 C920.10877131 639.6647443 920.55800959 639.12929996 921.02086115 638.57763004 C958.2665697 594.08970039 981.52970485 542.80331628 976.36216974 483.80516911 C971.09575204 437.76831449 947.03397437 396.14805886 915.91734552 362.64159489 C913.9860945 360.55330442 912.12635243 358.42927329 910.28453302 356.26268864 C903.0554515 347.9569354 895.05455066 340.31160955 886.65953302 333.20018864 C885.66824396 332.33136051 884.6769549 331.46253239 883.65562677 330.56737614 C874.63848933 322.68427973 865.26978718 315.34463992 855.65953302 308.20018864 C854.93749689 307.66248844 854.21546076 307.12478825 853.47154474 306.57079411 C835.59250837 293.31392893 816.88434544 281.40196413 797.65953302 270.20018864 C796.7789422 269.6844025 795.89835138 269.16861637 794.99107599 268.63720036 C764.7063944 250.99495753 733.02603545 235.62184634 700.65953302 222.20018864 C700.03256525 221.93997929 699.40559748 221.67976994 698.75963068 221.41167545 C679.59460966 213.47527434 660.2054318 206.14381226 640.65953302 199.20018864 C639.96402338 198.95224552 639.26851374 198.70430241 638.55192804 198.44884586 C579.1823628 177.29891147 518.27134889 161.3125326 456.65953302 148.20018864 C455.250487 147.89981693 455.250487 147.89981693 453.81297541 147.59337711 C346.33837099 124.74946141 236.47933638 113.00427649 87.03453302 107.63768864 C85.85455744 107.61684208 84.67458185 107.59599552 83.45884943 107.57451725 C65.64902615 107.26342732 47.84464377 106.97603548 30.03190851 107.17412663 C28.3474723 107.1926312 26.66302204 107.20987584 24.97856379 107.22625065 Z " fill="#E21D23" transform="translate(956.3404669761658,-0.20018863677978516)"/>
<path d="M0 0 C0.71885407 -0.00155999 1.43770815 -0.00311998 2.17834568 -0.00472724 C4.60516426 -0.00873974 7.03192111 -0.00554665 9.45874023 -0.00241089 C11.19123369 -0.00376482 12.92372686 -0.0055447 14.65621948 -0.00772095 C19.37509231 -0.01229626 24.09394339 -0.01050532 28.81281662 -0.00734186 C33.73979503 -0.00481876 38.66677152 -0.00715566 43.59375 -0.00872803 C51.86938819 -0.01054987 60.14501746 -0.00814303 68.4206543 -0.00338745 C78.00288259 0.0020552 87.58508961 0.00029255 97.16731739 -0.00521386 C105.37875202 -0.00974457 113.59018024 -0.01039574 121.80161572 -0.00777519 C126.71280962 -0.00621218 131.6239935 -0.00601929 136.53518677 -0.00931168 C141.15125657 -0.01218978 145.76729882 -0.01021582 150.38336563 -0.00441742 C152.08258137 -0.00308949 153.78179941 -0.00348448 155.48101425 -0.00568008 C157.79059734 -0.00839033 160.10009068 -0.00501203 162.40966797 0 C164.35316383 0.00056554 164.35316383 0.00056554 166.33592224 0.0011425 C169.20483398 0.12698364 169.20483398 0.12698364 170.20483398 1.12698364 C170.31403969 3.26559893 170.35175651 5.4078682 170.36305237 7.54924011 C170.36799035 8.22796423 170.37292832 8.90668835 170.37801594 9.60597986 C170.39346347 11.89691407 170.40177105 14.18782011 170.41015625 16.47879028 C170.41972909 18.11438752 170.42973881 19.74998226 170.44015503 21.38557434 C170.46727463 25.83990255 170.48824586 30.29424144 170.50815701 34.74860692 C170.52997321 39.3984697 170.55738319 44.04829931 170.58421326 48.69813538 C170.63419938 57.50957663 170.67911617 66.32103623 170.72223562 75.13251346 C170.77155752 85.16138826 170.8264943 95.1902298 170.88191521 105.21907246 C170.9958261 125.85501189 171.10264521 146.49098305 171.20483398 167.12698364 C171.73715134 166.32617371 172.26946869 165.52536377 172.81791687 164.70028687 C173.87895378 163.10600861 173.87895378 163.10600861 174.96142578 161.47952271 C175.65874313 160.43121277 176.35606049 159.38290283 177.07450867 158.30282593 C180.32845487 153.45191425 183.66995134 148.6636748 187.01733398 143.87698364 C188.43044049 141.85118335 189.84320015 139.82514106 191.25561523 137.79885864 C191.93446777 136.82497192 192.61332031 135.85108521 193.31274414 134.84768677 C195.7911434 131.28390853 198.25116886 127.70781738 200.70483398 124.12698364 C205.13218371 117.66779512 209.60272364 111.23926346 214.07983398 104.81448364 C218.98593225 97.77289796 223.86919118 90.71714284 228.70483398 83.62698364 C234.22190131 75.53770013 239.80598194 67.49631087 245.40405273 59.46292114 C249.18900519 54.02980056 252.96088128 48.58843095 256.70483398 43.12698364 C261.24578879 36.50784653 265.81382879 29.90770008 270.39233398 23.31448364 C271.04588867 22.37153442 271.69944336 21.42858521 272.37280273 20.45706177 C284.91087745 2.42094018 284.91087745 2.42094018 287.20483398 0.12698364 C289.28044204 0.03014784 291.35940602 0.00511462 293.43727112 0.00672913 C294.09557747 0.0058747 294.75388383 0.00502028 295.43213886 0.00413996 C297.65400505 0.00248334 299.87579694 0.00800946 302.09765625 0.01345825 C303.68399046 0.01374011 305.2703248 0.01358242 306.85665894 0.01301575 C311.1767212 0.01272772 315.49675595 0.01862527 319.8168118 0.0255897 C324.32651713 0.0318224 328.83622303 0.03242697 333.34593201 0.03361511 C341.89177773 0.03672868 350.43761072 0.04494241 358.98345083 0.0549646 C368.71001032 0.06612496 378.4365704 0.07163599 388.16313469 0.07666004 C408.17704157 0.087125 428.19093698 0.10472493 448.20483398 0.12698364 C448.53483398 0.78698364 448.86483398 1.44698364 449.20483398 2.12698364 C443.67727022 9.93434905 438.07841871 17.68418452 432.39233398 25.37698364 C426.13893071 33.8393174 419.96099046 42.35345706 413.8137207 50.89309692 C410.57337204 55.39221533 407.32455697 59.88522483 404.07739258 64.37942505 C401.37885377 68.11492864 398.68225445 71.85179844 395.98999023 75.59182739 C389.85667303 84.10701535 383.67222719 92.58148548 377.43554688 101.02127075 C372.94884639 107.09948478 368.518896 113.21677379 364.10595703 119.34866333 C360.11477278 124.88675716 356.0750305 130.38748189 352.01733398 135.87698364 C347.20078158 142.39558157 342.44460322 148.95146843 337.74780273 155.55667114 C329.69784281 166.87443657 321.51128921 178.09115012 313.25610352 189.25979614 C308.16206719 196.16130083 303.16132195 203.12622991 298.20483398 210.12698364 C301.13922229 215.5633987 304.52039125 220.33539884 308.32983398 225.18948364 C312.363915 230.39587615 316.34386672 235.62088789 320.14233398 241.00198364 C324.03370755 246.51096659 328.00678185 251.95412665 332.01733398 257.37698364 C336.61781563 263.60017611 341.18411813 269.84560426 345.70483398 276.12698364 C351.88559816 284.7107523 358.15269338 293.22899982 364.4387207 301.73587036 C367.36439501 305.69689527 370.28433704 309.66214081 373.20483398 313.62698364 C374.37147289 315.21033743 375.53813956 316.79367076 376.70483398 318.37698364 C379.03816732 321.54365031 381.37150065 324.71031698 383.70483398 327.87698364 C384.28241455 328.66081421 384.85999512 329.44464478 385.45507812 330.25222778 C386.62104205 331.83466549 387.78689502 333.41718496 388.95263672 334.99978638 C391.87914842 338.97250251 394.80760932 342.94375358 397.73999023 346.91213989 C403.9795447 355.36038621 410.17547619 363.83704948 416.31274414 372.3598938 C421.96201481 380.1957585 427.69796291 387.96691219 433.4387207 395.73587036 C436.94796022 400.48697512 440.44944675 405.24379656 443.95239258 409.99954224 C446.87904148 413.97229853 449.80754173 417.94366211 452.73999023 421.91213989 C459.14016484 430.57832466 465.49642689 439.27245852 471.77416992 448.02786255 C475.08876253 452.63537401 478.49277103 457.13794935 482.13061523 461.49807739 C483.20483398 463.12698364 483.20483398 463.12698364 483.20483398 466.12698364 C462.03869454 466.24375193 440.87260816 466.33193996 419.70621204 466.3860445 C409.87841339 466.41183322 400.05081479 466.4469965 390.22314453 466.50418091 C381.65797773 466.55399544 373.09295579 466.5862698 364.52764815 466.59742612 C359.99172292 466.6039482 355.45621216 466.61929062 350.92041969 466.65563393 C346.65139458 466.68956273 342.38295481 466.70004301 338.11380768 466.69252205 C336.54685727 466.693898 334.97988736 466.70384951 333.41305351 466.72301102 C331.27272258 466.74790293 329.13459926 466.74190617 326.99421692 466.72825623 C325.79680783 466.73286519 324.59939875 466.73747416 323.36570454 466.74222279 C317.35048055 465.5714057 314.28849033 460.10791449 310.76733398 455.43948364 C309.89425238 454.28927598 309.02051589 453.13956522 308.14624023 451.99026489 C307.67718262 451.37232056 307.208125 450.75437622 306.72485352 450.1177063 C303.91165961 446.43335309 301.05530007 442.78252264 298.20483398 439.12698364 C294.18980367 433.97170405 290.18382147 428.8101384 286.20483398 423.62698364 C279.91053781 415.4299999 273.55470076 407.2809437 267.20483398 399.12698364 C260.0560357 389.94710354 252.91488115 380.76243982 245.82983398 371.53323364 C242.63855423 367.38456996 239.42062099 363.25665883 236.20483398 359.12698364 C232.19017773 353.97141012 228.18382375 348.81014136 224.20483398 343.62698364 C217.91053781 335.4299999 211.55470076 327.2809437 205.20483398 319.12698364 C190.90560836 300.76513155 190.90560836 300.76513155 183.82495117 291.53933716 C181.18823775 288.10455496 178.54838857 284.67219074 175.90795898 281.24026489 C175.45243652 280.64814209 174.99691406 280.05601929 174.52758789 279.44595337 C173.42003133 278.00627519 172.31243672 276.5666263 171.20483398 275.12698364 C171.20060205 276.10527099 171.19637011 277.08355833 171.19200993 278.09149075 C171.08896801 301.85900304 170.98023941 325.62648408 170.86549473 349.39394283 C170.81013847 360.88754684 170.7566526 372.38115395 170.70751953 383.87478638 C170.66470705 393.88875504 170.61843659 403.90270062 170.56795543 413.91663367 C170.54133077 419.22242453 170.51647719 424.52821075 170.49575996 429.83402824 C170.47622963 434.8219138 170.45209687 439.80975533 170.42434311 444.7976017 C170.41495351 446.63387633 170.40728516 448.47016064 170.40141487 450.30644989 C170.39318596 452.80221353 170.37891868 455.29786937 170.36305237 457.79359436 C170.36207426 458.5299617 170.36109615 459.26632903 170.36008841 460.02501053 C170.3189552 465.01286243 170.3189552 465.01286243 169.20483398 466.12698364 C167.44821375 466.22548352 165.68760222 466.25330441 163.92822266 466.25396729 C162.21184097 466.25819702 162.21184097 466.25819702 160.46078491 466.26251221 C159.19425079 466.26048798 157.92771667 466.25846375 156.62280273 466.25637817 C155.28439283 466.25773221 153.94598329 466.25951215 152.60757446 466.26168823 C148.96304544 466.26626234 145.31854459 466.2644731 141.67401505 466.26130915 C137.86812512 466.25878543 134.06223767 466.26112312 130.25634766 466.26269531 C123.86384648 466.26451697 117.47135685 466.26211079 111.07885742 466.25735474 C103.67788996 466.25191212 96.27695004 466.25367478 88.87598324 466.25918114 C82.53289777 466.26371237 76.18982061 466.26436277 69.84673405 466.26174247 C66.0533662 466.26017975 62.26001131 466.25998579 58.46664429 466.26327896 C54.90116454 466.26615782 51.33572047 466.26418171 47.7702446 466.2583847 C45.82979126 466.2564216 43.88933491 466.25941089 41.94888306 466.26251221 C40.8046286 466.25969238 39.66037415 466.25687256 38.48144531 466.25396729 C37.48075516 466.25359026 36.480065 466.25321323 35.4490509 466.25282478 C33.20483398 466.12698364 33.20483398 466.12698364 32.20483398 465.12698364 C32.10611103 462.78057349 32.07303949 460.4636109 32.08178616 458.11667538 C32.08063231 457.37094874 32.07947847 456.6252221 32.07828966 455.85689768 C32.07561594 453.3261313 32.08015131 450.79542693 32.08457947 448.2646637 C32.08414392 446.44476353 32.08326932 444.62486342 32.0819903 442.80496365 C32.07974211 437.77912102 32.08377103 432.75329949 32.08876836 427.72745955 C32.09306806 422.3170653 32.09162678 416.90667233 32.09086609 411.49627686 C32.09034055 402.11413222 32.09349049 392.7319945 32.09910393 383.34985161 C32.10721485 369.78467858 32.10983373 356.21950891 32.11109192 342.65433372 C32.11328308 320.64822619 32.1199449 298.64212236 32.12939453 276.63601685 C32.13856699 255.25320451 32.14564864 233.87039325 32.14990234 212.48757935 C32.15016507 211.17057702 32.15042779 209.85357469 32.15069848 208.49666321 C32.15200347 201.88995842 32.15326719 195.28325363 32.15451038 188.67654884 C32.16488499 133.82669108 32.18277936 78.97683784 32.20483398 24.12698364 C12.40483398 23.63198364 12.40483398 23.63198364 -7.79516602 23.12698364 C-7.81579102 19.51760864 -7.83641602 15.90823364 -7.85766602 12.18948364 C-7.86677002 11.05003296 -7.87587402 9.91058228 -7.88525391 8.73660278 C-7.88775146 7.84578003 -7.89024902 6.95495728 -7.89282227 6.03713989 C-7.89805908 5.12069702 -7.9032959 4.20425415 -7.90869141 3.26004028 C-7.66121512 -1.38985283 -3.84469681 0.00111877 0 0 Z " fill="#E21D23" transform="translate(337.795166015625,269.8730163574219)"/>
<path d="M0 0 C65.67 0 131.34 0 199 0 C205.89104385 14.93059502 205.89104385 14.93059502 208.79760742 22.27490234 C209.30097815 23.5340788 209.30097815 23.5340788 209.81451797 24.81869316 C210.91475226 27.57315692 212.01009711 30.32953684 213.10546875 33.0859375 C213.8968887 35.06969269 214.68865087 37.05331138 215.48072815 39.0368042 C217.17041362 43.26973047 218.85806326 47.5034601 220.54406738 51.737854 C224.6010236 61.926349 228.66881505 72.11052016 232.73546982 82.29514694 C234.12658824 85.77938667 235.51730347 89.26378714 236.9079895 92.74819946 C245.1297954 113.34445503 253.40120135 133.92055209 261.68859863 154.49048615 C264.88862109 162.43329059 268.08763045 170.37650263 271.28515625 178.3203125 C271.63719746 179.19490993 271.98923866 180.06950737 272.35194778 180.97060776 C278.12832494 195.32398667 283.87992695 209.68719226 289.62109375 224.0546875 C290.02290737 225.06009708 290.42472099 226.06550667 290.83871078 227.10138321 C294.72868986 236.83498593 298.61723547 246.56915574 302.50023079 256.30554676 C309.96028643 275.00794415 317.48329704 293.68109212 325.14786339 312.30068398 C332.06681848 329.11191113 338.84049461 345.97924373 345.57401657 362.86546707 C348.14929442 369.32333638 350.72674738 375.78033835 353.30412102 382.23737144 C353.9567017 383.87238393 354.60918449 385.50743549 355.26156807 387.14252663 C359.62706022 398.08316963 364.01551932 409.01424535 368.42785263 419.93607903 C370.13031833 424.15214465 371.82891634 428.36977038 373.52757072 432.58737278 C375.11725059 436.5328862 376.71352129 440.47565021 378.31457424 444.41656113 C379.51654102 447.38074225 380.70866215 450.34888099 381.90234375 453.31640625 C382.55462196 454.91227066 382.55462196 454.91227066 383.22007751 456.54037476 C383.60498856 457.50230743 383.9898996 458.46424011 384.38647461 459.45532227 C384.7245665 460.29055923 385.06265839 461.1257962 385.41099548 461.98634338 C386 464 386 464 385 466 C334.84 466 284.68 466 233 466 C231.0975578 461.5609682 229.37478884 457.37359068 227.86206055 452.82910156 C227.46642914 451.64523865 227.07079773 450.46137573 226.66317749 449.24163818 C226.23760567 447.95799549 225.81212195 446.67432358 225.38671875 445.390625 C224.93688515 444.04030846 224.48681675 442.69007012 224.03652954 441.33990479 C222.83315582 437.72873758 221.63375489 434.11626297 220.43533707 430.50344849 C219.68208864 428.23369401 218.92770865 425.96431877 218.17294312 423.69506836 C211.96968165 405.04421952 205.80876222 386.38054682 199.75170898 367.68164062 C193.78001696 349.25845533 187.70973144 330.86776632 181.64777756 312.47413635 C178.97297 304.35793825 176.29873639 296.24155104 173.625 288.125 C173.3355142 287.24622444 173.0460284 286.36744888 172.74777031 285.46204376 C167.73066201 270.23051308 162.73254578 254.99287561 157.75 239.75 C151.44822618 220.4760537 145.13987983 201.20427714 138.81651497 181.93740273 C137.50110871 177.92943511 136.18621035 173.92130279 134.87268066 169.91271973 C133.64476996 166.1655064 132.41538705 162.41877937 131.18485451 158.67242622 C130.72856532 157.28240891 130.27280762 155.892217 129.81760216 154.50184441 C129.19290622 152.59410217 128.56611465 150.68704653 127.93920898 148.7800293 C127.58712875 147.70681931 127.23504852 146.63360931 126.87229919 145.52787781 C126.07775286 143.04634538 126.07775286 143.04634538 125 141 C124.64772339 142.07229103 124.64772339 142.07229103 124.28833008 143.16624451 C121.45072613 151.80353728 118.61300093 160.44079022 115.77521133 169.078022 C114.99909078 171.44026736 114.22297973 173.80251585 113.4468689 176.1647644 C107.57731408 194.02979059 101.7066067 211.89443655 95.83203125 229.7578125 C95.32805808 231.29031346 94.82408571 232.82281468 94.32011414 234.35531616 C93.94690835 235.49017802 93.94690835 235.49017802 93.56616306 236.64796638 C83.74773224 266.50439944 73.94036092 296.36440558 64.15223694 326.23078918 C63.75008469 327.45787094 63.34793243 328.6849527 62.93359375 329.94921875 C62.53180405 331.17521286 62.13001434 332.40120697 61.71604919 333.66435242 C58.94304162 342.12493023 56.16796518 350.58482684 53.39146805 359.04426003 C52.72230696 361.0830955 52.05320991 363.12195198 51.38412476 365.16081238 C49.39280074 371.22861282 47.40107034 377.29627855 45.40746498 383.36332989 C41.04736751 396.63291181 36.69976056 409.90626753 32.39284515 423.19321823 C30.9330301 427.69461172 29.46928531 432.19473017 28.00640869 436.69512939 C27.21572112 439.13219009 26.42723841 441.56996733 25.64105225 444.00848389 C24.56418234 447.3485488 23.48014071 450.68620494 22.39453125 454.0234375 C22.07785995 455.01279297 21.76118866 456.00214844 21.43492126 457.02148438 C21.1416243 457.91851074 20.84832733 458.81553711 20.54614258 459.73974609 C20.29415604 460.51933685 20.04216949 461.29892761 19.782547 462.10214233 C19 464 19 464 17 466 C14.38006401 466.24609566 14.38006401 466.24609566 10.98898315 466.24050903 C9.70728241 466.24325836 8.42558167 466.24600769 7.1050415 466.24884033 C5.67663482 466.24176155 4.24822906 466.23449193 2.81982422 466.22705078 C1.32201139 466.22648689 -0.17580199 466.22680279 -1.6736145 466.22793579 C-5.74779441 466.22851118 -9.82185729 466.21672682 -13.89600992 466.20278788 C-18.15079059 466.19031149 -22.40557374 466.18911246 -26.66036987 466.18673706 C-34.72100339 466.18051318 -42.78158285 466.16409011 -50.84219253 466.14403808 C-60.01738928 466.12170729 -69.19258857 466.11069276 -78.36780572 466.10064721 C-97.24523449 466.07972464 -116.12261291 466.04453107 -135 466 C-134.4536585 462.59242306 -133.94365361 459.42167027 -132.65917969 456.21264648 C-132.38581787 455.52108963 -132.11245605 454.82953278 -131.83081055 454.11701965 C-131.53086182 453.37586411 -131.23091309 452.63470856 -130.921875 451.87109375 C-130.60355713 451.07052048 -130.28523926 450.2699472 -129.95727539 449.44511414 C-128.89365978 446.77368936 -127.82173986 444.10567466 -126.75 441.4375 C-125.98668055 439.52417466 -125.2240005 437.61059413 -124.46191406 435.69677734 C-122.8287537 431.59710861 -121.19266291 427.4986261 -119.5546875 423.40087891 C-115.70181669 413.7556207 -111.88395158 404.09649162 -108.06188965 394.43899536 C-105.83984636 388.82583943 -103.615144 383.21373765 -101.390625 377.6015625 C-96.5291209 365.33549625 -91.66865206 353.06902 -86.80847168 340.8024292 C-84.62235838 335.28493539 -82.43617563 329.76746911 -80.25 324.25 C-79.37499967 322.0416668 -78.49999967 319.83333346 -77.625 317.625 C-72.37500001 304.37500004 -72.37500001 304.37500004 -71.06246948 301.06242371 C-70.18757054 298.85434495 -69.31267227 296.64626593 -68.43777466 294.43818665 C-66.24873386 288.91345614 -64.05968149 283.38873022 -61.87060547 277.86401367 C-57.9514823 267.97302977 -54.03243505 258.08201582 -50.11383057 248.19082642 C-40.09518274 222.90216713 -30.07243231 197.61514037 -20.04455566 172.33013916 C-13.58522458 156.04295943 -7.12783335 139.75501337 -0.67388916 123.46569824 C0.61589282 120.21048515 1.9058329 116.95533474 3.19580078 113.70019531 C7.22890976 103.52230915 11.26026046 93.34373363 15.28689575 83.1632843 C17.19088617 78.34979855 19.09574301 73.53665588 21.00067139 68.72354126 C21.90088443 66.44830147 22.8006804 64.17289661 23.70001221 61.89730835 C24.95257884 58.72798742 26.20662155 55.55925393 27.4609375 52.390625 C27.81742371 51.48748062 28.17390991 50.58433624 28.54119873 49.65382385 C31.94384673 41.06570533 35.48155042 32.54480612 39 24 C19.695 23.505 19.695 23.505 0 23 C0 15.41 0 7.82 0 0 Z " fill="#E21D23" transform="translate(1284,270)"/>
<path d="M0 0 C0.71885407 -0.00155999 1.43770815 -0.00311998 2.17834568 -0.00472724 C4.60516426 -0.00873974 7.03192111 -0.00554665 9.45874023 -0.00241089 C11.19123369 -0.00376482 12.92372686 -0.0055447 14.65621948 -0.00772095 C19.37509231 -0.01229626 24.09394339 -0.01050532 28.81281662 -0.00734186 C33.73979503 -0.00481876 38.66677152 -0.00715566 43.59375 -0.00872803 C51.86938819 -0.01054987 60.14501746 -0.00814303 68.4206543 -0.00338745 C78.00288259 0.0020552 87.58508961 0.00029255 97.16731739 -0.00521386 C105.37875202 -0.00974457 113.59018024 -0.01039574 121.80161572 -0.00777519 C126.71280962 -0.00621218 131.6239935 -0.00601929 136.53518677 -0.00931168 C141.15125657 -0.01218978 145.76729882 -0.01021582 150.38336563 -0.00441742 C152.08258137 -0.00308949 153.78179941 -0.00348448 155.48101425 -0.00568008 C157.79059734 -0.00839033 160.10009068 -0.00501203 162.40966797 0 C164.35316383 0.00056554 164.35316383 0.00056554 166.33592224 0.0011425 C169.20483398 0.12698364 169.20483398 0.12698364 170.20483398 1.12698364 C170.30455214 3.59169668 170.33845877 6.02843038 170.33067513 8.49369812 C170.33212857 9.27795776 170.33358201 10.0622174 170.33507949 10.87024248 C170.33876626 13.53209499 170.33524077 16.19389119 170.33181763 18.85574341 C170.33296839 20.76980144 170.33455561 22.68385926 170.33654487 24.5979166 C170.34074435 29.88406282 170.33864473 35.17019114 170.33555865 40.45633745 C170.33330727 46.1469183 170.33678285 51.83749595 170.33953857 57.52807617 C170.34399809 68.68637323 170.343019 79.84466359 170.34012593 91.00296092 C170.33787261 100.06709902 170.33755907 109.13123524 170.33864975 118.19537354 C170.33880298 119.48271694 170.33895622 120.77006034 170.33911409 122.09641415 C170.3394338 124.71117489 170.33975801 127.32593562 170.34008668 129.94069636 C170.34286052 153.79055402 170.33997814 177.64040786 170.33474409 201.49026491 C170.32999817 223.28160801 170.33042278 245.07294528 170.33520508 266.86428833 C170.34055489 291.32361804 170.34266731 315.782944 170.33959281 340.24227428 C170.33927425 342.84771411 170.33895988 345.45315393 170.33864975 348.05859375 C170.33849547 349.34070521 170.3383412 350.62281668 170.33818225 351.94378 C170.33731682 361.00282435 170.33878052 370.06186662 170.3411293 379.12091064 C170.3439265 390.15253594 170.34319074 401.18415412 170.33784856 412.21577859 C170.33521046 417.8502048 170.33420831 423.48461912 170.33749771 429.11904526 C170.34045846 434.26817615 170.3388716 439.41728403 170.33352016 444.56641281 C170.33239502 446.43785513 170.33298927 448.30929936 170.33539595 450.18074048 C170.33839802 452.70727844 170.33535746 455.23373556 170.33067513 457.76026917 C170.33301629 458.50177259 170.33535746 459.24327601 170.33776957 460.00724924 C170.31898433 465.0128333 170.31898433 465.0128333 169.20483398 466.12698364 C124.32483398 466.12698364 79.44483398 466.12698364 33.20483398 466.12698364 C33.20483398 319.93698364 33.20483398 173.74698364 33.20483398 23.12698364 C19.67483398 23.12698364 6.14483398 23.12698364 -7.79516602 23.12698364 C-7.81579102 19.51760864 -7.83641602 15.90823364 -7.85766602 12.18948364 C-7.86677002 11.05003296 -7.87587402 9.91058228 -7.88525391 8.73660278 C-7.88775146 7.84578003 -7.89024902 6.95495728 -7.89282227 6.03713989 C-7.89805908 5.12069702 -7.9032959 4.20425415 -7.90869141 3.26004028 C-7.66121512 -1.38985283 -3.84469681 0.00111877 0 0 Z " fill="#E21D23" transform="translate(885.795166015625,269.8730163574219)"/>
</svg>
