<?xml version="1.0" encoding="UTF-8"?>
<svg version="1.1" xmlns="http://www.w3.org/2000/svg" width="2000" height="938">
<path d="M0 0 C0.92071226 -0.00282738 1.84142452 -0.00565475 2.79003716 -0.00856781 C7.68383938 -0.02346985 12.57761293 -0.03275019 17.47143555 -0.03710938 C21.42595878 -0.04144971 25.38025837 -0.05518003 29.3347168 -0.078125 C55.51236047 -0.22679754 81.35058592 0.56784176 107.40234375 3.203125 C108.46460175 3.31025818 109.52685974 3.41739136 110.62130737 3.527771 C116.12421563 4.09954026 121.60812366 4.76925586 127.08984375 5.515625 C127.87521515 5.61983765 128.66058655 5.72405029 129.46975708 5.8314209 C204.67394094 15.82675465 277.79652356 35.50762944 346.40234375 68.203125 C347.85688965 68.89245117 347.85688965 68.89245117 349.34082031 69.59570312 C380.42694854 84.42218817 409.41964367 102.82395551 436.40234375 124.203125 C437.41554688 125.00234375 438.42875 125.8015625 439.47265625 126.625 C445.36073733 131.35559506 450.94899436 136.36337336 456.48046875 141.5 C459.19927383 144.01525817 461.94941344 146.48937799 464.71484375 148.953125 C470.62657193 154.2699029 476.16678424 159.77966237 481.34765625 165.8125 C482.88984905 167.60683839 484.4502575 169.38554709 486.01953125 171.15625 C499.66681361 186.64444691 511.22506131 203.25740632 521.40234375 221.203125 C521.81323242 221.91645996 522.22412109 222.62979492 522.64746094 223.36474609 C551.13533332 273.11870953 557.95376664 333.34603195 543.0546875 388.43359375 C536.41303611 412.02182764 526.5648772 434.51512943 513.40234375 455.203125 C512.36980469 456.82927734 512.36980469 456.82927734 511.31640625 458.48828125 C502.18178008 472.47906245 491.76052356 485.54159654 480.5078125 497.87890625 C478.6625682 499.91586425 476.87152705 501.98583347 475.08984375 504.078125 C467.83571699 512.39506568 459.83326611 520.09289358 451.40234375 527.203125 C450.51933594 527.97527344 449.63632813 528.74742187 448.7265625 529.54296875 C381.45890926 588.04711103 294.65570164 624.53743904 96.58984375 661.890625 C95.90526093 661.95156342 95.2206781 662.01250183 94.51535034 662.07528687 C90.47830484 662.42991241 86.4399597 662.75668119 82.39837646 663.05523682 C80.48342597 663.19711753 78.56908535 663.3471582 76.65478516 663.49755859 C59.9464229 664.68835995 43.14382643 664.44771941 26.40234375 664.453125 C25.56751087 664.45371414 24.73267799 664.45430328 23.87254715 664.45491028 C-1.65203572 664.46761644 -27.01191688 664.1020754 -52.42114258 661.43096924 C-54.6127523 661.2015447 -56.80519517 660.98234169 -58.99804688 660.76513672 C-144.8433411 652.16444846 -228.87618215 629.4191711 -404.203125 523.37890625 C-405.82181096 521.90809373 -407.44971596 520.44737345 -409.0859375 518.99609375 C-417.8210597 511.23908787 -426.03688489 503.11012066 -433.59765625 494.203125 C-434.39558594 493.29433594 -435.19351563 492.38554687 -436.015625 491.44921875 C-449.01065571 476.54990887 -459.81506685 460.35625537 -469.59765625 443.203125 C-470.00467773 442.49897461 -470.41169922 441.79482422 -470.83105469 441.06933594 C-485.7214031 415.12043874 -494.34879918 386.68857882 -498.59765625 357.203125 C-498.70223145 356.50985107 -498.80680664 355.81657715 -498.91455078 355.10229492 C-506.77063099 295.83034807 -484.95759795 236.07357794 -449.59765625 189.203125 C-442.87913541 180.47955823 -435.79966085 172.11640858 -428.28125 164.07421875 C-426.43853149 162.10275135 -424.61910717 160.12362475 -422.8203125 158.11328125 C-417.08589001 151.72016832 -411.07293803 145.85221453 -404.59765625 140.203125 C-403.01380635 138.74535271 -401.43048158 137.28700969 -399.84765625 135.828125 C-393.68595089 130.29026831 -387.17091558 125.23796193 -380.59765625 120.203125 C-379.95489746 119.70876953 -379.31213867 119.21441406 -378.64990234 118.70507812 C-353.36832238 99.30859564 -326.09660862 83.41695522 -297.59765625 69.203125 C-296.67533203 68.74067383 -295.75300781 68.27822266 -294.80273438 67.80175781 C-214.51598283 27.77776754 -123.56470032 8.3006962 -34.59765625 1.203125 C-32.98894402 1.07213158 -32.98894402 1.07213158 -31.34773254 0.93849182 C-20.89072917 0.15983643 -10.48154569 0.02220051 0 0 Z M-68.09765625 56.453125 C-69.1404071 56.60652847 -69.1404071 56.60652847 -70.20422363 56.76303101 C-156.90846734 69.56870346 -247.29614426 98.81954635 -332.59765625 167.203125 C-333.42652344 167.91855469 -334.25539063 168.63398438 -335.109375 169.37109375 C-346.51579111 179.42005207 -357.30303408 190.16157917 -366.59765625 202.203125 C-367.39429688 203.19441406 -368.1909375 204.18570313 -369.01171875 205.20703125 C-401.98851674 246.52271587 -420.37004166 299.97824521 -415.09375 352.91796875 C-410.28485 393.14351994 -391.88808942 430.67375406 -365.59765625 461.203125 C-364.72235969 462.2603973 -363.84875447 463.31907138 -362.9765625 464.37890625 C-352.5357299 476.95700472 -341.14156154 489.02538527 -328.24609375 499.11328125 C-325.7918513 501.04988849 -323.43091383 503.06875435 -321.07568359 505.1237793 C-313.65162983 511.56979369 -305.7720893 517.24279892 -297.66162109 522.79052734 C-295.77548077 524.08142017 -293.8989363 525.38513317 -292.0234375 526.69140625 C-280.63110304 534.53803661 -268.62513566 541.38678194 -256.59765625 548.203125 C-255.84790527 548.62980469 -255.0981543 549.05648438 -254.32568359 549.49609375 C-183.08072041 589.68819813 -98.48793309 606.33643575 -17.59765625 612.203125 C-16.32704346 612.29883789 -15.05643066 612.39455078 -13.74731445 612.49316406 C1.50686935 613.54423967 16.80693867 613.44888593 32.08984375 613.453125 C33.18604412 613.45378778 33.18604412 613.45378778 34.30438995 613.45446396 C58.11623325 613.46199845 81.72648463 612.95562274 105.40234375 610.203125 C106.14822754 610.11826843 106.89411133 610.03341187 107.66259766 609.94598389 C142.14548039 606.00191718 176.2535153 599.23539417 209.15234375 588.015625 C209.82587891 587.7899585 210.49941406 587.56429199 211.19335938 587.33178711 C215.91927242 585.64422392 219.65392603 583.42838392 222.77734375 579.453125 C224.00523012 575.03273406 223.16829665 570.9021478 221.328125 566.8203125 C218.66366501 563.19924112 215.39097157 560.89585092 211.77734375 558.265625 C205.62653426 553.68137557 199.609992 548.98714377 193.71484375 544.078125 C188.66437625 539.88013227 183.58603501 535.73562997 178.40234375 531.703125 C171.73716185 526.51216739 165.2247382 521.14538231 158.71484375 515.76171875 C154.50451037 512.28134145 150.26998333 508.83150592 146.02734375 505.390625 C141.64550107 501.83638161 137.2664847 498.27911512 132.90234375 494.703125 C128.41210479 491.02437501 123.90878583 487.36198673 119.40234375 483.703125 C114.89590167 480.04426327 110.39258271 476.38187499 105.90234375 472.703125 C99.45374541 467.42086508 92.98074129 462.16874519 86.50927734 456.91455078 C84.39598109 455.19795672 82.28376606 453.48004121 80.171875 451.76171875 C73.80148317 446.57934309 67.42885123 441.40087217 61.0078125 436.28125 C58.98718335 434.66959376 56.96924936 433.05477642 54.953125 431.4375 C42.07351441 421.10928854 29.07917789 410.93318028 16.0390625 400.80859375 C12.99414346 398.44358948 9.95538055 396.07103021 6.921875 393.69140625 C-9.71022717 380.65809501 -26.44103392 368.05733658 -44.59765625 357.203125 C-45.33838379 356.75984863 -46.07911133 356.31657227 -46.84228516 355.85986328 C-71.45303962 341.29764021 -97.74990256 331.02562939 -126.48828125 329.6328125 C-127.30571304 329.59189484 -128.12314484 329.55097717 -128.96534729 329.50881958 C-137.82218848 329.09822455 -146.67046212 329.05102119 -155.53515625 329.078125 C-156.39536377 329.07901123 -157.25557129 329.07989746 -158.1418457 329.08081055 C-169.96961221 329.09487705 -181.77706905 329.30935179 -193.59765625 329.703125 C-208.53558173 330.19524534 -223.47025677 330.34420586 -238.41601562 330.38037109 C-240.93393101 330.38715357 -243.45183975 330.39735235 -245.96972656 330.41113281 C-249.52545759 330.42912453 -253.08094724 330.433293 -256.63671875 330.43359375 C-258.22524155 330.4443116 -258.22524155 330.4443116 -259.84585571 330.45524597 C-267.28584077 330.43278094 -274.85384221 330.19451544 -281.53515625 326.640625 C-284.96876105 322.58272842 -286.75547116 318.20160836 -286.47265625 312.828125 C-284.64667647 303.17651758 -278.77737849 298.44404051 -271.36083984 292.60449219 C-267.94542906 289.88994526 -264.58812402 287.10414783 -261.22265625 284.328125 C-260.12969238 283.42876221 -260.12969238 283.42876221 -259.01464844 282.51123047 C-253.99193531 278.37257744 -249.01493625 274.18362697 -244.05908203 269.96533203 C-240.16570901 266.66019289 -236.1940899 263.46783218 -232.19140625 260.296875 C-229.11686276 257.81501459 -226.10586581 255.26463987 -223.09765625 252.703125 C-218.52840311 248.81236884 -213.89593053 245.02383579 -209.19140625 241.296875 C-206.11686276 238.81501459 -203.10586581 236.26463987 -200.09765625 233.703125 C-195.52840311 229.81236884 -190.89593053 226.02383579 -186.19140625 222.296875 C-183.11686276 219.81501459 -180.10586581 217.26463987 -177.09765625 214.703125 C-172.52840311 210.81236884 -167.89593053 207.02383579 -163.19140625 203.296875 C-160.11686276 200.81501459 -157.10586581 198.26463987 -154.09765625 195.703125 C-149.52840311 191.81236884 -144.89593053 188.02383579 -140.19140625 184.296875 C-137.11685724 181.81501014 -134.10599714 179.26449243 -131.09765625 176.703125 C-125.68114008 172.09513835 -120.19356218 167.59272786 -114.59765625 163.203125 C-113.63267212 162.4133728 -113.63267212 162.4133728 -112.64819336 161.60766602 C-107.27358026 157.28333919 -101.78427531 153.80415741 -95.66015625 150.640625 C-94.75281738 150.16955322 -93.84547852 149.69848145 -92.91064453 149.21313477 C-70.86666072 138.06818531 -48.90416702 136.03638755 -24.54296875 136.0703125 C-22.79409776 136.06963537 -21.04522687 136.06866199 -19.2963562 136.06741333 C-15.63017887 136.06594541 -11.96402602 136.06805483 -8.29785156 136.07275391 C-3.7279412 136.07834194 0.84190945 136.07514913 5.41181755 136.06929874 C24.60622389 136.04868742 43.77508843 136.22801317 62.96141815 136.79452705 C74.17913051 137.12227066 85.37557952 137.25825122 96.59765625 137.16015625 C97.94619732 137.14979653 99.29473858 137.13946098 100.64328003 137.12915039 C105.98845944 137.08424979 111.33341862 137.03430577 116.67822266 136.95629883 C119.40357329 136.9171904 122.12863768 136.88869228 124.85421753 136.87199402 C127.36407817 136.85620356 129.87390723 136.82499171 132.3833313 136.77558899 C140.60386174 136.74956549 140.60386174 136.74956549 144.63232422 139.0378418 C146.87562603 141.78209611 147.35577233 143.90623217 147.90234375 147.390625 C146.77529042 155.9844066 138.6313797 160.80368893 132.15185547 165.78417969 C131.53455566 166.25629883 130.91725586 166.72841797 130.28125 167.21484375 C126.2541002 170.29635533 122.32578876 173.49122243 118.40234375 176.703125 C112.87971579 181.2116494 107.31047912 185.65156725 101.69140625 190.0390625 C97.21797667 193.54088747 92.80367173 197.11123664 88.40234375 200.703125 C82.8789469 205.21072473 77.31049939 209.65155142 71.69140625 214.0390625 C66.52632568 218.08231562 61.44235132 222.22159747 56.36108398 226.36938477 C52.09923466 229.84205982 47.80103274 233.26138806 43.46484375 236.640625 C37.46067395 241.32277576 31.5850973 246.15046273 25.72338867 251.00927734 C21.29663072 254.6699331 16.81851846 258.24833287 12.27734375 261.765625 C6.61848 266.15784574 1.19517763 270.78249914 -4.19482422 275.49926758 C-7.86615831 278.71036515 -11.56895782 281.86781505 -15.34765625 284.953125 C-16.20617187 285.65695312 -17.0646875 286.36078125 -17.94921875 287.0859375 C-19.8345893 288.59312163 -21.74965395 290.06347771 -23.68359375 291.5078125 C-24.68648437 292.27351562 -25.689375 293.03921875 -26.72265625 293.828125 C-27.63273437 294.50101563 -28.5428125 295.17390625 -29.48046875 295.8671875 C-32.26056832 298.93452983 -32.48044572 301.11951018 -32.59765625 305.203125 C-30.74189472 308.54349575 -29.40410095 309.88036059 -25.85327148 311.30151367 C-16.06378485 314.01261784 -5.13288431 313.39603426 4.96484375 313.390625 C6.94363525 313.3915918 6.94363525 313.3915918 8.96240234 313.39257812 C25.06628064 313.3395414 41.15781847 312.60906766 57.24438477 311.91479492 C94.41729274 310.33696 133.5043591 309.34974165 168.40234375 324.203125 C169.04896973 324.47431152 169.6955957 324.74549805 170.36181641 325.02490234 C187.00476327 332.18711414 200.89860244 344.01416936 214.859375 355.34375 C217.76372335 357.69910081 220.70517437 360.00136324 223.66162109 362.29077148 C229.95335391 367.16973232 236.01550619 372.26106765 242.00561523 377.50537109 C246.46218991 381.40494654 251.00505212 385.17691818 255.60546875 388.90625 C260.67688139 393.07104138 265.63282218 397.37132162 270.60400391 401.65478516 C273.53236545 404.17605435 276.46763724 406.68924743 279.40234375 409.203125 C280.5690449 410.20308477 281.73571154 411.20308481 282.90234375 412.203125 C283.76859375 412.945625 283.76859375 412.945625 284.65234375 413.703125 C289.90234375 418.203125 289.90234375 418.203125 291.65307617 419.70385742 C292.81716352 420.70157695 293.98138831 421.69913614 295.14575195 422.6965332 C298.10304262 425.23011243 301.05772744 427.76662637 304.0078125 430.30859375 C310.15361461 435.5994439 316.33882917 440.82346405 322.63671875 445.93359375 C325.14369282 447.9908705 327.61777582 450.07969512 330.08374023 452.18554688 C336.80334906 457.92250972 343.67109863 463.43623736 350.65722656 468.84472656 C352.41216407 470.21076913 354.15422799 471.59194166 355.89453125 472.9765625 C365.73023035 480.75408432 374.39250877 486.56350539 387.40234375 485.203125 C413.67789881 477.62780023 431.22243111 443.60939094 443.67089844 421.56103516 C462.97455251 386.24783315 471.10930912 343.98364039 464.40234375 304.203125 C464.27875488 303.46707031 464.15516602 302.73101562 464.02783203 301.97265625 C458.22790235 268.84627001 443.69272816 237.89362299 423.40234375 211.203125 C422.96954102 210.62755859 422.53673828 210.05199219 422.09082031 209.45898438 C407.60723269 190.26743729 390.48131507 171.83626413 371.40234375 157.203125 C370.07912094 156.14262854 368.75765597 155.07993679 367.4375 154.015625 C298.95821063 99.20624282 211.8499936 70.37357441 99.66479492 54.46026611 C97.52337123 54.2168805 95.38374861 53.96143141 93.24414062 53.70263672 C70.29664287 50.97856097 47.26238505 50.89070312 24.18520737 50.83520889 C21.76525844 50.82826957 19.34537104 50.81661837 16.92544556 50.80404663 C-11.56688187 50.67644961 -39.89351881 52.21224567 -68.09765625 56.453125 Z " fill="#273D8A" transform="translate(974.59765625,-0.203125)"/>
<path d="M0 0 C0.90579803 0.00060425 1.81159607 0.0012085 2.74484253 0.00183105 C24.12288589 0.03883251 45.5008546 0.40942914 66.87438965 0.82528687 C70.81887778 0.90161981 74.76337291 0.96959857 78.70812988 1.03042603 C83.43481073 1.10410326 88.16076443 1.19694151 92.88681602 1.30343819 C94.64585987 1.34015847 96.40504752 1.37062972 98.16431618 1.39423943 C112.20985514 1.59008613 124.93819205 3.00497355 136.25 12.1875 C136.88679688 12.70054687 137.52359375 13.21359375 138.1796875 13.7421875 C146.02164108 20.77638621 149.37883553 30.88955584 150.25 41.1875 C150.4709353 48.15077126 150.15399033 54.91664169 149.1875 61.8125 C149.05883545 62.73724121 148.9301709 63.66198242 148.79760742 64.61474609 C146.20772044 82.09329368 142.00673384 99.33559759 138.15625 116.5703125 C137.98272003 117.34769775 137.80919006 118.12508301 137.63040161 118.92602539 C136.76576466 122.7977474 135.89764161 126.66862273 135.02294922 130.53808594 C133.38451187 137.82055691 131.86566573 145.0860239 130.62817383 152.44970703 C127.70778754 169.76492813 120.72372162 181.73638263 106.3828125 192.11328125 C91.04307074 202.26964394 74.52596702 203.80157607 56.68359375 203.921875 C54.67327558 203.9489153 52.66297554 203.97733315 50.6526947 204.00701904 C45.28869099 204.07994939 39.92480628 204.12646166 34.56044769 204.16384888 C31.25699201 204.18745005 27.9536124 204.21602382 24.65020752 204.24584961 C11.15679994 204.36392503 -2.33593981 204.41645421 -15.82983398 204.42773438 C-21.62720051 204.43332979 -27.42434512 204.45770015 -33.22164059 204.48570633 C-37.77812858 204.50438213 -42.33456165 204.50953976 -46.89108467 204.51107025 C-49.03062795 204.51405839 -51.1701712 204.52195325 -53.30967522 204.53525543 C-82.39615066 204.70406128 -82.39615066 204.70406128 -95.375 197.75 C-96.48101563 197.17378906 -97.58703125 196.59757813 -98.7265625 196.00390625 C-103.47225059 193.15281457 -106.94772299 190.36854497 -109.9375 185.6875 C-110.67033203 184.55828125 -110.67033203 184.55828125 -111.41796875 183.40625 C-114.75 177.8561217 -114.75 177.8561217 -114.75 174.1875 C-115.41 174.1875 -116.07 174.1875 -116.75 174.1875 C-117.00394531 175.27289062 -117.25789063 176.35828125 -117.51953125 177.4765625 C-117.86680382 178.92196724 -118.21448164 180.36727465 -118.5625 181.8125 C-118.8109668 182.88177734 -118.8109668 182.88177734 -119.06445312 183.97265625 C-120.50502469 189.89802608 -122.20619901 195.36052906 -127 199.4375 C-127.54140625 199.91703125 -128.0828125 200.3965625 -128.640625 200.890625 C-133.47239906 203.86127127 -138.73294874 204.43783025 -144.29931641 204.44819641 C-145.57462723 204.45528122 -146.84993805 204.46236603 -148.16389465 204.46966553 C-149.55978429 204.46737209 -150.95567359 204.46486244 -152.3515625 204.4621582 C-153.83562984 204.46651013 -155.31969493 204.47169487 -156.80375671 204.47764587 C-160.82284168 204.49100298 -164.84183239 204.49161767 -168.86093521 204.48908257 C-172.22749995 204.48800953 -175.59404588 204.49290532 -178.96060658 204.497688 C-186.9146701 204.5087742 -194.8686864 204.50922714 -202.82275391 204.50317383 C-210.99502059 204.4971493 -219.16711445 204.50940828 -227.33935165 204.5307439 C-234.38001976 204.54844123 -241.42063329 204.55434808 -248.46132278 204.55110615 C-252.6552729 204.5493043 -256.84910004 204.55181749 -261.04302979 204.56582069 C-264.99611544 204.57852559 -268.94893536 204.57633728 -272.90201759 204.56340981 C-274.34057523 204.56107082 -275.77915231 204.56368059 -277.21768761 204.57203293 C-293.87277799 204.66164082 -309.8177622 202.47006737 -322.75 191.1875 C-331.01505339 182.46327698 -332.98789032 171.40677953 -332.86621094 159.71704102 C-331.29618813 125.5426581 -321.12029168 90.64198522 -313.769104 57.41375732 C-310.5130255 42.67866536 -307.39461721 27.96962088 -305.09301758 13.05200195 C-304.93599365 12.04097412 -304.77896973 11.02994629 -304.6171875 9.98828125 C-304.49456543 9.14434814 -304.37194336 8.30041504 -304.24560547 7.4309082 C-303.75 5.1875 -303.75 5.1875 -301.75 1.1875 C-277.33 1.1875 -252.91 1.1875 -227.75 1.1875 C-228.87496891 13.56215802 -228.87496891 13.56215802 -229.68286133 17.76074219 C-229.95564156 19.19969849 -229.95564156 19.19969849 -230.2339325 20.66772461 C-230.43130508 21.67971924 -230.62867767 22.69171387 -230.83203125 23.734375 C-231.04241531 24.83628174 -231.25279938 25.93818848 -231.46955872 27.07348633 C-232.16230744 30.69578254 -232.86242396 34.31661347 -233.5625 37.9375 C-234.04985228 40.4793895 -234.53665859 43.02138374 -235.02294922 45.56347656 C-236.0533999 50.94779688 -237.08705525 56.33149305 -238.12255859 61.71484375 C-240.48727026 74.01194982 -242.82846129 86.31354607 -245.17062092 98.61496353 C-245.96781649 102.80152895 -246.76621779 106.98786187 -247.56579494 111.17397308 C-248.18235481 114.40235057 -248.79811167 117.63088127 -249.4140625 120.859375 C-249.63649124 122.02243164 -249.85891998 123.18548828 -250.08808899 124.38378906 C-250.3956739 125.99737305 -250.3956739 125.99737305 -250.70947266 127.64355469 C-250.8872525 128.57447937 -251.06503235 129.50540405 -251.24819946 130.46453857 C-252.16272062 135.42707976 -252.92173766 140.19555702 -253 145.25 C-253.02578125 146.25160156 -253.0515625 147.25320313 -253.078125 148.28515625 C-252.67227441 151.87500134 -252.15796602 153.46245448 -249.75 156.1875 C-242.90202234 159.62815547 -235.84365688 159.5998283 -228.34545898 159.52807617 C-226.5293235 159.52873329 -226.5293235 159.52873329 -224.67649841 159.52940369 C-221.38359179 159.52768184 -218.09107643 159.51272143 -214.7982471 159.49168181 C-211.34696603 159.47282385 -207.89567584 159.47115744 -204.4443512 159.46760559 C-197.92095671 159.45831173 -191.39771452 159.43373436 -184.87438685 159.40355712 C-177.44266032 159.36992986 -170.01092622 159.35350626 -162.57914245 159.33847082 C-147.30267368 159.30718211 -132.02635655 159.25447392 -116.75 159.1875 C-116.75786844 158.27730984 -116.75786844 158.27730984 -116.76589584 157.34873199 C-116.76997578 156.54678154 -116.77405571 155.74483109 -116.77825928 154.9185791 C-116.78612772 153.72995144 -116.78612772 153.72995144 -116.79415512 152.5173111 C-116.73132215 149.20197732 -116.21871582 146.04364071 -115.640625 142.78125 C-115.5179274 142.08314713 -115.3952298 141.38504425 -115.26881409 140.66578674 C-114.85539885 138.33786616 -114.42864113 136.01266233 -114 133.6875 C-113.85227142 132.87312469 -113.70454285 132.05874939 -113.55233765 131.21969604 C-110.51275133 114.50467181 -107.0589766 97.87447356 -103.5625 81.25 C-103.30496948 80.0232959 -103.04743896 78.7965918 -102.78210449 77.53271484 C-91.84591886 25.57757049 -91.84591886 25.57757049 -72.51171875 12.81640625 C-58.81237763 4.73631396 -44.73547824 1.41838458 -28.984375 0.63671875 C-28.15210388 0.59487961 -27.31983276 0.55304047 -26.46234131 0.50993347 C-17.64068755 0.09513504 -8.83034307 -0.0110894 0 0 Z M-18 55.1875 C-27.40129551 66.84659183 -28.84564056 82.53140952 -31.4375 96.8125 C-31.83025045 98.92468955 -32.22412332 101.03667072 -32.61914062 103.1484375 C-33.50992961 107.92587026 -34.39090144 112.70493635 -35.25750732 117.48681641 C-35.60203503 119.37610404 -35.95214742 121.26437793 -36.30645752 123.15185547 C-36.48690613 124.11961914 -36.66735474 125.08738281 -36.85327148 126.08447266 C-37.01705795 126.95431793 -37.18084442 127.82416321 -37.34959412 128.72036743 C-37.95760486 132.46667376 -38.11789081 136.14830126 -38.125 139.9375 C-38.14949219 140.64003906 -38.17398437 141.34257813 -38.19921875 142.06640625 C-38.23340684 148.20886573 -36.33808516 152.50698323 -32 157 C-24.93676316 160.72781944 -17.28641672 160.49467668 -9.5078125 160.48828125 C-8.34426239 160.49256638 -7.18071228 160.4968515 -5.98190308 160.50126648 C-3.52944589 160.50698956 -1.07697173 160.50752502 1.37548828 160.50317383 C5.10609204 160.500016 8.83590045 160.52349237 12.56640625 160.54882812 C14.95833234 160.55110169 17.35026055 160.55180435 19.7421875 160.55078125 C20.84666229 160.559991 21.95113708 160.56920074 23.08908081 160.57868958 C33.56067151 160.51683786 42.55394741 158.67648391 50.25 151.1875 C59.67499195 140.83545966 61.04279852 122.71995751 63.36621094 109.57666016 C64.72107577 101.91728606 66.28037229 94.33515568 68 86.75 C72.06380262 68.9865491 72.06380262 68.9865491 67.5 51.8125 C62.67900206 46.18800241 56.49562083 45.18438039 49.45703125 44.63671875 C13.26072079 41.03334713 13.26072079 41.03334713 -18 55.1875 Z " fill="#273D8A" transform="translate(1310.75,733.8125)"/>
<path d="M0 0 C24.09 0 48.18 0 73 0 C71.87526992 10.12257068 71.87526992 10.12257068 70.87670898 14.9152832 C70.65655624 15.98281326 70.4364035 17.05034332 70.20957947 18.15022278 C69.97412918 19.27240707 69.73867889 20.39459137 69.49609375 21.55078125 C69.2533522 22.72714645 69.01061066 23.90351166 68.76051331 25.11552429 C67.9900552 28.84866527 67.21440707 32.58069616 66.4375 36.3125 C65.41087331 41.24517725 64.38942814 46.17888627 63.37109375 51.11328125 C63.13361923 52.2455867 62.89614471 53.37789215 62.651474 54.54450989 C62.43447342 55.59627914 62.21747284 56.6480484 61.99389648 57.73168945 C61.80149887 58.65496536 61.60910126 59.57824127 61.41087341 60.52949524 C60.89062792 63.24022742 60.89062792 63.24022742 61 67 C61.99966797 66.07380859 61.99966797 66.07380859 63.01953125 65.12890625 C68.56443133 60.03380226 74.19888856 55.14069175 80.05859375 50.40625 C83.37387977 47.69414351 86.62869677 44.9189422 89.875 42.125 C94.95612654 37.75281951 100.05171646 33.3992918 105.17529297 29.0769043 C107.87381801 26.80030515 110.56649751 24.51761658 113.24609375 22.21875 C116.47526943 19.45226941 119.73037369 16.71849982 123 14 C123.54688477 13.54141602 124.09376953 13.08283203 124.65722656 12.61035156 C126.2997596 11.24366377 127.95915466 9.90062577 129.625 8.5625 C131.06746094 7.38880859 131.06746094 7.38880859 132.5390625 6.19140625 C142.27897726 -0.48559382 152.70802057 -0.5456954 164.04296875 -0.390625 C165.66391801 -0.38314834 167.28487642 -0.37746216 168.90583801 -0.37347412 C173.13593273 -0.35832968 177.36546266 -0.31914733 181.59533691 -0.2746582 C185.92611047 -0.2334613 190.25697686 -0.2154114 194.58789062 -0.1953125 C203.05885058 -0.15263975 211.52935469 -0.08452772 220 0 C220 0.99 220 1.98 220 3 C218.015625 4.875 218.015625 4.875 215.25 7 C211.00156925 10.35517095 206.953162 13.80331868 203 17.5 C198.46863064 21.7139774 193.79066539 25.68036314 188.97265625 29.5625 C185.46681131 32.43720071 182.04338358 35.39732001 178.625 38.375 C170.03725801 45.85026129 161.39687509 53.25392785 152.5625 60.4375 C147.14930842 64.84504786 141.85690834 69.38444865 136.56640625 73.9375 C133.08100599 76.93561174 129.57419148 79.90776868 126.0625 82.875 C125.52351074 83.33253662 124.98452148 83.79007324 124.42919922 84.26147461 C122.19367987 86.157867 119.95082311 88.03962158 117.66796875 89.87890625 C114.50000829 92.45327738 112.72135576 93.95525522 112 98 C115.18949646 99.88682921 117.4235873 100.21280767 121.10546875 100.08984375 C122.08966797 100.06986328 123.07386719 100.04988281 124.08789062 100.02929688 C126.13490323 99.96867331 128.18179095 99.90365451 130.22851562 99.83398438 C139.32460126 99.66236012 146.55293773 100.84426091 153.36914062 107.21533203 C156.39273426 110.52408495 158.81147174 114.18751981 161.25 117.9375 C162.38986237 119.64721168 163.53181589 121.3555309 164.67578125 123.0625 C165.51810303 124.32320312 165.51810303 124.32320312 166.37744141 125.609375 C168.64524527 128.95068337 171.02509221 132.19977125 173.4375 135.4375 C177.6859056 141.15968327 181.80205138 146.96419213 185.875 152.8125 C196.02259359 167.37365876 206.48008181 181.70640375 217 196 C219.02453631 187.4349047 220.87912257 178.85339704 222.56860352 170.21630859 C222.8065715 169.00885986 223.04453949 167.80141113 223.28971863 166.55737305 C223.93635694 163.2741296 224.58112277 159.99052936 225.22502255 156.70674849 C225.91280057 153.20162792 226.60302656 149.69698935 227.29295349 146.19229126 C228.60721456 139.51415918 229.91929268 132.83560016 231.23058599 126.15688479 C232.68383348 118.75574472 234.13959346 111.35509966 235.59554982 103.95449209 C242.41186278 69.30590407 249.20833635 34.6534275 256 0 C280.75 0 305.5 0 331 0 C329.72850811 8.26469728 328.40358191 16.43793689 326.77612305 24.62768555 C326.56239485 25.71465981 326.34866665 26.80163406 326.12846184 27.92154694 C325.42541372 31.49377527 324.71857148 35.06524149 324.01171875 38.63671875 C323.51114657 41.17657288 323.01082129 43.71647569 322.51072693 46.25642395 C321.31686139 52.31771216 320.12021856 58.3784484 318.92236632 64.43894988 C317.41211193 72.0801047 315.90400353 79.72168272 314.39599609 87.36328125 C313.9858495 89.44162408 313.57570264 91.51996686 313.16555214 93.59830892 C312.89328286 94.97797521 312.621019 96.35764257 312.3487606 97.73731101 C311.53649509 101.85329296 310.72384429 105.96919864 309.91094017 110.08505452 C306.94358587 125.11027053 303.98982007 140.13796641 301.07515144 155.17350197 C300.60172922 157.61449897 300.12731088 160.05529984 299.65245056 162.49601746 C299.42968933 163.64102643 299.42968933 163.64102643 299.20242786 164.80916691 C298.91526819 166.28501213 298.62806797 167.76084947 298.34082317 169.23667812 C297.5394171 173.35741205 296.7445461 177.47933882 295.95447254 181.60225964 C295.37397336 184.62140265 294.78390838 187.6386767 294.1953125 190.65625 C293.99747665 191.70222855 293.79964081 192.74820709 293.59580994 193.82588196 C293.41224442 194.75796982 293.22867889 195.69005768 293.03955078 196.65039062 C292.88543732 197.45045532 292.73132385 198.25052002 292.57254028 199.0748291 C292 201 292 201 290 203 C287.49167061 203.25726891 287.49167061 203.25726891 284.259552 203.26742554 C282.42611992 203.28022049 282.42611992 203.28022049 280.5556488 203.29327393 C279.19351183 203.29257481 277.83137497 203.29165169 276.46923828 203.29052734 C275.04015246 203.2965095 273.61106988 203.30331432 272.18199158 203.31088257 C268.29091533 203.32859528 264.39992699 203.33324054 260.50881433 203.33451414 C258.0747845 203.33593489 255.64077706 203.34020333 253.20675278 203.34550858 C244.70552909 203.36403585 236.2043682 203.37217702 227.703125 203.37060547 C219.79726517 203.36940773 211.89167999 203.39043058 203.98588955 203.4220928 C197.18910196 203.44833632 190.39240349 203.45896919 183.59556568 203.45769465 C179.54075607 203.45718679 175.48618968 203.46276991 171.43143082 203.48405075 C167.60804179 203.50356615 163.78512429 203.50346801 159.96171761 203.48901749 C158.56704957 203.48694368 157.17235103 203.49154399 155.77773476 203.5037384 C144.49523773 203.59590498 133.74648787 202.1632932 124.77490234 194.76757812 C121.44159684 191.44802767 118.89565769 187.66407012 116.3125 183.75 C115.09376948 181.95613268 113.87368817 180.16318243 112.65234375 178.37109375 C112.04374512 177.47116699 111.43514648 176.57124023 110.80810547 175.64404297 C108.07307002 171.64452449 105.22868347 167.72780885 102.375 163.8125 C98.19127095 158.04708649 94.04145969 152.25998862 89.9375 146.4375 C89.45128174 145.74857666 88.96506348 145.05965332 88.46411133 144.34985352 C85.88182557 140.68651133 83.31333701 137.0140945 80.7578125 133.33203125 C79.95549194 132.18166382 79.95549194 132.18166382 79.13696289 131.00805664 C78.11888446 129.54795315 77.10476892 128.08507496 76.09545898 126.61889648 C71.06954132 119.04960084 71.06954132 119.04960084 63.23046875 115.07421875 C61.88510254 114.92327522 60.53705717 114.79468971 59.1875 114.6875 C58.14819336 114.57825195 58.14819336 114.57825195 57.08789062 114.46679688 C55.39384453 114.29155073 53.69707031 114.14302354 52 114 C51.86271484 115.92585937 51.86271484 115.92585937 51.72265625 117.890625 C50.91095398 125.94835815 49.10127653 133.83502655 47.4375 141.75 C47.08222959 143.45719816 46.72733678 145.16447494 46.37280273 146.87182617 C45.63293413 150.42939053 44.88960425 153.98620729 44.14355469 157.54248047 C43.18642416 162.1055803 42.23641327 166.67012633 41.28874207 171.23519897 C40.55835082 174.75113985 39.82508643 178.26647633 39.09085083 181.78161621 C38.73929331 183.46563216 38.3884401 185.1497953 38.03829956 186.83410645 C37.55046999 189.17776192 37.05898181 191.52061933 36.56640625 193.86328125 C36.42196075 194.56038712 36.27751526 195.25749298 36.12869263 195.97572327 C35.11445548 200.77108905 35.11445548 200.77108905 34 203 C10.24 203 -13.52 203 -38 203 C-38 197.28985186 -37.74166135 192.51748166 -36.64675903 187.0372467 C-36.50116228 186.27722066 -36.35556553 185.51719461 -36.20555675 184.73413748 C-35.71978754 182.20813564 -35.22344161 179.68433463 -34.72705078 177.16040039 C-34.37498298 175.34145731 -34.0235698 173.52238742 -33.67276001 171.70320129 C-32.72070671 166.77628375 -31.75943424 161.85120576 -30.79641581 156.9264214 C-29.78849712 151.76400608 -28.78887731 146.59998414 -27.78829956 141.43614197 C-26.10676893 132.76416822 -24.41981075 124.0932654 -22.72900391 115.4230957 C-20.34780309 103.21264557 -17.97652594 91.00028389 -15.60717797 78.78752911 C-13.76351143 69.28635838 -11.91710057 59.78572065 -10.0703125 50.28515625 C-9.77426424 48.76191644 -9.77426424 48.76191644 -9.4722352 47.2079041 C-8.33532586 41.35905119 -7.19703157 35.51047089 -6.05666733 29.66229057 C-5.71201273 27.89394303 -5.36775281 26.12551852 -5.02392578 24.35700989 C-4.55282405 21.93436222 -4.08021208 19.51201385 -3.60720825 17.08973694 C-3.4729598 16.39769309 -3.33871134 15.70564923 -3.20039475 14.99263436 C-2.21732578 9.97110114 -1.11103396 4.99965282 0 0 Z " fill="#273D8A" transform="translate(38,735)"/>
<path d="M0 0 C7.84191111 -0.09341535 15.68368752 -0.1641225 23.52601814 -0.20724869 C27.16907784 -0.2279659 30.81175196 -0.25598523 34.45458984 -0.30175781 C37.98190881 -0.34579247 41.50886118 -0.36925574 45.03643417 -0.37950897 C47.01140199 -0.39030303 48.98622598 -0.42143254 50.96096802 -0.45318604 C64.43417211 -0.45646815 77.20681909 2.22093031 87 12 C90.86209031 16.6874668 94.21120729 21.73651676 97.54882812 26.80371094 C99.31144464 29.47135868 101.12277999 32.10278661 102.94140625 34.73242188 C104.28427606 36.6745724 105.61905128 38.62211136 106.953125 40.5703125 C110.60988117 45.89795524 114.30638642 51.19787728 118 56.5 C122.94690728 63.60239483 127.87824178 70.71452921 132.77075195 77.85449219 C136.87852384 83.84139189 141.03453445 89.79439975 145.1875 95.75 C150.54920997 103.44176956 155.86901743 111.15162205 161 119 C162.91269545 113.76354034 164.01937991 108.48592748 165.10717773 103.03491211 C165.40762497 101.55334877 165.40762497 101.55334877 165.71414185 100.04185486 C166.14728206 97.90437297 166.57880263 95.76656236 167.00887871 93.62846184 C167.69026217 90.2442236 168.37724977 86.86116861 169.06593323 83.47840881 C171.02289071 73.86288518 172.97288727 64.24597348 174.91137695 54.62670898 C176.0986434 48.73725056 177.2951076 42.84972348 178.49742317 36.96331978 C178.95344407 34.72134728 179.4059351 32.4786538 179.85482597 30.23524284 C180.48237744 27.10023113 181.12156972 23.96780244 181.76342773 20.83569336 C182.03708412 19.44613434 182.03708412 19.44613434 182.31626892 18.02850342 C183.9609683 10.11196806 186.61574903 5.89006457 193 1 C195.41774581 -0.20887291 196.93331064 -0.12059343 199.63330078 -0.11352539 C200.59414581 -0.11344986 201.55499084 -0.11337433 202.54495239 -0.11329651 C203.58457123 -0.10813522 204.62419006 -0.10297394 205.6953125 -0.09765625 C206.75789276 -0.0962413 207.82047302 -0.09482635 208.91525269 -0.09336853 C212.31853009 -0.08775834 215.72174238 -0.07520409 219.125 -0.0625 C221.42838447 -0.05748631 223.73176997 -0.05292318 226.03515625 -0.04882812 C231.69012722 -0.03778559 237.3450569 -0.02063954 243 0 C242.48528429 9.77183263 240.76218297 19.17869269 238.82885742 28.7421875 C238.49965574 30.39610083 238.171044 32.05013167 237.8429718 33.70426941 C236.95619748 38.16671047 236.06124143 42.62747451 235.16474319 47.08797073 C234.22222452 51.7848189 233.28735938 56.48319018 232.35163879 61.18139648 C230.57683259 70.08661264 228.79522682 78.99045405 227.01114017 87.89381504 C224.99576089 97.9531295 222.98796188 108.01395187 220.98082197 118.07491302 C217.07117158 137.67139773 213.15275986 157.26612071 209.22935444 176.85985565 C207.98968819 183.05092947 206.75102511 189.24220365 205.51293945 195.43359375 C205.35186046 196.23910172 205.19078146 197.04460968 205.02482128 197.87452698 C204.68318942 199.58301303 204.34158963 201.2915055 204 203 C195.45431869 203.09314209 186.90885346 203.16398697 178.3627882 203.20724869 C174.39344903 203.22802399 170.42446 203.25615443 166.45532227 203.30175781 C162.61679511 203.34557889 158.77860234 203.3692125 154.93984413 203.37950897 C153.48356178 203.38683596 152.02729539 203.40114185 150.57115746 203.42292023 C135.81671691 203.63458921 124.69992617 200.19830881 113.83203125 189.95703125 C99.17160581 174.44208192 87.93036992 155.18075232 76.5 137.25 C70.97873094 128.59317909 65.39936692 119.97922889 59.71777344 111.42687988 C58.60264472 109.7479419 57.49071499 108.06688054 56.37890625 106.38574219 C52.72733381 100.91006164 48.9913684 95.50706034 45.08984375 90.20703125 C44.35499756 89.20776611 43.62015137 88.20850098 42.86303711 87.17895508 C42.24823486 86.4598999 41.63343262 85.74084473 41 85 C40.34 85 39.68 85 39 85 C38.89269341 85.59598936 38.78538683 86.19197872 38.67482853 86.80602837 C36.06596685 101.29463814 33.45370314 115.78263163 30.83763218 130.26994133 C29.57261304 137.27585101 28.30875445 144.28196638 27.04760742 151.28857422 C25.83144006 158.04526807 24.61206594 164.80137679 23.39069939 171.55713272 C22.92432454 174.13982953 22.45904031 176.72272351 21.99484444 179.30581284 C21.34650119 182.91256765 20.69434848 186.51861363 20.04125977 190.12451172 C19.84848953 191.20200684 19.6557193 192.27950195 19.45710754 193.38964844 C19.27903564 194.36843964 19.10096375 195.34723083 18.91749573 196.35568237 C18.7635563 197.20926268 18.60961687 198.06284298 18.45101261 198.94228935 C18 201 18 201 17 203 C-1.48 203 -19.96 203 -39 203 C-38.40244405 197.02444049 -37.8315935 191.52710091 -36.69854736 185.70837402 C-36.50654696 184.71239551 -36.50654696 184.71239551 -36.31066775 183.69629622 C-35.88749897 181.50696236 -35.45793944 179.3189358 -35.02832031 177.13085938 C-34.72062838 175.54605042 -34.41333773 173.96116351 -34.10641479 172.37620544 C-33.27549791 168.09133642 -32.43902069 163.80756996 -31.60153294 159.52398109 C-30.71971928 155.00845081 -29.84314599 150.49190339 -28.96600342 145.97546387 C-27.30043164 137.4035264 -25.63029003 128.83248611 -23.95844722 120.26176977 C-21.89031435 109.65833653 -19.8279199 99.05378869 -17.765625 88.44921875 C-15.65194757 77.58118667 -13.53777134 66.71325361 -11.41973877 55.84606934 C-11.09335406 54.17104399 -10.76697233 52.49601805 -10.44059372 50.82099152 C-9.81682555 47.6197944 -9.19256985 44.41869287 -8.56804276 41.21764374 C-7.18422227 34.11980239 -5.80908341 27.02055226 -4.46130371 19.91577148 C-4.22848064 18.69156242 -3.99565758 17.46735336 -3.75577927 16.20604706 C-3.32978981 13.96097246 -2.90629846 11.71542179 -2.4858284 9.46930695 C-2.30220119 8.50164146 -2.11857399 7.53397598 -1.92938232 6.5369873 C-1.77258373 5.70185356 -1.61578514 4.86671982 -1.45423508 4.00627899 C-1 2 -1 2 0 0 Z " fill="#273D8A" transform="translate(394,735)"/>
<path d="M0 0 C7.89378416 -0.06990045 15.78743626 -0.12301242 23.68145466 -0.15543652 C27.34805139 -0.1710084 31.01443441 -0.19208875 34.6809082 -0.22631836 C38.22764842 -0.25921815 41.77418472 -0.27691653 45.3210659 -0.28463173 C47.31439828 -0.29276919 49.30765007 -0.31613815 51.30085754 -0.33988953 C64.80308181 -0.34235597 76.93053147 2.55125981 87.03125 11.875 C89.95153383 15.02705239 92.17575715 18.49093232 94.48046875 22.109375 C97.77055007 27.26100467 101.30995361 32.24171639 104.8125 37.25 C106.22562782 39.27578543 107.63839217 41.30182445 109.05078125 43.328125 C109.72963379 44.30201172 110.40848633 45.27589844 111.10791016 46.27929688 C113.58630953 49.84307527 116.04631695 53.4191784 118.5 57 C123.65733056 64.52344952 128.87031048 72.00780685 134.08447266 79.49194336 C138.03644377 85.16742608 141.96838587 90.85572376 145.875 96.5625 C149.4102633 101.72223468 152.99217559 106.84593277 156.625 111.9375 C157.05151855 112.53570557 157.47803711 113.13391113 157.91748047 113.75024414 C159.81783206 116.49081729 159.81783206 116.49081729 162 119 C162.11061673 118.4540814 162.22123346 117.9081628 162.33520222 117.34570122 C165.03032277 104.04769186 167.73499125 90.75165531 170.44989491 77.45767021 C171.76252733 71.02867578 173.07199967 64.59907134 174.37426758 58.16796875 C175.63119758 51.96135913 176.89640529 45.75648968 178.16736412 39.55273819 C178.65074391 37.18588446 179.13114056 34.81841947 179.60849953 32.45034409 C180.27773742 29.13303321 180.95755961 25.81805638 181.63989258 22.50341797 C181.834823 21.5244606 182.02975342 20.54550323 182.23059082 19.53688049 C183.95269283 11.2686738 186.17967967 6.07896194 193 1 C195.43967497 -0.21983748 196.99904524 -0.12051527 199.72509766 -0.11352539 C200.70596344 -0.11344986 201.68682922 -0.11337433 202.69741821 -0.11329651 C203.75891083 -0.10813522 204.82040344 -0.10297394 205.9140625 -0.09765625 C207.54122696 -0.09553383 207.54122696 -0.09553383 209.20126343 -0.09336853 C212.67587 -0.08775802 216.15041281 -0.07520372 219.625 -0.0625 C221.97656157 -0.05748635 224.32812415 -0.05292321 226.6796875 -0.04882812 C232.45314758 -0.03778518 238.22656722 -0.02063889 244 0 C242.60745361 9.67814472 240.8360451 19.25833701 238.91479492 28.8425293 C238.6071008 30.38839938 238.29965892 31.93431968 237.9924469 33.48028564 C237.16416287 37.64485013 236.33245202 41.8087235 235.500139 45.97248435 C234.62215993 50.3680955 233.74756691 54.76438028 232.87263489 59.16059875 C231.21275467 67.49842207 229.550153 75.83570005 227.88642818 84.17275697 C224.92021485 99.037185 221.95885326 113.90258007 218.99815637 128.76810771 C217.96343418 133.96286118 216.92760411 139.15739208 215.89081675 144.35173374 C215.08434635 148.39280472 214.27873121 152.43404591 213.47338867 156.4753418 C213.32090082 157.24020287 213.16841296 158.00506394 213.01130426 158.79310262 C210.78177362 169.98265287 208.59723273 181.17981565 206.48762035 192.39271832 C206.30380967 193.36231393 206.11999899 194.33190954 205.93061829 195.33088684 C205.69508476 196.58509288 205.69508476 196.58509288 205.45479298 197.86463642 C205 200 205 200 204 203 C195.45431869 203.09314209 186.90885346 203.16398697 178.3627882 203.20724869 C174.39344903 203.22802399 170.42446 203.25615443 166.45532227 203.30175781 C162.61679511 203.34557889 158.77860234 203.3692125 154.93984413 203.37950897 C153.48356178 203.38683596 152.02729539 203.40114185 150.57115746 203.42292023 C136.28914959 203.62781163 125.85921697 200.52475098 115 191 C107.49965467 183.26663423 101.8129617 173.5650668 95.80029297 164.66210938 C92.71413351 160.09857767 89.6053955 155.55045285 86.5 151 C85.23171461 149.13936124 83.96348512 147.27868437 82.6953125 145.41796875 C77.6702475 138.0479607 72.63197998 130.68700276 67.59277344 123.32666016 C64.89439624 119.38497795 62.197268 115.44244127 59.5 111.5 C58.43359959 109.94140225 57.36719333 108.38280851 56.30078125 106.82421875 C50.8671875 98.8828125 45.43359375 90.94140625 40 83 C36.67022463 98.94155812 33.70743003 114.94075806 30.828125 130.96875 C30.64357254 131.99536743 30.45902008 133.02198486 30.26887512 134.07971191 C28.52859616 143.76443106 26.79489795 153.4503253 25.06396484 163.13671875 C24.10837391 168.48290144 23.14899111 173.82839245 22.18727875 179.17347717 C21.82373216 181.19870532 21.46170967 183.22420766 21.10123444 185.24998474 C20.60260705 188.05207081 20.09922226 190.85326237 19.59472656 193.65429688 C19.37345848 194.90844391 19.37345848 194.90844391 19.14772034 196.18792725 C18.11393377 201.88606623 18.11393377 201.88606623 17 203 C15.2507128 203.09365006 13.49763746 203.11744438 11.74584961 203.11352539 C10.62476303 203.11344986 9.50367645 203.11337433 8.34861755 203.11329651 C6.51896202 203.10555458 6.51896202 203.10555458 4.65234375 203.09765625 C3.41078018 203.0962413 2.16921661 203.09482635 0.89002991 203.09336853 C-2.41605491 203.08870591 -5.72207146 203.07971497 -9.02813721 203.06866455 C-12.3996115 203.05844827 -15.77109283 203.05387045 -19.14257812 203.04882812 C-25.76173775 203.03777395 -32.38086493 203.02101736 -39 203 C-38.31051551 195.76020515 -37.07590903 188.71536794 -35.67431641 181.58203125 C-35.43824677 180.36529724 -35.20217712 179.14856323 -34.95895386 177.8949585 C-34.31212408 174.56480847 -33.66210773 171.23531038 -33.01069689 167.90605545 C-32.31649993 164.35382452 -31.62654986 160.80076871 -30.93612671 157.24780273 C-29.61693816 150.46245914 -28.29415202 143.67782227 -26.96999395 136.89344692 C-25.36390856 128.6638857 -23.76185849 120.43354025 -22.16015625 112.203125 C-21.58658487 109.25585613 -21.01299882 106.30859011 -20.43939209 103.36132812 C-20.22709509 102.27048668 -20.22709509 102.27048668 -20.01050925 101.15760803 C-19.15602064 96.76746707 -18.30081155 92.37746715 -17.4450233 87.98757935 C-14.52332245 73.0000841 -11.6119662 58.01071862 -8.72949219 43.015625 C-8.46888472 41.66067758 -8.20826413 40.30573268 -7.94762993 38.95079041 C-6.73086871 32.62406313 -5.51650306 26.29688696 -4.30581665 19.96899414 C-3.87891495 17.74624312 -3.45194756 15.52350471 -3.02490234 13.30078125 C-2.83275021 12.29190857 -2.64059807 11.28303589 -2.44262314 10.24359131 C-2.26589191 9.32571838 -2.08916069 8.40784546 -1.90707397 7.4621582 C-1.75497656 6.6673555 -1.60287914 5.8725528 -1.44617271 5.05366516 C-1 3 -1 3 0 0 Z " fill="#273D8A" transform="translate(1497,735)"/>
<path d="M0 0 C1.93248488 0.00056482 3.8649702 0.00024617 5.79745483 -0.00088501 C11.01987461 -0.00145676 16.24220176 0.01026874 21.46460009 0.02426291 C26.93117835 0.03679994 32.39775894 0.03794311 37.86434937 0.04031372 C48.20549918 0.04651976 58.5466065 0.06291872 68.88773763 0.0830127 C80.66524857 0.10539898 92.44276158 0.11637199 104.22028852 0.12640357 C128.43773539 0.14728573 152.65514461 0.18244465 176.87255859 0.22705078 C176.71575146 1.99210943 176.55790917 3.75707613 176.39962769 5.52200317 C176.26794599 6.99631648 176.26794599 6.99631648 176.13360405 8.50041389 C175.66358287 13.40981593 174.83271846 18.24409798 173.99755859 23.10205078 C173.83642578 24.10751953 173.67529297 25.11298828 173.50927734 26.14892578 C172.43412041 32.43317639 171.30949539 36.85780668 166.62255859 41.41455078 C160.59396848 45.38793972 154.55359709 45.51906845 147.56005859 45.41455078 C146.5995459 45.40810547 145.6390332 45.40166016 144.64941406 45.39501953 C139.13591265 45.33973767 133.628761 45.19462969 128.11865234 44.99658203 C108.67563605 44.29993928 89.2428408 44.08494375 69.78868866 44.04537964 C67.63963981 44.03959675 65.49064249 44.0299022 63.34161377 44.01904297 C59.24251296 43.99899062 55.1435841 43.99688148 51.04443359 43.99658203 C49.82458771 43.9894368 48.60474182 43.98229156 47.34793091 43.97492981 C35.94598294 44.00447717 24.87874604 44.3743751 14.87255859 50.22705078 C13.38755859 50.72205078 13.38755859 50.72205078 11.87255859 51.22705078 C10.77086876 52.92474313 10.77086876 52.92474313 9.87255859 55.22705078 C9.39399414 56.27393066 8.91542969 57.32081055 8.42236328 58.39941406 C6.83262987 62.11638285 5.88725534 65.89278542 5.07568359 69.84423828 C4.9211824 70.56671753 4.76668121 71.28919678 4.60749817 72.03356934 C4.10564872 74.38833267 3.61397656 76.74509051 3.12255859 79.10205078 C2.77479829 80.7449248 2.42640108 82.38766413 2.07739258 84.03027344 C1.36005241 87.41150003 0.6467743 90.79354692 -0.06347656 94.17626953 C-1.08582825 99.03982766 -2.12608665 103.89942069 -3.17041016 108.75830078 C-3.64937909 110.99246257 -4.12796926 113.226705 -4.60632324 115.46099854 C-4.90947581 116.87626192 -5.21309718 118.29142499 -5.51721191 119.70648193 C-5.94046374 121.67897185 -6.36019423 123.65221637 -6.77978516 125.62548828 C-7.13544556 127.2910376 -7.13544556 127.2910376 -7.49829102 128.99023438 C-8.59403027 134.6275301 -9.31081025 140.17161273 -9.43994141 145.91455078 C-9.47732422 147.01154297 -9.51470703 148.10853516 -9.55322266 149.23876953 C-9.34311667 152.25967708 -9.34311667 152.25967708 -7.60791016 154.49658203 C-0.91803119 159.16369444 7.51664079 158.53413454 15.33349609 158.52783203 C17.11211533 158.53425972 17.11211533 158.53425972 18.92666626 158.54081726 C21.42620202 158.54654104 23.92575444 158.54707528 26.42529297 158.54272461 C30.22831943 158.53956676 34.03056573 158.56304244 37.83349609 158.58837891 C40.27099512 158.59065245 42.70849622 158.59135514 45.14599609 158.59033203 C46.27234467 158.59954178 47.39869324 158.60875153 48.55917358 158.61824036 C56.65740895 158.57129835 66.50359444 157.82401928 72.87255859 152.22705078 C75.47886008 146.18889158 76.85557215 140.17236304 78.06005859 133.72705078 C78.65818359 130.59205078 79.25630859 127.45705078 79.87255859 124.22705078 C70.63255859 124.22705078 61.39255859 124.22705078 51.87255859 124.22705078 C55.34368321 91.91889086 55.34368321 91.91889086 61.87255859 86.22705078 C65.29957841 84.51354088 69.23355662 85.09846096 73.00390625 85.11352539 C73.95029465 85.11337936 74.89668304 85.11323334 75.87174988 85.11308289 C79.01006334 85.11378136 82.14831796 85.12157076 85.28662109 85.12939453 C87.45852628 85.13125894 89.63043189 85.13268274 91.80233765 85.13368225 C97.52670446 85.13750562 103.25104602 85.14733439 108.97540283 85.15838623 C114.81351378 85.16860421 120.65162879 85.1731807 126.48974609 85.17822266 C137.95069471 85.1889568 149.41162455 85.20603108 160.87255859 85.22705078 C160.28438995 94.28020707 158.74806762 103.10693296 157.07177734 112.00830078 C156.7911498 113.51319146 156.51070184 115.01811563 156.23042297 116.52307129 C155.64476134 119.66027333 155.0550084 122.79667373 154.46264648 125.93261719 C153.70983267 129.92128996 152.97031152 133.91229925 152.23424053 137.90409088 C151.65986864 141.00769049 151.076855 144.10962225 150.49149513 147.21116638 C150.21546523 148.68078699 149.94236866 150.15096212 149.67246056 151.62171936 C146.66552919 167.96240432 142.49814397 183.21191315 128.53271484 193.51220703 C115.99390344 201.59522936 102.48773508 203.68733081 87.79907227 203.61523438 C86.44381796 203.61931255 85.08856698 203.62466134 83.73332214 203.63116455 C80.09255304 203.6447001 76.45204244 203.63959624 72.81126952 203.63002729 C68.9724247 203.62235378 65.13359986 203.62949783 61.29475403 203.63418579 C54.84856252 203.63962318 48.40247456 203.63250711 41.95629883 203.61816406 C34.54507948 203.60186226 27.13410813 203.6071162 19.72289485 203.62364328 C13.31986656 203.63734102 6.91691211 203.63913706 0.51387388 203.63132727 C-3.29268518 203.62669324 -7.09912847 203.62590572 -10.9056797 203.63593674 C-58.37606322 203.74376037 -58.37606322 203.74376037 -75.77197266 187.71142578 C-83.68045584 179.46257749 -86.5066214 167.90013477 -86.57836914 156.76879883 C-86.38770473 148.40173514 -84.57742973 140.34946873 -82.89477539 132.17797852 C-81.06617556 123.25955009 -79.4306053 114.32516514 -77.93603516 105.34423828 C-77.65077721 103.63312111 -77.65077721 103.63312111 -77.35975647 101.88743591 C-76.59468089 97.2832805 -75.83257879 92.67871641 -75.08499146 88.07168579 C-73.08499918 75.75699162 -70.88902567 63.51643279 -68.15869141 51.34033203 C-67.81856018 49.78284492 -67.81856018 49.78284492 -67.47155762 48.19389343 C-64.8354201 36.81525834 -60.93347133 27.00471734 -53.12744141 18.22705078 C-52.57830078 17.55029297 -52.02916016 16.87353516 -51.46337891 16.17626953 C-47.34804155 11.50799037 -42.73295817 8.64951106 -37.25244141 5.85205078 C-36.2809314 5.35112915 -36.2809314 5.35112915 -35.28979492 4.84008789 C-24.0103441 -0.60154365 -12.22363609 -0.0501344 0 0 Z " fill="#273D8A" transform="translate(1823.12744140625,734.77294921875)"/>
<path d="M0 0 C1.92366499 0.00141428 3.84733266 0.0006111 5.77099609 -0.00221252 C10.93742331 -0.00363328 16.10325708 0.02553675 21.2695477 0.06065726 C26.68934612 0.09214691 32.10916168 0.09486919 37.52903748 0.1007843 C47.76735712 0.11625681 58.00540632 0.15719516 68.24360746 0.20753175 C79.910005 0.26363161 91.57641619 0.29096341 103.24291527 0.31600893 C127.21865205 0.36811753 151.19414967 0.45593025 175.16967773 0.56762695 C175.0127667 2.1687121 174.85494844 3.76970836 174.69674683 5.3706665 C174.56506513 6.70801283 174.56506513 6.70801283 174.43072319 8.07237625 C173.93028465 12.85590952 173.10613744 17.57895005 172.29467773 22.31762695 C172.13354492 23.31922852 171.97241211 24.32083008 171.80639648 25.3527832 C170.7223183 31.6975819 169.61032491 37.057247 164.98217773 41.81762695 C158.84716949 45.63496542 152.25071072 45.86675372 145.23217773 45.75512695 C144.31984375 45.74868164 143.40750977 45.74223633 142.4675293 45.7355957 C137.22289813 45.68033453 131.98496992 45.53486084 126.74389648 45.3371582 C107.41121468 44.61446605 88.08900494 44.42468896 68.74473572 44.38595581 C66.56283247 44.38017505 64.38098008 44.37048048 62.19909668 44.35961914 C58.69465014 44.34273504 55.19033354 44.33674915 51.68584824 44.3384304 C49.76932059 44.33720685 47.85280603 44.32655164 45.93630981 44.31550598 C26.64682634 44.05223764 26.64682634 44.05223764 10.16967773 52.56762695 C6.12363444 58.62800765 4.09086347 64.57353851 2.66967773 71.6652832 C2.46805527 72.60971283 2.2664328 73.55414246 2.05870056 74.52719116 C1.41498031 77.5587413 0.79200036 80.59411947 0.16967773 83.63012695 C-0.26841854 85.7144612 -0.70779403 87.79852698 -1.1484375 89.88232422 C-2.20566883 94.89640849 -3.24705739 99.91361743 -4.28363037 104.93200684 C-5.02765629 108.51898097 -5.78911567 112.10201204 -6.55297852 115.68481445 C-9.80314949 130.58616327 -9.80314949 130.58616327 -11.14282227 145.75512695 C-11.19889648 147.53983398 -11.19889648 147.53983398 -11.25610352 149.3605957 C-11.06699129 152.57324939 -11.06699129 152.57324939 -9.31079102 154.8684082 C-2.58053573 159.47889804 5.80330097 158.87471915 13.63061523 158.8684082 C15.40923447 158.87483589 15.40923447 158.87483589 17.2237854 158.88139343 C19.72332116 158.88711722 22.22287358 158.88765145 24.72241211 158.88330078 C28.52543857 158.88014293 32.32768487 158.90361861 36.13061523 158.92895508 C38.56811426 158.93122862 41.00561536 158.93193131 43.44311523 158.9309082 C44.56946381 158.94011795 45.69581238 158.9493277 46.85629272 158.95881653 C55.19851314 158.91046025 62.81637941 157.71307405 70.16967773 153.56762695 C74.58053433 146.78055132 75.3276492 137.96194713 76.55639648 130.13012695 C77.16967773 126.56762695 77.16967773 126.56762695 78.16967773 124.56762695 C68.92967773 124.56762695 59.68967773 124.56762695 50.16967773 124.56762695 C50.84788371 117.78556723 51.54892638 111.06178595 52.48217773 104.31762695 C52.58723633 103.45911133 52.69229492 102.6005957 52.80053711 101.71606445 C53.6679795 95.55390541 55.36253699 91.53914707 59.71881104 86.92778015 C63.53671248 84.80896607 67.23326447 85.17515632 71.52807617 85.22705078 C72.47475662 85.2266127 73.42143707 85.22617462 74.39680481 85.22572327 C77.52443092 85.2278125 80.65152032 85.25115023 83.77905273 85.2746582 C85.94809679 85.28025367 88.11714464 85.284524 90.28619385 85.28752136 C95.99418613 85.29897396 101.70194929 85.32844493 107.40985107 85.3616333 C113.23470968 85.3923251 119.05960532 85.40602481 124.88452148 85.42114258 C136.31300755 85.45331405 147.74132359 85.5045156 159.16967773 85.56762695 C158.63275617 90.72806316 158.01882 95.84014037 157.10986328 100.95092773 C156.90262131 102.12309845 156.69537933 103.29526917 156.4818573 104.50296021 C156.25895523 105.74375336 156.03605316 106.98454651 155.80639648 108.26293945 C155.57070948 109.58176335 155.33510008 110.90060112 155.0995636 112.2194519 C154.60661128 114.97489832 154.11118224 117.72988645 153.61425781 120.48461914 C152.98610155 123.96919824 152.36646352 127.45523112 151.74905682 130.94172859 C151.26520753 133.66589029 150.7754803 136.3889731 150.28425026 139.11181259 C149.94374462 141.00672222 149.60893348 142.9026524 149.27433777 144.7986145 C146.06040998 162.46397772 142.43688396 182.19073105 127.16967773 193.56762695 C114.17562302 201.59660151 101.25982113 204.03023827 86.09619141 203.95581055 C84.7409371 203.95988873 83.38568612 203.96523751 82.03044128 203.97174072 C78.38967218 203.98527627 74.74916159 203.98017241 71.10838866 203.97060347 C67.26954384 203.96292995 63.430719 203.970074 59.59187317 203.97476196 C53.14568166 203.98019935 46.6995937 203.97308329 40.25341797 203.95874023 C32.84219862 203.94243843 25.43122727 203.94769237 18.02001399 203.96421945 C11.6169857 203.97791719 5.21403125 203.97971323 -1.18900698 203.97190344 C-4.99556604 203.96726941 -8.80200933 203.96648189 -12.60856056 203.97651291 C-60.58787686 204.08567891 -60.58787686 204.08567891 -77.80297852 187.6887207 C-85.77144856 179.31421397 -88.97563675 168.05107376 -88.83032227 156.56762695 C-87.8815081 146.95474388 -85.93036737 137.46024298 -84.08834839 127.98577881 C-81.47088665 114.51353347 -79.01827864 101.02086115 -76.70510864 87.4932251 C-74.57317403 75.05810533 -72.37504614 62.65058102 -69.70532227 50.31762695 C-69.48803467 49.28428223 -69.27074707 48.2509375 -69.046875 47.1862793 C-65.45492402 31.19408146 -58.59268232 18.24235834 -44.62719727 9.13012695 C-30.40967887 1.39270198 -15.84977362 -0.16575942 0 0 Z " fill="#273D8A" transform="translate(721.830322265625,734.432373046875)"/>
</svg>
