<?xml version="1.0" encoding="UTF-8"?>
<svg version="1.1" xmlns="http://www.w3.org/2000/svg" width="2000" height="1405">
<path d="M0 0 C2 2 2 2 2.02050781 3.88500977 C1.91577148 4.62549561 1.81103516 5.36598145 1.703125 6.12890625 C1.59291016 6.93730957 1.48269531 7.74571289 1.36914062 8.57861328 C1.24732422 9.3776709 1.12550781 10.17672852 1 11 C0.80921875 12.28777344 0.6184375 13.57554688 0.421875 14.90234375 C0.20139013 16.24796958 -0.02274291 17.59300134 -0.25 18.9375 C-0.37568359 19.68837891 -0.50136719 20.43925781 -0.63085938 21.21289062 C-2.01016501 29.30093165 -3.59354931 37.34926718 -5.16308594 45.40209961 C-6.36328483 51.58944072 -7.50153489 57.77700815 -8.5 64 C-9.84780459 72.40027044 -11.46015567 80.74430118 -13.11132812 89.08984375 C-14.31446517 95.22545583 -15.41184098 101.36996778 -16.42578125 107.5390625 C-18.06405418 117.50590023 -19.86827358 127.43983963 -21.6875 137.375 C-22.03855653 139.29815061 -22.38946455 141.22132833 -22.74023438 143.14453125 C-23.46606478 147.1234766 -24.19252125 151.10230686 -24.91943359 155.08105469 C-26.45304443 163.47803359 -27.97879541 171.87643981 -29.50476074 180.27481079 C-30.00329365 183.01812419 -30.50208811 185.76138991 -31.00097656 188.50463867 C-32.49323856 196.71017268 -33.98499954 204.91579642 -35.47436523 213.12185669 C-36.29509666 217.64379473 -37.11623956 222.16565801 -37.9375 226.6875 C-38.10155334 227.5909314 -38.26560669 228.49436279 -38.43463135 229.4251709 C-40.32814215 239.84954601 -42.23118896 250.27208807 -44.15234375 260.69140625 C-44.89329046 264.7109262 -45.63420372 268.73045232 -46.375 272.75 C-46.55836914 273.7447937 -46.74173828 274.7395874 -46.93066406 275.76452637 C-50.60785436 295.72906149 -54.18048924 315.7119047 -57.72607422 335.70019531 C-58.0318766 337.42107109 -58.0318766 337.42107109 -58.34385681 339.17671204 C-58.72303946 341.310972 -59.10133755 343.4453894 -59.47853088 345.58000183 C-60.43896381 350.98392223 -61.46028842 356.3660773 -62.59890747 361.73551941 C-64.93239272 374.90986612 -63.53922251 387.0866318 -56.4609375 398.4765625 C-49.5165824 408.31714153 -39.76753714 413.89107765 -28 416 C-5.11227722 418.18729962 19.74034352 413.12566571 42 408 C42.8854248 407.80212891 43.77084961 407.60425781 44.68310547 407.40039062 C77.12337003 400.08007403 109.67620891 388.66202335 139.08935547 373.00830078 C141.19507319 371.8970544 143.31684846 370.82085936 145.44140625 369.74609375 C166.66959516 358.92232182 188.37192057 346.21958221 206.59960938 330.80102539 C209 329 209 329 212.1875 328.75 C217.77204732 329.97086424 221.88361805 334.28296854 226 338 C226.86367187 338.76957031 227.72734375 339.53914063 228.6171875 340.33203125 C237.87288034 349.03913439 244.43872458 359.19421971 246 372 C246.21900428 384.43631442 242.57882277 393.32783304 235 403 C234.401875 403.76441406 233.80375 404.52882813 233.1875 405.31640625 C227.91527641 411.63209076 221.75496815 416.35231538 215 421 C214.04738281 421.65742188 213.09476563 422.31484375 212.11328125 422.9921875 C202.02489384 429.55952989 191.04028167 434.27831745 180 439 C179.31631348 439.29648437 178.63262695 439.59296875 177.92822266 439.8984375 C158.24453333 448.31124944 136.03782371 453.28113024 115 457 C114.07944824 457.1645166 113.15889648 457.3290332 112.21044922 457.49853516 C52.79236403 467.83253628 -9.78144463 467.26792766 -69 456 C-70.02931641 455.80680176 -71.05863281 455.61360352 -72.11914062 455.41455078 C-87.26698797 452.5124632 -101.94199494 448.23711147 -116.65942383 443.6550293 C-118.91591547 442.91016559 -118.91591547 442.91016559 -121 443 C-121.81572257 447.02018644 -122.62699975 451.04125772 -123.4375 455.0625 C-123.66759766 456.19623047 -123.89769531 457.32996094 -124.13476562 458.49804688 C-125.23883893 463.98641129 -126.29855251 469.44485836 -127 475 C-122.71093564 476.91738958 -118.33640588 477.8851836 -113.75390625 478.8046875 C-112.95535217 478.96862503 -112.1567981 479.13256256 -111.33404541 479.3014679 C-108.74457778 479.83128565 -106.15370136 480.35373219 -103.5625 480.875 C-101.76586781 481.23868156 -99.96923695 481.60236974 -98.17260742 481.96606445 C-93.85092724 482.8384485 -89.52767414 483.70267827 -85.20336914 484.56195068 C-83.33380692 484.93363623 -81.46470417 485.30763171 -79.59570312 485.68212891 C-63.58872623 488.86285931 -47.42038642 490.97958616 -31.25228882 493.15145874 C-27.24370442 493.69111735 -23.23918143 494.24917076 -19.23828125 494.84375 C28.0336924 501.81913596 76.26171617 504.21223954 124 505 C125.83498047 505.03287109 125.83498047 505.03287109 127.70703125 505.06640625 C194.17701337 506.10176423 283.295558 501.66419427 337 457 C337.8559375 456.30519531 338.711875 455.61039063 339.59375 454.89453125 C348.48411844 447.32968461 357.86059414 437.15037678 359.21875 425.05126953 C359.85542337 416.32685478 359.74625955 408.58553982 355 401 C354.525625 400.13246094 354.05125 399.26492188 353.5625 398.37109375 C345.03799753 383.63763876 330.11266684 374.13004181 315.3125 366.4375 C304.47377847 360.75183158 293.05873794 353.11747589 287.4375 341.875 C286.67556007 336.86796616 286.984265 333.44168839 289.9375 329.25 C299.16201166 322.47280776 311.43327576 322.89336964 322.38134766 324.30761719 C326.13651571 324.8926587 329.86156141 325.58893595 333.5859375 326.34375 C336.91158415 327.09438202 336.91158415 327.09438202 340 327 C339.52255098 323.93722967 339.04273483 320.87483466 338.5625 317.8125 C338.42779297 316.94818359 338.29308594 316.08386719 338.15429688 315.19335938 C338.02216797 314.35224609 337.89003906 313.51113281 337.75390625 312.64453125 C337.63345947 311.87471924 337.5130127 311.10490723 337.38891602 310.31176758 C336.97693079 307.86287359 336.49856342 305.43261322 336 303 C321.52801123 300.44997818 307.03859763 298.43433633 292.4375 296.8125 C291.68907837 296.72818726 290.94065674 296.64387451 290.16955566 296.55700684 C287.96641536 296.31030825 285.76277738 296.06922054 283.55859375 295.83203125 C282.85062653 295.75572479 282.1426593 295.67941833 281.41323853 295.60079956 C277.7619237 295.22504495 274.12469629 294.93688586 270.45751953 294.77099609 C269.7252565 294.73640793 268.99299347 294.70181976 268.23854065 294.66618347 C266.21955708 294.57945517 264.19972912 294.5130716 262.17993164 294.44799805 C259 294 259 294 257.05981445 292.60693359 C256 291 256 291 255.9453125 288.71484375 C257.42857837 284.89680753 260.03712304 282.41444177 262.875 279.5625 C269.43733625 272.73026849 275.31314026 265.5687383 281 258 C281.45616699 257.39542969 281.91233398 256.79085938 282.38232422 256.16796875 C299.40407133 233.52791308 313.237076 209.78741838 325 184 C325.48509033 182.94184082 325.48509033 182.94184082 325.97998047 181.86230469 C348.59285437 131.6795804 351.61186366 71.97661142 332.39453125 20.42578125 C331.04722813 16.98240261 331.04722813 16.98240261 329.33984375 13.71875 C327.9231134 10.84398521 327.63917481 9.15722045 328 6 C329.58643582 4.41356418 331.19687551 4.85446924 333.39306641 4.8527832 C338.91257603 4.91132179 344.25654772 5.55175055 349.7109375 6.35546875 C350.70842514 6.49716995 351.70591278 6.63887115 352.73362732 6.78486633 C355.94862556 7.24444598 359.16185648 7.71513973 362.375 8.1875 C363.47701752 8.34750488 364.57903503 8.50750977 365.71444702 8.67236328 C381.35996548 10.94470449 396.96300884 13.33806656 412.49023438 16.32568359 C415.01915849 16.81155507 417.54870495 17.29142762 420.08007812 17.76416016 C449.81017271 23.31852161 479.22058841 29.79389132 508.4375 37.625 C509.69220596 37.96090149 509.69220596 37.96090149 510.97225952 38.30358887 C528.67315996 43.059844 546.23673251 48.2636097 563.625 54.0625 C564.31022736 54.29066406 564.99545471 54.51882812 565.70144653 54.75390625 C649.28994364 82.69347383 744.96283627 124.0541992 803.93798828 217.84375 C817.66054103 246.19051027 820.55658717 280.11992962 810.5625 310.125 C808.61363787 315.54364633 806.51970734 320.82345839 804 326 C803.24589844 327.60101563 803.24589844 327.60101563 802.4765625 329.234375 C795.96325029 342.73255144 787.40793732 354.39650264 778 366 C777.35160156 366.80566406 776.70320313 367.61132812 776.03515625 368.44140625 C774.74255655 370.00579953 773.38085314 371.51292739 772 373 C771.34 373 770.68 373 770 373 C769.74476562 373.58136719 769.48953125 374.16273438 769.2265625 374.76171875 C765.44430461 381.66373713 757.92460566 386.94339449 752 392 C751.08863281 392.80050781 750.17726563 393.60101563 749.23828125 394.42578125 C731.9205743 409.51684635 712.59746378 421.94888727 692.9765625 433.80029297 C691.37324634 434.77345201 689.77894983 435.76146045 688.1875 436.75390625 C681.59523043 440.84066796 674.70081361 444.2630603 667.73681641 447.65820312 C664.55002477 449.2206123 661.37536503 450.8066903 658.19921875 452.390625 C640.92886645 460.95745631 623.43262258 468.62420799 605.47753906 475.63964844 C602.50812263 476.80123144 599.54598976 477.97890964 596.5859375 479.1640625 C572.72454403 488.60493674 548.08688668 496.5092268 523.30029297 503.11083984 C519.60065112 504.107592 515.9114475 505.1398234 512.22265625 506.17578125 C471.47841486 517.58133102 429.78262284 526.32999944 388 533 C387.02853027 533.15774902 386.05706055 533.31549805 385.05615234 533.47802734 C344.54502166 540.02933231 303.7422121 544.44961089 262.83163452 547.54829407 C259.01284707 547.83814838 255.19998309 548.1654326 251.38671875 548.51953125 C241.57157011 549.34252252 231.71488884 549.61645247 221.875 550 C220.23476868 550.06486603 220.23476868 550.06486603 218.56140137 550.13104248 C196.71277017 550.99049025 174.86257321 551.63620336 153 552 C151.3902832 552.02707031 151.3902832 552.02707031 149.74804688 552.0546875 C143.49614963 552.14305354 137.25149122 552.10498831 131 552 C130.33917419 551.98904297 129.67834839 551.97808594 128.99749756 551.96679688 C116.63372553 551.75704846 104.27338583 551.44805519 91.91320801 551.08532715 C89.98281591 551.02878644 88.05239584 550.97319201 86.12194824 550.9185791 C39.26393715 549.58660504 -7.49429174 545.90949864 -54 540 C-55.27359375 539.84176758 -56.5471875 539.68353516 -57.859375 539.52050781 C-75.51930446 537.31748524 -93.0678819 534.6179726 -110.60351562 531.58496094 C-113.6559366 531.05925646 -116.71007184 530.54617711 -119.765625 530.0390625 C-202.08749642 516.25726865 -284.1334074 494.13978121 -360 459 C-361.05912598 458.51031738 -362.11825195 458.02063477 -363.20947266 457.51611328 C-385.62665703 447.09279269 -407.37336612 435.65457946 -428 422 C-428.68465332 421.54947266 -429.36930664 421.09894531 -430.07470703 420.63476562 C-444.79402159 410.90005119 -458.91649069 400.27771068 -471.71484375 388.109375 C-474.01029808 385.87991361 -474.01029808 385.87991361 -477 384 C-477 383.34 -477 382.68 -477 382 C-477.556875 381.79375 -478.11375 381.5875 -478.6875 381.375 C-481.29370206 379.82536634 -482.8558608 377.92071791 -484.7265625 375.5625 C-486.10679501 373.8150402 -486.10679501 373.8150402 -488.3125 371.6875 C-514.69172271 345.30827729 -531.82596494 310.32716241 -532.3125 272.75 C-532.22452268 254.19966089 -528.22973933 235.65542483 -520 219 C-519.49726562 217.93394531 -518.99453125 216.86789062 -518.4765625 215.76953125 C-509.38586472 196.90941844 -496.39243323 181.04849856 -482 166 C-481.26007813 165.21882812 -480.52015625 164.43765625 -479.7578125 163.6328125 C-478.21832983 162.04222667 -476.61708539 160.5116233 -475 159 C-474.34 159 -473.68 159 -473 159 C-473 158.34 -473 157.68 -473 157 C-471.15625 155.29296875 -471.15625 155.29296875 -468.5 153.1875 C-467.48292969 152.37796875 -466.46585937 151.5684375 -465.41796875 150.734375 C-464.86157715 150.29287109 -464.30518555 149.85136719 -463.73193359 149.39648438 C-461.98026877 147.98409041 -460.26357821 146.53733405 -458.55078125 145.078125 C-431.88401852 122.54900124 -400.40935232 105.02244012 -369 90 C-367.64890137 89.3512793 -367.64890137 89.3512793 -366.27050781 88.68945312 C-337.89083761 75.13637119 -308.70439912 64.21185717 -279 54 C-277.96488281 53.64035156 -276.92976562 53.28070313 -275.86328125 52.91015625 C-261.73553787 48.0038688 -247.43497138 43.89985759 -233 40 C-231.69019103 39.64318212 -230.38046048 39.28607631 -229.07080078 38.92871094 C-162.05081192 20.66512274 -93.29924062 8.6116389 -24.25 1.25 C-23.07904785 1.12230225 -21.9080957 0.99460449 -20.70166016 0.86303711 C-5.90144521 -0.66111298 -5.90144521 -0.66111298 0 0 Z " fill="#0061AA" transform="translate(824,79)"/>
<path d="M0 0 C5.50388411 0.01131153 11.00760606 0.00721404 16.51148427 -0.00540668 C93.65618458 -0.17762076 170.39220733 3.65693979 247.07691395 12.3857066 C247.82322072 12.47058331 248.56952748 12.55546002 249.3384496 12.64290875 C258.48448732 13.68915103 267.61370089 14.84874081 276.73737538 16.07314557 C279.3134814 16.41731188 281.89023438 16.75637302 284.46705067 17.09517926 C316.50352684 21.32163978 348.30630922 26.49254294 380.07691395 32.3857066 C381.77173256 32.69823705 383.46655649 33.0107386 385.16138661 33.3232066 C442.87750217 44.00375844 500.3352236 57.94277696 556.07691395 76.3857066 C557.50033574 76.85405125 558.92384321 77.32213556 560.34742177 77.79000348 C595.05872363 89.20513584 595.05872363 89.20513584 611.07691395 95.3857066 C612.05837391 95.75953473 613.03983387 96.13336285 614.05103505 96.5185191 C645.00604209 108.32681689 675.44089721 121.49915811 704.67408192 137.1122691 C707.04070771 138.36651825 709.41759714 139.59838944 711.7995702 140.8232066 C742.15555703 156.47029792 771.27360865 175.40977396 797.5261327 197.28023785 C801.04673646 200.1862186 804.65901357 202.97223742 808.2761327 205.75680035 C808.87039052 206.29433942 809.46464833 206.83187848 810.07691395 207.3857066 C810.07691395 208.0457066 810.07691395 208.7057066 810.07691395 209.3857066 C810.63612538 209.62039654 811.1953368 209.85508649 811.77149403 210.09688824 C814.64468455 211.7031122 816.63224741 213.6816505 818.9636327 216.00680035 C819.42494084 216.46619504 819.88624897 216.92558972 820.36153615 217.39890546 C821.33805196 218.37406275 822.31205651 219.35174044 823.28370106 220.33175153 C824.73549515 221.794078 826.19740924 223.24564329 827.66089833 224.69625348 C846.21269313 243.2186895 860.9028688 264.72476995 872.07691395 288.3857066 C872.62476552 289.53941754 873.17261708 290.69312848 873.7370702 291.88180035 C889.53238095 326.82539064 890.50165759 367.52859052 877.07691395 403.3857066 C876.8257079 404.06649274 876.57450184 404.74727887 876.31568348 405.44869488 C867.69110555 428.47045558 854.09587737 449.81349326 837.41285145 467.8388316 C835.49806352 469.92652681 833.63901946 472.0430714 831.78785145 474.18648785 C828.11942645 478.38921626 824.27318004 482.38174542 820.32691395 486.3232066 C819.2754015 487.37351056 819.2754015 487.37351056 818.20264637 488.44503278 C813.58016131 493.01346608 808.87085377 497.2506077 803.75660145 501.26461285 C801.31205413 503.19958253 798.9539507 505.21030844 796.60352528 507.25777692 C783.67449666 518.4686292 769.43226073 528.10541157 755.07691395 537.3857066 C754.35423329 537.85331403 753.63155262 538.32092145 752.88697255 538.80269879 C737.48734118 548.72886866 721.88407838 558.26618261 705.37378895 566.24117535 C702.19367062 567.79313116 699.08107187 569.45583941 695.96969044 571.14095563 C687.67074731 575.6274507 679.23863572 579.69738117 670.63941395 583.5732066 C669.93548512 583.89174603 669.23155629 584.21028546 668.50629628 584.5384776 C607.52844109 612.08416924 543.82515582 632.776375 479.07691395 649.3857066 C478.02922841 649.65689313 476.98154286 649.92807965 475.90210927 650.20748395 C447.12289512 657.64605641 418.12974805 664.26552019 388.9011327 669.67525738 C384.89485275 670.41952926 380.89193327 671.18014019 376.88941395 671.94430035 C355.10044205 676.09508568 333.28188741 679.90493683 311.30689442 682.93648785 C308.24205686 683.36273888 305.17847099 683.79727474 302.11513722 684.23418683 C219.42844829 696.01960948 135.94219652 702.64816634 -65.92308605 703.3857066 C-67.03868907 703.34423505 -68.1542921 703.30276349 -69.30370128 703.26003522 C-123.64490796 701.21260664 -177.88009482 697.53101111 -231.92308605 691.3857066 C-232.97393383 691.26709271 -232.97393383 691.26709271 -234.04601085 691.14608258 C-256.06571367 688.6572292 -278.01013676 685.68046735 -299.92308605 682.3857066 C-300.7502412 682.26173505 -301.57739635 682.13776349 -302.42961681 682.01003522 C-354.17715927 674.23824601 -406.04922378 664.86884925 -456.62209117 651.2955119 C-461.43609346 650.01178015 -466.26255258 648.82509574 -471.11809337 647.70960492 C-483.11018123 644.94404585 -494.88839295 641.60883346 -506.67308605 638.0732066 C-508.62544616 637.49114782 -510.57783913 636.90919924 -512.53026378 636.32735699 C-532.44219801 630.37893987 -552.18835907 624.02017386 -571.86058605 617.3232066 C-572.58053752 617.07908032 -573.300489 616.83495404 -574.04225719 616.58342999 C-591.87891587 610.52351168 -609.32803467 603.51244751 -626.73558605 596.3232066 C-627.61995342 595.95808972 -628.50432079 595.59297284 -629.41548717 595.21679181 C-644.58185247 588.93574088 -659.4123404 582.16677891 -674.08519542 574.8075816 C-676.51860261 573.58836589 -678.95918795 572.38717334 -681.40746105 571.1982066 C-698.50445862 562.85856981 -715.30534241 553.80405876 -731.27123058 543.45406598 C-733.72448329 541.86739233 -736.2008984 540.31765882 -738.67308605 538.7607066 C-740.42493608 537.63858965 -742.17495907 536.51361488 -743.92308605 535.3857066 C-744.8048048 534.81980817 -745.68652355 534.25390973 -746.59496105 533.67086285 C-764.05787919 522.26207794 -780.25978507 509.44701262 -795.67308605 495.4169566 C-797.66525081 493.61847452 -799.69088116 491.87370576 -801.73558605 490.1357066 C-839.77720698 456.96526884 -868.02066412 410.47857381 -872.14623058 359.6357066 C-874.73396422 316.02549955 -855.9762624 275.45069993 -828.92308605 242.3857066 C-828.4927003 241.85380719 -828.06231456 241.32190778 -827.61888683 240.7738902 C-816.59554456 227.21929151 -804.17976312 214.75336904 -790.92308605 203.3857066 C-789.94726573 202.52848004 -788.97144542 201.67125348 -787.9660548 200.78805035 C-767.09085763 182.76855731 -743.83864951 167.07726897 -719.92308605 153.3857066 C-719.07955577 152.90037457 -718.2360255 152.41504254 -717.3669337 151.91500348 C-695.35577675 139.27576945 -673.02695488 127.87740761 -649.92308605 117.3857066 C-649.16495616 117.03943219 -648.40682628 116.69315778 -647.62572277 116.3363902 C-633.79828347 110.04162643 -619.6202092 104.50306784 -605.52660167 98.8363902 C-602.65069794 97.67862462 -599.77836769 96.5127978 -596.90746105 95.34273785 C-584.76966341 90.45027605 -572.32521251 86.43503019 -559.89688671 82.35587567 C-555.27676931 80.83760187 -550.6661951 79.2927478 -546.0598048 77.73336285 C-532.64067892 73.19639317 -519.21285637 68.81051858 -505.5388087 65.0966441 C-502.82432698 64.35886449 -500.11398797 63.60696278 -497.4035548 62.8544566 C-408.17442659 38.27919993 -316.97101155 21.16712494 -173.41063488 6.60317487 C-171.04143823 6.39605327 -168.67265785 6.18471077 -166.30394542 5.97213238 C-110.96134731 1.04091827 -55.52654936 -0.12733584 0 0 Z M-34.92308605 31.3857066 C-37.32788679 37.19221292 -38.40366503 43.14787354 -39.58250988 49.29342145 C-39.97936324 51.35340529 -40.38913848 53.41051645 -40.80003917 55.46773785 C-42.42133854 63.74881317 -43.49591669 71.9470799 -43.92308605 80.3857066 C-42.9794923 80.91937848 -42.03589855 81.45305035 -41.06371105 82.0028941 C-19.1134921 94.64194397 -3.00465263 111.50111037 4.07691395 136.3857066 C4.33802968 137.25759625 4.5991454 138.1294859 4.86817372 139.02779645 C7.5560365 149.04960501 7.58747817 158.83952561 7.51441395 169.1357066 C7.50985188 170.49314984 7.50985188 170.49314984 7.50519764 171.87801617 C7.39379475 194.32000478 3.98266311 215.00878056 -2.92308605 236.3857066 C-3.17928722 237.19781598 -3.43548839 238.00992535 -3.69945323 238.8466441 C-11.84874702 264.44994605 -23.85044467 290.11101683 -38.92308605 312.3857066 C-39.8618908 313.80802334 -40.79925756 315.23128974 -41.73558605 316.65523785 C-56.3233752 338.78182271 -72.46364405 359.45056937 -90.50951183 378.8544566 C-91.96089156 380.42665931 -93.39463274 382.01351353 -94.8254298 383.6044566 C-101.32976225 390.80560513 -108.14490725 397.49628005 -115.36351573 403.97896832 C-116.86520082 405.33349391 -118.35151911 406.70499666 -119.83714855 408.07711285 C-124.88616688 412.73501005 -130.017938 417.19991059 -135.43871105 421.42086285 C-137.18962013 422.80562271 -138.90582483 424.2348274 -140.59496105 425.69430035 C-141.4663673 426.43808942 -142.33777355 427.18187848 -143.23558605 427.9482066 C-144.01546886 428.63012067 -144.79535167 429.31203473 -145.5988673 430.01461285 C-147.92308605 431.3857066 -147.92308605 431.3857066 -150.7160548 431.10055035 C-151.44437511 430.86465192 -152.17269542 430.62875348 -152.92308605 430.3857066 C-153.2199096 423.97465647 -152.08675351 418.04483243 -150.86839855 411.76461285 C-150.65153896 410.6178407 -150.43467937 409.47106854 -150.21124828 408.28954571 C-149.74161817 405.80851193 -149.26923145 403.32799869 -148.79439342 400.84795636 C-147.64638453 394.8491581 -146.51560692 388.84713229 -145.38543308 382.84495229 C-145.1256644 381.46568298 -144.86567453 380.08645531 -144.60546863 378.70726842 C-141.92792681 364.51283559 -139.37807143 350.29687923 -136.86058605 336.0732066 C-133.56387506 317.47493817 -130.19083152 298.89268673 -126.73558605 280.3232066 C-123.75657799 264.31260353 -120.80753678 248.2980556 -117.94914806 232.26546735 C-115.46920811 218.35881492 -112.92178984 204.46510597 -110.36058605 190.5732066 C-107.85036021 176.95692823 -105.36465455 163.33802898 -102.98558605 149.6982066 C-100.61248224 136.09755133 -98.10949995 122.5223804 -95.58562267 108.94893903 C-91.10497347 84.8975793 -91.10497347 84.8975793 -86.740713 60.82491559 C-86.49233412 59.43530194 -86.24240089 58.04596497 -85.990713 56.65694684 C-84.5895038 48.91220417 -83.47221059 41.23969886 -82.92308605 33.3857066 C-98.61740679 32.91918674 -114.22819815 34.22563366 -129.86440456 35.40418881 C-132.13193294 35.57481289 -134.3996081 35.74336501 -136.66731822 35.91155499 C-162.48701734 37.8329518 -188.22103105 40.24121737 -213.92308605 43.3857066 C-215.04605083 43.52202496 -215.04605083 43.52202496 -216.19170177 43.66109723 C-225.77935297 44.82584528 -235.35474033 46.07110372 -244.92308605 47.3857066 C-246.12014171 47.54925641 -247.31719738 47.71280621 -248.55052745 47.88131207 C-263.77891696 49.97396514 -278.95708801 52.2926771 -294.10521495 54.90328473 C-296.77602915 55.36053034 -299.4486763 55.80463569 -302.1223048 56.2450816 C-378.22255209 68.92963853 -454.83315508 87.68549431 -526.92308605 115.3857066 C-527.99349132 115.79498395 -529.06389659 116.20426129 -530.16673839 116.62594098 C-546.27126714 122.80524482 -562.17227191 129.35598083 -577.92308605 136.3857066 C-578.85346691 136.79675641 -579.78384777 137.20780621 -580.74242198 137.63131207 C-593.75856407 143.38456369 -606.42238162 149.5879817 -618.92308605 156.3857066 C-620.56501313 157.26982119 -622.20694021 158.15393577 -623.8488673 159.03805035 C-656.53412217 176.73258769 -687.00824132 197.14964265 -714.51683605 222.20211285 C-716.1708881 223.70311139 -717.83840275 225.18936569 -719.51683605 226.66305035 C-724.0549702 230.66125589 -728.27771898 234.6952813 -732.1691798 239.32711285 C-733.37467544 240.74202644 -734.61980589 242.12381574 -735.8957423 243.47555035 C-752.76128316 261.3817961 -765.09362831 282.55370392 -773.92308605 305.3857066 C-774.53796886 306.89971051 -774.53796886 306.89971051 -775.16527355 308.44430035 C-787.43340955 341.20688062 -783.43720822 377.79597339 -769.3723048 409.12398785 C-764.63218979 419.43708695 -759.73658508 429.27384162 -752.92308605 438.3857066 C-752.20507823 439.37312848 -751.48707042 440.36055035 -750.7473048 441.3778941 C-748.51122496 444.41340144 -746.25495779 447.42359926 -743.92308605 450.3857066 C-743.00511241 451.561815 -743.00511241 451.561815 -742.06859386 452.76168317 C-736.50125768 459.74542628 -730.50188531 466.11743826 -724.16722667 472.40230817 C-722.54962318 474.00917967 -720.94301692 475.62649155 -719.33714855 477.2450816 C-712.8552487 483.73608332 -706.14253234 489.70959328 -698.92308605 495.3857066 C-697.49844768 496.53524891 -696.07395761 497.68497505 -694.64964855 498.83492535 C-667.67252293 520.25468505 -637.47097638 538.59015301 -606.50121105 553.6435191 C-604.24995502 554.73965468 -602.00859628 555.85660059 -599.78246105 557.0028941 C-548.37340021 583.46716434 -492.23861505 602.28045993 -436.55394542 617.39937848 C-433.13765252 618.32741932 -429.72533296 619.26878969 -426.31371105 620.2138316 C-389.61135442 630.31860326 -352.39158446 638.65810256 -314.92308605 645.3857066 C-314.01139659 645.55022321 -313.09970714 645.71473981 -312.16039073 645.88424176 C-300.675196 647.94662863 -289.17654616 649.85675386 -277.6301173 651.5419566 C-273.24834936 652.18299743 -268.87255945 652.85789208 -264.4973048 653.5419566 C-245.01637797 656.57910315 -225.51766631 659.1988213 -205.92308605 661.3857066 C-205.19726329 661.4671391 -204.47144054 661.54857159 -203.72362316 661.63247174 C-107.4395332 672.40379856 -10.36455095 675.14921201 131.07691395 669.3857066 C132.85035176 669.27325604 132.85035176 669.27325604 134.65961659 669.15853375 C165.88771762 667.14661049 197.00465985 664.07356929 228.07691395 660.3857066 C228.83192189 660.29611676 229.58692982 660.20652692 230.36481678 660.11422223 C266.44122603 655.81033441 302.37244563 650.09439104 338.07691395 643.3857066 C339.36581532 643.14481305 340.65471669 642.90391949 341.98267567 642.65572613 C421.40367938 627.77092052 499.80203369 606.18746301 630.66236317 548.69234723 C633.19994173 547.31912979 635.74889939 545.96880917 638.2995702 544.6200816 C658.42195327 533.90758938 677.70010223 521.8769757 696.07691395 508.3857066 C696.91851063 507.77154889 696.91851063 507.77154889 697.77710927 507.14498395 C722.75049192 488.87783515 747.58747787 467.11223391 765.07691395 441.3857066 C765.96105339 440.13350174 766.84647481 438.88220106 767.73316395 437.63180035 C788.83645141 407.43538624 801.04404626 369.54245004 795.0886327 332.6669566 C792.43481882 318.19189616 788.47246376 304.66186195 782.07691395 291.3857066 C781.35761708 289.81756207 781.35761708 289.81756207 780.62378895 288.21773785 C769.55707706 264.87557126 751.66499885 240.2363948 731.07691395 224.3857066 C728.79521661 222.15833538 726.56205472 219.90678373 724.38941395 217.5732066 C723.12473124 216.16206883 723.12473124 216.16206883 721.07691395 216.3857066 C721.07691395 215.7257066 721.07691395 215.0657066 721.07691395 214.3857066 C719.11450594 212.67473212 717.14512611 211.08566199 715.07691395 209.5107066 C714.45187977 209.0281944 713.82684559 208.54568219 713.18287098 208.0485484 C711.15319934 206.48674094 709.11568436 204.93561262 707.07691395 203.3857066 C706.40370106 202.870565 705.73048817 202.3554234 705.03687489 201.82467145 C692.78813922 192.45989735 680.13511515 184.01453235 667.07691395 175.8232066 C666.07982411 175.19760846 665.08273427 174.57201031 664.05542958 173.92745465 C654.39430703 167.90033959 644.6955679 162.08113602 634.45972645 157.0810191 C632.02889251 155.86279516 629.64095354 154.61798962 627.25660145 153.3153941 C602.15518261 139.6545411 575.70685359 128.66957962 549.07691395 118.3857066 C547.56653553 117.79547711 547.56653553 117.79547711 546.02564442 117.19332379 C527.28849841 109.88080355 508.20136193 103.59578144 489.07691395 97.3857066 C487.90902333 97.00527203 486.7411327 96.62483746 485.53785145 96.23287457 C465.61210714 89.78791439 445.36738505 84.53745089 425.07691395 79.3857066 C424.23890248 79.17260846 423.400891 78.95951031 422.53748524 78.73995465 C397.50452081 72.3846283 372.38132787 66.73718688 347.03663075 61.76986188 C345.26393937 61.42236843 343.49168902 61.07262698 341.71949208 60.72262067 C335.84649862 59.56558242 329.96718568 58.45123538 324.07691395 57.3857066 C323.19857899 57.22650738 322.32024403 57.06730817 321.41529286 56.90328473 C298.72875275 52.81819746 275.94075911 49.31860364 253.07691395 46.3857066 C252.39475819 46.29805035 251.71260243 46.2103941 251.00977528 46.1200816 C205.47765838 40.28173354 159.90318691 36.12891743 114.07691395 33.3857066 C113.03452565 33.32298566 111.99213734 33.26026471 110.91816151 33.19564313 C62.37844338 30.32886519 13.67729726 31.18677152 -34.92308605 31.3857066 Z " fill="#0061AA" transform="translate(958.9230860471725,-0.3857066035270691)"/>
<path d="M0 0 C0.93981096 0.00018436 1.87962193 0.00036873 2.84791201 0.00055867 C3.83860963 -0.00311801 4.82930725 -0.0067947 5.85002601 -0.0105828 C9.19911385 -0.02167159 12.5481707 -0.02547273 15.8972742 -0.02927226 C18.28905479 -0.03553455 20.6808344 -0.04218114 23.07261294 -0.04918498 C30.28791248 -0.06848072 37.5032095 -0.07903991 44.71852705 -0.08791277 C48.13230435 -0.09230162 51.54608012 -0.09766829 54.95985621 -0.10290164 C66.34757589 -0.11994811 77.73529462 -0.13442244 89.12302512 -0.14165038 C92.08293107 -0.14355986 95.04283702 -0.14548021 98.00274295 -0.14743632 C99.10606274 -0.14816193 99.10606274 -0.14816193 100.23167183 -0.1489022 C112.03567639 -0.15712764 123.8395771 -0.18231948 135.64353672 -0.215017 C147.82079642 -0.2484657 159.99800428 -0.26613411 172.17531002 -0.26929462 C178.98768981 -0.27142944 185.79989721 -0.28018365 192.61223429 -0.30575579 C233.57738186 -0.45141915 274.37973341 0.22483218 314.53277224 9.14772969 C315.43817752 9.33947774 316.34358279 9.53122579 317.27642459 9.72878438 C353.68949891 17.4541801 390.21864445 31.20692819 420.53277224 53.14772969 C421.49828006 53.84124532 422.46378787 54.53476094 423.45855349 55.24929219 C441.2407653 68.30341915 458.32184251 83.38955965 471.53277224 101.14772969 C471.97363162 101.73393087 472.41449099 102.32013204 472.86870974 102.92409688 C513.59357499 157.43487935 534.35729571 228.92381564 524.89654177 296.71413594 C518.49122794 339.56525561 504.96019063 381.6512389 479.53277224 417.14772969 C479.06081424 417.80901876 478.58885623 418.47030782 478.10259646 419.15163594 C471.46494106 428.38434963 464.46145768 436.98419273 456.53277224 445.14772969 C455.93448611 445.77179708 455.33619998 446.39586446 454.71978396 447.03884298 C445.8783466 456.2361621 436.82224385 464.60583144 426.53277224 472.14772969 C425.6788489 472.78484884 425.6788489 472.78484884 424.80767459 473.43483907 C389.06989028 500.07445049 348.28552251 515.57427651 304.53277224 523.14772969 C303.66104373 523.30080587 302.78931521 523.45388204 301.89117068 523.61159688 C279.09413182 527.53907744 256.30011926 528.44514044 233.20660037 528.37478048 C230.56269569 528.37421471 227.91880205 528.37444869 225.27489871 528.37566549 C219.637494 528.3767025 214.00013641 528.37055189 208.36274356 528.35918981 C200.21252891 528.34277407 192.0623365 528.33771059 183.91210711 528.33521383 C170.68148265 528.33086158 157.45088318 528.31762042 144.22027224 528.2986086 C131.38563808 528.28018523 118.55101075 528.26606055 105.71636599 528.25759298 C104.52505182 528.25680481 104.52505182 528.25680481 103.30967069 528.25600071 C99.32443486 528.2533902 95.33919898 528.25086289 91.35396308 528.24837691 C58.41354796 528.22772155 25.47316347 528.19256441 -7.46722776 528.14772969 C-7.48433742 477.91929113 -7.50025915 427.69085237 -7.5095709 377.4624117 C-7.50970895 376.71961807 -7.50984701 375.97682445 -7.50998925 375.21152192 C-7.5129818 359.07059418 -7.51575204 342.9296664 -7.51829309 326.78873858 C-7.51954048 318.87381569 -7.52083702 310.95889281 -7.5221594 303.04396993 C-7.52229016 302.25631859 -7.52242092 301.46866725 -7.52255564 300.65714769 C-7.52682086 275.10368271 -7.53433505 249.55021994 -7.54352498 223.9967563 C-7.55294772 197.74841094 -7.55911091 171.5000668 -7.56114275 145.25171978 C-7.56143092 141.5486547 -7.56175656 137.84558962 -7.562105 134.14252454 C-7.56217242 133.41367166 -7.56223985 132.68481878 -7.56230931 131.93387945 C-7.56349337 120.17726507 -7.56813773 108.42065445 -7.57405979 96.6640416 C-7.57993286 84.85927721 -7.58211805 73.0545169 -7.58072913 61.2497511 C-7.5800854 54.84775548 -7.58110721 48.44577096 -7.58643323 42.04377729 C-7.5912652 36.19329865 -7.59156775 30.34283867 -7.58812665 24.49235921 C-7.58770076 22.36584097 -7.58899819 20.23932162 -7.59211094 18.11280561 C-7.59607151 15.24222424 -7.59399329 12.37171194 -7.59027559 9.50113183 C-7.5929026 8.6582688 -7.59552961 7.81540577 -7.59823623 6.94700143 C-7.57713673 -0.16654018 -7.05374989 0.03718142 0 0 Z M141.53277224 99.14772969 C141.53277224 208.37772969 141.53277224 317.60772969 141.53277224 430.14772969 C239.21104798 434.08725074 239.21104798 434.08725074 321.28277224 390.77272969 C340.78506965 370.94779457 353.31374104 345.28804205 359.9519617 318.46950704 C360.37639828 316.77283117 360.82038698 315.08101268 361.27569216 313.3923586 C373.81907659 265.93027408 369.0680353 206.82863513 344.75152224 163.85085469 C338.23303961 152.77169758 329.83953757 142.98915675 320.53277224 134.14772969 C319.92433474 133.55605001 319.31589724 132.96437032 318.68902224 132.35476094 C312.55322052 126.60800462 305.84952647 122.2465405 298.53277224 118.14772969 C297.62978396 117.63677755 297.62978396 117.63677755 296.70855349 117.11550313 C250.43188566 91.33348117 190.69348232 99.14772969 141.53277224 99.14772969 Z " fill="#0061AA" transform="translate(972.4672277569771,876.8522703051567)"/>
<path d="M0 0 C52.8 0 105.6 0 160 0 C165.61851955 11.23703909 165.61851955 11.23703909 167.47265625 16.44921875 C167.89047363 17.60945557 168.30829102 18.76969238 168.73876953 19.96508789 C169.17560059 21.19348389 169.61243164 22.42187988 170.0625 23.6875 C171.03590005 26.38964548 172.01528904 29.08959688 172.99609375 31.7890625 C173.24544678 32.47619827 173.4947998 33.16333405 173.75170898 33.87129211 C176.27731319 40.80686034 178.94071455 47.68692979 181.625 54.5625 C186.56923388 67.23736648 191.3942227 79.95482703 196.1875 92.6875 C202.79657531 110.23951349 209.5056111 127.7508017 216.29174805 145.23510742 C219.54288203 153.61501365 222.76876404 162.00200512 225.91093445 170.4234314 C228.22271574 176.61484498 230.61014509 182.77592402 233 188.9375 C235.82974879 196.25845308 238.61732924 203.58362652 241.1875 211 C243.33849187 217.20612828 245.64781601 223.33238868 248.05029297 229.4453125 C250.86166746 236.60866454 253.58999898 243.80245872 256.3125 251 C259.74578062 260.07223086 263.19710243 269.13704761 266.6875 278.1875 C272.85707835 294.18980416 278.95028318 310.22125071 285.05001831 326.25027466 C286.69786324 330.58039569 288.34673334 334.91012099 289.99780273 339.23901367 C294.28139518 350.47138847 298.54104097 361.71256186 302.78372192 372.96044922 C309.51969733 390.81594926 316.28186523 408.6614139 323.0625 426.5 C323.64881699 428.04256973 323.64881699 428.04256973 324.24697876 429.61630249 C329.18280913 442.60100455 334.12513921 455.58322544 339.07170105 468.56384277 C340.40156192 472.05382858 341.731085 475.54394305 343.06060791 479.03405762 C344.03643593 481.59564579 345.01235161 484.15720055 345.98828125 486.71875 C347.36124658 490.32270007 348.73355908 493.92689794 350.10546875 497.53125 C350.45158203 498.44028076 350.79769531 499.34931152 351.15429688 500.28588867 C351.83436894 502.07236342 352.51406647 503.85898079 353.19335938 505.64575195 C354.65294572 509.48155363 356.11802108 513.31466501 357.61328125 517.13671875 C358.29970703 518.89435547 358.29970703 518.89435547 359 520.6875 C359.391875 521.68136719 359.78375 522.67523437 360.1875 523.69921875 C361 526 361 526 361 528 C309.52 528 258.04 528 205 528 C189.95987354 486.10250486 189.95987354 486.10250486 185.625 473.62890625 C183.69140004 468.09035085 181.68459773 462.57839571 179.6875 457.0625 C176.26263737 447.58652815 172.91694445 438.08527052 169.625 428.5625 C169.20822998 427.36052979 168.79145996 426.15855957 168.36206055 424.92016602 C167.96672119 423.77217529 167.57138184 422.62418457 167.1640625 421.44140625 C166.81811035 420.43795166 166.4721582 419.43449707 166.11572266 418.40063477 C164.65900985 413.96068888 163.34272141 409.47573803 162 405 C98.64 405 35.28 405 -30 405 C-30.99 408.3 -31.98 411.6 -33 415 C-33.6944239 417.11702949 -34.40230284 419.22973573 -35.12890625 421.3359375 C-35.51908936 422.46845947 -35.90927246 423.60098145 -36.3112793 424.76782227 C-36.72418213 425.95819092 -37.13708496 427.14855957 -37.5625 428.375 C-38.00236063 429.64705383 -38.44222064 430.91910787 -38.88208008 432.19116211 C-42.74540509 443.34330584 -46.71497061 454.4569512 -50.69921875 465.56640625 C-52.65909289 471.03528141 -54.58952644 476.51370096 -56.5 482 C-59.37964468 490.26321477 -62.30835781 498.5086901 -65.25 506.75 C-65.88711914 508.53664063 -65.88711914 508.53664063 -66.53710938 510.359375 C-66.94251953 511.49375 -67.34792969 512.628125 -67.765625 513.796875 C-68.12430664 514.80073242 -68.48298828 515.80458984 -68.85253906 516.83886719 C-70.20676794 520.56962367 -71.60641235 524.28376626 -73 528 C-114.58 528 -156.16 528 -199 528 C-190.98834947 505.1095699 -190.98834947 505.1095699 -187.0625 495.0625 C-186.20286908 492.84384914 -185.34349759 490.62509775 -184.484375 488.40625 C-184.06607422 487.32859375 -183.64777344 486.2509375 -183.21679688 485.140625 C-181.40080987 480.45345468 -179.60315664 475.75939809 -177.8125 471.0625 C-177.48918701 470.21486084 -177.16587402 469.36722168 -176.83276367 468.49389648 C-174.33691621 461.93017883 -171.91523718 455.34054529 -169.50537109 448.74487305 C-167.73277581 443.91767096 -165.87244557 439.13948936 -163.9375 434.375 C-161.5230034 428.41881475 -159.35422964 422.40712658 -157.24975586 416.33544922 C-155.39851252 411.03188722 -153.35973868 405.83543855 -151.23901367 400.63330078 C-149.4687737 396.25641522 -147.85554401 391.83715477 -146.3125 387.375 C-142.27810478 375.74524524 -137.82569682 364.26974384 -133.43798828 352.77001953 C-131.20278931 346.91140988 -128.97540891 341.04983461 -126.75 335.1875 C-126.08871094 333.44581543 -126.08871094 333.44581543 -125.4140625 331.66894531 C-121.35218495 320.95645839 -117.33134602 310.22869111 -113.3125 299.5 C-107.49648717 283.97503559 -101.64019613 268.46711496 -95.69064331 252.99276733 C-94.5386431 249.99514249 -93.38843545 246.99683107 -92.23834229 243.99847412 C-91.40790474 241.83569656 -90.57486679 239.67393401 -89.74169922 237.51220703 C-86.72787744 229.66860456 -83.82251865 221.79739995 -81.07260132 213.85699463 C-79.28050484 208.70152286 -77.30172639 203.64378447 -75.24839783 198.58622742 C-72.66303313 192.20785272 -70.2593824 185.76610612 -67.86132812 179.31591797 C-66.22529206 174.91698427 -64.58253722 170.5205747 -62.9375 166.125 C-62.38231689 164.6409668 -62.38231689 164.6409668 -61.81591797 163.12695312 C-59.48294726 156.90698168 -57.12302366 150.69785946 -54.7421875 144.49609375 C-54.45930374 143.75870972 -54.17641998 143.02132568 -53.88496399 142.26159668 C-52.49081003 138.6284233 -51.09410992 134.99626357 -49.69311523 131.36572266 C-46.73351125 123.6743499 -43.89752729 115.95170902 -41.17724609 108.17243958 C-38.83507895 101.48811474 -36.3435697 94.86503843 -33.8125 88.25 C-33.33538368 86.9978897 -32.85850223 85.74568989 -32.38183594 84.4934082 C-31.40150347 81.91858194 -30.42020863 79.34412621 -29.43798828 76.77001953 C-27.20278922 70.91140962 -24.97557273 65.04977261 -22.75 59.1875 C-22.31349121 58.03870361 -21.87698242 56.88990723 -21.42724609 55.70629883 C-18.61201945 48.28574489 -15.82083674 40.8564959 -13.04296875 33.421875 C-12.70316986 32.51307083 -12.36337097 31.60426666 -12.01327515 30.66792297 C-10.32279573 26.14642777 -8.63456556 21.62411642 -6.95019531 17.1003418 C-6.33016999 15.44055813 -5.71005696 13.78080722 -5.08984375 12.12109375 C-4.8069902 11.35887512 -4.52413666 10.59665649 -4.23271179 9.81134033 C-2.96629696 6.42868505 -1.61844735 3.2368947 0 0 Z M66 127 C63.1000793 132.54193089 60.80276949 138.01499904 58.8125 143.9375 C58.20559028 145.70743054 57.59745823 147.47694228 56.98828125 149.24609375 C56.66811035 150.1779248 56.34793945 151.10975586 56.01806641 152.06982422 C54.22523248 157.22991842 52.35950072 162.36363616 50.5 167.5 C47.7865095 175.00525379 45.11140476 182.52115354 42.5 190.0625 C39.58843601 198.45705599 36.47650611 206.76938882 33.3359375 215.08056641 C30.67721918 222.13770012 28.13162091 229.22562278 25.6640625 236.3515625 C23.32956351 243.0873417 20.92336326 249.79571751 18.5 256.5 C15.48639791 264.84107307 12.51761229 273.19545239 9.60913086 281.57373047 C6.99128253 289.0884771 4.25667822 296.5598422 1.48803711 304.02026367 C1.16327393 304.90302979 0.83851074 305.7857959 0.50390625 306.6953125 C0.21330322 307.47922363 -0.0772998 308.26313477 -0.37670898 309.07080078 C-1.10247851 310.97929167 -1.10247851 310.97929167 -1 313 C43.22 313 87.44 313 133 313 C130.9811044 306.270348 128.89037051 299.66088604 126.5234375 293.05859375 C126.19688171 292.14150635 125.87032593 291.22441895 125.53387451 290.27954102 C124.48334952 287.33131958 123.42925761 284.3843885 122.375 281.4375 C121.64549063 279.3927237 120.91616214 277.34788285 120.18701172 275.30297852 C115.83446949 263.10281472 111.46259262 250.90965974 107.0625 238.7265625 C105.15439624 233.43875759 103.26825099 228.14326284 101.38330078 222.84716797 C97.39628786 211.6473284 93.35410333 200.4698215 89.25 189.3125 C85.74467955 179.78129996 82.28565278 170.23905736 78.93261719 160.65332031 C76.93394921 154.96705759 74.91277987 149.28871439 72.89599609 143.6088562 C72.13232403 141.45812666 71.36886287 139.30732236 70.60546875 137.15649414 C69.40381038 133.77093767 68.20196114 130.385449 67 127 C66.67 127 66.34 127 66 127 Z " fill="#0061AA" transform="translate(590,877)"/>
<path d="M0 0 C1.76845984 0.00138269 1.76845984 0.00138269 3.57264614 0.00279331 C4.22686894 0.00193889 4.88109175 0.00108446 5.55513948 0.00020415 C7.7631863 -0.00145245 9.97115836 0.00407361 12.17919827 0.00952244 C13.75568038 0.0098043 15.33216263 0.0096466 16.90864468 0.00907993 C21.20184837 0.00879191 25.49502437 0.01468943 29.7882216 0.02165389 C34.26989971 0.02788661 38.75157838 0.02849116 43.23326015 0.0296793 C51.72598196 0.03279286 60.21869097 0.04100657 68.71140712 0.05102879 C78.37750826 0.06218917 88.04360999 0.06770019 97.70971596 0.07272422 C117.59920876 0.08318917 137.48869001 0.10078908 157.37817287 0.12304783 C158.01145646 1.53584399 158.64342482 2.94922974 159.27485561 4.36285496 C159.62692735 5.14986916 159.97899908 5.93688335 160.34173965 6.74774647 C161.90226242 10.32415812 163.2932229 13.95759117 164.67114162 17.60742283 C164.974454 18.40474323 165.27776638 19.20206364 165.59027004 20.02354527 C166.58451182 22.63912655 167.57510753 25.25607226 168.56567287 27.87304783 C169.26868367 29.72444047 169.97189402 31.57575734 170.67529202 33.42700291 C174.42770789 43.30908755 178.16301639 53.19762229 181.89379787 63.08789158 C182.44662441 64.55339703 182.44662441 64.55339703 183.01061916 66.04850864 C183.37683376 67.01935902 183.74304836 67.99020939 184.12036037 68.99047947 C184.48371487 69.95374149 184.84706936 70.91700352 185.22143459 71.9094553 C185.95038887 73.84209085 186.67923019 75.77476902 187.40795803 77.70748997 C192.06023918 90.04321544 196.77069368 102.35095948 201.60864162 114.61523533 C204.00571649 120.69805251 206.29273442 126.82061439 208.56957912 132.9492197 C215.85540651 152.53648027 223.26845879 172.07621304 230.67211819 191.61914158 C232.00017833 195.1247872 233.32736658 198.63076181 234.65415859 202.13688755 C239.67179998 215.39493349 244.71961962 228.64072999 249.81616116 241.8686533 C253.37118352 251.09637216 256.8958135 260.33543163 260.41039944 269.57861423 C262.06448012 273.92746109 263.72150012 278.27518791 265.37817287 282.62304783 C266.04485307 284.37304267 266.71151975 286.12304267 267.37817287 287.87304783 C267.70817287 288.73929783 268.03817287 289.60554783 268.37817287 290.49804783 C269.37817287 293.12304783 270.37817287 295.74804783 271.37817287 298.37304783 C271.68977856 299.19099827 272.00138424 300.00894871 272.32243252 300.85168552 C272.98743983 302.59735734 273.65241257 304.34304233 274.31733608 306.08874607 C275.95282521 310.38243222 277.58884871 314.67591245 279.22656155 318.96875095 C283.71182897 330.72872733 288.17149755 342.49818427 292.61535549 354.2738657 C294.48456346 359.22655598 296.35525726 364.17868505 298.22582912 369.13086033 C298.59231564 370.10113163 298.95880215 371.07140293 299.33639431 372.07107639 C307.9332432 394.83023 316.59728173 417.56326952 325.27902126 440.29016209 C331.63269397 456.92284822 337.97020864 473.56136959 344.27563381 490.2124033 C346.11930489 495.07959696 347.96612232 499.94558554 349.81567287 504.81054783 C350.27550564 506.02315281 350.27550564 506.02315281 350.74462795 507.26025486 C351.03490871 508.02321873 351.32518948 508.78618259 351.62426662 509.57226658 C352.04554836 510.6809409 352.04554836 510.6809409 352.47534084 511.81201267 C353.12569376 513.47676138 353.79952644 515.13240557 354.48803616 516.78173923 C354.85525784 517.66394138 355.22247952 518.54614353 355.60082912 519.45507908 C355.93993313 520.25276707 356.27903713 521.05045506 356.62841702 521.87231541 C357.37817287 524.12304783 357.37817287 524.12304783 357.37817287 528.12304783 C306.22817287 528.12304783 255.07817287 528.12304783 202.37817287 528.12304783 C199.44239456 521.07717987 196.58574658 514.1914907 194.12817287 506.99804783 C193.83861721 506.16168797 193.54906155 505.3253281 193.25073147 504.463624 C192.28941827 501.6847252 191.33349769 498.90401059 190.37817287 496.12304783 C188.92184672 491.89318719 187.46331297 487.66409338 186.00317287 483.43554783 C185.437355 481.79634373 185.437355 481.79634373 184.86010647 480.12402439 C181.84916525 471.42631607 178.74792154 462.76319342 175.61743069 454.10791111 C172.13359836 444.47012256 168.74977197 434.80078599 165.37817287 425.12304783 C163.06817287 418.52304783 160.75817287 411.92304783 158.37817287 405.12304783 C95.34817287 404.79304783 32.31817287 404.46304783 -32.62182713 404.12304783 C-34.10682713 408.57804783 -34.10682713 408.57804783 -35.62182713 413.12304783 C-36.14314268 414.6416056 -36.66796082 416.15897831 -37.19995213 417.67382908 C-37.46984959 418.44356052 -37.73974705 419.21329197 -38.01782322 420.00634861 C-38.29964451 420.80798435 -38.5814658 421.60962009 -38.87182713 422.43554783 C-39.49422404 424.21028703 -40.11661984 425.98502663 -40.73901463 427.75976658 C-41.3665854 429.54753872 -41.9941888 431.33529941 -42.62182713 433.12304783 C-43.74761794 436.3311044 -44.87256768 439.53945428 -45.99682713 442.74804783 C-46.2844492 443.56829441 -46.57207127 444.38854099 -46.86840916 445.23364353 C-48.46137332 449.78329185 -50.04149301 454.33703799 -51.60620213 458.89648533 C-56.08962744 471.94835015 -60.68773121 484.95456749 -65.37182713 497.93554783 C-65.64609531 498.6968198 -65.9203635 499.45809177 -66.20294285 500.24243259 C-67.00233989 502.45976277 -67.80388095 504.67630549 -68.60620213 506.89257908 C-68.95118244 507.84932278 -68.95118244 507.84932278 -69.30313206 508.82539463 C-71.652079 515.29597343 -74.14902259 521.69375604 -76.62182713 528.12304783 C-117.87182713 528.12304783 -159.12182713 528.12304783 -201.62182713 528.12304783 C-200.95492393 524.78853187 -200.354915 522.11271101 -199.20385838 519.00586033 C-198.92211765 518.24192966 -198.64037693 517.477999 -198.35009861 516.69091892 C-197.89679173 515.48169773 -197.89679173 515.48169773 -197.43432713 514.24804783 C-197.1211655 513.40451756 -196.80800388 512.56098728 -196.48535252 511.69189548 C-194.58248857 506.59609035 -192.60367164 501.53860098 -190.55932713 496.49804783 C-188.14483052 490.54186258 -185.97605676 484.53017441 -183.87158298 478.45849705 C-181.8043022 472.53601695 -179.48563314 466.74657095 -177.12182713 460.93554783 C-175.49723738 456.87407347 -174.05403184 452.75555519 -172.62182713 448.62304783 C-170.75216453 443.2282922 -168.77335529 437.91222123 -166.62182713 432.62304783 C-164.49623195 427.3946358 -162.53384697 422.14234291 -160.68432713 416.81054783 C-158.44738165 410.37452578 -156.06170089 404.01528657 -153.57031345 397.67382908 C-150.78450776 390.57266813 -148.07323171 383.44420272 -145.37182713 376.31054783 C-145.13765079 375.69235172 -144.90347446 375.07415562 -144.66220188 374.4372263 C-143.21788992 370.62439796 -141.77450725 366.81121846 -140.33142185 362.99792576 C-138.30479302 357.64320493 -136.27611921 352.28925982 -134.24682713 346.93554783 C-133.80218113 345.76177586 -133.35753513 344.58800388 -132.89941502 343.37866306 C-130.36415739 336.6928381 -127.81481266 330.01270444 -125.25073338 323.33789158 C-124.67243031 321.83098014 -124.09414252 320.32406283 -123.51587009 318.81713963 C-122.41718197 315.95433386 -121.31556498 313.09268055 -120.21215916 310.23169041 C-117.2507422 302.52955724 -114.40318982 294.79812355 -111.70390415 286.99981785 C-110.13426839 282.48430724 -108.42513861 278.05079662 -106.62182713 273.62304783 C-104.47029404 268.33386232 -102.49168022 263.01774444 -100.62182713 257.62304783 C-98.74530705 252.21400314 -96.77461392 246.86590442 -94.62182713 241.56054783 C-90.58624305 231.60817862 -86.8703302 221.54476897 -83.18432713 211.45898533 C-82.26777529 208.95113077 -81.35115968 206.44329976 -80.43432713 203.93554783 C-80.19970768 203.29372562 -79.96508823 202.65190342 -79.72335911 201.99063206 C-75.32237267 189.95952084 -70.79857609 177.97786142 -66.23901463 166.00586033 C-63.84514524 159.71954883 -61.47811637 153.423526 -59.12182713 147.12304783 C-55.91429943 138.55227694 -52.6823248 129.99106366 -49.43432713 121.43554783 C-48.97767673 120.23261082 -48.52102634 119.02967381 -48.05053806 117.79028416 C-47.33248176 115.89879497 -46.61441919 114.00730816 -45.89633274 112.11583042 C-42.88459106 104.18208935 -39.87681252 96.24685028 -36.87182713 88.31054783 C-36.58248295 87.54656681 -36.29313877 86.78258579 -35.99502659 85.99545383 C-32.5146125 76.80360953 -29.04959632 67.60617199 -25.60620213 58.40039158 C-25.27227451 57.50803303 -24.9383469 56.61567448 -24.59430027 55.69627476 C-22.98424624 51.39304077 -21.37607803 47.08911888 -19.77124119 42.7839365 C-16.60391377 34.30261484 -13.36122998 25.86136098 -9.96289158 17.46972752 C-8.11143801 12.84935149 -6.35375028 8.19631912 -4.60229588 3.53711033 C-3.22721786 0.15146008 -3.22721786 0.15146008 0 0 Z M62.37817287 126.12304783 C54.55919871 147.29312993 54.55919871 147.29312993 47.01269436 168.56128025 C41.45264942 184.57085688 35.73615883 200.52701952 29.8398428 216.41577244 C27.89538643 221.67267009 26.02741807 226.95265215 24.19067287 232.24804783 C21.12714094 241.0698933 17.95122844 249.84933949 14.75317287 258.62304783 C14.24543636 260.01643779 13.73770529 261.40982973 13.22997952 262.80322361 C12.84583637 263.85740986 12.84583637 263.85740986 12.45393276 264.9328928 C12.19432262 265.64533146 11.93471249 266.35777012 11.66723537 267.09179783 C11.27280491 268.17411182 11.27280491 268.17411182 10.87040615 269.27829075 C7.90718448 277.41164813 4.95437245 285.54876187 2.00933743 293.68872166 C1.42299272 295.30857151 0.83604017 296.92820148 0.24847317 298.54760838 C-0.56917919 300.80137806 -1.38482698 303.05586312 -2.19995213 305.31054783 C-2.44621342 305.98807102 -2.69247471 306.66559422 -2.94619846 307.36364841 C-4.12314183 310.17321961 -4.12314183 310.17321961 -4.62182713 313.12304783 C39.92817287 313.12304783 84.47817287 313.12304783 130.37817287 313.12304783 C125.27163812 298.53294854 120.15690975 283.94643588 115.00317287 269.37304783 C114.63033169 268.31855442 114.2574905 267.26406101 113.8733511 266.17761326 C109.42554984 253.60748111 104.93664114 241.06154095 100.19799709 228.5976572 C97.7976095 222.27948997 95.52907823 215.92575768 93.32104397 209.53808689 C90.25663628 200.70304136 87.06286221 191.91524826 83.87817287 183.12304783 C80.10168246 172.6953556 76.34722511 162.2628191 72.71386623 151.78418064 C69.72350839 143.18607145 66.55327249 134.65431852 63.37817287 126.12304783 C63.04817287 126.12304783 62.71817287 126.12304783 62.37817287 126.12304783 Z " fill="#0061AA" transform="translate(1642.6218271255493,876.8769521713257)"/>
<path d="M0 0 C49.17 0 98.34 0 149 0 C149 141.9 149 283.8 149 430 C227.87 430 306.74 430 388 430 C388 462.34 388 494.68 388 528 C259.96 528 131.92 528 0 528 C0 353.76 0 179.52 0 0 Z " fill="#0061AA" transform="translate(0,877)"/>
</svg>
