<?xml version="1.0" encoding="UTF-8"?>
<svg version="1.1" xmlns="http://www.w3.org/2000/svg" width="2000" height="897">
<path d="M0 0 C29.37 0 58.74 0 89 0 C89.04898438 10.84488281 89.09796875 21.68976562 89.1484375 32.86328125 C89.18382953 39.74024228 89.21971306 46.61719495 89.2578125 53.49414062 C89.31817296 64.40566084 89.37654649 75.31716537 89.421875 86.22875977 C89.45490069 94.17656042 89.49478973 102.12429254 89.54279006 110.07201737 C89.56795028 114.27707135 89.58976201 118.48208047 89.60334396 122.6871891 C89.61626004 126.65247158 89.63841529 130.61759942 89.66738319 134.5827961 C89.67638493 136.03107267 89.68213169 137.4793741 89.68421364 138.92767715 C89.71339794 156.1597716 92.21970499 169.89314381 104.515625 182.74609375 C116.09267864 193.24917543 130.578301 198.35450888 146.05470276 198.24050903 C146.91993858 198.24221788 147.7851744 198.24392673 148.67662948 198.24568737 C151.55086367 198.24895895 154.4248599 198.23801729 157.29907227 198.22705078 C159.36933893 198.22648616 161.439606 198.22680422 163.50987244 198.22793579 C169.11250192 198.22850833 174.71504532 198.21677003 180.31765485 198.20278788 C186.17928964 198.190264 192.04092652 198.18910871 197.90257263 198.18673706 C208.99457284 198.18052717 220.08653351 198.16412297 231.17851633 198.14403808 C243.80967629 198.12166383 256.44083817 198.11068181 269.07201302 198.10064721 C295.04803058 198.07975633 321.02401307 198.04458987 347 198 C347.46108154 196.92838623 347.92216309 195.85677246 348.3972168 194.75268555 C349.01856409 193.31813018 349.64007342 191.88364499 350.26171875 190.44921875 C350.56364136 189.74631714 350.86556396 189.04341553 351.17663574 188.31921387 C360.74888142 166.28462842 377.76797418 143.48801721 398 130 C378.86 129.67 359.72 129.34 340 129 C340 98.30716739 362.46113063 70.75115742 383 50 C416.1339686 17.21389459 457.72854995 1.97034888 504.14151001 1.79899597 C505.66491588 1.7899542 507.1883195 1.78052688 508.71172082 1.77074987 C512.87680443 1.74533865 517.04189644 1.72606985 521.20701766 1.70802581 C524.78468509 1.6917845 528.36232994 1.67201687 531.93997987 1.65234026 C565.86578438 1.46671261 599.79214198 1.37216614 633.71834755 1.29612255 C638.13107979 1.28605533 642.54381156 1.27580416 646.95654297 1.26538086 C648.05321845 1.26279864 649.14989394 1.26021641 650.27980201 1.25755594 C668.04510042 1.21442891 685.80988868 1.12598792 703.57491131 1.02003094 C721.83628997 0.91202073 740.09740366 0.84968138 758.35909402 0.83026773 C768.60364442 0.81813568 778.84725118 0.78555724 789.09148026 0.70067406 C797.81521924 0.62840188 806.5378996 0.59705289 815.26193269 0.61847027 C819.70831046 0.62810662 824.15239548 0.61869912 828.59839249 0.55607605 C860.45545052 0.12985151 860.45545052 0.12985151 870.70422041 9.4917118 C872.16669584 10.96476137 873.58546347 12.48085688 875 14 C876.57974666 15.21576414 878.18306663 16.40334926 879.83203125 17.5234375 C880.49460937 17.99910156 881.1571875 18.47476563 881.83984375 18.96484375 C882.81630859 19.66287109 882.81630859 19.66287109 883.8125 20.375 C890.07379974 24.8739409 896.29996721 29.41700878 902.5 34 C908.6400955 38.53759633 914.80345847 43.03979235 921 47.5 C927.99109233 52.53211725 934.93439221 57.62570763 941.86157227 62.74536133 C948.28057141 67.48377875 954.73869378 72.16623206 961.21484375 76.82617188 C961.91609375 77.33083984 962.61734375 77.83550781 963.33984375 78.35546875 C963.98808105 78.81743652 964.63631836 79.2794043 965.30419922 79.75537109 C966.6652135 80.75428425 967.97036577 81.82909935 969.25390625 82.92578125 C970.92933677 84.21712561 970.92933677 84.21712561 972.85742188 83.70874023 C975.1450508 82.95201886 976.96832473 81.98420756 979.02734375 80.734375 C979.80803223 80.26354492 980.5887207 79.79271484 981.39306641 79.30761719 C982.23272949 78.79360352 983.07239258 78.27958984 983.9375 77.75 C984.82356934 77.2127832 985.70963867 76.67556641 986.62255859 76.12207031 C994.57870174 71.28700006 1002.49399952 66.38539365 1010.40234375 61.47265625 C1016.48699151 57.69399788 1022.58679994 53.94016742 1028.6875 50.1875 C1029.77450195 49.5176709 1030.86150391 48.8478418 1031.98144531 48.15771484 C1037.55336602 44.72587724 1043.1334315 41.30870838 1048.73046875 37.91796875 C1060.41526143 30.82042516 1071.86399998 23.54176358 1082.9765625 15.57421875 C1083.72331238 15.06903717 1084.47006226 14.56385559 1085.23944092 14.04336548 C1088.1113151 12.01546513 1088.1113151 12.01546513 1090.77438354 9.2824707 C1103.54084794 -2.38834773 1119.95396967 -0.42899506 1136.11359596 -0.11533332 C1140.30270273 -0.04588871 1144.49192497 -0.04005474 1148.68151855 -0.02705383 C1156.59018656 0.00693972 1164.49715298 0.09693187 1172.4050765 0.20779055 C1181.41833529 0.33136239 1190.43168162 0.39137658 1199.44557858 0.44644034 C1217.96467856 0.56097307 1236.4822018 0.75406159 1255 1 C1255.00238835 1.80653833 1255.00477671 2.61307667 1255.00723743 3.44405556 C1255.0665149 23.11869142 1255.14214596 42.79320321 1255.23571491 62.46770668 C1255.28057567 71.98236606 1255.32001248 81.49698882 1255.34643555 91.01171875 C1255.36949464 99.31005612 1255.4029802 107.60827665 1255.44870156 115.9065212 C1255.47252764 120.29557392 1255.49132565 124.68451169 1255.49761391 129.07362747 C1255.50371321 133.21544029 1255.52388509 137.35695941 1255.55427551 141.49866295 C1255.56297886 143.0085654 1255.56679456 144.51850637 1255.56500816 146.02843285 C1255.55277637 161.15470894 1257.51108813 174.6271273 1266.25 187.25 C1275.99593956 196.99593956 1288.76088092 201.09113895 1302.35884094 201.15821838 C1303.08822876 201.16314804 1303.81761658 201.1680777 1304.56910706 201.17315674 C1307.01522592 201.18850472 1309.46131894 201.19688608 1311.9074707 201.20532227 C1313.69027274 201.21504022 1315.47307249 201.22518584 1317.25586987 201.23572445 C1322.02914449 201.26275997 1326.80242829 201.28394399 1331.575737 201.30391693 C1336.0551904 201.32354656 1340.53460841 201.348452 1345.01403809 201.3729248 C1358.11349874 201.44141779 1371.21300258 201.50144152 1384.3125 201.5625 C1428.2128125 201.7790625 1428.2128125 201.7790625 1473 202 C1473 136 1473 70 1473 2 C1503.03 2 1533.06 2 1564 2 C1565.73918883 3.73918883 1565.12240946 5.99351306 1565.12908131 8.31135803 C1565.12616847 9.07885296 1565.12325563 9.84634788 1565.12025452 10.63710022 C1565.12110894 11.44649801 1565.12196337 12.2558958 1565.12284368 13.0898208 C1565.12450096 15.82300472 1565.11897309 18.55612831 1565.11352539 21.28930664 C1565.11324355 23.24016824 1565.1134012 25.19102994 1565.1139679 27.14189148 C1565.11425598 32.45572159 1565.10835754 37.76952934 1565.10139394 43.08335423 C1565.09516216 48.63006685 1565.09455674 54.17677991 1565.09336853 59.72349548 C1565.09025469 70.23492625 1565.0820406 80.74634666 1565.07201904 91.25777286 C1565.06085953 103.22129135 1565.05534786 115.18481032 1565.05032361 127.14833272 C1565.03985803 151.76556089 1565.02225758 176.38277987 1565 201 C1604.17751038 201.09159591 1643.35500679 201.16205923 1682.5326029 201.20426132 C1687.16000041 201.20926402 1691.78739772 201.21444132 1696.41479492 201.21972656 C1697.79661675 201.22130043 1697.79661675 201.22130043 1699.20635416 201.22290608 C1714.11399904 201.24030171 1729.02158209 201.27183476 1743.92919032 201.30861118 C1759.23073749 201.34604405 1774.53225233 201.36824081 1789.83384341 201.37635398 C1799.27244183 201.38183689 1808.71086548 201.39914154 1818.14941009 201.43166587 C1824.6256095 201.45284271 1831.10171883 201.45919288 1837.57795034 201.45400551 C1841.31199921 201.45144865 1845.04574311 201.45531201 1848.77973747 201.4768219 C1852.83547779 201.50001359 1856.89057348 201.49192217 1860.94636536 201.48101807 C1862.70175801 201.49849512 1862.70175801 201.49849512 1864.49261314 201.51632524 C1874.72147087 201.4421499 1883.81537046 199.24991892 1891.33984375 191.97265625 C1896.14896536 186.25828822 1897.76320702 180.18523592 1897.44140625 172.7734375 C1896.37899496 166.09810995 1893.47029986 160.79290778 1888.1875 156.5625 C1880.63371282 151.16693773 1873.2655733 150.57070375 1864.28987122 150.66615295 C1863.12683478 150.66641194 1861.96379834 150.66667093 1860.76551837 150.66693777 C1857.55503612 150.67058481 1854.34495405 150.68765993 1851.13456118 150.71043932 C1847.66561534 150.73169423 1844.19664593 150.73536293 1840.72764587 150.74104309 C1834.72215307 150.75309292 1828.71677559 150.77568691 1822.71134377 150.80507088 C1814.02314763 150.84721459 1805.33498944 150.86887661 1796.64671 150.88481634 C1782.54218991 150.91087451 1768.43772073 150.94741673 1754.33325195 150.9934082 C1753.06800341 150.99752682 1753.06800341 150.99752682 1751.77719428 151.00172865 C1742.36099787 151.03256663 1732.94480951 151.06538812 1723.52862549 151.09979248 C1720.11096209 151.11223211 1716.69329852 151.12462261 1713.27563477 151.13696289 C1712.43225683 151.14001267 1711.58887889 151.14306246 1710.71994404 151.14620466 C1696.66346361 151.19659049 1682.60699071 151.23143458 1668.55043906 151.25434297 C1659.88205619 151.26916286 1651.21392384 151.297626 1642.54564919 151.34360539 C1636.61016119 151.37413921 1630.67474466 151.39043541 1624.7391806 151.39546592 C1621.31363007 151.39886325 1617.88842701 151.40890808 1614.46297836 151.43644714 C1610.7514784 151.46296078 1607.04075131 151.46499932 1603.32917786 151.46083069 C1602.24416971 151.47452841 1601.15916155 151.48822614 1600.04127437 151.50233895 C1592.75597592 151.45754084 1592.75597592 151.45754084 1588.85442638 149.09619808 C1585.03536741 144.77922753 1585.78507337 140.51939426 1586 135 C1589.39597931 95.12358426 1608.41194208 59.29644319 1638.84423828 33.43261719 C1663.41881733 13.51656953 1694.10312336 1.78597515 1725.79467773 1.87974548 C1726.85915319 1.87889106 1727.92362865 1.87803663 1729.02036095 1.87715632 C1732.57478919 1.87551378 1736.12916988 1.8810028 1739.68359375 1.88647461 C1742.23646544 1.88675677 1744.78933722 1.88659818 1747.34220886 1.8860321 C1752.83200685 1.88580464 1758.32178962 1.88863468 1763.81158447 1.89426994 C1771.74881144 1.90241216 1779.68603267 1.90500295 1787.62326336 1.90625793 C1800.50226347 1.90844418 1813.38125724 1.91509267 1826.26025391 1.92456055 C1838.76774056 1.93374573 1851.27522549 1.94082115 1863.78271484 1.94506836 C1864.94000994 1.94546244 1864.94000994 1.94546244 1866.12068474 1.94586449 C1869.99139411 1.94716957 1873.86210349 1.94843327 1877.73281288 1.94967639 C1909.82188088 1.96003569 1941.91093707 1.97846683 1974 2 C1974.33 18.5 1974.66 35 1975 52 C1964.2342334 52.01401855 1964.2342334 52.01401855 1953.25097656 52.02832031 C1930.25767602 52.06106365 1907.26445126 52.11337411 1884.27122135 52.17792095 C1880.69660241 52.18793779 1877.121983 52.19778203 1873.54736328 52.20751953 C1872.83575408 52.2094609 1872.12414487 52.21140228 1871.39097175 52.21340248 C1859.88543281 52.24438013 1848.3799138 52.26139128 1836.87434104 52.27319422 C1825.05881679 52.28562778 1813.24339669 52.31317875 1801.42793822 52.35461307 C1794.79546456 52.37744204 1788.16310554 52.39291103 1781.53058624 52.39188385 C1775.28266553 52.39113689 1769.03507296 52.40910289 1762.78723717 52.44116783 C1760.4992364 52.44965802 1758.21119878 52.45142279 1755.92318916 52.44580269 C1736.14581509 52.19661458 1736.14581509 52.19661458 1718.5625 60.5 C1717.80066406 61.0671875 1717.03882813 61.634375 1716.25390625 62.21875 C1715.51011719 62.8065625 1714.76632812 63.394375 1714 64 C1713.17371094 64.6084375 1712.34742188 65.216875 1711.49609375 65.84375 C1702.4758471 73.63588795 1696.74111764 85.80116258 1693.93920898 97.18432617 C1693.62927002 98.44349854 1693.31933105 99.7026709 1693 101 C1694.1963784 100.99723462 1695.39275681 100.99446924 1696.6253891 100.99162006 C1725.08216991 100.92652078 1753.5389497 100.87711571 1781.99578825 100.84680401 C1785.50516755 100.84305229 1789.01454671 100.83916929 1792.52392578 100.83520508 C1793.57182204 100.83402468 1793.57182204 100.83402468 1794.64088792 100.83282044 C1805.92389187 100.81979833 1817.20684956 100.79616228 1828.48982614 100.76854161 C1840.08382873 100.74039816 1851.67780448 100.7240292 1863.27183962 100.71773452 C1869.77703158 100.71383497 1876.2821189 100.70471592 1882.78727722 100.68280983 C1888.92020278 100.66232612 1895.05298137 100.65619011 1901.18593788 100.66067696 C1903.42713026 100.65985705 1905.66832797 100.65396274 1907.90949059 100.64238358 C1935.3159619 100.50782687 1959.71240164 105.53617638 1979.875 125.25 C1995.02017752 140.71852186 2000.32741676 158.32739945 2000.38500977 179.49072266 C2000.2643259 189.27459605 1999.00521819 197.0519553 1995 206 C1994.25556641 207.69769531 1994.25556641 207.69769531 1993.49609375 209.4296875 C1985.39060157 226.031298 1970.96056935 238.00402464 1954 245 C1945.27881109 247.91326801 1936.82264227 250.07733673 1927.60105419 250.20154095 C1926.31654523 250.22072201 1925.03203626 250.23990307 1923.70860279 250.25966537 C1922.2803623 250.27600435 1920.8521192 250.29211667 1919.4238739 250.30802917 C1917.88666678 250.32817246 1916.34946278 250.34855568 1914.8122617 250.36915505 C1910.52637643 250.42461111 1906.24043686 250.47252376 1901.95443656 250.51813926 C1899.16253668 250.54798653 1896.37065526 250.57925744 1893.5787729 250.61069715 C1835.06770046 251.25931859 1776.55078892 251.20363867 1718.03682362 251.23437483 C1709.95917848 251.23864999 1701.881534 251.24385864 1693.80388941 251.24905988 C1665.99687216 251.26685252 1638.18985458 251.28185578 1610.38283253 251.28938007 C1608.65860938 251.28985476 1606.93438624 251.29033065 1605.2101631 251.29080774 C1604.35548374 251.29104411 1603.50080438 251.29128049 1602.62022565 251.29152403 C1598.29295968 251.29272474 1593.9656937 251.29394037 1589.63842773 251.29516602 C1588.77984473 251.29540617 1587.92126173 251.29564632 1587.03666107 251.29589374 C1559.03853431 251.30383203 1531.04044926 251.32740618 1503.04234078 251.35972196 C1473.22132003 251.39407788 1443.40032379 251.41373355 1413.57928294 251.41702431 C1410.30515618 251.41744171 1407.03102944 251.41792124 1403.75690269 251.41844749 C1402.95111391 251.41857069 1402.14532513 251.41869388 1401.31511851 251.4188208 C1388.43208866 251.42113847 1375.54910862 251.43670922 1362.66609647 251.45728934 C1349.73995425 251.47761298 1336.81387128 251.48299255 1323.88771603 251.47351871 C1316.90667343 251.4687916 1309.92577701 251.47022167 1302.94475746 251.49028015 C1296.5386706 251.50803835 1290.13285985 251.5068129 1283.72676953 251.49138286 C1281.42873693 251.48902674 1279.13068453 251.49322455 1276.83268199 251.50521151 C1243.2612255 251.66929301 1205.86362538 247.39841934 1180.28515625 223.44140625 C1164.56395076 206.64524654 1161.88658829 183.46981497 1161.79467773 161.50585938 C1161.78508483 160.04656709 1161.77507395 158.58727751 1161.76467896 157.12799072 C1161.7377767 153.18645875 1161.71668822 149.24491499 1161.69667697 145.30334282 C1161.67472624 141.1766943 1161.64738224 137.05008153 1161.62062073 132.92346191 C1161.57081618 125.11806875 1161.52583224 117.31265562 1161.48259836 109.50722361 C1161.43312103 100.6172199 1161.37824201 91.72725208 1161.32291877 82.83728313 C1161.20928674 64.55822211 1161.10240721 46.27912718 1161 28 C1157.21477393 30.16164258 1153.42971245 32.32357302 1149.64479065 34.48574829 C1148.36238337 35.21828627 1147.07993436 35.95075121 1145.79743958 36.68313599 C1128.0561785 46.81467801 1110.57951738 57.1188468 1093.6315918 68.54052734 C1087.56458033 72.62906309 1081.47982303 76.66300605 1075.25 80.5 C1069.7274215 83.90147443 1064.30529504 87.42203438 1058.92285156 91.04101562 C1053.65012544 94.58178434 1048.3305571 98.04702386 1043 101.5 C1034.61969707 106.93084666 1026.29149562 112.43464764 1018 118 C1022.10223841 122.38711608 1026.63476214 125.80872788 1031.5 129.3125 C1038.56680464 134.45748519 1045.5620758 139.68251408 1052.5 145 C1059.1191033 150.06699162 1065.77512849 155.07423718 1072.5 160 C1080.09977847 165.5683038 1087.60989458 171.24580174 1095.09375 176.96875 C1101.03806086 181.5123396 1107.00811252 186.0193669 1113 190.5 C1119.88465926 195.64823288 1126.73367652 200.84045851 1133.5625 206.0625 C1140.91921987 211.68567763 1148.33630659 217.21649956 1155.80541992 222.68920898 C1162.04410277 227.27087463 1168.21931228 231.93251455 1174.375 236.625 C1175.26123047 237.30046875 1176.14746094 237.9759375 1177.06054688 238.671875 C1178.68431619 239.91262062 1180.30592172 241.15620588 1181.92480469 242.40332031 C1183.64229702 243.72477912 1185.37055551 245.03223198 1187.1015625 246.3359375 C1187.72804688 246.88507813 1188.35453125 247.43421875 1189 248 C1189 248.66 1189 249.32 1189 250 C1171.93563935 250.28143483 1154.87201182 250.49246782 1137.8058548 250.62174606 C1129.88003043 250.68339245 1121.95565521 250.76729389 1114.03076172 250.90527344 C1107.11609678 251.02560568 1100.20248196 251.10246596 1093.28679895 251.12906194 C1089.63078789 251.14458951 1085.97777836 251.18055454 1082.32273865 251.26876068 C1055.11311996 251.90030079 1055.11311996 251.90030079 1044.57883453 242.52500534 C1043.51141735 241.49814054 1042.45816759 240.45624576 1041.42295837 239.39691925 C1039.42336711 237.43391908 1037.18731778 235.92947018 1034.84375 234.40625 C1034.12058594 233.92027344 1033.39742187 233.43429687 1032.65234375 232.93359375 C1031.94207031 232.46050781 1031.23179688 231.98742187 1030.5 231.5 C1023.86648912 227.02372843 1017.42101092 222.37135441 1011.05859375 217.51953125 C1005.9834697 213.6753518 1000.77457601 210.06436035 995.5 206.5 C988.87549489 202.02340826 982.43261634 197.38071373 976.07617188 192.53271484 C970.07631134 187.98777544 963.88725618 183.74229023 957.64453125 179.5390625 C956.89558594 179.03375 956.14664063 178.5284375 955.375 178.0078125 C954.64539063 177.51829102 953.91578125 177.02876953 953.1640625 176.52441406 C950.29188243 174.50118614 947.59723617 172.2754266 944.921875 169.99951172 C942.99237248 168.78068356 942.99237248 168.78068356 940.52172852 169.19384766 C938.01181809 169.99622196 936.11826431 170.92902892 933.90234375 172.34375 C932.72273071 173.0867334 932.72273071 173.0867334 931.51928711 173.84472656 C930.66729736 174.3909668 929.81530762 174.93720703 928.9375 175.5 C927.04249573 176.69402513 925.14661667 177.88666271 923.25 179.078125 C922.23808594 179.71556641 921.22617187 180.35300781 920.18359375 181.00976562 C914.63520699 184.47835833 909.03514606 187.86177977 903.4375 191.25 C902.25262605 191.96816357 901.067812 192.68642597 899.88305664 193.40478516 C897.47454367 194.86501258 895.06575393 196.32478172 892.65673828 197.78417969 C888.97726709 200.01345349 885.2989651 202.24465042 881.62109375 204.4765625 C881.0174852 204.8428476 880.41387665 205.20913269 879.79197693 205.58651733 C876.8023736 207.40093916 873.81325974 209.21616131 870.82495117 211.03271484 C865.82371205 214.07272078 860.82142802 217.1106156 855.8046875 220.125 C848.72631397 224.38976626 841.73955799 228.7415618 834.9375 233.4375 C834.37617557 233.81649265 833.81485113 234.19548531 833.23651687 234.58596259 C829.80652433 236.93477845 826.56810446 239.32223548 823.48716867 242.1167708 C811.35159497 252.64281512 799.66445888 252.7190015 784.12061538 252.4857984 C780.61994529 252.4468321 777.119739 252.47849682 773.61901987 252.50072581 C767.49796798 252.53006837 761.37828973 252.51531862 755.25734711 252.47084045 C746.15476227 252.40488144 737.05310212 252.40831774 727.95034108 252.42534327 C712.62780592 252.4519987 697.30586033 252.42259097 681.98344803 252.36045647 C666.80277958 252.29899699 651.6223662 252.26128739 636.44157028 252.25534248 C635.49562333 252.25495298 634.54967638 252.25456348 633.57506438 252.25416218 C629.73467439 252.25266221 625.8942844 252.25134235 622.05389428 252.25025591 C587.07237915 252.24035315 552.09121799 252.17337802 517.10986328 252.07006836 C484.13784446 251.97274103 451.16600407 251.90888792 418.19384766 251.88549805 C417.17880396 251.88476892 416.16376025 251.8840398 415.11795765 251.88328858 C410.0049427 251.87962208 404.8919277 251.87601209 399.77891269 251.87242321 C398.76978718 251.8717144 397.76066167 251.87100559 396.7209566 251.8702753 C394.68593909 251.86885276 392.65092156 251.86744228 390.61590403 251.86604391 C358.13634494 251.84357361 325.65681839 251.79625468 293.1772976 251.74244637 C283.68525219 251.72674891 274.19320723 251.71191614 264.70115709 251.69936061 C244.74083067 251.6726396 224.78058574 251.63742381 204.82033606 251.5746625 C196.56998243 251.54890268 188.31968185 251.52730786 180.06929016 251.51911545 C173.21737948 251.51228999 166.36558679 251.49534822 159.51373655 251.46538544 C156.07451844 251.45061177 152.63558547 251.44168704 149.19631656 251.44279491 C106.78285244 251.44715359 61.42215167 246.73953848 28 218 C27.31550781 217.45988281 26.63101562 216.91976562 25.92578125 216.36328125 C12.16434587 205.19732287 1.79669712 186.72851208 -0.22798824 169.00416231 C-0.56903201 163.91081198 -0.50266957 158.81497279 -0.45410156 153.71337891 C-0.4529704 152.02660652 -0.45361217 150.33983217 -0.45587158 148.65306091 C-0.45700919 144.11873351 -0.43365614 139.58483798 -0.40557575 135.05061007 C-0.38040142 130.2954308 -0.37820756 125.54023929 -0.37347412 120.78500366 C-0.36109111 111.80034455 -0.32833343 102.81588243 -0.28807616 93.83130968 C-0.23480696 81.67631397 -0.21337517 69.52126359 -0.19006729 57.36618042 C-0.15256815 38.24397301 -0.0728464 19.12218112 0 0 Z M744 27 C743.67 35.58 743.34 44.16 743 53 C738.49227936 53.00213753 738.49227936 53.00213753 733.89349365 53.00431824 C706.30381072 53.0197122 678.71427486 53.05986785 651.12467454 53.12685562 C647.5049918 53.13562185 643.88530857 53.14417175 640.265625 53.15258789 C639.18475343 53.15510648 639.18475343 53.15510648 638.08204606 53.15767596 C626.43099835 53.18430939 614.77999985 53.19343841 603.12892482 53.19604143 C591.164227 53.1991063 579.1996709 53.22111453 567.23503709 53.26052457 C560.51867728 53.28210884 553.80257149 53.29446643 547.08617401 53.28615379 C540.75940545 53.27859988 534.43312135 53.29449212 528.1064415 53.32806015 C525.78941398 53.33627708 523.47233815 53.33606277 521.1553154 53.32659721 C504.54742306 53.26548881 492.79743101 54.47137411 480 66 C479.09121094 66.79277344 478.18242187 67.58554687 477.24609375 68.40234375 C470.08320175 75.03898246 465.33811596 81.77176135 462 91 C462 92.65 462 94.3 462 96 C548.13 96.33 634.26 96.66 723 97 C723.33 114.16 723.66 131.32 724 149 C714.55983276 148.97643433 714.55983276 148.97643433 704.92895508 148.95239258 C684.12990491 148.90267188 663.33085239 148.86938809 642.53175831 148.84456348 C629.92193886 148.82911223 617.31217582 148.80805601 604.70239258 148.77368164 C593.70828499 148.74372597 582.71421828 148.72441234 571.72007102 148.71773452 C565.90187404 148.71383272 560.08379395 148.70469923 554.26563454 148.68280983 C548.78194743 148.66234725 543.29842465 148.65618589 537.81470299 148.66067696 C535.80929545 148.65985611 533.80388204 148.65394904 531.79850769 148.64238358 C512.34448617 148.53575364 496.97907877 150.72549843 482.27734375 164.73046875 C481.52582031 165.47941406 480.77429688 166.22835937 480 167 C479.36191406 167.61488281 478.72382813 168.22976563 478.06640625 168.86328125 C471.4934781 175.69971209 466.2400144 184.71275021 465.41357422 194.23486328 C465.33323944 195.1290799 465.25290466 196.02329651 465.1701355 196.9446106 C465.11399078 197.6228891 465.05784607 198.3011676 465 199 C506.18983253 199.27511607 547.37954456 199.48634302 588.57011352 199.61278395 C593.4412751 199.62779109 598.31243487 199.64332309 603.18359375 199.65917969 C604.63813506 199.66390128 604.63813506 199.66390128 606.12206104 199.66871825 C621.79015887 199.72082796 637.4577243 199.81538304 653.12550709 199.92583355 C669.22146706 200.03834982 685.31714966 200.10476781 701.41348672 200.12906194 C711.33324223 200.14546665 721.25149262 200.19713127 731.17078438 200.2949976 C737.98779542 200.35879917 744.804037 200.37751922 751.62132439 200.36201653 C755.5457481 200.35438565 759.46755682 200.36544443 763.3915062 200.4304657 C781.07976322 200.70923515 794.70145009 199.58440995 809.15043688 188.41136885 C811.69347444 186.47082194 814.3614125 184.84196021 817.09765625 183.1875 C818.75428573 182.12762377 820.40927932 181.06518554 822.0625 180 C823.92040442 178.8109346 825.77848033 177.62213711 827.63671875 176.43359375 C828.53825684 175.85593262 829.43979492 175.27827148 830.36865234 174.68310547 C851.425759 161.21421576 872.6354056 147.97521453 894 135 C890.30131635 130.86383764 885.83218559 128.05251342 881.25 125 C875.00816279 120.78940674 868.86787571 116.4959188 862.875 111.9375 C856.8370732 107.34846488 850.7058624 102.92265958 844.49560547 98.57006836 C839.29751032 94.92453568 834.14009163 91.22681573 829 87.5 C823.19446905 83.29295772 817.36478 79.1240453 811.5 75 C803.37802481 69.28648728 795.32506114 63.48052298 787.28369141 57.65429688 C780.52864914 52.76097141 773.76670275 47.87718636 767 43 C766.33919434 42.52369141 765.67838867 42.04738281 764.99755859 41.55664062 C763.14561797 40.22328099 761.2919295 38.89239526 759.4375 37.5625 C758.40496094 36.82128906 757.37242187 36.08007812 756.30859375 35.31640625 C752.25231907 32.47653508 748.119971 29.74664733 744 27 Z " fill="#000000" transform="translate(0,646)"/>
<path d="M0 0 C0.82372541 -0.00486483 1.64745083 -0.00972965 2.49613762 -0.0147419 C8.72007639 -0.05108004 14.94393255 -0.06743243 21.16796875 -0.07421875 C22.08092209 -0.07536934 22.99387543 -0.07651993 23.93449402 -0.07770538 C50.14816223 -0.10068681 76.15384614 0.01127402 102.1348877 3.90570068 C104.48937676 4.2583369 106.84556145 4.59771905 109.20214844 4.93603516 C124.43186762 7.14440467 139.60172363 9.71879489 154.66796875 12.86328125 C155.55629395 13.0449585 156.44461914 13.22663574 157.35986328 13.41381836 C164.27902351 14.94876476 171.28407863 17.06431208 175.79296875 22.86328125 C176.26605469 23.45367188 176.73914062 24.0440625 177.2265625 24.65234375 C179.83607951 28.31830883 179.91127149 31.87513289 179.35546875 36.23828125 C177.23279733 41.99898375 173.69038463 46.69638043 169.79296875 51.36328125 C168.71943821 52.67658177 167.64653544 53.99039567 166.57421875 55.3046875 C165.76597656 56.28912842 165.76597656 56.28912842 164.94140625 57.29345703 C162.51850959 60.2646385 160.15428211 63.28058597 157.79296875 66.30078125 C156.88547391 67.45837821 155.97792186 68.61593032 155.0703125 69.7734375 C154.62284668 70.34465332 154.17538086 70.91586914 153.71435547 71.50439453 C151.43093567 74.41794958 149.1429247 77.32789479 146.85546875 80.23828125 C145.93488857 81.41015054 145.01431564 82.58202554 144.09375 83.75390625 C142.30068351 86.03610652 140.50635075 88.31730181 138.7109375 90.59765625 C132.43029724 98.57754643 126.1857747 106.58501077 119.95703125 114.60546875 C117.60316997 117.6358585 115.24375348 120.66177033 112.87890625 123.68359375 C106.13778972 132.3062841 99.50782393 141.00172409 92.96337891 149.7746582 C88.80595862 155.33672878 84.57642406 160.83535174 80.29296875 166.30078125 C70.06246736 179.37340951 60.2712432 192.78335294 50.6953125 206.34179688 C49.75160584 207.67756825 48.80612911 209.01208996 47.859375 210.34570312 C22.86941032 245.5699443 -0.21000141 282.05812084 -21.95703125 319.36328125 C-22.57312256 320.4109668 -23.18921387 321.45865234 -23.82397461 322.53808594 C-30.02452666 333.26270917 -35.29910362 343.23143821 -31.94921875 355.859375 C-29.9455488 360.98641281 -27.66426383 363.67501355 -22.64453125 366.23828125 C-19.43989207 367.30649431 -17.16246925 367.36253007 -13.79369068 367.36132908 C-11.95072319 367.36431565 -11.95072319 367.36431565 -10.07052404 367.36736256 C-8.69983261 367.36450934 -7.32914137 367.36156374 -5.95845032 367.35853577 C-4.50805603 367.3589716 -3.05766182 367.35984673 -1.60726804 367.36112493 C2.38791633 367.36336755 6.38307404 367.35935177 10.37825501 367.35434687 C14.68294598 367.35003923 18.98763537 367.35148902 23.29232788 367.35224915 C30.75369817 367.35277418 38.21505974 367.3496295 45.67642784 367.34401131 C56.46439089 367.33589355 67.25234971 367.3332808 78.04031549 367.33202332 C95.54193472 367.32983323 113.04354931 367.32317432 130.54516602 367.3137207 C147.54907203 367.30454546 164.55297678 367.29746518 181.55688477 367.29321289 C182.60453204 367.29295017 183.65217932 367.29268744 184.73157348 367.29241676 C189.98717058 367.29111175 195.24276769 367.28984803 200.49836481 367.28860486 C244.11740268 367.2782336 287.73643547 367.26061646 331.35546875 367.23828125 C332.80651636 364.68039994 334.25503682 362.12114201 335.70214844 359.56103516 C336.11085175 358.84117935 336.51955505 358.12132355 336.94064331 357.37965393 C339.83763287 352.24827828 342.46152227 347.10921835 344.60546875 341.61328125 C344.92845947 340.79698242 345.2514502 339.98068359 345.58422852 339.13964844 C352.24513101 321.56563766 354.59081618 303.59861733 354.60546875 284.92578125 C354.60614349 284.152948 354.60681824 283.38011475 354.60751343 282.5838623 C354.53003224 226.34844738 337.52040175 172.08588026 298.578125 130.61328125 C296.63656398 128.53864311 294.80302622 126.4165668 292.98046875 124.23828125 C284.30929558 114.31393154 273.81660165 106.170318 263.35546875 98.23828125 C262.47616699 97.56563232 262.47616699 97.56563232 261.57910156 96.87939453 C241.31428785 81.42761318 219.18956759 68.66408749 196.1887207 57.73535156 C193.05447342 56.22159745 190.72764041 54.76856824 188.35546875 52.23828125 C199.87710884 35.34534275 199.87710884 35.34534275 205.35546875 28.23828125 C212.46408139 28.73136421 218.58196018 31.51878793 225.10546875 34.23828125 C226.30977539 34.73666504 227.51408203 35.23504883 228.75488281 35.74853516 C266.74176788 51.6025657 304.19595336 72.93010066 332.984375 102.8671875 C334.47278118 104.41306731 334.47278118 104.41306731 336.85546875 106.17578125 C339.7125367 108.53286231 341.97168539 111.1291869 344.3671875 113.9453125 C345.71024688 115.49418452 347.08942969 117.01234935 348.5 118.5 C362.34861237 133.12946282 373.48117514 149.74249583 383.35546875 167.23828125 C383.75958984 167.93953125 384.16371094 168.64078125 384.58007812 169.36328125 C400.09952886 196.39884032 409.00634948 226.49461367 413.35546875 257.23828125 C413.45786865 257.91197754 413.56026855 258.58567383 413.66577148 259.27978516 C417.70487797 289.43699529 413.81507333 321.22857529 405.35546875 350.23828125 C405.14728516 350.96176758 404.93910156 351.68525391 404.72460938 352.43066406 C397.48284549 377.06380244 386.26355863 401.96538666 370.35546875 422.23828125 C369.94167969 422.83898437 369.52789063 423.4396875 369.1015625 424.05859375 C365.24999995 429.39978502 358.99574949 432.4966604 352.63986599 433.79152089 C349.12052689 434.27023923 345.75933725 434.36490525 342.20745659 434.3669157 C341.50753875 434.36866874 340.80762091 434.37042178 340.08649343 434.37222794 C337.74147012 434.37687932 335.39650904 434.37442463 333.05148315 434.37199402 C331.35289081 434.37386246 329.6542989 434.37616329 327.95570767 434.37885934 C323.28761958 434.38498033 318.6195494 434.38484337 313.95145822 434.38366497 C308.91636647 434.38346102 303.88128048 434.38897937 298.84619141 434.39372253 C288.97829019 434.40203285 279.11039494 434.40477761 269.24249052 434.40533491 C261.21553445 434.40581018 253.18858035 434.40786551 245.16162491 434.41103554 C222.38864929 434.41984554 199.61567839 434.42445473 176.84270106 434.42370506 C175.61473178 434.42366511 174.3867625 434.42362515 173.12158203 434.42358398 C171.27736908 434.42352266 171.27736908 434.42352266 169.39589931 434.4234601 C149.49934895 434.42305422 129.60281758 434.43260827 109.70627271 434.44672235 C89.26180048 434.46111017 68.81733749 434.46799111 48.37286007 434.46712857 C36.90116203 434.46679729 25.42948385 434.46951403 13.95779037 434.48030663 C4.18322596 434.48944362 -5.5913096 434.49156097 -15.36587645 434.4847972 C-20.3465214 434.48154721 -25.32711111 434.48141971 -30.3077507 434.49015045 C-77.51892787 434.56774483 -77.51892787 434.56774483 -95.39453125 430.05078125 C-96.69209351 429.72932129 -96.69209351 429.72932129 -98.01586914 429.40136719 C-111.93264153 425.77302457 -123.94508745 419.50752163 -135.64453125 411.23828125 C-136.340625 410.7484375 -137.03671875 410.25859375 -137.75390625 409.75390625 C-150.35488261 399.92745679 -157.26287021 384.75859228 -159.421875 369.27685547 C-163.67358004 330.34951221 -142.93089222 295.22241742 -121.33300781 264.6328125 C-119.60027048 262.17551236 -117.882588 259.70825203 -116.16796875 257.23828125 C-109.99980578 248.36619565 -103.74345263 239.56253612 -97.3984375 230.81616211 C-93.77452028 225.81729455 -90.19563107 220.78909756 -86.64453125 215.73828125 C-80.92686924 207.61026 -75.11628712 199.55161643 -69.28564453 191.50439453 C-67.11015449 188.50039296 -64.9386933 185.49349246 -62.76757812 182.48632812 C-61.14240277 180.23533314 -59.51651369 177.98485478 -57.890625 175.734375 C-55.73447826 172.74919017 -53.58105621 169.76206737 -51.4296875 166.7734375 C-44.15673776 156.67561273 -36.806167 146.63774304 -29.41064453 136.62939453 C-27.06873842 133.45872429 -24.73058417 130.28529876 -22.39282227 127.11157227 C-21.22567519 125.52717948 -20.05819375 123.94303296 -18.89038086 122.35913086 C-15.99324769 118.42946798 -13.09998716 114.49706961 -10.21484375 110.55859375 C-3.39487326 101.25836987 3.51865845 92.03702456 10.52587891 82.87695312 C15.07472798 76.92973368 19.58104615 70.95344291 24.03271484 64.93310547 C26.51984065 61.59378972 29.0750624 58.34574893 31.76171875 55.1640625 C32.32084961 54.49487793 32.87998047 53.82569336 33.45605469 53.13623047 C34.52252524 51.86865223 35.60311751 50.61276466 36.70019531 49.37158203 C39.35950621 46.20169059 40.30205541 44.69631247 40.796875 40.453125 C40.61584629 37.17491218 40.61584629 37.17491218 38.54296875 34.86328125 C24.95923168 24.77250514 -16.49195742 34.62683073 -32.11132812 36.86816406 C-102.66838528 47.29247472 -169.63021508 71.59853597 -223.64453125 119.23828125 C-224.17594727 119.7065332 -224.70736328 120.17478516 -225.25488281 120.65722656 C-231.48516228 126.1797764 -237.30003285 131.84258751 -242.64453125 138.23828125 C-243.53155905 139.24291653 -244.42110716 140.24532946 -245.3125 141.24609375 C-253.14322441 150.09776806 -260.10003071 159.40028207 -266.64453125 169.23828125 C-267.03705078 169.82593262 -267.42957031 170.41358398 -267.83398438 171.01904297 C-298.05395771 216.97525463 -309.93504759 273.20302604 -299.28613281 327.20703125 C-297.49117574 335.68731548 -295.28382915 343.98252105 -292.64453125 352.23828125 C-292.36125977 353.12789551 -292.07798828 354.01750977 -291.78613281 354.93408203 C-284.60635505 376.98512323 -274.26049754 397.47211226 -260.64453125 416.23828125 C-260.20898926 416.8420459 -259.77344727 417.44581055 -259.32470703 418.06787109 C-253.33122867 426.30112684 -246.69632563 433.903097 -239.64453125 441.23828125 C-239.07573242 441.83431152 -238.50693359 442.4303418 -237.92089844 443.04443359 C-229.38967137 451.94049797 -220.57205817 459.9369804 -210.64453125 467.23828125 C-210.07379883 467.66447754 -209.50306641 468.09067383 -208.91503906 468.52978516 C-185.97223796 485.63013014 -160.43499108 498.34607655 -133.64453125 508.23828125 C-132.34346436 508.72288818 -132.34346436 508.72288818 -131.01611328 509.21728516 C-87.92317442 525.04476025 -40.31584995 532.29315923 5.4375 532.44140625 C6.48177941 532.44564732 6.48177941 532.44564732 7.54715538 532.44997406 C11.24864429 532.46484428 14.95009561 532.47414413 18.65161133 532.47851562 C21.62862749 532.4828498 24.60534554 532.49655996 27.58227539 532.51953125 C54.57016182 532.72325715 81.2892131 531.21788333 107.98046875 526.98828125 C108.63806183 526.88601227 109.29565491 526.78374329 109.97317505 526.67837524 C134.27525356 522.87529199 158.02439541 517.05608315 181.35546875 509.23828125 C182.75901611 508.77301025 182.75901611 508.77301025 184.19091797 508.29833984 C215.12530748 497.92838229 244.05402259 483.00288034 269.859375 463.0234375 C270.39782043 462.61218628 270.93626587 462.20093506 271.49102783 461.77722168 C273.47288969 460.18837776 273.47288969 460.18837776 275.58856201 458.02844238 C281.92471701 452.08990491 286.39169491 450.21386533 295.05461121 450.21861267 C297.00371147 450.28829002 297.00371147 450.28829002 298.9921875 450.359375 C300.36647833 450.37620597 301.74082397 450.3889959 303.1151886 450.39796448 C306.69557453 450.43198225 310.27256147 450.52005966 313.85162354 450.62030029 C317.51845326 450.71313789 321.18584409 450.75363406 324.85351562 450.79882812 C332.02236657 450.89473504 339.18843769 451.04788638 346.35546875 451.23828125 C344.92351525 454.22387276 343.51695777 456.32433925 341.16015625 458.6640625 C340.53109375 459.29207764 339.90203125 459.92009277 339.25390625 460.56713867 C338.25230469 461.54904175 338.25230469 461.54904175 337.23046875 462.55078125 C336.5446875 463.22794189 335.85890625 463.90510254 335.15234375 464.6027832 C330.69011339 468.98601257 326.20476855 473.28250181 321.35546875 477.23828125 C320.8567627 477.65078125 320.35805664 478.06328125 319.84423828 478.48828125 C249.03753055 536.9357786 158.62201148 562.23587207 65.35546875 568.23828125 C63.94418701 568.32505127 63.94418701 568.32505127 62.50439453 568.41357422 C-26.82162194 573.6028291 -121.30976849 563.45576883 -272.28613281 480.79882812 C-274.88364893 478.46655686 -277.44299454 476.09606587 -279.98828125 473.70703125 C-282.12002748 471.72576123 -284.28243219 469.84621098 -286.51953125 467.98828125 C-333.86084705 426.62588939 -360.4910415 362.40455454 -365.26953125 300.80078125 C-368.52744431 244.0538592 -351.41108453 188.49263275 -318.64453125 142.23828125 C-318.15194824 141.5407373 -317.65936523 140.84319336 -317.15185547 140.12451172 C-310.40775385 130.65695897 -303.04186393 122.0725742 -295.00585938 113.68505859 C-293.29317467 111.86487036 -291.68445256 109.9682417 -290.08203125 108.05078125 C-285.40023311 102.64428217 -279.99526133 97.96421571 -274.64453125 93.23828125 C-273.89042969 92.56708252 -273.89042969 92.56708252 -273.12109375 91.88232422 C-207.01620838 33.33411778 -117.89357231 8.67767137 -31.64453125 1.23828125 C-30.62523529 1.1502272 -29.60593933 1.06217316 -28.55575562 0.97145081 C-19.02777411 0.21918 -9.55097139 0.0433343 0 0 Z " fill="#000000" transform="translate(978.64453125,-0.23828125)"/>
</svg>
