<?xml version="1.0" encoding="UTF-8"?>
<svg version="1.1" xmlns="http://www.w3.org/2000/svg" width="2000" height="1236">
<path d="M0 0 C0.9954439 -0.00282738 1.99088779 -0.00565475 3.01649666 -0.00856781 C8.30811948 -0.02348142 13.59971571 -0.03275434 18.89135742 -0.03710938 C23.17171969 -0.04144962 27.45187534 -0.05517786 31.73217773 -0.078125 C65.92362204 -0.25770294 100.02070893 0.37292443 133.84277344 5.88427734 C136.55040683 6.29565115 139.26318863 6.58579233 141.98681641 6.86816406 C168.86683487 9.66613258 195.7335572 15.67311885 221.94140625 22.203125 C222.94574707 22.45320313 223.95008789 22.70328125 224.98486328 22.9609375 C238.47075626 26.34080118 251.86268875 29.86515382 265.05859375 34.25 C267.87767864 35.18205517 270.7017452 36.09795485 273.52690125 37.01141357 C291.28604904 42.76243259 308.71202303 48.99374418 325.94140625 56.203125 C328.19391785 57.13303676 330.44652451 58.06271828 332.69921875 58.9921875 C344.68026326 63.96659802 356.48081018 69.1186466 367.94140625 75.203125 C368.89297607 75.70755127 368.89297607 75.70755127 369.86376953 76.22216797 C372.93258737 77.85269284 375.9953767 79.49283457 379.05078125 81.1484375 C382.21997319 82.84903201 385.43740867 84.43874466 388.6640625 86.02734375 C394.79598217 89.08231106 400.72425777 92.4198201 406.62890625 95.890625 C408.19463379 96.80908203 408.19463379 96.80908203 409.79199219 97.74609375 C430.38836784 109.90257738 450.15974967 123.39313083 468.94140625 138.203125 C470.07738506 139.08298741 471.21412825 139.96186366 472.3515625 140.83984375 C490.5050995 154.89728864 507.19054872 170.37935355 523.44140625 186.578125 C524.37339844 187.50544434 525.30539062 188.43276367 526.265625 189.38818359 C531.36486184 194.49937752 536.27145204 199.69758952 540.94140625 205.203125 C541.85402291 206.25923883 542.76677517 207.31523549 543.6796875 208.37109375 C580.6892357 251.78290067 610.05509994 302.71383235 624.40771484 358.18164062 C624.90799959 360.07658925 625.44869996 361.96073741 625.9921875 363.84375 C635.64406231 397.68121074 637.34884183 434.26073751 634.94140625 469.203125 C634.8861377 470.06147949 634.83086914 470.91983398 634.77392578 471.80419922 C631.92946556 513.90704521 619.68215601 557.58684285 600.08203125 595.01171875 C598.83916806 597.39954838 597.6242452 599.80054537 596.41015625 602.203125 C583.9752214 626.62443993 568.69859893 649.46261127 551.25830078 670.59814453 C550.05278931 672.0673756 548.86898031 673.55434451 547.6875 675.04296875 C542.20800642 681.91504081 536.27246732 688.29507133 530.2421875 694.6796875 C527.61603047 697.46538784 525.0716133 700.30756025 522.56640625 703.203125 C519.63681698 706.53530053 516.51630303 709.40750896 513.12890625 712.265625 C510.50407523 714.59047533 508.08016723 717.07115354 505.62890625 719.578125 C501.27874909 723.99953473 496.70807446 727.98607565 491.85546875 731.84765625 C489.24632078 733.95665924 486.72144987 736.12760296 484.20239258 738.34130859 C451.57533187 766.90229749 412.83603345 791.6156633 373.76269531 810.3203125 C371.86995865 811.23775698 369.9945448 812.18445353 368.12109375 813.140625 C357.55542523 818.52841623 346.8020807 823.44095489 335.94140625 828.203125 C335.20680176 828.52748535 334.47219727 828.8518457 333.71533203 829.18603516 C291.93340351 847.55182254 248.12874347 861.10215165 203.52685547 870.64697266 C200.8714317 871.21817713 198.22103753 871.80975035 195.5703125 872.40234375 C115.69065082 889.97392002 30.9846856 894.63083228 -118.76660156 876.83300781 C-122.24111054 876.16820262 -125.72233172 875.55431636 -129.20703125 874.9453125 C-161.37177132 869.19416859 -193.05067721 860.45379563 -224.05859375 850.203125 C-225.54117676 849.71513428 -225.54117676 849.71513428 -227.05371094 849.21728516 C-255.36932595 839.82160597 -283.51752241 828.87208322 -310.05859375 815.203125 C-312.02196707 814.22295251 -313.98881863 813.24998702 -315.95581055 812.27709961 C-338.76990581 800.96696479 -360.89653819 788.37668938 -382.05859375 774.203125 C-382.80915039 773.70490234 -383.55970703 773.20667969 -384.33300781 772.69335938 C-400.28152662 762.08742927 -415.35467319 750.4710229 -430.05859375 738.203125 C-431.04601562 737.38972656 -432.0334375 736.57632813 -433.05078125 735.73828125 C-445.66446656 725.28091501 -457.42465638 713.91987923 -469.05081177 702.38613892 C-470.45038161 700.99844911 -471.85391029 699.61475557 -473.25756836 698.23120117 C-478.56124405 692.93430954 -483.46030778 687.46716362 -488.1315918 681.60375977 C-489.84244302 679.47240285 -491.60500002 677.42085073 -493.43359375 675.390625 C-520.50664536 644.6004496 -541.8124941 608.15481987 -557.05859375 570.203125 C-557.59226562 568.88417236 -557.59226562 568.88417236 -558.13671875 567.53857422 C-562.92891105 555.61235288 -566.96035167 543.67619799 -570.05859375 531.203125 C-570.27112793 530.35186035 -570.48366211 529.5005957 -570.70263672 528.62353516 C-572.22036606 522.49797507 -573.65738502 516.356259 -575.05859375 510.203125 C-575.49171875 508.346875 -575.49171875 508.346875 -575.93359375 506.453125 C-591.91410311 433.20912374 -577.37169443 354.05408425 -543.06347656 288.14355469 C-542.0433601 286.17370881 -541.04629717 284.19331268 -540.05078125 282.2109375 C-526.76198794 256.07537681 -509.50411202 231.11293122 -489.8984375 209.29296875 C-488.50396544 207.70901428 -487.14858333 206.09053834 -485.8125 204.45703125 C-478.94220179 196.10119309 -471.45437163 188.40575018 -463.80859375 180.765625 C-463.02973312 179.98554077 -463.02973312 179.98554077 -462.23513794 179.18969727 C-456.35478508 173.31038816 -450.38377911 167.60685217 -444.05859375 162.203125 C-442.45091002 160.74866983 -440.8461966 159.29091605 -439.24609375 157.828125 C-433.99449325 153.10089006 -428.58712584 148.6015064 -423.05859375 144.203125 C-422.4032666 143.68057129 -421.74793945 143.15801758 -421.07275391 142.61962891 C-411.28785031 134.84279633 -401.35000461 127.41793379 -390.95703125 120.47363281 C-389.11991923 119.24416638 -387.29155656 118.0026612 -385.46484375 116.7578125 C-364.04615002 102.2292322 -341.7636729 88.5860836 -318.42871094 77.35351562 C-315.67288978 76.01591475 -312.93286038 74.64804948 -310.19140625 73.28125 C-292.81703979 64.68754763 -275.11069179 57.23818242 -257.05859375 50.203125 C-255.94790527 49.76983887 -254.8372168 49.33655273 -253.69287109 48.89013672 C-189.22359535 23.90691994 -120.78892224 8.85074088 -51.99609375 2.578125 C-51.3112088 2.5155954 -50.62632385 2.4530658 -49.92068481 2.38864136 C-45.30179344 1.97038353 -40.68248995 1.56226718 -36.05859375 1.203125 C-35.03939346 1.11873169 -34.02019318 1.03433838 -32.97010803 0.9473877 C-21.97604739 0.11303895 -11.0207011 0.02153605 0 0 Z M-56.05859375 34.203125 C-57.18007813 34.35539551 -58.3015625 34.50766602 -59.45703125 34.66455078 C-67.33909974 35.75276333 -75.20291082 36.93885103 -83.05859375 38.203125 C-84.46238281 38.42887207 -84.46238281 38.42887207 -85.89453125 38.65917969 C-109.59211855 42.54867499 -133.10826789 48.14310354 -156.05859375 55.203125 C-157.52474121 55.65341064 -157.52474121 55.65341064 -159.02050781 56.11279297 C-181.27612791 62.99644298 -202.95878533 70.91629845 -224.38330078 80.06298828 C-226.73836885 81.0666539 -229.0983668 82.05714393 -231.4609375 83.04296875 C-241.09196684 87.10347867 -250.30278465 91.84868758 -259.49316406 96.81884766 C-262.15234969 98.25371466 -264.81989318 99.67217366 -267.48828125 101.08984375 C-296.06451595 116.36200507 -323.49448285 134.44772914 -348.0546875 155.6328125 C-350.80554057 157.98659835 -353.60439851 160.25726886 -356.43359375 162.515625 C-367.07159833 171.20409627 -376.83349508 180.89504404 -386.55859375 190.578125 C-387.29988525 191.31474365 -388.04117676 192.0513623 -388.80493164 192.81030273 C-393.42657585 197.44552926 -397.82012985 202.21582028 -402.05859375 207.203125 C-402.59693848 207.83476562 -403.1352832 208.46640625 -403.68994141 209.1171875 C-418.67799253 226.83402915 -431.93176944 245.42266596 -444.05859375 265.203125 C-444.54424805 265.9859082 -445.02990234 266.76869141 -445.53027344 267.57519531 C-466.44156197 301.4517754 -481.99699368 341.25801767 -488.62158203 380.62011719 C-488.93062054 382.44672468 -489.25903562 384.2701036 -489.60107422 386.09082031 C-496.37169639 422.96642832 -496.52174072 464.42732843 -489.05859375 501.203125 C-488.76178711 502.71567871 -488.76178711 502.71567871 -488.45898438 504.25878906 C-486.02194774 516.43214196 -482.81738904 528.37577565 -479.05859375 540.203125 C-478.63537842 541.55229004 -478.63537842 541.55229004 -478.20361328 542.92871094 C-471.70519304 563.52137561 -463.703256 582.94998367 -453.32470703 601.89013672 C-452.05585297 604.20813196 -450.80454572 606.53499906 -449.5546875 608.86328125 C-444.23701712 618.69124338 -438.44737962 628.03920309 -432.05859375 637.203125 C-431.31875244 638.26974365 -431.31875244 638.26974365 -430.56396484 639.35791016 C-424.93250627 647.46318172 -419.26985532 655.52653059 -413.05859375 663.203125 C-410.70340233 660.24341565 -408.95771237 657.2467051 -407.2734375 653.86328125 C-406.7477417 652.81060059 -406.2220459 651.75791992 -405.68041992 650.67333984 C-405.12459229 649.54879395 -404.56876465 648.42424805 -403.99609375 647.265625 C-403.41899658 646.10498535 -402.84189941 644.9443457 -402.24731445 643.74853516 C-398.25800155 635.69935083 -394.3606353 627.60958777 -390.52172852 619.48779297 C-387.12708492 612.31245099 -383.60443622 605.20786179 -380.02636719 598.12255859 C-378.74078311 595.57279521 -377.46402329 593.0186639 -376.18798828 590.46411133 C-375.17269742 588.43155434 -374.15676083 586.39932215 -373.140625 584.3671875 C-371.90703219 581.90016173 -370.67377701 579.43296882 -369.44091797 576.96557617 C-365.92093892 569.92208497 -362.39648299 562.88085842 -358.86750412 555.84187126 C-356.30566001 550.73178008 -353.74541365 545.62088987 -351.18593216 540.50961494 C-349.52199867 537.18694258 -347.85731156 533.86465223 -346.19091797 530.54321289 C-336.05781515 510.35375849 -336.05781515 510.35375849 -326.29446411 489.98347473 C-323.66668882 484.38501421 -320.84819252 478.90735136 -317.93359375 473.453125 C-314.46352415 466.94482946 -311.16479687 460.3948351 -308.09716797 453.68652344 C-306.03139567 449.18856557 -303.84954253 444.75312795 -301.63061523 440.32910156 C-301.28412839 439.63720262 -300.93764154 438.94530367 -300.5806551 438.23243809 C-299.81602936 436.70568758 -299.05116984 435.17905413 -298.28610992 433.65252113 C-297.01908999 431.12429886 -295.75277217 428.59572599 -294.4866333 426.06706238 C-292.59498306 422.28919091 -290.70310315 418.51143458 -288.81108093 414.73374939 C-285.01060121 407.1450642 -281.21213437 399.55537176 -277.41390514 391.96555996 C-274.54742959 386.23781705 -271.68020577 380.51045128 -268.8112793 374.78393555 C-266.00565462 369.18369043 -263.20208578 363.58242027 -260.39983559 357.98048592 C-259.34624296 355.8751184 -258.29195866 353.77009684 -257.23689842 351.6654644 C-250.8457209 338.91505128 -244.58052096 326.11343154 -238.46138 313.2301178 C-235.39690897 306.79260381 -232.20762571 300.42021251 -228.99339676 294.05649757 C-227.4198405 290.93671085 -225.85969047 287.8102342 -224.29833984 284.68432617 C-221.62846514 279.34184793 -218.9562848 274.00053939 -216.27978516 268.66137695 C-213.18882739 262.49540583 -210.09959429 256.32857369 -207.01166725 250.16108418 C-205.16639849 246.47574937 -203.32037915 242.79079452 -201.47265625 239.10668945 C-187.48891211 212.00921448 -187.48891211 212.00921448 -175.05859375 184.203125 C-103.11859375 184.203125 -31.17859375 184.203125 42.94140625 184.203125 C27.83327415 224.87886528 27.83327415 224.87886528 23.02392578 236.56689453 C21.76692403 239.62803682 20.52480874 242.6950915 19.28125 245.76171875 C10.05335393 268.40356806 0.47705379 291.05563879 -10.79833984 312.76513672 C-12.09853756 315.28039717 -13.38399299 317.80296433 -14.66772461 320.32666016 C-25.38462216 341.38395195 -36.43678555 362.2101808 -49.05859375 382.203125 C-49.85634397 383.48383024 -50.65316485 384.76511468 -51.44921875 386.046875 C-53.57303388 389.46421562 -55.70803097 392.8743463 -57.85009766 396.28027344 C-58.9473411 398.02610968 -60.04031901 399.77462495 -61.1328125 401.5234375 C-71.95225102 418.62845459 -83.69776586 435.17999164 -96.05859375 451.203125 C-96.50477051 451.78288086 -96.95094727 452.36263672 -97.41064453 452.95996094 C-107.22029351 465.66994725 -117.28055192 478.25195663 -128.12890625 490.09375 C-129.91029771 492.04102002 -131.64619145 494.01836971 -133.37109375 496.015625 C-142.0088606 505.87902093 -151.05153513 515.29775467 -160.30859375 524.578125 C-160.77999786 525.05211731 -161.25140198 525.52610962 -161.73709106 526.01446533 C-167.33558951 531.6371839 -173.0318734 537.04403115 -179.05859375 542.203125 C-180.66627748 543.65758017 -182.2709909 545.11533395 -183.87109375 546.578125 C-210.37833901 570.43865591 -240.12585264 591.49403985 -271.05859375 609.203125 C-271.83831543 609.64978516 -272.61803711 610.09644531 -273.42138672 610.55664062 C-302.14817975 626.88357779 -332.113149 639.71761624 -364.05859375 648.203125 C-364.05859375 648.533125 -364.05859375 648.863125 -364.05859375 649.203125 C-289.14859375 649.203125 -214.23859375 649.203125 -137.05859375 649.203125 C-128.6461731 633.23771073 -128.6461731 633.23771073 -120.46780396 617.15707397 C-120.09788456 616.41628979 -119.72796516 615.6755056 -119.34683609 614.91227341 C-118.96425518 614.14603275 -118.58167427 613.3797921 -118.1875 612.59033203 C-117.35513406 610.92696069 -116.52259893 609.26367399 -115.68991089 607.60046387 C-113.46077985 603.14669914 -111.23412184 598.69170261 -109.00806808 594.23639917 C-106.65706136 589.53182109 -104.30407296 584.82823419 -101.95141602 580.1244812 C-98.0029581 572.22937553 -94.0561706 564.33343654 -90.11035156 556.43701172 C-85.57641439 547.36370003 -81.03960078 538.29183105 -76.50128651 529.22070801 C-72.57590839 521.37451961 -68.65211957 513.52753791 -64.72960949 505.67991531 C-62.39959183 501.01833687 -60.06906512 496.35701505 -57.73709106 491.69641495 C-45.13866284 466.57068422 -45.13866284 466.57068422 -32.96557617 441.23727417 C-30.10326825 435.14108753 -27.06200637 429.13374056 -24.02636719 423.12255859 C-22.69880433 420.48953659 -21.38068977 417.85183503 -20.06298828 415.21386719 C-19.06256131 413.21106783 -18.06058203 411.20904985 -17.05859375 409.20703125 C-15.71977006 406.5300376 -14.38702708 403.85013272 -13.05859375 401.16796875 C-9.88372088 394.76935494 -6.65621768 388.41725493 -3.24609375 382.140625 C0.72539954 374.80726263 4.29375642 367.29252675 7.86767578 359.75927734 C11.47766765 352.15183702 15.19348908 344.60617386 18.98974609 337.09033203 C20.64938956 333.79914577 22.29443388 330.50066487 23.94140625 327.203125 C24.60800787 325.86975914 25.27467443 324.53642575 25.94140625 323.203125 C26.27140625 322.543125 26.60140625 321.883125 26.94140625 321.203125 C49.60807292 275.86979167 72.27473958 230.53645833 94.94140625 185.203125 C191.96140625 184.708125 191.96140625 184.708125 290.94140625 184.203125 C278.49997128 219.75008205 265.05193245 255.62327762 247.92871094 289.25463867 C245.92301628 293.19842577 244.02506228 297.172867 242.19555664 301.20117188 C237.26242067 312.01646816 231.38966164 322.25461386 225.46191406 332.54980469 C223.76177105 335.51659246 222.09511446 338.50063767 220.43554688 341.49023438 C212.24322439 356.2243005 203.547389 370.63342981 194.05126953 384.56396484 C192.38209479 387.02917365 190.76060122 389.52550178 189.12890625 392.015625 C177.2097203 409.88236435 164.01253165 426.79207838 150.41210938 443.39599609 C149.15366657 444.94230978 147.91288252 446.5029662 146.67578125 448.06640625 C140.23769355 456.16316158 133.09982215 463.56967775 125.97265625 471.05419922 C124.04870576 473.08960934 122.14670843 475.14266826 120.25390625 477.20703125 C113.33488236 484.74722632 106.20235809 491.85860597 98.59326172 498.69970703 C96.87704085 500.26170646 95.18994511 501.85059964 93.5078125 503.44921875 C86.21162382 510.36998833 78.68219283 516.75361806 70.69140625 522.85595703 C68.9273883 524.21391616 67.18214935 525.59282839 65.44140625 526.98046875 C57.46442029 533.33690336 49.32209602 539.38961951 40.94140625 545.203125 C40.38469238 545.59290527 39.82797852 545.98268555 39.25439453 546.38427734 C6.74926231 569.05022196 -29.01902838 586.7484197 -66.91821289 598.25073242 C-67.66449951 598.47865479 -68.41078613 598.70657715 -69.1796875 598.94140625 C-70.16086548 599.23591675 -70.16086548 599.23591675 -71.16186523 599.53637695 C-73.46206071 600.30045472 -73.46206071 600.30045472 -77.05859375 602.203125 C-9.07859375 602.203125 58.90140625 602.203125 128.94140625 602.203125 C141.47109375 577.1746875 141.47109375 577.1746875 154.25390625 551.640625 C156.86852783 546.42048584 159.48314941 541.20034668 162.17700195 535.82202148 C164.56944431 531.04048623 164.56944431 531.04048623 166.96134949 526.25868225 C168.00678641 524.16931938 169.0530045 522.08034724 170.09989929 519.99171448 C176.72016911 506.78208773 183.22689097 493.52759063 189.56388855 480.17958069 C192.61886857 473.7585425 195.80076801 467.40359608 199.00644875 461.05680656 C200.58079258 457.93545386 202.141723 454.80740754 203.70385742 451.67993164 C206.36771268 446.34949899 209.03385274 441.02022568 211.7043457 435.69311523 C214.78333059 429.5511102 217.86057847 423.408238 220.93652058 417.26470852 C222.77391056 413.5951237 224.61204858 409.92591761 226.4519043 406.25756836 C237.63035479 383.97578189 237.63035479 383.97578189 248.44050598 361.51353455 C251.50602647 355.02049029 254.81429935 348.68194014 258.19903564 342.35069275 C261.21291641 336.6778699 264.01301484 330.92791681 266.75 325.1171875 C271.27578442 315.58574286 275.93609158 306.12747848 280.6640625 296.6953125 C281.0015086 296.02190575 281.3389547 295.34849899 281.68662643 294.65468597 C284.12285677 289.79439359 286.56295407 284.93604729 289.00390625 280.078125 C291.78904949 274.53515172 294.57259893 268.99138698 297.3515625 263.4453125 C297.6852459 262.77944563 298.01892929 262.11357876 298.3627243 261.4275341 C303.33182425 251.50369156 308.18863754 241.53176663 312.91137695 231.48803711 C315.81400141 225.32348951 318.88411082 219.2434957 321.95605469 213.16210938 C323.00306339 211.08054401 324.03969864 208.99404852 325.07421875 206.90625 C325.4285498 206.19251221 325.78288086 205.47877441 326.14794922 204.7434082 C326.81770562 203.39370959 327.48611832 202.04334288 328.15283203 200.69213867 C329.7256819 197.53032197 331.36678028 194.45959351 333.17578125 191.42578125 C335.18165118 188.37706408 335.18165118 188.37706408 334.94140625 185.203125 C367.28140625 185.203125 399.62140625 185.203125 432.94140625 185.203125 C427.78880331 179.17994846 427.78880331 179.17994846 422.19140625 173.828125 C421.32902344 173.06757813 420.46664062 172.30703125 419.578125 171.5234375 C418.70800781 170.75773438 417.83789062 169.99203125 416.94140625 169.203125 C415.29462534 167.70416537 413.6487834 166.20417347 412.00390625 164.703125 C397.55246549 151.71483634 381.91146743 140.23194511 365.94140625 129.203125 C365.31508301 128.77 364.68875977 128.336875 364.04345703 127.890625 C354.01407065 120.99053654 343.64167427 114.70325446 333.16064453 108.51611328 C331.2893071 107.40895677 329.42506768 106.28981587 327.5625 105.16796875 C320.21387906 100.77879243 312.63241038 96.96746356 304.953125 93.20166016 C303.07299289 92.26843924 301.20850372 91.31083232 299.34765625 90.33984375 C254.96282564 67.31525042 204.48398827 50.71281601 155.27685547 41.63623047 C153.54569159 41.31518879 151.81572223 40.98769137 150.08642578 40.65673828 C121.51119963 35.19854902 92.99196529 31.7618319 63.94140625 30.203125 C62.91144531 30.14527832 61.88148438 30.08743164 60.8203125 30.02783203 C21.94365194 27.89821002 -17.45695438 28.94625346 -56.05859375 34.203125 Z M485.94140625 249.203125 C485.69720947 249.78239746 485.4530127 250.36166992 485.20141602 250.95849609 C473.49801204 278.53649668 460.16281445 305.39333697 444.94140625 331.203125 C444.43802734 332.0600293 443.93464844 332.91693359 443.41601562 333.79980469 C439.97906637 339.63467682 436.48097695 345.43000341 432.94140625 351.203125 C432.45317383 352.00202148 431.96494141 352.80091797 431.46191406 353.62402344 C424.6454338 364.73618935 417.38914497 375.41945944 409.63867188 385.89990234 C407.87750268 388.28984339 406.1346693 390.69236707 404.39453125 393.09765625 C398.36262157 401.40664268 392.21157676 409.50655754 385.48046875 417.26171875 C382.20234117 421.05930347 379.05878623 424.95441904 375.9140625 428.86328125 C373.94140625 431.203125 373.94140625 431.203125 371.6875 433.38671875 C369.710401 435.02350606 369.710401 435.02350606 369.94140625 437.203125 C368.95140625 437.533125 367.96140625 437.863125 366.94140625 438.203125 C365.47981889 439.64013957 365.47981889 439.64013957 364.03125 441.48046875 C359.36542277 446.97681078 354.27581592 452.01862253 349.17163086 457.10327148 C347.50714348 458.7623982 345.84807178 460.42680551 344.18945312 462.09179688 C338.6130836 467.67196963 332.97467552 473.11354962 326.94140625 478.203125 C325.91974932 479.09150164 324.89887141 479.98077526 323.87890625 480.87109375 C315.51451534 488.04533861 306.82928769 494.6926512 297.94140625 501.203125 C297.3577832 501.6347998 296.77416016 502.06647461 296.17285156 502.51123047 C262.40978463 527.45849372 225.08295851 546.09821136 184.94140625 558.203125 C184.94140625 558.533125 184.94140625 558.863125 184.94140625 559.203125 C275.03140625 559.698125 275.03140625 559.698125 366.94140625 560.203125 C360.95941713 573.49643415 354.93066145 586.60840346 348.21484375 599.5234375 C346.7983336 602.00971223 346.7983336 602.00971223 346.94140625 604.203125 C275.33140625 604.203125 203.72140625 604.203125 129.94140625 604.203125 C121.44139976 620.32137922 121.44139976 620.32137922 113.37890625 636.640625 C112.86005859 637.71376953 112.34121094 638.78691406 111.80664062 639.89257812 C111.31357422 640.92189453 110.82050781 641.95121094 110.3125 643.01171875 C109.8786499 643.91720459 109.4447998 644.82269043 108.99780273 645.75561523 C107.77684351 648.40302041 107.77684351 648.40302041 106.94140625 652.203125 C26.42140625 652.203125 -54.09859375 652.203125 -137.05859375 652.203125 C-140.68859375 660.123125 -144.31859375 668.043125 -148.05859375 676.203125 C-151.21436005 682.60482236 -154.40541111 688.97740277 -157.66015625 695.328125 C-158.12164063 696.235625 -158.583125 697.143125 -159.05859375 698.078125 C-159.64640625 699.21894531 -159.64640625 699.21894531 -160.24609375 700.3828125 C-161.19445791 702.17527754 -161.19445791 702.17527754 -161.05859375 704.203125 C-231.67859375 704.203125 -302.29859375 704.203125 -375.05859375 704.203125 C-365.10614459 714.15557416 -354.84669907 723.3764356 -343.6796875 731.94189453 C-341.19934229 733.87163299 -338.78795499 735.88229571 -336.37109375 737.890625 C-327.36498977 745.2903771 -317.80414187 751.82401329 -308.05859375 758.203125 C-307.13481934 758.81196533 -307.13481934 758.81196533 -306.19238281 759.43310547 C-290.46202985 769.79392545 -274.56830494 779.87470631 -257.55273438 788.00097656 C-254.56931915 789.43894999 -251.60374553 790.91132528 -248.63671875 792.3828125 C-213.79275801 809.57281866 -177.68444039 823.39813806 -140.05859375 833.203125 C-138.85783203 833.51733398 -137.65707031 833.83154297 -136.41992188 834.15527344 C-120.92096334 838.19266491 -105.41347418 842.0898321 -89.61230469 844.76757812 C-86.94754162 845.22206544 -84.28871425 845.70492276 -81.62890625 846.1875 C-64.91556532 849.12295964 -48.08096763 850.76213206 -31.19921875 852.37109375 C-30.47070206 852.44071823 -29.74218536 852.51034271 -28.99159241 852.58207703 C-26.68130113 852.79786965 -24.37015129 853.00135655 -22.05859375 853.203125 C-20.62257561 853.33587074 -20.62257561 853.33587074 -19.157547 853.47129822 C-10.46898049 854.21977154 -1.81565166 854.36663791 6.8984375 854.37109375 C8.41420012 854.37432227 9.92996245 854.37768741 11.44572449 854.38117981 C14.60990111 854.38712514 17.77405062 854.38902475 20.93823242 854.38842773 C24.12904585 854.38834692 27.31971435 854.39522534 30.51049805 854.40893555 C48.29812381 854.48420523 65.89334766 854.31779756 83.60629272 852.44790649 C86.78241796 852.11496479 89.96332913 851.84212755 93.14453125 851.5625 C130.605484 847.9042392 168.43680974 841.15844877 204.40039062 829.98339844 C207.46126002 829.04349273 210.53788949 828.16770609 213.6184082 827.29492188 C252.20902459 816.27812125 291.55055143 800.67438616 325.734375 779.53515625 C328.03413221 778.14716119 330.37790366 776.893292 332.75390625 775.640625 C348.17388111 767.28722985 362.81473899 757.57112281 376.94140625 747.203125 C377.77124023 746.59645996 378.60107422 745.98979492 379.45605469 745.36474609 C392.50343175 735.81513247 392.50343175 735.81513247 404.71875 725.24609375 C407.24634291 722.92284051 409.88759206 720.787321 412.56640625 718.640625 C416.71725686 715.28711293 420.50928301 711.76096037 424.21484375 707.92578125 C425.94140625 706.203125 425.94140625 706.203125 428.94140625 703.828125 C429.60140625 703.291875 430.26140625 702.755625 430.94140625 702.203125 C430.94140625 701.543125 430.94140625 700.883125 430.94140625 700.203125 C431.93140625 699.873125 432.92140625 699.543125 433.94140625 699.203125 C435.19127681 697.75590646 436.43607911 696.30317775 437.62890625 694.80859375 C440.0424864 691.85626803 442.8407811 689.27729281 445.56640625 686.6171875 C456.84146208 675.49313688 466.58484659 662.95341986 475.94140625 650.203125 C476.72257812 649.14609375 477.50375 648.0890625 478.30859375 647 C525.79563655 582.08862285 552.17457218 501.09659155 546.06640625 420.453125 C545.97399658 419.22303711 545.88158691 417.99294922 545.78637695 416.72558594 C545.51555329 413.21711507 545.23276001 409.70994558 544.94140625 406.203125 C544.83723389 404.94048828 544.83723389 404.94048828 544.73095703 403.65234375 C541.53342157 367.0067974 529.51567966 330.37112574 513.94140625 297.203125 C513.63654297 296.5534375 513.33167969 295.90375 513.01757812 295.234375 C508.81619349 286.37789248 504.11950791 277.80832812 499.31640625 269.265625 C498.77798096 268.3063208 498.23955566 267.3470166 497.68481445 266.35864258 C494.35655291 260.49941466 490.99331426 254.60038658 486.94140625 249.203125 C486.61140625 249.203125 486.28140625 249.203125 485.94140625 249.203125 Z " fill="#161695" transform="translate(983.05859375,-0.203125)"/>
<path d="M0 0 C9.938802 5.39899875 19.06443625 12.05810675 28.25537109 18.62255859 C30.54527951 20.25522471 32.8425575 21.87659399 35.14453125 23.4921875 C42.33761691 28.54187475 49.48352871 33.65073561 56.59375 38.81640625 C62.73382393 43.274842 68.94115165 47.61645032 75.21875 51.87890625 C82.25700531 56.65784421 89.19059661 61.55961182 96.07226562 66.56103516 C105.5198794 73.42616243 115.06976187 80.14683246 124.65625 86.81640625 C129.17471203 89.97094804 133.63233841 93.20704957 138.09375 96.44140625 C147.09774967 102.96519438 156.20151393 109.34059465 165.31982422 115.703125 C196.54459143 137.51533772 196.54459143 137.51533772 204.80395508 144.02148438 C208.38294585 146.55867533 212.52716356 145.95866463 216.71875 145.37890625 C220.03489231 144.00193139 220.03489231 144.00193139 222.71875 141.37890625 C223.24726562 140.92386719 223.77578125 140.46882813 224.3203125 140 C237.56788093 126.9641507 243.05392901 104.23250361 249.91870117 87.34545898 C250.72093109 85.37354505 251.52515226 83.40245549 252.33007812 81.43164062 C256.14585271 72.08861542 259.94098444 62.73736367 263.71875 53.37890625 C263.98040955 52.73076965 264.24206909 52.08263306 264.51165771 51.41485596 C266.06897741 47.55556908 267.62267915 43.69484838 269.17236328 39.83248901 C269.85870115 38.12238096 270.54648438 36.41285319 271.234375 34.70336914 C276.1941488 22.31026089 280.92536711 9.84170177 285.71875 -2.62109375 C328.61875 -2.62109375 371.51875 -2.62109375 415.71875 -2.62109375 C414.87742768 2.42684015 413.66319887 6.3108267 411.59375 10.87890625 C411.27954102 11.58539307 410.96533203 12.29187988 410.64160156 13.01977539 C408.69732137 17.34681854 406.63014276 21.59281508 404.46875 25.81640625 C400.62471759 33.36594737 397.25834548 41.11117487 393.88964844 48.88256836 C391.1701965 55.14241053 388.35456402 61.34958683 385.4543457 67.52732849 C383.27084644 72.18230444 381.12416791 76.85281903 379 81.53515625 C378.53382263 82.56268761 378.53382263 82.56268761 378.05822754 83.61097717 C377.11114667 85.7000209 376.16480465 87.7893976 375.21875 89.87890625 C371.22946717 98.68985704 367.21378293 107.48568608 363.10935974 116.2436676 C360.92895443 120.90509557 358.83453546 125.59803776 356.78125 130.31640625 C354.32703348 135.90147465 351.75318313 141.38893978 348.96875 146.81640625 C345.36227797 153.86537881 342.1552735 161.0692888 338.96875 168.31640625 C313.01107949 227.06444418 313.01107949 227.06444418 285.3359375 240.5390625 C274.57211717 244.57080705 260.23682317 243.75471246 249.65234375 239.7421875 C248.68425781 239.29230469 247.71617187 238.84242188 246.71875 238.37890625 C245.71050171 237.929104 245.71050171 237.929104 244.68188477 237.47021484 C236.48695896 233.62818368 229.21227255 228.49483285 221.78125 223.37890625 C220.39198092 222.42913236 219.00232897 221.47991828 217.61230469 220.53125 C214.23848358 218.22684473 210.86923067 215.91587049 207.50152588 213.60253906 C205.04950108 211.91955803 202.59336594 210.24263067 200.13671875 208.56640625 C196.38175702 206.00352006 192.63147238 203.43390827 188.8828125 200.86181641 C186.64265408 199.326762 184.39980491 197.79571044 182.15625 196.265625 C172.49890895 189.67648063 162.88582435 183.02665044 153.29516602 176.34082031 C146.28368202 171.45680032 139.2462059 166.61250979 132.18359375 161.80273438 C126.66313711 158.04016037 121.18612114 154.21813234 115.71875 150.37890625 C114.20454995 149.31753302 112.69022968 148.25633129 111.17578125 147.1953125 C110.42393555 146.66848877 109.67208984 146.14166504 108.89746094 145.59887695 C93.45486138 134.78172792 78.00264135 123.97760395 62.44360352 113.32836914 C57.56151918 109.97901016 52.73200413 106.55875467 47.90625 103.12890625 C41.63011638 98.67133175 35.28285512 94.40526878 28.71875 90.37890625 C28.16960937 92.15587891 28.16960937 92.15587891 27.609375 93.96875 C25.32916179 100.80271453 22.36214049 107.35144771 19.46875 113.94140625 C18.87547665 115.30022719 18.28254268 116.65919637 17.68994141 118.01831055 C16.5386452 120.65705001 15.38525603 123.29485493 14.22949219 125.93164062 C13.04854588 128.62636621 11.87021438 131.32216808 10.6953125 134.01953125 C8.29522736 139.52569232 5.87592314 145.02333185 3.453125 150.51953125 C-1.94898836 162.77769345 -7.32194399 175.04808204 -12.67086792 187.32952881 C-23.7199281 212.69757578 -23.7199281 212.69757578 -28.59375 223.81640625 C-29.23183594 225.27820312 -29.23183594 225.27820312 -29.8828125 226.76953125 C-30.27855469 227.67058594 -30.67429687 228.57164062 -31.08203125 229.5 C-31.41372314 230.25724365 -31.74541504 231.0144873 -32.0871582 231.79467773 C-33.7356192 235.36224257 -35.52369815 238.86380255 -37.28125 242.37890625 C-75.89125 242.37890625 -114.50125 242.37890625 -154.28125 242.37890625 C-151.16580463 234.27874828 -148.02875398 226.30338981 -144.53125 218.37890625 C-143.65187299 216.37129989 -142.77297701 214.36348276 -141.89453125 212.35546875 C-141.45705566 211.35676758 -141.01958008 210.35806641 -140.56884766 209.32910156 C-138.59781931 204.81300248 -136.65632523 200.28443813 -134.71875 195.75390625 C-134.34878906 194.88950928 -133.97882813 194.0251123 -133.59765625 193.13452148 C-132.13925785 189.72596142 -130.68211967 186.31686343 -129.22509766 182.90771484 C-124.44154699 171.71790134 -119.62414999 160.54314213 -114.78125 149.37890625 C-109.58197714 137.39275503 -104.41717012 125.3923461 -99.28125 113.37890625 C-92.9451471 98.56228009 -86.58870521 83.75518841 -80.16879272 68.97467041 C-76.8699854 61.37881974 -73.5897861 53.77538627 -70.3359375 46.16015625 C-69.83647362 44.99178978 -69.83647362 44.99178978 -69.32691956 43.79981995 C-67.70913573 40.01467868 -66.09346694 36.22865698 -64.48120117 32.44116211 C-50.76673202 0.27946099 -50.76673202 0.27946099 -36.28125 -5.62109375 C-23.91941416 -9.7417057 -11.13523913 -5.50133838 0 0 Z " fill="#161695" transform="translate(1584.28125,993.62109375)"/>
<path d="M0 0 C1.73951171 -0.00087368 3.47902316 -0.00262765 5.21853322 -0.00517833 C9.96645533 -0.00962388 14.71428621 -0.00168686 19.46219671 0.00837779 C24.59425869 0.0170505 29.72631592 0.01408943 34.85838318 0.01257324 C43.73940554 0.0115268 52.6203984 0.01777819 61.50141335 0.02904892 C74.34171569 0.04533366 87.18200385 0.05051497 100.02231541 0.0530249 C120.85710405 0.05739734 141.69187698 0.0706942 162.5266571 0.08963013 C182.76038027 0.10800061 202.99409916 0.1221514 223.22782898 0.13064575 C224.47596472 0.1311712 225.72410046 0.13169665 227.0100585 0.13223802 C233.27186608 0.13484817 239.53367369 0.13737557 245.79548132 0.13986182 C297.70694204 0.16058027 349.61838572 0.19579351 401.52983093 0.24050903 C399.90032761 4.53085265 397.76798706 8.09333029 395.09233093 11.80300903 C394.65348572 12.41289673 394.2146405 13.02278442 393.76249695 13.65115356 C386.56348596 23.4627807 376.9423828 36.46723054 365.52983093 41.24050903 C363.10400009 41.49186605 363.10400009 41.49186605 360.33909607 41.49384212 C358.75504707 41.50226522 358.75504707 41.50226522 357.13899708 41.51085848 C355.97987655 41.50687738 354.82075602 41.50289629 353.62651062 41.49879456 C352.39424335 41.50247026 351.16197607 41.50614596 349.89236736 41.50993305 C346.46982355 41.518198 343.04748849 41.51753776 339.62495112 41.51320612 C335.93422022 41.51073201 332.24351637 41.51979577 328.55279541 41.52758789 C322.15496865 41.53964038 315.75716681 41.54474125 309.35932922 41.54546928 C300.09603321 41.54679486 290.83279766 41.56190692 281.56952298 41.58096445 C266.52358493 41.6118206 251.47764535 41.63597722 236.4316864 41.65383911 C235.53093986 41.65491179 234.63019331 41.65598447 233.70215142 41.65708966 C223.66141588 41.66890004 213.62067974 41.67910583 203.5799408 41.68753052 C199.94360859 41.69060419 196.30727639 41.69369303 192.67094421 41.69680786 C191.77372029 41.6975732 190.87649636 41.69833854 189.95208383 41.69912707 C174.97242958 41.71222509 159.99281891 41.73688995 145.01319695 41.77055126 C135.77860631 41.79080712 126.544109 41.80113536 117.30949599 41.79856206 C110.97441355 41.79752411 104.63940468 41.80720991 98.30434793 41.82520109 C94.65325174 41.83521018 91.00231837 41.84041319 87.35121346 41.8324337 C83.38371827 41.82386634 79.41649371 41.83855176 75.44902039 41.85523987 C73.73710825 41.84592214 73.73710825 41.84592214 71.99061203 41.83641618 C61.63124363 41.91552009 50.67093651 43.24655925 42.52983093 50.24050903 C39.23840834 53.85856135 37.49894644 57.30479672 35.77983093 61.86550903 C35.26597679 63.20082726 34.75025797 64.53542899 34.23295593 65.86941528 C33.82400085 66.92926636 33.82400085 66.92926636 33.40678406 68.01052856 C31.84970572 71.9699811 30.18795276 75.88504044 28.52983093 79.80300903 C28.22206726 80.53277954 27.91430359 81.26255005 27.59721375 82.01443481 C24.60217686 89.10165422 21.56074421 96.16837806 18.52983093 103.24050903 C113.56983093 103.57050903 208.60983093 103.90050903 306.52983093 104.24050903 C305.50527615 109.36328293 303.89152686 112.89128519 301.46733093 117.42800903 C301.06466003 118.18323853 300.66198914 118.93846802 300.24711609 119.71658325 C296.936928 125.774656 293.20590431 131.14282248 288.52983093 136.24050903 C287.92139343 136.90566528 287.31295593 137.57082153 286.68608093 138.25613403 C279.90548829 145.33412109 272.30487021 150.25586303 262.31314087 150.60965252 C260.30199317 150.62216686 258.29070121 150.61831595 256.27958679 150.60127258 C255.1661087 150.60383586 254.05263062 150.60639913 252.90541077 150.60904008 C249.18501676 150.61397021 245.46503113 150.59749719 241.74467468 150.58108521 C239.07356861 150.58023877 236.40248733 150.58058239 233.73138428 150.58241272 C227.98617854 150.58398276 222.24107533 150.57460187 216.49589539 150.5576992 C208.18943422 150.53327705 199.88302244 150.52550065 191.57652926 150.52173523 C178.09853274 150.51517578 164.6205908 150.49522839 151.1426239 150.46682739 C138.05310844 150.43927369 124.96360783 150.41804653 111.87406921 150.40530396 C111.0666952 150.40451578 110.25932119 150.40372761 109.42748129 150.40291556 C105.37696315 150.39900033 101.32644491 150.39520924 97.27592659 150.39147985 C63.69385512 150.36039972 30.11184973 150.30757775 -3.47016907 150.24050903 C-3.67239389 150.85228469 -3.87461872 151.46406034 -4.08297157 152.09437466 C-4.48390054 153.30311292 -4.48390054 153.30311292 -4.89292908 154.53627014 C-5.1570289 155.3336708 -5.42112873 156.13107145 -5.69323158 156.95263577 C-6.68060186 159.86017737 -7.78622452 162.70794316 -8.93110657 165.55691528 C-9.3960553 166.71707153 -9.86100403 167.87722778 -10.34004211 169.07254028 C-10.84164551 170.31607246 -11.3433575 171.55956084 -11.84516907 172.80300903 C-12.37372527 174.11805111 -12.90212351 175.43315668 -13.43037415 176.74832153 C-22.35558644 198.94796618 -31.39435402 221.1020868 -40.47016907 243.24050903 C-47.85018789 244.02627906 -55.12194056 244.38179182 -62.54121399 244.35403442 C-64.1090715 244.35425346 -64.1090715 244.35425346 -65.70860291 244.35447693 C-69.12263654 244.35378687 -72.53661385 244.34603744 -75.95063782 244.33816528 C-78.33388235 244.33629788 -80.71712726 244.3348755 -83.10037231 244.33387756 C-89.34246397 244.33007781 -95.58453199 244.32026946 -101.82661438 244.30917358 C-108.20844707 244.29890458 -114.59028361 244.29436823 -120.97212219 244.28933716 C-133.47148148 244.27864471 -145.9708233 244.26159912 -158.47016907 244.24050903 C-157.88640831 240.5577525 -157.25027986 237.25997264 -155.83345032 233.80691528 C-155.33748352 232.58391724 -155.33748352 232.58391724 -154.83149719 231.33621216 C-154.48538391 230.50025513 -154.13927063 229.6642981 -153.78266907 228.80300903 C-153.11192012 227.15854957 -152.44135267 225.51401607 -151.77095032 223.86941528 C-151.41009338 222.98866333 -151.04923645 222.10791138 -150.67744446 221.20046997 C-146.30021845 210.46852091 -142.07264688 199.68150912 -137.90766907 188.86550903 C-132.04769979 173.68095975 -126.08959015 158.53600469 -120.11128235 143.3977356 C-117.39311315 136.51375347 -114.68212521 129.62694051 -111.97016907 122.74050903 C-110.88560737 119.98657374 -109.80097987 117.23266439 -108.71626282 114.47879028 C-108.44792633 113.79753586 -108.17958984 113.11628143 -107.90312195 112.41438293 C-106.28978993 108.31911121 -104.67481453 104.22449192 -103.05848694 100.13040161 C-101.7159876 96.72982498 -100.37418305 93.32897449 -99.03266907 89.92800903 C-98.76947876 89.26085876 -98.50628845 88.5937085 -98.23512268 87.90634155 C-95.01806723 79.74837732 -91.82050857 71.58307863 -88.64595032 63.40847778 C-88.16833 62.17870461 -88.16833 62.17870461 -87.68106079 60.92408752 C-86.13534938 56.94275892 -84.59160516 52.96068005 -83.05049133 48.97756958 C-82.48987497 47.53135729 -81.92924729 46.08514938 -81.36860657 44.63894653 C-80.99443352 43.6692115 -80.99443352 43.6692115 -80.61270142 42.67988586 C-78.07038667 36.12739942 -75.63924572 29.95809988 -71.47016907 24.24050903 C-70.87462219 23.40713013 -70.87462219 23.40713013 -70.26704407 22.55691528 C-58.96000203 7.96823174 -38.55821812 3.25045193 -21.22392619 0.65570283 C-14.16147391 -0.12545756 -7.09532492 -0.02672662 0 0 Z " fill="#161695" transform="translate(765.4701690673828,991.7594909667969)"/>
<path d="M0 0 C3.83269143 4.42028175 5.98941704 9.22528738 8.2421875 14.5859375 C8.88423315 16.05130037 9.52754423 17.51610922 10.171875 18.98046875 C14.08570536 27.98032492 17.5837581 37.072977 20.7734375 46.3515625 C21.96144496 49.80499907 23.21057836 53.23115294 24.48876953 56.65209961 C38.47344931 94.08266833 50.92936175 132.07900786 63.21118164 170.0949707 C63.79046467 171.88755281 64.36980949 173.68011494 64.94921875 175.47265625 C65.37056847 176.77638939 65.37056847 176.77638939 65.8004303 178.10646057 C67.31184985 182.76785186 68.85294059 187.41685228 70.44508362 192.05130005 C71.1093233 193.98593238 71.76550444 195.92310737 72.41918945 197.86132812 C73.18058935 200.10937414 73.95736769 202.35231471 74.75463867 204.58789062 C77.40988228 212.51322532 79.64237637 222.32532233 76.02880859 230.24536133 C73.58859192 233.44218523 71.39944626 236.19050413 67.25351942 236.95046759 C64.75914086 237.09103121 62.29354412 237.09958638 59.79533386 237.06695557 C58.36172413 237.07208212 58.36172413 237.07208212 56.89915258 237.07731223 C53.69442683 237.08390445 50.49053735 237.06189232 47.28588867 237.04003906 C44.98961405 237.03891088 42.69333799 237.03954388 40.39706421 237.04180908 C34.15982986 237.04295828 27.92290225 237.01941529 21.68573928 236.99151325 C15.16878925 236.96653409 8.65183244 236.96416034 2.13484192 236.95941162 C-8.80461098 236.94838564 -19.74395043 236.92338879 -30.68334961 236.88769531 C-41.95027097 236.85097144 -53.21716172 236.82266154 -64.48413086 236.80566406 C-65.17878721 236.80461317 -65.87344356 236.80356227 -66.58915011 236.80247954 C-70.07408535 236.79725933 -73.5590208 236.79220451 -77.0439564 236.78723192 C-105.94864963 236.74577441 -134.85322837 236.67503232 -163.7578125 236.5859375 C-165.32060554 232.01262315 -166.51527265 227.46900301 -167.484375 222.73828125 C-167.71318863 221.63680504 -167.71318863 221.63680504 -167.94662476 220.51307678 C-168.2660649 218.96962889 -168.58363193 217.42579225 -168.89941406 215.8815918 C-169.38232443 213.52581847 -169.87440461 211.17208484 -170.3671875 208.81835938 C-170.67763981 207.31261463 -170.98755405 205.80675882 -171.296875 204.30078125 C-171.44371735 203.60170151 -171.59055969 202.90262177 -171.74185181 202.18235779 C-172.47063481 198.57926012 -172.81934136 195.25310194 -172.7578125 191.5859375 C-162.23739658 191.08050136 -151.71692839 190.57616759 -141.19639683 190.07314396 C-136.30839655 189.83939883 -131.4204133 189.60530978 -126.5324707 189.37036133 C-105.61040039 188.3649389 -84.68986982 187.36341021 -63.7578125 186.5859375 C-63.98905823 185.81166412 -64.22030396 185.03739075 -64.45855713 184.23965454 C-68.08083006 172.10733133 -71.68343265 159.97401924 -75.0703125 147.7734375 C-75.94473555 144.64427809 -76.8203532 141.51545502 -77.69628906 138.38671875 C-78.49029863 135.54377003 -79.28094401 132.69997433 -80.06933594 129.85546875 C-81.27108775 125.52492456 -82.48792415 121.19880803 -83.7124939 116.87466431 C-84.19825472 115.15039846 -84.67929099 113.42479413 -85.15542603 111.69784546 C-85.82695887 109.26494978 -86.51509466 106.83731551 -87.20703125 104.41015625 C-87.40477142 103.67897583 -87.6025116 102.94779541 -87.8062439 102.19445801 C-89.02624258 97.99145962 -90.30653954 95.32556385 -93.7578125 92.5859375 C-97.95683352 90.78635706 -101.21593902 92.12885373 -105.32104492 93.54907227 C-109.41676751 95.2918369 -112.79337596 97.84110634 -116.3203125 100.5234375 C-117.09769775 101.099729 -117.87508301 101.67602051 -118.67602539 102.26977539 C-121.04543335 104.03039553 -123.4024245 105.8066227 -125.7578125 107.5859375 C-127.10880432 108.59711708 -128.46033802 109.60757322 -129.8125 110.6171875 C-132.42448663 112.57036833 -135.03186839 114.52950177 -137.63671875 116.4921875 C-148.37389262 124.56907536 -159.22220305 132.495423 -170.1328125 140.3359375 C-176.28547335 144.75978963 -182.32345687 149.29297497 -188.30859375 153.94140625 C-194.86418304 159.00046315 -201.57923555 163.85158081 -208.25537109 168.74951172 C-212.40517783 171.79486257 -216.55061983 174.84613161 -220.6953125 177.8984375 C-221.49590088 178.48778076 -222.29648926 179.07712402 -223.12133789 179.68432617 C-227.37187445 182.81641681 -231.60620198 185.96753865 -235.8203125 189.1484375 C-240.72763477 192.8461117 -245.70533827 196.43879873 -250.6953125 200.0234375 C-256.98002432 204.54110196 -263.15467755 209.1597887 -269.265625 213.91015625 C-275.85105606 218.99320015 -282.59957998 223.86480245 -289.31176758 228.77832031 C-291.69245914 230.41381153 -291.69245914 230.41381153 -293.13705444 232.10671997 C-299.07210523 237.89707355 -305.83054687 237.31439107 -313.6237793 237.26571655 C-315.46013462 237.23508369 -317.29647898 237.20378783 -319.1328125 237.171875 C-321.0270859 237.16067254 -322.92137677 237.15213732 -324.81567383 237.14614868 C-329.78091139 237.12333286 -334.74508159 237.06447277 -339.7098999 236.9979248 C-344.78431767 236.93634527 -349.85890935 236.9091003 -354.93359375 236.87890625 C-364.87546677 236.81472197 -374.81655058 236.71243101 -384.7578125 236.5859375 C-379.28814054 231.08368947 -379.28814054 231.08368947 -376.41015625 228.7890625 C-375.5123645 228.07097412 -375.5123645 228.07097412 -374.59643555 227.33837891 C-373.96906494 226.84257324 -373.34169434 226.34676758 -372.6953125 225.8359375 C-372.03120361 225.30790527 -371.36709473 224.77987305 -370.68286133 224.23583984 C-365.86248716 220.41910772 -360.96744685 216.71262977 -356.03125 213.046875 C-351.99919559 210.03482684 -348.03788087 206.93211419 -344.0703125 203.8359375 C-338.07429483 199.15693498 -332.05709887 194.50837046 -326.0078125 189.8984375 C-320.22548828 185.49017035 -314.48387121 181.03513094 -308.77539062 176.53173828 C-304.51960809 173.17659243 -300.23329957 169.86317472 -295.93261719 166.56567383 C-291.19107228 162.92702877 -286.47325716 159.25832087 -281.7578125 155.5859375 C-273.43233946 149.10360776 -265.07444611 142.66519602 -256.703125 136.2421875 C-250.37090886 131.37854019 -244.05790973 126.49113551 -237.7578125 121.5859375 C-229.43224545 115.10372724 -221.07444732 108.66519695 -212.703125 102.2421875 C-211.66929687 101.448125 -210.63546875 100.6540625 -209.5703125 99.8359375 C-209.04147461 99.42980225 -208.51263672 99.02366699 -207.96777344 98.60522461 C-204.84890874 96.20627484 -201.74054961 93.79447592 -198.640625 91.37109375 C-190.6783349 85.14922401 -182.67278867 78.99950242 -174.5703125 72.9609375 C-167.32638853 67.55960766 -160.22149131 62.01935348 -153.19140625 56.34375 C-147.79205271 51.98977424 -142.27295357 47.79151941 -136.7578125 43.5859375 C-128.08779771 36.97090722 -119.42731403 30.3453716 -110.8203125 23.6484375 C-110.07869873 23.07319336 -109.33708496 22.49794922 -108.57299805 21.90527344 C-104.70475368 18.90040548 -100.85931342 15.87135809 -97.04296875 12.80078125 C-80.40607697 -0.51774758 -63.74794024 -7.60960185 -42.7578125 -11.4140625 C-41.9946875 -11.57003906 -41.2315625 -11.72601562 -40.4453125 -11.88671875 C-25.93906213 -14.27695319 -10.53882363 -10.14484892 0 0 Z " fill="#161695" transform="translate(1333.7578125,999.4140625)"/>
<path d="M0 0 C39.93 0 79.86 0 121 0 C119.87501936 6.74988385 119.87501936 6.74988385 118.37695312 10.20336914 C118.04570435 10.97600601 117.71445557 11.74864288 117.37316895 12.54469299 C117.01283569 13.36654587 116.65250244 14.18839874 116.28125 15.03515625 C115.9044812 15.90909531 115.5277124 16.78303436 115.13952637 17.68345642 C113.93258613 20.47921695 112.71653398 23.27090264 111.5 26.0625 C110.71292222 27.88059133 109.92645859 29.69894867 109.140625 31.51757812 C107.5596424 35.17442487 105.9757131 38.8299739 104.38964844 42.48461914 C98.41469798 56.26260598 92.52556353 70.07482933 86.75 83.9375 C82.36843266 94.42978481 77.91034951 104.88580708 73.375 115.3125 C69.18735778 124.94937113 65.00327259 134.58750932 60.875 144.25 C60.42560059 145.29067627 59.97620117 146.33135254 59.51318359 147.40356445 C52.36666997 163.23145181 52.36666997 163.23145181 53.1875 179.9375 C55.26577568 183.44906926 56.87663046 185.35246391 60.80732155 186.55115509 C63.28065632 187.05745081 65.62187235 187.20918939 68.14535522 187.30651855 C69.19318995 187.34702583 70.24102467 187.38753311 71.32061195 187.42926788 C72.47341841 187.4674337 73.62622486 187.50559952 74.81396484 187.54492188 C76.0451473 187.58681389 77.27632977 187.6287059 78.54482079 187.67186737 C94.77575155 188.17532564 111.01156282 188.20999846 127.24898386 188.27047992 C131.93707262 188.28899125 136.62513478 188.31280444 141.3132019 188.33607483 C149.2966007 188.37512204 157.28000746 188.41146566 165.26342773 188.4458313 C184.95600161 188.53083484 204.64850435 188.63067813 224.34100819 188.73042035 C227.44689947 188.74610176 230.55279152 188.76162435 233.65868378 188.77711296 C270.27326086 188.96020351 306.88655414 189.22191195 343.5 189.5625 C344.70755196 189.57366852 345.91510391 189.58483704 347.15924835 189.59634399 C361.10622021 189.72546114 375.05314305 189.85900786 389 190 C384.85703407 207.4734336 371.61145293 232.41631801 356.40933824 242.94608867 C350.87690454 245.36612852 344.42199224 244.67732604 338.47775269 244.62818909 C336.87642088 244.63323611 335.27509472 244.64046614 333.67378151 244.64968723 C329.27929257 244.6686157 324.88536015 244.65637235 320.49088526 244.6389643 C315.74903585 244.62559582 311.00726815 244.64102585 306.26542664 244.65278625 C296.97679495 244.67117361 287.68837352 244.66264208 278.39974837 244.64469803 C270.84757029 244.63067223 263.29544929 244.6267792 255.74325943 244.6301403 C254.66834573 244.63061775 253.59343204 244.63109519 252.4859452 244.6315871 C250.30219743 244.63261344 248.11844968 244.6336688 245.93470193 244.63475286 C226.61886082 244.64332279 207.30312112 244.62663818 187.98730469 244.59692383 C169.25646702 244.56810984 150.52577561 244.56099113 131.79492188 244.57641602 C111.39401792 244.59319322 90.99318343 244.59719499 70.59227765 244.57970566 C68.41473016 244.57786131 66.23718267 244.57602659 64.05963516 244.57420158 C62.98829044 244.57328949 61.91694572 244.5723774 60.813136 244.57143768 C53.27599469 244.56583988 45.73888736 244.56913263 38.20174789 244.57574654 C29.00739996 244.58349432 19.81319579 244.5766759 10.61887674 244.5515715 C5.93067901 244.53910718 1.24270472 244.5328924 -3.44550133 244.54411316 C-7.74398385 244.55420644 -12.04202229 244.54558836 -16.34045111 244.52253198 C-17.88890769 244.51740287 -19.43740455 244.51887953 -20.9858432 244.52792663 C-37.58690839 244.61679193 -51.02069891 240.61811502 -63.375 229.1875 C-73.51532312 218.52662641 -73.52085742 206.54091957 -73.33203125 192.6484375 C-73.08080721 185.24404833 -71.62259706 179.0563356 -68.86425781 172.19921875 C-67.87205957 169.67443859 -66.97675066 167.12479938 -66.0859375 164.5625 C-54.75174238 132.10428468 -41.8047894 100.09834413 -28.50292969 68.40356445 C-25.97683351 62.37741264 -23.52442793 56.32755952 -21.125 50.25 C-16.51609563 38.59901546 -11.52064058 27.11183325 -6.54223633 15.61523438 C-4.32784987 10.4243788 -2.17055637 5.20933528 0 0 Z " fill="#161695" transform="translate(73,992)"/>
<path d="M0 0 C38.61 0 77.22 0 117 0 C113.62585034 10.12244898 113.62585034 10.12244898 112.23828125 13.55078125 C111.92310547 14.33388672 111.60792969 15.11699219 111.28320312 15.92382812 C110.96287109 16.71208984 110.64253906 17.50035156 110.3125 18.3125 C109.68343117 19.87102814 109.05453541 21.42962614 108.42578125 22.98828125 C107.87833252 24.34276367 107.87833252 24.34276367 107.31982422 25.72460938 C104.59073619 32.49735169 101.88576145 39.27978148 99.17538452 46.06002808 C97.06039504 51.35022 94.94416364 56.63991517 92.828125 61.9296875 C91.91324339 64.21687613 90.99836718 66.50406692 90.08349609 68.79125977 C38.43554687 197.91113282 38.43554687 197.91113282 37.64750671 199.88121033 C37.12324453 201.19188102 36.5990033 202.5025601 36.07478333 203.81324768 C34.79798827 207.00549737 33.52085615 210.19761126 32.24291992 213.3894043 C29.98876223 219.02085573 27.73852468 224.65373215 25.50390625 230.29296875 C25.12975586 231.2351123 24.75560547 232.17725586 24.37011719 233.14794922 C23.68501759 234.87398268 23.00194415 236.60082231 22.32128906 238.32861328 C20.11198338 243.88801662 20.11198338 243.88801662 19 245 C17.51983606 245.09568576 16.03511727 245.12188268 14.55186462 245.12025452 C13.11098228 245.12231651 13.11098228 245.12231651 11.64099121 245.12442017 C10.57860229 245.12082489 9.51621338 245.11722961 8.42163086 245.11352539 C6.75355125 245.11374443 6.75355125 245.11374443 5.05177307 245.1139679 C1.35611049 245.11326821 -2.33950241 245.1054732 -6.03515625 245.09765625 C-8.58963493 245.09579227 -11.14411397 245.09436827 -13.69859314 245.09336853 C-19.7476171 245.08993344 -25.79661955 245.08204264 -31.84563488 245.07201904 C-38.73065154 245.06085683 -45.61566904 245.05534718 -52.50069249 245.05032361 C-66.6671383 245.03986 -80.83356817 245.02226123 -95 245 C-94.52693103 243.56961603 -94.05289038 242.1395534 -93.57844543 240.70962524 C-93.31456937 239.91322443 -93.0506933 239.11682362 -92.77882099 238.29628944 C-91.7749589 235.33648488 -90.65964572 232.43018586 -89.51171875 229.5234375 C-89.05563232 228.36553711 -88.5995459 227.20763672 -88.12963867 226.01464844 C-87.41578003 224.21302246 -87.41578003 224.21302246 -86.6875 222.375 C-86.19032356 221.11498282 -85.69333588 219.85489115 -85.1965332 218.59472656 C-82.71460501 212.30462565 -80.21274882 206.02282552 -77.6875 199.75 C-75.81737387 195.09580074 -74.01834151 190.41958888 -72.26953125 185.71875 C-68.90268792 176.70739989 -65.45721825 167.72699427 -62 158.75 C-61.51811218 157.49792252 -61.51811218 157.49792252 -61.02648926 156.22055054 C-51.7895798 132.2230144 -42.4752293 108.25594928 -33.05297852 84.33056641 C-29.07096416 74.2082962 -25.14422724 64.06493072 -21.23388672 53.91479492 C-18.5587986 46.98245278 -15.83607376 40.0720519 -13.065979 33.17733765 C-10.80349841 27.53516792 -8.68620937 21.85029159 -6.58984375 16.14453125 C-4.50805828 10.71756716 -2.23559723 5.36543335 0 0 Z " fill="#161695" transform="translate(561,991)"/>
</svg>
