<?xml version="1.0" encoding="UTF-8"?>
<svg version="1.1" xmlns="http://www.w3.org/2000/svg" width="2000" height="896">
<path d="M0 0 C3.3 0 6.6 0 10 0 C10.43158872 4.98010526 10.85867415 9.96056956 11.28173828 14.94140625 C11.42603314 16.63291641 11.57152046 18.32432531 11.71826172 20.015625 C11.9299596 22.45807127 12.13725048 24.90085938 12.34375 27.34375 C12.40937134 28.08991577 12.47499268 28.83608154 12.54260254 29.6048584 C12.94426949 34.42082094 13.05730714 39.16709768 13 44 C13.96292969 43.97679687 14.92585937 43.95359375 15.91796875 43.9296875 C26.04659001 43.77102422 36.08260344 44.23378991 46.1875 44.9375 C47.44006592 45.02435059 48.69263184 45.11120117 49.9831543 45.20068359 C55.69283671 45.61706672 61.34940826 46.07079158 67 47 C79.9440743 121.13708148 81.88341176 196.93151581 84 272 C85.12494873 272.14622803 86.24989746 272.29245605 87.40893555 272.44311523 C91.59308024 272.9874561 95.77692906 273.53404261 99.96069336 274.08129883 C101.76953297 274.3175865 103.57845165 274.55326974 105.38745117 274.78833008 C107.99158546 275.12681744 110.59542521 275.46749631 113.19921875 275.80859375 C114.00461594 275.91280136 114.81001312 276.01700897 115.63981628 276.12437439 C119.45962999 276.62685166 123.23249249 277.17781826 127 278 C127 281.3 127 284.6 127 288 C121.8596267 288.71813196 116.71843815 289.43000114 111.57641602 290.13623047 C109.8294367 290.37704823 108.0826869 290.61953745 106.33618164 290.86376953 C103.81716321 291.21572819 101.29736437 291.56154945 98.77734375 291.90625 C98.00414291 292.0156189 97.23094208 292.12498779 96.43431091 292.2376709 C91.90893314 292.84964523 87.56672845 293.10577252 83 293 C83.01160156 294.29164063 83.02320313 295.58328125 83.03515625 296.9140625 C84.04361332 459.46844438 84.04361332 459.46844438 67 518 C63.81118272 519.59440864 60.32025596 519.64312637 56.8125 520 C55.96204102 520.08685059 55.11158203 520.17370117 54.23535156 520.26318359 C40.87039527 521.50811923 27.41279232 521.6813879 14 522 C12.22268428 536.63449323 11.06259337 551.29794448 10 566 C6.7 566 3.4 566 0 566 C-0.48073706 562.2085266 -0.95963098 558.41683507 -1.4375 554.625 C-1.57220703 553.56410156 -1.70691406 552.50320313 -1.84570312 551.41015625 C-2.2400628 548.27451593 -2.62403772 545.13789728 -3 542 C-3.15879639 540.67887207 -3.15879639 540.67887207 -3.32080078 539.33105469 C-3.96387872 533.535414 -4.11161658 527.82886606 -4 522 C-4.86987549 521.98018066 -5.73975098 521.96036133 -6.63598633 521.93994141 C-49.23610617 520.92129794 -49.23610617 520.92129794 -58 518 C-60.23713478 507.44234273 -61.51197256 496.85010775 -62.75134277 486.13543701 C-63.01696385 483.8543166 -63.28809729 481.57388808 -63.55957031 479.29345703 C-70.89174894 417.33100857 -73.29727133 355.34923198 -73 293 C-74.13767822 293.0218335 -75.27535645 293.04366699 -76.44750977 293.06616211 C-80.97809275 293.06361282 -85.35778069 292.56388796 -89.83984375 291.94140625 C-90.64740616 291.8327977 -91.45496857 291.72418915 -92.28700256 291.61228943 C-93.97724838 291.38366758 -95.66714354 291.15243921 -97.35668945 290.91870117 C-99.95365629 290.56027012 -102.55187094 290.21220901 -105.15039062 289.86523438 C-106.79695818 289.64123559 -108.44344572 289.41664769 -110.08984375 289.19140625 C-110.86891586 289.08719864 -111.64798798 288.98299103 -112.45066833 288.87562561 C-117.88473581 288.11526419 -117.88473581 288.11526419 -119 287 C-119.14115161 284.32941149 -119.04247107 281.67567762 -119 279 C-114.07613119 277.15084863 -109.35375346 276.35737418 -104.171875 275.7109375 C-103.34165833 275.60278717 -102.51144165 275.49463684 -101.65606689 275.38320923 C-99.02139788 275.04154487 -96.38573615 274.70832043 -93.75 274.375 C-91.96347427 274.14374921 -90.1770151 273.91198365 -88.390625 273.6796875 C-75.38029153 272 -75.38029153 272 -73 272 C-73.00523682 270.91211182 -73.01047363 269.82422363 -73.01586914 268.70336914 C-73.33350394 195.46506666 -72.98655209 118.99071497 -58 47 C-50.6682025 46.31581841 -43.33477208 45.65148652 -36 45 C-34.69804688 44.88269531 -33.39609375 44.76539063 -32.0546875 44.64453125 C-22.69861863 43.88144762 -13.37918912 43.90429399 -4 44 C-4.02501587 43.17495972 -4.02501587 43.17495972 -4.05053711 42.33325195 C-4.17765041 34.54775944 -3.40177487 26.9205396 -2.5625 19.1875 C-2.36043945 17.24327148 -2.36043945 17.24327148 -2.15429688 15.25976562 C-1.05434005 4.87724636 -1.05434005 4.87724636 0 0 Z M-39 71 C-40.23287035 76.54791659 -41.30155347 81.54765948 -41.9296875 87.109375 C-42.04234955 88.1036274 -42.04234955 88.1036274 -42.1572876 89.1179657 C-42.40396037 91.32790355 -42.64080867 93.53870584 -42.875 95.75 C-42.95893005 96.5360965 -43.04286011 97.32219299 -43.1293335 98.1321106 C-49.17374411 155.27958697 -50.97534532 212.5776853 -52 270 C-38.64491398 269.25368637 -25.32592196 268.14665686 -12 267 C-11.99191315 266.33508545 -11.98382629 265.6701709 -11.97549438 264.98510742 C-11.5078861 227.11084318 -10.64048892 189.2852347 -9.13537598 151.43579102 C-8.90412835 145.56681384 -8.68287537 139.69746033 -8.4609375 133.828125 C-7.66669296 112.8843581 -6.8406539 91.94195341 -6 71 C-16.89 71 -27.78 71 -39 71 Z M15 71 C15 78.53751159 15.08360333 85.89047196 15.5859375 93.3828125 C15.71322632 95.41905673 15.83964547 97.45535546 15.96533203 99.49169922 C16.03222229 100.56643494 16.09911255 101.64117065 16.16802979 102.74847412 C17.62075537 126.44833608 18.51167867 150.14064196 19.125 173.875 C19.14519699 174.65561798 19.16539398 175.43623596 19.186203 176.24050903 C19.96374188 206.49011113 20.54185716 236.74394878 21 267 C25.58952232 267.43076895 30.17936392 267.85789745 34.76953125 268.28173828 C36.32919332 268.42625921 37.88876554 268.57175351 39.44824219 268.71826172 C41.69703297 268.92935511 43.94612964 269.13688112 46.1953125 269.34375 C46.8861795 269.40937134 47.57704651 269.47499268 48.28884888 269.54260254 C52.20682881 269.89902702 56.06641908 270.06422173 60 270 C60.31995071 223.86524538 60.31995071 223.86524538 58.32080078 177.78613281 C58.02394979 173.43603221 57.7636248 169.08427059 57.50917053 164.73150635 C56.35627087 145.01637157 54.99136928 125.33723861 53 105.6875 C52.88341034 104.5143071 52.88341034 104.5143071 52.76446533 103.31741333 C51.67006828 92.43060846 50.00065818 81.75922139 48 71 C37.11 71 26.22 71 15 71 Z M-52 295 C-50.96301782 354.69813647 -49.14828961 414.25903413 -42.375 473.625 C-42.27085785 474.55162445 -42.1667157 475.4782489 -42.05941772 476.43295288 C-41.76597572 479.01132612 -41.46007142 481.58783184 -41.1484375 484.1640625 C-41.06208542 484.92069687 -40.97573334 485.67733124 -40.88676453 486.45689392 C-40.44054749 489.99738067 -40.01661471 491.97507794 -38 495 C-35.51659097 495.26727014 -33.28527932 495.34866334 -30.8046875 495.29296875 C-29.74352219 495.28660149 -29.74352219 495.28660149 -28.66091919 495.28010559 C-26.39856095 495.26329547 -24.13708952 495.22564128 -21.875 495.1875 C-20.34246077 495.17245607 -18.8099076 495.15876716 -17.27734375 495.14648438 C-13.51788682 495.11338462 -9.75909382 495.06158825 -6 495 C-6.02538345 494.37163239 -6.05076691 493.74326477 -6.07691956 493.09585571 C-6.8114789 474.88640245 -7.51700734 456.67599859 -8.19506836 438.46435547 C-8.28368462 436.08561173 -8.37230773 433.70686824 -8.4609375 431.328125 C-8.50515335 430.1397403 -8.5493692 428.95135559 -8.59492493 427.72695923 C-8.85473103 420.77650517 -9.12496782 413.82656804 -9.40516663 406.87690735 C-10.8509183 370.92061016 -11.56385481 334.98034858 -12 299 C-14.81053446 297.59473277 -17.3400413 297.68940039 -20.4765625 297.5 C-21.78753906 297.4175 -23.09851563 297.335 -24.44921875 297.25 C-25.84112595 297.16633523 -27.23305327 297.08300451 -28.625 297 C-30.66926048 296.87619336 -32.71341473 296.75106814 -34.75741577 296.62304688 C-36.62797124 296.50616071 -38.49879462 296.39358531 -40.36962891 296.28125 C-44.27230651 295.97890403 -48.1199333 295.51299601 -52 295 Z M39.7644043 296.79956055 C37.6759024 296.93827026 35.58702553 297.06986185 33.49804688 297.20117188 C32.18255859 297.28818359 30.86707031 297.37519531 29.51171875 297.46484375 C28.30990967 297.543396 27.10810059 297.62194824 25.86987305 297.70288086 C23.05940546 297.82332733 23.05940546 297.82332733 21 299 C20.98018066 300.30888184 20.96036133 301.61776367 20.93994141 302.96630859 C20.48113047 332.70967492 19.89347967 362.45048829 19.125 392.1875 C19.09470451 393.36138212 19.09470451 393.36138212 19.063797 394.55897903 C18.4450613 418.32711036 17.48151039 442.0457175 15.96533203 465.77612305 C15.90134216 466.7881076 15.83735229 467.80009216 15.77142334 468.84274292 C15.65411819 470.67394229 15.53291691 472.50489989 15.40631104 474.33547974 C14.95477033 481.26929815 15 488.0007047 15 495 C25.89 494.67 36.78 494.34 48 494 C50.36910557 481.36477031 52.13055661 468.78689441 53.4375 456 C53.54194427 454.98033142 53.64638855 453.96066284 53.7539978 452.91009521 C58.99948487 400.74275719 60.80667426 348.40593196 60 296 C53.2284377 295.94419786 46.51604394 296.34773918 39.7644043 296.79956055 Z " fill="#000000" transform="translate(893,0)"/>
<path d="M0 0 C15.51 0 31.02 0 47 0 C47.99 0.99 48.98 1.98 50 3 C50 3.66 50 4.32 50 5 C50.99 5.33 51.98 5.66 53 6 C54.40234375 7.390625 54.40234375 7.390625 55.9375 9.25 C59.15878139 13.0501586 62.48476557 16.72651778 65.875 20.375 C70.17476943 25.01298341 74.42852857 29.68748462 78.6484375 34.3984375 C81.92520544 38.02356615 85.24629759 41.6072281 88.57617188 45.18359375 C91.23350681 48.04757001 93.8369762 50.94822154 96.3984375 53.8984375 C99.99759631 58.03051261 103.73195619 62.0221888 107.5 66 C111.86611525 70.60917734 116.13827605 75.27204467 120.29931641 80.06738281 C123.46340836 83.66298314 126.77146483 87.12754952 130.07617188 90.59375 C134 94.78048949 134 94.78048949 134 97 C134.66 97 135.32 97 136 97 C137.3046875 98.29296875 137.3046875 98.29296875 138.875 100.1875 C142.10065305 103.9831749 145.4238893 107.66322694 148.8125 111.3125 C162.51994491 126.11130881 162.51994491 126.11130881 168.3125 132.8125 C173.75003605 138.98732908 179.40144152 144.97078318 185 151 C185.33 101.17 185.66 51.34 186 0 C197.88 0 209.76 0 222 0 C222 62.37 222 124.74 222 189 C206.82 189 191.64 189 176 189 C173.69 186.36 171.38 183.72 169 181 C167.09157117 178.90787214 165.17833608 176.82342292 163.25 174.75 C162.20293881 173.61996415 161.15606797 172.48975191 160.109375 171.359375 C159.58923828 170.79798828 159.06910156 170.23660156 158.53320312 169.65820312 C156.18018613 167.1133478 153.83982965 164.55697534 151.5 162 C146.18817766 156.19876736 140.85405553 150.41830761 135.51611328 144.64111328 C133.00985896 141.92822414 130.50499554 139.21405141 128 136.5 C127.00000676 135.41666043 126.00000676 134.33332709 125 133.25 C111 118.08333333 97 102.91666667 83 87.75 C82.50491943 87.21366943 82.00983887 86.67733887 81.49975586 86.12475586 C80.50054262 85.04226129 79.50135638 83.95974179 78.50219727 82.87719727 C75.99038165 80.15582492 73.47808667 77.43489805 70.96484375 74.71484375 C66.1336941 69.48524877 61.30814507 64.2507612 56.5 59 C52.46675587 54.59635589 48.42476555 50.20095562 44.375 45.8125 C43.85357422 45.24724609 43.33214844 44.68199219 42.79492188 44.09960938 C40.43109986 41.51773831 40.43109986 41.51773831 38 39 C37.67 88.5 37.34 138 37 189 C24.79 189 12.58 189 0 189 C0 126.63 0 64.26 0 0 Z " fill="#000000" transform="translate(443,703)"/>
<path d="M0 0 C0.88600891 0.00054382 1.77201782 0.00108765 2.68487549 0.00164795 C16.66753054 0.04109616 30.10953742 0.75420998 43.6875 4.375 C44.46029297 4.57867188 45.23308594 4.78234375 46.02929688 4.9921875 C64.0877549 9.96324986 81.54852677 18.01792477 95.6875 30.375 C96.64914062 31.17679688 97.61078125 31.97859375 98.6015625 32.8046875 C114.60527134 46.60402873 125.00468997 65.57436694 128.6875 86.375 C129.95096495 104.99585929 128.50764811 121.67618026 119.6875 138.375 C119.20796875 139.32632813 118.7284375 140.27765625 118.234375 141.2578125 C113.61665647 149.84318238 107.54615402 156.55382496 100.6875 163.375 C99.9346875 164.1278125 99.181875 164.880625 98.40625 165.65625 C86.3708319 176.97313568 71.22440087 184.63714445 55.75 190 C54.97132568 190.27730957 54.19265137 190.55461914 53.39038086 190.84033203 C37.30887934 196.18130911 20.95456873 198.04760532 4.08569336 197.89648438 C1.25352194 197.87502668 -1.57610702 197.89644653 -4.40820312 197.921875 C-21.24378244 197.94830134 -38.17997989 195.83045271 -54.125 190.1875 C-54.97698975 189.89343262 -55.82897949 189.59936523 -56.70678711 189.29638672 C-70.22070817 184.44562284 -82.26700164 177.53701743 -93.3125 168.375 C-94.18390625 167.65570312 -95.0553125 166.93640625 -95.953125 166.1953125 C-112.14468284 152.23878565 -124.45695056 132.83476546 -127.125 111.3125 C-127.21880498 109.66815386 -127.2779892 108.02165801 -127.3125 106.375 C-127.35117188 105.22515625 -127.38984375 104.0753125 -127.4296875 102.890625 C-127.90071553 77.24576532 -119.34916133 56.00703348 -101.77636719 37.50878906 C-82.61531606 17.82650296 -57.86722083 7.62617936 -31.3125 2.375 C-30.4867749 2.19694824 -29.6610498 2.01889648 -28.81030273 1.83544922 C-19.24325339 -0.02978786 -9.70940998 -0.02234747 0 0 Z M-72.71875 53.83203125 C-84.54082722 67.33430096 -91.15394576 83.99387705 -90.5859375 102.0390625 C-88.77493757 124.1332617 -78.97567428 139.55110695 -62.4375 153.75 C-39.92196722 170.88059797 -9.45311481 175.15424002 18 171.625 C39.32240395 168.04203435 57.16307892 160.58841432 72.6875 145.375 C73.38746094 144.71113281 74.08742188 144.04726563 74.80859375 143.36328125 C86.46251561 131.43675303 91.62263562 115.26840696 92.0625 98.875 C91.53367321 78.41997973 83.1662644 62.42279285 68.6875 48.3125 C62.04753321 42.44827342 54.57282135 38.33822355 46.6875 34.375 C45.84832031 33.94316406 45.00914062 33.51132812 44.14453125 33.06640625 C7.40991049 16.35703008 -44.6799625 25.20151609 -72.71875 53.83203125 Z " fill="#000000" transform="translate(1294.3125,698.625)"/>
<path d="M0 0 C12.21 0 24.42 0 37 0 C40.9890956 5.12883721 44.88929186 10.15074696 48.625 15.4375 C49.48387208 16.64879425 50.34327446 17.85971262 51.203125 19.0703125 C51.65365234 19.70485352 52.10417969 20.33939453 52.56835938 20.99316406 C55.151138 24.61363478 57.76579183 28.21105774 60.375 31.8125 C67.15735749 41.18661945 73.82525405 50.63922275 80.47949219 60.10449219 C88.23495164 71.13186598 96.08877162 82.08391336 104 93 C110.87585154 102.48745094 117.72014719 111.99315045 124.4609375 121.57714844 C128.2914607 127.01557694 132.1668586 132.42054842 136.0625 137.8125 C136.61099609 138.57175781 137.15949219 139.33101562 137.72460938 140.11328125 C140.12472917 143.42959195 142.54348793 146.72465058 145 150 C145.495 75.75 145.495 75.75 146 0 C155.24 0 164.48 0 174 0 C174 62.37 174 124.74 174 189 C162.12 189 150.24 189 138 189 C130.50661312 181.50661312 130.50661312 181.50661312 128.01513672 175.25341797 C126.2893937 171.42258391 123.67080584 168.32726823 121.0625 165.0625 C120.04734523 163.73146494 119.03693429 162.39679876 118.03125 161.05859375 C117.52980469 160.3919873 117.02835938 159.72538086 116.51171875 159.03857422 C113.4522382 154.91282121 110.5170244 150.69936094 107.56835938 146.49414062 C102.33284491 139.03132558 96.98974471 131.64808246 91.64111328 124.26611328 C88.92351827 120.513552 86.21205527 116.75656581 83.5 113 C82.41669638 111.49997854 81.33336304 109.99997854 80.25 108.5 C60.75 81.5 60.75 81.5 59.1237793 79.24829102 C58.04453876 77.75397045 56.96527458 76.25966696 55.88598633 74.76538086 C53.11483531 70.9286279 50.34414313 67.09154488 47.57421875 63.25390625 C47.00703125 62.46822266 46.43984375 61.68253906 45.85546875 60.87304688 C44.79150964 59.39920188 43.7276927 57.92525425 42.6640625 56.45117188 C38.45683647 50.6236695 34.22759002 44.81293628 30 39 C29.67 88.5 29.34 138 29 189 C19.43 189 9.86 189 0 189 C0 126.63 0 64.26 0 0 Z " fill="#000000" transform="translate(1826,703)"/>
<path d="M0 0 C0.83413925 -0.00979385 1.6682785 -0.01958771 2.5276947 -0.02967834 C37.25796253 -0.35345437 72.5947249 3.0668369 101.09375 25.23828125 C102.47464233 26.86576149 103.8210786 28.52484521 105.09375 30.23828125 C98.80614063 34.20979366 92.47314384 38.08413606 86.03125 41.80078125 C85.07669922 42.38408203 84.12214844 42.96738281 83.13867188 43.56835938 C76.25292999 47.48881283 76.25292999 47.48881283 72.99267578 46.78417969 C71.16015625 45.7578125 71.16015625 45.7578125 68.09375 43.23828125 C67.3925 42.74585938 66.69125 42.2534375 65.96875 41.74609375 C65.35 41.28976562 64.73125 40.8334375 64.09375 40.36328125 C42.80599916 26.03847446 12.64535332 24.0808015 -12.0637207 28.10986328 C-15.04764185 28.702594 -17.97329819 29.43180566 -20.90625 30.23828125 C-22.03417969 30.53992188 -23.16210938 30.8415625 -24.32421875 31.15234375 C-35.36681921 34.33696241 -45.65675908 38.3420177 -54.90625 45.23828125 C-55.71835937 45.82351563 -56.53046875 46.40875 -57.3671875 47.01171875 C-70.89720866 57.21127316 -80.3053547 71.60877346 -83.90625 88.23828125 C-84.3232508 92.18654533 -84.3836503 96.08291817 -84.34375 100.05078125 C-84.33617676 101.10668457 -84.32860352 102.16258789 -84.32080078 103.25048828 C-84.06261726 115.49064843 -81.02171506 125.1647015 -73.90625 135.23828125 C-73.28105469 136.13289062 -72.65585937 137.0275 -72.01171875 137.94921875 C-57.44485553 157.24558301 -33.17093593 166.62727098 -9.90625 170.23828125 C17.38472382 173.66541074 45.82166349 170.92028025 69.09375 155.23828125 C71.51480007 153.11711956 73.81985119 150.95660449 76.05859375 148.64453125 C78.09375 147.23828125 78.09375 147.23828125 80.3359375 147.2578125 C84.19003119 148.62803561 87.69372528 150.47201378 91.28125 152.42578125 C92.03140381 152.82853271 92.78155762 153.23128418 93.55444336 153.64624023 C99.16701878 156.68021188 104.68629126 159.8503157 110.09375 163.23828125 C105.4691338 174.45173236 89.42505936 180.96107508 78.8293457 185.37231445 C57.23417695 194.08672137 36.44149308 197.78686458 13.21557617 197.68432617 C10.29338925 197.6758166 7.37316786 197.70472441 4.45117188 197.73632812 C-14.67117081 197.80686994 -32.89790737 194.68874852 -50.90625 188.23828125 C-52.1334375 187.80902344 -53.360625 187.37976563 -54.625 186.9375 C-69.27299145 181.4752763 -82.16546143 173.52958975 -93.90625 163.23828125 C-94.9375 162.45453125 -95.96875 161.67078125 -97.03125 160.86328125 C-111.65895388 147.50755162 -124.0415442 127.12063256 -125.01391602 107.01171875 C-125.71870746 80.25817778 -118.59132341 59.26375823 -100.30078125 39.41015625 C-75.02336593 13.31274016 -35.88467664 0.34891712 0 0 Z " fill="#000000" transform="translate(904.90625,698.76171875)"/>
<path d="M0 0 C9.57 0 19.14 0 29 0 C29.33 53.79 29.66 107.58 30 163 C59.24500426 162.96038326 59.24500426 162.96038326 88.48999023 162.90991211 C94.1348877 162.90539551 94.1348877 162.90539551 96.77406311 162.90455627 C98.62485494 162.90301656 100.47564574 162.89949107 102.32643127 162.89442444 C105.12315627 162.88714828 107.91981975 162.88609254 110.71655273 162.88647461 C111.96183196 162.88107745 111.96183196 162.88107745 113.23226833 162.87557125 C118.88597366 162.88597366 118.88597366 162.88597366 120 164 C120 172.25 120 180.5 120 189 C80.4 189 40.8 189 0 189 C0 126.63 0 64.26 0 0 Z " fill="#000000" transform="translate(1547,703)"/>
<path d="M0 0 C9.24 0 18.48 0 28 0 C29 1 29 1 29.12304783 3.65306187 C29.12166514 5.44364474 29.12166514 5.44364474 29.12025452 7.270401 C29.12110894 7.93279091 29.12196337 8.59518082 29.12284368 9.27764314 C29.12450033 11.5133287 29.11897414 13.74894042 29.11352539 15.98461914 C29.11324353 17.58080544 29.11340123 19.17699187 29.1139679 20.7731781 C29.11425592 25.12009895 29.10835835 29.46699244 29.10139394 33.81390691 C29.09516128 38.35163947 29.09455667 42.88937259 29.09336853 47.42710876 C29.09025495 56.0260784 29.08204122 64.62503539 29.07201904 73.22399944 C29.06085872 83.01101728 29.05534766 92.79803571 29.05032361 102.58505833 C29.03985862 122.72337929 29.02225868 142.86168885 29 163 C30.12530624 162.99777939 31.25061249 162.99555878 32.41001892 162.99327087 C42.9906144 162.97304056 53.57120597 162.9580284 64.15181637 162.94818783 C69.59202312 162.94295872 75.03221431 162.93586057 80.47241211 162.92456055 C85.71785702 162.91373265 90.96328692 162.90772338 96.20874214 162.90512276 C98.21470946 162.90326833 100.22067592 162.89964738 102.22663689 162.89426994 C105.02602824 162.88706081 107.82535679 162.886009 110.62475586 162.88647461 C111.88171265 162.8810817 111.88171265 162.8810817 113.1640625 162.87557983 C118.88594784 162.88594784 118.88594784 162.88594784 120 164 C120 172.25 120 180.5 120 189 C80.4 189 40.8 189 0 189 C0 126.63 0 64.26 0 0 Z " fill="#000000" transform="translate(0,703)"/>
<path d="M0 0 C9.57 0 19.14 0 29 0 C29 62.37 29 124.74 29 189 C19.43 189 9.86 189 0 189 C0 126.63 0 64.26 0 0 Z " fill="#000000" transform="translate(279,703)"/>
</svg>
