<?xml version="1.0" encoding="UTF-8"?>
<svg version="1.1" xmlns="http://www.w3.org/2000/svg" width="2000" height="2000">
<path d="M0 0 C1.23728662 0.038984 2.47457324 0.07796799 3.7493534 0.11813332 C78.05851497 2.4800406 152.14415726 6.97990254 226.19935571 13.53109361 C229.52507483 13.82401891 232.85109648 14.11322896 236.17724621 14.40122071 C264.39417047 16.84669559 292.54198385 19.65064676 320.66525185 23.00912497 C327.17790806 23.77896846 333.69564862 24.45381683 340.22289407 25.08668065 C386.03985713 29.5929121 414.87126337 38.49309594 444.79975224 74.75335407 C446.93828083 77.44694361 449.0506489 80.15825523 451.15045316 82.88209514 C455.52143637 88.43805675 460.2572441 93.6339992 465.26098633 98.62451172 C465.97308746 99.33683614 465.97308746 99.33683614 466.69957447 100.06355095 C468.26219427 101.62548632 469.8283387 103.18383532 471.39453125 104.7421875 C472.52727246 105.87300593 473.65978355 107.00405492 474.79208374 108.13531494 C477.21708095 110.55716836 479.64361859 112.97746359 482.07138062 115.39654541 C485.91600657 119.22756707 489.75674223 123.0624733 493.59692383 126.89794922 C501.74914878 135.03910772 509.90560002 143.17602597 518.0625 151.3125 C526.87070791 160.098651 535.67817183 168.88554018 544.48075008 177.67733192 C548.29254206 181.48416389 552.10675344 185.28854946 555.92288208 189.09103394 C558.30225316 191.46290721 560.67951604 193.83688508 563.05623245 196.21141815 C564.15217131 197.3054967 565.24896832 198.39871646 566.34672165 199.49097443 C571.47850645 204.59789215 576.49881683 209.73686684 581.21194458 215.23609924 C585.36909065 219.9005914 589.87473042 224.24475286 594.30273438 228.65039062 C595.42562352 229.77135694 596.5482825 230.89255385 597.67073059 232.01396179 C600.07444679 234.41453444 602.47970328 236.8135489 604.88618469 239.21134949 C608.69720634 243.00876556 612.50433652 246.81006733 616.31091309 250.61193848 C624.39180806 258.68176753 632.4769295 266.747356 640.5625 274.8125 C649.29371923 283.52166163 658.02419404 292.23156183 666.74978304 300.94636488 C670.52812332 304.71974554 674.30888279 308.49067978 678.09156036 312.25971222 C680.45017283 314.61082622 682.80667647 316.96404538 685.1626339 319.3178196 C686.24889732 320.4022229 687.33601879 321.48576754 688.42409706 322.56834984 C693.52916564 327.64845833 698.51967469 332.76293435 703.20871735 338.23287201 C707.36733922 342.89813653 711.87362587 347.24365388 716.30273438 351.65039062 C717.42562352 352.77135694 718.5482825 353.89255385 719.67073059 355.01396179 C722.07444679 357.41453444 724.47970328 359.8135489 726.88618469 362.21134949 C730.69720634 366.00876556 734.50433652 369.81006733 738.31091309 373.61193848 C746.39180806 381.68176753 754.4769295 389.747356 762.5625 397.8125 C771.29371923 406.52166163 780.02419404 415.23156183 788.74978304 423.94636488 C792.52812332 427.71974554 796.30888279 431.49067978 800.09156036 435.25971222 C802.45017283 437.61082622 804.80667647 439.96404538 807.1626339 442.3178196 C808.24889732 443.4022229 809.33601879 444.48576754 810.42409706 445.56834984 C819.65461604 454.75373826 819.65461604 454.75373826 823.55102539 459.30102539 C828.23249091 464.761994 833.3911431 469.76408031 838.48632812 474.83398438 C839.62892141 475.97465492 840.77128459 477.11555599 841.91343689 478.25666809 C844.35971511 480.69980227 846.8075339 483.14137829 849.25657654 485.58174133 C853.13480681 489.44636857 857.00914794 493.31487927 860.88293457 497.18395996 C869.1064895 505.39644793 877.33427054 513.60469593 885.5625 521.8125 C894.44769659 530.67564037 903.33214962 539.53951853 912.21171713 548.40829897 C916.05696079 552.24858225 919.90462409 556.08641915 923.7542038 559.92235565 C926.15433351 562.3149882 928.55235561 564.70972477 930.94983101 567.10501671 C932.0554453 568.20877049 933.16191785 569.31166539 934.26934624 570.41359901 C944.77872451 580.87250191 944.77872451 580.87250191 949.02780402 586.14578712 C951.04299985 588.44188468 951.04299985 588.44188468 953.84818208 590.25038254 C964.03469493 598.09515307 965.33840225 607.68458307 966.97767045 619.91384438 C967.35288295 622.85244429 967.69733383 625.79427409 968.03939827 628.7368929 C968.41448058 631.89550218 968.82657952 635.04888369 969.23807603 638.20292293 C970.61457653 648.76629232 971.85743055 659.34375905 973.07992782 669.92587449 C973.51814886 673.69900257 973.96556918 677.47101766 974.41281134 681.24308529 C987.89895549 795.11600858 996.18675112 909.4958425 837.2428894 1697.05490112 C806.34181009 1736.25771382 772.25535269 1772.46575945 736.82181932 1807.57280059 C734.56250556 1809.81249449 732.30671078 1812.05568465 730.05149829 1814.2995075 C655.12300138 1888.77460201 573.0311821 1955.00141599 -13.93339757 2087.09267843 C-26.06278248 2087.05164887 -38.19175477 2086.9656972 -50.32086272 2086.87666197 C-58.75782113 2086.81868363 -67.19419346 2086.80095381 -75.63133621 2086.80703354 C-185.75807868 2086.88526512 -297.93719107 2084.49506722 -577.79046631 1960.07653809 C-615.97307704 1921.80447752 -650.19865897 1879.37509607 -680.46630707 1834.61540061 C-685.20490147 1827.68152656 -690.61849728 1821.50373383 -696.5586853 1815.57106018 C-697.41128748 1814.71708365 -698.26388966 1813.86310713 -699.14232826 1812.98325253 C-700.05877302 1812.07040273 -700.97521778 1811.15755293 -701.91943359 1810.21704102 C-702.91890325 1809.21785187 -703.91815047 1808.21844019 -704.91719627 1807.21882725 C-707.64481003 1804.49091975 -710.37551311 1801.76612364 -713.10674953 1799.04184389 C-716.05886467 1796.09613141 -719.0080503 1793.14748852 -721.95758057 1790.19918823 C-727.06384032 1785.09580901 -732.1718708 1779.99420778 -737.28106689 1774.89376831 C-744.67614333 1767.51127267 -752.06795612 1760.12551606 -759.45889258 1752.73887599 C-771.46237555 1740.7424535 -783.46772479 1728.74790067 -795.47460938 1716.75488281 C-796.19254347 1716.03777653 -796.91047756 1715.32067025 -797.65016723 1714.58183348 C-802.74589502 1709.4920058 -807.84168973 1704.40224511 -812.9375 1699.3125 C-818.7585097 1693.49841861 -824.57948913 1687.68430691 -830.40039062 1681.87011719 C-831.11744667 1681.15388927 -831.83450271 1680.43766135 -832.57328773 1679.69972956 C-844.53650408 1667.75020718 -856.49775076 1655.79871508 -868.45759773 1643.84582043 C-875.82866665 1636.47922727 -883.20150706 1629.11441568 -890.57665586 1621.75190711 C-895.63030881 1616.70669121 -900.6821831 1611.65969898 -905.73267221 1606.61131597 C-908.64463566 1603.70069496 -911.5574173 1600.79090519 -914.47241974 1597.88332748 C-917.14421499 1595.21831168 -919.81366079 1592.5509652 -922.48131108 1589.88180053 C-923.89674658 1588.46676231 -925.31465635 1587.05420037 -926.73267174 1585.64174747 C-927.58527391 1584.78777095 -928.43787609 1583.93379442 -929.3163147 1583.05393982 C-930.04500071 1582.3261756 -930.77368671 1581.59841139 -931.52445412 1580.84859371 C-932.87579178 1579.42834763 -934.20802317 1577.98680154 -935.46060821 1576.47874215 C-939.82801247 1571.23735369 -944.5335922 1567.38352243 -950.08013344 1563.44489479 C-1005.98757429 1522.45061011 -1043.32691785 1479.18365066 -1054.41907765 1409.29937652 C-1059.76652329 1374.45149643 -1062.90292312 1339.41264277 -1065.47870027 1304.26768105 C-1066.20556247 1294.4223818 -1067.03016903 1284.58630579 -1067.86219166 1274.7494342 C-1073.56103439 1207.35904277 -1076.6917132 1139.97948301 -1078.22797585 1072.37186636 C-1078.31243844 1068.69018339 -1078.40003451 1065.00858645 -1078.48838037 1061.32699478 C-1081.38508229 939.64722993 -1079.00227859 817.30489798 -844.4090271 303.22647095 C-833.42271092 291.73136557 -822.24051737 280.43149765 -810.99791997 269.18764228 C-808.75000382 266.93750382 -806.50617185 264.68336253 -804.26329094 262.42820591 C-729.7478805 187.56186268 -648.02423078 120.63259731 0 0 Z M-433.7979126 256.33412683 C-437.45315048 260.89348022 -441.44522772 264.60211825 -445.9375 268.3125 C-447.32158849 269.6216681 -448.69250732 270.94519575 -450.03862762 272.29337311 C-451.10536359 273.35804754 -451.10536359 273.35804754 -452.19364977 274.44423056 C-453.32363115 275.57960438 -453.32363115 275.57960438 -454.47644043 276.73791504 C-455.29842533 277.55975108 -456.12041022 278.38158711 -456.96730375 279.22832727 C-459.22731624 281.48891043 -461.48508256 283.75170847 -463.74189353 286.01548696 C-466.18452756 288.46453589 -468.63010389 290.91064366 -471.07533264 293.35710144 C-475.3061957 297.59084231 -479.53528087 301.82635225 -483.76319885 306.06303406 C-489.8841553 312.19658419 -496.00838384 318.326859 -502.13349313 324.45626169 C-512.0834311 334.41325698 -522.03149881 344.37211844 -531.97802734 354.33251953 C-532.57251842 354.92783842 -533.16700949 355.5231573 -533.77951545 356.13651615 C-537.99889358 360.36179423 -542.2182046 364.58713932 -546.4375 368.8125 C-551.25727792 373.6392064 -556.0770862 378.46588246 -560.89697266 383.29248047 C-561.49073375 383.88706969 -562.08449485 384.48165892 -562.69624871 385.094266 C-572.6072255 395.018943 -582.52017684 404.94164551 -592.43453074 414.86294889 C-598.54203815 420.97492843 -604.6477649 427.08867644 -610.75117981 433.20474279 C-614.93437533 437.3963838 -619.11935443 441.58623844 -623.30572259 445.77471077 C-625.71812956 448.18845836 -628.12970898 450.60301774 -630.53906441 453.01981163 C-633.15657916 455.64456275 -635.77718719 458.2661873 -638.39855957 460.88708496 C-639.15188049 461.64400084 -639.90520141 462.40091672 -640.68135023 463.18076944 C-644.01238652 466.50536833 -647.37302096 469.73741474 -650.93707943 472.81207943 C-655.32085527 476.59396152 -659.40046048 480.64246941 -663.48316956 484.74464417 C-664.30586002 485.56718577 -665.12855048 486.38972737 -665.97617096 487.23719448 C-668.23811405 489.49970825 -670.497811 491.7644369 -672.75655258 494.030146 C-675.20121255 496.48122076 -677.64881472 498.92935447 -680.09606934 501.37783813 C-684.33020862 505.61485515 -688.5625701 509.85364117 -692.79376411 514.09359932 C-698.91836983 520.2307971 -705.04624623 526.36472096 -711.17500376 532.49777233 C-721.12941554 542.45924114 -731.08195683 552.42257636 -741.03295898 562.38745117 C-741.62771237 562.98303237 -742.22246575 563.57861356 -742.83524197 564.19224267 C-747.05687768 568.41977882 -751.27844638 572.64738188 -755.5 576.875 C-760.32409065 581.70601997 -765.14821231 586.53700895 -769.97241211 591.36791992 C-770.56673861 591.96307455 -771.16106511 592.55822918 -771.77340151 593.17141879 C-781.69002609 603.10173847 -791.60862137 613.03008751 -801.52861923 622.95703739 C-807.64073477 629.07362742 -813.7510684 635.19198723 -819.85909628 641.31265926 C-824.04415689 645.50615845 -828.23099496 649.69787739 -832.41922397 653.88821215 C-834.83353158 656.3038618 -837.24700774 658.7203272 -839.65826988 661.13901711 C-842.27614072 663.76411153 -844.89709175 666.38609242 -847.51881409 669.00733948 C-848.27504785 669.7671682 -849.03128161 670.52699692 -849.81043154 671.30985075 C-850.5195978 672.01764266 -851.22876406 672.72543457 -851.9594202 673.45467472 C-852.56301587 674.05919218 -853.16661154 674.66370964 -853.78849798 675.28654581 C-855.9375 677.3125 -855.9375 677.3125 -857.7045831 678.47842369 C-860.68876034 680.58140271 -862.60996552 682.14681929 -863.61892692 685.73766828 C-863.93083005 688.82119113 -864.01369593 691.84186647 -864.02788639 694.94130325 C-864.06053021 696.12578147 -864.09317403 697.31025969 -864.12680706 698.53063118 C-864.21032618 701.82569088 -864.26274625 705.11858971 -864.30187498 708.41430101 C-864.351737 711.99783106 -864.44083899 715.58042786 -864.52451652 719.16329837 C-864.68397585 726.27475128 -864.80488734 733.3863952 -864.91340444 740.49878793 C-865.00465804 746.41580782 -865.11194981 752.3323591 -865.22931099 758.24891663 C-866.52690825 823.7904204 -867.21625925 889.34480352 -867.73589219 954.89666062 C-867.81159964 964.41777983 -867.89023888 973.93887467 -867.9699707 983.45996094 C-867.97871274 984.51186937 -867.98745478 985.56377781 -867.99646173 986.64756226 C-868.28040784 1020.57404783 -868.84843487 1054.48798964 -869.57560364 1088.40764642 C-870.32372306 1123.36939209 -870.79511642 1158.32436274 -870.92617325 1193.29412635 C-870.94489093 1198.26696601 -870.96657002 1203.23978878 -870.99000359 1208.21260834 C-870.99450677 1209.19100379 -870.99900995 1210.16939924 -871.0036496 1211.17744304 C-871.07311421 1224.82275447 -871.32956792 1238.45320067 -871.73578145 1252.0924829 C-872.41698995 1274.9803055 -872.76644631 1297.84258137 -872.35766602 1320.73925781 C-872.34292941 1321.59472028 -872.32819281 1322.45018274 -872.31300964 1323.33156831 C-871.44206193 1369.95928073 -864.71328698 1404.68244954 -830.57010702 1438.15248297 C-817.02403114 1450.96718326 -802.5452613 1462.68488206 -787.04501835 1473.05583341 C-780.40945361 1477.51254415 -774.48323989 1482.63787644 -768.83637238 1488.29337311 C-768.12521507 1489.00315607 -767.41405776 1489.71293902 -766.68135023 1490.44423056 C-765.55136885 1491.57960438 -765.55136885 1491.57960438 -764.39855957 1492.73791504 C-763.57657467 1493.55975108 -762.75458978 1494.38158711 -761.90769625 1495.22832727 C-759.64768376 1497.48891043 -757.38991744 1499.75170847 -755.13310647 1502.01548696 C-752.69047244 1504.46453589 -750.24489611 1506.91064366 -747.79966736 1509.35710144 C-743.5688043 1513.59084231 -739.33971913 1517.82635225 -735.11180115 1522.06303406 C-728.9908447 1528.19658419 -722.86661616 1534.326859 -716.74150687 1540.45626169 C-706.7915689 1550.41325698 -696.84350119 1560.37211844 -686.89697266 1570.33251953 C-686.30248158 1570.92783842 -685.70799051 1571.5231573 -685.09548455 1572.13651615 C-680.27238155 1576.96636328 -675.44936933 1581.79630107 -670.62636089 1586.62624264 C-666.41029216 1590.84836431 -662.19418717 1595.07044976 -657.97802734 1599.29248047 C-657.38426625 1599.88706969 -656.79050515 1600.48165892 -656.17875129 1601.094266 C-646.2677745 1611.018943 -636.35482316 1620.94164551 -626.44046926 1630.86294889 C-620.33296185 1636.97492843 -614.2272351 1643.08867644 -608.12382019 1649.20474279 C-603.94062467 1653.3963838 -599.75564557 1657.58623844 -595.56927741 1661.77471077 C-593.15687044 1664.18845836 -590.74529102 1666.60301774 -588.33593559 1669.01981163 C-585.71842084 1671.64456275 -583.09781281 1674.2661873 -580.47644043 1676.88708496 C-579.34645905 1678.02245878 -579.34645905 1678.02245878 -578.19364977 1679.18076944 C-574.94089788 1682.42723521 -571.7227347 1685.48688089 -568.10773087 1688.32401848 C-562.35035445 1693.30585971 -558.4946055 1699.89194514 -554.28793558 1706.16444497 C-512.75679136 1767.67768108 -453.06745799 1844.14678367 -339.79927821 1879.69696323 C-254.28654054 1895.88552135 -165.15152064 1894.90325612 -78.48365808 1893.28828728 C-77.50346266 1893.27003709 -76.52326725 1893.2517869 -75.51336894 1893.23298367 C-74.53239495 1893.21470347 -73.55142096 1893.19642327 -72.54072048 1893.17758913 C-70.556673 1893.14070005 -68.57262526 1893.10382475 -66.58857727 1893.0669632 C-65.11384326 1893.03934993 -65.11384326 1893.03934993 -63.60931665 1893.01117883 C-48.61219737 1892.73495463 -33.62094046 1892.6282703 -18.62138367 1892.64543915 C-17.62668349 1892.64648768 -16.63198331 1892.6475362 -15.6071407 1892.6486165 C-11.58614684 1892.65310124 -7.56515366 1892.65801892 -3.54416077 1892.66329386 C90.70457785 1892.77129097 186.44417039 1891.43001978 456.77282572 1774.79806876 C469.91304248 1761.54195736 482.00131488 1747.37634709 493.8125 1732.9375 C494.45713015 1732.15148781 495.1017603 1731.36547561 495.76592469 1730.55564487 C550.43760744 1669.76907144 550.43760744 1669.76907144 582.0625 1598.3125 C582.64794358 1598.0319173 583.23338716 1597.75133459 583.83657146 1597.46224938 C585.9056656 1596.393509 587.7622781 1595.23731664 589.67735666 1593.91650993 C590.38192609 1593.43062598 591.08649552 1592.94474203 591.81241553 1592.44413433 C658.28265717 1546.07210866 725.150271 1492.16539673 802.11497266 1345.65425319 C809.50148314 1304.1398219 810.97973723 1261.83482409 811.34765625 1219.76171875 C811.35662384 1218.7992566 811.36559144 1217.83679445 811.37483077 1216.84516678 C811.81281316 1168.07758812 810.26628492 1119.42623035 807.93142466 1070.72135021 C806.46094357 1039.97344679 805.69765513 1009.27778101 805.49438477 978.49584961 C805.48749939 977.47560793 805.48061401 976.45536626 805.47351998 975.40420817 C805.44579462 971.28910781 805.41852813 967.17400445 805.39126157 963.05890103 C805.37763079 961.00622033 805.36393323 958.95354006 805.35016869 956.90086025 C805.33644073 954.85179707 805.32288655 952.80273272 805.30950658 950.75366724 C805.09005379 917.9409095 804.31977847 885.13944202 803.45681297 852.33812052 C803.20992969 842.85995261 802.99226103 833.38262523 802.84518361 823.9023397 C802.45887507 799.09992893 801.80401934 774.3398547 800.23071289 749.58081055 C800.17920368 748.76370258 800.12769447 747.94659461 800.07462437 747.10472579 C797.13858729 701.48868228 789.58677353 666.81615539 753.62670898 635.06958008 C744.25426519 626.97820036 734.42592147 619.71739328 724.11340144 612.8815445 C719.94732986 610.06863854 716.68370292 607.17041976 713.5821138 603.23433799 C710.6489497 599.52479929 707.17494375 596.2950974 703.8269043 592.96337891 C703.02548602 592.16181177 702.22406775 591.36024464 701.39836407 590.53438759 C698.73018343 587.86689773 696.058453 585.20299272 693.38671875 582.5390625 C691.4655281 580.62035875 689.54510656 578.70088589 687.62466431 576.78143311 C683.49732821 572.65697441 679.36822328 568.53429358 675.23794556 564.41278076 C669.25823991 558.44567075 663.28181135 552.47528696 657.30625427 546.50402284 C647.59883069 536.80365609 637.88954095 527.1051597 628.17871094 517.40820312 C627.59834513 516.82866513 627.01797931 516.24912713 626.42002666 515.65202737 C622.300901 511.53880162 618.1817083 507.425643 614.0625 503.3125 C609.3570501 498.61397861 604.65163055 493.91542684 599.94628906 489.21679688 C599.07680769 488.3485577 599.07680769 488.3485577 598.18976104 487.46277833 C588.51368631 477.80040476 578.8395868 468.1360559 569.16688633 458.47030449 C563.20845432 452.51634405 557.24825429 446.56416413 551.28573442 440.61429739 C547.19921669 436.53622643 543.1144865 432.45637081 539.03113818 428.37512636 C536.67814691 426.02347544 534.32407144 423.67293758 531.96831131 421.32405853 C529.40924474 418.7722308 526.85330769 416.21730769 524.2980957 413.66162109 C523.56063457 412.92775492 522.82317343 412.19388874 522.06336498 411.43778419 C520.04358401 409.41399395 518.04712239 407.37073668 516.0625 405.3125 C515.51769171 404.75794463 514.97288342 404.20338926 514.41156578 403.63202918 C509.08542003 397.91097664 504.97360565 391.34965929 500.65788174 384.86332476 C458.01817795 320.89663104 400.68562418 247.10432392 294.6805967 205.50331335 C248.15296252 196.19703005 200.29908464 195.02807024 153 194.7890625 C151.54377259 194.78083227 151.54377259 194.78083227 150.05812645 194.77243577 C100.77359236 194.50562672 51.58472716 195.99729355 2.35539889 198.19996604 C-28.80107116 199.59160949 -59.92322779 200.39383341 -91.10888672 200.71435547 C-92.14275154 200.72512078 -93.17661637 200.73588609 -94.24181043 200.74697763 C-99.4516285 200.80113093 -104.6614552 200.85442225 -109.87128526 200.90740886 C-111.41448171 200.92311831 -111.41448171 200.92311831 -112.98885385 200.93914513 C-115.06423942 200.96017021 -117.13962687 200.98101068 -119.21501615 201.00166601 C-152.35262411 201.33389635 -185.48276306 202.05180899 -218.61155313 202.87106324 C-228.2124802 203.10808424 -237.81328524 203.33214954 -247.41530228 203.52050829 C-267.47519579 203.91895365 -287.51557647 204.45090534 -307.55759066 205.40702017 C-315.81287313 205.79812933 -324.05543379 206.12648738 -332.31953239 206.24698257 C-379.40518041 206.99233002 -404.50282747 219.30312016 -433.7979126 256.33412683 Z " fill="#000000" transform="translate(1036.9375,-38.3125)"/>
<path d="M0 0 C67.65 0 135.3 0 205 0 C205 469.92 205 939.84 205 1424 C140.98 1424 76.96 1424 11 1424 C10.67 1119.08 10.34 814.16 10 500 C5.38 512.21 0.76 524.42 -4 537 C-7.07740479 545.06483922 -10.1579695 553.12828598 -13.25 561.1875 C-13.96881804 563.06312497 -14.68756753 564.93877621 -15.40625 566.81445312 C-18.81567081 575.71027288 -22.23162825 584.60355394 -25.65403748 593.49438477 C-30.75027733 606.73454232 -35.81811763 619.98535141 -40.87319946 633.24127197 C-47.66300807 651.04483215 -54.46512181 668.84349576 -61.3125 686.625 C-61.61973999 687.42285919 -61.92697998 688.22071838 -62.24353027 689.04275513 C-62.54440552 689.82407806 -62.84528076 690.605401 -63.15527344 691.41040039 C-66.82759444 700.9472565 -70.48626199 710.48906055 -74.1159668 720.04223633 C-80.34401911 736.43354824 -86.60230762 752.81322517 -92.875 769.1875 C-93.26774109 770.21292908 -93.66048218 771.23835815 -94.06512451 772.29486084 C-98.96408436 785.08569101 -103.87026127 797.87367645 -108.79199219 810.65576172 C-112.20975969 819.53566686 -115.59803174 828.4266588 -118.98059082 837.32002258 C-123.43229997 849.02335056 -127.89099144 860.72398173 -132.3671875 872.41796875 C-132.7334877 873.37495163 -133.0997879 874.33193451 -133.47718811 875.31791687 C-135.40106939 880.34259739 -137.32724729 885.36638724 -139.25610352 890.38916016 C-142.63038639 899.17900526 -146.00172774 907.96872101 -149.28515625 916.79296875 C-149.74486816 918.01927002 -150.20458008 919.24557129 -150.67822266 920.5090332 C-151.49329388 922.68766581 -152.29955592 924.86962304 -153.09521484 927.05541992 C-153.44406738 927.98330322 -153.79291992 928.91118652 -154.15234375 929.8671875 C-154.44101318 930.65206543 -154.72968262 931.43694336 -155.02709961 932.24560547 C-156 934 -156 934 -159 935 C-163.769034 925.83009188 -167.94521101 916.45236734 -172.0581665 906.97567749 C-178.78406211 891.48699733 -185.64175554 876.06173421 -192.625 860.6875 C-198.53651601 847.6706578 -204.40198626 834.63584913 -210.1875 821.5625 C-215.79160985 808.90153091 -221.49880046 796.29141423 -227.27337646 783.70733643 C-231.99354646 773.4193353 -236.64469001 763.10461519 -241.22070312 752.75146484 C-245.4331325 743.23713648 -249.721064 733.75790989 -254.01742554 724.28125 C-260.55821731 709.8539045 -267.0714472 695.41525245 -273.5 680.9375 C-273.82938568 680.19570496 -274.15877136 679.45390991 -274.49813843 678.68963623 C-279.16167879 668.18182459 -283.78766796 657.65783791 -288.40332031 647.12890625 C-290.78949619 641.70095129 -293.22446642 636.30194053 -295.75 630.9375 C-299.30267424 623.35390691 -302.64333961 615.67236661 -306 608 C-306.33 799.07 -306.66 990.14 -307 1187 C-311.5086242 1185.87284395 -312.64224077 1184.70760992 -315.8125 1181.4375 C-316.62332031 1180.61121094 -317.43414062 1179.78492188 -318.26953125 1178.93359375 C-320.32659589 1176.76272461 -322.28639708 1174.52166624 -324.23779297 1172.25561523 C-327.65740066 1168.34059316 -331.23538855 1164.6351623 -334.92578125 1160.9765625 C-335.57880219 1160.32500183 -336.23182312 1159.67344116 -336.90463257 1159.00213623 C-338.3084591 1157.60208514 -339.71343853 1156.20318925 -341.11947632 1154.80535889 C-343.35070887 1152.58701179 -345.57869592 1150.36544938 -347.8059082 1148.14306641 C-352.53445954 1143.42588472 -357.26693201 1138.71264924 -362 1134 C-367.48920057 1128.53448019 -372.97673766 1123.06731148 -378.46005249 1117.59588623 C-380.64424355 1115.41812903 -382.83144794 1113.24343039 -385.01879883 1111.06884766 C-386.37075495 1109.72052748 -387.72256896 1108.37206477 -389.07421875 1107.0234375 C-389.97374771 1106.13165802 -389.97374771 1106.13165802 -390.89144897 1105.22186279 C-393.87473825 1102.2389414 -396.73406267 1099.19706224 -399.4942627 1096.0057373 C-402.84646448 1092.13073241 -406.38029536 1088.49119414 -410.01757812 1084.88476562 C-411.01173988 1083.89279427 -411.01173988 1083.89279427 -412.02598572 1082.88078308 C-413.45109348 1081.45945143 -414.87735418 1080.03927499 -416.30467224 1078.62016296 C-418.56950817 1076.36820944 -420.8311015 1074.11304304 -423.09191895 1071.85705566 C-427.89180066 1067.06854507 -432.69560304 1062.28397981 -437.5 1057.5 C-443.0718054 1051.951873 -448.641949 1046.40209855 -454.20787048 1040.84806824 C-456.42530078 1038.63707313 -458.64574414 1036.42913559 -460.86633301 1034.22131348 C-462.23851207 1032.85277027 -463.61054907 1031.48408459 -464.98242188 1030.11523438 C-465.59145859 1029.51136398 -466.2004953 1028.90749359 -466.82798767 1028.2853241 C-470.52607048 1024.5876907 -474.01897324 1020.76362531 -477.42249298 1016.79282379 C-478.92583464 1014.99947504 -478.92583464 1014.99947504 -480.5745878 1013.65216992 C-482.38058399 1011.55887187 -482.37764216 1010.50965994 -482.38410217 1007.77245754 C-482.3934063 1006.90392734 -482.40271043 1006.03539714 -482.4122965 1005.14054784 C-482.40476265 1003.70552666 -482.40476265 1003.70552666 -482.39707661 1002.24151516 C-482.4035341 1001.22296026 -482.4099916 1000.20440536 -482.41664478 999.15498516 C-482.43475267 995.70799249 -482.43129447 992.26134992 -482.42805481 988.8143158 C-482.43651621 986.33159434 -482.4462669 983.848877 -482.45720309 981.36616522 C-482.48067591 975.23658445 -482.4900001 969.10711293 -482.49338017 962.97749242 C-482.49816474 955.63821036 -482.52018973 948.29900566 -482.5424881 940.95975957 C-482.59549219 923.21826422 -482.61773437 905.47676904 -482.6361152 887.73521001 C-482.64498961 879.34391756 -482.6574169 870.95263146 -482.67019048 862.56134418 C-482.71375652 833.84337783 -482.75019019 805.12541343 -482.76451588 776.40741634 C-482.7654339 774.60403392 -482.76635336 772.80065149 -482.76727424 770.99726907 C-482.76772893 770.10294241 -482.76818361 769.20861575 -482.76865207 768.28718828 C-482.77095777 763.75599335 -482.77328499 759.22479843 -482.77563477 754.69360352 C-482.7760937 753.79436962 -482.77655263 752.89513573 -482.77702547 751.96865232 C-482.79217982 722.81188303 -482.84744927 693.6553811 -482.92657144 664.49871989 C-483.0100484 633.68104909 -483.05721162 602.86353255 -483.06289595 572.04574591 C-483.06365641 568.66306622 -483.06456684 565.28038661 -483.065588 561.89770699 C-483.06582273 561.06478098 -483.06605746 560.23185497 -483.0662993 559.37368878 C-483.07093423 545.96471622 -483.10865179 532.55603159 -483.15820395 519.14715847 C-483.20717657 505.67003839 -483.21915166 492.19327817 -483.19355337 478.71609008 C-483.17941809 470.70819741 -483.19305332 462.70148012 -483.24656505 454.69374766 C-483.28343505 448.71490879 -483.26807277 442.73740626 -483.23235079 436.75851054 C-483.22603425 434.33917444 -483.23667066 431.91972306 -483.26586816 429.50055491 C-483.48100549 410.48340673 -483.48100549 410.48340673 -479.83930147 405.43080628 C-477.35388264 402.89763204 -474.94503594 400.96213081 -472 399 C-470.58918891 397.78805385 -469.19030555 396.56184113 -467.8125 395.3125 C-467.16925781 394.76207031 -466.52601563 394.21164062 -465.86328125 393.64453125 C-463.38369142 391.4560463 -461.0937882 389.10455987 -458.77734375 386.74609375 C-456.93406426 384.93522357 -455.02177201 383.24678646 -453.0625 381.5625 C-450.25423653 379.14382221 -447.60029407 376.64100317 -445 374 C-441.79970478 370.74970017 -438.45775424 367.75275755 -435 364.78125 C-432.91662922 362.9257479 -430.95718793 360.98776899 -429 359 C-425.79970478 355.74970017 -422.45775424 352.75275755 -419 349.78125 C-416.21114467 347.29742572 -413.62313017 344.63288563 -411.00390625 341.97265625 C-408.41753849 339.42662171 -405.6846472 337.07978443 -402.93359375 334.71484375 C-401.04505403 333.03995701 -399.26844352 331.30052413 -397.5 329.5 C-395.10946833 327.06610268 -392.64953738 324.78644441 -390.0625 322.5625 C-387.25423653 320.14382221 -384.60029407 317.64100317 -382 315 C-378.79970478 311.74970017 -375.45775424 308.75275755 -372 305.78125 C-369.91662922 303.9257479 -367.95718793 301.98776899 -366 300 C-362.79970478 296.74970017 -359.45775424 293.75275755 -356 290.78125 C-353.91662922 288.9257479 -351.95718793 286.98776899 -350 285 C-346.79970478 281.74970017 -343.45775424 278.75275755 -340 275.78125 C-337.91662922 273.9257479 -335.95718793 271.98776899 -334 270 C-330.79970478 266.74970017 -327.45775424 263.75275755 -324 260.78125 C-321.21663346 258.30231417 -318.63343576 255.6434308 -316.01953125 252.98828125 C-313.37101522 250.38074806 -310.5872252 247.95582517 -307.76171875 245.54296875 C-305.96259155 244.04612032 -305.96259155 244.04612032 -304.51953125 242.23828125 C-303 241 -303 241 -301.08300781 241.11157227 C-298.08804916 242.38895793 -297.55740046 244.07262891 -296.15234375 246.9765625 C-295.63542969 248.02779297 -295.11851562 249.07902344 -294.5859375 250.16210938 C-294.04195312 251.30486328 -293.49796875 252.44761719 -292.9375 253.625 C-292.07705078 255.3894043 -292.07705078 255.3894043 -291.19921875 257.18945312 C-289.44736779 260.78412248 -287.72217304 264.39101599 -286 268 C-285.51547363 269.0115918 -285.03094727 270.02318359 -284.53173828 271.06542969 C-282.73859316 274.81003249 -280.94810185 278.55583233 -279.16796875 282.30664062 C-275.15671843 290.74070019 -270.97287085 299.08407304 -266.77661133 307.42724609 C-262.90115992 315.15038862 -259.1448182 322.92229778 -255.45458984 330.73535156 C-252.7502685 336.45293344 -249.95992752 342.11897693 -247.1081543 347.76416016 C-243.70217351 354.53536204 -240.45101017 361.37984973 -237.20727539 368.22998047 C-233.25651876 376.5466605 -229.13481275 384.7738642 -225 393 C-206.76573472 429.30962854 -206.76573472 429.30962854 -200.00537109 443.63793945 C-197.48131596 448.96742462 -194.88257213 454.25302748 -192.22265625 459.515625 C-191.89830597 460.15842407 -191.57395569 460.80122314 -191.23977661 461.46350098 C-189.64037041 464.6309671 -188.03403378 467.79462621 -186.41699219 470.953125 C-185.84239258 472.0875 -185.26779297 473.221875 -184.67578125 474.390625 C-184.15927002 475.40157227 -183.64275879 476.41251953 -183.1105957 477.45410156 C-182 480 -182 480 -182 483 C-181.34 483 -180.68 483 -180 483 C-179.86464844 482.41476562 -179.72929688 481.82953125 -179.58984375 481.2265625 C-178.08921768 475.24202979 -176.12446908 469.56492515 -173.84765625 463.84375 C-170.28582777 454.78734054 -166.87246945 445.68048283 -163.49264526 436.55484009 C-161.74960826 431.84917069 -160.00152968 427.14537382 -158.25390625 422.44140625 C-157.89788834 421.4828624 -157.54187042 420.52431854 -157.17506409 419.53672791 C-153.61476542 409.95489141 -150.0294685 400.38250156 -146.4375 390.8125 C-145.97818085 389.58845963 -145.97818085 389.58845963 -145.50958252 388.33969116 C-143.34052114 382.55949386 -141.17039154 376.77969795 -139 371 C-136.45756868 364.22945353 -133.91566377 357.45870997 -131.375 350.6875 C-130.90596756 349.43750717 -130.90596756 349.43750717 -130.42745972 348.16226196 C-125.82950262 335.90585258 -121.25977026 323.63921774 -116.70846558 311.36541748 C-112.30980525 299.50503742 -107.88146079 287.6559785 -103.4375 275.8125 C-103.11941376 274.96475006 -102.80132751 274.11700012 -102.47360229 273.24356079 C-99.79261525 266.0990622 -97.11003986 258.95516036 -94.42675781 251.81152344 C-92.97147433 247.93704815 -91.51669162 244.06238523 -90.0625 240.1875 C-89.82667206 239.55913239 -89.59084412 238.93076477 -89.34786987 238.28335571 C-84.5274827 225.43560337 -79.74534829 212.57366499 -74.96328735 199.71160889 C-70.57381736 187.90627148 -66.17545094 176.10440005 -61.75 164.3125 C-61.38888626 163.35025009 -61.38888626 163.35025009 -61.02047729 162.36856079 C-59.3478058 157.91206543 -57.67401909 153.4559893 -56 149 C-49.82852878 132.57198639 -43.67032332 116.1393024 -37.5625 99.6875 C-37.29335785 98.96257355 -37.0242157 98.23764709 -36.74691772 97.49075317 C-33.99768145 90.08482135 -31.25095375 82.67796238 -28.50672913 75.27017212 C-23.08768226 60.64351214 -17.65420823 46.02293674 -12.125 31.4375 C-11.50117432 29.79128662 -11.50117432 29.79128662 -10.86474609 28.11181641 C-7.29468038 18.72040692 -3.64184922 9.36475514 0 0 Z " fill="#000000" transform="translate(756,286)"/>
<path d="M0 0 C74.25 0 148.5 0 225 0 C275 50 275 50 282 58 C283.82860895 59.90257087 285.67746451 61.7859509 287.54882812 63.64648438 C288.30890419 64.40437004 288.30890419 64.40437004 289.08433533 65.17756653 C290.16894213 66.2584108 291.25470068 67.33810039 292.34153748 68.41670227 C294.06872676 70.13094586 295.7926132 71.84845302 297.51574707 73.56677246 C301.17433971 77.21402441 304.83686281 80.85731315 308.5 84.5 C312.75013369 88.7264063 316.99857062 92.95449022 321.24278259 97.18684387 C322.9283829 98.86603635 324.61700141 100.54215076 326.30578613 102.21813965 C331.08487117 106.97465619 335.73793677 111.76938175 340.12194824 116.89709473 C344.00687439 121.24715145 348.20302587 125.30954796 352.34153748 129.41670227 C354.06872676 131.13094586 355.7926132 132.84845302 357.51574707 134.56677246 C361.17433971 138.21402441 364.83686281 141.85731315 368.5 145.5 C372.75013369 149.7264063 376.99857062 153.95449022 381.24278259 158.18684387 C382.9283829 159.86603635 384.61700141 161.54215076 386.30578613 163.21813965 C391.08487117 167.97465619 395.73793677 172.76938175 400.12194824 177.89709473 C404.00687439 182.24715145 408.20302587 186.30954796 412.34153748 190.41670227 C414.06872676 192.13094586 415.7926132 193.84845302 417.51574707 195.56677246 C421.17433971 199.21402441 424.83686281 202.85731315 428.5 206.5 C432.75013369 210.7264063 436.99857062 214.95449022 441.24278259 219.18684387 C442.9283829 220.86603635 444.61700141 222.54215076 446.30578613 224.21813965 C451.08487117 228.97465619 455.73793677 233.76938175 460.12194824 238.89709473 C464.00687439 243.24715145 468.20302587 247.30954796 472.34153748 251.41670227 C474.06872676 253.13094586 475.7926132 254.84845302 477.51574707 256.56677246 C481.17433971 260.21402441 484.83686281 263.85731315 488.5 267.5 C492.75013369 271.7264063 496.99857062 275.95449022 501.24278259 280.18684387 C502.9283829 281.86603635 504.61700141 283.54215076 506.30578613 285.21813965 C511.08487117 289.97465619 515.73793677 294.76938175 520.12194824 299.89709473 C524.00687439 304.24715145 528.20302587 308.30954796 532.34153748 312.41670227 C534.06872676 314.13094586 535.7926132 315.84845302 537.51574707 317.56677246 C541.17433971 321.21402441 544.83686281 324.85731315 548.5 328.5 C552.75013369 332.7264063 556.99857062 336.95449022 561.24278259 341.18684387 C562.9283829 342.86603635 564.61700141 344.54215076 566.30578613 346.21813965 C571.08927406 350.97903906 575.74750708 355.77797908 580.13543701 360.9105835 C583.95594293 365.19181624 588.08258428 369.18929076 592.1545372 373.229702 C593.83806005 374.90030392 595.51830062 376.57414799 597.19778442 378.24880981 C600.75402844 381.79371937 604.31423302 385.33463444 607.875 388.875 C612.02462351 393.0010011 616.17259642 397.12863466 620.31641006 401.26047134 C621.972409 402.90998644 623.63138632 404.55646581 625.29049683 406.20285034 C626.29911707 407.20784043 627.30759852 408.21296984 628.31591797 409.21826172 C629.19859344 410.09570038 630.08126892 410.97313904 630.99069214 411.87716675 C634.31710464 415.39152073 634.12397929 417.55446377 634.12025452 422.31472778 C634.12111053 422.96822205 634.12196655 423.62171631 634.12284851 424.29501343 C634.12450963 426.50155322 634.11897049 428.70801787 634.11352539 430.91455078 C634.11321921 432.51676366 634.11335229 434.11897668 634.11389065 435.7211895 C634.11411694 440.02228288 634.10830981 444.32334859 634.10128021 448.62443542 C634.09559661 452.65644419 634.09531771 456.68844614 634.09460449 460.72045898 C634.08935155 472.52197634 634.07539047 484.32348852 634.0625 496.125 C634.041875 522.48375 634.02125 548.8425 634 576 C576.25 576 518.5 576 459 576 C458.505 541.845 458.505 541.845 458 507 C452.39 501.39 446.78 495.78 441 490 C438.69 487.36 436.38 484.72 434 482 C432.63416215 480.57472621 431.25251296 479.16411129 429.84375 477.78125 C429.13089844 477.07613281 428.41804688 476.37101562 427.68359375 475.64453125 C426.96300781 474.93683594 426.24242187 474.22914063 425.5 473.5 C420.73142226 468.81672776 416.15024034 464.08033648 411.79101562 459.01367188 C408.52809 455.34510446 405.00151288 451.93887401 401.5 448.5 C396.72119198 443.8066805 392.12844906 439.06008022 387.75976562 433.98242188 C384.66605994 430.49728173 381.32563522 427.26192574 378 424 C374.04132627 420.11716293 370.14941662 416.23659338 366.53125 412.03125 C362.73857952 407.62796818 358.64426794 403.57013076 354.5 399.5 C349.72119198 394.8066805 345.12844906 390.06008022 340.75976562 384.98242188 C337.66605994 381.49728173 334.32563522 378.26192574 331 375 C327.04132627 371.11716293 323.14941662 367.23659338 319.53125 363.03125 C315.73857952 358.62796818 311.64426794 354.57013076 307.5 350.5 C302.73142226 345.81672776 298.15024034 341.08033648 293.79101562 336.01367188 C290.52809 332.34510446 287.00151288 328.93887401 283.5 325.5 C278.72119198 320.8066805 274.12844906 316.06008022 269.75976562 310.98242188 C266.66605994 307.49728173 263.32563522 304.26192574 260 301 C256.04132627 297.11716293 252.14941662 293.23659338 248.53125 289.03125 C244.73857952 284.62796818 240.64426794 280.57013076 236.5 276.5 C231.72119198 271.8066805 227.12844906 267.06008022 222.75976562 261.98242188 C219.66605994 258.49728173 216.32563522 255.26192574 213 252 C208.34845893 247.43756891 203.86571934 242.82283535 199.640625 237.859375 C197.84692486 235.82651484 195.91701339 233.91701339 194 232 C194 548.8 194 865.6 194 1192 C210.83 1175.17 227.66 1158.34 245 1141 C248.96 1137.535 248.96 1137.535 253 1134 C254.34477828 1132.72783624 255.67680703 1131.44172419 256.98327637 1130.13024902 C257.66425888 1129.44919601 258.34524139 1128.76814301 259.04685974 1128.06645203 C260.12097862 1126.98458366 260.12097862 1126.98458366 261.21679688 1125.88085938 C262.3843325 1124.71113335 262.3843325 1124.71113335 263.57545471 1123.51777649 C265.25215386 1121.83729463 266.92769761 1120.15565932 268.60218811 1118.47297668 C271.25741578 1115.80489707 273.91583197 1113.14003111 276.57507324 1110.47595215 C282.21953246 1104.82010699 287.86008172 1099.16037222 293.5 1093.5 C300.03937965 1086.93690439 306.58045484 1080.37551362 313.12574768 1073.8183136 C315.73559931 1071.20201349 318.34240327 1068.58270301 320.94909668 1065.96325684 C322.56031614 1064.3484024 324.17167754 1062.73368957 325.78320312 1061.11914062 C326.85732201 1060.03727226 326.85732201 1060.03727226 327.95314026 1058.93354797 C331.89422927 1054.99205098 335.94246392 1051.2503638 340.16246605 1047.60973167 C342.73305853 1045.35782001 345.15340362 1042.9738177 347.57055664 1040.55883789 C348.06766647 1040.06348038 348.56477631 1039.56812286 349.07695007 1039.05775452 C350.69051216 1037.44852971 352.30046346 1035.83575073 353.91015625 1034.22265625 C355.04766033 1033.08582754 356.18531267 1031.94914717 357.32310486 1030.81260681 C359.69562686 1028.44155079 362.06635241 1026.06871727 364.43579102 1023.69458008 C367.45365912 1020.67101539 370.47599576 1017.65196367 373.49970341 1014.63424015 C375.84627732 1012.29130167 378.19043735 1009.9459596 380.53390312 1007.59991264 C381.64659957 1006.48655516 382.7600225 1005.37392319 383.87422371 1004.26207161 C389.21614662 998.92894709 394.46968911 993.57907067 399.38157654 987.84080505 C402.31736059 984.50162575 405.49391753 981.40404612 408.65625 978.28125 C409.36221313 977.57907349 410.06817627 976.87689697 410.79553223 976.15344238 C413.77897375 973.18616234 416.7684071 970.22494637 419.75732422 967.26318359 C421.95490579 965.08381535 424.14937938 962.90135053 426.34375 960.71875 C427.00749634 960.063302 427.67124268 959.407854 428.35510254 958.73254395 C439.51319711 947.63225968 449.75107736 936.05112757 455 921 C455.36480469 920.04609375 455.72960938 919.0921875 456.10546875 918.109375 C458.13743886 911.0462824 458.47598297 902.0565825 455.25 895.3125 C452.32743748 890.6180703 449.7313857 887.87545153 444.25169182 886.40338516 C439.36975819 885.52879852 434.39847076 885.74264848 429.45532227 885.77294922 C428.18571876 885.77270815 426.91611525 885.77246708 425.6080389 885.7722187 C422.18981386 885.77176925 418.77173032 885.78331725 415.35353851 885.79743958 C412.13995259 885.80887321 408.92637239 885.80936819 405.71276855 885.81079102 C396.32932714 885.82126408 386.94591176 885.84918657 377.5625 885.875 C356.586875 885.91625 335.61125 885.9575 314 886 C314 828.25 314 770.5 314 711 C394.01291529 710.95966865 394.01291529 710.95966865 427.34570312 710.95117188 C434.97599286 710.94921386 442.60628257 710.94719334 450.23657227 710.94506836 C451.19296878 710.94480461 452.14936529 710.94454086 453.13474351 710.94426912 C468.59608843 710.93991407 484.05742964 710.9320271 499.51877236 710.9228472 C515.37398094 710.91351163 531.22918758 710.90794459 547.08439881 710.90591151 C556.87611348 710.90453608 566.66781771 710.90018442 576.45952917 710.89208353 C583.16457463 710.88681726 589.86961464 710.88519543 596.57466202 710.88649862 C600.4491279 710.88714219 604.32357544 710.88612241 608.1980381 710.88079453 C612.38846154 710.87507389 616.57884543 710.87699874 620.76927185 710.87974548 C622.00757152 710.87683264 623.24587118 710.8739198 624.52169508 710.87091869 C626.19148643 710.87390526 626.19148643 710.87390526 627.89501095 710.87695217 C629.34801079 710.87638259 629.34801079 710.87638259 630.83036417 710.8758015 C633 711 633 711 634 712 C634.1033232 713.59266417 634.13658962 715.18991166 634.14260101 716.78591251 C634.14890895 717.82798864 634.15521689 718.87006477 634.16171598 719.94371897 C634.16357798 721.10263366 634.16543998 722.26154835 634.1673584 723.45558167 C634.17315178 724.67585727 634.17894517 725.89613288 634.18491411 727.15338653 C634.19989881 730.55616201 634.2102963 733.95889562 634.21867895 737.36169016 C634.22666751 740.27662382 634.23836137 743.1915378 634.25009376 746.10645843 C634.29206298 756.55141554 634.31921577 766.99639576 634.34375 777.44140625 C634.3457249 778.26552626 634.3476998 779.08964628 634.34973454 779.93873963 C634.38889637 796.29683398 634.4226138 812.65493585 634.44481659 829.01306248 C634.44978609 832.61197992 634.45483038 836.21089724 634.45996094 839.80981445 C634.46186694 841.15159512 634.46186694 841.15159512 634.46381146 842.52048247 C634.48516507 857.00661392 634.53415067 871.4925183 634.59420508 885.97853554 C634.65532933 900.84504664 634.6900052 915.71144065 634.6992898 930.57807583 C634.70520203 938.92753623 634.72296694 947.27661237 634.77067566 955.62594795 C634.81127751 962.73822387 634.82815425 969.85005288 634.81402284 976.96243954 C634.80755529 980.59105632 634.81240004 984.21872132 634.84789658 987.84719086 C634.88609653 991.78368097 634.86989037 995.7188917 634.84851074 999.65553284 C634.86821851 1000.79883247 634.88792628 1001.94213211 634.90823126 1003.12007719 C634.81510432 1009.90481437 633.73547948 1013.53835152 628.8371129 1018.33608478 C628.23086565 1018.8851768 627.62461839 1019.43426883 627 1020 C625.85231261 1021.1857082 624.70646907 1022.37320397 623.5625 1023.5625 C621.20235521 1025.89130792 618.76867404 1028.08999477 616.25170898 1030.24757385 C612.13707154 1033.83358464 608.257811 1037.60757951 604.41015625 1041.47631836 C603.69026016 1042.19606559 602.97036407 1042.91581282 602.22865295 1043.65737057 C599.83755246 1046.0491608 597.45003702 1048.44449679 595.0625 1050.83984375 C593.34055506 1052.56370954 591.61838105 1054.28734655 589.89599609 1056.01077271 C586.19729377 1059.71262834 582.50009086 1063.41597446 578.80419922 1067.12063599 C573.4524755 1072.48496424 568.09747032 1077.84600735 562.74158669 1083.20618188 C554.03950471 1091.91531851 545.33929349 1100.62632123 536.640625 1109.33886719 C536.1208993 1109.8594207 535.60117359 1110.37997422 535.06569862 1110.91630208 C531.37708239 1114.61081811 527.68853337 1118.30540125 524 1122 C519.78650471 1126.22042391 515.572979 1130.44081744 511.359375 1134.66113281 C510.84028879 1135.18104715 510.32120258 1135.70096148 509.78638649 1136.2366308 C501.11842606 1144.9182967 492.44848699 1153.59798406 483.77714539 1162.27627277 C478.43737265 1167.62051458 473.09937979 1172.96652231 467.76370621 1178.31485677 C463.67287887 1182.41513796 459.57948759 1186.51285167 455.48516846 1190.60964584 C453.81057353 1192.2861088 452.1368413 1193.96343401 450.46405029 1195.64169693 C448.17497125 1197.93802605 445.88278729 1200.23121223 443.58984375 1202.52368164 C442.93379654 1203.18332381 442.27774933 1203.84296598 441.6018219 1204.52259731 C437.79892285 1208.31712152 433.88425567 1211.92202568 429.8061552 1215.41969013 C426.90596337 1217.95723605 424.19892724 1220.67719839 421.48828125 1223.4140625 C420.91216599 1223.99159271 420.33605072 1224.56912292 419.74247742 1225.16415405 C417.93008518 1226.98206461 416.12122268 1228.80343919 414.3125 1230.625 C413.09073054 1231.85179732 411.86872695 1233.07836153 410.64648438 1234.3046875 C407.95298112 1237.00791591 405.26169299 1239.7133265 402.57246399 1242.42080688 C400.38520047 1244.61743047 398.1919486 1246.8080514 396 1249 C394.02042576 1250.98154167 392.04098132 1252.96321235 390.06169128 1254.94503784 C388.85955116 1256.14864417 387.65740763 1257.35224711 386.45526123 1258.55584717 C385.81805397 1259.19382988 385.18084671 1259.83181259 384.52433014 1260.48912811 C369.83879159 1275.19236785 355.15038265 1289.89273727 340.46033764 1304.59147453 C331.97146607 1313.08550453 323.48353843 1321.58047382 314.99780273 1330.07763672 C307.58442788 1337.50098946 300.16928729 1344.9225731 292.75203592 1352.34205258 C288.83034371 1356.26504562 284.90952929 1360.18890681 280.99083519 1364.11489487 C277.30352965 1367.80900922 273.61386059 1371.50074649 269.92239952 1375.19070816 C268.57194038 1376.54144135 267.22233142 1377.89302521 265.87366104 1379.24554443 C253.52428205 1391.62842338 253.52428205 1391.62842338 247.56488419 1396.66251087 C244.91365567 1398.92848643 242.46355534 1401.39327119 240.00390625 1403.86328125 C239.48489243 1404.38133835 238.9658786 1404.89939545 238.43113708 1405.43315125 C237.3520348 1406.51158133 236.27416062 1407.59124166 235.19750977 1408.67211914 C233.54492818 1410.33012955 231.88697801 1411.98263976 230.22851562 1413.63476562 C229.17415781 1414.68978311 228.12010962 1415.74511014 227.06640625 1416.80078125 C226.57169327 1417.29347 226.07698029 1417.78615875 225.567276 1418.29377747 C222.95586542 1420.9002738 222.95586542 1420.9002738 221 1424 C148.07 1424 75.14 1424 0 1424 C0 954.08 0 484.16 0 0 Z " fill="#000000" transform="translate(1092,286)"/>
</svg>
