<?xml version="1.0" encoding="UTF-8"?>
<svg version="1.1" xmlns="http://www.w3.org/2000/svg" width="1802" height="2000">
<path d="M0 0 C0.99 0 1.98 0 3 0 C3.31001953 0.55010742 3.62003906 1.10021484 3.93945312 1.66699219 C10.53149608 13.35899268 17.15005746 25.03545804 23.8125 36.6875 C24.14570251 37.27032745 24.47890503 37.85315491 24.82220459 38.4536438 C28.23373121 44.42048881 31.64782825 50.38585724 35.06486511 56.34954834 C42.43853328 69.22020034 49.76467265 82.11511533 56.99707031 95.06591797 C62.59541441 105.08392347 68.29100511 115.04477105 74 125 C76.6267792 129.58231657 79.25193257 134.16555806 81.875 138.75 C82.21313721 139.3408136 82.55127441 139.9316272 82.8996582 140.54034424 C87.77472971 149.0618414 92.59368683 157.61293288 97.375 166.1875 C101.5508741 173.67599443 105.79500442 181.11116933 110.17773438 188.48022461 C114.47867854 195.74460295 118.57321323 203.12323623 122.68530273 210.49560547 C126.44141734 217.22660352 130.22929768 223.93761079 134.0625 230.625 C138.23389948 237.90240661 142.37777834 245.19461918 146.5 252.5 C153.79208891 265.41633513 161.11977523 278.31201954 168.55859375 291.14453125 C175.64446453 303.37344775 182.61017943 315.65679765 189.44238281 328.02929688 C194.1063719 336.45126776 198.91923179 344.77617797 203.79663086 353.07592773 C208.60622757 361.27782005 213.26518705 369.55829473 217.89526367 377.86254883 C221.52179193 384.36534162 225.17551618 390.85092695 228.875 397.3125 C229.35356445 398.14837646 229.83212891 398.98425293 230.32519531 399.84545898 C231.8827621 402.56404198 233.44134138 405.28204286 235 408 C237.62677917 412.58231652 240.25200886 417.16551444 242.875 421.75 C243.21346954 422.34147827 243.55193909 422.93295654 243.90066528 423.5423584 C248.7516069 432.02309624 253.55136091 440.53091816 258.3125 449.0625 C263.22810262 457.87042366 268.2252136 466.62494692 273.296875 475.34375 C277.7066393 482.92725708 282.04882593 490.54939671 286.38818359 498.17333984 C288.12475166 501.21877836 289.86908673 504.25970494 291.61328125 507.30078125 C292.80494095 509.38787614 293.99635285 511.47511254 295.1875 513.5625 C295.75259277 514.54444336 296.31768555 515.52638672 296.89990234 516.53808594 C297.68228271 517.91335449 297.68228271 517.91335449 298.48046875 519.31640625 C298.94348389 520.12537354 299.40649902 520.93434082 299.88354492 521.76782227 C301.7981727 525.59582178 301.7981727 525.59582178 302 528 C300.94287109 530.56762695 300.94287109 530.56762695 299.2734375 533.48828125 C298.66008545 534.5757666 298.0467334 535.66325195 297.41479492 536.78369141 C296.73510988 537.96010344 296.0551721 539.1363695 295.375 540.3125 C294.68417364 541.52719058 293.99448851 542.74253087 293.3059082 543.95849609 C291.89691002 546.44261247 290.4812988 548.92277043 289.06005859 551.39990234 C287.17396612 554.68995058 285.31157814 557.99282771 283.45703125 561.30078125 C278.26822375 570.55115937 273.00186943 579.7478102 267.59204102 588.87060547 C264.25105328 594.52396004 261.05549413 600.25112173 257.88330078 606.00048828 C254.70193362 611.75894745 251.45894242 617.47977513 248.1875 623.1875 C244.01644493 630.46512909 239.87065283 637.75621207 235.75 645.0625 C230.55040434 654.28010798 225.30391355 663.47037778 220.04376221 672.65350342 C215.18630212 681.13665537 210.38528287 689.64929779 205.625 698.1875 C201.47360687 705.63328391 197.25107593 713.02270019 192.88818359 720.34619141 C188.70123799 727.41998795 184.75193245 734.62381141 180.7800293 741.81982422 C176.31516281 749.90294593 171.74990696 757.91825891 167.0625 765.875 C161.82403538 774.77256012 156.77687881 783.76046323 151.8125 792.8125 C146.6169401 802.28419675 141.34046975 811.69677 135.89453125 821.02734375 C132.2892917 827.2057447 128.73720336 833.41459053 125.1875 839.625 C124.84674438 840.22105042 124.50598877 840.81710083 124.15490723 841.43121338 C118.72115546 850.94076062 113.35265659 860.48563067 108.01293945 870.04833984 C101.93502948 880.92551416 95.74164354 891.7354486 89.54101562 902.54296875 C88.06800109 905.11140263 86.59608182 907.68045867 85.125 910.25 C84.63644531 911.10335937 84.14789062 911.95671875 83.64453125 912.8359375 C79.67656468 919.7824556 75.77227365 926.76363582 71.875 933.75 C68.01317939 940.67194416 64.12022561 947.56594264 60.0625 954.375 C55.46374726 962.09412991 51.12443803 969.95025416 46.78204346 977.8157959 C42.27081349 985.98075633 37.66405647 994.08219291 32.9375 1002.125 C26.32037933 1013.38561561 19.92704454 1024.76367154 13.57470703 1036.17529297 C11.26933169 1040.31067169 8.94849992 1044.43728511 6.625 1048.5625 C6.24947998 1049.22958984 5.87395996 1049.89667969 5.48706055 1050.58398438 C4.65828067 1052.0561249 3.82918471 1053.52808746 3 1055 C2.01 1055 1.02 1055 0 1055 C-0.4650293 1054.17483887 -0.4650293 1054.17483887 -0.93945312 1053.33300781 C-7.90319379 1040.98174435 -14.90710139 1028.65425304 -21.95394897 1016.35025024 C-26.78829161 1007.90603356 -31.57135602 999.43447906 -36.3125 990.9375 C-41.22804141 982.12954288 -46.22521425 973.37505197 -51.296875 964.65625 C-59.02790672 951.36113268 -66.59046137 937.96865022 -74.15063477 924.57592773 C-79.18071577 915.66953635 -84.2535953 906.78805344 -89.33544922 897.91113281 C-91.16542719 894.7106844 -92.99116439 891.50783921 -94.81640625 888.3046875 C-96.16891709 885.93208982 -97.52181788 883.55971489 -98.875 881.1875 C-99.21337891 880.59425934 -99.55175781 880.00101868 -99.90039062 879.38980103 C-104.65259601 871.06255113 -109.46121489 862.76999848 -114.3125 854.5 C-118.94817168 846.59425849 -123.44072795 838.62765479 -127.81762695 830.57617188 C-131.42161468 823.97685822 -135.19098797 817.48277902 -139 811 C-143.81225315 802.80919437 -148.48726526 794.56195923 -153.03173828 786.2199707 C-156.50207984 779.86404078 -160.10039277 773.59110834 -163.74609375 767.33447266 C-167.27541654 761.27092757 -170.74303582 755.17461187 -174.1875 749.0625 C-179.09427747 740.35728388 -184.03616412 731.67275283 -189 723 C-193.88039251 714.47299929 -198.7394928 705.93464396 -203.5625 697.375 C-208.15848672 689.22083002 -212.81354428 681.1024939 -217.5 673 C-222.72309368 663.96970351 -227.89461107 654.91275089 -233.015625 645.82421875 C-237.3144512 638.19929345 -241.65194975 630.59690762 -246 623 C-250.88038597 614.47299611 -255.73956476 605.9346843 -260.5625 597.375 C-265.13509112 589.26089918 -269.77083401 581.18533259 -274.4375 573.125 C-281.27617305 561.31121449 -288.01449479 549.44088829 -294.59130859 537.47900391 C-295.4640004 535.94324782 -296.37703111 534.42879446 -297.35009766 532.95458984 C-298.51953125 531.16796875 -298.51953125 531.16796875 -300 528 C-298.9106968 523.62920863 -297.01147131 519.97748221 -294.76171875 516.09765625 C-294.11315918 514.97198242 -293.46459961 513.84630859 -292.79638672 512.68652344 C-292.09346642 511.47849122 -291.39050314 510.27048401 -290.6875 509.0625 C-289.5925433 507.16719047 -288.49946555 505.27080475 -287.40637207 503.37442017 C-286.66801411 502.09391083 -285.92899794 500.8137808 -285.18933105 499.5340271 C-281.87461428 493.79689673 -278.62024136 488.02668139 -275.375 482.25 C-271.03350684 474.53811073 -266.60570246 466.88175288 -262.125 459.25 C-256.49446243 449.65421797 -251.06095323 439.96029483 -245.68286133 430.22119141 C-239.51175001 419.06765662 -233.13423675 408.03785358 -226.74169922 397.01025391 C-219.91829421 385.21706863 -213.19862247 373.36437485 -206.5 361.5 C-199.19466481 348.56103598 -191.84899425 335.64566407 -184.40625 322.78515625 C-178.17737365 312.02102878 -171.98895224 301.24006878 -165.9375 290.375 C-160.82074424 281.18813028 -155.57394292 272.08701954 -150.24975586 263.01904297 C-145.47018154 254.85768807 -140.84642267 246.61539078 -136.24780273 238.35107422 C-132.27184429 231.22371847 -128.19840947 224.16057955 -124.0625 217.125 C-118.9972598 208.5062441 -114.08143412 199.81359865 -109.25 191.0625 C-104.83426207 183.06602452 -100.36701121 175.11698346 -95.69506836 167.26757812 C-91.74539263 160.61651524 -87.95862578 153.87635032 -84.1652832 147.13525391 C-80.0143757 139.76912639 -75.80028796 132.44143398 -71.5625 125.125 C-66.63942482 116.62081824 -61.78375284 108.08331124 -57 99.5 C-50.3686093 87.60308433 -43.56695899 75.80865297 -36.74462891 64.02050781 C-34.17011402 59.56320328 -31.61402516 55.09549466 -29.0625 50.625 C-28.59287842 49.80233643 -28.12325684 48.97967285 -27.6394043 48.13208008 C-26.09258409 45.42158747 -24.54629891 42.71079002 -23 40 C-20.58037945 35.75933469 -18.16013259 31.51902842 -15.73898315 27.27923584 C-14.72340051 25.50038189 -13.70848363 23.72114935 -12.69360352 21.94189453 C-11.423758 19.71802 -10.15018319 17.49627002 -8.87255859 15.27685547 C-7.58505838 13.02381402 -6.31760663 10.76672994 -5.06884766 8.49267578 C-4.45444824 7.39294434 -3.84004883 6.29321289 -3.20703125 5.16015625 C-2.66151611 4.16765869 -2.11600098 3.17516113 -1.55395508 2.15258789 C-1.0411499 1.44223389 -0.52834473 0.73187988 0 0 Z " fill="#ED1C24" transform="translate(900,0)"/>
<path d="M0 0 C198.33 0 396.66 0 601 0 C605.95 8.91 610.9 17.82 616 27 C619.70279132 33.30985522 619.70279132 33.30985522 623.4296875 39.60546875 C626.60928575 44.99668779 629.641402 50.47013385 632.6875 55.9375 C637.5169154 64.60178806 642.40720411 73.22678187 647.375 81.8125 C652.62373561 90.88470925 657.86027489 99.96354519 663.0625 109.0625 C663.3959845 109.64578064 663.72946899 110.22906128 664.07305908 110.83001709 C669.43320601 120.21084248 674.7261199 129.62844291 679.99462891 139.06103516 C687.95314479 153.3010372 696.09281643 167.4356403 704.25 181.5625 C709.51329813 190.67987537 714.76996701 199.80099799 720 208.9375 C720.33036255 209.51453674 720.6607251 210.09157349 721.00109863 210.68609619 C724.73014362 217.20520981 728.42591219 223.74131352 732.0625 230.3125 C732.39507813 230.91324844 732.72765625 231.51399689 733.0703125 232.13294983 C734.64477413 234.97949831 736.21426777 237.82856812 737.77734375 240.68139648 C741.36658198 247.19706434 745.16245695 253.54180134 749.09008789 259.85864258 C751.37843718 263.6224404 753.48834696 267.46086253 755.56982422 271.34179688 C757.9960043 275.8512282 760.53618117 280.29614416 763.0625 284.75 C764.21358772 286.782526 765.36462809 288.81507882 766.515625 290.84765625 C767.09634766 291.87262207 767.67707031 292.89758789 768.27539062 293.95361328 C769.91016256 296.84130924 771.54177016 299.73076116 773.171875 302.62109375 C790.1624759 332.7756872 790.1624759 332.7756872 807.6640625 362.63500977 C811.26656559 368.6753104 814.65563646 374.81367731 818 381 C823.67083125 391.34112844 829.46822054 401.60854915 835.33325195 411.84057617 C839.01990514 418.27455951 842.67220479 424.72719535 846.3125 431.1875 C851.55038706 440.47484596 856.86177146 449.71809261 862.19799805 458.94921875 C868.85824804 470.47444336 875.46740644 482.02823529 882.05566406 493.59472656 C883.99550978 496.99213592 885.94607023 500.38321149 887.8984375 503.7734375 C889.09915307 505.86968014 890.29968325 507.96602897 891.5 510.0625 C892.33748779 511.50822388 892.33748779 511.50822388 893.19189453 512.9831543 C893.69575684 513.86656494 894.19961914 514.74997559 894.71875 515.66015625 C895.16154297 516.42980713 895.60433594 517.19945801 896.06054688 517.99243164 C897 520 897 520 897 523 C839.67779484 523.13690477 782.35557313 523.26427516 725.0332489 523.33874512 C723.76129133 523.3404018 723.76129133 523.3404018 722.46363764 523.34209196 C704.03629376 523.3660335 685.60894815 523.3881952 667.18159993 523.40852264 C658.14523616 523.4185016 649.10887286 523.42887399 640.07250977 523.43945312 C639.17326826 523.4404992 638.27402675 523.44154527 637.3475355 523.44262304 C608.18432887 523.4767326 579.02124598 523.53683697 549.85811436 523.61037777 C519.89689868 523.68579412 489.93575152 523.7350732 459.97444252 523.75131992 C455.74561295 523.75362526 451.51678361 523.75623036 447.28795433 523.75901794 C446.45563486 523.75955733 445.62331538 523.76009671 444.76577411 523.76065244 C431.35102989 523.77011756 417.93649714 523.80725238 404.52183926 523.85465627 C391.04561335 523.90169008 377.56959773 523.91976008 364.09329257 523.90801102 C356.08006353 523.90191201 348.06760231 523.91827361 340.05451148 523.96638034 C334.08052588 523.99980476 328.10737088 523.99175058 322.1333101 523.96719116 C319.70925934 523.96379345 317.28514503 523.97409362 314.86122052 523.99906546 C311.57848225 524.03093355 308.29956912 524.01402696 305.01689625 523.98438263 C304.06421536 524.00539874 303.11153447 524.02641485 302.12998447 524.04806781 C299.5150771 523.99428812 297.46559657 523.87685927 295 523 C292.70403065 520.58987035 291.36193589 518.01401056 290 515 C289.50266357 514.15018555 289.00532715 513.30037109 288.49291992 512.42480469 C288.07631104 511.68133789 287.65970215 510.93787109 287.23046875 510.171875 C286.74263916 509.30449707 286.25480957 508.43711914 285.75219727 507.54345703 C285.23584717 506.62161621 284.71949707 505.69977539 284.1875 504.75 C279.18323518 495.85336835 274.13731147 486.98152047 269.0625 478.125 C263.8398689 469.0097938 258.67528353 459.86497087 253.5625 450.6875 C249.20125915 442.8605378 244.7585084 435.10757614 240.0625 427.4765625 C237.79170932 423.72124242 235.71950496 419.86058207 233.62890625 416.00292969 C225.99050418 401.92134314 218.19014693 387.93009884 210.0625 374.125 C204.48759172 364.65320704 199.13400549 355.07519942 193.84802246 345.44067383 C188.63466816 335.939066 183.32638522 326.49817419 177.92578125 317.1015625 C174.75494425 311.58398422 171.62640071 306.04284407 168.5 300.5 C164.37809924 293.1944379 160.23374568 285.90249246 156.0625 278.625 C151.05309549 269.8817953 146.12486534 261.09464767 141.21118164 252.29736328 C137.50990872 245.67735773 133.77379164 239.07890948 130 232.5 C125.61772382 224.86030998 121.29477447 217.18921134 117 209.5 C112.20193845 200.91082081 107.36118746 192.34824194 102.46875 183.8125 C98.7881938 177.38861146 95.13822951 170.94794596 91.5 164.5 C87.35461667 157.15435859 83.19061586 149.81993148 79 142.5 C73.17376928 132.32112499 67.40096248 122.11251308 61.63671875 111.8984375 C60.02001495 109.03544414 58.40104573 106.17374501 56.78125 103.3125 C51.14104603 93.34751163 45.52398526 83.37021267 39.9375 73.375 C33.69507275 62.20947926 27.36629007 51.09525525 21 40 C18.73001336 36.0405781 16.46591694 32.07786208 14.20751953 28.11181641 C13.27415753 26.4794708 12.33686737 24.84937091 11.39794922 23.22021484 C9.59280201 20.0876222 7.79609568 16.95028954 6 13.8125 C5.410979 12.79494629 4.82195801 11.77739258 4.21508789 10.72900391 C3.66973389 9.77300293 3.12437988 8.81700195 2.5625 7.83203125 C1.82193359 6.54389526 1.82193359 6.54389526 1.06640625 5.22973633 C0 3 0 3 0 0 Z " fill="#ED1C24" transform="translate(905,1061)"/>
<path d="M0 0 C198.33 0 396.66 0 601 0 C600.2078828 3.96058598 599.86798743 5.63427765 597.92578125 8.8203125 C597.50490234 9.5215625 597.08402344 10.2228125 596.65039062 10.9453125 C595.98813477 12.02425781 595.98813477 12.02425781 595.3125 13.125 C591.930614 18.70123951 588.69485087 24.32639256 585.59155273 30.06298828 C582.7240494 35.35460741 579.7966492 40.61313946 576.875 45.875 C576.54985413 46.46059692 576.22470825 47.04619385 575.88970947 47.64953613 C570.64796975 57.08498676 565.32872731 66.47386431 559.95703125 75.8359375 C555.14074756 84.23347787 550.39454878 92.67082329 545.63671875 101.1015625 C544.02001495 103.96455586 542.40104573 106.82625499 540.78125 109.6875 C539.70826827 111.58329651 538.63535168 113.47912989 537.5625 115.375 C537.03108398 116.31408203 536.49966797 117.25316406 535.95214844 118.22070312 C533.09512755 123.27503593 530.2505704 128.33600463 527.421875 133.40625 C517.00420157 152.07922573 517.00420157 152.07922573 512.0625 160.375 C507.42475423 168.16300406 503.03496046 176.0846892 498.64828491 184.01593018 C493.96730464 192.47832729 489.22896739 200.9042734 484.41625977 209.29248047 C480.77456325 215.64001173 477.16077459 222.00275355 473.5625 228.375 C473.02294678 229.33035645 472.48339355 230.28571289 471.92749023 231.27001953 C470.28459465 234.17978811 468.64220315 237.08984058 467 240 C460.69081238 251.18055444 454.37717762 262.3580472 448 273.5 C440.45449228 286.68572201 432.95460759 299.89772885 425.55859375 313.16796875 C419.82035977 323.46093098 414.03196404 333.71406726 408.0625 343.875 C401.12793938 355.68562097 394.48431672 367.64889735 387.86132812 379.63623047 C380.42019987 393.08374688 372.91736033 406.49357026 365.17602539 419.77075195 C361.43691246 426.20093945 357.80719269 432.68949146 354.1875 439.1875 C349.57080441 447.47245379 344.86860271 455.69852456 340.0625 463.875 C334.36251619 473.57604197 328.86700148 483.37953756 323.42553711 493.22753906 C319.55243306 500.22905696 315.63280353 507.19963835 311.625 514.125 C311.16649658 514.9188208 310.70799316 515.7126416 310.2355957 516.53051758 C307.13043295 521.86956705 307.13043295 521.86956705 306 523 C302.81802507 523.09918993 299.65771562 523.1317276 296.47529507 523.12304783 C295.45774026 523.12420167 294.44018546 523.12535552 293.39179567 523.12654433 C289.93634704 523.12921938 286.48094377 523.12468157 283.02549744 523.12025452 C280.54150445 523.12069004 278.05751151 523.12156459 275.57351881 523.12284368 C270.14927276 523.12462138 264.72504109 523.12326386 259.30079651 523.11920547 C251.23505863 523.11318744 243.16932769 523.11286809 235.10358797 523.11374746 C221.53783135 523.11506354 207.97207959 523.11171172 194.40632439 523.10573006 C180.96806756 523.09981976 167.52981276 523.09596547 154.09155464 523.09487724 C153.25704262 523.0948085 152.4225306 523.09473976 151.56273033 523.09466894 C147.32493226 523.09433062 143.08713418 523.09402923 138.8493361 523.09374207 C108.80702672 523.09163979 78.76471999 523.08489726 48.72241211 523.07543945 C19.53068048 523.06626001 -9.66105042 523.05917395 -38.8527832 523.05493164 C-40.2017184 523.05473435 -40.2017184 523.05473435 -41.57790482 523.05453308 C-50.60867195 523.05321459 -59.63943908 523.05193877 -68.67020622 523.05069422 C-87.0680963 523.04815778 -105.46598633 523.04533652 -123.86387634 523.04234314 C-124.70984338 523.04220585 -125.55581043 523.04206856 -126.42741283 523.04192711 C-182.95160966 523.03272128 -239.475805 523.01685473 -296 523 C-295.30445727 519.17843983 -294.31153361 516.38962671 -292.375 513.0078125 C-291.8375415 512.06260742 -291.30008301 511.11740234 -290.74633789 510.14355469 C-290.17004639 509.14743164 -289.59375488 508.15130859 -289 507.125 C-288.41275146 506.09793945 -287.82550293 505.07087891 -287.22045898 504.01269531 C-283.27328153 497.13331348 -279.24473308 490.30751715 -275.09765625 483.546875 C-272.7938857 479.72483912 -270.69028835 475.79629662 -268.56420898 471.87353516 C-266.08925953 467.32692129 -263.54752666 462.81874383 -261 458.3125 C-260.4438501 457.32773682 -259.8877002 456.34297363 -259.31469727 455.32836914 C-255.25359757 448.15948753 -251.11035732 441.04176069 -246.9375 433.9375 C-241.87787448 425.32019418 -237.01841979 416.61546888 -232.27075195 407.82299805 C-226.72425862 397.58051725 -220.77845207 387.58912545 -214.75 377.625 C-212.8321464 374.44133414 -211.01025557 371.22224428 -209.2421875 367.953125 C-205.99873306 361.98457187 -202.69588064 356.05075935 -199.375 350.125 C-198.76599854 349.03783691 -198.15699707 347.95067383 -197.52954102 346.83056641 C-193.21359921 339.13719947 -188.85668336 331.46827067 -184.47021484 323.81494141 C-180.78906211 317.39029956 -177.13882172 310.94870184 -173.5 304.5 C-166.19502431 291.56083877 -158.84899069 278.64565791 -151.40625 265.78515625 C-145.20067538 255.06151618 -139.03249416 244.32215121 -133 233.5 C-127.6668205 223.93345913 -122.23597508 214.42793089 -116.75048828 204.94799805 C-103.96004227 182.84295019 -91.36433711 160.62725903 -78.83203125 138.375 C-72.48283053 127.1104767 -66.06442187 115.88877153 -59.58862305 104.6965332 C-54.95307319 96.67633403 -50.38692992 88.61918503 -45.84594727 80.54516602 C-41.94831089 73.63292821 -37.95716228 66.77934949 -33.9375 59.9375 C-28.87830015 51.32114845 -24.01762927 42.61814617 -19.27294922 33.82519531 C-15.77971683 27.37089806 -12.1484551 21.01474343 -8.38378906 14.71508789 C-5.48119383 9.85756842 -2.75311106 4.95559991 0 0 Z " fill="#ED1C24" transform="translate(296,1061)"/>
<path d="M0 0 C17.82 0 35.64 0 54 0 C56.92875 7.46625 59.8575 14.9325 62.875 22.625 C64.33353394 26.34305908 64.33353394 26.34305908 65.8215332 30.13623047 C70.29787513 41.54914653 74.76970366 52.96379835 79.23046875 64.3828125 C79.64169983 65.43518097 80.05293091 66.48754944 80.47662354 67.57180786 C82.43545928 72.58462392 84.39324199 77.597846 86.34912109 82.61181641 C87.05691357 84.42352315 87.76475585 86.23521043 88.47265625 88.046875 C88.78744431 88.85512726 89.10223236 89.66337952 89.42655945 90.49612427 C91.20210991 95.03606603 93.0548539 99.52998671 95 104 C95.69838989 102.1897937 95.69838989 102.1897937 96.41088867 100.34301758 C106.04800863 75.37598118 115.76392892 50.44189483 125.625 25.5625 C126.32150162 23.80409286 126.32150162 23.80409286 127.03207397 22.01016235 C128.34564688 18.69507672 129.66071902 15.38059121 130.9765625 12.06640625 C131.56744911 10.57605865 131.56744911 10.57605865 132.17027283 9.05560303 C132.52996658 8.15110413 132.88966034 7.24660522 133.26025391 6.31469727 C133.57378815 5.52539322 133.88732239 4.73608917 134.21035767 3.92286682 C135 2 135 2 136 0 C153.16 0 170.32 0 188 0 C188 79.86 188 159.72 188 242 C172.49 242 156.98 242 141 242 C140.67 195.47 140.34 148.94 140 101 C134.72 114.53 129.44 128.06 124 142 C116.8125 160 116.8125 160 113.4140625 168.46484375 C109.22457157 178.91431231 105.10660267 189.39182122 100.99731445 199.87304688 C100.73516144 200.54077621 100.47300842 201.20850555 100.20291138 201.89646912 C99.49607898 203.69703572 98.79035836 205.49803865 98.0847168 207.29907227 C97 210 97 210 96 212 C93 211 93 211 91.38452148 207.82104492 C90.78531222 206.37887013 90.19849172 204.93151371 89.62109375 203.48046875 C89.2969046 202.69138123 88.97271545 201.9022937 88.63870239 201.08929443 C87.56120652 198.4594902 86.49948198 195.82360312 85.4375 193.1875 C84.68519646 191.34340961 83.93184278 189.49974731 83.17749023 187.65649414 C81.5885575 183.7688532 80.00607848 179.87867567 78.42871094 175.98632812 C76.0406729 170.09505051 73.63603096 164.21066541 71.2265625 158.328125 C66.65757171 147.17320155 66.65757171 147.17320155 64.41772461 141.6784668 C59.01059633 128.42355805 53.50639664 115.21535194 48 102 C47.67 148.2 47.34 194.4 47 242 C31.49 242 15.98 242 0 242 C0 162.14 0 82.28 0 0 Z " fill="#000000" transform="translate(91,1751)"/>
<path d="M0 0 C126.39464286 0 126.39464286 0 145.6875 18.25 C157.86792773 30.96843249 162.84299793 46.62510409 163 64 C162.38220541 76.67922358 157.55962956 89.52640589 149 99 C148.34 99 147.68 99 147 99 C147 99.66 147 100.32 147 101 C146.34 101 145.68 101 145 101 C145 101.66 145 102.32 145 103 C143.1015625 104.7265625 143.1015625 104.7265625 140.625 106.625 C139.40683594 107.57246094 139.40683594 107.57246094 138.1640625 108.5390625 C136 110 136 110 134 110 C134 110.66 134 111.32 134 112 C135.09441406 112.38671875 135.09441406 112.38671875 136.2109375 112.78125 C139.10562533 114.04615561 141.17811214 115.51558235 143.625 117.5 C146.04787381 119.45152976 148.40757162 121.27171442 151 123 C151 123.66 151 124.32 151 125 C151.66 125 152.32 125 153 125 C168.26708131 143.59644481 171.45388652 164.55607985 170 188 C168.32122657 201.57008526 161.59401936 212.52526685 152 222 C151.47019531 222.55171875 150.94039062 223.1034375 150.39453125 223.671875 C115.52940379 257.01333365 26.94205654 242 0 242 C0 162.14 0 82.28 0 0 Z M47 43 C47 94.48 47 145.96 47 199 C84.71752786 203.25560981 84.71752786 203.25560981 116.20703125 190.0625 C122.48304802 182.84302973 124.41651198 174.44007534 124.265625 165.09765625 C123.44130983 155.48468669 120.25803624 148.32960975 113.8046875 141.21875 C105.25158534 134.45250763 97.61681532 133.24197701 86.875 133.1875 C82.62625 133.125625 78.3775 133.06375 74 133 C74 119.47 74 105.94 74 92 C86.625 91.6875 86.625 91.6875 90.57275391 91.61206055 C98.1562968 91.37078201 103.18959488 90.87576338 108.6875 85.25 C113.75203481 78.1322754 115.85709317 70.69559977 115 62 C113.69290292 55.92765925 111.55733153 51.35478346 107 47 C89.07174793 38.03587397 67.04439517 43 47 43 Z " fill="#000000" transform="translate(969,1751)"/>
<path d="M0 0 C15.18 0 30.36 0 46 0 C47.82175581 1.82175581 47.1199688 4.34374982 47.12442875 6.76773167 C47.11903159 8.01301089 47.11903159 8.01301089 47.11352539 9.28344727 C47.11364593 10.16575233 47.11376646 11.04805738 47.11389065 11.95709896 C47.11314137 14.82689328 47.10551245 17.69662348 47.09765625 20.56640625 C47.09618688 22.33264128 47.09516614 24.09887675 47.09460449 25.8651123 C47.08935106 32.43091482 47.07538998 38.99670803 47.0625 45.5625 C47.041875 60.226875 47.02125 74.89125 47 90 C95.51 90.495 95.51 90.495 145 91 C144.96038315 61.42589428 144.96038315 61.42589428 144.90991211 31.85180664 C144.90539551 26.14343262 144.90539551 26.14343262 144.90455627 23.47459412 C144.90301654 21.60296898 144.89949102 19.73134486 144.89442444 17.85972595 C144.88714841 15.0315477 144.88609253 12.20343029 144.88647461 9.37524414 C144.8828765 8.53568963 144.87927839 7.69613512 144.87557125 6.83113956 C144.88597366 1.11402634 144.88597366 1.11402634 146 0 C161.18 0 176.36 0 192 0 C192 79.86 192 159.72 192 242 C176.82 242 161.64 242 146 242 C145 241 145 241 144.87695217 239.20589352 C144.87787396 238.41776052 144.87879576 237.62962751 144.87974548 236.81761169 C144.87768349 235.46507797 144.87768349 235.46507797 144.87557983 234.08522034 C144.87917511 233.08828659 144.88277039 232.09135284 144.88647461 231.06420898 C144.88632858 230.02043091 144.88618256 228.97665283 144.8860321 227.90124512 C144.88673174 224.43284057 144.89452647 220.96448897 144.90234375 217.49609375 C144.90420775 215.09855682 144.90563174 212.7010195 144.90663147 210.30348206 C144.91045806 203.97904416 144.92028954 197.65462906 144.93133545 191.3302002 C144.9433404 183.74948854 144.94795114 176.16876928 144.95378876 168.58805084 C144.96350122 157.05868468 144.98265681 145.52936859 145 134 C112.66 134 80.32 134 47 134 C47.01160156 141.71246094 47.02320313 149.42492188 47.03515625 157.37109375 C47.04026282 162.24283938 47.04507658 167.11458173 47.04882812 171.98632812 C47.05481728 179.72730185 47.0619195 187.4682638 47.07543945 195.20922852 C47.08626592 201.446703 47.09227632 207.68416487 47.09487724 213.92164803 C47.09673193 216.30720277 47.10035336 218.69275679 47.10573006 221.0783062 C47.11293729 224.40695591 47.11399108 227.73555279 47.11352539 231.06420898 C47.11712067 232.06114273 47.12071594 233.05807648 47.12442017 234.08522034 C47.1230455 234.98690948 47.12167084 235.88859863 47.12025452 236.81761169 C47.12117631 237.6057447 47.1220981 238.3938777 47.12304783 239.20589352 C47 241 47 241 46 242 C30.82 242 15.64 242 0 242 C0 162.14 0 82.28 0 0 Z " fill="#000000" transform="translate(1441,1751)"/>
<path d="M0 0 C15.51 0 31.02 0 47 0 C47.0093457 5.3094873 47.01869141 10.61897461 47.02832031 16.08935547 C47.06208682 33.63153467 47.1174334 51.17359675 47.18390274 68.71568108 C47.22367633 79.35147218 47.25607739 89.98718947 47.27099609 100.62304688 C47.28402128 109.89554327 47.31100818 119.16787713 47.35461307 128.44028199 C47.37720827 133.34790958 47.39291184 138.25533686 47.39188385 143.16302109 C47.3911361 147.78748896 47.40913319 152.41151435 47.44116783 157.03586769 C47.44964817 158.72805703 47.45142949 160.4202961 47.44580269 162.11249733 C47.41313053 173.45375768 48.03389738 183.69285982 56.171875 192.40625 C65.02981358 200.12855543 76.23685616 204.41765773 87.9296875 204.27734375 C98.92501575 203.28412708 108.4984622 198.06953196 115.875 190 C121.69472316 182.92741977 123.11298902 176.76861752 123.15821838 167.75505066 C123.16315636 167.03615687 123.16809434 166.31726308 123.17318195 165.57658464 C123.18850961 163.17369866 123.1969047 160.7708393 123.20532227 158.36791992 C123.21490451 156.64306404 123.2249148 154.91821049 123.23532104 153.19335938 C123.26233861 148.51406755 123.28336522 143.83476568 123.30332303 139.15543914 C123.325202 134.26403331 123.35258134 129.37265837 123.37937927 124.48127747 C123.42928031 115.22018543 123.47422875 105.95907624 123.51740164 96.69795066 C123.56679613 86.15387951 123.62170606 75.60983934 123.67708123 65.06579816 C123.79086154 43.37722627 123.8969811 21.68862586 124 0 C139.18 0 154.36 0 170 0 C170.11310536 23.45352796 170.20511088 46.90683323 170.25906086 70.36056519 C170.28478265 81.25186973 170.31981739 92.14299211 170.37719727 103.03417969 C170.42721732 112.53298319 170.45933474 122.03165468 170.47044247 131.53058624 C170.47692986 136.55477758 170.49204993 141.57859143 170.52865028 146.60266113 C170.56290448 151.34365104 170.57299435 156.08411247 170.56553841 160.82521439 C170.56689994 162.55363474 170.57665556 164.28207509 170.59602737 166.01038742 C170.84241742 189.15241442 162.66614702 207.93907137 146.625 224.6875 C128.27939757 242.4413088 104.81155644 249.60182722 79.73828125 249.28125 C67.80539566 248.88421504 56.511192 245.67195861 46 240 C44.50533203 239.19369141 44.50533203 239.19369141 42.98046875 238.37109375 C35.51695864 234.17462957 27.7254879 229.49245357 22 223 C22 222.34 22 221.68 22 221 C21.34 221 20.68 221 20 221 C4.37747088 202.46431189 -0.50476955 182.82397602 -0.34057617 159.04907227 C-0.3397277 157.3030397 -0.34020933 155.55700607 -0.34190369 153.81097412 C-0.34275646 149.11976687 -0.3252484 144.4287947 -0.30418181 139.73764157 C-0.28529396 134.81696374 -0.28365511 129.89627917 -0.28010559 124.97557068 C-0.27082042 115.67932743 -0.24625493 106.38319135 -0.21605712 97.08699507 C-0.1824026 86.49436088 -0.16599944 75.90172129 -0.15097082 65.30904686 C-0.11970181 43.53929167 -0.06473441 21.76968318 0 0 Z " fill="#000000" transform="translate(758,1751)"/>
<path d="M0 0 C14.14160293 11.69737526 22.02887953 26.88070408 24.53125 45.09375 C24.74568663 49.14195226 24.72273754 53.16654047 24.65625 57.21875 C24.615 60.8075 24.57375 64.39625 24.53125 68.09375 C10.67125 68.09375 -3.18875 68.09375 -17.46875 68.09375 C-17.79875 62.81375 -18.12875 57.53375 -18.46875 52.09375 C-20.73509534 43.24421103 -24.637994 36.15018102 -32.46875 31.09375 C-40.85006445 27.44316116 -48.68869371 26.91919456 -57.296875 30.125 C-63.46768038 32.87744557 -66.92574655 35.94498156 -69.7421875 42.12890625 C-71.99913021 48.23235885 -72.69678143 55.12934418 -70.75 61.4140625 C-64.59480123 74.46904055 -48.94404993 80.92648089 -36.84375 87.40625 C18.12012949 116.84964921 18.12012949 116.84964921 27.69140625 147.8515625 C32.35567178 168.28755382 29.58718977 188.22372214 18.53125 206.09375 C15.84447308 210.01502113 12.93098429 213.76454962 9.53125 217.09375 C8.87125 217.09375 8.21125 217.09375 7.53125 217.09375 C7.53125 217.75375 7.53125 218.41375 7.53125 219.09375 C-9.24750365 233.49675092 -31.46543256 239.34249178 -53.18017578 237.81787109 C-70.08705343 236.25765317 -88.38235341 229.47068497 -100.46875 217.09375 C-100.46875 216.43375 -100.46875 215.77375 -100.46875 215.09375 C-101.45875 214.76375 -102.44875 214.43375 -103.46875 214.09375 C-119.4482657 196.20364003 -122.46875 176.34957612 -122.46875 153.09375 C-108.93875 153.09375 -95.40875 153.09375 -81.46875 153.09375 C-80.47875 159.36375 -79.48875 165.63375 -78.46875 172.09375 C-73.91970491 183.22693931 -67.40665893 190.73540392 -56.21875 195.46875 C-45.48145795 197.25829867 -35.84476687 196.56406325 -26.40625 190.84375 C-20.50783256 186.3690885 -16.88284446 179.30851763 -15.46875 172.09375 C-14.58904987 163.39825256 -16.40530771 155.52695756 -21.53125 148.40625 C-28.18184251 140.6375289 -37.13644699 135.99320846 -46.15625 131.46875 C-104.22608336 101.68180549 -104.22608336 101.68180549 -114.59375 75.22265625 C-120.23066221 57.41760182 -117.93998361 37.62186341 -109.46875 21.09375 C-100.11919952 3.93732486 -85.81229128 -6.1424822 -67.3359375 -11.87890625 C-44.6233071 -17.65102863 -18.75932872 -14.44683936 0 0 Z " fill="#000000" transform="translate(1377.46875,1759.90625)"/>
<path d="M0 0 C12.0112648 9.93524373 18.39915461 21.21175021 22.53125 36.09375 C22.77875 36.97289062 23.02625 37.85203125 23.28125 38.7578125 C25.50184312 48.47290741 24.53125 58.03026616 24.53125 68.09375 C10.67125 68.09375 -3.18875 68.09375 -17.46875 68.09375 C-17.96375 60.66875 -17.96375 60.66875 -18.46875 53.09375 C-20.415836 44.17814567 -23.63433468 37.38496503 -31.40625 32.21875 C-39.30500107 27.76727169 -46.93222252 26.99574949 -55.59375 29.28125 C-61.90192507 31.37107487 -65.67961561 34.20312458 -68.78125 40.21875 C-72.36858843 47.99888481 -72.71599313 56.17977278 -69.96875 64.34375 C-69.48725263 65.60099313 -68.99454382 66.85437885 -68.46875 68.09375 C-67.80875 68.09375 -67.14875 68.09375 -66.46875 68.09375 C-64.79781896 69.75614136 -63.13181308 71.42348752 -61.46875 73.09375 C-53.78065266 78.59731733 -45.21954816 82.88242679 -36.90625 87.34375 C-0.99392106 106.63410561 -0.99392106 106.63410561 10.53125 119.09375 C11.06105469 119.64160156 11.59085938 120.18945312 12.13671875 120.75390625 C22.46998814 131.86274111 28.9224219 145.84767968 29.53125 161.09375 C29.5828125 162.04378906 29.634375 162.99382812 29.6875 163.97265625 C30.22164013 182.11116478 25.18103426 200.54953655 12.53125 214.09375 C9.99313464 216.60979479 7.33681648 218.88147536 4.53125 221.09375 C3.79132813 221.6815625 3.05140625 222.269375 2.2890625 222.875 C-15.03781509 235.82755112 -36.90398892 239.72175273 -58.09375 237.53125 C-77.84960243 234.34414133 -95.73811052 224.13038335 -108.15625 208.40625 C-120.69570436 191.03046158 -122.46875 174.32804611 -122.46875 153.09375 C-108.93875 153.09375 -95.40875 153.09375 -81.46875 153.09375 C-80.80875 158.37375 -80.14875 163.65375 -79.46875 169.09375 C-75.87114667 179.78377132 -71.29204271 187.20059627 -61.55859375 193.0859375 C-52.68101325 197.36708847 -42.77487982 197.55072889 -33.46875 194.40625 C-25.78582938 191.17311478 -21.24247441 186.5130346 -17.46875 179.09375 C-14.18561114 170.49505299 -14.81184216 163.15005733 -18.234375 154.72265625 C-21.44718231 147.88019005 -25.30448603 143.92289216 -31.703125 139.87890625 C-32.31511749 139.48920151 -32.92710999 139.09949677 -33.55764771 138.69798279 C-39.95209371 134.69032009 -46.58851273 131.18362738 -53.28875732 127.72042847 C-84.3892825 111.61501379 -84.3892825 111.61501379 -97.46875 100.09375 C-98.16226563 99.5059375 -98.85578125 98.918125 -99.5703125 98.3125 C-110.74538756 88.12980612 -116.84477966 73.51465959 -117.59375 58.60546875 C-118.07954618 37.62514629 -111.4572134 19.763176 -97.21875 4.46875 C-72.16856379 -19.6867867 -27.19229518 -20.94119284 0 0 Z " fill="#000000" transform="translate(686.46875,1759.90625)"/>
<path d="M0 0 C46.53 0 93.06 0 141 0 C141 13.86 141 27.72 141 42 C140.67 42.33 140.34 42.66 140 43 C125.15 43 110.3 43 95 43 C95 108.67 95 174.34 95 242 C79.16 242 63.32 242 47 242 C47 176.33 47 110.66 47 43 C31.82 43 16.64 43 1 43 C0.67 42.67 0.34 42.34 0 42 C0 28.14 0 14.28 0 0 Z " fill="#000000" transform="translate(407,1751)"/>
<path d="M0 0 C15.51 0 31.02 0 47 0 C47 79.86 47 159.72 47 242 C31.49 242 15.98 242 0 242 C0 162.14 0 82.28 0 0 Z " fill="#000000" transform="translate(1676,1751)"/>
<path d="M0 0 C15.51 0 31.02 0 47 0 C47 79.86 47 159.72 47 242 C31.49 242 15.98 242 0 242 C0 162.14 0 82.28 0 0 Z " fill="#000000" transform="translate(1173,1751)"/>
<path d="M0 0 C15.18 0 30.36 0 46 0 C47.930854 1.930854 47.12573983 4.83589202 47.13374341 7.40596676 C47.13151268 8.33619939 47.12928196 9.26643202 47.12698364 10.22485352 C47.12854363 11.20505494 47.13010362 12.18525637 47.13171089 13.19516087 C47.13572546 16.50642426 47.13252948 19.81764245 47.12939453 23.12890625 C47.13074837 25.49193346 47.1325282 27.85496046 47.13470459 30.21798706 C47.13880491 35.98606985 47.13818566 41.75413808 47.13529195 47.52222133 C47.13303806 52.20802209 47.13272533 56.89381921 47.13381577 61.57962036 C47.133969 62.24528285 47.13412223 62.91094533 47.13428011 63.59677941 C47.13459982 64.94885214 47.13492403 66.30092488 47.1352527 67.65299761 C47.1381076 80.34601932 47.13482031 93.03903382 47.12945233 105.73205435 C47.12498428 116.63484974 47.12576021 127.53763449 47.13037109 138.44042969 C47.13571668 151.08651244 47.13783291 163.73258887 47.13475883 176.3786726 C47.13444026 177.72590828 47.13412589 179.07314396 47.13381577 180.42037964 C47.13358435 181.41480579 47.13358435 181.41480579 47.13334826 182.42932135 C47.13248306 187.11215368 47.13394605 191.79498201 47.13629532 196.47781372 C47.13917274 202.7748297 47.13720072 209.07182548 47.13140106 215.36883926 C47.13007277 217.68727713 47.13046874 220.00571669 47.13266373 222.3241539 C47.13537253 225.47450814 47.13199742 228.62479651 47.12698364 231.77514648 C47.12921436 232.70537911 47.13144509 233.63561174 47.13374341 234.59403324 C47.11414981 240.88585019 47.11414981 240.88585019 46 242 C30.82 242 15.64 242 0 242 C0 162.14 0 82.28 0 0 Z " fill="#000000" transform="translate(330,1751)"/>
</svg>
