<svg xmlns="http://www.w3.org/2000/svg" width="2000" height="1409" viewBox="0 0 2000 1409" version="1.1"><path d="M 898.449 16.976 C 873.840 21.399, 851.761 28.769, 828.851 40.209 C 812.023 48.613, 807.498 52.147, 798.749 63.721 C 793.116 71.174, 789.397 73.250, 769.577 80.010 C 744.870 88.437, 728.648 95.310, 726.034 98.459 C 724.191 100.680, 725.874 105.948, 730.927 113.765 C 736.039 121.675, 738.434 124, 741.472 124 C 742.831 124, 750.593 121.467, 758.722 118.371 C 774.752 112.265, 807.801 100.977, 809.469 101.038 C 810.036 101.059, 802.400 104.141, 792.500 107.888 C 777.277 113.650, 741.354 128.543, 740.115 129.606 C 739.588 130.058, 742.072 135.927, 743.046 136.528 C 743.478 136.795, 743.313 135.641, 742.680 133.962 C 741.257 130.192, 741.537 129.981, 752.914 126.255 C 759.354 124.146, 761.429 123.804, 761.762 124.796 C 762.976 128.413, 770.215 137.620, 774.505 141.004 L 779.366 144.838 787.369 140.814 C 798.902 135.016, 812.053 131.810, 825.013 131.639 C 835.158 131.505, 835.769 131.622, 842.513 135 C 850.708 139.105, 856.474 145.630, 863.212 158.425 C 867.155 165.914, 867.465 167.068, 867.482 174.324 C 867.500 182.063, 867.460 182.186, 863.840 185.505 C 859.736 189.269, 851.651 192.036, 836.132 194.986 C 816.957 198.632, 801.142 198.420, 792.722 194.404 L 789.325 192.785 783.913 196.888 C 780.936 199.145, 778.163 200.993, 777.750 200.996 C 777.337 200.998, 777 201.664, 777 202.476 C 777 203.537, 778.196 203.105, 781.250 200.943 C 783.587 199.288, 786.421 197.283, 787.546 196.486 C 789.354 195.206, 790.169 195.255, 794.546 196.905 C 797.271 197.932, 802.342 199.096, 805.816 199.492 C 811.148 200.099, 812.025 200.468, 811.440 201.856 C 811.059 202.760, 810.524 206.949, 810.250 211.164 C 809.679 219.963, 812.157 230.005, 816.465 236.353 L 818.979 240.058 816.424 241.029 C 812.328 242.586, 808.813 242.149, 804 239.484 L 799.500 236.992 802.500 239.512 C 804.150 240.897, 807.130 242.528, 809.122 243.135 C 814.105 244.655, 817.968 243.270, 832.047 234.918 C 846.885 226.115, 850.305 224.715, 857 224.697 C 863.925 224.680, 869.393 227.368, 874.702 233.399 C 882.158 241.870, 883.145 252.502, 877.508 263.616 C 870.087 278.244, 847.151 307.119, 840.582 310.102 C 831.012 314.448, 835.007 316.095, 744.691 270.565 C 660.680 228.212, 647.035 221.853, 630.788 217.484 C 610.590 212.052, 582.129 210.521, 556.682 213.498 C 543.041 215.094, 541.733 215.497, 538.298 219.172 C 533.761 224.024, 531.278 234.768, 534.250 236.691 C 534.938 237.136, 545.625 237.788, 558 238.141 C 575.943 238.652, 583.419 239.315, 594.911 241.414 C 620.141 246.023, 637.509 251.071, 653.305 258.386 C 661.766 262.304, 663.455 262.811, 660.441 260.532 C 656.348 257.436, 660.844 259.334, 680.333 268.927 C 727.600 292.194, 847.053 356.712, 892.903 383.739 C 944.344 414.062, 991.960 446.068, 1031 476.563 C 1119.281 545.523, 1198.085 638.181, 1275.815 764.416 L 1286.847 782.333 1284.516 784.166 C 1283.234 785.175, 1281.868 786, 1281.481 786 C 1281.095 786, 1281.841 785.139, 1283.139 784.086 C 1284.438 783.033, 1285.239 781.910, 1284.921 781.590 C 1284.602 781.270, 1283.397 782.019, 1282.243 783.254 L 1280.144 785.500 1285.193 794 C 1299.218 817.609, 1321.104 856.218, 1322.662 860.100 C 1325.182 866.376, 1325.062 875.087, 1322.408 878.674 C 1318.206 884.350, 1315.130 885.410, 1270.879 896.421 C 1216.145 910.039, 1198.598 915.059, 1188.296 920.043 C 1177.391 925.319, 1175.901 927.451, 1171.509 944.050 C 1169.552 951.448, 1167.146 958.625, 1166.161 960 C 1163.173 964.173, 1157.674 966.213, 1147.916 966.769 C 1137.798 967.346, 1136 966.561, 1136 961.570 C 1136 958.774, 1138.942 940.924, 1140.544 934 L 1141.123 931.500 1138.639 934 C 1135.675 936.983, 1131.028 955.887, 1130.244 968.149 C 1129.584 978.476, 1129.675 978.519, 1147.679 976.263 C 1174.480 972.907, 1303.231 975.130, 1340.688 979.596 C 1346.704 980.314, 1347.443 979.762, 1354.987 968.938 C 1357.454 965.397, 1367.293 954.676, 1376.851 945.113 L 1394.229 927.726 1393.743 923.613 C 1392.206 910.626, 1357.164 840.214, 1324.013 783.500 C 1274.172 698.232, 1228.518 633.887, 1137.058 520 C 1121.378 500.475, 1100.059 473.925, 1089.681 461 C 1079.303 448.075, 1069.012 434.477, 1066.812 430.782 C 1053.554 408.523, 1057.521 392.072, 1078.103 383.960 C 1083.390 381.875, 1102.930 376.885, 1150.075 365.579 C 1175.118 359.573, 1184.388 356.073, 1187.748 351.353 C 1191.889 345.538, 1192.507 340.812, 1192.373 316 C 1192.120 269.492, 1183.785 198.475, 1176.912 184.275 C 1173.761 177.765, 1172.971 176.973, 1151.500 158.807 C 1135.457 145.233, 1114.446 123.750, 1107.148 113.458 C 1099 101.969, 1092.671 89.362, 1089.483 78.277 C 1088.095 73.449, 1086.134 68.375, 1085.124 67 C 1078.525 58.016, 1024.420 38.127, 965.500 23.027 C 931.901 14.416, 919.117 13.262, 898.449 16.976 M 855.500 54.459 C 834.700 59.792, 830.812 61.097, 828.336 63.573 C 827.051 64.858, 826 66.792, 826 67.871 C 826 68.950, 824.820 70.693, 823.378 71.743 C 820.438 73.885, 820.693 77.425, 823.847 78.250 C 824.826 78.506, 832.574 76.163, 841.064 73.044 C 849.554 69.925, 859.986 66.119, 864.247 64.586 C 871.192 62.088, 872.079 61.473, 872.811 58.650 C 874.025 53.963, 873.172 50.988, 870.633 51.062 C 869.460 51.097, 862.650 52.625, 855.500 54.459 M 1102.145 76.345 C 1100.965 77.601, 1100 79.392, 1100 80.325 C 1100 82.210, 1103.812 90.766, 1104.971 91.482 C 1105.377 91.733, 1106.736 90.845, 1107.991 89.509 L 1110.274 87.080 1108.007 81.019 C 1106.760 77.685, 1105.414 74.756, 1105.015 74.510 C 1104.617 74.263, 1103.325 75.089, 1102.145 76.345 M 876 94.102 C 858.025 95.668, 831 100.498, 831 102.145 C 831 102.615, 832.095 103, 833.432 103 C 838.188 103, 858.790 108.937, 868.527 113.114 C 889.314 122.030, 904.509 132.320, 919.971 147.954 C 961.335 189.774, 975.806 250.639, 957.786 307 C 952.798 322.601, 943.328 341.525, 937.097 348.342 C 933.651 352.112, 928.062 354.893, 922.358 355.674 L 917.710 356.312 922.105 358.583 C 927.676 361.463, 938.852 363.415, 945.360 362.644 C 957.169 361.245, 967.770 352.282, 977.943 335.096 C 980.904 330.093, 983.366 325.999, 983.414 325.998 C 983.461 325.997, 983.379 331.059, 983.230 337.248 L 982.960 348.500 986.155 343.500 C 992.431 333.675, 1018.567 277.674, 1025.591 259 C 1028.131 252.246, 1028.413 250.256, 1028.425 239 C 1028.434 229.746, 1027.965 224.942, 1026.617 220.500 C 1022.601 207.263, 1011.382 188.181, 993.156 163.586 C 983.127 150.054, 982.458 149.718, 983.162 158.570 C 983.576 163.775, 984.382 164.537, 971.466 147.500 C 945.805 113.650, 934.814 101.627, 925.753 97.498 C 916.200 93.145, 899.824 92.028, 876 94.102 M 1256 93.998 C 1252.975 94.369, 1248.070 95.039, 1245.099 95.485 C 1240.864 96.122, 1239.865 96.027, 1240.474 95.042 C 1241.564 93.278, 1237.687 94.566, 1232.049 97.841 C 1227.105 100.712, 1212.986 114.922, 1206.285 123.772 C 1201.817 129.671, 1195.498 141.584, 1194.493 146 C 1193.976 148.270, 1194.863 149.097, 1204.137 155 C 1209.754 158.575, 1214.853 162.002, 1215.468 162.615 C 1216.293 163.436, 1217.072 162.514, 1218.427 159.115 C 1221.531 151.331, 1228.834 140.316, 1233.790 135.946 C 1247.418 123.927, 1270.760 119.935, 1286.556 126.922 C 1292.655 129.620, 1293.998 133.265, 1294.008 147.151 C 1294.023 167.196, 1296.674 184.088, 1302.612 201.963 C 1306.027 212.244, 1313.627 228, 1315.172 228 C 1316.034 228, 1366.492 260.692, 1371.789 264.684 L 1375.079 267.162 1374.431 264.331 C 1372.294 254.997, 1367.540 236.643, 1355.045 189.500 C 1339.449 130.660, 1337.279 124.718, 1327.560 114.260 C 1318.327 104.324, 1306.061 98.476, 1288.447 95.614 C 1277.345 93.809, 1263.257 93.108, 1256 93.998 M 1265 129 C 1265 129.550, 1266.058 130, 1267.351 130 C 1268.644 130, 1271.794 131.112, 1274.351 132.472 L 1279 134.944 1279 132.079 C 1279 130.389, 1278.351 128.965, 1277.418 128.607 C 1274.819 127.610, 1265 127.920, 1265 129 M 569 248.183 C 565.100 249.023, 562.899 250.742, 552.486 261.076 C 544.127 269.372, 539.715 273.047, 537.986 273.154 C 536.619 273.238, 539.775 273.609, 545 273.978 C 562.580 275.219, 570.075 281.027, 571.789 294.739 C 572.604 301.256, 571.920 300.916, 588.122 302.848 C 607.308 305.136, 630.546 317.977, 658 341.463 C 663.775 346.403, 691.450 373.183, 719.501 400.973 C 803.587 484.278, 817.096 496.040, 874 535.480 C 895.738 550.547, 908.762 560.197, 915 565.858 C 918.755 569.266, 919.252 570.116, 918 570.998 C 917.175 571.579, 915.267 571.829, 913.761 571.554 C 912.254 571.279, 910.325 571.322, 909.474 571.648 C 907.907 572.250, 892.338 590.794, 879.160 607.756 C 848.668 647.002, 798.316 720.511, 771.657 764.700 C 762.490 779.893, 758.642 791.373, 757.475 807 C 756.881 814.948, 759.450 863.784, 760.518 864.851 C 760.783 865.116, 761 864.687, 761 863.897 C 761 863.107, 765.386 858.194, 770.746 852.980 C 778.132 845.795, 778.919 845.195, 773.996 850.500 L 767.500 857.500 774.202 851.077 C 777.888 847.544, 780.719 844.354, 780.493 843.989 C 780.268 843.624, 781.955 841.564, 784.244 839.413 C 786.533 837.261, 787.816 836.400, 787.096 837.500 C 786.376 838.600, 792.804 832.300, 801.380 823.500 C 809.957 814.700, 816.979 807.941, 816.987 808.479 C 816.994 809.018, 821.027 805.450, 825.949 800.551 C 830.871 795.652, 834.714 791.347, 834.490 790.984 C 834.266 790.622, 835.930 788.564, 838.188 786.413 C 840.446 784.261, 841.975 783.175, 841.586 784 C 841.196 784.825, 847.689 778.525, 856.015 770 C 864.340 761.475, 871.508 754.593, 871.943 754.706 C 872.378 754.819, 873.807 753.694, 875.117 752.206 L 877.500 749.500 874.500 751.976 C 872.850 753.337, 874.391 751.447, 877.923 747.774 C 881.456 744.101, 884.730 741.333, 885.198 741.622 C 885.666 741.912, 885.926 741.553, 885.775 740.824 C 885.624 740.096, 886.062 739.612, 886.750 739.750 C 887.437 739.887, 887.887 739.458, 887.750 738.795 C 887.612 738.133, 888.175 737.550, 889 737.500 C 889.825 737.450, 890.410 736.934, 890.299 736.353 C 890.189 735.772, 891.719 733.767, 893.700 731.898 C 895.680 730.029, 896.973 729.175, 896.573 730 C 896.173 730.825, 904.078 723.175, 914.139 713 C 924.200 702.825, 932.818 694.624, 933.290 694.775 C 933.762 694.926, 933.911 694.666, 933.622 694.197 C 933.015 693.216, 944.344 681.677, 945.136 682.469 C 945.423 682.757, 946.748 681.756, 948.079 680.246 L 950.500 677.500 947.500 679.991 C 944.786 682.244, 944.828 682.125, 947.946 678.741 C 951.499 674.884, 952.633 674.072, 951.425 676.250 C 951.043 676.938, 957.429 670.895, 965.616 662.822 C 973.802 654.750, 981.964 646.946, 983.753 645.481 C 985.542 644.016, 986.801 642.487, 986.552 642.083 C 985.993 641.179, 999.402 627.736, 1000.134 628.467 C 1000.423 628.756, 1001.748 627.756, 1003.079 626.246 L 1005.500 623.500 1002.500 625.986 C 1000.377 627.746, 1000.655 627.235, 1003.453 624.236 C 1007.455 619.947, 1009.389 618.541, 1006.872 621.750 C 1005.667 623.288, 1005.688 623.353, 1007.051 622.292 C 1008.329 621.298, 1008.474 619.798, 1007.875 613.792 C 1005.920 594.197, 993.468 569.163, 963.459 524.500 C 938.590 487.486, 942.214 491.644, 915.085 469 C 838.865 405.381, 735.516 319.040, 716 302.678 C 703.625 292.304, 692.825 283.564, 692 283.256 C 691.175 282.948, 689.825 282.134, 689 281.446 C 685.516 278.544, 654.767 265.575, 633.220 257.920 C 609.329 249.432, 582.260 245.328, 569 248.183 M 852.025 303.214 C 844.955 311.612, 841.601 314.001, 836.614 314.188 C 834.626 314.263, 833 314.474, 833 314.657 C 833 315.075, 867.422 332.327, 874.522 335.467 L 879.792 337.798 875.453 331.591 C 869.936 323.699, 863.875 311.190, 861.428 302.645 C 860.381 298.990, 859.204 296, 858.811 296 C 858.418 296, 855.364 299.246, 852.025 303.214 M 1073.898 396.284 C 1072.029 397.541, 1070.353 399.593, 1070.173 400.845 C 1069.704 404.102, 1084.725 426.965, 1085.617 424.351 C 1085.964 423.333, 1087.299 420.125, 1088.582 417.221 L 1090.916 411.942 1085.208 403.030 C 1082.069 398.129, 1079.004 394.092, 1078.398 394.059 C 1077.792 394.027, 1075.767 395.028, 1073.898 396.284 M 494.706 414.250 C 491.672 417.290, 489.010 421.775, 485.357 430 C 473.089 457.622, 469.967 469.914, 473.390 477.127 C 475.856 482.323, 480.902 488, 483.054 488 C 484.104 488, 490.709 485.106, 497.732 481.569 C 511.601 474.584, 522.552 470.577, 530.697 469.509 C 541.284 468.120, 551.015 473.346, 555.154 482.643 C 556.169 484.921, 557.633 487.029, 558.408 487.326 C 559.183 487.624, 562.221 487.228, 565.159 486.448 C 578.547 482.890, 611.620 480.446, 653.500 479.921 C 660.542 479.832, 662.540 479.567, 660.256 479.025 C 658.472 478.602, 656.248 477.635, 655.314 476.878 C 653.848 475.688, 653.737 475.704, 654.500 477 C 655.256 478.282, 655.144 478.306, 653.732 477.161 C 652.104 475.841, 648.920 475.850, 583.616 477.364 C 576.718 477.524, 574.918 475.979, 576.560 471.310 C 577.417 468.873, 585.800 461.406, 595.477 454.459 L 598.320 452.419 575.410 442.465 C 562.809 436.991, 552.275 432.493, 552 432.470 C 551.725 432.448, 550.600 431.937, 549.500 431.336 C 545.490 429.144, 501.119 410, 500.049 410 C 499.443 410, 497.039 411.913, 494.706 414.250 M 711 440.582 C 703.575 441.310, 684.450 442.851, 668.500 444.007 C 629.801 446.811, 610.074 449.362, 603.374 452.429 C 596.904 455.391, 586.893 462.136, 581.262 467.327 C 576.614 471.611, 575.636 475.432, 578.922 476.475 C 579.979 476.811, 587.742 476.520, 596.172 475.830 C 606.684 474.969, 636.088 474.563, 689.750 474.537 C 732.787 474.517, 767.997 474.275, 767.994 474 C 767.985 473.186, 747.152 447.871, 742.689 443.250 C 738.587 439.004, 738.578 439, 731.542 439.129 C 727.669 439.200, 718.425 439.854, 711 440.582 M 607.500 489 C 606.730 490.246, 629.600 490.246, 632.500 489 C 633.759 488.459, 629.610 488.115, 621.309 488.070 C 613.515 488.029, 607.865 488.409, 607.500 489 M 867.485 547.944 C 863.678 549.489, 858.703 555.529, 848.495 571 C 814.235 622.922, 776.307 691.868, 750.302 749.500 C 739.416 773.623, 737.840 778.516, 737.246 790.018 L 736.755 799.537 745.368 805.268 C 750.105 808.421, 754.145 811, 754.347 811 C 754.548 811, 755.013 807.737, 755.380 803.750 C 757.033 785.782, 760.928 776.865, 783.228 740 C 816.576 684.874, 821.997 676.023, 829.493 664.471 C 847.352 636.949, 880.477 592.295, 898.335 571.669 C 900.995 568.598, 902.935 565.704, 902.647 565.238 C 901.545 563.455, 881.296 550.253, 877.230 548.666 C 872.568 546.847, 870.557 546.698, 867.485 547.944 M 1229.226 879.091 C 1226.003 883.035, 1218.886 885.380, 1195.555 890.182 C 1184.316 892.495, 1175.333 894.730, 1175.593 895.150 C 1175.852 895.569, 1176.798 895.631, 1177.696 895.286 C 1178.828 894.852, 1179.094 895.039, 1178.563 895.898 C 1178.142 896.579, 1177.201 896.907, 1176.472 896.628 C 1175.743 896.348, 1174.608 896.767, 1173.951 897.559 C 1173.293 898.352, 1172.990 899, 1173.278 899 C 1175.067 899, 1218.252 889.855, 1220.501 888.999 C 1224.893 887.330, 1228.904 884.086, 1230.576 880.853 C 1232.715 876.717, 1231.965 875.738, 1229.226 879.091 M 699.500 882.103 C 632.256 893.914, 618.416 896.749, 611.785 900.070 C 606.356 902.789, 601.348 907.484, 598.979 912.079 C 596.303 917.270, 592.479 931.328, 589.074 948.500 C 583.277 977.736, 583.550 979.383, 593.831 977.144 C 609.751 973.676, 629.505 970.894, 648.253 969.480 C 653.208 969.106, 656.758 968.418, 656.434 967.894 C 656.119 967.384, 655.443 967.226, 654.931 967.543 C 654.419 967.859, 654 967.677, 654 967.139 C 654 965.421, 666.690 964.694, 697.500 964.646 C 727.268 964.599, 743.704 965.501, 795.984 970.045 C 808.350 971.120, 819.600 971.949, 820.984 971.886 C 825.066 971.701, 780.245 964.361, 758 961.571 C 730.605 958.136, 714.011 957.046, 686.500 956.873 C 673.850 956.793, 664.484 956.536, 665.686 956.303 C 666.888 956.069, 673.638 949.966, 680.686 942.739 C 687.734 935.513, 692.600 930.704, 691.500 932.051 L 689.500 934.500 691.756 932.589 C 692.997 931.539, 693.771 930.438, 693.477 930.144 C 692.768 929.434, 706.153 915.976, 707.029 916.518 C 707.403 916.749, 708.787 915.715, 710.105 914.219 L 712.500 911.500 709.500 913.986 C 707.377 915.746, 707.655 915.235, 710.453 912.236 C 714.477 907.924, 716.338 906.581, 713.897 909.750 C 713.156 910.712, 715.239 909.025, 718.525 906 C 721.811 902.975, 724.241 900.376, 723.924 900.225 C 723.607 900.073, 716.422 901.086, 707.958 902.475 C 692.493 905.012, 684.635 905.452, 680 904.038 C 678.152 903.474, 677.891 903.117, 679 902.670 C 680.353 902.125, 712.821 896, 714.359 896 C 716.485 896, 714.053 893.647, 707.351 889.221 L 699.702 884.169 703.601 883.063 C 705.746 882.454, 709.300 881.561, 711.500 881.078 C 719.043 879.424, 710.694 880.137, 699.500 882.103 M 610.420 902.885 C 602.189 907.905, 598.419 916.474, 593.135 942.174 C 588.867 962.936, 588.516 966.373, 590.465 968.322 C 591.446 969.304, 593.138 969.766, 594.789 969.504 C 596.280 969.268, 600.019 968.809, 603.098 968.484 L 608.696 967.894 608.244 963.182 C 607.303 953.393, 613.667 928.520, 618.994 921.166 C 620.649 918.882, 624.209 915.554, 626.905 913.770 L 631.806 910.526 624.653 905.766 C 616.739 900.499, 614.933 900.133, 610.420 902.885" stroke="none" fill="#e1e0e1" fill-rule="evenodd"/><path d="M 897 3.505 C 865.996 9.865, 844.958 17.017, 819 30.023 C 802.355 38.363, 796.993 42.290, 790.162 51.148 C 787.226 54.954, 783.851 58.695, 782.662 59.459 C 781.473 60.224, 774.650 62.954, 767.500 65.526 C 739.174 75.716, 718.661 85.070, 713.260 90.259 C 707.853 95.456, 707.936 98.588, 713.798 110.350 C 723.100 129.018, 743.214 157.743, 750.405 162.629 C 754.430 165.364, 767.064 169.773, 773.345 170.634 L 777.746 171.237 780.509 166.160 C 782.029 163.368, 784.899 159.962, 786.886 158.591 C 797.014 151.606, 816.072 146, 829.688 146 L 838.120 146 843.310 150.918 C 855.345 162.322, 860.501 178.005, 853.683 182.472 C 850.516 184.547, 837.645 187.593, 824.216 189.444 C 805.367 192.043, 795.051 191.297, 788.846 186.887 C 785.311 184.375, 783.813 184.505, 780.927 187.578 C 779.595 188.996, 775.804 191.767, 772.502 193.737 C 763.908 198.863, 763 199.827, 763 203.824 C 763 213.683, 790.054 249.957, 801.878 255.951 C 807.403 258.753, 815.505 259.638, 820.606 257.998 C 822.748 257.310, 828.981 253.802, 834.458 250.203 C 839.934 246.604, 846.555 243.032, 849.171 242.265 C 853.408 241.023, 854.313 241.055, 857.475 242.555 C 861.643 244.533, 865.731 249.080, 866.657 252.769 C 867.571 256.411, 863.495 263.884, 852.894 278 C 839.237 296.187, 835.490 300, 831.272 300 C 828.615 300, 816.086 294.029, 781.115 276.098 C 663.398 215.737, 643.648 206.615, 621.863 202.538 C 595.205 197.549, 545.206 199.599, 530.767 206.272 C 527.870 207.611, 521.672 212.068, 516.993 216.177 C 497.438 233.351, 485 251.007, 485 261.594 C 485 266.120, 489.228 278.766, 493.290 286.391 C 497.655 294.584, 500.327 295.625, 510.160 292.967 C 523.763 289.290, 527.079 288.809, 536.305 289.176 C 551.568 289.783, 557.048 294.220, 559.341 307.829 C 560.940 317.316, 562.601 318.996, 570.405 319.015 C 578.496 319.034, 587.618 321.276, 595.260 325.122 C 607.800 331.432, 635.808 352.023, 640.428 358.328 C 642.394 361.011, 642.410 361.222, 640.733 362.450 C 639.762 363.162, 635.712 364.051, 631.733 364.425 C 610.049 366.463, 570.250 373.527, 544.500 379.907 C 510.164 388.415, 488.637 398.214, 480.334 409.116 C 476.172 414.580, 464.338 439.738, 460.362 451.573 C 455.326 466.563, 455.186 474.600, 459.789 484.393 C 465.926 497.450, 477.366 511, 482.253 511 C 483.489 511, 486.975 509.628, 490 507.951 C 515.280 493.939, 535.524 488.117, 543.901 492.449 C 547.126 494.116, 552.285 499.716, 554.444 503.892 C 555.259 505.468, 556.666 507.042, 557.570 507.389 C 558.474 507.735, 562.719 506.912, 567.004 505.559 C 580.213 501.386, 597.608 500.659, 668 501.338 C 745.140 502.082, 759.253 503.131, 779.500 509.624 C 789.993 512.989, 797.845 517.420, 809.747 526.694 C 818.767 533.722, 842 553.706, 842 554.437 C 842 554.612, 836.326 564.373, 829.392 576.128 C 780.601 658.832, 736.458 741.250, 729.256 763.089 C 722.467 783.675, 721.772 792.252, 723.939 828.700 C 725.577 856.253, 725.247 859.258, 720.221 862.636 C 715.564 865.766, 700.116 869.190, 664.500 874.989 C 612.959 883.380, 597.571 887.824, 587.311 897.281 C 579.396 904.577, 576.846 911.840, 572.534 939.385 C 569.230 960.484, 567.102 979.483, 566.772 990.824 C 566.529 999.165, 566.711 1000.306, 568.500 1001.637 C 569.777 1002.586, 571.585 1002.909, 573.500 1002.530 C 580.711 1001.100, 608.771 997.971, 622.830 997.028 C 642.399 995.716, 706.357 995.707, 737.500 997.013 C 762.606 998.065, 803.664 1000.181, 837.305 1002.157 C 855.131 1003.203, 857.269 1003.159, 858.713 1001.716 C 860.158 1000.270, 860.196 998.263, 859.096 981.306 C 858.424 970.963, 857.617 952.375, 857.303 940 C 856.668 915.049, 857.490 909.023, 862.792 899.797 C 865.470 895.138, 1002.026 742.823, 1009.918 735.693 C 1012.166 733.662, 1014.859 732, 1015.902 732 C 1016.946 732, 1020.207 733.851, 1023.150 736.112 C 1050.684 757.275, 1144.269 825.413, 1154.373 831.654 C 1166.928 839.410, 1186.662 845, 1201.483 845 C 1209.179 845, 1213.472 847.522, 1216.815 854.008 C 1218.621 857.511, 1219.042 859.670, 1218.728 863.815 C 1218.070 872.487, 1217.002 873.064, 1192.500 877.990 C 1153.894 885.753, 1143.899 889.101, 1136.124 896.876 C 1130.434 902.566, 1125.275 913.355, 1123 924.320 C 1119.514 941.125, 1114.030 984.013, 1114.010 994.628 C 1113.995 1002.429, 1114.742 1002.722, 1129.330 1000.646 C 1174.694 994.190, 1236.117 994.629, 1339.555 1002.148 C 1348.385 1002.790, 1356.809 1003.014, 1358.276 1002.646 C 1360.036 1002.204, 1362.331 999.930, 1365.033 995.951 C 1373.811 983.025, 1390.033 965.183, 1407.752 948.967 C 1416.909 940.586, 1417.004 940.452, 1417.002 935.800 C 1416.996 921.566, 1385.935 854.922, 1347.184 786 C 1318.593 735.148, 1294.354 697.049, 1261.751 651.713 C 1259.689 648.846, 1257.275 644.071, 1256.387 641.102 C 1253.678 632.046, 1254.761 630.159, 1271.279 615.168 C 1293.913 594.625, 1317.456 569.553, 1325.521 557.403 C 1338.836 537.342, 1343.569 514.389, 1339.527 489.470 C 1335.527 464.807, 1328.717 448.285, 1284.571 356.148 C 1249.144 282.208, 1243.740 270.040, 1236.505 247.920 C 1224.227 210.380, 1223.046 189.375, 1231.919 166.365 C 1235.895 156.057, 1241.273 148.357, 1247.347 144.277 C 1253.223 140.330, 1257.721 139.013, 1265.350 139.006 C 1270.622 139.001, 1271.520 139.321, 1274.439 142.250 C 1277.545 145.367, 1277.703 145.911, 1278.282 155.506 C 1279.602 177.369, 1289.100 208.129, 1300.787 228.392 C 1310.558 245.333, 1325.885 263.102, 1343.257 277.627 C 1359.013 290.801, 1375.993 300.997, 1382.177 300.999 C 1385.114 301, 1389 296.978, 1389 293.937 C 1389 291.297, 1355.768 161.539, 1351.497 147.500 C 1343.439 121.020, 1337.103 110.352, 1322.971 99.478 C 1306.549 86.842, 1283.718 79, 1263.347 79 C 1231.460 79, 1204.349 97.149, 1184.546 131.750 C 1180.854 138.202, 1179.339 140, 1177.597 140 C 1172.704 140, 1141.268 112.291, 1127.951 96.240 C 1118.648 85.027, 1114.662 77.805, 1112.479 68.206 C 1110.616 60.015, 1107.793 55.955, 1101.854 52.925 C 1099.712 51.833, 1086.859 46.650, 1073.291 41.409 C 1020.058 20.845, 988.541 11.014, 953.737 4.115 C 927.157 -1.153, 920.074 -1.229, 897 3.505 M 898.449 16.976 C 873.840 21.399, 851.761 28.769, 828.851 40.209 C 812.023 48.613, 807.498 52.147, 798.749 63.721 C 793.116 71.174, 789.397 73.250, 769.577 80.010 C 744.870 88.437, 728.648 95.310, 726.034 98.459 C 724.191 100.680, 725.874 105.948, 730.927 113.765 C 736.039 121.675, 738.434 124, 741.472 124 C 742.831 124, 750.593 121.467, 758.722 118.371 C 774.752 112.265, 807.801 100.977, 809.469 101.038 C 810.036 101.059, 802.400 104.141, 792.500 107.888 C 777.277 113.650, 741.354 128.543, 740.115 129.606 C 739.588 130.058, 742.072 135.927, 743.046 136.528 C 743.478 136.795, 743.313 135.641, 742.680 133.962 C 741.257 130.192, 741.537 129.981, 752.914 126.255 C 759.354 124.146, 761.429 123.804, 761.762 124.796 C 762.976 128.413, 770.215 137.620, 774.505 141.004 L 779.366 144.838 787.369 140.814 C 798.902 135.016, 812.053 131.810, 825.013 131.639 C 835.158 131.505, 835.769 131.622, 842.513 135 C 850.708 139.105, 856.474 145.630, 863.212 158.425 C 867.155 165.914, 867.465 167.068, 867.482 174.324 C 867.500 182.063, 867.460 182.186, 863.840 185.505 C 859.736 189.269, 851.651 192.036, 836.132 194.986 C 816.957 198.632, 801.142 198.420, 792.722 194.404 L 789.325 192.785 783.913 196.888 C 780.936 199.145, 778.163 200.993, 777.750 200.996 C 777.337 200.998, 777 201.664, 777 202.476 C 777 203.537, 778.196 203.105, 781.250 200.943 C 783.587 199.288, 786.421 197.283, 787.546 196.486 C 789.354 195.206, 790.169 195.255, 794.546 196.905 C 797.271 197.932, 802.342 199.096, 805.816 199.492 C 811.148 200.099, 812.025 200.468, 811.440 201.856 C 811.059 202.760, 810.524 206.949, 810.250 211.164 C 809.679 219.963, 812.157 230.005, 816.465 236.353 L 818.979 240.058 816.424 241.029 C 812.328 242.586, 808.813 242.149, 804 239.484 L 799.500 236.992 802.500 239.512 C 804.150 240.897, 807.130 242.528, 809.122 243.135 C 814.105 244.655, 817.968 243.270, 832.047 234.918 C 846.885 226.115, 850.305 224.715, 857 224.697 C 863.925 224.680, 869.393 227.368, 874.702 233.399 C 882.158 241.870, 883.145 252.502, 877.508 263.616 C 870.087 278.244, 847.151 307.119, 840.582 310.102 C 831.012 314.448, 835.007 316.095, 744.691 270.565 C 660.680 228.212, 647.035 221.853, 630.788 217.484 C 610.590 212.052, 582.129 210.521, 556.682 213.498 C 543.041 215.094, 541.733 215.497, 538.298 219.172 C 533.761 224.024, 531.278 234.768, 534.250 236.691 C 534.938 237.136, 545.625 237.788, 558 238.141 C 575.943 238.652, 583.419 239.315, 594.911 241.414 C 620.141 246.023, 637.509 251.071, 653.305 258.386 C 661.766 262.304, 663.455 262.811, 660.441 260.532 C 656.348 257.436, 660.844 259.334, 680.333 268.927 C 727.600 292.194, 847.053 356.712, 892.903 383.739 C 944.344 414.062, 991.960 446.068, 1031 476.563 C 1119.281 545.523, 1198.085 638.181, 1275.815 764.416 L 1286.847 782.333 1284.516 784.166 C 1283.234 785.175, 1281.868 786, 1281.481 786 C 1281.095 786, 1281.841 785.139, 1283.139 784.086 C 1284.438 783.033, 1285.239 781.910, 1284.921 781.590 C 1284.602 781.270, 1283.397 782.019, 1282.243 783.254 L 1280.144 785.500 1285.193 794 C 1299.218 817.609, 1321.104 856.218, 1322.662 860.100 C 1325.182 866.376, 1325.062 875.087, 1322.408 878.674 C 1318.206 884.350, 1315.130 885.410, 1270.879 896.421 C 1216.145 910.039, 1198.598 915.059, 1188.296 920.043 C 1177.391 925.319, 1175.901 927.451, 1171.509 944.050 C 1169.552 951.448, 1167.146 958.625, 1166.161 960 C 1163.173 964.173, 1157.674 966.213, 1147.916 966.769 C 1137.798 967.346, 1136 966.561, 1136 961.570 C 1136 958.774, 1138.942 940.924, 1140.544 934 L 1141.123 931.500 1138.639 934 C 1135.675 936.983, 1131.028 955.887, 1130.244 968.149 C 1129.584 978.476, 1129.675 978.519, 1147.679 976.263 C 1174.480 972.907, 1303.231 975.130, 1340.688 979.596 C 1346.704 980.314, 1347.443 979.762, 1354.987 968.938 C 1357.454 965.397, 1367.293 954.676, 1376.851 945.113 L 1394.229 927.726 1393.743 923.613 C 1392.206 910.626, 1357.164 840.214, 1324.013 783.500 C 1274.172 698.232, 1228.518 633.887, 1137.058 520 C 1121.378 500.475, 1100.059 473.925, 1089.681 461 C 1079.303 448.075, 1069.012 434.477, 1066.812 430.782 C 1053.554 408.523, 1057.521 392.072, 1078.103 383.960 C 1083.390 381.875, 1102.930 376.885, 1150.075 365.579 C 1175.118 359.573, 1184.388 356.073, 1187.748 351.353 C 1191.889 345.538, 1192.507 340.812, 1192.373 316 C 1192.120 269.492, 1183.785 198.475, 1176.912 184.275 C 1173.761 177.765, 1172.971 176.973, 1151.500 158.807 C 1135.457 145.233, 1114.446 123.750, 1107.148 113.458 C 1099 101.969, 1092.671 89.362, 1089.483 78.277 C 1088.095 73.449, 1086.134 68.375, 1085.124 67 C 1078.525 58.016, 1024.420 38.127, 965.500 23.027 C 931.901 14.416, 919.117 13.262, 898.449 16.976 M 855.500 54.459 C 834.700 59.792, 830.812 61.097, 828.336 63.573 C 827.051 64.858, 826 66.792, 826 67.871 C 826 68.950, 824.820 70.693, 823.378 71.743 C 820.438 73.885, 820.693 77.425, 823.847 78.250 C 824.826 78.506, 832.574 76.163, 841.064 73.044 C 849.554 69.925, 859.986 66.119, 864.247 64.586 C 871.192 62.088, 872.079 61.473, 872.811 58.650 C 874.025 53.963, 873.172 50.988, 870.633 51.062 C 869.460 51.097, 862.650 52.625, 855.500 54.459 M 1102.145 76.345 C 1100.965 77.601, 1100 79.392, 1100 80.325 C 1100 82.210, 1103.812 90.766, 1104.971 91.482 C 1105.377 91.733, 1106.736 90.845, 1107.991 89.509 L 1110.274 87.080 1108.007 81.019 C 1106.760 77.685, 1105.414 74.756, 1105.015 74.510 C 1104.617 74.263, 1103.325 75.089, 1102.145 76.345 M 876 94.102 C 858.025 95.668, 831 100.498, 831 102.145 C 831 102.615, 832.095 103, 833.432 103 C 838.188 103, 858.790 108.937, 868.527 113.114 C 889.314 122.030, 904.509 132.320, 919.971 147.954 C 961.335 189.774, 975.806 250.639, 957.786 307 C 952.798 322.601, 943.328 341.525, 937.097 348.342 C 933.651 352.112, 928.062 354.893, 922.358 355.674 L 917.710 356.312 922.105 358.583 C 927.676 361.463, 938.852 363.415, 945.360 362.644 C 957.169 361.245, 967.770 352.282, 977.943 335.096 C 980.904 330.093, 983.366 325.999, 983.414 325.998 C 983.461 325.997, 983.379 331.059, 983.230 337.248 L 982.960 348.500 986.155 343.500 C 992.431 333.675, 1018.567 277.674, 1025.591 259 C 1028.131 252.246, 1028.413 250.256, 1028.425 239 C 1028.434 229.746, 1027.965 224.942, 1026.617 220.500 C 1022.601 207.263, 1011.382 188.181, 993.156 163.586 C 983.127 150.054, 982.458 149.718, 983.162 158.570 C 983.576 163.775, 984.382 164.537, 971.466 147.500 C 945.805 113.650, 934.814 101.627, 925.753 97.498 C 916.200 93.145, 899.824 92.028, 876 94.102 M 1256 93.998 C 1252.975 94.369, 1248.070 95.039, 1245.099 95.485 C 1240.864 96.122, 1239.865 96.027, 1240.474 95.042 C 1241.564 93.278, 1237.687 94.566, 1232.049 97.841 C 1227.105 100.712, 1212.986 114.922, 1206.285 123.772 C 1201.817 129.671, 1195.498 141.584, 1194.493 146 C 1193.976 148.270, 1194.863 149.097, 1204.137 155 C 1209.754 158.575, 1214.853 162.002, 1215.468 162.615 C 1216.293 163.436, 1217.072 162.514, 1218.427 159.115 C 1221.531 151.331, 1228.834 140.316, 1233.790 135.946 C 1247.418 123.927, 1270.760 119.935, 1286.556 126.922 C 1292.655 129.620, 1293.998 133.265, 1294.008 147.151 C 1294.023 167.196, 1296.674 184.088, 1302.612 201.963 C 1306.027 212.244, 1313.627 228, 1315.172 228 C 1316.034 228, 1366.492 260.692, 1371.789 264.684 L 1375.079 267.162 1374.431 264.331 C 1372.294 254.997, 1367.540 236.643, 1355.045 189.500 C 1339.449 130.660, 1337.279 124.718, 1327.560 114.260 C 1318.327 104.324, 1306.061 98.476, 1288.447 95.614 C 1277.345 93.809, 1263.257 93.108, 1256 93.998 M 1265 129 C 1265 129.550, 1266.058 130, 1267.351 130 C 1268.644 130, 1271.794 131.112, 1274.351 132.472 L 1279 134.944 1279 132.079 C 1279 130.389, 1278.351 128.965, 1277.418 128.607 C 1274.819 127.610, 1265 127.920, 1265 129 M 569 248.183 C 565.100 249.023, 562.899 250.742, 552.486 261.076 C 544.127 269.372, 539.715 273.047, 537.986 273.154 C 536.619 273.238, 539.775 273.609, 545 273.978 C 562.580 275.219, 570.075 281.027, 571.789 294.739 C 572.604 301.256, 571.920 300.916, 588.122 302.848 C 607.308 305.136, 630.546 317.977, 658 341.463 C 663.775 346.403, 691.450 373.183, 719.501 400.973 C 803.587 484.278, 817.096 496.040, 874 535.480 C 895.738 550.547, 908.762 560.197, 915 565.858 C 918.755 569.266, 919.252 570.116, 918 570.998 C 917.175 571.579, 915.267 571.829, 913.761 571.554 C 912.254 571.279, 910.325 571.322, 909.474 571.648 C 907.907 572.250, 892.338 590.794, 879.160 607.756 C 848.668 647.002, 798.316 720.511, 771.657 764.700 C 762.490 779.893, 758.642 791.373, 757.475 807 C 756.881 814.948, 759.450 863.784, 760.518 864.851 C 760.783 865.116, 761 864.687, 761 863.897 C 761 863.107, 765.386 858.194, 770.746 852.980 C 778.132 845.795, 778.919 845.195, 773.996 850.500 L 767.500 857.500 774.202 851.077 C 777.888 847.544, 780.719 844.354, 780.493 843.989 C 780.268 843.624, 781.955 841.564, 784.244 839.413 C 786.533 837.261, 787.816 836.400, 787.096 837.500 C 786.376 838.600, 792.804 832.300, 801.380 823.500 C 809.957 814.700, 816.979 807.941, 816.987 808.479 C 816.994 809.018, 821.027 805.450, 825.949 800.551 C 830.871 795.652, 834.714 791.347, 834.490 790.984 C 834.266 790.622, 835.930 788.564, 838.188 786.413 C 840.446 784.261, 841.975 783.175, 841.586 784 C 841.196 784.825, 847.689 778.525, 856.015 770 C 864.340 761.475, 871.508 754.593, 871.943 754.706 C 872.378 754.819, 873.807 753.694, 875.117 752.206 L 877.500 749.500 874.500 751.976 C 872.850 753.337, 874.391 751.447, 877.923 747.774 C 881.456 744.101, 884.730 741.333, 885.198 741.622 C 885.666 741.912, 885.926 741.553, 885.775 740.824 C 885.624 740.096, 886.062 739.612, 886.750 739.750 C 887.437 739.887, 887.887 739.458, 887.750 738.795 C 887.612 738.133, 888.175 737.550, 889 737.500 C 889.825 737.450, 890.410 736.934, 890.299 736.353 C 890.189 735.772, 891.719 733.767, 893.700 731.898 C 895.680 730.029, 896.973 729.175, 896.573 730 C 896.173 730.825, 904.078 723.175, 914.139 713 C 924.200 702.825, 932.818 694.624, 933.290 694.775 C 933.762 694.926, 933.911 694.666, 933.622 694.197 C 933.015 693.216, 944.344 681.677, 945.136 682.469 C 945.423 682.757, 946.748 681.756, 948.079 680.246 L 950.500 677.500 947.500 679.991 C 944.786 682.244, 944.828 682.125, 947.946 678.741 C 951.499 674.884, 952.633 674.072, 951.425 676.250 C 951.043 676.938, 957.429 670.895, 965.616 662.822 C 973.802 654.750, 981.964 646.946, 983.753 645.481 C 985.542 644.016, 986.801 642.487, 986.552 642.083 C 985.993 641.179, 999.402 627.736, 1000.134 628.467 C 1000.423 628.756, 1001.748 627.756, 1003.079 626.246 L 1005.500 623.500 1002.500 625.986 C 1000.377 627.746, 1000.655 627.235, 1003.453 624.236 C 1007.455 619.947, 1009.389 618.541, 1006.872 621.750 C 1005.667 623.288, 1005.688 623.353, 1007.051 622.292 C 1008.329 621.298, 1008.474 619.798, 1007.875 613.792 C 1005.920 594.197, 993.468 569.163, 963.459 524.500 C 938.590 487.486, 942.214 491.644, 915.085 469 C 838.865 405.381, 735.516 319.040, 716 302.678 C 703.625 292.304, 692.825 283.564, 692 283.256 C 691.175 282.948, 689.825 282.134, 689 281.446 C 685.516 278.544, 654.767 265.575, 633.220 257.920 C 609.329 249.432, 582.260 245.328, 569 248.183 M 852.025 303.214 C 844.955 311.612, 841.601 314.001, 836.614 314.188 C 834.626 314.263, 833 314.474, 833 314.657 C 833 315.075, 867.422 332.327, 874.522 335.467 L 879.792 337.798 875.453 331.591 C 869.936 323.699, 863.875 311.190, 861.428 302.645 C 860.381 298.990, 859.204 296, 858.811 296 C 858.418 296, 855.364 299.246, 852.025 303.214 M 1203.259 327.250 C 1202.717 327.938, 1201.989 335.379, 1201.642 343.786 C 1200.863 362.646, 1199.897 366.699, 1194.801 372.489 C 1187.868 380.365, 1181.601 383.150, 1132.500 400.172 C 1119.850 404.557, 1107.649 409.221, 1105.387 410.534 C 1093.770 417.283, 1090.263 428.763, 1095.915 441.540 C 1097.786 445.770, 1162.311 523.043, 1175.951 537.388 C 1190.223 552.400, 1199.999 552.124, 1231.820 535.814 C 1247.402 527.827, 1262.148 517.960, 1269.570 510.556 C 1276.681 503.462, 1282.531 492.631, 1283.503 484.763 C 1285.215 470.901, 1282.098 464.310, 1212.321 334.250 C 1207.903 326.014, 1205.623 324.253, 1203.259 327.250 M 1073.898 396.284 C 1072.029 397.541, 1070.353 399.593, 1070.173 400.845 C 1069.704 404.102, 1084.725 426.965, 1085.617 424.351 C 1085.964 423.333, 1087.299 420.125, 1088.582 417.221 L 1090.916 411.942 1085.208 403.030 C 1082.069 398.129, 1079.004 394.092, 1078.398 394.059 C 1077.792 394.027, 1075.767 395.028, 1073.898 396.284 M 494.706 414.250 C 491.672 417.290, 489.010 421.775, 485.357 430 C 473.089 457.622, 469.967 469.914, 473.390 477.127 C 475.856 482.323, 480.902 488, 483.054 488 C 484.104 488, 490.709 485.106, 497.732 481.569 C 511.601 474.584, 522.552 470.577, 530.697 469.509 C 541.284 468.120, 551.015 473.346, 555.154 482.643 C 556.169 484.921, 557.633 487.029, 558.408 487.326 C 559.183 487.624, 562.221 487.228, 565.159 486.448 C 578.547 482.890, 611.620 480.446, 653.500 479.921 C 660.542 479.832, 662.540 479.567, 660.256 479.025 C 658.472 478.602, 656.248 477.635, 655.314 476.878 C 653.848 475.688, 653.737 475.704, 654.500 477 C 655.256 478.282, 655.144 478.306, 653.732 477.161 C 652.104 475.841, 648.920 475.850, 583.616 477.364 C 576.718 477.524, 574.918 475.979, 576.560 471.310 C 577.417 468.873, 585.800 461.406, 595.477 454.459 L 598.320 452.419 575.410 442.465 C 562.809 436.991, 552.275 432.493, 552 432.470 C 551.725 432.448, 550.600 431.937, 549.500 431.336 C 545.490 429.144, 501.119 410, 500.049 410 C 499.443 410, 497.039 411.913, 494.706 414.250 M 711 440.582 C 703.575 441.310, 684.450 442.851, 668.500 444.007 C 629.801 446.811, 610.074 449.362, 603.374 452.429 C 596.904 455.391, 586.893 462.136, 581.262 467.327 C 576.614 471.611, 575.636 475.432, 578.922 476.475 C 579.979 476.811, 587.742 476.520, 596.172 475.830 C 606.684 474.969, 636.088 474.563, 689.750 474.537 C 732.787 474.517, 767.997 474.275, 767.994 474 C 767.985 473.186, 747.152 447.871, 742.689 443.250 C 738.587 439.004, 738.578 439, 731.542 439.129 C 727.669 439.200, 718.425 439.854, 711 440.582 M 607.500 489 C 606.730 490.246, 629.600 490.246, 632.500 489 C 633.759 488.459, 629.610 488.115, 621.309 488.070 C 613.515 488.029, 607.865 488.409, 607.500 489 M 867.485 547.944 C 863.678 549.489, 858.703 555.529, 848.495 571 C 814.235 622.922, 776.307 691.868, 750.302 749.500 C 739.416 773.623, 737.840 778.516, 737.246 790.018 L 736.755 799.537 745.368 805.268 C 750.105 808.421, 754.145 811, 754.347 811 C 754.548 811, 755.013 807.737, 755.380 803.750 C 757.033 785.782, 760.928 776.865, 783.228 740 C 816.576 684.874, 821.997 676.023, 829.493 664.471 C 847.352 636.949, 880.477 592.295, 898.335 571.669 C 900.995 568.598, 902.935 565.704, 902.647 565.238 C 901.545 563.455, 881.296 550.253, 877.230 548.666 C 872.568 546.847, 870.557 546.698, 867.485 547.944 M 1229.226 879.091 C 1226.003 883.035, 1218.886 885.380, 1195.555 890.182 C 1184.316 892.495, 1175.333 894.730, 1175.593 895.150 C 1175.852 895.569, 1176.798 895.631, 1177.696 895.286 C 1178.828 894.852, 1179.094 895.039, 1178.563 895.898 C 1178.142 896.579, 1177.201 896.907, 1176.472 896.628 C 1175.743 896.348, 1174.608 896.767, 1173.951 897.559 C 1173.293 898.352, 1172.990 899, 1173.278 899 C 1175.067 899, 1218.252 889.855, 1220.501 888.999 C 1224.893 887.330, 1228.904 884.086, 1230.576 880.853 C 1232.715 876.717, 1231.965 875.738, 1229.226 879.091 M 699.500 882.103 C 632.256 893.914, 618.416 896.749, 611.785 900.070 C 606.356 902.789, 601.348 907.484, 598.979 912.079 C 596.303 917.270, 592.479 931.328, 589.074 948.500 C 583.277 977.736, 583.550 979.383, 593.831 977.144 C 609.751 973.676, 629.505 970.894, 648.253 969.480 C 653.208 969.106, 656.758 968.418, 656.434 967.894 C 656.119 967.384, 655.443 967.226, 654.931 967.543 C 654.419 967.859, 654 967.677, 654 967.139 C 654 965.421, 666.690 964.694, 697.500 964.646 C 727.268 964.599, 743.704 965.501, 795.984 970.045 C 808.350 971.120, 819.600 971.949, 820.984 971.886 C 825.066 971.701, 780.245 964.361, 758 961.571 C 730.605 958.136, 714.011 957.046, 686.500 956.873 C 673.850 956.793, 664.484 956.536, 665.686 956.303 C 666.888 956.069, 673.638 949.966, 680.686 942.739 C 687.734 935.513, 692.600 930.704, 691.500 932.051 L 689.500 934.500 691.756 932.589 C 692.997 931.539, 693.771 930.438, 693.477 930.144 C 692.768 929.434, 706.153 915.976, 707.029 916.518 C 707.403 916.749, 708.787 915.715, 710.105 914.219 L 712.500 911.500 709.500 913.986 C 707.377 915.746, 707.655 915.235, 710.453 912.236 C 714.477 907.924, 716.338 906.581, 713.897 909.750 C 713.156 910.712, 715.239 909.025, 718.525 906 C 721.811 902.975, 724.241 900.376, 723.924 900.225 C 723.607 900.073, 716.422 901.086, 707.958 902.475 C 692.493 905.012, 684.635 905.452, 680 904.038 C 678.152 903.474, 677.891 903.117, 679 902.670 C 680.353 902.125, 712.821 896, 714.359 896 C 716.485 896, 714.053 893.647, 707.351 889.221 L 699.702 884.169 703.601 883.063 C 705.746 882.454, 709.300 881.561, 711.500 881.078 C 719.043 879.424, 710.694 880.137, 699.500 882.103 M 610.420 902.885 C 602.189 907.905, 598.419 916.474, 593.135 942.174 C 588.867 962.936, 588.516 966.373, 590.465 968.322 C 591.446 969.304, 593.138 969.766, 594.789 969.504 C 596.280 969.268, 600.019 968.809, 603.098 968.484 L 608.696 967.894 608.244 963.182 C 607.303 953.393, 613.667 928.520, 618.994 921.166 C 620.649 918.882, 624.209 915.554, 626.905 913.770 L 631.806 910.526 624.653 905.766 C 616.739 900.499, 614.933 900.133, 610.420 902.885 M 978.051 1230.148 C 957.259 1232.319, 930.564 1239.690, 914.648 1247.655 C 879.578 1265.203, 860.177 1293.534, 862.342 1324.034 C 863.562 1341.226, 869.982 1355.623, 882.173 1368.501 C 900.415 1387.773, 925.988 1399.769, 962.500 1406.184 C 976.881 1408.710, 1014.810 1409.732, 1032.757 1408.077 C 1053.867 1406.129, 1088.444 1400.326, 1105.250 1395.909 L 1109 1394.923 1109 1360.961 L 1109 1327 1085.517 1327 L 1062.034 1327 1061.767 1352.204 L 1061.500 1377.409 1053 1380.113 C 1038.812 1384.628, 1030.210 1386.076, 1014 1386.676 C 963.914 1388.529, 928.672 1369.651, 918.384 1335.457 C 916.016 1327.587, 915.973 1310.897, 918.297 1302.207 C 925.310 1275.992, 947.010 1258.928, 981 1252.899 C 991.851 1250.974, 1019.887 1251.228, 1033.964 1253.380 C 1048.376 1255.582, 1067.058 1260.354, 1086.932 1266.910 C 1095.420 1269.709, 1102.732 1272, 1103.182 1272 C 1103.632 1272, 1104 1265.507, 1104 1257.571 L 1104 1243.142 1098.628 1241.580 C 1079.825 1236.114, 1055.157 1231.662, 1034.605 1230.026 C 1019.506 1228.825, 990.120 1228.888, 978.051 1230.148 M 1567 1229.679 C 1505.936 1235.938, 1462.346 1261.813, 1449.379 1299.500 C 1446.929 1306.621, 1446.626 1308.928, 1446.621 1320.500 C 1446.617 1331.925, 1446.939 1334.469, 1449.282 1341.500 C 1453.021 1352.716, 1458.282 1361.210, 1467 1370.101 C 1486.999 1390.498, 1519.460 1403.643, 1560.721 1408.053 C 1577.581 1409.855, 1615.248 1408.804, 1630.500 1406.106 C 1665.970 1399.831, 1689.933 1388.989, 1708.088 1371 C 1716.308 1362.856, 1718.345 1360.144, 1722.360 1352 C 1727.708 1341.153, 1729.958 1331.915, 1729.983 1320.697 C 1730.086 1274.359, 1684.586 1238.601, 1615.191 1230.483 C 1603.890 1229.161, 1576.508 1228.704, 1567 1229.679 M -0 1318.916 L 0 1404 23.500 1404 L 47 1404 47 1378.116 L 47 1352.232 83.750 1351.713 C 109.999 1351.342, 123.773 1350.726, 131.954 1349.557 C 171.413 1343.916, 196.970 1333.600, 212.174 1317.179 C 222.199 1306.351, 225.599 1295.373, 222.659 1283.326 C 216.824 1259.410, 188.585 1243.940, 137 1236.401 C 127.501 1235.013, 114.582 1234.643, 62.750 1234.276 L -0 1233.832 -0 1318.916 M 295.008 1297.250 C 295.012 1336.018, 295.416 1363.016, 296.052 1367 C 298.188 1380.396, 305.375 1391.266, 315.732 1396.764 C 328.629 1403.612, 325.253 1403.366, 411.250 1403.741 L 489 1404.081 489 1393.040 L 489 1382 430.750 1381.980 C 398.010 1381.969, 369.525 1381.530, 365.706 1380.978 C 355.098 1379.444, 349.600 1375.936, 345.367 1368 C 343.783 1365.031, 343.450 1361.733, 343.171 1346.250 L 342.841 1328 409.921 1328 L 477 1328 477 1317 L 477 1306 410 1306 L 343 1306 343 1281 L 343 1256 413 1256 L 483 1256 483 1245 L 483 1234 389 1234 L 295 1234 295.008 1297.250 M 567 1296.318 C 567 1350.716, 567.205 1359.327, 568.612 1364.068 C 571.245 1372.943, 574.892 1379.078, 581.379 1385.546 C 591.578 1395.713, 605.052 1401.925, 626.199 1406.210 C 636.529 1408.303, 640.079 1408.496, 667.500 1408.453 C 699.933 1408.402, 710.050 1407.382, 736.513 1401.500 C 748.491 1398.837, 778.456 1389.367, 784.042 1386.478 L 787 1384.949 787 1309.474 L 787 1234 763 1234 L 739 1234 739 1305.472 L 739 1376.944 733.750 1378.449 C 718.122 1382.929, 702.635 1385, 684.763 1385 C 648.997 1385, 625.559 1376.020, 617.270 1359.142 L 614.500 1353.500 614.213 1293.750 L 613.926 1234 590.463 1234 L 567 1234 567 1296.318 M 1193 1298.364 C 1193 1334.013, 1193.416 1364.922, 1193.933 1367.647 C 1197.384 1385.843, 1207.017 1396.182, 1225.671 1401.712 C 1230.931 1403.272, 1239.084 1403.471, 1309.250 1403.760 L 1387 1404.081 1387 1393.040 L 1387 1382 1328.250 1381.992 C 1268.097 1381.985, 1259.945 1381.557, 1253.129 1378.050 C 1243.291 1372.989, 1241.069 1367.229, 1240.282 1344.750 L 1239.695 1328 1307.348 1328 L 1375 1328 1375 1317.007 L 1375 1306.014 1307.750 1305.757 L 1240.500 1305.500 1240.233 1280.750 L 1239.965 1256 1310.483 1256 L 1381 1256 1381 1245 L 1381 1234 1287 1234 L 1193 1234 1193 1298.364 M 1767 1246.500 L 1767 1259 1813.500 1259 L 1860 1259 1860 1331.518 L 1860 1404.036 1883.750 1403.768 L 1907.500 1403.500 1907.757 1331.250 L 1908.013 1259 1954.007 1259 L 2000 1259 2000 1246.500 L 2000 1234 1883.500 1234 L 1767 1234 1767 1246.500 M 1576.500 1251.647 C 1548.981 1254.838, 1532.374 1261.647, 1518.384 1275.477 C 1512.119 1281.670, 1509.456 1285.211, 1506.707 1291 C 1497.974 1309.393, 1497.973 1330.597, 1506.705 1349 C 1509.500 1354.891, 1512.134 1358.357, 1518.983 1365.156 C 1526.235 1372.354, 1529.298 1374.587, 1537.173 1378.418 C 1542.381 1380.952, 1551.111 1384.232, 1556.571 1385.708 C 1565.896 1388.229, 1567.807 1388.392, 1588 1388.392 C 1608.155 1388.392, 1610.126 1388.224, 1619.500 1385.715 C 1655.385 1376.109, 1675.965 1352.158, 1675.965 1320 C 1675.965 1302.032, 1670.197 1288.023, 1657.594 1275.383 C 1650.692 1268.461, 1647.954 1266.517, 1639 1262.184 C 1633.225 1259.389, 1624.900 1256.207, 1620.500 1255.114 C 1607.222 1251.815, 1588.072 1250.306, 1576.500 1251.647 M 47 1293.388 L 47 1333 66.250 1332.991 C 119.940 1332.967, 149.250 1326.526, 162.443 1311.852 C 167.749 1305.951, 170 1299.780, 170 1291.138 C 170 1276.736, 160.576 1267.354, 139.407 1260.683 C 124.635 1256.027, 113.128 1254.811, 78.750 1254.273 L 47 1253.776 47 1293.388" stroke="none" fill="#3a3b49" fill-rule="evenodd"/></svg>