<svg id="svg" version="1.1" xmlns="http://www.w3.org/2000/svg" xmlns:xlink="http://www.w3.org/1999/xlink" width="400" height="733.2722273143905" viewBox="0, 0, 400,733.2722273143905"><g id="svgg"><path id="path0" d="M13.955 0.916 C 8.435 2.702,3.718 7.031,1.371 12.465 L 0.183 15.215 0.087 365.903 C -0.008 713.864,-0.003 716.609,0.714 718.973 C 2.628 725.290,7.237 730.031,13.769 732.402 L 16.165 733.272 199.958 733.272 C 352.265 733.272,384.028 733.188,385.368 732.782 C 391.731 730.854,396.908 725.991,399.138 719.847 L 400.000 717.474 400.000 366.628 L 400.000 15.782 399.096 13.380 C 396.800 7.281,391.930 2.663,385.754 0.729 C 383.441 0.005,382.103 0.000,200.053 0.016 L 16.682 0.033 13.955 0.916 M382.951 12.682 C 383.758 13.103,384.913 14.148,385.518 15.005 L 386.618 16.562 386.713 70.792 L 386.808 125.023 200.004 125.023 L 13.199 125.023 13.199 71.383 L 13.199 17.743 14.141 15.851 C 15.128 13.872,16.730 12.583,18.830 12.081 C 19.463 11.930,101.320 11.831,200.733 11.861 L 381.485 11.916 382.951 12.682 M37.764 25.573 C 37.764 25.724,38.008 27.003,38.307 28.414 C 38.957 31.483,39.115 108.116,38.478 111.091 C 38.284 111.998,38.022 113.277,37.896 113.932 L 37.668 115.124 43.560 115.124 C 50.138 115.124,50.063 115.154,49.203 112.899 C 48.316 110.571,48.037 70.282,48.901 69.111 C 49.623 68.131,49.200 67.670,68.561 90.559 C 77.333 100.929,85.632 110.699,87.005 112.269 L 89.500 115.124 95.529 115.124 C 98.845 115.124,101.558 114.987,101.558 114.821 C 101.558 114.654,99.116 111.643,96.130 108.130 C 62.831 68.941,61.194 66.971,61.301 66.221 C 61.405 65.489,61.684 65.432,66.178 65.226 C 72.892 64.918,76.256 63.516,80.510 59.252 C 91.370 48.367,86.015 29.380,71.093 25.862 C 68.565 25.266,37.764 24.999,37.764 25.573 M138.588 25.533 C 101.286 28.988,84.290 73.790,109.984 100.934 C 131.058 123.198,168.236 117.855,182.179 90.559 C 198.102 59.386,173.255 22.322,138.588 25.533 M204.950 25.618 C 204.950 25.795,205.238 26.661,205.591 27.543 C 206.580 30.016,206.580 109.418,205.591 112.614 C 205.238 113.754,204.950 114.787,204.950 114.909 C 204.950 115.031,212.329 115.088,221.349 115.036 L 237.749 114.940 240.425 110.724 C 243.526 105.838,244.676 103.758,244.279 103.758 C 244.123 103.758,243.160 104.076,242.137 104.465 C 234.333 107.431,219.111 106.589,216.774 103.062 L 215.949 101.816 215.965 66.215 C 215.973 46.635,216.121 29.954,216.294 29.148 C 216.466 28.341,216.727 27.145,216.873 26.489 L 217.140 25.298 211.045 25.298 C 207.692 25.298,204.950 25.442,204.950 25.618 M266.178 25.463 C 266.178 25.554,266.425 26.579,266.728 27.740 C 267.547 30.884,267.547 109.506,266.728 112.557 C 266.430 113.666,266.185 114.699,266.182 114.853 C 266.180 115.006,273.555 115.088,282.572 115.036 L 298.967 114.940 302.176 109.808 C 305.445 104.579,305.943 103.452,304.766 103.952 C 302.114 105.079,298.792 105.639,292.759 105.977 C 283.290 106.507,280.335 105.989,278.173 103.419 L 277.177 102.235 277.177 66.025 C 277.177 35.005,277.255 29.556,277.723 28.014 C 278.600 25.124,278.953 25.298,272.227 25.298 C 268.900 25.298,266.178 25.372,266.178 25.463 M337.438 28.194 C 328.317 30.805,323.373 37.302,323.373 46.679 C 323.373 54.916,326.576 60.365,335.410 67.160 C 344.932 74.483,351.888 81.006,354.523 85.082 C 364.867 101.086,350.041 113.199,331.490 103.900 C 329.360 102.832,327.586 101.992,327.549 102.033 C 327.512 102.074,327.788 104.830,328.162 108.158 C 328.536 111.485,328.849 114.397,328.857 114.630 C 328.867 114.906,330.048 115.107,332.264 115.207 C 334.129 115.292,337.996 115.666,340.856 116.038 C 353.836 117.726,365.551 111.129,367.898 100.810 C 370.532 89.228,365.829 78.665,353.761 69.059 C 335.967 54.895,334.146 52.900,333.739 47.113 C 332.961 36.081,343.784 33.661,356.396 42.048 C 357.766 42.959,359.032 43.614,359.210 43.504 C 359.671 43.219,363.500 33.405,363.249 33.154 C 363.135 33.040,362.089 32.698,360.926 32.394 C 359.762 32.090,357.462 31.283,355.813 30.601 C 348.315 27.497,342.524 26.738,337.438 28.194 M70.761 35.872 C 77.326 39.285,78.600 47.645,73.308 52.595 C 70.197 55.505,70.107 55.524,58.570 55.660 L 48.396 55.780 48.396 45.284 L 48.396 34.789 58.753 34.901 C 68.786 35.010,69.163 35.041,70.761 35.872 M149.777 35.522 C 177.027 41.147,187.175 75.542,167.377 95.174 C 144.959 117.402,107.357 101.785,107.275 70.211 C 107.215 47.425,127.446 30.913,149.777 35.522 M386.801 363.336 L 386.801 586.618 200.000 586.618 L 13.199 586.618 13.199 363.520 L 13.199 140.423 102.200 140.330 C 151.150 140.279,235.211 140.196,289.001 140.146 L 386.801 140.055 386.801 363.336 M56.829 166.687 C 56.829 166.826,57.889 168.522,59.185 170.454 C 61.842 174.417,62.878 176.767,63.722 180.752 C 64.425 184.068,64.876 487.482,64.192 496.792 C 63.584 505.067,61.847 509.850,56.691 517.451 C 54.952 520.014,53.529 522.271,53.529 522.467 C 53.529 522.694,63.486 522.823,81.027 522.823 C 97.627 522.823,108.524 522.689,108.524 522.484 C 108.524 522.297,106.995 519.864,105.126 517.076 C 101.357 511.455,99.658 507.664,98.584 502.475 C 97.607 497.754,97.500 383.364,98.472 382.991 C 98.791 382.868,100.732 382.768,102.786 382.768 C 128.605 382.768,165.279 376.055,187.309 367.296 L 189.284 366.510 190.242 367.636 C 214.059 395.594,227.239 429.285,231.016 471.861 C 232.831 492.311,228.600 504.476,214.787 518.523 C 212.804 520.539,211.182 522.331,211.182 522.506 C 211.182 522.933,282.573 522.921,282.837 522.494 C 282.949 522.313,282.213 521.634,281.202 520.985 C 273.692 516.166,268.867 504.683,267.658 488.755 C 264.599 448.436,245.671 399.714,216.850 357.967 L 214.535 354.613 219.550 351.287 C 255.144 327.675,275.149 292.798,275.094 254.445 C 275.029 208.247,244.693 176.316,192.301 167.298 C 188.488 166.642,56.829 166.048,56.829 166.687 M181.118 188.955 C 219.534 195.392,236.556 221.897,230.242 265.445 C 222.635 317.905,177.247 351.002,108.341 354.337 C 105.921 354.454,102.580 354.638,100.917 354.746 L 97.892 354.942 97.892 271.495 L 97.892 188.048 137.580 188.179 C 173.370 188.297,177.647 188.373,181.118 188.955 M120.623 200.739 C 120.623 200.843,121.427 202.039,122.410 203.397 C 125.074 207.080,126.394 209.627,127.312 212.859 L 128.137 215.765 128.238 280.568 L 128.338 345.371 129.155 345.370 C 132.689 345.363,147.030 341.923,156.187 338.886 L 161.503 337.122 161.596 279.835 L 161.689 222.548 190.447 222.548 C 207.333 222.548,219.290 222.410,219.411 222.214 C 220.551 220.371,209.717 206.746,203.534 202.247 L 201.203 200.550 160.913 200.550 C 138.754 200.550,120.623 200.635,120.623 200.739 M269.478 204.794 C 269.478 204.942,270.449 206.977,271.637 209.315 C 276.569 219.021,283.009 237.452,283.040 241.947 C 283.042 242.231,283.669 243.303,284.435 244.330 C 303.325 269.667,299.151 316.490,275.371 346.023 C 266.523 357.010,247.807 370.985,236.847 374.788 C 236.403 374.942,236.567 375.465,237.697 377.498 C 238.466 378.884,241.583 385.050,244.623 391.201 C 247.664 397.351,250.201 402.443,250.261 402.515 C 250.322 402.588,251.412 402.293,252.683 401.860 L 254.995 401.072 255.912 402.126 C 276.486 425.787,288.391 453.540,294.004 490.926 C 298.879 523.391,295.775 536.723,279.497 553.248 C 277.414 555.362,275.710 557.135,275.710 557.189 C 275.710 557.243,291.879 557.287,311.641 557.287 C 335.350 557.287,347.571 557.162,347.571 556.920 C 347.571 556.719,347.422 556.554,347.241 556.554 C 346.414 556.554,342.308 552.998,340.764 550.945 C 335.971 544.569,333.501 536.422,332.350 523.190 C 328.796 482.341,311.922 438.316,283.483 395.689 C 281.161 392.208,279.328 389.304,279.411 389.235 C 279.493 389.166,281.540 387.827,283.960 386.260 C 349.941 343.527,359.557 257.555,302.637 219.282 C 293.011 212.809,269.478 202.527,269.478 204.794 M158.570 383.552 C 155.516 384.366,145.731 386.019,135.623 387.428 L 128.323 388.446 128.323 460.557 C 128.323 510.284,128.199 533.555,127.926 535.522 C 127.075 541.640,124.687 547.218,120.204 553.557 C 118.825 555.508,117.695 557.310,117.693 557.562 C 117.691 557.924,123.433 558.020,145.188 558.020 C 162.384 558.020,172.686 557.889,172.686 557.671 C 172.686 557.478,171.580 555.787,170.228 553.913 C 161.313 541.551,161.689 545.038,161.688 474.731 L 161.687 418.390 163.978 418.192 C 165.238 418.083,168.827 417.909,171.952 417.804 C 186.015 417.335,208.444 414.806,208.892 413.640 C 209.578 411.850,197.630 387.168,196.077 387.168 C 195.726 387.168,193.743 387.414,191.670 387.714 C 184.389 388.770,177.195 389.386,169.478 389.616 L 161.687 389.849 161.687 386.308 C 161.687 384.361,161.563 382.790,161.412 382.818 C 161.260 382.845,159.982 383.175,158.570 383.552 M386.793 658.753 C 386.785 713.362,386.756 715.922,386.112 717.339 C 385.282 719.166,383.552 720.666,381.699 721.165 C 380.743 721.422,322.603 721.513,199.162 721.450 L 18.028 721.357 16.471 720.257 C 15.615 719.652,14.569 718.497,14.148 717.690 L 13.382 716.224 13.287 658.937 L 13.192 601.650 199.997 601.650 L 386.801 601.650 386.793 658.753 M31.910 616.774 C 31.918 617.026,32.162 618.222,32.455 619.432 C 33.061 621.943,33.246 699.509,32.652 702.291 C 32.480 703.098,32.219 704.294,32.072 704.950 L 31.806 706.141 37.901 706.141 C 41.253 706.141,43.995 706.017,43.992 705.866 C 43.990 705.715,43.709 704.766,43.367 703.758 C 42.616 701.542,42.161 662.795,42.865 660.944 C 43.625 658.946,42.090 657.252,78.075 699.800 L 83.410 706.108 89.551 706.125 C 92.929 706.134,95.691 706.017,95.691 705.866 C 95.689 705.625,84.627 692.511,62.571 666.605 C 53.755 656.250,53.915 656.647,58.559 656.643 C 70.160 656.631,78.802 649.757,80.332 639.322 C 81.897 628.649,74.173 618.196,63.611 616.695 C 59.631 616.129,31.894 616.198,31.910 616.774 M277.892 617.249 C 236.910 624.672,227.646 681.163,263.815 703.091 C 275.907 710.421,297.552 711.572,308.832 705.483 L 311.457 704.066 311.405 698.482 C 311.342 691.817,311.503 692.063,308.633 694.234 C 299.808 700.909,282.295 701.924,271.101 696.409 C 245.993 684.040,243.175 648.534,266.008 632.241 C 277.744 623.866,295.979 623.874,307.651 632.260 C 309.900 633.876,310.316 633.892,310.047 632.356 C 309.933 631.700,309.638 629.154,309.393 626.697 L 308.947 622.229 305.619 620.578 C 298.424 617.006,286.881 615.621,277.892 617.249 M131.806 618.034 C 94.413 622.881,78.498 667.756,104.849 694.043 C 133.187 722.312,181.267 702.467,181.246 662.511 C 181.232 636.043,157.510 614.703,131.806 618.034 M183.318 618.183 C 183.318 618.404,188.598 627.857,195.050 639.190 L 206.783 659.796 206.777 681.044 C 206.772 698.325,206.672 702.702,206.240 704.491 C 205.948 705.701,205.703 706.897,205.696 707.149 C 205.686 707.498,207.130 707.608,211.732 707.608 C 215.060 707.608,217.780 707.484,217.778 707.333 C 217.776 707.181,217.528 706.248,217.228 705.258 C 216.771 703.752,216.682 699.953,216.682 681.977 L 216.683 660.495 228.635 639.597 C 235.209 628.103,240.673 618.488,240.777 618.230 C 240.926 617.860,239.789 617.784,235.342 617.864 L 229.717 617.965 223.841 628.283 C 220.609 633.958,216.647 640.928,215.036 643.773 C 213.424 646.618,212.022 648.939,211.919 648.931 C 211.816 648.923,210.519 646.737,209.036 644.073 C 207.553 641.410,203.596 634.404,200.241 628.506 L 194.143 617.782 188.730 617.782 C 185.053 617.782,183.318 617.911,183.318 618.183 M329.245 618.057 C 329.248 618.208,329.536 619.074,329.886 619.982 C 330.870 622.533,330.865 701.917,329.881 705.098 C 329.528 706.238,329.239 707.271,329.239 707.393 C 329.239 707.515,336.611 707.572,345.622 707.520 L 362.004 707.424 365.446 701.981 C 369.337 695.826,369.314 695.951,366.404 696.928 C 361.272 698.651,346.279 699.019,343.355 697.493 C 340.141 695.817,340.238 696.407,340.238 678.606 C 340.238 658.022,339.031 659.945,351.952 659.945 L 360.770 659.945 360.770 654.995 L 360.770 650.046 351.763 650.046 C 339.450 650.046,340.238 650.800,340.238 639.017 C 340.238 629.621,340.377 629.130,343.460 627.620 C 346.689 626.039,357.334 626.314,362.114 628.102 C 364.766 629.094,364.738 629.210,363.324 623.100 L 362.094 617.782 345.667 617.782 C 336.632 617.782,329.242 617.906,329.245 618.057 M64.528 626.798 C 71.349 629.969,72.903 638.419,67.634 643.688 C 64.760 646.562,63.829 646.746,52.179 646.746 L 42.530 646.746 42.530 636.271 L 42.530 625.796 52.704 625.914 C 62.116 626.022,63.002 626.089,64.528 626.798 M145.049 628.223 C 166.910 633.706,178.177 657.637,168.443 677.910 C 154.918 706.077,114.100 704.014,103.373 674.621 C 93.752 648.256,117.869 621.406,145.049 628.223 " stroke="none" fill="#040404" fill-rule="evenodd"></path><path id="path1" d="" stroke="none" fill="#080404" fill-rule="evenodd"></path><path id="path2" d="" stroke="none" fill="#080404" fill-rule="evenodd"></path><path id="path3" d="" stroke="none" fill="#080404" fill-rule="evenodd"></path><path id="path4" d="" stroke="none" fill="#080404" fill-rule="evenodd"></path></g></svg>