<svg id="svg" version="1.1" xmlns="http://www.w3.org/2000/svg" xmlns:xlink="http://www.w3.org/1999/xlink" width="400" height="257.2" viewBox="0, 0, 400,257.2"><g id="svgg"><path id="path0" d="M183.700 0.317 C 99.528 6.244,40.439 51.161,50.813 101.332 C 57.087 131.677,90.122 159.024,135.700 171.603 C 136.580 171.846,137.705 172.165,138.200 172.311 C 139.029 172.556,144.693 173.951,147.825 174.683 C 152.837 175.852,164.237 177.809,169.500 178.402 C 186.986 180.373,204.798 180.767,219.300 179.502 C 221.170 179.339,223.285 179.157,224.000 179.098 C 237.146 178.010,254.856 174.527,268.200 170.406 C 342.355 147.503,371.525 93.376,333.683 48.900 C 318.540 31.102,295.260 17.600,263.679 8.299 C 251.733 4.780,232.676 1.449,219.600 0.594 C 217.895 0.483,215.330 0.304,213.900 0.196 C 210.045 -0.093,188.292 -0.006,183.700 0.317 M213.200 4.992 C 218.172 5.334,219.994 6.522,219.999 9.425 C 220.001 10.525,216.168 12.328,212.350 13.023 C 210.586 13.344,210.644 13.537,212.550 13.692 C 214.106 13.818,218.421 14.256,225.500 15.009 C 242.091 16.771,257.504 20.320,270.900 25.462 C 318.271 43.645,340.730 75.579,328.512 107.382 C 320.445 128.380,299.398 145.243,267.000 156.666 C 246.714 163.818,224.776 167.396,201.200 167.397 C 194.724 167.397,183.388 166.871,179.800 166.404 C 178.975 166.297,177.310 166.115,176.100 166.000 C 169.758 165.396,158.490 163.467,151.100 161.720 C 115.243 153.243,89.659 137.890,76.337 116.853 C 63.831 97.106,66.466 73.248,83.132 55.341 C 87.997 50.113,89.069 48.800,88.474 48.800 C 87.829 48.800,84.992 51.355,79.600 56.791 C 72.298 64.152,71.858 64.478,69.200 64.492 C 66.196 64.508,65.431 63.872,65.673 61.559 C 65.865 59.720,66.223 59.159,71.247 52.813 C 88.968 30.431,125.578 12.737,166.000 7.018 C 181.189 4.869,199.805 4.070,213.200 4.992 M187.089 18.897 C 173.702 19.656,158.694 21.996,147.900 25.007 C 143.074 26.353,141.055 26.967,137.376 28.207 C 111.200 37.028,90.563 52.250,81.529 69.400 C 66.113 98.666,84.992 131.304,127.400 148.704 C 128.005 148.952,129.282 149.476,130.237 149.868 C 140.675 154.150,156.538 158.447,167.600 159.990 C 168.315 160.090,169.845 160.307,171.000 160.472 C 174.553 160.981,178.184 161.401,180.800 161.605 C 182.175 161.712,184.470 161.907,185.900 162.037 C 201.448 163.456,209.948 161.268,218.500 153.645 C 235.742 138.278,231.846 118.711,207.500 98.395 C 177.805 73.617,142.510 57.031,124.308 59.302 C 118.385 60.040,116.689 59.454,119.681 57.701 C 124.788 54.708,136.027 54.669,147.300 57.605 C 157.389 60.233,176.611 67.609,180.100 70.192 C 180.210 70.274,181.650 71.041,183.300 71.898 C 190.767 75.775,191.400 76.223,191.400 77.620 C 191.400 79.992,187.476 79.181,180.581 75.385 C 178.228 74.090,176.400 73.307,176.400 73.594 C 176.400 74.295,177.112 74.886,180.262 76.798 C 192.718 84.362,208.618 96.214,215.407 102.996 C 227.329 114.904,232.119 125.683,230.430 136.800 C 228.922 146.726,223.430 153.889,212.900 159.662 C 209.056 161.769,208.938 161.632,214.500 161.535 C 217.140 161.489,220.560 161.302,222.100 161.121 C 229.924 160.198,237.467 158.965,243.500 157.621 C 247.932 156.634,249.016 156.376,250.800 155.883 C 251.845 155.594,252.970 155.288,253.300 155.202 C 256.139 154.465,263.730 152.017,268.700 150.237 C 276.060 147.601,282.978 144.371,284.750 142.744 C 286.353 141.272,283.476 142.087,278.600 144.487 C 271.124 148.167,266.884 149.684,263.260 149.977 C 260.597 150.192,262.714 148.776,267.800 146.942 C 291.398 138.431,313.685 119.203,317.691 103.900 C 318.861 99.431,319.627 98.259,320.310 99.894 C 320.755 100.957,320.677 101.479,319.618 104.547 C 318.080 109.006,318.087 109.789,319.655 108.413 C 321.349 106.925,322.794 102.321,323.612 95.806 C 324.478 88.900,323.918 84.991,320.747 75.800 C 320.044 73.765,319.302 71.448,319.096 70.650 C 318.642 68.888,319.181 68.882,313.550 70.708 C 300.901 74.810,290.537 74.729,271.700 70.382 C 263.260 68.434,255.804 66.397,244.300 62.898 C 234.501 59.917,229.733 58.587,220.282 56.200 C 195.470 49.930,178.332 47.934,170.389 50.387 C 169.006 50.814,167.199 51.881,167.202 52.269 C 167.203 52.396,170.555 54.071,174.652 55.991 C 190.787 63.554,192.603 64.400,192.700 64.400 C 193.125 64.400,192.613 63.675,191.724 63.018 C 190.361 62.011,189.821 59.583,190.966 59.607 C 192.383 59.637,196.990 60.878,203.300 62.930 C 205.271 63.571,206.479 64.378,207.001 65.403 C 207.605 66.587,207.540 66.703,205.700 67.706 C 203.742 68.773,203.707 68.837,204.850 69.260 C 209.228 70.877,214.744 71.580,220.100 71.204 C 227.846 70.660,229.442 70.718,229.562 71.545 C 229.658 72.208,229.152 72.350,225.383 72.722 C 220.679 73.186,212.852 73.201,210.098 72.752 C 205.423 71.989,189.537 65.394,176.021 58.605 C 168.841 54.998,166.917 54.123,164.095 53.183 L 162.100 52.517 156.350 52.443 L 150.600 52.368 150.600 51.860 C 150.600 50.292,155.088 48.417,163.600 46.431 C 175.999 43.536,193.818 43.491,211.900 46.308 C 217.927 47.247,225.129 48.543,229.100 49.403 C 232.359 50.110,240.068 51.830,241.800 52.237 C 242.735 52.457,243.995 52.753,244.600 52.894 C 245.205 53.036,247.230 53.528,249.100 53.988 C 250.970 54.448,254.165 55.175,256.200 55.604 C 261.721 56.765,263.509 57.399,264.785 58.646 C 265.795 59.634,265.909 59.968,265.312 60.195 C 260.879 61.881,254.816 61.475,239.900 58.496 C 233.787 57.274,232.121 57.042,231.912 57.381 C 231.621 57.851,234.271 58.656,244.900 61.328 C 248.640 62.268,254.985 63.978,259.000 65.129 C 269.972 68.274,272.997 69.012,278.900 69.984 C 296.888 72.947,312.542 71.979,316.656 67.650 L 317.213 67.065 316.594 65.889 C 308.103 49.747,281.623 33.093,252.000 25.265 C 234.838 20.730,220.231 18.862,200.700 18.707 C 194.872 18.660,190.075 18.727,187.089 18.897 M208.600 22.596 C 210.965 22.693,213.620 22.862,214.500 22.971 C 215.380 23.081,217.630 23.229,219.500 23.300 C 222.767 23.424,228.229 24.055,231.800 24.721 C 234.122 25.154,238.203 25.962,239.900 26.324 C 240.670 26.488,242.155 26.804,243.200 27.026 C 264.016 31.449,284.131 40.605,297.600 51.785 C 302.207 55.609,309.000 62.799,309.000 63.851 C 309.000 64.074,304.777 63.921,302.033 63.598 C 298.360 63.166,293.168 62.215,285.100 60.497 C 283.780 60.216,282.070 59.859,281.300 59.703 C 280.530 59.548,278.865 59.198,277.600 58.926 C 276.335 58.655,274.805 58.331,274.200 58.207 C 273.595 58.083,272.560 57.853,271.900 57.697 C 271.240 57.541,269.665 57.181,268.400 56.897 C 264.231 55.959,259.572 54.790,254.500 53.408 C 246.500 51.228,240.333 49.780,230.300 47.727 C 220.204 45.661,212.486 44.342,205.500 43.490 C 199.923 42.809,175.770 42.732,171.822 43.383 C 170.545 43.593,168.825 43.823,168.000 43.894 C 159.312 44.640,150.906 47.721,148.992 50.860 C 147.886 52.673,148.842 53.599,153.477 55.203 C 154.699 55.627,157.410 56.752,159.500 57.704 C 190.263 71.717,204.668 77.522,211.371 78.605 C 212.827 78.841,212.965 78.834,218.600 78.279 C 221.630 77.980,224.650 76.791,229.200 74.107 C 230.724 73.208,232.266 72.466,233.150 72.207 C 233.947 71.974,234.600 71.706,234.600 71.612 C 234.600 71.193,233.179 70.232,232.366 70.102 C 231.890 70.025,225.830 68.225,218.900 66.101 C 211.970 63.977,205.445 61.996,204.400 61.699 C 197.167 59.644,184.680 55.650,183.400 54.983 L 182.700 54.618 184.120 54.609 C 188.942 54.579,203.583 58.424,227.100 65.895 C 234.072 68.110,239.694 69.776,245.000 71.200 C 246.705 71.657,249.855 72.530,252.000 73.140 C 254.145 73.749,256.350 74.361,256.900 74.500 C 257.450 74.638,259.565 75.203,261.600 75.755 C 272.877 78.812,278.713 79.800,285.492 79.800 C 298.231 79.799,308.361 77.786,314.213 74.092 L 314.941 73.632 315.294 74.366 C 320.598 85.388,319.332 101.057,312.253 112.000 C 300.552 130.088,278.285 143.603,245.900 152.273 C 239.991 153.855,231.806 155.472,231.460 155.127 C 231.434 155.100,232.421 154.409,233.654 153.589 C 239.891 149.445,243.463 143.353,245.201 133.895 C 245.678 131.297,245.700 130.020,245.300 127.932 C 245.135 127.070,245.000 125.663,245.000 124.804 C 245.000 111.068,225.853 92.371,194.300 75.296 C 164.875 59.373,140.458 51.604,126.948 53.865 C 121.261 54.817,115.800 57.612,115.800 59.571 C 115.800 60.994,116.462 61.373,119.380 61.622 C 139.153 63.306,184.629 90.263,202.679 111.000 C 216.791 127.211,217.719 141.249,205.487 153.481 C 202.006 156.962,200.494 157.682,197.032 157.505 C 195.640 157.435,190.900 157.297,186.500 157.199 C 176.190 156.970,171.144 156.410,161.300 154.402 C 160.310 154.200,158.510 153.833,157.300 153.587 C 119.179 145.830,91.447 127.254,83.570 104.202 C 72.185 70.882,102.752 38.994,157.689 26.881 C 170.895 23.969,178.799 22.925,190.194 22.585 C 193.985 22.472,197.135 22.327,197.194 22.264 C 197.296 22.154,199.073 22.206,208.600 22.596 M218.049 146.222 C 221.255 149.763,216.920 155.148,208.395 158.212 C 206.777 158.793,203.000 159.291,203.000 158.922 C 203.000 158.516,204.012 157.453,207.283 154.421 C 209.898 151.997,211.207 150.623,211.987 149.481 C 214.990 145.086,216.355 144.351,218.049 146.222 " stroke="none" fill="#ec1c24" fill-rule="evenodd"></path><path id="path1" d="M83.700 201.297 C 83.480 201.336,82.355 201.470,81.200 201.594 C 57.399 204.151,44.790 225.465,56.535 243.287 C 68.925 262.089,101.075 261.892,113.477 242.939 C 124.481 226.120,112.861 204.596,91.200 201.677 C 89.114 201.396,84.465 201.161,83.700 201.297 M16.100 202.457 C 4.536 203.362,-0.216 207.757,0.051 217.300 C 0.261 224.826,3.737 228.269,16.100 233.196 C 25.440 236.919,29.464 240.064,29.491 243.664 C 29.518 247.237,25.725 248.118,10.550 248.060 L 0.000 248.019 0.000 251.884 L 0.000 255.748 1.450 255.882 C 2.248 255.955,4.160 256.165,5.700 256.347 C 10.184 256.877,21.772 256.817,25.506 256.244 C 38.083 254.313,44.157 249.813,45.005 241.800 C 45.707 235.163,41.773 231.128,28.200 224.564 C 13.817 217.607,12.393 216.420,13.612 212.407 C 14.911 208.129,20.040 207.474,40.979 208.910 L 42.659 209.026 42.552 207.459 C 42.318 204.055,41.155 202.848,37.700 202.425 C 35.676 202.177,19.364 202.201,16.100 202.457 M121.931 203.850 C 121.163 213.716,122.180 239.460,123.504 243.651 C 126.433 252.921,136.641 257.846,150.400 256.626 C 165.864 255.255,172.691 248.228,174.128 232.200 C 174.540 227.607,174.186 211.752,173.490 203.646 L 173.365 202.192 168.933 202.246 L 164.500 202.300 164.385 217.000 C 164.264 232.593,164.165 234.392,163.189 238.700 C 161.384 246.668,157.610 250.400,151.009 250.741 C 139.461 251.339,134.989 242.726,135.983 221.800 C 136.299 215.146,136.487 204.711,136.316 203.350 L 136.171 202.200 129.115 202.200 L 122.059 202.200 121.931 203.850 M182.600 207.200 L 182.600 212.200 206.200 212.200 L 229.800 212.200 229.800 207.200 L 229.800 202.200 206.200 202.200 L 182.600 202.200 182.600 207.200 M258.802 203.528 C 258.471 204.258,258.200 204.902,258.200 204.958 C 258.200 205.015,257.293 207.140,256.183 209.681 C 255.074 212.221,253.578 215.650,252.859 217.300 C 252.140 218.950,251.433 220.570,251.287 220.900 C 251.142 221.230,250.249 223.300,249.302 225.500 C 248.356 227.700,247.501 229.680,247.402 229.900 C 247.304 230.120,246.443 232.100,245.490 234.300 C 244.536 236.500,243.012 240.010,242.103 242.100 C 241.194 244.190,239.717 247.610,238.820 249.700 C 237.922 251.790,237.101 253.656,236.994 253.847 C 236.887 254.039,236.675 254.556,236.523 254.997 L 236.247 255.800 240.473 255.774 C 242.798 255.759,245.367 255.692,246.182 255.624 L 247.663 255.500 249.182 252.500 L 250.700 249.500 253.700 249.376 C 255.350 249.308,260.046 249.240,264.137 249.226 L 271.573 249.200 271.707 249.650 C 271.781 249.898,272.345 251.382,272.959 252.950 L 274.077 255.800 281.739 255.800 C 285.952 255.800,289.400 255.727,289.400 255.637 C 289.400 255.490,288.185 252.464,286.254 247.800 C 285.867 246.865,285.346 245.605,285.098 245.000 C 284.287 243.029,283.985 242.307,283.801 241.900 C 283.701 241.680,283.027 240.060,282.304 238.300 C 281.580 236.540,280.812 234.695,280.597 234.200 C 280.042 232.921,276.617 224.677,276.195 223.600 C 275.831 222.673,274.072 218.426,272.593 214.900 C 271.597 212.527,269.551 207.593,268.259 204.450 L 267.335 202.200 263.369 202.200 L 259.404 202.200 258.802 203.528 M313.540 202.509 C 302.904 203.559,298.328 207.887,298.325 216.900 C 298.323 224.352,302.291 228.366,314.300 233.062 C 323.554 236.680,327.874 240.046,327.894 243.654 C 327.913 247.216,323.914 248.125,308.550 248.048 L 298.200 247.997 298.224 251.248 C 298.237 253.037,298.305 254.770,298.376 255.100 L 298.504 255.700 302.802 256.165 C 324.828 258.546,339.742 254.291,342.814 244.748 C 345.535 236.297,342.147 232.266,325.300 223.904 C 312.059 217.332,310.790 216.240,311.973 212.436 C 313.221 208.427,317.328 207.642,332.600 208.495 C 335.515 208.658,338.609 208.830,339.475 208.878 L 341.049 208.966 340.959 207.405 C 340.781 204.329,339.708 203.031,336.898 202.493 C 334.899 202.111,317.457 202.123,313.540 202.509 M348.732 204.001 C 348.659 205.024,348.600 206.828,348.600 208.009 L 348.600 210.157 357.483 210.228 C 362.369 210.268,366.434 210.367,366.516 210.449 C 366.597 210.531,366.719 220.672,366.785 232.985 C 366.851 245.298,366.949 255.412,367.003 255.460 C 367.056 255.509,370.408 255.613,374.450 255.691 L 381.800 255.834 381.800 233.148 L 381.800 210.463 385.250 210.332 C 387.148 210.260,391.243 210.201,394.350 210.201 L 400.000 210.200 400.000 206.300 L 400.000 202.400 377.432 202.400 C 365.019 202.400,353.514 202.342,351.864 202.270 L 348.864 202.140 348.732 204.001 M87.600 206.333 C 94.255 207.853,100.711 215.571,102.109 223.678 C 104.058 234.971,99.355 247.092,91.400 251.279 C 86.999 253.596,80.811 253.604,76.425 251.299 C 67.540 246.630,63.271 231.940,67.205 219.578 C 69.471 212.461,75.091 207.207,81.500 206.216 C 82.380 206.079,83.235 205.937,83.400 205.898 C 83.909 205.780,86.232 206.020,87.600 206.333 M182.800 228.399 L 182.800 233.400 206.403 233.400 L 230.007 233.400 229.953 228.450 L 229.900 223.500 206.350 223.449 L 182.800 223.398 182.800 228.399 M262.497 226.189 C 262.893 227.117,263.340 228.152,263.489 228.489 C 264.250 230.205,268.287 239.388,268.528 239.950 L 268.805 240.600 261.602 240.600 L 254.399 240.600 254.649 240.016 C 259.559 228.565,261.494 224.215,261.620 224.342 C 261.705 224.429,262.100 225.260,262.497 226.189 M182.600 249.700 L 182.600 254.402 206.250 254.351 L 229.900 254.300 229.900 249.700 L 229.900 245.100 206.250 245.049 L 182.600 244.998 182.600 249.700 " stroke="none" fill="#040404" fill-rule="evenodd"></path><path id="path2" d="M183.850 5.138 C 184.043 5.188,184.358 5.188,184.550 5.138 C 184.743 5.088,184.585 5.046,184.200 5.046 C 183.815 5.046,183.658 5.088,183.850 5.138 M186.453 18.944 C 186.757 18.989,187.207 18.988,187.453 18.941 C 187.699 18.893,187.450 18.856,186.900 18.857 C 186.350 18.859,186.149 18.898,186.453 18.944 M211.050 18.943 C 211.353 18.989,211.847 18.989,212.150 18.943 C 212.453 18.897,212.205 18.860,211.600 18.860 C 210.995 18.860,210.748 18.897,211.050 18.943 M181.564 42.950 C 184.900 42.981,190.300 42.981,193.564 42.950 C 196.829 42.919,194.100 42.894,187.500 42.894 C 180.900 42.894,178.229 42.919,181.564 42.950 M70.492 44.050 L 69.500 45.100 70.550 44.108 C 71.127 43.562,71.600 43.089,71.600 43.058 C 71.600 42.908,71.415 43.074,70.492 44.050 M178.057 49.348 C 178.694 49.388,179.684 49.387,180.257 49.347 C 180.831 49.307,180.310 49.274,179.100 49.275 C 177.890 49.275,177.421 49.308,178.057 49.348 M83.600 52.500 C 83.114 52.995,82.762 53.400,82.817 53.400 C 82.872 53.400,83.314 52.995,83.800 52.500 C 84.286 52.005,84.638 51.600,84.583 51.600 C 84.528 51.600,84.086 52.005,83.600 52.500 M92.800 54.300 C 92.314 54.795,91.962 55.200,92.017 55.200 C 92.072 55.200,92.514 54.795,93.000 54.300 C 93.486 53.805,93.838 53.400,93.783 53.400 C 93.728 53.400,93.286 53.805,92.800 54.300 M76.800 59.500 C 76.314 59.995,75.962 60.400,76.017 60.400 C 76.072 60.400,76.514 59.995,77.000 59.500 C 77.486 59.005,77.838 58.600,77.783 58.600 C 77.728 58.600,77.286 59.005,76.800 59.500 M128.350 58.941 C 128.597 58.989,129.003 58.989,129.250 58.941 C 129.498 58.893,129.295 58.854,128.800 58.854 C 128.305 58.854,128.103 58.893,128.350 58.941 M218.650 71.338 C 218.843 71.388,219.157 71.388,219.350 71.338 C 219.543 71.288,219.385 71.246,219.000 71.246 C 218.615 71.246,218.457 71.288,218.650 71.338 M198.600 106.700 C 199.197 107.305,199.731 107.800,199.786 107.800 C 199.841 107.800,199.397 107.305,198.800 106.700 C 198.203 106.095,197.669 105.600,197.614 105.600 C 197.559 105.600,198.003 106.095,198.600 106.700 M96.500 124.400 C 97.153 125.060,97.732 125.600,97.787 125.600 C 97.842 125.600,97.353 125.060,96.700 124.400 C 96.047 123.740,95.468 123.200,95.413 123.200 C 95.358 123.200,95.847 123.740,96.500 124.400 M303.487 125.050 L 302.900 125.700 303.550 125.113 C 304.156 124.565,304.292 124.400,304.137 124.400 C 304.103 124.400,303.810 124.692,303.487 125.050 M245.060 125.800 C 245.060 126.405,245.097 126.653,245.143 126.350 C 245.189 126.047,245.189 125.553,245.143 125.250 C 245.097 124.947,245.060 125.195,245.060 125.800 M85.000 128.063 C 85.000 128.097,85.293 128.390,85.650 128.713 L 86.300 129.300 85.713 128.650 C 85.165 128.044,85.000 127.908,85.000 128.063 M87.000 130.063 C 87.000 130.097,87.293 130.390,87.650 130.713 L 88.300 131.300 87.713 130.650 C 87.165 130.044,87.000 129.908,87.000 130.063 M229.069 132.300 C 229.069 133.180,229.104 133.515,229.147 133.045 C 229.189 132.574,229.188 131.854,229.145 131.445 C 229.102 131.035,229.068 131.420,229.069 132.300 M214.066 136.300 C 214.067 137.070,214.103 137.360,214.146 136.946 C 214.189 136.531,214.189 135.901,214.144 135.546 C 214.100 135.190,214.065 135.530,214.066 136.300 M181.550 157.148 C 182.238 157.187,183.363 157.187,184.050 157.148 C 184.738 157.109,184.175 157.077,182.800 157.077 C 181.425 157.077,180.863 157.109,181.550 157.148 M190.850 157.338 C 191.043 157.388,191.358 157.388,191.550 157.338 C 191.743 157.288,191.585 157.246,191.200 157.246 C 190.815 157.246,190.658 157.288,190.850 157.338 M218.450 166.738 C 218.643 166.788,218.957 166.788,219.150 166.738 C 219.343 166.688,219.185 166.646,218.800 166.646 C 218.415 166.646,218.257 166.688,218.450 166.738 " stroke="none" fill="#f01014" fill-rule="evenodd"></path><path id="path3" d="M183.850 5.138 C 184.043 5.188,184.358 5.188,184.550 5.138 C 184.743 5.088,184.585 5.046,184.200 5.046 C 183.815 5.046,183.658 5.088,183.850 5.138 M186.453 18.944 C 186.757 18.989,187.207 18.988,187.453 18.941 C 187.699 18.893,187.450 18.856,186.900 18.857 C 186.350 18.859,186.149 18.898,186.453 18.944 M211.050 18.943 C 211.353 18.989,211.847 18.989,212.150 18.943 C 212.453 18.897,212.205 18.860,211.600 18.860 C 210.995 18.860,210.748 18.897,211.050 18.943 M181.564 42.950 C 184.900 42.981,190.300 42.981,193.564 42.950 C 196.829 42.919,194.100 42.894,187.500 42.894 C 180.900 42.894,178.229 42.919,181.564 42.950 M70.492 44.050 L 69.500 45.100 70.550 44.108 C 71.127 43.562,71.600 43.089,71.600 43.058 C 71.600 42.908,71.415 43.074,70.492 44.050 M178.057 49.348 C 178.694 49.388,179.684 49.387,180.257 49.347 C 180.831 49.307,180.310 49.274,179.100 49.275 C 177.890 49.275,177.421 49.308,178.057 49.348 M83.600 52.500 C 83.114 52.995,82.762 53.400,82.817 53.400 C 82.872 53.400,83.314 52.995,83.800 52.500 C 84.286 52.005,84.638 51.600,84.583 51.600 C 84.528 51.600,84.086 52.005,83.600 52.500 M92.800 54.300 C 92.314 54.795,91.962 55.200,92.017 55.200 C 92.072 55.200,92.514 54.795,93.000 54.300 C 93.486 53.805,93.838 53.400,93.783 53.400 C 93.728 53.400,93.286 53.805,92.800 54.300 M76.800 59.500 C 76.314 59.995,75.962 60.400,76.017 60.400 C 76.072 60.400,76.514 59.995,77.000 59.500 C 77.486 59.005,77.838 58.600,77.783 58.600 C 77.728 58.600,77.286 59.005,76.800 59.500 M128.350 58.941 C 128.597 58.989,129.003 58.989,129.250 58.941 C 129.498 58.893,129.295 58.854,128.800 58.854 C 128.305 58.854,128.103 58.893,128.350 58.941 M218.650 71.338 C 218.843 71.388,219.157 71.388,219.350 71.338 C 219.543 71.288,219.385 71.246,219.000 71.246 C 218.615 71.246,218.457 71.288,218.650 71.338 M198.600 106.700 C 199.197 107.305,199.731 107.800,199.786 107.800 C 199.841 107.800,199.397 107.305,198.800 106.700 C 198.203 106.095,197.669 105.600,197.614 105.600 C 197.559 105.600,198.003 106.095,198.600 106.700 M96.500 124.400 C 97.153 125.060,97.732 125.600,97.787 125.600 C 97.842 125.600,97.353 125.060,96.700 124.400 C 96.047 123.740,95.468 123.200,95.413 123.200 C 95.358 123.200,95.847 123.740,96.500 124.400 M303.487 125.050 L 302.900 125.700 303.550 125.113 C 304.156 124.565,304.292 124.400,304.137 124.400 C 304.103 124.400,303.810 124.692,303.487 125.050 M245.060 125.800 C 245.060 126.405,245.097 126.653,245.143 126.350 C 245.189 126.047,245.189 125.553,245.143 125.250 C 245.097 124.947,245.060 125.195,245.060 125.800 M85.000 128.063 C 85.000 128.097,85.293 128.390,85.650 128.713 L 86.300 129.300 85.713 128.650 C 85.165 128.044,85.000 127.908,85.000 128.063 M87.000 130.063 C 87.000 130.097,87.293 130.390,87.650 130.713 L 88.300 131.300 87.713 130.650 C 87.165 130.044,87.000 129.908,87.000 130.063 M229.069 132.300 C 229.069 133.180,229.104 133.515,229.147 133.045 C 229.189 132.574,229.188 131.854,229.145 131.445 C 229.102 131.035,229.068 131.420,229.069 132.300 M214.066 136.300 C 214.067 137.070,214.103 137.360,214.146 136.946 C 214.189 136.531,214.189 135.901,214.144 135.546 C 214.100 135.190,214.065 135.530,214.066 136.300 M181.550 157.148 C 182.238 157.187,183.363 157.187,184.050 157.148 C 184.738 157.109,184.175 157.077,182.800 157.077 C 181.425 157.077,180.863 157.109,181.550 157.148 M190.850 157.338 C 191.043 157.388,191.358 157.388,191.550 157.338 C 191.743 157.288,191.585 157.246,191.200 157.246 C 190.815 157.246,190.658 157.288,190.850 157.338 M218.450 166.738 C 218.643 166.788,218.957 166.788,219.150 166.738 C 219.343 166.688,219.185 166.646,218.800 166.646 C 218.415 166.646,218.257 166.688,218.450 166.738 " stroke="none" fill="#f01014" fill-rule="evenodd"></path><path id="path4" d="M183.850 5.138 C 184.043 5.188,184.358 5.188,184.550 5.138 C 184.743 5.088,184.585 5.046,184.200 5.046 C 183.815 5.046,183.658 5.088,183.850 5.138 M186.453 18.944 C 186.757 18.989,187.207 18.988,187.453 18.941 C 187.699 18.893,187.450 18.856,186.900 18.857 C 186.350 18.859,186.149 18.898,186.453 18.944 M211.050 18.943 C 211.353 18.989,211.847 18.989,212.150 18.943 C 212.453 18.897,212.205 18.860,211.600 18.860 C 210.995 18.860,210.748 18.897,211.050 18.943 M181.564 42.950 C 184.900 42.981,190.300 42.981,193.564 42.950 C 196.829 42.919,194.100 42.894,187.500 42.894 C 180.900 42.894,178.229 42.919,181.564 42.950 M70.492 44.050 L 69.500 45.100 70.550 44.108 C 71.127 43.562,71.600 43.089,71.600 43.058 C 71.600 42.908,71.415 43.074,70.492 44.050 M178.057 49.348 C 178.694 49.388,179.684 49.387,180.257 49.347 C 180.831 49.307,180.310 49.274,179.100 49.275 C 177.890 49.275,177.421 49.308,178.057 49.348 M83.600 52.500 C 83.114 52.995,82.762 53.400,82.817 53.400 C 82.872 53.400,83.314 52.995,83.800 52.500 C 84.286 52.005,84.638 51.600,84.583 51.600 C 84.528 51.600,84.086 52.005,83.600 52.500 M92.800 54.300 C 92.314 54.795,91.962 55.200,92.017 55.200 C 92.072 55.200,92.514 54.795,93.000 54.300 C 93.486 53.805,93.838 53.400,93.783 53.400 C 93.728 53.400,93.286 53.805,92.800 54.300 M76.800 59.500 C 76.314 59.995,75.962 60.400,76.017 60.400 C 76.072 60.400,76.514 59.995,77.000 59.500 C 77.486 59.005,77.838 58.600,77.783 58.600 C 77.728 58.600,77.286 59.005,76.800 59.500 M128.350 58.941 C 128.597 58.989,129.003 58.989,129.250 58.941 C 129.498 58.893,129.295 58.854,128.800 58.854 C 128.305 58.854,128.103 58.893,128.350 58.941 M218.650 71.338 C 218.843 71.388,219.157 71.388,219.350 71.338 C 219.543 71.288,219.385 71.246,219.000 71.246 C 218.615 71.246,218.457 71.288,218.650 71.338 M198.600 106.700 C 199.197 107.305,199.731 107.800,199.786 107.800 C 199.841 107.800,199.397 107.305,198.800 106.700 C 198.203 106.095,197.669 105.600,197.614 105.600 C 197.559 105.600,198.003 106.095,198.600 106.700 M96.500 124.400 C 97.153 125.060,97.732 125.600,97.787 125.600 C 97.842 125.600,97.353 125.060,96.700 124.400 C 96.047 123.740,95.468 123.200,95.413 123.200 C 95.358 123.200,95.847 123.740,96.500 124.400 M303.487 125.050 L 302.900 125.700 303.550 125.113 C 304.156 124.565,304.292 124.400,304.137 124.400 C 304.103 124.400,303.810 124.692,303.487 125.050 M245.060 125.800 C 245.060 126.405,245.097 126.653,245.143 126.350 C 245.189 126.047,245.189 125.553,245.143 125.250 C 245.097 124.947,245.060 125.195,245.060 125.800 M85.000 128.063 C 85.000 128.097,85.293 128.390,85.650 128.713 L 86.300 129.300 85.713 128.650 C 85.165 128.044,85.000 127.908,85.000 128.063 M87.000 130.063 C 87.000 130.097,87.293 130.390,87.650 130.713 L 88.300 131.300 87.713 130.650 C 87.165 130.044,87.000 129.908,87.000 130.063 M229.069 132.300 C 229.069 133.180,229.104 133.515,229.147 133.045 C 229.189 132.574,229.188 131.854,229.145 131.445 C 229.102 131.035,229.068 131.420,229.069 132.300 M214.066 136.300 C 214.067 137.070,214.103 137.360,214.146 136.946 C 214.189 136.531,214.189 135.901,214.144 135.546 C 214.100 135.190,214.065 135.530,214.066 136.300 M181.550 157.148 C 182.238 157.187,183.363 157.187,184.050 157.148 C 184.738 157.109,184.175 157.077,182.800 157.077 C 181.425 157.077,180.863 157.109,181.550 157.148 M190.850 157.338 C 191.043 157.388,191.358 157.388,191.550 157.338 C 191.743 157.288,191.585 157.246,191.200 157.246 C 190.815 157.246,190.658 157.288,190.850 157.338 M218.450 166.738 C 218.643 166.788,218.957 166.788,219.150 166.738 C 219.343 166.688,219.185 166.646,218.800 166.646 C 218.415 166.646,218.257 166.688,218.450 166.738 " stroke="none" fill="#f01014" fill-rule="evenodd"></path></g></svg>