<svg id="svg" version="1.1" xmlns="http://www.w3.org/2000/svg" xmlns:xlink="http://www.w3.org/1999/xlink" width="400" height="222.4" viewBox="0, 0, 400,222.4"><g id="svgg"><path id="path0" d="M19.000 159.949 C 18.725 159.986,17.960 160.146,17.300 160.304 C 16.640 160.461,15.875 160.631,15.600 160.680 C 15.325 160.730,15.100 160.784,15.100 160.800 C 15.100 160.817,14.948 160.860,14.762 160.896 C 14.106 161.022,12.897 161.455,12.650 161.651 C 12.513 161.760,12.400 161.793,12.400 161.724 C 12.400 161.655,12.064 161.779,11.653 162.000 C 11.242 162.220,10.792 162.400,10.653 162.400 C 10.514 162.400,10.400 162.484,10.400 162.587 C 10.400 162.689,10.198 162.833,9.950 162.907 C 9.329 163.091,7.992 163.981,7.450 164.572 C 7.203 164.842,7.000 164.988,7.000 164.897 C 7.000 164.806,6.483 165.279,5.850 165.948 C 4.216 167.678,3.800 168.176,3.800 168.402 C 3.800 168.511,3.727 168.600,3.638 168.600 C 3.550 168.600,3.308 168.983,3.102 169.450 C 2.896 169.918,2.604 170.424,2.452 170.576 C 2.301 170.727,2.224 170.975,2.282 171.126 C 2.340 171.277,2.307 171.400,2.210 171.400 C 1.970 171.400,1.759 172.343,1.449 174.800 C 1.274 176.182,1.271 179.412,1.443 180.600 C 1.581 181.554,1.591 181.600,1.987 183.000 C 2.128 183.495,2.232 183.923,2.218 183.951 C 2.180 184.033,3.239 186.089,3.377 186.200 C 3.445 186.255,3.620 186.533,3.767 186.818 C 4.531 188.305,8.512 191.720,9.326 191.587 C 9.397 191.575,9.525 191.678,9.609 191.815 C 9.694 191.952,9.929 192.078,10.132 192.094 C 10.334 192.111,10.725 192.251,11.000 192.405 C 11.275 192.560,11.545 192.696,11.600 192.709 C 12.362 192.887,12.800 193.079,12.800 193.233 C 12.800 193.338,12.890 193.368,13.000 193.300 C 13.110 193.232,13.200 193.255,13.200 193.352 C 13.200 193.449,14.032 193.910,15.050 194.376 C 16.068 194.843,17.035 195.295,17.200 195.381 C 17.365 195.467,17.703 195.642,17.950 195.769 C 18.520 196.062,18.997 196.314,20.539 197.138 C 21.220 197.502,21.918 197.800,22.089 197.800 C 22.260 197.800,22.400 197.875,22.400 197.967 C 22.400 198.059,23.130 198.513,24.022 198.975 C 24.914 199.437,25.766 199.924,25.915 200.058 C 26.483 200.565,26.786 200.800,26.874 200.800 C 26.925 200.800,27.472 201.317,28.091 201.950 C 29.569 203.461,30.249 205.504,29.556 206.350 C 29.443 206.488,29.424 206.600,29.513 206.600 C 29.602 206.600,29.416 206.870,29.100 207.200 C 28.784 207.530,28.609 207.800,28.713 207.800 C 28.887 207.800,26.625 209.481,26.402 209.516 C 26.346 209.525,25.860 209.730,25.322 209.971 C 24.784 210.213,24.304 210.371,24.257 210.323 C 24.209 210.276,23.884 210.324,23.535 210.430 C 20.704 211.292,16.186 211.314,12.600 210.483 C 12.325 210.419,11.740 210.291,11.300 210.199 C 10.860 210.106,9.600 209.738,8.500 209.380 C 7.400 209.021,6.324 208.697,6.109 208.659 C 5.893 208.621,5.662 208.501,5.595 208.391 C 5.477 208.201,4.324 207.799,3.901 207.801 C 3.791 207.801,3.528 208.229,3.318 208.751 C 2.750 210.165,2.193 211.453,1.968 211.873 C 1.858 212.078,1.739 212.396,1.704 212.581 C 1.648 212.868,0.869 214.659,0.158 216.135 C -0.151 216.777,0.116 217.526,0.749 217.788 C 1.052 217.913,1.660 218.224,2.100 218.480 C 2.540 218.735,2.968 218.906,3.050 218.860 C 3.133 218.814,3.200 218.872,3.200 218.988 C 3.200 219.105,3.268 219.182,3.350 219.159 C 3.433 219.136,3.940 219.317,4.478 219.560 C 5.316 219.939,6.322 220.261,8.100 220.719 C 8.817 220.903,11.757 221.409,12.500 221.476 C 12.720 221.496,12.990 221.564,13.100 221.627 C 13.578 221.902,20.685 221.944,23.200 221.686 C 23.805 221.624,24.615 221.544,25.000 221.508 C 25.385 221.472,25.700 221.428,25.700 221.410 C 25.700 221.392,26.015 221.340,26.400 221.295 C 26.785 221.249,27.325 221.165,27.600 221.107 C 27.875 221.048,28.505 220.946,29.000 220.879 C 29.495 220.813,30.203 220.633,30.574 220.479 C 30.945 220.326,31.397 220.200,31.577 220.200 C 31.758 220.200,32.220 220.034,32.603 219.831 C 32.986 219.628,33.548 219.401,33.850 219.327 C 34.153 219.253,34.400 219.111,34.400 219.012 C 34.400 218.913,34.673 218.772,35.008 218.698 C 35.342 218.625,36.018 218.258,36.509 217.882 C 37.001 217.507,37.450 217.200,37.506 217.200 C 37.718 217.200,40.400 214.464,40.400 214.247 C 40.400 214.122,40.527 213.948,40.683 213.860 C 41.308 213.507,42.773 210.159,43.117 208.300 C 43.435 206.575,43.557 202.929,43.333 201.800 C 43.048 200.357,42.762 199.299,42.634 199.205 C 42.554 199.147,42.325 198.729,42.125 198.275 C 41.925 197.821,41.380 197.034,40.913 196.525 C 40.447 196.017,40.118 195.542,40.183 195.469 C 40.247 195.396,40.200 195.393,40.077 195.463 C 39.806 195.617,39.137 194.930,39.350 194.717 C 39.432 194.634,39.365 194.597,39.200 194.633 C 39.035 194.670,38.923 194.588,38.950 194.450 C 38.978 194.313,38.929 194.200,38.842 194.200 C 38.755 194.200,38.363 193.908,37.971 193.550 C 37.579 193.192,36.863 192.604,36.379 192.243 C 35.896 191.882,35.098 191.279,34.606 190.903 C 34.115 190.528,33.678 190.255,33.635 190.298 C 33.592 190.341,33.320 190.157,33.031 189.888 C 32.741 189.620,32.432 189.400,32.344 189.400 C 32.255 189.400,32.074 189.308,31.942 189.196 C 31.365 188.710,29.879 187.807,29.650 187.804 C 29.513 187.802,29.400 187.720,29.400 187.623 C 29.400 187.526,29.243 187.395,29.050 187.332 C 28.858 187.269,28.340 187.002,27.900 186.739 C 25.915 185.553,24.800 184.975,24.794 185.131 C 24.791 185.224,24.696 185.143,24.584 184.950 C 24.472 184.758,24.211 184.600,24.004 184.600 C 23.798 184.600,23.505 184.477,23.355 184.326 C 23.204 184.176,22.861 183.984,22.591 183.900 C 21.912 183.690,19.115 182.141,18.800 181.801 C 18.745 181.742,18.401 181.448,18.035 181.147 C 17.669 180.846,17.432 180.600,17.508 180.600 C 17.585 180.600,17.427 180.308,17.157 179.950 C 16.156 178.624,15.915 176.440,16.638 175.250 C 16.855 174.893,16.974 174.600,16.902 174.600 C 16.830 174.600,16.919 174.452,17.099 174.272 C 17.280 174.092,17.567 173.731,17.738 173.471 C 18.532 172.259,21.833 171.382,25.064 171.526 C 27.461 171.633,28.700 171.730,28.700 171.810 C 28.700 171.854,29.147 171.935,30.100 172.062 C 30.430 172.107,30.835 172.190,31.000 172.247 C 31.892 172.559,32.886 172.770,33.033 172.680 C 33.125 172.623,33.200 172.666,33.200 172.776 C 33.200 172.885,33.358 172.970,33.550 172.963 C 33.742 172.956,34.292 173.096,34.771 173.274 C 35.251 173.452,35.723 173.548,35.821 173.487 C 35.920 173.426,36.000 173.477,36.000 173.600 C 36.000 173.723,36.081 173.773,36.181 173.712 C 36.280 173.651,36.842 173.824,37.431 174.098 C 38.794 174.733,38.849 174.728,39.171 173.950 C 39.319 173.593,39.572 173.004,39.733 172.643 C 39.894 172.281,40.060 171.807,40.102 171.589 C 40.144 171.371,40.351 170.857,40.563 170.446 C 40.999 169.599,41.143 169.272,41.964 167.261 L 42.552 165.821 41.780 165.311 C 41.356 165.030,40.917 164.800,40.804 164.800 C 40.692 164.800,40.600 164.710,40.600 164.600 C 40.600 164.490,40.476 164.400,40.324 164.400 C 40.173 164.400,39.942 164.271,39.811 164.113 C 39.680 163.955,39.309 163.768,38.986 163.697 C 38.664 163.626,38.400 163.495,38.400 163.406 C 38.400 163.316,38.152 163.182,37.850 163.106 C 37.548 163.031,37.165 162.852,37.000 162.710 C 36.754 162.498,34.899 161.737,34.100 161.521 C 33.990 161.491,33.405 161.320,32.800 161.140 C 32.195 160.961,31.475 160.774,31.200 160.726 C 30.925 160.678,29.952 160.486,29.039 160.299 C 28.125 160.112,27.203 160.005,26.989 160.061 C 26.775 160.117,26.600 160.086,26.600 159.991 C 26.600 159.833,20.122 159.797,19.000 159.949 M252.393 163.450 C 251.923 164.248,251.327 165.238,251.067 165.650 C 250.807 166.063,250.641 166.400,250.697 166.400 C 250.754 166.400,250.617 166.583,250.393 166.807 C 250.169 167.031,250.039 167.302,250.105 167.409 C 250.171 167.515,250.085 167.657,249.913 167.723 C 249.741 167.789,249.600 167.917,249.600 168.007 C 249.600 168.194,248.180 170.648,247.983 170.800 C 247.912 170.855,247.791 171.103,247.713 171.350 C 247.636 171.597,247.484 171.800,247.375 171.800 C 247.266 171.800,247.224 171.876,247.281 171.970 C 247.339 172.063,247.200 172.339,246.974 172.582 C 246.747 172.826,246.544 173.132,246.523 173.263 C 246.482 173.513,245.799 174.630,245.582 174.800 C 245.511 174.855,245.391 175.103,245.313 175.350 C 245.236 175.597,245.089 175.800,244.987 175.800 C 244.884 175.800,244.800 175.896,244.800 176.013 C 244.800 176.131,244.575 176.521,244.301 176.881 C 244.026 177.241,243.861 177.595,243.934 177.668 C 244.007 177.740,243.978 177.800,243.869 177.800 C 243.760 177.800,243.452 178.213,243.185 178.717 C 242.550 179.918,242.390 180.184,241.836 180.954 C 241.581 181.309,241.446 181.601,241.536 181.603 C 241.626 181.605,241.605 181.672,241.488 181.753 C 241.219 181.940,239.400 184.949,239.400 185.207 C 239.400 185.313,239.295 185.400,239.167 185.400 C 239.038 185.400,238.989 185.456,239.057 185.524 C 239.125 185.592,239.046 185.783,238.880 185.948 C 238.595 186.233,238.032 185.867,238.006 185.381 C 238.003 185.315,237.820 185.054,237.600 184.800 C 237.380 184.546,237.200 184.218,237.200 184.069 C 237.200 183.921,237.124 183.800,237.030 183.800 C 236.937 183.800,236.698 183.440,236.500 183.000 C 236.302 182.560,236.078 182.200,236.002 182.200 C 235.927 182.200,235.559 181.615,235.185 180.900 C 234.810 180.185,234.452 179.600,234.388 179.600 C 234.323 179.600,234.072 179.218,233.828 178.750 C 233.326 177.787,233.012 177.273,232.648 176.816 C 232.510 176.642,232.391 176.410,232.384 176.300 C 232.377 176.190,232.153 175.814,231.886 175.463 C 231.619 175.113,231.400 174.731,231.400 174.613 C 231.400 174.496,231.328 174.400,231.240 174.400 C 231.152 174.400,230.859 173.980,230.590 173.467 C 229.741 171.851,229.583 171.600,229.411 171.600 C 229.319 171.600,229.189 171.382,229.122 171.115 C 229.055 170.849,228.767 170.354,228.482 170.015 C 228.197 169.677,228.040 169.399,228.132 169.397 C 228.224 169.395,228.165 169.309,228.000 169.204 C 227.835 169.100,227.697 168.944,227.693 168.857 C 227.681 168.585,227.167 167.718,226.740 167.250 C 226.515 167.003,226.388 166.800,226.459 166.800 C 226.581 166.800,226.042 165.902,225.258 164.800 C 225.062 164.525,224.900 164.255,224.897 164.200 C 224.895 164.145,224.665 163.722,224.387 163.261 L 223.881 162.421 217.341 162.406 C 209.549 162.387,210.127 161.989,212.550 165.706 C 213.018 166.423,213.400 167.057,213.400 167.116 C 213.400 167.174,213.740 167.735,214.157 168.361 C 214.573 168.987,215.088 169.838,215.302 170.250 C 215.516 170.663,215.752 171.000,215.826 171.000 C 215.901 171.000,216.261 171.596,216.627 172.324 C 216.993 173.052,217.407 173.692,217.546 173.745 C 217.686 173.799,217.800 173.949,217.800 174.078 C 217.800 174.309,218.890 176.117,219.495 176.891 C 219.663 177.106,219.800 177.359,219.800 177.454 C 219.800 177.549,220.025 177.922,220.300 178.282 C 220.575 178.643,220.800 179.006,220.800 179.089 C 220.800 179.390,222.262 181.600,222.462 181.600 C 222.574 181.600,222.613 181.654,222.547 181.719 C 222.420 181.847,223.577 183.855,223.842 183.967 C 223.929 184.003,224.000 184.125,224.000 184.238 C 224.000 184.350,224.270 184.842,224.600 185.331 C 224.930 185.820,225.200 186.306,225.200 186.410 C 225.200 186.515,225.290 186.600,225.400 186.600 C 225.510 186.600,225.600 186.729,225.600 186.886 C 225.600 187.043,225.757 187.329,225.950 187.521 C 226.143 187.714,226.311 187.945,226.325 188.036 C 226.339 188.126,226.361 188.273,226.375 188.362 C 226.389 188.452,226.558 188.702,226.750 188.918 C 226.943 189.135,227.325 189.743,227.600 190.269 C 227.875 190.796,228.252 191.391,228.438 191.592 C 228.624 191.793,228.740 191.993,228.696 192.037 C 228.652 192.081,228.837 192.375,229.108 192.690 C 229.379 193.005,229.600 193.366,229.600 193.493 C 229.600 193.621,229.757 193.904,229.950 194.123 C 230.405 194.642,230.682 195.082,231.320 196.300 C 231.608 196.850,232.067 197.539,232.341 197.831 C 232.912 198.440,232.908 198.410,232.500 199.200 C 232.331 199.528,232.204 199.849,232.220 199.913 C 232.235 199.978,231.979 200.451,231.650 200.965 C 230.884 202.164,230.555 202.800,230.703 202.800 C 230.767 202.800,230.558 203.183,230.238 203.650 C 229.542 204.667,228.945 205.800,229.104 205.800 C 229.168 205.800,228.958 206.183,228.638 206.650 C 228.056 207.500,227.414 208.661,227.367 208.948 C 227.353 209.032,227.143 209.415,226.901 209.800 C 226.318 210.726,225.785 211.767,225.820 211.913 C 225.835 211.978,225.579 212.451,225.250 212.965 C 224.484 214.164,224.155 214.800,224.303 214.800 C 224.367 214.800,224.158 215.183,223.838 215.650 C 223.038 216.819,222.592 217.725,222.741 217.875 C 222.810 217.944,222.762 218.000,222.633 218.000 C 222.505 218.000,222.400 218.079,222.400 218.176 C 222.400 218.272,222.088 218.870,221.706 219.504 C 221.324 220.138,221.055 220.727,221.107 220.811 C 221.160 220.896,221.124 220.996,221.028 221.033 C 220.932 221.070,220.790 221.303,220.713 221.550 L 220.573 222.000 226.437 221.997 C 232.993 221.994,232.521 222.089,233.338 220.600 C 233.670 219.995,234.207 219.050,234.533 218.500 C 234.858 217.950,235.187 217.365,235.263 217.200 C 235.340 217.035,235.629 216.540,235.906 216.100 C 236.182 215.660,236.469 215.165,236.544 215.000 C 236.618 214.835,237.123 213.935,237.665 213.000 C 239.080 210.562,239.396 210.010,239.955 209.000 C 240.230 208.505,240.769 207.560,241.154 206.900 C 242.087 205.302,242.557 204.480,243.155 203.400 C 243.430 202.905,243.957 201.978,244.327 201.339 C 244.697 200.701,245.000 200.093,245.000 199.989 C 245.000 199.885,245.068 199.799,245.150 199.798 C 245.232 199.798,245.397 199.595,245.516 199.348 C 245.764 198.835,246.550 197.425,247.527 195.739 C 247.897 195.101,248.200 194.493,248.200 194.389 C 248.200 194.285,248.280 194.200,248.377 194.200 C 248.474 194.200,248.607 194.043,248.673 193.850 C 248.738 193.658,249.105 192.960,249.488 192.300 C 249.870 191.640,250.320 190.802,250.486 190.438 C 250.653 190.075,250.994 189.491,251.245 189.141 C 251.495 188.791,251.854 188.189,252.043 187.803 C 252.231 187.416,252.611 186.740,252.887 186.300 C 253.163 185.860,253.524 185.202,253.689 184.838 C 253.854 184.475,254.194 183.891,254.445 183.541 C 254.695 183.191,255.057 182.589,255.249 182.203 C 255.440 181.816,255.823 181.140,256.099 180.700 C 256.375 180.260,256.735 179.630,256.899 179.300 C 257.064 178.970,257.366 178.430,257.571 178.100 C 257.776 177.770,258.136 177.163,258.372 176.750 C 258.607 176.338,258.995 175.663,259.234 175.250 C 259.472 174.838,259.835 174.185,260.040 173.800 C 260.244 173.415,260.576 172.830,260.778 172.500 C 261.165 171.864,261.731 170.882,262.419 169.650 C 262.649 169.238,262.919 168.815,263.019 168.710 C 263.118 168.605,263.200 168.386,263.200 168.223 C 263.200 168.059,263.372 167.740,263.582 167.513 C 263.792 167.286,264.245 166.560,264.588 165.900 C 265.222 164.684,265.441 164.303,266.024 163.401 C 266.202 163.125,266.410 162.697,266.487 162.450 L 266.627 162.000 259.936 162.000 L 253.246 162.000 252.393 163.450 M58.400 170.855 C 58.345 170.909,57.669 171.000,56.899 171.057 C 56.128 171.114,54.958 171.322,54.299 171.519 C 53.639 171.717,53.027 171.859,52.938 171.835 C 52.592 171.743,48.000 173.980,48.000 174.241 C 48.000 174.341,47.914 174.370,47.809 174.306 C 47.563 174.154,44.476 177.246,44.290 177.830 C 44.213 178.073,43.893 178.627,43.579 179.061 C 43.264 179.495,43.058 179.933,43.121 180.034 C 43.183 180.135,43.149 180.326,43.045 180.459 C 42.940 180.591,42.788 180.970,42.707 181.300 C 41.144 187.613,43.604 194.170,48.422 196.530 C 52.022 198.293,54.346 199.383,54.750 199.499 C 54.998 199.569,55.200 199.704,55.200 199.798 C 55.200 199.891,55.471 200.028,55.802 200.100 C 56.133 200.173,56.540 200.369,56.706 200.535 C 56.872 200.701,57.119 200.854,57.254 200.876 C 57.389 200.898,57.913 201.160,58.418 201.458 C 58.922 201.756,59.429 202.000,59.543 202.000 C 59.657 202.000,59.865 202.137,60.004 202.305 C 60.143 202.472,60.301 202.565,60.355 202.511 C 60.409 202.457,60.679 202.590,60.954 202.807 C 61.229 203.023,61.536 203.200,61.635 203.200 C 62.198 203.200,64.924 206.010,65.200 206.876 C 65.686 208.396,63.819 211.200,62.320 211.200 C 62.157 211.200,61.975 211.278,61.916 211.374 C 61.811 211.544,60.649 211.880,60.350 211.827 C 60.267 211.812,60.200 211.872,60.200 211.961 C 60.200 212.307,53.446 212.427,52.100 212.105 C 51.770 212.027,51.410 211.940,51.300 211.913 C 51.190 211.886,50.740 211.791,50.300 211.701 C 49.860 211.611,49.219 211.420,48.875 211.277 C 48.532 211.133,48.202 211.064,48.143 211.124 C 48.083 211.183,47.802 211.079,47.517 210.893 C 47.233 210.707,47.000 210.620,47.000 210.701 C 47.000 210.783,46.874 210.745,46.720 210.617 C 46.567 210.489,46.274 210.351,46.070 210.309 C 45.867 210.267,45.373 210.093,44.973 209.923 L 44.245 209.614 43.595 211.257 C 43.237 212.161,42.786 213.260,42.594 213.700 C 42.077 214.880,41.933 215.283,41.968 215.450 C 41.986 215.532,41.905 215.600,41.788 215.600 C 41.672 215.600,41.624 215.677,41.682 215.771 C 41.740 215.864,41.658 216.112,41.500 216.321 C 40.894 217.122,41.149 217.468,43.141 218.545 C 43.603 218.795,44.121 219.000,44.291 219.000 C 44.461 219.000,44.600 219.087,44.600 219.194 C 44.600 219.300,44.735 219.336,44.900 219.272 C 45.065 219.209,45.200 219.246,45.200 219.354 C 45.200 219.522,46.071 219.830,46.700 219.883 C 46.810 219.892,46.945 219.958,47.000 220.030 C 47.055 220.101,47.415 220.212,47.800 220.275 C 48.185 220.339,48.804 220.480,49.176 220.589 C 51.517 221.275,62.315 221.287,63.591 220.605 C 63.787 220.500,63.998 220.465,64.060 220.527 C 64.123 220.589,64.290 220.568,64.433 220.479 C 64.576 220.391,64.830 220.294,64.996 220.263 C 65.163 220.232,65.525 220.168,65.800 220.120 C 66.075 220.072,66.345 220.015,66.400 219.993 C 66.455 219.971,66.567 219.963,66.650 219.976 C 66.733 219.989,66.800 219.905,66.800 219.788 C 66.800 219.672,66.889 219.632,66.999 219.699 C 67.108 219.767,67.805 219.528,68.549 219.168 C 69.292 218.808,69.965 218.511,70.044 218.507 C 70.122 218.503,70.371 218.343,70.596 218.150 C 70.821 217.957,71.048 217.800,71.100 217.800 C 71.431 217.800,73.793 215.561,73.797 215.244 C 73.799 215.103,73.935 214.936,74.100 214.872 C 74.265 214.809,74.400 214.670,74.400 214.564 C 74.400 214.458,74.536 214.236,74.702 214.070 C 74.868 213.904,74.953 213.685,74.890 213.584 C 74.828 213.483,74.850 213.400,74.939 213.400 C 75.029 213.400,75.223 213.107,75.371 212.750 C 75.519 212.393,75.756 211.830,75.896 211.500 C 76.724 209.561,76.529 203.551,75.601 202.401 C 75.378 202.125,75.110 201.700,75.005 201.456 C 74.664 200.663,71.420 197.609,69.635 196.400 C 69.066 196.015,68.601 195.633,68.600 195.550 C 68.600 195.468,68.504 195.400,68.386 195.400 C 68.268 195.400,67.751 195.108,67.236 194.750 C 65.994 193.887,65.605 193.656,64.950 193.387 C 64.648 193.262,64.400 193.086,64.400 192.994 C 64.400 192.902,64.198 192.765,63.950 192.690 C 63.703 192.614,63.343 192.414,63.150 192.245 C 62.958 192.076,62.799 192.019,62.797 192.119 C 62.795 192.219,62.728 192.206,62.647 192.090 C 62.498 191.877,60.164 190.726,60.022 190.796 C 59.980 190.817,59.890 190.759,59.822 190.667 C 59.755 190.575,59.115 190.198,58.400 189.828 C 54.182 187.649,53.082 183.298,56.300 181.521 C 56.520 181.399,56.745 181.255,56.800 181.199 C 57.381 180.612,63.438 180.114,64.100 180.599 C 64.210 180.680,64.435 180.755,64.600 180.766 C 65.290 180.814,66.304 181.015,67.221 181.288 C 67.760 181.448,68.200 181.520,68.200 181.449 C 68.200 181.378,68.308 181.428,68.440 181.560 C 68.572 181.692,68.909 181.802,69.190 181.804 C 69.471 181.807,70.083 181.982,70.550 182.195 C 71.017 182.407,71.400 182.544,71.400 182.500 C 71.400 182.456,71.710 182.550,72.089 182.708 C 72.526 182.891,72.823 182.924,72.901 182.798 C 72.968 182.689,72.970 182.600,72.905 182.600 C 72.839 182.600,72.898 182.398,73.036 182.150 C 73.173 181.903,73.297 181.655,73.310 181.600 C 73.360 181.391,73.841 180.261,74.291 179.300 C 75.010 177.763,75.390 176.800,75.278 176.800 C 75.223 176.800,75.315 176.604,75.483 176.364 C 75.813 175.892,75.605 175.400,75.076 175.400 C 74.924 175.400,74.800 175.320,74.800 175.222 C 74.800 175.124,74.418 174.850,73.950 174.614 C 73.483 174.377,72.785 174.014,72.400 173.807 C 70.971 173.039,68.881 172.164,68.150 172.028 C 68.067 172.013,67.978 171.993,67.950 171.983 C 67.922 171.974,67.698 171.929,67.450 171.883 C 67.203 171.838,66.797 171.763,66.550 171.717 C 66.302 171.671,66.100 171.619,66.100 171.601 C 66.100 171.584,65.965 171.540,65.800 171.503 C 64.088 171.126,63.658 171.045,63.400 171.048 C 63.235 171.049,62.065 170.985,60.800 170.904 C 59.535 170.823,58.455 170.801,58.400 170.855 M197.584 171.082 C 197.520 171.146,196.710 171.235,195.784 171.279 C 194.858 171.323,193.425 171.468,192.600 171.601 C 191.775 171.733,190.875 171.870,190.600 171.904 C 190.005 171.978,189.598 172.073,188.399 172.415 C 187.371 172.709,187.499 172.675,186.650 172.877 C 186.293 172.962,186.000 173.120,186.000 173.228 C 186.000 173.335,185.916 173.372,185.814 173.309 C 185.711 173.245,185.571 173.285,185.502 173.397 C 185.433 173.509,185.213 173.600,185.014 173.600 C 184.249 173.600,181.271 175.204,178.300 177.215 C 176.237 178.612,172.610 182.899,172.602 183.950 C 172.601 184.088,172.526 184.200,172.435 184.200 C 172.345 184.200,171.978 184.853,171.619 185.650 C 171.261 186.447,170.884 187.258,170.782 187.451 C 170.582 187.828,169.631 190.638,169.479 191.300 C 168.598 195.143,168.481 198.059,169.090 201.000 C 169.147 201.275,169.247 201.770,169.312 202.100 C 169.413 202.612,169.727 203.620,170.152 204.800 C 170.212 204.965,170.283 205.207,170.311 205.339 C 170.418 205.848,172.265 209.394,172.623 209.778 C 172.830 210.001,173.000 210.257,173.000 210.347 C 173.000 210.437,173.248 210.798,173.550 211.149 C 173.853 211.499,174.280 212.034,174.500 212.337 C 174.894 212.880,177.687 215.706,178.224 216.105 C 179.245 216.865,179.800 217.206,179.800 217.075 C 179.800 216.992,179.932 217.098,180.094 217.312 C 180.255 217.525,180.392 217.610,180.397 217.500 C 180.402 217.382,180.466 217.389,180.553 217.519 C 180.742 217.799,182.744 218.800,183.116 218.800 C 183.272 218.800,183.400 218.884,183.400 218.987 C 183.400 219.184,183.844 219.362,184.742 219.525 C 185.042 219.579,185.412 219.727,185.563 219.853 C 185.715 219.978,185.998 220.106,186.192 220.135 C 186.387 220.165,186.805 220.295,187.123 220.425 C 187.785 220.696,187.741 220.682,189.200 221.080 C 190.512 221.438,191.391 221.627,191.800 221.638 C 191.965 221.643,192.685 221.761,193.400 221.900 C 195.868 222.379,203.849 222.364,204.635 221.879 C 204.713 221.830,205.120 221.753,205.538 221.706 C 207.025 221.542,207.749 221.400,208.551 221.117 C 208.998 220.959,209.417 220.884,209.482 220.949 C 209.547 221.014,209.600 220.956,209.600 220.822 C 209.600 220.687,209.697 220.636,209.815 220.709 C 209.998 220.822,210.722 220.622,212.200 220.051 C 212.365 219.987,212.545 219.919,212.600 219.901 C 212.655 219.882,212.951 219.762,213.259 219.635 C 213.566 219.507,214.035 219.349,214.301 219.282 C 214.566 219.215,214.886 219.037,215.012 218.886 C 215.137 218.734,215.549 218.553,215.926 218.482 C 217.027 218.275,217.022 218.319,216.940 208.848 C 216.869 200.665,216.808 199.329,216.461 198.302 C 216.386 198.081,216.305 197.791,216.281 197.657 C 216.111 196.707,214.113 194.200,213.526 194.200 C 213.471 194.200,213.173 194.096,212.863 193.969 C 212.553 193.842,212.165 193.692,212.000 193.636 C 211.835 193.579,207.695 193.525,202.800 193.516 L 193.900 193.500 193.900 197.300 L 193.900 201.100 199.300 201.100 L 204.700 201.100 204.644 206.487 C 204.583 212.230,204.573 212.285,203.544 212.475 C 203.190 212.540,202.675 212.634,202.400 212.683 C 202.125 212.732,201.492 212.864,200.993 212.977 C 199.707 213.268,196.351 213.278,194.700 212.995 C 193.930 212.863,193.120 212.728,192.900 212.695 C 192.680 212.662,192.122 212.548,191.660 212.441 C 191.198 212.334,190.770 212.296,190.710 212.357 C 190.649 212.417,190.600 212.362,190.600 212.233 C 190.600 212.105,190.533 212.018,190.450 212.039 C 190.162 212.115,188.400 211.188,188.400 210.962 C 188.400 210.836,188.346 210.788,188.280 210.854 C 188.213 210.920,187.921 210.749,187.630 210.475 C 185.571 208.534,184.229 207.183,183.800 206.620 C 183.525 206.260,183.188 205.845,183.050 205.697 C 182.913 205.549,182.800 205.342,182.800 205.236 C 182.800 205.130,182.664 204.991,182.498 204.927 C 182.332 204.863,182.216 204.741,182.239 204.656 C 182.262 204.570,182.046 204.005,181.758 203.400 C 181.277 202.390,181.001 201.735,180.892 201.350 C 180.869 201.268,180.831 201.178,180.808 201.150 C 180.785 201.123,180.740 200.920,180.707 200.700 C 180.674 200.480,180.537 199.633,180.403 198.819 C 180.254 197.911,180.214 196.789,180.301 195.919 C 180.498 193.953,180.529 193.746,180.690 193.366 C 180.767 193.182,180.855 192.912,180.884 192.766 C 181.040 191.989,181.277 191.272,181.452 191.050 C 181.560 190.913,181.583 190.800,181.501 190.800 C 181.420 190.800,181.499 190.578,181.677 190.307 C 181.855 190.036,182.000 189.673,182.000 189.501 C 182.000 189.328,182.134 189.136,182.299 189.073 C 182.463 189.010,182.548 188.878,182.487 188.779 C 182.426 188.681,182.452 188.600,182.545 188.600 C 182.638 188.600,182.875 188.328,183.071 187.995 C 183.268 187.662,183.625 187.184,183.865 186.934 C 184.104 186.683,184.490 186.258,184.722 185.989 C 186.009 184.497,189.796 182.017,191.253 181.712 C 191.389 181.684,191.680 181.593,191.900 181.511 C 193.081 181.072,193.373 180.993,194.179 180.895 C 194.662 180.836,195.154 180.728,195.272 180.655 C 195.565 180.474,196.249 180.418,199.400 180.317 C 201.853 180.238,202.878 180.319,206.800 180.900 C 207.849 181.055,209.660 181.427,210.000 181.557 C 210.165 181.620,210.435 181.696,210.600 181.725 C 210.765 181.755,211.260 181.879,211.700 182.002 C 212.140 182.124,212.613 182.234,212.750 182.246 C 212.888 182.257,213.000 182.347,213.000 182.445 C 213.000 182.543,213.071 182.579,213.159 182.525 C 213.246 182.471,213.700 182.598,214.167 182.807 C 214.634 183.017,214.962 183.100,214.896 182.994 C 214.830 182.887,214.872 182.800,214.988 182.800 C 215.447 182.800,215.260 174.246,214.796 173.998 C 214.574 173.879,214.304 173.836,214.196 173.903 C 214.088 173.969,214.000 173.928,214.000 173.812 C 214.000 173.695,213.933 173.611,213.850 173.624 C 213.768 173.637,213.655 173.630,213.600 173.609 C 213.545 173.588,213.275 173.531,213.000 173.483 C 212.725 173.434,212.185 173.273,211.800 173.124 C 211.415 172.975,210.943 172.878,210.750 172.909 C 210.558 172.940,210.400 172.891,210.400 172.800 C 210.400 172.709,210.243 172.661,210.050 172.692 C 209.857 172.723,209.610 172.695,209.500 172.630 C 209.261 172.488,208.928 172.409,208.022 172.281 C 207.650 172.228,207.181 172.097,206.980 171.990 C 206.780 171.882,206.545 171.814,206.458 171.838 C 206.295 171.882,204.211 171.630,203.500 171.481 C 203.280 171.434,202.335 171.354,201.400 171.302 C 200.465 171.250,199.250 171.154,198.700 171.087 C 198.150 171.021,197.648 171.019,197.584 171.082 M380.800 171.127 C 380.800 171.222,380.057 171.306,379.150 171.314 C 378.242 171.321,376.780 171.442,375.900 171.582 C 375.020 171.722,373.979 171.869,373.586 171.909 C 373.193 171.950,372.608 172.085,372.286 172.209 C 371.712 172.431,371.386 172.520,370.422 172.719 C 370.159 172.774,369.619 172.963,369.222 173.141 C 368.825 173.319,368.433 173.483,368.350 173.507 C 368.268 173.531,368.178 173.568,368.150 173.590 C 368.123 173.612,367.922 173.664,367.704 173.704 C 367.486 173.745,367.276 173.873,367.237 173.989 C 367.198 174.105,366.993 174.200,366.780 174.200 C 366.448 174.200,365.672 174.593,363.900 175.658 C 363.680 175.791,363.207 176.106,362.850 176.360 C 362.493 176.613,362.199 176.748,362.197 176.660 C 362.195 176.572,362.128 176.591,362.047 176.701 C 361.966 176.812,361.556 177.159,361.136 177.472 C 360.105 178.240,357.600 180.735,357.600 180.993 C 357.600 181.106,357.265 181.665,356.856 182.235 C 356.039 183.372,355.703 183.929,354.799 185.650 C 354.466 186.283,354.243 186.800,354.302 186.800 C 354.362 186.800,354.254 187.093,354.064 187.450 C 353.873 187.808,353.712 188.145,353.705 188.200 C 353.699 188.255,353.639 188.390,353.571 188.500 C 353.441 188.713,352.773 190.899,352.686 191.400 C 352.581 192.000,352.382 192.908,352.283 193.236 C 351.922 194.435,351.800 197.784,352.059 199.400 C 352.138 199.895,352.239 200.540,352.282 200.834 C 352.491 202.243,352.776 203.262,353.503 205.200 C 353.898 206.252,354.124 206.772,354.490 207.465 C 355.477 209.335,355.882 210.000,356.037 210.000 C 356.127 210.000,356.200 210.115,356.200 210.255 C 356.200 210.396,356.447 210.798,356.750 211.149 C 357.053 211.499,357.480 212.034,357.700 212.337 C 358.822 213.882,363.000 217.625,363.000 217.085 C 363.000 216.996,363.132 217.098,363.294 217.312 C 363.455 217.525,363.592 217.610,363.597 217.500 C 363.603 217.367,363.655 217.367,363.753 217.500 C 363.938 217.751,365.922 218.800,366.213 218.800 C 366.331 218.800,366.553 218.924,366.704 219.076 C 366.856 219.228,367.322 219.416,367.740 219.494 C 368.158 219.572,368.621 219.736,368.770 219.859 C 368.918 219.981,369.198 220.106,369.392 220.135 C 369.587 220.165,370.005 220.295,370.323 220.425 C 370.985 220.696,370.941 220.682,372.400 221.080 C 373.749 221.448,374.508 221.607,375.331 221.696 C 375.678 221.733,376.443 221.852,377.031 221.960 C 379.610 222.434,386.002 222.349,388.200 221.811 C 388.585 221.717,389.035 221.637,389.200 221.632 C 389.858 221.616,390.981 221.389,391.751 221.117 C 392.198 220.959,392.617 220.884,392.682 220.949 C 392.747 221.014,392.800 220.956,392.800 220.822 C 392.800 220.687,392.897 220.636,393.015 220.709 C 393.134 220.783,393.651 220.690,394.165 220.505 C 395.308 220.091,395.468 220.044,395.619 220.075 C 395.685 220.089,395.865 219.999,396.019 219.876 C 396.174 219.753,396.660 219.539,397.100 219.401 C 397.540 219.263,398.035 219.033,398.200 218.892 C 398.365 218.750,398.815 218.553,399.200 218.454 L 399.900 218.275 399.954 209.087 C 399.988 203.253,399.932 199.572,399.800 199.000 C 399.686 198.505,399.553 197.939,399.506 197.742 C 399.234 196.611,397.341 194.200,396.726 194.200 C 396.671 194.200,396.373 194.096,396.063 193.969 C 395.753 193.842,395.365 193.692,395.200 193.636 C 395.035 193.579,390.895 193.525,386.000 193.516 L 377.100 193.500 377.100 197.300 L 377.100 201.100 382.500 201.100 L 387.900 201.100 387.844 206.487 C 387.783 212.230,387.773 212.285,386.744 212.475 C 386.390 212.540,385.875 212.634,385.600 212.683 C 385.325 212.732,384.692 212.864,384.193 212.977 C 382.907 213.268,379.551 213.278,377.900 212.995 C 377.130 212.863,376.320 212.731,376.099 212.701 C 375.879 212.671,375.347 212.549,374.918 212.431 C 374.489 212.312,374.062 212.262,373.969 212.319 C 373.876 212.377,373.800 212.328,373.800 212.212 C 373.800 212.095,373.733 212.018,373.650 212.041 C 373.350 212.123,371.600 211.216,371.600 210.978 C 371.600 210.843,371.549 210.785,371.486 210.847 C 371.275 211.059,366.682 206.560,366.485 205.950 C 366.424 205.757,366.289 205.600,366.187 205.600 C 366.084 205.600,366.000 205.475,366.000 205.321 C 366.000 205.168,365.864 204.991,365.698 204.927 C 365.532 204.863,365.416 204.741,365.439 204.656 C 365.462 204.570,365.246 204.005,364.958 203.400 C 364.477 202.390,364.201 201.735,364.092 201.350 C 364.069 201.268,364.031 201.178,364.008 201.150 C 363.985 201.123,363.940 200.920,363.907 200.700 C 363.874 200.480,363.737 199.632,363.603 198.815 C 363.457 197.931,363.411 196.716,363.488 195.815 C 363.647 193.949,363.677 193.754,363.845 193.486 C 363.919 193.368,364.023 193.053,364.076 192.786 C 364.242 191.947,365.091 189.707,365.300 189.553 C 365.433 189.455,365.433 189.403,365.300 189.397 C 365.190 189.392,365.275 189.255,365.488 189.094 C 365.702 188.932,365.792 188.799,365.688 188.797 C 365.582 188.795,365.587 188.730,365.701 188.647 C 365.812 188.566,366.170 188.140,366.498 187.700 C 367.367 186.532,367.839 185.987,368.388 185.518 C 368.657 185.288,369.062 184.916,369.288 184.691 C 370.073 183.913,373.566 181.892,374.433 181.715 C 374.580 181.685,374.880 181.593,375.100 181.511 C 376.281 181.072,376.573 180.993,377.379 180.895 C 377.862 180.836,378.354 180.728,378.472 180.655 C 378.765 180.474,379.449 180.418,382.600 180.317 C 385.053 180.238,386.078 180.319,390.000 180.900 C 391.049 181.055,392.860 181.427,393.200 181.557 C 393.365 181.620,393.635 181.696,393.800 181.725 C 394.569 181.863,395.550 182.159,395.955 182.376 C 396.200 182.507,396.400 182.569,396.400 182.514 C 396.400 182.459,396.810 182.590,397.310 182.804 C 397.811 183.019,398.165 183.106,398.098 182.997 C 398.031 182.889,398.072 182.800,398.188 182.800 C 398.331 182.800,398.400 181.395,398.400 178.507 C 398.400 173.805,398.438 173.952,397.165 173.716 C 396.909 173.669,396.700 173.615,396.700 173.597 C 396.700 173.578,396.408 173.522,396.052 173.471 C 395.695 173.420,395.167 173.255,394.878 173.105 C 394.588 172.955,394.182 172.865,393.976 172.905 C 393.769 172.944,393.600 172.900,393.600 172.806 C 393.600 172.712,393.443 172.661,393.250 172.692 C 393.058 172.723,392.810 172.695,392.700 172.630 C 392.461 172.488,392.128 172.409,391.222 172.281 C 390.850 172.228,390.381 172.097,390.180 171.990 C 389.980 171.882,389.745 171.814,389.658 171.838 C 389.495 171.882,387.411 171.630,386.700 171.481 C 386.480 171.434,385.535 171.354,384.600 171.302 C 383.665 171.250,382.428 171.151,381.850 171.081 C 381.273 171.011,380.800 171.032,380.800 171.127 M276.000 171.630 C 274.439 171.814,273.378 171.975,272.800 172.115 C 272.525 172.181,272.075 172.285,271.800 172.345 C 271.525 172.405,271.191 172.539,271.059 172.644 C 270.926 172.749,270.724 172.776,270.609 172.705 C 270.494 172.634,270.400 172.677,270.400 172.800 C 270.400 172.923,270.318 172.973,270.218 172.911 C 270.117 172.849,269.780 172.929,269.468 173.089 C 269.155 173.249,267.950 173.834,266.789 174.389 C 265.628 174.943,264.485 175.578,264.248 175.799 C 264.011 176.019,263.733 176.200,263.630 176.200 C 263.527 176.200,263.391 176.335,263.328 176.500 C 263.264 176.665,263.112 176.800,262.990 176.800 C 262.867 176.800,262.461 177.115,262.087 177.500 C 261.713 177.885,261.327 178.200,261.229 178.200 C 261.047 178.200,260.089 179.216,258.754 180.826 C 257.674 182.127,255.802 185.041,255.922 185.235 C 255.978 185.326,255.942 185.400,255.842 185.400 C 255.652 185.400,254.621 187.750,254.418 188.647 C 254.399 188.728,254.252 189.169,254.091 189.626 C 253.929 190.084,253.749 190.692,253.690 190.979 C 253.630 191.266,253.541 191.691,253.492 191.925 C 253.015 194.169,252.879 198.175,253.211 200.200 C 253.328 200.915,253.461 201.725,253.506 202.000 C 253.639 202.809,254.196 204.738,254.575 205.700 C 254.704 206.030,254.916 206.570,255.044 206.900 C 255.172 207.230,255.452 207.815,255.665 208.200 C 255.879 208.585,256.317 209.418,256.639 210.050 C 256.962 210.683,257.310 211.200,257.413 211.200 C 257.516 211.200,257.578 211.268,257.551 211.350 C 257.399 211.812,262.496 217.132,263.663 217.730 C 264.014 217.909,264.345 218.120,264.400 218.198 C 264.455 218.276,264.950 218.587,265.500 218.891 C 266.050 219.194,266.598 219.522,266.718 219.619 C 266.839 219.717,266.996 219.737,267.068 219.665 C 267.141 219.593,267.200 219.626,267.200 219.739 C 267.200 219.918,268.923 220.704,269.200 220.653 C 269.255 220.642,269.390 220.708,269.500 220.797 C 269.610 220.887,270.105 221.075,270.600 221.214 C 271.095 221.353,271.590 221.495,271.700 221.529 C 274.567 222.409,280.183 222.638,283.200 221.998 C 283.805 221.870,284.456 221.767,284.646 221.770 C 284.836 221.772,285.045 221.689,285.110 221.584 C 285.175 221.479,285.311 221.445,285.414 221.509 C 285.516 221.572,285.600 221.523,285.600 221.400 C 285.600 221.277,285.683 221.228,285.785 221.291 C 285.887 221.354,286.179 221.321,286.435 221.219 C 286.955 221.010,287.401 220.868,287.700 220.816 C 287.810 220.796,288.109 220.643,288.365 220.476 C 288.621 220.308,289.005 220.138,289.219 220.096 C 289.433 220.055,289.864 219.839,290.177 219.617 C 290.489 219.394,290.802 219.269,290.873 219.339 C 290.943 219.409,291.000 219.362,291.000 219.233 C 291.000 219.105,291.087 219.000,291.194 219.000 C 291.373 219.000,292.987 217.961,293.523 217.500 C 293.651 217.390,294.001 217.122,294.301 216.905 C 295.273 216.200,298.608 212.732,299.207 211.803 C 299.527 211.307,299.859 210.805,299.945 210.689 C 300.533 209.889,301.299 208.404,301.244 208.169 C 301.227 208.097,301.345 207.929,301.506 207.795 C 301.668 207.661,301.800 207.483,301.800 207.400 C 301.800 207.317,301.952 206.900,302.138 206.474 C 302.324 206.048,302.486 205.655,302.499 205.600 C 302.512 205.545,302.595 205.185,302.684 204.800 C 302.773 204.415,302.937 203.988,303.048 203.850 C 303.158 203.713,303.190 203.600,303.117 203.600 C 303.045 203.600,303.075 203.434,303.183 203.231 C 303.292 203.029,303.435 202.331,303.501 201.681 C 303.568 201.032,303.697 200.218,303.789 199.874 C 304.059 198.853,303.986 194.823,303.666 193.100 C 303.502 192.220,303.332 191.249,303.287 190.943 C 303.243 190.636,303.127 190.231,303.031 190.043 C 302.935 189.854,302.804 189.421,302.739 189.080 C 302.620 188.450,301.850 186.592,301.256 185.500 C 301.076 185.170,300.833 184.720,300.715 184.500 C 300.597 184.280,300.445 184.055,300.377 184.000 C 300.309 183.945,300.191 183.697,300.113 183.450 C 300.036 183.203,299.889 183.000,299.787 183.000 C 299.684 183.000,299.600 182.900,299.600 182.777 C 299.600 182.520,298.841 181.544,297.706 180.341 C 297.269 179.879,296.930 179.437,296.952 179.361 C 296.975 179.284,296.586 178.879,296.088 178.461 C 295.590 178.042,294.808 177.363,294.350 176.950 C 293.892 176.538,293.401 176.200,293.259 176.200 C 293.116 176.200,293.000 176.110,293.000 176.000 C 293.000 175.890,292.876 175.800,292.724 175.800 C 292.573 175.800,292.329 175.656,292.183 175.479 C 291.962 175.213,291.203 174.793,290.800 174.714 C 290.745 174.703,290.194 174.403,289.576 174.047 C 288.957 173.691,288.323 173.400,288.166 173.400 C 288.009 173.400,287.789 173.309,287.678 173.198 C 287.566 173.086,286.806 172.808,285.988 172.580 C 283.905 171.998,283.762 171.964,283.200 171.911 C 282.925 171.885,282.385 171.801,282.000 171.724 C 281.032 171.531,277.332 171.473,276.000 171.630 M90.872 172.350 C 90.809 172.543,90.632 172.984,90.479 173.330 C 90.325 173.677,90.200 174.061,90.200 174.183 C 90.200 174.305,90.117 174.562,90.015 174.753 C 89.832 175.094,89.672 175.553,89.630 175.852 C 89.618 175.936,89.469 176.273,89.299 176.602 C 89.129 176.931,89.039 177.200,89.099 177.200 C 89.160 177.200,89.064 177.421,88.887 177.691 C 88.710 177.961,88.624 178.276,88.695 178.391 C 88.766 178.506,88.728 178.600,88.612 178.600 C 88.495 178.600,88.400 178.765,88.400 178.967 C 88.400 179.168,88.333 179.401,88.250 179.483 C 88.168 179.566,88.089 179.716,88.075 179.817 C 88.061 179.918,88.028 180.045,88.000 180.100 C 87.973 180.155,87.931 180.268,87.908 180.350 C 87.853 180.545,87.608 181.194,87.398 181.700 C 87.307 181.920,86.991 182.775,86.696 183.600 C 86.402 184.425,85.990 185.482,85.780 185.948 C 85.571 186.414,85.400 186.881,85.400 186.985 C 85.400 187.089,85.295 187.427,85.167 187.737 C 85.038 188.047,84.915 188.368,84.892 188.450 C 84.869 188.533,84.828 188.645,84.800 188.700 C 84.773 188.755,84.739 188.870,84.725 188.956 C 84.711 189.043,84.551 189.470,84.368 189.906 C 83.776 191.323,83.112 193.094,83.071 193.363 C 83.049 193.508,82.849 194.016,82.625 194.491 C 82.402 194.967,82.157 195.613,82.082 195.928 C 82.006 196.243,81.856 196.613,81.748 196.750 C 81.640 196.888,81.618 197.000,81.700 197.000 C 81.782 197.000,81.758 197.113,81.648 197.250 C 81.537 197.388,81.384 197.790,81.308 198.144 C 81.233 198.499,81.006 199.128,80.804 199.543 C 80.602 199.958,80.479 200.366,80.530 200.449 C 80.582 200.532,80.543 200.600,80.444 200.600 C 80.345 200.600,80.150 200.983,80.012 201.450 C 79.873 201.918,79.586 202.705,79.374 203.200 C 79.162 203.695,78.954 204.280,78.912 204.500 C 78.870 204.720,78.693 205.170,78.519 205.500 C 78.345 205.830,78.202 206.202,78.201 206.326 C 78.201 206.450,78.049 206.900,77.865 207.326 C 77.680 207.752,77.505 208.231,77.476 208.391 C 77.447 208.552,77.336 208.867,77.230 209.091 C 77.044 209.483,76.763 210.189,76.709 210.400 C 76.607 210.794,76.125 212.137,76.027 212.300 C 75.960 212.410,75.897 212.545,75.886 212.600 C 75.841 212.820,75.560 213.520,75.385 213.847 C 75.283 214.038,75.200 214.295,75.200 214.417 C 75.200 214.539,75.076 214.923,74.924 215.270 C 74.636 215.930,73.923 217.828,73.900 218.000 C 73.892 218.055,73.772 218.304,73.634 218.554 C 73.495 218.804,73.436 219.096,73.503 219.204 C 73.569 219.312,73.522 219.400,73.397 219.400 C 73.273 219.400,73.201 219.558,73.238 219.750 C 73.300 220.071,73.734 220.104,78.541 220.144 L 83.777 220.188 83.929 219.744 C 84.012 219.500,84.086 219.255,84.094 219.200 C 84.101 219.145,84.301 218.695,84.538 218.200 C 85.245 216.725,85.664 215.710,85.631 215.550 C 85.614 215.468,85.690 215.400,85.800 215.400 C 85.910 215.400,86.000 215.256,86.000 215.081 C 86.000 214.905,86.127 214.523,86.283 214.231 C 86.900 213.072,87.389 212.000,87.300 212.000 C 87.248 212.000,87.461 211.528,87.773 210.950 L 88.340 209.900 98.897 209.848 C 109.893 209.794,110.377 209.828,109.884 210.625 C 109.840 210.696,109.938 210.866,110.102 211.002 C 110.266 211.138,110.400 211.377,110.400 211.534 C 110.400 211.691,110.554 212.108,110.742 212.460 C 110.930 212.812,111.088 213.145,111.093 213.200 C 111.098 213.255,111.293 213.615,111.525 214.000 C 111.758 214.385,112.007 214.947,112.078 215.250 C 112.149 215.553,112.296 215.800,112.404 215.800 C 112.512 215.800,112.603 215.957,112.606 216.150 C 112.609 216.343,112.950 217.130,113.365 217.900 L 114.119 219.300 123.959 219.331 L 133.800 219.362 133.805 204.331 C 133.809 190.405,133.833 189.348,134.130 189.950 C 134.306 190.308,134.529 190.600,134.625 190.600 C 134.721 190.600,134.800 190.718,134.800 190.862 C 134.800 191.007,134.958 191.299,135.150 191.512 C 135.343 191.726,135.628 192.148,135.784 192.450 C 135.940 192.753,136.142 193.000,136.234 193.000 C 136.325 193.000,136.400 193.118,136.400 193.262 C 136.400 193.407,136.558 193.699,136.750 193.912 C 136.942 194.126,137.228 194.548,137.384 194.850 C 137.540 195.153,137.742 195.400,137.834 195.400 C 137.925 195.400,138.000 195.518,138.000 195.662 C 138.000 195.807,138.157 196.099,138.350 196.312 C 138.542 196.526,138.828 196.947,138.984 197.250 C 139.140 197.553,139.342 197.800,139.434 197.800 C 139.525 197.800,139.600 197.918,139.600 198.062 C 139.600 198.207,139.758 198.499,139.950 198.712 C 140.143 198.926,140.428 199.347,140.584 199.650 C 140.740 199.953,140.942 200.200,141.034 200.200 C 141.125 200.200,141.200 200.318,141.200 200.462 C 141.200 200.607,141.358 200.899,141.550 201.112 C 141.743 201.326,142.028 201.748,142.184 202.050 C 142.340 202.353,142.542 202.600,142.634 202.600 C 142.725 202.600,142.800 202.718,142.800 202.862 C 142.800 203.007,142.958 203.299,143.150 203.512 C 143.343 203.726,143.628 204.148,143.784 204.450 C 143.940 204.753,144.142 205.000,144.234 205.000 C 144.325 205.000,144.400 205.118,144.400 205.262 C 144.400 205.407,144.558 205.699,144.750 205.912 C 144.942 206.126,145.228 206.548,145.384 206.850 C 145.540 207.153,145.742 207.400,145.834 207.400 C 145.925 207.400,146.000 207.518,146.000 207.662 C 146.000 207.807,146.157 208.099,146.350 208.312 C 146.542 208.526,146.828 208.947,146.984 209.250 C 147.140 209.553,147.342 209.800,147.434 209.800 C 147.525 209.800,147.600 209.918,147.600 210.062 C 147.600 210.207,147.758 210.499,147.950 210.712 C 148.143 210.926,148.428 211.347,148.584 211.650 C 148.740 211.953,148.942 212.200,149.034 212.200 C 149.125 212.200,149.200 212.318,149.200 212.462 C 149.200 212.607,149.358 212.899,149.550 213.112 C 149.743 213.326,150.028 213.748,150.184 214.050 C 150.340 214.353,150.542 214.600,150.634 214.600 C 150.725 214.600,150.800 214.718,150.800 214.862 C 150.800 215.007,150.958 215.299,151.150 215.512 C 151.343 215.726,151.628 216.148,151.784 216.450 C 151.940 216.753,152.142 217.000,152.234 217.000 C 152.325 217.000,152.400 217.118,152.400 217.262 C 152.400 217.407,152.558 217.699,152.750 217.912 C 152.942 218.126,153.228 218.548,153.384 218.850 C 153.540 219.153,153.742 219.400,153.834 219.400 C 153.925 219.400,154.000 219.522,154.000 219.671 C 154.000 219.820,154.221 220.180,154.490 220.471 L 154.981 221.000 160.866 221.000 C 165.588 221.000,166.796 220.946,166.977 220.728 C 167.142 220.528,167.202 214.043,167.198 196.578 L 167.194 172.700 161.988 172.700 C 156.948 172.700,156.779 172.713,156.685 173.100 C 156.631 173.320,156.613 180.138,156.644 188.250 C 156.675 196.363,156.682 203.000,156.659 203.000 C 156.637 203.000,156.475 202.697,156.299 202.327 C 156.124 201.957,155.810 201.471,155.602 201.248 C 155.394 201.025,155.264 200.802,155.313 200.753 C 155.362 200.704,155.222 200.501,155.001 200.301 C 154.781 200.101,154.600 199.817,154.600 199.669 C 154.600 199.521,154.520 199.400,154.423 199.400 C 154.326 199.400,154.194 199.243,154.129 199.050 C 153.997 198.656,153.617 198.045,153.263 197.657 C 153.133 197.514,152.969 197.218,152.900 196.999 C 152.830 196.779,152.689 196.600,152.587 196.600 C 152.484 196.600,152.400 196.492,152.400 196.361 C 152.400 196.157,151.509 194.703,151.199 194.400 C 151.142 194.345,150.917 193.956,150.698 193.537 C 150.479 193.117,150.165 192.622,150.000 192.437 C 149.835 192.251,149.520 191.757,149.300 191.337 C 149.080 190.918,148.743 190.432,148.550 190.256 C 148.358 190.081,148.200 189.821,148.200 189.679 C 148.200 189.536,148.088 189.348,147.950 189.260 C 147.813 189.172,147.481 188.695,147.213 188.200 C 146.470 186.829,144.973 184.518,144.723 184.357 C 144.600 184.279,144.499 184.144,144.498 184.057 C 144.496 183.971,144.226 183.494,143.898 182.997 C 143.078 181.759,142.861 181.399,142.496 180.677 C 142.322 180.334,142.016 179.878,141.816 179.663 C 141.616 179.448,141.238 178.906,140.976 178.458 C 140.206 177.141,138.527 174.518,138.305 174.285 C 138.192 174.167,137.921 173.739,137.703 173.333 L 137.306 172.595 130.603 172.647 L 123.900 172.700 123.900 195.533 C 123.900 208.092,123.888 218.352,123.873 218.333 C 123.768 218.204,122.797 215.592,122.690 215.150 C 122.617 214.847,122.476 214.600,122.378 214.600 C 122.280 214.600,122.218 214.532,122.240 214.450 C 122.290 214.261,122.052 213.530,121.606 212.500 C 121.154 211.457,120.951 210.946,120.891 210.700 C 120.833 210.460,120.075 208.542,119.706 207.700 C 119.457 207.132,119.171 206.419,119.104 206.200 C 119.087 206.145,118.933 205.785,118.761 205.400 C 118.589 205.015,118.339 204.340,118.205 203.900 C 118.071 203.460,117.799 202.740,117.600 202.300 C 116.765 200.452,116.400 199.533,116.400 199.275 C 116.400 199.124,116.313 199.000,116.206 199.000 C 116.100 199.000,116.064 198.865,116.128 198.700 C 116.191 198.535,116.143 198.400,116.021 198.400 C 115.900 198.400,115.818 198.333,115.841 198.250 C 115.905 198.016,115.394 196.598,114.869 195.550 C 114.607 195.028,114.443 194.600,114.504 194.600 C 114.564 194.600,114.502 194.398,114.365 194.150 C 114.227 193.903,114.134 193.633,114.158 193.550 C 114.181 193.468,114.105 193.400,113.988 193.400 C 113.872 193.400,113.820 193.329,113.874 193.242 C 113.928 193.155,113.853 192.817,113.709 192.492 C 113.564 192.166,113.291 191.551,113.102 191.125 C 112.912 190.698,112.735 190.248,112.709 190.125 C 112.660 189.899,112.500 189.444,112.206 188.700 C 112.119 188.480,111.893 187.895,111.703 187.400 C 111.513 186.905,111.165 186.057,110.929 185.516 C 110.693 184.975,110.497 184.480,110.493 184.416 C 110.489 184.352,110.369 184.090,110.226 183.832 C 110.084 183.575,109.930 183.160,109.885 182.911 C 109.839 182.661,109.603 182.016,109.360 181.478 C 109.116 180.940,108.905 180.455,108.891 180.400 C 108.807 180.072,108.526 179.421,108.243 178.900 C 108.065 178.570,107.933 178.255,107.950 178.200 C 108.015 177.998,107.752 177.200,107.621 177.200 C 107.546 177.200,107.471 177.008,107.453 176.773 C 107.435 176.539,107.183 175.860,106.891 175.265 C 106.600 174.669,106.341 174.074,106.314 173.941 C 106.288 173.809,106.169 173.475,106.049 173.200 C 105.930 172.925,105.783 172.543,105.723 172.350 C 105.620 172.025,105.089 172.000,98.300 172.000 C 91.513 172.000,90.979 172.025,90.872 172.350 M340.402 187.136 C 340.398 195.460,340.374 202.293,340.347 202.320 C 340.289 202.378,337.199 197.768,336.681 196.850 C 336.479 196.493,336.250 196.200,336.172 196.200 C 336.094 196.200,335.780 195.705,335.473 195.100 C 335.167 194.495,334.845 194.000,334.758 194.000 C 334.671 194.000,334.600 193.878,334.600 193.729 C 334.600 193.580,334.398 193.240,334.150 192.973 C 333.903 192.706,333.679 192.422,333.653 192.342 C 333.524 191.938,331.545 188.909,331.362 188.833 C 331.273 188.797,331.200 188.686,331.200 188.587 C 331.200 188.410,329.844 186.194,329.617 186.000 C 329.477 185.881,329.196 185.426,328.474 184.150 C 328.178 183.628,327.861 183.200,327.768 183.200 C 327.676 183.200,327.600 183.104,327.600 182.987 C 327.600 182.869,327.375 182.478,327.100 182.118 C 326.825 181.757,326.600 181.408,326.600 181.341 C 326.600 181.155,325.337 179.309,325.158 179.233 C 325.071 179.197,325.000 179.078,325.000 178.970 C 325.000 178.862,324.775 178.478,324.500 178.118 C 324.225 177.757,324.000 177.358,324.000 177.231 C 324.000 177.104,323.921 177.000,323.824 177.000 C 323.728 177.000,323.537 176.730,323.400 176.400 C 323.263 176.070,323.072 175.800,322.976 175.800 C 322.879 175.800,322.800 175.665,322.800 175.500 C 322.800 175.335,322.717 175.200,322.615 175.200 C 322.513 175.200,322.301 174.953,322.143 174.650 C 321.986 174.347,321.648 173.718,321.391 173.250 L 320.926 172.400 313.963 172.400 L 307.000 172.400 307.000 196.303 L 307.000 220.206 312.250 220.153 L 317.500 220.100 317.560 204.800 C 317.618 190.274,317.638 189.532,317.960 190.127 C 318.327 190.804,328.590 206.235,328.784 206.400 C 328.848 206.455,329.028 206.748,329.184 207.050 C 329.340 207.353,329.542 207.600,329.634 207.600 C 329.725 207.600,329.800 207.735,329.800 207.900 C 329.800 208.065,329.890 208.200,330.000 208.200 C 330.110 208.200,330.200 208.335,330.200 208.500 C 330.200 208.665,330.290 208.800,330.400 208.800 C 330.510 208.800,330.600 208.918,330.600 209.062 C 330.600 209.207,330.780 209.518,331.000 209.754 C 331.220 209.990,331.400 210.277,331.400 210.392 C 331.400 210.506,331.490 210.600,331.600 210.600 C 331.710 210.600,331.800 210.735,331.800 210.900 C 331.800 211.065,331.890 211.200,332.000 211.200 C 332.110 211.200,332.200 211.318,332.200 211.462 C 332.200 211.607,332.380 211.918,332.600 212.154 C 332.820 212.390,333.000 212.677,333.000 212.792 C 333.000 212.906,333.068 213.000,333.151 213.000 C 333.234 213.000,333.414 213.253,333.551 213.562 C 333.688 213.872,333.980 214.318,334.200 214.554 C 334.420 214.790,334.600 215.038,334.600 215.106 C 334.600 215.293,335.855 217.091,336.038 217.167 C 336.127 217.203,336.200 217.322,336.200 217.431 C 336.200 217.611,337.322 219.366,337.587 219.600 C 337.649 219.655,337.800 219.880,337.922 220.100 C 338.135 220.485,338.379 220.502,344.473 220.553 L 350.803 220.606 350.798 196.303 L 350.794 172.000 345.602 172.000 L 340.410 172.000 340.402 187.136 M282.136 182.209 C 283.041 182.436,284.078 182.771,284.440 182.953 C 284.803 183.136,285.204 183.302,285.330 183.322 C 286.252 183.468,291.000 187.696,291.000 188.371 C 291.000 188.463,291.180 188.701,291.400 188.900 C 291.620 189.099,291.800 189.377,291.800 189.517 C 291.800 189.657,291.919 189.890,292.064 190.036 C 292.210 190.181,292.348 190.390,292.371 190.500 C 292.547 191.322,292.894 192.200,293.043 192.200 C 293.143 192.200,293.173 192.282,293.110 192.383 C 293.048 192.484,293.085 192.798,293.193 193.081 C 293.603 194.159,293.791 198.024,293.503 199.450 C 293.442 199.752,293.357 200.247,293.313 200.550 C 293.125 201.853,291.672 204.829,290.518 206.272 C 289.715 207.276,288.191 208.800,287.990 208.800 C 287.904 208.800,287.803 208.869,287.767 208.954 C 287.730 209.038,287.205 209.418,286.600 209.797 C 285.995 210.176,285.434 210.580,285.353 210.693 C 285.272 210.807,285.205 210.829,285.203 210.743 C 285.201 210.657,284.998 210.697,284.750 210.833 C 284.502 210.969,284.210 211.096,284.100 211.115 C 283.990 211.134,283.477 211.294,282.960 211.469 C 281.765 211.875,279.181 212.289,278.100 212.248 C 277.106 212.210,275.094 211.851,274.200 211.551 C 273.815 211.422,273.440 211.313,273.367 211.309 C 273.293 211.304,273.166 211.232,273.083 211.150 C 273.001 211.068,272.723 211.000,272.467 211.000 C 272.210 211.000,272.000 210.910,272.000 210.800 C 272.000 210.690,271.879 210.600,271.730 210.600 C 271.582 210.600,271.064 210.313,270.580 209.963 C 270.096 209.612,269.670 209.350,269.634 209.381 C 269.436 209.546,266.310 206.272,265.658 205.216 C 265.008 204.165,264.200 202.467,264.200 202.153 C 264.200 202.003,264.092 201.772,263.960 201.640 C 263.828 201.508,263.781 201.400,263.855 201.400 C 263.929 201.400,263.900 201.163,263.790 200.873 C 263.269 199.503,263.155 194.311,263.628 193.500 C 263.765 193.266,264.042 192.240,264.093 191.782 C 264.113 191.607,264.505 190.812,264.964 190.015 C 265.424 189.217,265.800 188.483,265.800 188.382 C 265.800 188.282,265.890 188.200,266.000 188.200 C 266.110 188.200,266.200 188.114,266.200 188.009 C 266.200 187.904,266.403 187.600,266.650 187.334 C 266.897 187.068,267.348 186.567,267.650 186.221 C 267.953 185.876,268.200 185.653,268.200 185.727 C 268.200 185.801,268.510 185.542,268.888 185.153 C 269.267 184.763,269.852 184.322,270.188 184.173 C 270.525 184.024,270.800 183.845,270.800 183.776 C 270.800 183.620,272.749 182.751,273.300 182.661 C 273.520 182.624,274.031 182.464,274.435 182.305 C 274.839 182.146,275.604 181.957,276.135 181.887 C 276.666 181.816,277.125 181.735,277.155 181.707 C 277.355 181.523,280.775 181.868,282.136 182.209 M98.676 185.432 C 98.795 186.125,99.251 187.200,99.427 187.200 C 99.535 187.200,99.572 187.284,99.509 187.386 C 99.445 187.489,99.485 187.629,99.597 187.698 C 99.709 187.767,99.800 187.950,99.800 188.104 C 99.800 188.258,100.125 189.086,100.523 189.942 C 100.921 190.799,101.410 191.860,101.610 192.300 C 102.305 193.829,105.136 200.302,105.261 200.650 C 105.380 200.979,104.984 201.000,98.708 201.000 L 92.028 201.000 92.186 200.450 C 92.273 200.148,92.521 199.495,92.737 199.000 C 92.953 198.505,93.292 197.695,93.492 197.200 C 93.692 196.705,94.014 195.936,94.209 195.491 C 94.404 195.046,94.594 194.506,94.632 194.291 C 94.669 194.076,94.773 193.846,94.863 193.780 C 94.953 193.714,95.052 193.534,95.083 193.380 C 95.138 193.103,95.447 192.271,95.782 191.500 C 96.411 190.050,96.979 188.628,97.100 188.200 C 97.178 187.925,97.350 187.520,97.483 187.300 C 97.615 187.080,97.885 186.467,98.083 185.938 C 98.432 185.004,98.581 184.877,98.676 185.432 " stroke="none" fill="#8c9494" fill-rule="evenodd"></path><path id="path1" d="M175.600 0.382 C 174.775 0.575,173.650 0.875,173.100 1.050 C 172.550 1.224,171.425 1.563,170.600 1.802 C 166.063 3.119,160.903 4.994,157.662 6.505 L 155.823 7.362 155.937 6.406 C 156.064 5.331,155.602 4.620,154.750 4.577 C 148.397 4.256,136.655 8.297,124.243 15.076 C 123.111 15.694,122.166 16.200,122.143 16.200 C 122.119 16.200,122.130 15.761,122.168 15.224 C 122.361 12.434,118.193 13.215,109.541 17.588 C 78.273 33.395,64.719 58.060,76.194 78.272 C 82.638 89.624,94.812 99.439,109.100 104.801 C 115.460 107.187,120.210 108.701,127.300 110.602 C 132.095 111.887,133.084 112.139,137.100 113.101 C 139.190 113.602,141.215 114.096,141.600 114.198 C 141.985 114.301,142.930 114.521,143.700 114.688 C 144.470 114.854,146.090 115.219,147.300 115.498 C 148.510 115.778,150.535 116.232,151.800 116.509 C 153.065 116.785,154.865 117.184,155.800 117.394 C 156.735 117.604,157.725 117.815,158.000 117.862 C 158.859 118.009,168.117 119.981,168.416 120.081 C 168.572 120.133,169.081 120.223,169.547 120.282 C 170.012 120.340,170.912 120.518,171.547 120.677 C 172.181 120.836,173.105 121.028,173.600 121.105 C 176.087 121.487,177.927 122.090,178.208 122.614 C 178.693 123.521,178.806 123.390,173.778 127.712 C 169.212 131.637,168.282 132.880,168.057 135.360 C 167.746 138.791,171.096 142.246,176.806 144.382 C 180.836 145.890,185.344 148.808,189.432 152.555 C 195.985 158.563,206.148 158.475,212.740 152.353 C 216.568 148.797,222.327 145.157,225.800 144.096 C 228.614 143.237,232.420 140.231,233.415 138.083 C 234.983 134.697,233.731 132.460,227.074 126.747 C 225.190 125.130,223.600 123.622,223.541 123.395 C 223.283 122.409,225.010 121.585,228.400 121.077 C 228.785 121.020,229.640 120.850,230.300 120.701 C 231.706 120.383,239.335 118.816,240.500 118.605 C 240.940 118.526,241.660 118.361,242.100 118.239 C 242.540 118.117,243.215 117.967,243.600 117.904 C 244.508 117.757,247.665 117.082,249.700 116.599 C 250.580 116.390,251.525 116.180,251.800 116.132 C 252.075 116.085,253.515 115.760,255.000 115.411 C 256.485 115.062,257.925 114.735,258.200 114.685 C 258.704 114.592,263.069 113.535,267.500 112.432 C 269.787 111.863,273.551 110.890,276.800 110.028 C 302.518 103.206,318.857 92.128,326.872 76.079 C 335.160 59.486,325.769 38.862,303.100 23.872 C 300.166 21.932,299.863 21.741,298.000 20.657 C 285.790 13.549,278.142 11.539,279.788 15.870 C 279.974 16.357,279.955 16.353,278.738 15.656 C 272.779 12.246,264.471 8.522,259.000 6.808 C 252.930 4.907,251.457 4.582,248.817 4.557 C 246.131 4.532,245.492 5.028,245.986 6.751 C 246.150 7.323,246.132 7.379,245.836 7.231 C 245.281 6.952,243.781 6.290,242.400 5.714 C 241.685 5.416,240.920 5.091,240.700 4.991 C 239.797 4.584,233.289 2.358,231.400 1.811 C 230.575 1.572,229.315 1.202,228.600 0.988 C 223.273 -0.605,218.874 -0.385,219.673 1.434 C 220.220 2.678,220.855 3.181,225.080 5.713 C 253.715 22.875,271.947 49.068,268.923 68.700 C 268.753 69.800,268.566 71.043,268.506 71.462 C 266.141 88.148,251.934 101.885,231.555 107.193 C 225.713 108.714,221.582 109.638,216.300 110.604 C 209.843 111.784,209.237 111.988,207.581 113.537 C 206.350 114.688,205.916 115.778,206.051 117.378 C 206.211 119.279,207.355 120.452,213.856 125.382 C 220.999 130.798,217.852 140.173,207.846 143.291 C 191.124 148.500,176.445 134.151,188.878 124.749 C 195.481 119.755,196.558 118.338,195.733 115.722 C 194.925 113.159,192.950 111.933,188.300 111.105 C 186.650 110.812,184.985 110.495,184.600 110.401 C 184.215 110.308,183.540 110.181,183.100 110.121 C 182.351 110.018,180.546 109.632,176.003 108.605 C 161.579 105.343,152.300 100.850,145.063 93.621 C 134.479 83.051,130.134 67.263,134.182 54.090 C 139.427 37.023,153.449 20.675,174.300 7.317 C 177.756 5.103,178.761 4.486,179.600 4.064 C 181.255 3.231,182.743 1.190,182.258 0.419 C 181.954 -0.064,177.610 -0.089,175.600 0.382 M254.400 11.139 C 255.005 11.405,255.680 11.703,255.900 11.800 C 256.120 11.897,256.840 12.216,257.500 12.509 C 259.361 13.333,263.999 15.616,265.000 16.200 C 265.495 16.489,266.710 17.160,267.700 17.691 C 269.645 18.735,270.337 19.163,274.300 21.772 C 286.086 29.534,294.364 38.747,298.494 48.700 C 299.146 50.272,300.295 53.975,300.480 55.100 C 300.535 55.430,300.732 56.555,300.918 57.600 C 304.030 75.072,291.189 91.385,265.900 102.086 C 264.690 102.598,263.307 103.197,262.826 103.417 C 260.833 104.331,262.006 103.575,264.542 102.312 C 266.948 101.113,269.870 99.505,271.287 98.600 C 271.545 98.435,272.329 97.945,273.028 97.511 C 289.482 87.308,299.741 70.012,296.732 57.550 C 296.552 56.807,296.356 55.907,296.296 55.550 C 294.527 45.094,283.505 30.945,269.200 20.767 C 265.939 18.447,259.389 14.200,259.072 14.200 C 259.037 14.200,258.534 13.897,257.954 13.527 C 257.374 13.157,255.865 12.296,254.600 11.614 C 252.333 10.392,252.249 10.193,254.400 11.139 M148.688 10.894 C 148.475 11.055,148.238 11.190,148.162 11.194 C 147.572 11.221,137.736 17.241,134.000 19.862 C 119.472 30.052,110.799 40.340,106.403 52.600 C 104.879 56.849,104.317 63.411,105.152 67.200 C 108.168 80.886,119.637 93.382,137.400 102.334 C 140.374 103.833,140.931 104.276,138.478 103.191 C 137.720 102.856,136.920 102.503,136.700 102.407 C 127.332 98.329,119.678 93.731,113.711 88.596 C 97.317 74.487,96.143 55.013,110.589 36.800 C 114.864 31.411,124.251 23.387,130.100 20.123 C 130.430 19.939,130.942 19.633,131.238 19.444 C 135.731 16.569,151.215 8.982,148.688 10.894 M114.400 20.874 C 114.400 20.914,113.072 21.896,111.450 23.054 C 92.522 36.572,81.895 54.511,85.061 67.600 C 88.217 80.646,97.377 90.974,112.592 98.640 C 114.512 99.608,116.037 100.400,115.980 100.400 C 115.871 100.400,114.706 99.939,111.720 98.715 C 98.795 93.415,88.534 84.729,84.108 75.343 C 75.439 56.956,84.816 39.111,111.994 22.271 C 114.573 20.674,114.400 20.774,114.400 20.874 M290.674 22.754 C 305.358 31.294,316.976 44.014,319.977 54.834 C 320.597 57.071,320.624 57.277,320.742 60.622 C 321.180 73.130,315.159 83.532,302.519 92.102 C 301.467 92.816,300.561 93.400,300.506 93.400 C 300.452 93.400,299.934 93.703,299.354 94.072 C 296.958 95.601,292.298 97.868,287.725 99.730 C 284.916 100.874,284.834 100.761,287.562 99.505 C 302.989 92.402,313.053 81.650,316.676 68.400 C 317.568 65.139,317.565 60.579,316.668 57.100 C 316.498 56.440,316.323 55.705,316.279 55.467 C 314.557 46.195,302.843 31.513,290.300 22.905 C 288.827 21.894,287.815 21.028,288.874 21.685 C 289.190 21.881,290.000 22.362,290.674 22.754 M261.200 104.100 C 260.925 104.257,260.610 104.386,260.500 104.386 C 260.390 104.386,260.525 104.257,260.800 104.100 C 261.075 103.943,261.390 103.814,261.500 103.814 C 261.610 103.814,261.475 103.943,261.200 104.100 " stroke="none" fill="#0c54a4" fill-rule="evenodd"></path><path id="path2" d="M277.746 171.544 C 278.101 171.589,278.731 171.589,279.146 171.546 C 279.560 171.503,279.270 171.467,278.500 171.466 C 277.730 171.465,277.390 171.500,277.746 171.544 M123.931 172.550 C 123.880 172.633,125.832 172.677,128.269 172.649 C 136.531 172.554,137.322 172.486,130.662 172.443 C 127.011 172.419,123.982 172.468,123.931 172.550 M158.700 172.740 C 163.190 172.882,167.154 172.887,167.069 172.750 C 167.018 172.668,164.709 172.619,161.938 172.642 C 159.167 172.664,157.710 172.709,158.700 172.740 M266.800 174.200 C 266.415 174.411,266.172 174.587,266.260 174.592 C 266.472 174.603,267.600 174.016,267.600 173.895 C 267.600 173.764,267.588 173.768,266.800 174.200 M16.254 177.000 C 16.254 177.495,16.293 177.697,16.341 177.450 C 16.389 177.203,16.389 176.798,16.341 176.550 C 16.293 176.303,16.254 176.505,16.254 177.000 M199.256 180.347 C 199.782 180.389,200.592 180.388,201.056 180.346 C 201.520 180.304,201.090 180.270,200.100 180.271 C 199.110 180.272,198.730 180.306,199.256 180.347 M382.456 180.347 C 382.982 180.389,383.792 180.388,384.256 180.346 C 384.720 180.304,384.290 180.270,383.300 180.271 C 382.310 180.272,381.930 180.306,382.456 180.347 M39.400 195.100 C 39.773 195.485,40.160 195.800,40.259 195.800 C 40.359 195.800,40.125 195.485,39.740 195.100 C 39.355 194.715,38.968 194.400,38.881 194.400 C 38.793 194.400,39.027 194.715,39.400 195.100 M76.454 207.000 C 76.454 207.495,76.493 207.697,76.541 207.450 C 76.589 207.203,76.589 206.798,76.541 206.550 C 76.493 206.303,76.454 206.505,76.454 207.000 M296.400 214.900 C 295.914 215.395,295.562 215.800,295.617 215.800 C 295.672 215.800,296.114 215.395,296.600 214.900 C 297.086 214.405,297.438 214.000,297.383 214.000 C 297.328 214.000,296.886 214.405,296.400 214.900 M125.050 219.343 C 125.353 219.389,125.847 219.389,126.150 219.343 C 126.453 219.297,126.205 219.260,125.600 219.260 C 124.995 219.260,124.748 219.297,125.050 219.343 M76.154 220.145 C 76.513 220.189,77.053 220.189,77.354 220.143 C 77.654 220.097,77.360 220.061,76.700 220.062 C 76.040 220.063,75.794 220.100,76.154 220.145 M313.554 220.145 C 313.913 220.189,314.453 220.189,314.754 220.143 C 315.054 220.097,314.760 220.061,314.100 220.062 C 313.440 220.063,313.194 220.100,313.554 220.145 M16.352 221.941 C 16.601 221.989,16.961 221.987,17.152 221.937 C 17.344 221.887,17.140 221.848,16.700 221.850 C 16.260 221.853,16.104 221.894,16.352 221.941 M20.050 221.938 C 20.243 221.988,20.558 221.988,20.750 221.938 C 20.943 221.888,20.785 221.846,20.400 221.846 C 20.015 221.846,19.858 221.888,20.050 221.938 M198.150 222.345 C 198.508 222.389,199.093 222.389,199.450 222.345 C 199.808 222.300,199.515 222.264,198.800 222.264 C 198.085 222.264,197.793 222.300,198.150 222.345 M381.350 222.345 C 381.707 222.389,382.293 222.389,382.650 222.345 C 383.007 222.300,382.715 222.264,382.000 222.264 C 381.285 222.264,380.993 222.300,381.350 222.345 " stroke="none" fill="#949494" fill-rule="evenodd"></path><path id="path3" d="" stroke="none" fill="#30749c" fill-rule="evenodd"></path><path id="path4" d="M152.952 4.541 C 153.201 4.589,153.561 4.587,153.752 4.537 C 153.944 4.487,153.740 4.448,153.300 4.450 C 152.860 4.453,152.704 4.494,152.952 4.541 M248.150 4.541 C 248.398 4.589,248.803 4.589,249.050 4.541 C 249.298 4.493,249.095 4.454,248.600 4.454 C 248.105 4.454,247.903 4.493,248.150 4.541 " stroke="none" fill="#0c789c" fill-rule="evenodd"></path></g></svg>