<svg id="svg" version="1.1" xmlns="http://www.w3.org/2000/svg" xmlns:xlink="http://www.w3.org/1999/xlink" width="400" height="482.21820373719106" viewBox="0, 0, 400,482.21820373719106"><g id="svgg"><path id="path0" d="M193.972 7.059 C 143.810 57.620,72.907 101.757,6.389 123.828 C 2.807 125.016,2.798 125.028,4.581 126.279 C 5.847 127.168,19.760 136.926,42.435 152.828 C 48.204 156.873,55.473 161.973,58.590 164.161 C 72.729 174.086,78.616 178.216,90.778 186.738 C 97.939 191.756,106.293 197.615,109.343 199.759 C 112.393 201.902,120.205 207.382,126.703 211.935 C 133.201 216.488,141.013 221.966,144.063 224.109 C 153.751 230.915,165.344 239.046,179.867 249.223 C 187.625 254.659,196.522 260.897,199.638 263.086 C 202.755 265.275,211.109 271.134,218.204 276.107 C 225.298 281.080,234.629 287.624,238.939 290.650 C 243.249 293.675,248.864 297.613,251.417 299.400 C 256.620 303.044,256.429 302.751,255.206 305.195 C 253.234 309.136,249.692 310.729,245.793 309.429 C 244.381 308.958,244.420 308.983,236.287 303.155 C 221.109 292.278,196.858 275.955,172.762 260.398 C 148.418 244.681,145.595 243.004,138.156 239.842 C 106.092 226.214,65.695 230.212,23.769 251.163 C 14.534 255.778,1.837 263.249,1.982 263.983 C 2.019 264.172,5.793 266.988,10.368 270.241 C 14.943 273.494,31.435 285.214,47.016 296.285 C 62.598 307.356,76.974 317.573,78.963 318.989 C 80.952 320.405,89.198 326.266,97.288 332.013 C 105.377 337.760,121.001 348.863,132.007 356.688 C 143.014 364.513,154.081 372.377,156.600 374.165 C 159.120 375.953,162.809 378.573,164.798 379.988 C 168.925 382.924,176.133 388.042,181.435 391.800 C 183.424 393.210,188.252 396.642,192.164 399.426 C 196.076 402.209,199.416 404.571,199.586 404.674 C 199.796 404.801,202.301 402.445,207.422 397.303 C 257.656 346.865,329.489 302.196,394.506 280.965 C 396.457 280.328,398.030 279.734,398.002 279.645 C 397.974 279.556,393.014 276.026,386.980 271.799 C 380.946 267.573,369.066 259.244,360.579 253.291 C 344.786 242.212,336.015 236.060,305.003 214.311 C 295.256 207.475,281.585 197.887,274.623 193.004 C 267.661 188.121,261.477 183.784,260.880 183.367 C 260.283 182.951,255.618 179.678,250.512 176.095 C 245.407 172.512,236.998 166.614,231.826 162.989 C 226.655 159.364,219.385 154.265,215.672 151.658 C 211.959 149.052,203.605 143.191,197.107 138.634 C 168.160 118.337,159.975 112.596,152.783 107.550 C 144.023 101.405,144.579 102.021,145.717 99.718 C 148.973 93.131,153.213 93.113,162.087 99.650 C 177.134 110.735,211.182 133.498,244.024 154.429 C 254.810 161.303,260.277 164.130,268.333 166.998 C 298.642 177.789,335.861 173.538,374.695 154.849 C 383.466 150.628,399.269 141.577,399.275 140.770 C 399.276 140.683,394.421 137.161,388.487 132.943 C 382.553 128.724,375.853 123.960,373.599 122.355 C 371.344 120.750,366.462 117.283,362.749 114.651 C 359.036 112.018,354.913 109.086,353.586 108.134 C 352.260 107.183,347.758 103.981,343.580 101.019 C 339.403 98.057,331.917 92.741,326.944 89.206 C 319.388 83.835,271.698 49.944,240.145 27.522 C 235.570 24.271,230.036 20.338,227.848 18.782 C 225.660 17.226,218.825 12.367,212.658 7.983 C 206.492 3.600,201.338 0.013,201.206 0.012 C 201.073 0.011,197.818 3.182,193.972 7.059 M111.573 467.198 C 111.872 467.256,112.360 467.256,112.658 467.198 C 112.957 467.141,112.712 467.094,112.116 467.094 C 111.519 467.094,111.275 467.141,111.573 467.198 M258.894 467.199 C 259.194 467.257,259.628 467.254,259.858 467.194 C 260.089 467.134,259.843 467.086,259.313 467.089 C 258.782 467.092,258.594 467.141,258.894 467.199 M321.719 476.793 C 321.720 477.722,321.763 478.072,321.816 477.571 C 321.868 477.071,321.867 476.312,321.814 475.884 C 321.760 475.456,321.718 475.865,321.719 476.793 " stroke="none" fill="#fc0414" fill-rule="evenodd"></path><path id="path1" d="M31.743 418.505 C 31.682 418.605,30.997 418.681,30.222 418.674 C 29.447 418.667,28.733 418.776,28.635 418.915 C 28.521 419.078,28.457 419.056,28.455 418.853 C 28.452 418.669,28.330 418.612,28.162 418.716 C 28.003 418.814,27.650 418.929,27.378 418.970 C 25.706 419.226,24.849 419.308,24.028 419.288 C 23.519 419.276,22.949 419.393,22.763 419.548 C 22.576 419.703,22.423 419.749,22.423 419.650 C 22.423 419.552,22.240 419.620,22.015 419.802 C 21.668 420.084,21.638 420.082,21.811 419.794 C 21.963 419.542,21.929 419.509,21.677 419.667 C 21.491 419.784,21.136 419.846,20.890 419.806 C 20.617 419.761,20.505 419.834,20.603 419.993 C 20.707 420.161,20.564 420.220,20.208 420.159 C 19.901 420.107,19.412 420.214,19.121 420.397 C 18.829 420.580,18.422 420.665,18.216 420.586 C 18.010 420.507,17.842 420.569,17.842 420.724 C 17.842 420.878,17.729 420.935,17.590 420.849 C 17.452 420.764,17.062 420.875,16.724 421.097 C 16.386 421.318,15.767 421.543,15.348 421.596 C 14.930 421.649,14.479 421.829,14.346 421.997 C 14.213 422.165,13.996 422.314,13.864 422.329 C 13.298 422.390,12.538 422.737,12.538 422.933 C 12.538 423.051,12.456 423.134,12.357 423.118 C 11.851 423.038,11.563 423.176,11.717 423.425 C 11.819 423.590,11.783 423.638,11.630 423.543 C 11.488 423.455,11.207 423.547,11.007 423.747 C 10.807 423.947,10.527 424.111,10.385 424.111 C 10.243 424.111,10.127 424.217,10.127 424.347 C 10.127 424.478,9.855 424.652,9.524 424.735 C 9.192 424.818,8.921 425.038,8.921 425.222 C 8.921 425.407,8.793 425.558,8.637 425.558 C 8.226 425.558,5.274 428.690,5.437 428.953 C 5.512 429.075,5.459 429.174,5.319 429.174 C 5.178 429.174,5.063 429.343,5.063 429.550 C 5.063 429.757,4.955 429.859,4.822 429.777 C 4.690 429.695,4.581 429.851,4.581 430.124 C 4.581 430.397,4.466 430.621,4.326 430.621 C 4.185 430.621,4.137 430.729,4.219 430.862 C 4.301 430.995,4.244 431.103,4.093 431.103 C 3.942 431.103,3.866 431.239,3.926 431.404 C 3.986 431.570,3.839 432.230,3.600 432.872 C 3.361 433.513,3.231 434.209,3.311 434.418 C 3.393 434.632,3.356 434.736,3.226 434.656 C 3.087 434.570,2.967 435.245,2.926 436.329 C 2.877 437.669,2.933 438.099,3.141 437.970 C 3.354 437.839,3.358 437.918,3.158 438.293 C 2.983 438.620,2.974 438.840,3.134 438.939 C 3.267 439.021,3.376 439.197,3.376 439.329 C 3.376 439.462,3.253 439.495,3.104 439.402 C 2.909 439.282,2.900 439.356,3.072 439.664 C 3.204 439.900,3.260 440.295,3.195 440.542 C 3.130 440.789,3.203 441.143,3.357 441.328 C 3.515 441.518,3.570 441.936,3.482 442.284 C 3.374 442.714,3.496 443.176,3.880 443.797 C 4.214 444.338,4.295 444.610,4.085 444.486 C 3.884 444.368,3.925 444.496,4.183 444.790 C 4.428 445.069,4.557 445.413,4.470 445.554 C 4.383 445.695,4.433 445.811,4.581 445.811 C 4.729 445.811,4.783 445.920,4.701 446.053 C 4.510 446.362,5.556 448.244,5.826 448.077 C 5.937 448.008,6.028 448.105,6.028 448.291 C 6.028 448.743,6.858 449.476,7.111 449.247 C 7.221 449.147,7.233 449.201,7.137 449.367 C 7.029 449.555,7.110 449.668,7.354 449.668 C 7.568 449.668,7.680 449.772,7.601 449.899 C 7.523 450.026,7.815 450.323,8.250 450.560 C 9.008 450.971,9.166 451.025,9.808 451.087 C 9.964 451.103,10.261 451.284,10.467 451.490 C 10.673 451.696,11.080 451.910,11.371 451.966 C 11.661 452.022,11.983 452.203,12.085 452.368 C 12.187 452.533,12.338 452.601,12.421 452.518 C 12.504 452.435,12.849 452.511,13.187 452.686 C 13.526 452.862,13.952 452.949,14.135 452.879 C 14.317 452.809,14.467 452.861,14.467 452.996 C 14.467 453.130,14.701 453.179,14.986 453.104 C 15.328 453.015,15.450 453.059,15.343 453.233 C 15.248 453.386,15.359 453.500,15.607 453.503 C 16.837 453.522,17.512 453.676,17.800 454.005 C 17.975 454.206,18.050 454.234,17.966 454.069 C 17.882 453.903,17.919 453.767,18.049 453.767 C 18.178 453.767,18.329 453.903,18.385 454.069 C 18.445 454.251,18.920 454.370,19.587 454.370 C 20.193 454.370,20.639 454.452,20.577 454.552 C 20.515 454.652,20.851 454.672,21.323 454.597 C 21.896 454.506,22.182 454.555,22.182 454.743 C 22.182 454.926,22.401 454.970,22.808 454.868 C 23.162 454.779,23.579 454.832,23.769 454.989 C 23.954 455.143,24.275 455.203,24.482 455.123 C 24.708 455.036,24.798 455.078,24.705 455.228 C 24.609 455.384,24.898 455.473,25.476 455.465 C 25.985 455.459,26.781 455.512,27.245 455.583 C 27.709 455.653,28.390 455.715,28.757 455.720 C 29.124 455.724,29.378 455.803,29.322 455.894 C 29.265 455.985,29.507 456.083,29.860 456.113 C 30.468 456.163,32.192 456.346,33.526 456.501 C 33.865 456.541,34.284 456.661,34.457 456.768 C 34.631 456.876,34.843 456.865,34.927 456.744 C 35.103 456.494,35.378 456.500,35.989 456.769 C 36.223 456.872,36.630 456.900,36.893 456.831 C 37.157 456.762,37.372 456.788,37.372 456.889 C 37.372 456.989,37.960 457.058,38.678 457.041 C 39.397 457.025,39.935 457.091,39.875 457.189 C 39.815 457.287,40.256 457.324,40.856 457.273 C 41.456 457.222,42.003 457.269,42.070 457.378 C 42.138 457.488,42.519 457.555,42.917 457.527 C 43.315 457.499,43.641 457.571,43.641 457.686 C 43.641 457.801,43.747 457.829,43.877 457.749 C 44.007 457.668,44.345 457.727,44.629 457.879 C 45.027 458.092,45.104 458.089,44.967 457.866 C 44.840 457.660,44.953 457.668,45.360 457.894 C 45.674 458.068,45.986 458.224,46.052 458.240 C 46.546 458.360,46.994 458.672,46.897 458.828 C 46.833 458.932,46.999 459.074,47.267 459.144 C 47.535 459.214,47.729 459.362,47.699 459.473 C 47.618 459.770,47.987 460.760,48.178 460.759 C 48.576 460.759,48.306 463.948,47.888 464.182 C 47.659 464.310,47.369 464.684,47.244 465.013 C 47.119 465.342,46.908 465.544,46.776 465.461 C 46.643 465.379,46.534 465.445,46.534 465.608 C 46.534 465.770,46.461 465.831,46.373 465.742 C 46.284 465.653,46.001 465.771,45.745 466.003 C 45.488 466.235,45.235 466.398,45.183 466.365 C 44.947 466.216,44.348 466.325,44.454 466.497 C 44.519 466.602,44.282 466.678,43.926 466.664 C 43.570 466.651,43.140 466.743,42.969 466.870 C 42.799 466.997,42.338 467.092,41.945 467.081 C 41.551 467.070,41.230 467.135,41.230 467.225 C 41.230 467.458,37.282 467.431,37.110 467.198 C 37.032 467.092,36.489 466.988,35.904 466.966 C 35.249 466.941,34.526 466.714,34.023 466.374 C 33.574 466.071,33.052 465.823,32.864 465.823 C 32.675 465.823,32.585 465.720,32.663 465.594 C 32.741 465.468,32.576 465.243,32.297 465.093 C 31.167 464.489,30.803 463.875,30.742 462.477 C 30.710 461.731,30.656 461.067,30.624 461.001 C 30.591 460.934,30.577 460.799,30.592 460.699 C 30.628 460.476,30.647 460.476,13.831 460.413 L 0.055 460.361 0.086 461.382 C 0.103 461.944,0.218 462.341,0.341 462.265 C 0.464 462.189,0.500 462.294,0.421 462.499 C 0.343 462.703,0.378 462.970,0.500 463.092 C 0.621 463.213,0.745 463.606,0.775 463.965 C 0.804 464.324,0.904 464.617,0.996 464.617 C 1.088 464.617,1.131 464.807,1.093 465.039 C 1.023 465.459,1.855 467.076,2.220 467.229 C 2.325 467.273,2.411 467.415,2.411 467.545 C 2.411 467.674,2.275 467.707,2.110 467.617 C 1.944 467.527,2.124 467.738,2.509 468.085 C 2.894 468.432,3.119 468.716,3.008 468.716 C 2.897 468.716,3.232 469.109,3.754 469.589 C 4.275 470.069,4.539 470.378,4.340 470.275 C 4.141 470.172,4.293 470.427,4.678 470.840 C 5.063 471.254,5.487 471.525,5.620 471.443 C 5.752 471.361,5.793 471.404,5.710 471.538 C 5.540 471.813,6.868 473.100,7.090 472.877 C 7.169 472.799,7.233 472.915,7.233 473.136 C 7.233 473.496,7.502 473.646,8.010 473.569 C 8.105 473.555,8.299 473.759,8.440 474.023 C 8.581 474.287,8.852 474.503,9.042 474.503 C 9.231 474.503,9.502 474.720,9.644 474.985 C 9.798 475.272,10.149 475.467,10.511 475.467 C 10.855 475.467,11.055 475.572,10.970 475.708 C 10.836 475.925,11.153 476.054,11.634 475.978 C 11.733 475.962,11.814 476.076,11.814 476.231 C 11.814 476.385,11.880 476.446,11.961 476.366 C 12.041 476.285,12.339 476.436,12.622 476.700 C 12.906 476.964,13.329 477.130,13.562 477.070 C 13.813 477.004,13.922 477.060,13.831 477.209 C 13.743 477.351,13.821 477.407,14.011 477.338 C 14.195 477.272,14.555 477.394,14.809 477.608 C 15.182 477.922,15.232 477.928,15.064 477.637 C 14.887 477.328,14.914 477.323,15.254 477.598 C 15.472 477.775,15.781 477.839,15.940 477.741 C 16.131 477.623,16.165 477.665,16.041 477.867 C 15.901 478.093,15.992 478.127,16.395 477.999 C 16.740 477.890,16.883 477.916,16.787 478.071 C 16.694 478.221,16.837 478.263,17.156 478.179 C 17.542 478.079,17.626 478.125,17.482 478.357 C 17.336 478.595,17.446 478.641,17.933 478.548 C 18.287 478.481,18.629 478.509,18.692 478.611 C 18.755 478.714,19.024 478.741,19.289 478.671 C 19.578 478.596,19.771 478.664,19.771 478.842 C 19.771 479.034,20.025 479.101,20.494 479.032 C 20.892 478.974,21.218 478.989,21.218 479.065 C 21.218 479.142,21.462 479.228,21.760 479.256 C 22.587 479.335,22.994 479.439,23.354 479.664 C 23.561 479.793,23.760 479.746,23.893 479.537 C 24.070 479.258,24.104 479.257,24.107 479.534 C 24.110 479.755,24.310 479.825,24.714 479.748 C 25.045 479.685,25.316 479.711,25.316 479.807 C 25.316 479.902,25.868 479.937,26.543 479.883 C 27.353 479.820,27.716 479.872,27.613 480.038 C 27.528 480.176,27.627 480.289,27.834 480.289 C 28.041 480.289,28.210 480.168,28.210 480.019 C 28.210 479.827,28.299 479.822,28.516 480.002 C 28.684 480.142,29.395 480.211,30.095 480.156 C 30.795 480.101,31.315 480.141,31.251 480.244 C 31.091 480.504,43.147 480.519,43.835 480.259 C 44.239 480.107,44.344 480.127,44.218 480.331 C 44.095 480.530,44.180 480.556,44.505 480.419 C 44.759 480.313,45.330 480.245,45.775 480.267 C 46.219 480.289,46.725 480.190,46.899 480.046 C 47.126 479.857,47.260 479.858,47.378 480.048 C 47.496 480.239,47.633 480.237,47.871 480.039 C 48.052 479.889,48.306 479.831,48.436 479.911 C 48.565 479.991,48.742 479.941,48.829 479.799 C 48.941 479.619,49.083 479.621,49.307 479.807 C 49.517 479.981,49.677 479.989,49.775 479.829 C 49.858 479.696,50.086 479.649,50.282 479.724 C 50.478 479.799,50.787 479.739,50.967 479.589 C 51.148 479.439,51.461 479.380,51.663 479.458 C 51.865 479.535,52.100 479.487,52.185 479.349 C 52.273 479.208,52.665 479.165,53.091 479.250 C 53.523 479.336,53.784 479.306,53.706 479.180 C 53.631 479.058,53.858 478.949,54.211 478.936 C 55.779 478.880,55.962 478.837,55.794 478.564 C 55.685 478.388,55.728 478.352,55.911 478.465 C 56.070 478.563,56.358 478.512,56.551 478.352 C 56.744 478.191,56.902 478.129,56.902 478.214 C 56.902 478.298,57.293 478.203,57.771 478.004 C 58.249 477.804,58.738 477.700,58.856 477.774 C 58.975 477.847,59.072 477.803,59.072 477.677 C 59.072 477.551,59.240 477.383,59.446 477.304 C 59.688 477.211,59.760 477.258,59.650 477.436 C 59.448 477.762,59.919 477.520,60.620 476.937 C 60.938 476.673,61.022 476.657,60.887 476.886 C 60.779 477.070,61.021 476.976,61.425 476.677 C 61.858 476.357,62.284 476.210,62.462 476.320 C 62.670 476.449,62.702 476.408,62.566 476.187 C 62.421 475.953,62.479 475.910,62.782 476.026 C 63.028 476.120,63.136 476.088,63.048 475.947 C 62.967 475.816,63.016 475.695,63.156 475.678 C 63.297 475.662,63.517 475.634,63.645 475.618 C 63.773 475.601,64.104 475.395,64.380 475.158 C 64.655 474.922,64.984 474.793,65.111 474.871 C 65.237 474.949,65.341 474.844,65.341 474.637 C 65.341 474.431,65.441 474.289,65.565 474.322 C 65.688 474.355,65.967 474.165,66.185 473.900 C 66.403 473.635,66.513 473.553,66.429 473.719 C 66.203 474.165,66.676 474.085,67.059 473.613 C 67.344 473.261,67.340 473.233,67.028 473.410 C 66.813 473.533,66.748 473.527,66.868 473.396 C 66.978 473.275,67.168 473.163,67.290 473.146 C 67.411 473.130,67.619 473.103,67.752 473.086 C 67.884 473.070,67.966 472.937,67.932 472.793 C 67.899 472.648,68.089 472.403,68.354 472.250 C 69.005 471.873,70.163 470.704,70.163 470.422 C 70.163 470.297,70.380 470.126,70.645 470.042 C 70.910 469.958,71.127 469.738,71.127 469.553 C 71.127 469.368,71.365 468.996,71.655 468.725 C 71.945 468.455,72.103 468.234,72.007 468.234 C 71.910 468.234,72.097 467.947,72.422 467.596 C 72.748 467.245,72.966 466.832,72.906 466.678 C 72.847 466.524,73.027 466.135,73.305 465.814 C 73.615 465.457,73.706 465.196,73.541 465.141 C 73.371 465.084,73.411 464.948,73.650 464.774 C 73.881 464.604,74.050 464.061,74.084 463.375 C 74.116 462.759,74.222 462.304,74.320 462.364 C 74.419 462.424,74.495 462.224,74.489 461.918 C 74.483 461.612,74.552 460.847,74.642 460.217 C 74.740 459.538,74.713 459.072,74.577 459.072 C 74.451 459.072,74.364 458.632,74.384 458.095 C 74.404 457.557,74.287 456.860,74.123 456.545 C 73.959 456.229,73.888 455.909,73.963 455.834 C 74.039 455.758,73.968 455.696,73.805 455.696 C 73.643 455.696,73.583 455.578,73.672 455.434 C 73.850 455.146,72.857 453.044,72.544 453.044 C 72.436 453.044,72.410 452.881,72.487 452.682 C 72.576 452.450,72.482 452.321,72.224 452.321 C 72.003 452.321,71.893 452.206,71.980 452.066 C 72.066 451.925,71.909 451.573,71.630 451.282 C 71.351 450.991,70.806 450.392,70.418 449.951 C 70.030 449.509,69.570 449.127,69.395 449.100 C 68.870 449.021,68.458 448.685,68.601 448.453 C 68.675 448.334,68.461 448.167,68.125 448.083 C 67.789 447.998,67.569 447.840,67.636 447.731 C 67.749 447.549,66.794 447.113,66.568 447.244 C 66.513 447.275,66.375 447.133,66.260 446.927 C 66.145 446.722,65.915 446.606,65.748 446.671 C 65.581 446.735,65.215 446.574,64.936 446.313 C 64.656 446.053,64.362 445.906,64.281 445.986 C 64.201 446.066,64.135 446.029,64.135 445.902 C 64.135 445.776,63.898 445.654,63.609 445.633 C 63.319 445.611,62.987 445.423,62.870 445.215 C 62.754 445.006,62.564 444.894,62.449 444.966 C 62.334 445.037,62.170 444.983,62.086 444.846 C 62.001 444.709,61.831 444.660,61.707 444.736 C 61.584 444.812,61.483 444.753,61.483 444.603 C 61.483 444.436,61.286 444.394,60.970 444.494 C 60.598 444.612,60.508 444.575,60.642 444.359 C 60.763 444.164,60.711 444.102,60.492 444.181 C 60.307 444.247,59.948 444.125,59.693 443.911 C 59.319 443.596,59.269 443.590,59.433 443.882 C 59.556 444.100,59.413 444.053,59.072 443.761 C 58.735 443.474,58.591 443.426,58.715 443.641 C 58.893 443.950,58.865 443.955,58.526 443.680 C 58.307 443.503,58.015 443.428,57.877 443.514 C 57.738 443.599,57.625 443.572,57.625 443.454 C 57.625 443.248,57.477 443.204,56.437 443.101 C 56.182 443.076,56.037 442.952,56.115 442.825 C 56.198 442.690,56.078 442.663,55.826 442.760 C 55.588 442.851,55.250 442.806,55.073 442.660 C 54.897 442.513,54.623 442.474,54.464 442.572 C 54.270 442.692,54.238 442.648,54.369 442.437 C 54.514 442.202,54.406 442.154,53.932 442.245 C 53.586 442.311,53.269 442.266,53.229 442.146 C 53.189 442.025,52.751 441.905,52.257 441.879 C 51.763 441.854,51.358 441.744,51.357 441.637 C 51.357 441.529,50.976 441.501,50.512 441.575 C 50.048 441.649,49.668 441.613,49.668 441.495 C 49.668 441.378,49.500 441.217,49.294 441.138 C 49.040 441.040,48.978 441.090,49.099 441.293 C 49.237 441.521,49.190 441.519,48.901 441.286 C 48.694 441.118,48.348 441.048,48.132 441.131 C 47.916 441.214,47.740 441.174,47.740 441.042 C 47.740 440.689,46.605 440.536,46.270 440.844 C 46.054 441.042,46.028 441.026,46.167 440.782 C 46.308 440.534,46.230 440.494,45.843 440.616 C 45.547 440.710,45.134 440.638,44.857 440.444 C 44.595 440.261,43.997 440.141,43.528 440.178 C 43.060 440.215,42.676 440.153,42.676 440.041 C 42.676 439.929,42.357 439.791,41.966 439.733 C 41.575 439.676,41.310 439.718,41.377 439.827 C 41.444 439.935,41.339 440.024,41.143 440.024 C 40.948 440.024,40.749 439.908,40.702 439.767 C 40.655 439.625,40.113 439.490,39.499 439.466 C 38.884 439.442,38.420 439.360,38.468 439.283 C 38.516 439.205,38.188 439.155,37.740 439.169 C 37.292 439.184,36.984 439.102,37.055 438.986 C 37.127 438.871,36.875 438.809,36.495 438.849 C 36.115 438.889,35.662 438.833,35.487 438.725 C 35.313 438.617,35.109 438.590,35.034 438.665 C 34.959 438.740,34.682 438.686,34.418 438.545 C 34.072 438.360,33.984 438.362,34.102 438.553 C 34.302 438.877,33.940 438.906,33.623 438.592 C 33.497 438.467,33.122 438.311,32.791 438.245 C 32.459 438.179,31.591 437.950,30.862 437.737 C 30.133 437.524,29.376 437.336,29.180 437.321 C 28.985 437.305,28.624 437.066,28.378 436.789 C 28.133 436.513,28.004 436.450,28.092 436.649 C 28.180 436.847,28.016 436.739,27.728 436.407 C 27.439 436.076,27.284 435.957,27.382 436.143 C 27.501 436.369,27.466 436.424,27.279 436.308 C 27.123 436.212,27.062 436.027,27.142 435.898 C 27.221 435.769,27.183 435.532,27.055 435.372 C 26.778 435.024,26.535 433.494,26.781 433.646 C 26.876 433.705,27.018 433.585,27.097 433.380 C 27.178 433.169,27.138 433.070,27.004 433.153 C 26.871 433.235,26.831 433.136,26.912 432.925 C 26.990 432.720,27.133 432.601,27.229 432.660 C 27.324 432.719,27.751 432.398,28.177 431.946 C 28.637 431.458,29.094 431.180,29.304 431.260 C 29.516 431.342,29.656 431.252,29.656 431.035 C 29.656 430.837,29.792 430.679,29.958 430.686 C 30.687 430.713,31.122 430.606,31.012 430.428 C 30.884 430.221,30.940 430.215,33.913 430.096 C 34.995 430.053,35.833 430.094,35.776 430.186 C 35.718 430.279,36.105 430.322,36.635 430.281 C 37.233 430.236,37.542 430.300,37.449 430.450 C 37.358 430.598,37.549 430.643,37.945 430.568 C 38.299 430.500,38.652 430.546,38.728 430.670 C 38.805 430.793,39.019 430.837,39.205 430.765 C 39.390 430.694,39.542 430.728,39.542 430.841 C 39.542 431.013,39.863 431.171,40.747 431.436 C 40.814 431.456,41.004 431.558,41.169 431.663 C 41.335 431.769,41.596 431.777,41.749 431.683 C 41.927 431.573,41.962 431.617,41.845 431.805 C 41.723 432.004,41.809 432.075,42.110 432.023 C 42.387 431.976,42.529 432.072,42.486 432.278 C 42.441 432.488,42.551 432.557,42.784 432.467 C 42.987 432.390,43.127 432.403,43.095 432.498 C 43.064 432.593,43.092 432.675,43.159 432.681 C 43.516 432.714,44.364 433.682,44.364 434.058 C 44.364 434.297,44.526 434.556,44.724 434.632 C 44.923 434.708,45.032 434.855,44.968 434.958 C 44.816 435.205,45.321 436.649,45.560 436.649 C 45.661 436.649,45.692 436.920,45.629 437.251 C 45.559 437.618,45.625 437.854,45.797 437.854 C 45.953 437.854,46.013 437.964,45.930 438.097 C 45.829 438.260,50.074 438.320,58.751 438.278 L 71.721 438.216 71.705 437.492 C 71.683 436.532,71.352 435.202,71.134 435.202 C 71.038 435.202,70.949 434.851,70.937 434.423 C 70.925 433.995,70.799 433.606,70.658 433.559 C 70.517 433.512,70.462 433.374,70.537 433.252 C 70.612 433.131,70.587 432.896,70.482 432.731 C 70.292 432.431,70.250 432.300,70.193 431.812 C 70.176 431.672,70.037 431.634,69.884 431.729 C 69.720 431.830,69.671 431.796,69.765 431.644 C 69.973 431.307,69.691 430.586,69.417 430.755 C 69.300 430.828,69.268 430.720,69.347 430.515 C 69.431 430.296,69.331 430.082,69.104 429.995 C 68.892 429.914,68.778 429.751,68.850 429.634 C 68.923 429.517,68.759 429.183,68.487 428.891 C 68.215 428.599,67.993 428.218,67.993 428.044 C 67.993 427.870,67.892 427.728,67.768 427.728 C 67.644 427.728,67.474 427.511,67.390 427.245 C 67.306 426.980,67.082 426.763,66.892 426.763 C 66.702 426.763,66.546 426.619,66.546 426.443 C 66.546 426.068,65.650 425.214,65.024 424.992 C 64.783 424.907,64.642 424.748,64.710 424.639 C 64.834 424.437,64.117 423.809,63.738 423.789 C 63.625 423.783,63.261 423.526,62.929 423.218 C 62.598 422.911,62.191 422.711,62.025 422.775 C 61.860 422.838,61.724 422.767,61.724 422.617 C 61.724 422.466,61.653 422.413,61.567 422.500 C 61.481 422.586,61.291 422.498,61.145 422.303 C 60.999 422.109,60.609 421.902,60.277 421.843 C 59.946 421.784,59.675 421.719,59.675 421.699 C 59.675 421.679,59.468 421.624,59.216 421.577 C 58.964 421.530,58.677 421.359,58.578 421.198 C 58.478 421.038,58.218 420.975,57.999 421.059 C 57.733 421.161,57.658 421.119,57.773 420.933 C 57.888 420.746,57.812 420.705,57.544 420.807 C 57.306 420.899,57.141 420.842,57.139 420.668 C 57.137 420.458,57.077 420.466,56.932 420.695 C 56.769 420.951,56.696 420.934,56.571 420.609 C 56.459 420.317,56.250 420.244,55.829 420.349 C 55.507 420.430,55.175 420.385,55.092 420.250 C 55.008 420.115,54.826 420.074,54.688 420.160 C 54.550 420.245,54.359 420.189,54.264 420.035 C 54.082 419.740,52.099 419.350,51.024 419.398 C 50.676 419.413,50.392 419.351,50.392 419.261 C 50.392 419.171,50.012 419.115,49.548 419.137 C 49.084 419.159,48.704 419.104,48.704 419.016 C 48.704 418.928,48.324 418.874,47.860 418.896 C 47.396 418.918,47.015 418.825,47.013 418.690 C 47.011 418.555,46.904 418.608,46.775 418.807 C 46.647 419.005,46.540 419.058,46.538 418.924 C 46.536 418.789,45.966 418.682,45.268 418.686 C 44.572 418.690,43.827 418.593,43.613 418.471 C 43.371 418.333,42.846 418.345,42.227 418.502 C 41.669 418.644,41.230 418.660,41.230 418.540 C 41.230 418.247,34.426 418.265,33.650 418.559 C 33.249 418.712,33.032 418.712,33.032 418.559 C 33.032 418.285,31.908 418.238,31.743 418.505 M77.642 442.013 C 77.649 454.313,77.745 464.376,77.854 464.376 C 77.963 464.376,77.998 464.664,77.930 465.015 C 77.852 465.425,77.899 465.597,78.062 465.497 C 78.222 465.398,78.266 465.529,78.181 465.853 C 78.097 466.177,78.186 466.443,78.422 466.576 C 78.649 466.703,78.748 466.977,78.672 467.269 C 78.601 467.539,78.664 467.752,78.815 467.752 C 78.963 467.752,79.084 467.955,79.084 468.204 C 79.084 468.453,79.245 468.791,79.443 468.955 C 79.640 469.119,79.750 469.337,79.687 469.439 C 79.623 469.542,79.733 469.760,79.930 469.924 C 80.128 470.088,80.289 470.371,80.289 470.554 C 80.289 470.737,80.452 470.886,80.651 470.886 C 80.850 470.886,81.013 471.049,81.013 471.248 C 81.013 471.447,81.121 471.609,81.254 471.609 C 81.386 471.609,81.468 471.691,81.436 471.790 C 81.358 472.028,83.967 474.641,84.204 474.563 C 84.306 474.530,84.388 474.611,84.388 474.744 C 84.388 474.876,84.557 474.985,84.764 474.985 C 84.971 474.985,85.090 475.066,85.030 475.166 C 84.970 475.265,85.198 475.555,85.538 475.810 C 85.912 476.090,86.077 476.138,85.955 475.930 C 85.845 475.742,86.108 475.949,86.538 476.390 C 86.968 476.831,87.466 477.136,87.645 477.067 C 87.823 476.999,88.144 477.211,88.359 477.539 C 88.574 477.867,88.853 478.071,88.980 477.992 C 89.107 477.914,89.210 477.976,89.210 478.131 C 89.210 478.298,89.379 478.347,89.625 478.253 C 89.853 478.165,89.962 478.171,89.867 478.266 C 89.692 478.441,91.491 479.373,92.043 479.394 C 92.209 479.400,92.345 479.492,92.345 479.598 C 92.345 479.704,92.575 479.913,92.856 480.064 C 93.270 480.285,93.331 480.275,93.176 480.012 C 93.069 479.828,93.187 479.863,93.449 480.091 C 93.703 480.314,93.995 480.502,94.095 480.509 C 94.196 480.517,94.549 480.700,94.879 480.916 C 95.232 481.147,95.775 481.265,96.202 481.202 C 96.600 481.144,96.926 481.179,96.926 481.281 C 96.926 481.382,97.116 481.469,97.348 481.474 C 97.580 481.479,98.149 481.543,98.614 481.616 C 99.078 481.689,99.852 481.786,100.335 481.832 C 100.818 481.878,101.306 481.972,101.420 482.040 C 101.710 482.214,121.585 482.191,121.881 482.016 C 122.013 481.938,122.420 481.906,122.785 481.944 C 123.178 481.985,123.448 481.896,123.448 481.725 C 123.448 481.507,123.529 481.503,123.780 481.712 C 124.029 481.918,124.287 481.918,124.805 481.713 C 125.186 481.563,125.931 481.450,126.462 481.464 C 127.199 481.482,127.341 481.429,127.064 481.236 C 126.795 481.048,126.903 481.023,127.486 481.138 C 127.960 481.231,128.270 481.195,128.270 481.046 C 128.270 480.910,128.490 480.842,128.759 480.893 C 129.027 480.945,129.191 480.896,129.122 480.784 C 128.964 480.529,129.679 480.238,129.991 480.430 C 130.118 480.509,130.732 480.326,131.356 480.024 C 131.979 479.722,132.571 479.495,132.670 479.520 C 132.770 479.545,132.851 479.446,132.851 479.299 C 132.851 479.152,133.005 479.091,133.193 479.163 C 133.381 479.235,133.599 479.127,133.677 478.923 C 133.757 478.714,133.977 478.612,134.179 478.690 C 134.377 478.765,134.539 478.716,134.539 478.580 C 134.539 478.443,134.638 478.393,134.758 478.468 C 135.097 478.677,135.762 478.342,135.583 478.053 C 135.482 477.890,135.576 477.855,135.838 477.955 C 136.066 478.042,136.192 478.018,136.120 477.901 C 135.973 477.663,136.667 477.294,137.123 477.367 C 137.285 477.393,137.555 477.193,137.724 476.923 C 137.892 476.653,138.194 476.431,138.394 476.430 C 138.831 476.429,142.158 473.396,142.078 473.071 C 142.048 472.946,142.238 472.776,142.500 472.693 C 142.766 472.609,142.978 472.328,142.978 472.061 C 142.978 471.797,143.086 471.648,143.219 471.730 C 143.433 471.862,143.504 471.696,143.439 471.214 C 143.428 471.130,143.556 470.976,143.724 470.872 C 143.891 470.768,144.056 470.496,144.090 470.266 C 144.124 470.037,144.294 469.759,144.469 469.648 C 144.643 469.537,144.708 469.445,144.612 469.443 C 144.516 469.441,144.709 468.929,145.041 468.305 C 145.373 467.682,145.590 467.031,145.524 466.859 C 145.458 466.687,145.498 466.546,145.613 466.546 C 145.729 466.546,145.800 466.214,145.772 465.809 C 145.744 465.403,145.806 465.019,145.911 464.954 C 146.015 464.890,146.063 464.521,146.018 464.134 C 145.973 463.747,146.057 463.385,146.205 463.330 C 146.395 463.260,146.385 463.137,146.172 462.911 C 145.785 462.500,145.726 419.860,146.113 419.731 C 146.246 419.687,141.205 419.650,134.912 419.650 L 123.471 419.650 123.618 425.256 C 123.711 428.782,123.680 430.862,123.534 430.862 C 123.388 430.862,123.307 436.186,123.315 445.208 C 123.322 453.098,123.246 459.554,123.146 459.554 C 123.047 459.554,122.966 459.669,122.966 459.809 C 122.966 459.950,123.056 460.009,123.167 459.940 C 123.277 459.872,123.367 459.974,123.367 460.167 C 123.367 460.360,123.275 460.518,123.162 460.518 C 123.049 460.518,123.022 460.817,123.101 461.181 C 123.199 461.632,123.173 461.741,123.019 461.523 C 122.842 461.272,122.762 461.312,122.660 461.704 C 122.571 462.043,122.619 462.154,122.807 462.044 C 122.961 461.955,122.886 462.111,122.641 462.391 C 122.389 462.678,122.274 463.027,122.377 463.193 C 122.492 463.380,122.457 463.424,122.280 463.314 C 122.126 463.220,122.001 463.258,122.001 463.400 C 122.001 463.541,121.727 463.964,121.393 464.340 C 121.058 464.715,120.616 465.230,120.411 465.483 C 120.205 465.736,120.107 465.781,120.193 465.582 C 120.279 465.383,120.178 465.431,119.970 465.688 C 119.761 465.945,119.590 466.068,119.590 465.960 C 119.590 465.852,119.454 465.871,119.289 466.003 C 119.123 466.134,118.577 466.316,118.076 466.406 C 117.576 466.497,117.212 466.646,117.268 466.739 C 117.324 466.832,116.874 466.931,116.269 466.960 C 115.664 466.988,115.080 467.151,114.972 467.321 C 114.812 467.574,114.775 467.574,114.772 467.321 C 114.769 467.080,114.654 467.072,114.257 467.285 C 113.855 467.500,113.786 467.494,113.932 467.256 C 114.056 467.057,114.021 467.014,113.831 467.132 C 113.578 467.288,110.988 467.401,110.669 467.269 C 110.603 467.242,110.115 467.200,109.584 467.176 C 109.054 467.152,108.511 467.068,108.379 466.989 C 108.246 466.910,107.837 466.879,107.470 466.921 C 107.103 466.962,106.858 466.907,106.925 466.798 C 107.031 466.627,106.630 466.500,104.917 466.163 C 104.737 466.128,104.350 465.874,104.057 465.599 C 103.765 465.324,103.424 465.096,103.300 465.091 C 102.957 465.077,101.752 463.396,101.587 462.700 C 101.506 462.362,101.329 461.944,101.192 461.771 C 100.959 461.475,100.839 460.726,100.733 458.891 C 100.708 458.460,100.601 458.107,100.495 458.107 C 100.388 458.107,100.301 457.830,100.301 457.490 C 100.301 457.151,100.383 456.924,100.482 456.985 C 100.582 457.047,100.635 448.671,100.600 438.374 L 100.537 419.650 89.083 419.650 L 77.628 419.650 77.642 442.013 M235.986 419.713 L 224.714 419.776 224.714 441.594 C 224.714 457.565,224.786 463.412,224.984 463.412 C 225.171 463.412,225.162 463.523,224.955 463.773 C 224.757 464.012,224.744 464.135,224.918 464.135 C 225.062 464.135,225.118 464.299,225.041 464.500 C 224.964 464.700,225.031 465.021,225.190 465.213 C 225.349 465.404,225.409 465.674,225.323 465.812 C 225.237 465.951,225.279 466.064,225.415 466.064 C 225.551 466.064,225.601 466.227,225.524 466.426 C 225.448 466.624,225.512 466.787,225.667 466.787 C 225.821 466.787,225.885 466.888,225.809 467.012 C 225.733 467.135,225.782 467.305,225.919 467.390 C 226.056 467.475,226.106 467.645,226.029 467.768 C 225.953 467.892,226.012 467.993,226.160 467.993 C 226.309 467.993,226.363 468.101,226.281 468.234 C 226.199 468.366,226.224 468.475,226.336 468.475 C 226.448 468.475,226.558 468.708,226.579 468.993 C 226.600 469.278,226.949 469.853,227.354 470.271 C 227.758 470.688,228.089 471.141,228.089 471.276 C 228.089 471.412,228.466 471.823,228.926 472.190 C 229.386 472.557,229.739 472.983,229.710 473.137 C 229.680 473.292,229.801 473.387,229.979 473.351 C 230.156 473.314,230.358 473.502,230.428 473.770 C 230.498 474.037,230.646 474.200,230.757 474.132 C 230.868 474.063,231.076 474.227,231.220 474.496 C 231.364 474.765,231.647 474.985,231.849 474.985 C 232.051 474.985,232.167 475.066,232.107 475.166 C 232.046 475.265,232.275 475.555,232.614 475.810 C 232.982 476.086,233.148 476.135,233.025 475.930 C 232.776 475.517,233.505 476.040,234.145 476.733 C 234.360 476.965,234.622 477.155,234.729 477.155 C 234.836 477.155,235.140 477.345,235.405 477.577 C 235.763 477.890,235.841 477.905,235.708 477.637 C 235.609 477.438,235.703 477.492,235.918 477.758 C 236.132 478.023,236.357 478.213,236.418 478.180 C 236.677 478.038,237.029 478.136,236.916 478.318 C 236.767 478.560,238.888 479.626,239.171 479.451 C 239.281 479.383,239.436 479.497,239.515 479.703 C 239.594 479.910,239.749 480.023,239.859 479.955 C 239.969 479.887,240.349 479.983,240.704 480.167 C 241.060 480.351,241.350 480.446,241.350 480.378 C 241.350 480.310,241.522 480.426,241.731 480.636 C 241.941 480.846,242.212 480.955,242.334 480.880 C 242.456 480.805,242.556 480.840,242.556 480.958 C 242.556 481.189,242.944 481.274,244.183 481.313 C 244.614 481.327,244.967 481.440,244.967 481.565 C 244.967 481.690,245.168 481.740,245.415 481.675 C 245.661 481.611,246.056 481.666,246.292 481.798 C 246.593 481.967,246.672 481.960,246.558 481.775 C 246.464 481.622,246.750 481.660,247.241 481.865 C 248.222 482.275,248.423 482.302,248.235 481.998 C 248.088 481.761,248.551 481.775,248.945 482.020 C 249.405 482.306,268.690 482.178,269.064 481.887 C 269.338 481.672,269.369 481.687,269.207 481.954 C 269.055 482.207,269.089 482.238,269.342 482.078 C 269.528 481.960,270.006 481.838,270.404 481.806 C 271.365 481.729,272.516 481.586,272.815 481.507 C 272.948 481.472,273.354 481.440,273.719 481.436 C 274.084 481.433,274.382 481.342,274.382 481.235 C 274.382 481.128,274.618 481.086,274.907 481.141 C 275.195 481.197,275.577 481.122,275.755 480.974 C 276.044 480.734,276.280 480.677,277.471 480.561 C 277.645 480.544,277.709 480.406,277.614 480.252 C 277.519 480.098,277.547 480.039,277.676 480.118 C 277.805 480.198,278.337 480.102,278.859 479.906 C 279.380 479.709,279.996 479.486,280.226 479.409 C 280.457 479.333,280.576 479.157,280.490 479.019 C 280.396 478.866,280.454 478.841,280.639 478.956 C 280.980 479.166,283.350 478.149,283.175 477.866 C 283.115 477.768,283.233 477.623,283.438 477.545 C 283.647 477.464,283.747 477.504,283.666 477.635 C 283.587 477.764,283.844 477.684,284.237 477.458 C 284.631 477.232,284.908 476.975,284.853 476.886 C 284.798 476.797,285.028 476.655,285.364 476.571 C 285.700 476.486,285.917 476.324,285.846 476.209 C 285.776 476.095,285.993 475.932,286.329 475.847 C 286.665 475.763,286.874 475.589,286.795 475.460 C 286.715 475.331,286.826 475.226,287.040 475.226 C 287.274 475.226,287.361 475.114,287.258 474.948 C 287.159 474.787,287.192 474.734,287.335 474.823 C 287.685 475.039,289.403 473.368,289.188 473.021 C 289.083 472.850,289.120 472.805,289.283 472.906 C 289.434 472.999,289.739 472.778,289.980 472.401 C 290.216 472.032,290.547 471.587,290.714 471.411 C 291.086 471.022,291.112 470.800,290.760 471.018 C 290.617 471.106,290.643 470.949,290.818 470.670 C 290.992 470.391,291.214 470.163,291.312 470.163 C 291.409 470.163,291.657 469.837,291.863 469.439 C 292.068 469.042,292.166 468.716,292.080 468.716 C 291.994 468.716,292.055 468.558,292.215 468.365 C 292.376 468.172,292.441 467.908,292.362 467.779 C 292.282 467.650,292.322 467.479,292.451 467.399 C 292.580 467.319,292.628 467.106,292.559 466.924 C 292.489 466.743,292.544 466.526,292.679 466.442 C 292.815 466.358,292.865 466.130,292.791 465.936 C 292.716 465.741,292.767 465.582,292.904 465.582 C 293.047 465.582,293.108 465.225,293.048 464.738 C 292.990 464.274,293.025 463.894,293.126 463.894 C 293.227 463.894,293.309 453.939,293.309 441.772 L 293.309 419.650 281.879 419.715 L 270.449 419.780 270.619 430.286 C 270.738 437.606,270.713 440.744,270.537 440.634 C 270.362 440.526,270.283 443.013,270.283 448.690 C 270.283 454.004,270.368 456.902,270.524 456.902 C 270.657 456.902,270.766 457.173,270.766 457.505 C 270.766 457.836,270.656 458.107,270.522 458.107 C 270.388 458.107,270.281 458.568,270.284 459.132 C 270.292 460.907,270.237 461.483,270.068 461.378 C 269.978 461.323,269.890 461.459,269.873 461.681 C 269.788 462.761,269.175 463.911,268.264 464.698 C 267.982 464.942,267.904 465.061,268.090 464.963 C 268.314 464.845,268.370 464.879,268.257 465.062 C 268.162 465.215,267.929 465.341,267.737 465.341 C 267.546 465.341,267.390 465.449,267.390 465.582 C 267.390 465.714,267.227 465.823,267.028 465.823 C 266.829 465.823,266.667 465.938,266.667 466.078 C 266.667 466.219,266.578 466.278,266.469 466.211 C 266.360 466.144,266.004 466.227,265.679 466.396 C 265.353 466.564,264.954 466.658,264.792 466.604 C 264.629 466.550,264.497 466.620,264.497 466.760 C 264.497 466.899,264.334 466.951,264.135 466.874 C 263.936 466.798,263.773 466.848,263.773 466.986 C 263.773 467.134,263.375 467.197,262.799 467.140 C 262.263 467.087,261.884 467.139,261.956 467.256 C 262.065 467.431,261.635 467.437,261.121 467.266 C 260.703 467.128,258.228 467.182,258.228 467.330 C 258.228 467.429,258.004 467.511,257.731 467.511 C 257.458 467.511,257.291 467.420,257.359 467.310 C 257.427 467.200,256.955 467.118,256.311 467.129 C 255.654 467.140,255.200 467.051,255.276 466.927 C 255.352 466.805,255.237 466.773,255.020 466.856 C 254.804 466.939,254.559 466.898,254.477 466.765 C 254.378 466.605,254.219 466.612,254.010 466.786 C 253.822 466.942,253.660 466.956,253.610 466.819 C 253.564 466.693,253.309 466.553,253.044 466.508 C 252.779 466.463,252.349 466.233,252.088 465.998 C 251.827 465.762,251.502 465.612,251.365 465.664 C 251.227 465.716,250.849 465.448,250.524 465.068 C 250.198 464.687,249.785 464.376,249.605 464.376 C 249.425 464.376,249.338 464.280,249.410 464.163 C 249.482 464.046,249.344 463.694,249.103 463.380 C 248.566 462.679,248.250 461.944,248.315 461.543 C 248.342 461.377,248.260 461.242,248.134 461.242 C 248.008 461.242,247.966 461.008,248.041 460.722 C 248.134 460.366,248.089 460.256,247.898 460.374 C 247.732 460.477,247.619 460.394,247.619 460.171 C 247.619 459.964,247.755 459.793,247.920 459.791 C 248.107 459.789,248.130 459.720,247.981 459.611 C 247.823 459.495,247.740 452.531,247.740 439.562 C 247.740 426.489,247.657 419.684,247.498 419.671 C 247.366 419.659,242.185 419.679,235.986 419.713 M150.813 420.011 C 150.895 420.144,150.854 420.253,150.721 420.253 C 150.335 420.253,150.363 430.545,150.750 430.701 C 150.990 430.798,150.991 430.828,150.753 430.843 C 150.533 430.857,150.452 431.539,150.452 433.394 C 150.452 435.256,150.532 435.926,150.753 435.929 C 150.919 435.930,158.344 435.929,167.253 435.925 C 179.351 435.920,183.496 435.990,183.626 436.200 C 183.734 436.376,183.695 436.417,183.521 436.310 C 183.368 436.215,183.240 436.226,183.237 436.333 C 183.234 436.440,182.800 436.847,182.273 437.237 C 181.745 437.627,181.314 438.069,181.314 438.218 C 181.314 438.367,180.871 438.738,180.330 439.042 C 179.789 439.346,179.155 439.908,178.923 440.291 C 178.690 440.674,178.427 440.915,178.339 440.827 C 178.252 440.739,178.180 440.848,178.180 441.069 C 178.180 441.290,178.060 441.471,177.913 441.471 C 177.510 441.471,175.749 442.932,175.885 443.152 C 175.951 443.258,175.822 443.493,175.599 443.674 C 175.251 443.956,175.220 443.951,175.382 443.641 C 175.486 443.442,175.189 443.676,174.723 444.161 C 174.256 444.645,173.826 444.993,173.767 444.934 C 173.707 444.875,173.394 445.140,173.071 445.524 C 172.748 445.908,172.188 446.416,171.828 446.652 C 171.467 446.888,171.225 447.134,171.289 447.198 C 171.447 447.357,170.803 447.981,170.481 447.981 C 170.339 447.981,170.223 448.072,170.223 448.183 C 170.223 448.294,169.946 448.512,169.607 448.666 C 169.268 448.821,169.057 449.055,169.139 449.187 C 169.220 449.319,169.125 449.427,168.927 449.427 C 168.730 449.427,168.498 449.646,168.414 449.913 C 168.329 450.180,168.159 450.337,168.036 450.261 C 167.913 450.184,167.812 450.291,167.812 450.498 C 167.812 450.705,167.731 450.857,167.631 450.836 C 167.250 450.755,166.606 451.182,166.606 451.517 C 166.606 451.709,166.525 451.821,166.426 451.764 C 166.248 451.663,165.205 452.616,165.095 452.979 C 165.064 453.081,164.964 453.140,164.872 453.109 C 164.780 453.078,164.494 453.322,164.235 453.651 C 163.976 453.980,163.644 454.250,163.498 454.250 C 163.351 454.250,163.231 454.412,163.231 454.611 C 163.231 454.810,163.095 454.946,162.929 454.913 C 162.764 454.879,162.655 454.988,162.688 455.154 C 162.722 455.319,162.667 455.431,162.568 455.401 C 162.239 455.304,161.061 456.227,161.061 456.582 C 161.061 456.774,160.952 456.863,160.820 456.781 C 160.687 456.699,160.579 456.819,160.579 457.048 C 160.579 457.277,160.514 457.399,160.434 457.320 C 160.354 457.240,159.919 457.546,159.466 457.999 C 159.012 458.452,158.589 458.824,158.525 458.827 C 158.461 458.829,158.386 458.912,158.359 459.011 C 158.274 459.326,157.236 460.277,156.979 460.277 C 156.843 460.277,156.557 460.544,156.343 460.871 C 156.129 461.197,155.747 461.530,155.494 461.610 C 155.240 461.691,155.033 461.915,155.033 462.108 C 155.033 462.301,154.787 462.553,154.486 462.667 C 153.746 462.949,152.381 464.170,152.381 464.550 C 152.381 464.720,152.297 464.831,152.195 464.798 C 151.869 464.692,150.771 465.696,150.875 466.006 C 150.930 466.170,150.854 466.305,150.707 466.305 C 150.517 466.305,150.445 468.408,150.459 473.599 L 150.478 480.892 185.546 480.830 L 220.615 480.768 220.615 472.211 L 220.615 463.653 203.751 463.653 C 188.433 463.653,185.334 463.545,187.194 463.078 C 187.509 462.999,187.826 462.706,187.900 462.426 C 187.973 462.145,188.148 461.988,188.290 462.076 C 188.432 462.163,188.547 462.112,188.547 461.962 C 188.547 461.595,189.012 461.177,189.815 460.821 C 190.180 460.660,190.451 460.390,190.417 460.221 C 190.383 460.053,190.491 459.943,190.657 459.976 C 190.823 460.009,190.958 459.873,190.958 459.675 C 190.958 459.476,191.113 459.313,191.301 459.313 C 191.490 459.313,192.016 458.879,192.470 458.348 C 192.924 457.818,193.393 457.382,193.513 457.379 C 193.897 457.369,196.145 455.170,196.062 454.885 C 196.018 454.735,196.056 454.686,196.148 454.778 C 196.239 454.869,196.438 454.841,196.590 454.715 C 196.742 454.589,197.162 454.263,197.524 453.992 C 197.886 453.721,198.157 453.374,198.127 453.222 C 198.096 453.070,198.198 452.940,198.353 452.934 C 198.714 452.920,199.879 451.913,199.879 451.615 C 199.879 451.491,200.096 451.320,200.362 451.236 C 200.627 451.152,200.844 450.934,200.844 450.751 C 200.844 450.569,200.969 450.343,201.122 450.248 C 201.308 450.133,201.335 450.183,201.202 450.397 C 201.093 450.574,201.402 450.401,201.888 450.013 C 202.375 449.624,202.773 449.153,202.773 448.965 C 202.773 448.777,202.836 448.687,202.913 448.764 C 203.073 448.924,203.338 448.716,205.141 447.019 C 205.848 446.354,206.518 445.811,206.632 445.811 C 206.746 445.811,206.908 445.592,206.993 445.325 C 207.078 445.058,207.248 444.902,207.371 444.978 C 207.494 445.054,207.595 444.993,207.595 444.843 C 207.595 444.539,208.187 443.882,208.460 443.882 C 208.557 443.882,209.095 443.382,209.655 442.772 C 210.216 442.161,210.714 441.693,210.762 441.732 C 210.948 441.883,211.637 441.325,211.912 440.801 C 212.072 440.497,212.319 440.325,212.466 440.416 C 212.628 440.516,212.664 440.470,212.559 440.300 C 212.458 440.136,212.580 439.946,212.853 439.841 C 213.676 439.526,215.309 438.048,215.148 437.765 C 215.062 437.615,215.077 437.569,215.181 437.663 C 215.436 437.893,216.943 436.720,217.124 436.150 C 217.204 435.899,217.343 435.715,217.435 435.740 C 217.701 435.814,218.686 435.109,218.689 434.843 C 218.691 434.709,219.068 434.355,219.528 434.058 C 220.642 433.336,220.640 433.355,220.562 426.160 L 220.494 419.892 185.579 419.830 C 162.270 419.790,150.713 419.850,150.813 420.011 M298.918 450.074 C 298.968 474.258,298.919 480.416,298.677 480.568 C 298.509 480.673,303.586 480.759,309.958 480.760 L 321.543 480.762 321.531 471.263 C 321.524 466.039,321.438 461.683,321.338 461.583 C 321.049 461.294,321.130 459.358,321.439 459.167 C 321.629 459.050,321.671 459.124,321.569 459.391 C 321.485 459.610,321.493 459.773,321.588 459.753 C 321.907 459.686,323.038 460.245,323.230 460.564 C 323.361 460.783,323.276 460.770,322.952 460.523 C 322.694 460.326,323.066 460.733,323.778 461.427 C 324.491 462.121,325.169 462.688,325.285 462.688 C 325.402 462.688,325.470 462.824,325.437 462.990 C 325.404 463.156,325.562 463.277,325.789 463.259 C 326.016 463.242,326.179 463.302,326.151 463.394 C 326.068 463.664,327.733 465.329,327.951 465.194 C 328.061 465.126,328.247 465.326,328.366 465.637 C 328.484 465.949,328.776 466.363,329.015 466.556 C 329.396 466.866,329.426 466.865,329.263 466.546 C 329.161 466.347,329.244 466.401,329.447 466.667 C 330.148 467.585,330.631 467.978,330.874 467.828 C 331.013 467.742,331.043 467.797,330.944 467.957 C 330.844 468.119,330.955 468.305,331.208 468.398 C 331.656 468.563,332.367 469.258,332.920 470.069 C 333.091 470.320,333.156 470.372,333.064 470.186 C 332.955 469.965,332.994 469.907,333.176 470.019 C 333.329 470.114,333.454 470.307,333.454 470.448 C 333.454 470.728,335.629 472.724,335.850 472.647 C 335.924 472.621,336.124 472.864,336.293 473.186 C 336.462 473.509,336.916 473.936,337.301 474.135 C 337.686 474.335,338.070 474.716,338.155 474.982 C 338.239 475.249,338.416 475.467,338.548 475.467 C 338.679 475.467,338.709 475.342,338.615 475.189 C 338.507 475.015,338.549 474.976,338.725 475.085 C 338.880 475.181,338.954 475.346,338.888 475.452 C 338.718 475.727,339.602 476.469,339.841 476.251 C 339.951 476.152,339.966 476.201,339.874 476.361 C 339.771 476.540,339.988 476.798,340.438 477.030 C 340.840 477.238,341.169 477.555,341.169 477.734 C 341.169 477.914,341.359 478.209,341.591 478.391 C 341.979 478.695,341.986 478.683,341.682 478.240 C 341.499 477.975,341.624 478.049,341.958 478.405 C 342.292 478.760,342.604 479.140,342.651 479.248 C 342.698 479.357,343.136 479.744,343.625 480.108 L 344.513 480.772 359.222 480.772 C 375.426 480.772,374.903 480.827,373.271 479.274 C 372.722 478.752,372.272 478.403,372.272 478.500 C 372.272 478.597,372.055 478.480,371.790 478.240 C 371.525 478.000,371.308 477.671,371.308 477.509 C 371.308 477.347,371.118 477.065,370.886 476.883 C 370.499 476.579,370.491 476.592,370.793 477.034 C 370.974 477.300,370.735 477.083,370.261 476.552 C 369.786 476.022,369.286 475.588,369.148 475.588 C 369.010 475.588,368.888 475.479,368.876 475.347 C 368.845 474.972,368.381 474.495,368.174 474.623 C 368.071 474.687,367.853 474.577,367.689 474.380 C 367.525 474.182,367.476 474.020,367.579 474.020 C 367.682 474.020,367.572 473.806,367.335 473.544 C 367.098 473.282,366.807 473.127,366.689 473.200 C 366.571 473.273,366.504 473.219,366.540 473.079 C 366.577 472.940,366.136 472.511,365.562 472.126 C 364.988 471.742,364.527 471.360,364.537 471.277 C 364.548 471.195,364.476 471.121,364.376 471.113 C 364.277 471.105,364.115 470.881,364.017 470.615 C 363.918 470.349,363.726 470.201,363.589 470.286 C 363.452 470.370,363.369 470.339,363.406 470.216 C 363.442 470.093,362.984 469.583,362.387 469.083 C 361.790 468.582,361.072 467.942,360.791 467.661 C 360.510 467.379,359.552 466.498,358.662 465.702 C 357.772 464.907,356.655 463.876,356.179 463.412 C 355.703 462.948,355.196 462.568,355.053 462.568 C 354.909 462.568,354.792 462.433,354.792 462.269 C 354.792 461.923,353.602 460.759,353.249 460.759 C 353.117 460.759,352.861 460.461,352.679 460.096 C 352.498 459.732,352.220 459.461,352.063 459.494 C 351.907 459.527,351.805 459.467,351.838 459.361 C 351.915 459.116,350.182 457.576,349.922 457.657 C 349.816 457.690,349.498 457.375,349.217 456.957 C 348.935 456.540,348.637 456.266,348.554 456.349 C 348.471 456.432,348.403 456.368,348.403 456.207 C 348.403 455.839,347.184 454.750,346.761 454.739 C 346.587 454.735,346.512 454.623,346.594 454.491 C 346.676 454.358,346.574 454.250,346.367 454.250 C 346.161 454.250,345.992 454.080,345.992 453.874 C 345.992 453.667,345.891 453.560,345.768 453.636 C 345.645 453.712,345.475 453.556,345.390 453.289 C 345.305 453.021,345.098 452.803,344.931 452.803 C 344.763 452.803,344.275 452.367,343.847 451.834 C 343.418 451.301,342.963 450.929,342.836 451.008 C 342.708 451.086,342.634 451.062,342.670 450.952 C 342.707 450.843,342.628 450.702,342.495 450.639 C 342.363 450.576,342.010 450.312,341.711 450.052 L 341.167 449.579 342.135 448.703 C 342.668 448.220,343.031 447.752,342.940 447.662 C 342.850 447.572,342.902 447.498,343.055 447.498 C 343.495 447.498,344.633 446.478,346.147 444.726 C 346.490 444.328,346.686 444.165,346.581 444.364 C 346.460 444.594,346.601 444.550,346.967 444.244 C 347.938 443.432,348.204 443.159,348.023 443.159 C 347.928 443.159,348.143 442.887,348.500 442.556 C 348.858 442.224,349.227 441.953,349.320 441.953 C 349.537 441.953,351.820 439.832,351.727 439.716 C 351.612 439.570,352.435 438.832,352.566 438.963 C 352.633 439.030,352.905 438.808,353.172 438.470 C 353.438 438.131,353.776 437.854,353.923 437.854 C 354.069 437.854,354.189 437.715,354.189 437.546 C 354.189 437.234,355.010 436.414,355.337 436.399 C 355.655 436.385,356.600 435.494,356.600 435.209 C 356.600 435.057,356.709 434.999,356.841 435.081 C 356.974 435.163,357.083 435.058,357.083 434.847 C 357.083 434.636,357.272 434.396,357.505 434.314 C 358.132 434.091,358.777 433.479,358.632 433.244 C 358.562 433.130,358.690 433.109,358.918 433.196 C 359.209 433.308,359.277 433.267,359.147 433.057 C 359.029 432.866,359.138 432.713,359.447 432.632 C 359.713 432.562,359.985 432.298,360.052 432.045 C 360.118 431.792,360.351 431.585,360.570 431.585 C 360.789 431.585,360.902 431.477,360.820 431.344 C 360.738 431.212,360.780 431.103,360.914 431.103 C 361.047 431.103,361.449 430.832,361.807 430.500 C 362.165 430.169,362.550 429.898,362.663 429.898 C 362.777 429.898,362.869 429.735,362.869 429.536 C 362.869 429.337,363.000 429.201,363.160 429.234 C 363.319 429.268,363.457 429.186,363.465 429.054 C 363.490 428.635,363.858 428.197,364.073 428.329 C 364.186 428.399,364.513 428.128,364.798 427.728 C 365.084 427.327,365.417 427.060,365.540 427.136 C 365.662 427.212,365.763 427.111,365.763 426.912 C 365.763 426.713,365.888 426.473,366.041 426.378 C 366.230 426.262,366.254 426.315,366.115 426.545 C 365.942 426.833,365.972 426.834,366.316 426.555 C 366.539 426.374,366.662 426.130,366.590 426.012 C 366.517 425.895,366.619 425.799,366.817 425.799 C 367.015 425.799,367.407 425.475,367.688 425.080 C 367.970 424.684,368.330 424.386,368.488 424.417 C 368.647 424.447,368.749 424.337,368.716 424.171 C 368.683 424.005,368.787 423.897,368.946 423.930 C 369.106 423.963,369.242 423.828,369.248 423.629 C 369.254 423.430,369.367 423.265,369.500 423.263 C 369.948 423.256,370.352 422.874,370.190 422.610 C 370.093 422.454,370.140 422.418,370.306 422.521 C 370.459 422.615,370.585 422.571,370.585 422.423 C 370.585 422.275,370.693 422.221,370.826 422.303 C 370.958 422.385,371.067 422.276,371.067 422.061 C 371.067 421.847,371.163 421.731,371.281 421.803 C 371.398 421.876,371.554 421.709,371.626 421.432 C 371.699 421.155,371.874 421.000,372.015 421.087 C 372.160 421.176,372.272 421.063,372.272 420.830 C 372.272 420.601,372.344 420.485,372.431 420.573 C 372.649 420.791,373.264 420.250,373.099 419.985 C 373.025 419.864,366.898 419.771,359.087 419.771 L 345.206 419.771 344.212 420.662 C 343.666 421.151,343.138 421.755,343.040 422.003 C 342.942 422.251,342.752 422.387,342.618 422.304 C 342.484 422.221,342.371 422.296,342.367 422.469 C 342.363 422.643,341.868 423.083,341.268 423.448 C 340.667 423.812,340.239 424.211,340.315 424.335 C 340.391 424.459,340.327 424.638,340.172 424.734 C 339.979 424.854,339.954 424.802,340.093 424.570 C 340.267 424.282,340.237 424.281,339.890 424.562 C 339.665 424.744,339.482 425.017,339.482 425.168 C 339.482 425.319,339.237 425.550,338.939 425.681 C 338.641 425.812,338.431 426.016,338.473 426.134 C 338.515 426.252,338.217 426.509,337.810 426.706 C 337.403 426.903,337.071 427.167,337.071 427.293 C 337.071 427.578,336.351 428.318,336.338 428.046 C 336.332 427.937,336.166 428.146,335.968 428.511 C 335.770 428.876,335.518 429.174,335.408 429.174 C 335.061 429.174,333.462 430.549,333.622 430.709 C 333.707 430.793,333.588 430.862,333.359 430.862 C 333.130 430.862,333.010 430.970,333.092 431.103 C 333.174 431.236,333.124 431.344,332.982 431.344 C 332.644 431.344,331.062 432.971,331.234 433.142 C 331.305 433.214,331.189 433.273,330.976 433.273 C 330.511 433.273,329.002 434.658,328.784 435.285 C 328.699 435.530,328.413 435.787,328.148 435.856 C 327.884 435.925,327.667 436.138,327.667 436.329 C 327.667 436.521,327.579 436.623,327.471 436.556 C 327.267 436.429,325.980 437.430,325.903 437.775 C 325.879 437.885,325.778 437.948,325.678 437.914 C 325.579 437.881,325.497 438.004,325.497 438.186 C 325.497 438.369,325.314 438.667,325.089 438.849 C 324.742 439.131,324.712 439.130,324.885 438.842 C 325.024 438.612,325.000 438.558,324.811 438.675 C 324.658 438.770,324.533 439.010,324.533 439.209 C 324.533 439.408,324.439 439.512,324.324 439.441 C 324.075 439.287,323.273 440.113,323.447 440.345 C 323.514 440.434,323.503 440.459,323.423 440.401 C 323.343 440.343,323.004 440.587,322.670 440.944 C 322.335 441.300,322.209 441.374,322.389 441.109 C 322.713 440.632,322.710 440.632,322.178 441.086 C 321.882 441.339,321.640 441.685,321.640 441.856 C 321.640 442.026,321.558 442.216,321.459 442.277 C 321.359 442.339,321.307 437.409,321.343 431.321 C 321.395 422.503,321.346 420.252,321.102 420.249 C 320.891 420.247,320.909 420.173,321.157 420.012 C 321.394 419.859,317.592 419.777,310.187 419.775 L 298.855 419.771 298.918 450.074 M377.577 450.262 L 377.577 480.753 388.788 480.767 L 400.000 480.780 400.000 450.276 L 400.000 419.771 388.788 419.771 L 377.577 419.771 377.577 450.262 M146.228 441.350 C 146.228 453.153,146.257 457.945,146.293 452.001 C 146.329 446.057,146.329 436.400,146.293 430.542 C 146.257 424.684,146.228 429.548,146.228 441.350 M25.980 460.697 C 25.084 460.744,23.620 460.744,22.725 460.697 C 21.829 460.651,22.562 460.613,24.352 460.613 C 26.142 460.613,26.875 460.651,25.980 460.697 " stroke="none" fill="#045cd4" fill-rule="evenodd"></path><path id="path2" d="M41.230 418.532 C 41.230 418.646,41.501 418.688,41.832 418.624 C 42.164 418.561,42.435 418.468,42.435 418.417 C 42.435 418.366,42.164 418.324,41.832 418.324 C 41.501 418.324,41.230 418.418,41.230 418.532 M25.919 419.048 L 25.437 419.255 25.919 419.268 C 26.184 419.275,26.564 419.176,26.763 419.048 C 27.242 418.738,26.640 418.738,25.919 419.048 M83.605 419.710 C 86.688 419.749,91.733 419.749,94.816 419.710 C 97.899 419.672,95.377 419.641,89.210 419.641 C 83.044 419.641,80.521 419.672,83.605 419.710 M129.191 419.710 C 132.283 419.749,137.274 419.749,140.282 419.710 C 143.290 419.672,140.759 419.641,134.659 419.641 C 128.559 419.641,126.098 419.672,129.191 419.710 M230.336 419.710 C 233.495 419.749,238.594 419.749,241.668 419.710 C 244.742 419.672,242.158 419.641,235.925 419.641 C 229.693 419.641,227.177 419.672,230.336 419.710 M281.795 419.709 L 293.186 419.776 293.250 441.473 L 293.313 463.171 293.311 441.410 L 293.309 419.650 281.857 419.647 L 270.404 419.643 281.795 419.709 M145.871 441.215 C 145.871 453.010,145.952 462.710,146.052 462.772 C 146.151 462.833,146.233 453.183,146.233 441.327 C 146.233 429.471,146.151 419.771,146.052 419.771 C 145.952 419.771,145.871 429.421,145.871 441.215 M298.493 450.085 C 298.493 474.178,298.556 480.503,298.794 480.595 C 299.134 480.725,299.014 420.212,298.674 419.871 C 298.574 419.772,298.493 433.368,298.493 450.085 M123.547 426.884 C 123.546 429.138,123.582 430.093,123.627 429.005 C 123.672 427.918,123.672 426.073,123.628 424.906 C 123.583 423.740,123.547 424.629,123.547 426.884 M7.113 426.563 C 6.412 427.291,6.409 427.302,7.032 426.904 C 7.386 426.678,7.735 426.337,7.808 426.146 C 7.990 425.673,7.943 425.701,7.113 426.563 M335.365 428.845 C 334.827 429.430,334.821 429.459,335.294 429.214 C 335.577 429.067,335.872 428.781,335.950 428.578 C 336.147 428.064,336.037 428.114,335.365 428.845 M28.496 431.595 C 28.206 431.865,27.969 432.141,27.969 432.209 C 27.969 432.403,29.158 431.485,29.167 431.284 C 29.178 431.010,29.071 431.059,28.496 431.595 M3.397 432.573 C 2.987 433.940,3.236 434.032,3.695 432.683 C 3.901 432.079,3.985 431.585,3.881 431.585 C 3.778 431.585,3.560 432.030,3.397 432.573 M270.624 436.649 C 270.624 438.969,270.660 439.919,270.704 438.758 C 270.748 437.598,270.748 435.699,270.704 434.539 C 270.660 433.379,270.624 434.328,270.624 436.649 M43.400 432.997 C 43.400 433.108,43.617 433.395,43.882 433.635 C 44.147 433.875,44.364 433.970,44.364 433.846 C 44.364 433.723,44.147 433.436,43.882 433.208 C 43.617 432.981,43.400 432.886,43.400 432.997 M328.320 435.450 C 328.096 435.712,328.007 435.925,328.122 435.925 C 328.387 435.925,328.978 435.226,328.834 435.083 C 328.775 435.024,328.543 435.189,328.320 435.450 M156.841 436.101 C 171.849 436.268,183.669 436.270,183.567 436.106 C 183.506 436.007,176.165 435.950,167.255 435.981 C 158.345 436.012,153.659 436.066,156.841 436.101 M354.570 436.903 C 354.315 437.160,354.161 437.424,354.228 437.491 C 354.294 437.557,354.603 437.340,354.913 437.009 C 355.572 436.308,355.257 436.211,354.570 436.903 M351.917 439.332 C 351.662 439.580,351.567 439.783,351.706 439.783 C 351.985 439.783,352.628 439.099,352.476 438.964 C 352.424 438.918,352.172 439.084,351.917 439.332 M123.305 443.159 C 123.305 445.347,123.341 446.242,123.386 445.148 C 123.431 444.054,123.431 442.263,123.386 441.169 C 123.341 440.075,123.305 440.970,123.305 443.159 M212.371 440.205 C 211.435 441.294,211.534 441.528,212.499 440.506 C 212.874 440.108,213.080 439.783,212.957 439.783 C 212.834 439.783,212.570 439.973,212.371 440.205 M49.668 441.456 C 49.668 441.580,49.878 441.666,50.134 441.647 C 50.390 441.628,50.546 441.526,50.481 441.421 C 50.316 441.153,49.668 441.181,49.668 441.456 M209.895 442.455 C 209.503 442.831,209.240 443.196,209.310 443.266 C 209.381 443.337,209.748 443.071,210.127 442.676 C 211.018 441.746,210.827 441.563,209.895 442.455 M348.500 442.556 C 348.143 442.887,347.955 443.159,348.084 443.159 C 348.213 443.159,348.573 442.887,348.885 442.556 C 349.196 442.224,349.384 441.953,349.301 441.953 C 349.218 441.953,348.858 442.224,348.500 442.556 M3.624 443.807 C 3.620 443.965,3.727 444.163,3.862 444.246 C 3.996 444.329,4.049 444.491,3.978 444.605 C 3.908 444.719,3.962 444.882,4.099 444.967 C 4.236 445.051,4.285 445.222,4.209 445.345 C 4.133 445.469,4.185 445.570,4.326 445.570 C 4.651 445.570,4.658 445.163,4.336 444.964 C 4.201 444.881,4.144 444.728,4.208 444.624 C 4.272 444.520,4.169 444.229,3.978 443.978 C 3.788 443.726,3.629 443.649,3.624 443.807 M207.872 444.269 C 207.693 444.471,207.594 444.685,207.652 444.743 C 207.711 444.801,207.956 444.632,208.196 444.366 C 208.437 444.100,208.536 443.886,208.416 443.891 C 208.296 443.896,208.051 444.066,207.872 444.269 M346.211 444.555 C 345.540 445.339,345.349 445.746,345.838 445.348 C 346.224 445.035,346.833 444.123,346.656 444.123 C 346.615 444.123,346.414 444.318,346.211 444.555 M64.617 445.983 C 64.617 446.096,64.943 446.381,65.341 446.616 C 65.738 446.851,66.064 446.991,66.064 446.926 C 66.064 446.861,65.738 446.576,65.341 446.293 C 64.943 446.010,64.617 445.870,64.617 445.983 M341.652 449.973 C 341.983 450.301,342.292 450.537,342.339 450.497 C 342.501 450.357,342.103 449.910,341.578 449.644 C 341.094 449.398,341.101 449.427,341.652 449.973 M9.403 451.082 C 9.403 451.190,9.675 451.402,10.006 451.553 C 10.338 451.705,10.609 451.739,10.609 451.631 C 10.609 451.522,10.338 451.310,10.006 451.159 C 9.675 451.008,9.403 450.973,9.403 451.082 M344.063 452.013 C 344.063 452.316,344.752 452.917,344.914 452.755 C 344.978 452.691,344.812 452.442,344.546 452.201 C 344.280 451.961,344.063 451.876,344.063 452.013 M16.766 453.782 C 16.935 454.056,17.601 454.085,17.601 453.819 C 17.601 453.714,17.382 453.612,17.114 453.592 C 16.845 453.572,16.689 453.657,16.766 453.782 M32.068 456.420 C 32.266 456.548,32.646 456.647,32.911 456.640 L 33.394 456.627 32.911 456.420 C 32.191 456.110,31.588 456.110,32.068 456.420 M34.961 456.682 C 34.961 456.803,35.196 456.902,35.483 456.902 C 35.771 456.902,35.930 456.826,35.838 456.734 C 35.577 456.473,34.961 456.437,34.961 456.682 M247.675 457.143 C 247.675 457.607,247.725 457.797,247.785 457.565 C 247.846 457.333,247.846 456.953,247.785 456.721 C 247.725 456.489,247.675 456.679,247.675 457.143 M349.080 456.801 C 349.391 457.401,350.090 458.020,350.090 457.697 C 350.090 457.571,349.804 457.205,349.455 456.883 C 348.888 456.362,348.847 456.353,349.080 456.801 M100.301 457.490 C 100.301 457.830,100.410 458.107,100.542 458.107 C 100.675 458.107,100.784 457.897,100.784 457.639 C 100.784 457.382,100.675 457.104,100.542 457.022 C 100.406 456.938,100.301 457.140,100.301 457.490 M270.283 457.505 C 270.283 457.836,270.392 458.107,270.524 458.107 C 270.657 458.107,270.766 457.836,270.766 457.505 C 270.766 457.173,270.657 456.902,270.524 456.902 C 270.392 456.902,270.283 457.173,270.283 457.505 M192.760 458.047 L 192.336 458.710 192.973 458.126 C 193.662 457.494,193.725 457.384,193.397 457.384 C 193.280 457.384,192.993 457.682,192.760 458.047 M157.444 459.675 C 157.133 460.006,156.956 460.277,157.052 460.277 C 157.147 460.277,157.496 460.006,157.828 459.675 C 158.159 459.343,158.336 459.072,158.221 459.072 C 158.105 459.072,157.756 459.343,157.444 459.675 M321.318 459.232 C 321.061 459.489,321.133 461.439,321.405 461.608 C 321.565 461.707,321.637 461.285,321.609 460.416 C 321.585 459.677,321.546 459.072,321.522 459.072 C 321.498 459.072,321.406 459.144,321.318 459.232 M9.956 460.456 C 10.856 460.503,12.267 460.502,13.090 460.456 C 13.913 460.409,13.177 460.371,11.453 460.371 C 9.729 460.371,9.055 460.410,9.956 460.456 M16.215 460.456 C 17.110 460.502,18.574 460.502,19.470 460.456 C 20.365 460.410,19.632 460.372,17.842 460.372 C 16.052 460.372,15.319 460.410,16.215 460.456 M24.352 460.518 L 21.097 460.660 24.111 460.680 C 25.769 460.691,27.884 460.622,28.813 460.526 L 30.500 460.353 29.054 460.365 C 28.258 460.371,26.142 460.440,24.352 460.518 M188.824 461.387 C 188.645 461.590,188.546 461.803,188.605 461.862 C 188.663 461.920,188.908 461.750,189.149 461.484 C 189.390 461.218,189.488 461.005,189.368 461.010 C 189.248 461.015,189.004 461.185,188.824 461.387 M321.478 463.532 C 321.479 464.461,321.522 464.811,321.574 464.310 C 321.627 463.810,321.626 463.051,321.572 462.623 C 321.519 462.195,321.476 462.604,321.478 463.532 M355.832 463.078 C 356.259 463.702,357.565 464.813,357.565 464.552 C 357.565 464.511,357.059 463.993,356.441 463.402 C 355.521 462.521,355.411 462.462,355.832 463.078 M0.363 463.442 C 0.613 464.268,0.926 464.525,0.785 463.788 C 0.719 463.445,0.559 463.097,0.428 463.016 C 0.279 462.925,0.255 463.085,0.363 463.442 M186.776 463.472 C 186.838 463.571,194.504 463.628,203.812 463.598 C 213.120 463.568,218.620 463.514,216.034 463.478 C 204.048 463.313,186.675 463.309,186.776 463.472 M102.472 464.256 C 102.803 464.653,103.101 465.024,103.134 465.079 C 103.168 465.135,103.248 465.127,103.313 465.062 C 103.378 464.997,103.080 464.626,102.651 464.238 L 101.870 463.532 102.472 464.256 M359.011 466.019 C 359.011 466.126,359.364 466.468,359.795 466.778 L 360.579 467.342 359.871 466.583 C 359.120 465.777,359.011 465.706,359.011 466.019 M34.494 466.686 C 34.651 466.874,34.935 467.028,35.125 467.028 C 35.610 467.028,35.313 466.631,34.710 466.474 C 34.299 466.366,34.261 466.404,34.494 466.686 M262.809 467.030 C 262.532 467.210,262.603 467.253,263.110 467.214 C 263.475 467.187,263.773 467.079,263.773 466.976 C 263.773 466.716,263.246 466.746,262.809 467.030 M113.080 467.252 C 113.080 467.358,113.361 467.413,113.704 467.376 C 114.599 467.277,114.659 467.105,113.807 467.081 C 113.407 467.070,113.080 467.147,113.080 467.252 M257.174 467.321 C 257.344 467.595,258.228 467.555,258.228 467.272 C 258.228 467.141,257.964 467.056,257.642 467.082 C 257.320 467.109,257.110 467.216,257.174 467.321 M331.284 468.536 C 331.284 468.570,331.609 468.904,332.007 469.280 C 332.867 470.092,332.970 469.964,332.160 469.090 C 331.673 468.564,331.284 468.318,331.284 468.536 M3.480 469.655 C 3.570 469.800,3.868 470.039,4.141 470.186 C 4.498 470.376,4.593 470.377,4.476 470.188 C 4.386 470.043,4.089 469.804,3.815 469.658 C 3.458 469.467,3.364 469.466,3.480 469.655 M227.490 470.713 C 227.723 471.082,227.974 471.323,228.048 471.249 C 228.122 471.174,227.932 470.873,227.625 470.578 L 227.067 470.042 227.490 470.713 M229.300 472.901 C 229.894 473.479,230.431 473.908,230.493 473.854 C 230.643 473.722,228.757 471.877,228.456 471.862 C 228.326 471.856,228.706 472.323,229.300 472.901 M321.476 473.297 C 321.476 474.159,321.519 474.512,321.573 474.081 C 321.626 473.650,321.626 472.945,321.573 472.514 C 321.519 472.083,321.476 472.435,321.476 473.297 M337.312 474.332 C 337.511 474.504,337.822 474.803,338.004 474.996 C 338.287 475.296,338.297 475.272,338.071 474.832 C 337.926 474.550,337.614 474.251,337.379 474.169 C 337.005 474.039,336.997 474.060,337.312 474.332 M62.387 476.098 C 61.757 476.419,61.242 476.733,61.242 476.795 C 61.242 476.885,63.226 476.037,63.633 475.773 C 64.201 475.405,63.269 475.648,62.387 476.098 M340.544 477.361 C 341.054 477.936,341.169 477.988,341.169 477.646 C 341.169 477.518,340.925 477.285,340.627 477.128 C 340.087 476.845,340.087 476.846,340.544 477.361 M136.106 477.653 C 135.295 478.173,135.406 478.263,136.336 477.840 C 136.674 477.686,136.950 477.469,136.950 477.357 C 136.950 477.105,136.976 477.096,136.106 477.653 M371.308 477.562 C 371.308 477.695,371.525 478.000,371.790 478.240 C 372.055 478.480,372.272 478.568,372.272 478.435 C 372.272 478.303,372.055 477.998,371.790 477.758 C 371.525 477.518,371.308 477.430,371.308 477.562 M341.776 478.428 C 342.009 478.797,342.260 479.038,342.334 478.964 C 342.408 478.890,342.218 478.588,341.911 478.293 L 341.352 477.758 341.776 478.428 M321.398 479.311 C 321.398 479.833,321.507 480.328,321.640 480.410 C 321.787 480.501,321.881 480.131,321.881 479.460 C 321.881 478.855,321.772 478.360,321.640 478.360 C 321.507 478.360,321.398 478.788,321.398 479.311 M21.579 479.325 C 21.661 479.458,21.966 479.558,22.257 479.549 C 22.766 479.533,22.768 479.525,22.303 479.325 C 21.639 479.040,21.403 479.040,21.579 479.325 M48.788 479.866 C 48.719 479.979,48.939 480.033,49.277 479.988 C 50.113 479.876,50.276 479.662,49.524 479.662 C 49.189 479.662,48.857 479.754,48.788 479.866 M26.522 479.900 C 26.522 480.114,27.497 480.225,27.621 480.026 C 27.695 479.905,27.478 479.807,27.139 479.807 C 26.800 479.807,26.522 479.849,26.522 479.900 M30.621 480.253 C 30.621 480.365,30.973 480.463,31.404 480.469 C 32.040 480.479,32.097 480.444,31.706 480.282 C 31.061 480.015,30.621 480.003,30.621 480.253 M37.613 480.530 C 37.613 480.663,37.830 480.772,38.095 480.772 C 38.360 480.772,38.577 480.663,38.577 480.530 C 38.577 480.398,38.360 480.289,38.095 480.289 C 37.830 480.289,37.613 480.398,37.613 480.530 M129.100 480.664 C 128.645 481.029,128.646 481.032,129.142 480.793 C 129.423 480.658,129.722 480.616,129.806 480.700 C 129.889 480.783,129.958 480.725,129.958 480.571 C 129.958 480.185,129.657 480.218,129.100 480.664 M150.658 480.833 C 150.758 480.933,166.566 480.987,185.787 480.953 L 220.735 480.892 185.606 480.772 C 166.284 480.705,150.558 480.733,150.658 480.833 " stroke="none" fill="#045ccc" fill-rule="evenodd"></path><path id="path3" d="" stroke="none" fill="#bc3078" fill-rule="evenodd"></path><path id="path4" d="" stroke="none" fill="#1003014" fill-rule="evenodd"></path></g></svg>