<svg id="svg" version="1.1" xmlns="http://www.w3.org/2000/svg" xmlns:xlink="http://www.w3.org/1999/xlink" width="400" height="327.8" viewBox="0, 0, 400,327.8"><g id="svgg"><path id="path0" d="M13.846 113.200 C 13.846 113.585,13.888 113.743,13.938 113.550 C 13.988 113.358,13.988 113.043,13.938 112.850 C 13.888 112.658,13.846 112.815,13.846 113.200 M92.600 256.533 C 76.797 258.095,62.886 270.393,60.510 284.900 C 57.193 305.160,68.510 322.445,88.162 327.137 C 91.130 327.845,97.976 328.034,100.958 327.490 C 102.026 327.295,103.035 327.117,103.200 327.095 C 103.365 327.073,103.635 327.006,103.800 326.944 C 103.965 326.883,104.747 326.645,105.539 326.414 C 118.522 322.633,128.805 310.859,130.877 297.400 C 134.313 275.082,114.877 254.331,92.600 256.533 M231.400 256.621 C 204.721 259.620,190.393 289.820,205.233 311.775 C 205.930 312.806,206.590 313.796,206.700 313.975 C 206.810 314.154,208.160 315.562,209.700 317.104 C 215.221 322.633,220.703 325.599,228.600 327.328 C 231.051 327.864,239.176 327.870,241.450 327.336 C 242.303 327.136,243.203 326.946,243.450 326.913 C 243.698 326.880,244.035 326.799,244.200 326.734 C 244.365 326.668,245.220 326.376,246.100 326.085 C 263.103 320.451,273.774 302.271,270.087 285.219 C 266.170 267.104,249.270 254.611,231.400 256.621 M0.000 265.500 L 0.000 271.800 10.199 271.800 L 20.399 271.800 20.449 298.950 L 20.500 326.100 28.100 326.100 L 35.700 326.100 35.751 298.950 L 35.801 271.800 46.101 271.800 L 56.400 271.800 56.400 265.500 L 56.400 259.200 28.200 259.200 L 0.000 259.200 0.000 265.500 M131.000 259.401 C 131.000 259.512,131.743 260.756,132.650 262.166 C 133.558 263.577,134.390 264.877,134.500 265.057 C 134.610 265.236,136.567 268.309,138.850 271.886 C 141.133 275.463,143.000 278.474,143.000 278.578 C 143.000 278.682,143.076 278.797,143.168 278.833 C 143.383 278.919,145.800 282.723,145.800 282.976 C 145.800 283.081,145.875 283.197,145.966 283.233 C 146.178 283.319,153.200 294.332,153.200 294.580 C 153.200 294.683,153.271 294.797,153.357 294.833 C 153.443 294.870,154.321 296.160,155.307 297.700 L 157.100 300.500 157.200 313.300 L 157.300 326.100 164.900 326.100 L 172.500 326.100 172.551 313.350 L 172.603 300.599 173.534 299.150 C 178.250 291.810,198.658 259.681,198.739 259.472 C 198.825 259.245,197.406 259.200,190.252 259.200 L 181.661 259.200 173.306 273.115 C 168.710 280.769,164.880 286.956,164.794 286.865 C 164.708 286.774,161.197 280.625,156.993 273.200 C 152.788 265.775,149.258 259.588,149.149 259.450 C 148.895 259.129,131.000 259.081,131.000 259.401 M274.400 265.500 L 274.400 271.800 285.100 271.800 L 295.800 271.800 295.800 298.896 L 295.800 325.992 296.250 326.102 C 296.498 326.162,299.940 326.186,303.900 326.156 L 311.100 326.100 311.151 298.950 L 311.201 271.800 321.501 271.800 L 331.800 271.800 331.800 265.500 L 331.800 259.200 303.100 259.200 L 274.400 259.200 274.400 265.500 M353.931 259.350 C 353.880 259.433,352.984 261.525,351.940 264.000 C 350.895 266.475,348.896 271.200,347.496 274.500 C 346.096 277.800,344.734 281.024,344.468 281.664 C 344.203 282.304,342.628 286.039,340.970 289.964 C 339.311 293.889,336.616 300.269,334.980 304.142 C 333.345 308.015,330.607 314.487,328.896 318.525 C 327.185 322.562,325.862 325.942,325.955 326.035 C 326.048 326.128,330.119 326.181,335.001 326.152 L 343.877 326.100 344.508 324.500 C 344.854 323.620,346.117 320.267,347.313 317.049 L 349.488 311.197 362.990 311.249 L 376.492 311.300 378.570 316.900 C 379.713 319.980,380.761 322.770,380.898 323.100 C 381.036 323.430,381.311 324.150,381.509 324.700 C 381.707 325.250,381.954 325.813,382.059 325.950 C 382.417 326.422,400.000 326.301,400.000 325.827 C 400.000 325.622,398.475 321.730,396.611 317.177 C 394.747 312.625,390.152 301.385,386.401 292.200 C 382.650 283.015,378.080 271.832,376.246 267.350 L 372.912 259.200 363.468 259.200 C 358.274 259.200,353.982 259.268,353.931 259.350 M100.500 270.596 C 105.796 272.298,109.993 276.076,112.619 281.506 C 113.153 282.610,113.623 283.690,113.665 283.906 C 113.706 284.123,113.792 284.435,113.855 284.600 C 117.274 293.531,113.316 306.037,105.407 311.295 C 90.868 320.961,73.369 306.807,76.395 287.832 C 77.731 279.455,83.745 272.284,90.913 270.518 C 91.566 270.357,92.280 270.180,92.500 270.125 C 93.656 269.832,99.126 270.154,100.500 270.596 M238.800 270.310 C 246.329 272.070,253.018 279.540,254.087 287.379 C 254.141 287.776,254.277 288.685,254.389 289.400 C 255.451 296.189,252.429 304.656,247.251 309.401 C 232.557 322.865,211.831 307.573,216.181 286.478 C 218.470 275.383,228.829 267.978,238.800 270.310 M365.755 281.900 C 366.856 284.760,368.315 288.585,368.997 290.400 C 369.678 292.215,370.355 293.970,370.500 294.300 C 370.645 294.630,371.169 295.957,371.663 297.250 L 372.562 299.600 363.481 299.600 C 358.486 299.600,354.400 299.556,354.400 299.503 C 354.400 299.449,355.899 295.512,357.730 290.753 C 359.562 285.994,361.544 280.840,362.134 279.300 C 362.724 277.760,363.260 276.365,363.324 276.200 C 363.417 275.959,363.471 275.979,363.597 276.300 C 363.683 276.520,364.655 279.040,365.755 281.900 " stroke="none" fill="#ec1c3c" fill-rule="evenodd"></path><path id="path1" d="M180.600 0.205 C 79.952 5.982,6.470 60.082,14.492 122.500 C 14.662 123.820,14.853 125.125,14.917 125.400 C 14.981 125.675,15.076 126.255,15.129 126.689 C 15.182 127.123,15.261 127.536,15.305 127.608 C 15.349 127.679,15.572 128.584,15.800 129.619 C 16.282 131.805,17.115 134.629,18.155 137.600 C 18.559 138.755,18.899 139.745,18.909 139.800 C 18.919 139.855,19.169 140.429,19.464 141.075 C 19.759 141.721,20.000 142.281,20.000 142.319 C 20.000 142.357,20.218 142.865,20.484 143.447 C 20.751 144.029,20.998 144.639,21.034 144.803 C 21.070 144.966,21.154 145.145,21.220 145.200 C 21.286 145.255,21.866 146.335,22.508 147.600 C 24.583 151.683,27.852 156.890,30.748 160.724 C 31.382 161.562,32.080 162.492,32.300 162.790 C 32.724 163.366,34.150 165.098,35.024 166.099 C 35.312 166.430,35.972 167.195,36.491 167.800 C 46.316 179.259,63.831 192.303,80.800 200.798 C 81.735 201.266,82.530 201.728,82.567 201.824 C 82.603 201.921,82.750 202.000,82.892 202.000 C 83.034 202.000,84.399 202.592,85.925 203.316 C 98.566 209.312,112.345 214.224,127.100 217.995 C 128.860 218.445,130.435 218.870,130.600 218.941 C 130.765 219.011,131.080 219.085,131.300 219.104 C 131.520 219.124,133.590 219.551,135.900 220.054 C 144.003 221.818,156.603 223.977,160.600 224.286 C 161.581 224.362,163.382 224.574,164.244 224.715 C 165.346 224.895,172.777 225.516,177.200 225.797 C 179.015 225.913,180.995 226.058,181.600 226.120 C 182.205 226.181,188.145 226.260,194.800 226.294 C 308.294 226.875,394.813 163.376,375.506 93.667 C 374.663 90.624,372.952 85.868,371.734 83.185 C 371.463 82.588,370.976 81.515,370.652 80.800 C 353.292 42.541,298.663 10.918,235.400 2.509 C 233.255 2.224,231.185 1.948,230.800 1.896 C 227.093 1.394,217.168 0.538,211.200 0.206 C 207.114 -0.021,184.553 -0.022,180.600 0.205 M210.200 1.206 C 319.497 6.717,395.652 69.876,373.228 136.411 C 357.855 182.023,296.867 217.431,222.200 224.093 C 112.726 233.861,14.886 181.412,14.963 113.000 C 15.036 47.653,105.382 -4.080,210.200 1.206 M172.900 22.116 C 132.010 25.792,104.345 36.783,101.278 50.572 C 98.632 62.463,117.388 74.133,148.408 79.896 C 151.946 80.553,151.729 80.581,151.891 79.450 C 155.212 56.342,165.384 33.740,177.279 23.040 L 178.658 21.800 177.279 21.823 C 176.521 21.836,174.550 21.968,172.900 22.116 M215.347 23.519 C 226.487 33.839,235.118 52.609,239.597 76.257 C 240.009 78.433,240.400 80.267,240.465 80.332 C 240.788 80.655,251.592 78.346,257.500 76.691 C 306.610 62.934,300.814 37.165,246.081 25.921 C 236.786 24.011,219.582 21.780,214.338 21.804 L 213.500 21.808 215.347 23.519 M173.801 25.180 C 164.881 34.754,158.083 48.653,153.513 66.659 C 152.558 70.425,151.000 77.896,151.000 78.714 C 151.000 79.345,150.973 79.343,146.775 78.511 C 115.822 72.372,98.402 60.748,102.790 49.159 C 107.093 37.793,132.153 27.764,165.400 24.100 C 167.875 23.827,170.305 23.559,170.800 23.503 C 171.295 23.448,172.555 23.345,173.600 23.275 C 174.645 23.205,175.538 23.114,175.583 23.073 C 176.175 22.552,175.441 23.419,173.801 25.180 M223.000 23.706 C 227.200 24.074,236.704 25.332,238.990 25.822 C 239.491 25.930,240.035 26.025,240.200 26.035 C 243.135 26.201,256.842 29.567,263.300 31.706 C 268.029 33.273,276.093 36.707,276.600 37.369 C 276.655 37.441,276.835 37.529,277.000 37.564 C 277.424 37.654,279.994 39.252,282.000 40.673 C 283.940 42.046,287.542 45.601,287.723 46.320 C 287.789 46.584,287.918 46.800,288.009 46.800 C 288.771 46.800,290.097 51.552,289.897 53.565 C 289.734 55.214,288.915 57.800,288.556 57.800 C 288.470 57.800,288.400 57.895,288.400 58.011 C 288.400 58.127,288.047 58.735,287.615 59.361 C 282.241 67.158,266.859 74.167,245.853 78.389 C 241.133 79.338,241.233 79.330,241.119 78.750 C 241.070 78.502,240.657 76.410,240.200 74.100 C 236.043 53.072,228.113 35.421,218.197 25.126 L 216.235 23.089 219.068 23.349 C 220.625 23.493,222.395 23.653,223.000 23.706 M194.050 47.622 C 186.471 48.885,179.379 59.204,175.435 74.707 C 174.554 78.173,173.516 82.988,173.629 83.088 C 173.964 83.383,189.049 83.995,196.000 83.995 C 202.881 83.995,218.058 83.385,218.366 83.096 C 218.664 82.817,216.083 72.459,214.753 68.600 C 209.657 53.808,202.209 46.262,194.050 47.622 M71.900 49.460 C 67.598 52.723,66.257 53.955,65.316 55.506 C 61.195 62.293,58.183 70.263,56.899 77.774 C 56.618 79.422,56.463 79.821,55.618 81.074 C 47.179 93.590,43.569 108.872,45.699 123.063 C 51.655 162.739,99.592 195.570,164.000 204.084 C 167.684 204.571,175.732 205.400,176.784 205.400 C 177.191 205.400,176.871 204.994,174.774 202.850 C 158.375 186.082,148.485 151.075,149.031 111.730 L 149.100 106.760 144.400 105.808 C 107.826 98.402,81.920 83.428,74.905 65.640 C 73.140 61.163,72.415 54.155,73.267 49.800 C 73.428 48.975,73.547 48.288,73.530 48.273 C 73.514 48.258,72.780 48.792,71.900 49.460 M318.721 49.444 C 323.604 71.830,299.481 93.031,257.000 103.688 C 252.140 104.907,244.256 106.600,243.437 106.600 C 243.065 106.600,243.049 106.895,242.943 115.950 C 242.483 155.416,233.006 187.275,216.976 203.250 C 214.422 205.795,213.955 205.607,221.051 204.889 C 315.935 195.293,371.646 135.126,336.147 80.589 C 335.638 79.807,335.374 79.105,335.209 78.100 C 334.005 70.740,331.127 62.933,327.088 56.072 C 325.825 53.925,324.513 52.708,319.174 48.730 L 318.447 48.189 318.721 49.444 M197.634 48.681 C 200.314 49.194,203.049 50.783,205.018 52.970 C 206.823 54.975,207.081 55.307,208.295 57.183 C 210.408 60.448,212.142 64.213,213.967 69.500 C 215.104 72.793,217.171 81.096,216.917 81.350 C 216.854 81.412,216.906 81.586,217.030 81.736 C 217.364 82.139,217.361 82.140,214.000 82.383 C 203.501 83.143,185.401 83.104,176.900 82.304 C 176.350 82.252,175.661 82.208,175.369 82.205 C 174.969 82.201,174.856 82.113,174.912 81.850 C 179.509 60.222,186.320 49.390,195.932 48.423 C 196.060 48.411,196.826 48.526,197.634 48.681 M323.660 67.600 C 328.357 72.193,335.200 80.355,335.200 81.364 C 335.200 81.476,335.278 81.597,335.373 81.633 C 335.705 81.762,338.451 86.528,339.906 89.501 C 346.077 102.116,347.542 115.778,344.121 128.801 C 343.458 131.326,342.642 133.793,341.809 135.800 C 341.466 136.625,341.076 137.569,340.943 137.898 C 329.917 165.087,292.524 189.841,247.900 199.491 C 246.580 199.777,245.140 200.093,244.700 200.194 C 240.057 201.258,228.897 202.982,222.153 203.678 L 217.805 204.126 218.153 203.715 C 218.344 203.489,218.922 202.853,219.437 202.302 C 234.515 186.188,243.988 152.441,243.998 114.800 L 244.000 107.699 247.850 106.917 C 285.722 99.225,312.648 83.110,318.610 64.568 L 319.058 63.174 319.979 64.037 C 320.485 64.512,322.142 66.115,323.660 67.600 M73.693 65.145 C 75.185 69.373,77.968 73.818,81.639 77.836 C 82.310 78.572,82.914 79.247,82.980 79.336 C 83.046 79.426,83.865 80.175,84.800 81.000 C 85.735 81.825,86.545 82.551,86.600 82.614 C 87.481 83.615,94.230 88.317,97.700 90.346 C 110.481 97.819,129.272 104.356,146.762 107.413 L 148.225 107.668 148.095 109.384 C 147.630 115.543,148.272 129.568,149.496 139.971 C 149.655 141.330,149.774 142.500,149.759 142.571 C 149.745 142.642,149.791 143.015,149.863 143.400 C 149.934 143.785,150.042 144.460,150.102 144.900 C 150.162 145.340,150.305 146.285,150.419 147.000 C 150.534 147.715,150.662 148.525,150.703 148.800 C 152.472 160.472,156.853 175.392,161.163 184.421 C 161.609 185.356,162.002 186.249,162.037 186.406 C 162.072 186.562,162.213 186.812,162.352 186.961 C 162.490 187.110,162.557 187.307,162.501 187.399 C 162.444 187.491,162.471 187.596,162.560 187.633 C 162.650 187.670,163.160 188.510,163.693 189.500 C 164.226 190.490,165.279 192.275,166.031 193.467 C 166.784 194.659,167.400 195.677,167.400 195.731 C 167.400 195.785,167.538 195.967,167.707 196.136 C 167.978 196.407,169.358 198.313,169.900 199.166 C 170.010 199.339,170.244 199.620,170.419 199.790 C 170.595 199.961,171.315 200.769,172.019 201.587 C 172.724 202.405,173.559 203.310,173.876 203.599 L 174.452 204.124 172.676 203.962 C 170.730 203.785,165.654 203.230,164.700 203.090 C 164.370 203.042,162.795 202.820,161.200 202.598 C 139.051 199.509,116.557 192.631,99.100 183.608 C 41.415 153.795,29.269 104.182,70.252 65.771 C 73.156 63.050,72.966 63.084,73.693 65.145 M171.264 109.922 C 170.933 110.784,171.785 125.027,172.506 130.700 C 179.336 184.393,208.720 189.465,218.273 138.600 C 219.804 130.452,221.463 110.498,220.667 109.810 C 220.575 109.730,219.105 109.777,217.400 109.914 C 204.903 110.915,188.856 110.946,175.500 109.994 C 173.960 109.884,172.403 109.756,172.040 109.708 C 171.577 109.648,171.345 109.712,171.264 109.922 M175.200 111.086 C 175.915 111.142,177.535 111.245,178.800 111.315 C 180.065 111.384,182.000 111.514,183.100 111.602 C 185.242 111.774,209.231 111.710,210.400 111.529 C 210.785 111.469,212.000 111.377,213.100 111.323 C 215.694 111.198,218.348 111.005,219.077 110.890 L 219.655 110.799 219.531 116.350 C 219.463 119.402,219.306 122.755,219.182 123.800 C 219.058 124.845,218.954 125.925,218.950 126.200 C 218.945 126.640,218.569 130.034,218.308 132.000 C 218.257 132.385,218.123 133.398,218.010 134.251 C 215.754 151.246,209.227 166.258,201.947 171.192 C 187.355 181.082,172.418 151.737,172.401 113.148 L 172.400 110.795 173.150 110.890 C 173.563 110.942,174.485 111.030,175.200 111.086 M358.964 299.550 C 361.529 299.582,365.669 299.581,368.164 299.550 C 370.659 299.518,368.560 299.492,363.500 299.492 C 358.440 299.492,356.399 299.518,358.964 299.550 " stroke="none" fill="#474749" fill-rule="evenodd"></path><path id="path2" d="M187.000 1.119 C 92.137 4.834,19.797 49.876,15.181 108.100 C 14.227 120.143,17.160 134.773,22.619 145.200 L 23.300 146.500 32.600 146.397 L 41.900 146.294 32.500 146.200 L 23.100 146.106 32.400 146.003 L 41.700 145.900 43.567 148.900 C 72.597 195.545,147.373 222.164,225.000 213.488 C 281.244 207.202,327.928 182.619,348.890 148.250 L 350.262 146.000 359.581 146.047 L 368.900 146.094 359.500 146.198 L 350.100 146.302 359.455 146.401 L 368.809 146.500 369.698 144.673 C 379.661 124.191,379.433 100.933,369.065 80.100 C 347.289 36.347,286.388 5.906,211.600 1.393 C 208.171 1.186,190.355 0.987,187.000 1.119 M192.276 15.504 C 177.875 18.140,165.477 32.833,157.597 56.600 C 155.634 62.523,152.474 75.038,153.448 73.037 C 153.662 72.597,153.761 72.577,155.437 72.637 C 156.480 72.674,157.241 72.618,157.299 72.500 C 157.352 72.390,157.356 72.480,157.306 72.700 C 157.116 73.546,156.387 78.045,155.919 81.268 C 155.650 83.121,155.388 84.678,155.338 84.729 C 155.287 84.779,154.459 83.873,153.498 82.715 C 152.004 80.914,151.645 80.591,151.025 80.485 C 127.406 76.452,109.757 68.829,103.271 59.859 L 102.643 58.990 97.671 58.945 L 92.700 58.900 91.957 57.400 C 82.840 39.008,116.401 21.273,169.700 16.316 C 178.985 15.453,195.875 14.845,192.276 15.504 M214.000 15.698 C 271.305 19.346,309.838 37.908,300.153 57.200 L 299.300 58.900 294.403 58.900 L 289.506 58.900 288.348 60.437 C 282.165 68.642,266.176 75.685,244.175 79.897 L 240.250 80.648 238.575 82.716 C 236.548 85.219,236.711 85.201,236.409 82.950 C 236.273 81.933,235.855 79.230,235.481 76.945 C 235.106 74.660,234.800 72.748,234.800 72.695 C 234.800 72.643,235.655 72.600,236.700 72.600 C 238.340 72.600,238.600 72.646,238.600 72.933 C 238.600 73.117,238.648 73.219,238.707 73.160 C 238.845 73.021,238.000 69.112,236.985 65.200 C 229.660 36.963,216.179 18.781,200.200 15.584 L 198.300 15.204 203.800 15.301 C 206.825 15.355,211.415 15.533,214.000 15.698 M198.558 39.318 C 201.521 39.929,204.409 41.611,207.020 44.248 C 208.887 46.134,208.897 46.159,208.133 47.034 C 207.785 47.432,206.930 48.442,206.232 49.279 C 205.535 50.116,204.873 50.800,204.762 50.800 C 204.650 50.800,205.228 51.512,206.046 52.382 C 211.163 57.820,215.352 67.594,217.974 80.207 C 218.304 81.794,218.540 83.127,218.499 83.168 C 217.783 83.884,186.399 84.181,177.828 83.553 L 173.356 83.226 171.156 84.832 L 168.957 86.438 169.099 85.369 C 173.062 55.504,185.181 36.560,198.558 39.318 M73.451 49.400 C 72.228 54.597,73.487 63.002,76.283 68.300 C 77.957 71.472,77.992 71.510,79.179 71.430 C 80.106 71.368,80.189 71.325,79.966 71.030 C 79.829 70.849,80.613 71.558,81.708 72.608 C 95.714 86.022,118.975 95.556,149.974 100.586 C 151.995 100.914,153.686 101.219,153.730 101.264 C 153.775 101.309,152.779 102.586,151.516 104.102 L 149.220 106.859 149.210 113.680 C 149.205 117.431,149.271 120.391,149.357 120.258 C 149.456 120.105,150.213 119.992,151.407 119.950 L 153.300 119.883 151.350 119.842 C 150.126 119.815,149.400 119.720,149.400 119.586 C 149.400 119.445,150.046 119.394,151.300 119.436 C 152.445 119.475,153.230 119.420,153.274 119.300 C 153.398 118.958,153.578 121.162,153.693 124.428 C 153.879 129.718,154.757 138.685,155.605 143.954 C 155.822 145.304,156.000 146.429,156.000 146.454 C 156.000 146.479,159.307 146.456,163.350 146.401 L 170.700 146.303 163.400 146.198 L 156.100 146.092 163.338 146.046 C 171.208 145.996,170.903 146.051,170.608 144.734 C 168.590 135.732,167.317 121.414,167.439 109.100 L 167.500 102.900 168.200 102.949 C 168.585 102.976,170.655 103.130,172.800 103.292 C 187.319 104.389,204.250 104.391,219.200 103.296 C 221.455 103.131,223.548 102.954,223.850 102.903 C 224.642 102.769,224.595 102.906,222.600 106.500 L 220.800 109.743 220.800 112.849 C 220.800 122.377,219.492 134.231,217.473 143.000 C 208.059 183.892,185.119 184.822,174.901 144.726 C 174.421 142.842,174.021 141.470,174.014 141.678 C 174.006 141.886,173.730 142.495,173.400 143.031 C 173.070 143.567,172.800 144.048,172.800 144.099 C 172.800 144.151,172.463 144.757,172.050 145.446 C 171.638 146.136,171.306 146.835,171.314 147.000 C 171.350 147.782,171.726 149.380,172.610 152.500 C 184.393 194.107,209.361 192.256,220.504 148.950 L 221.263 146.000 228.582 146.046 L 235.900 146.092 228.600 146.198 L 221.300 146.303 228.646 146.401 L 235.993 146.500 236.195 145.500 C 236.479 144.099,237.142 139.303,237.397 136.800 C 237.515 135.645,237.649 134.430,237.696 134.100 C 237.742 133.770,237.875 132.105,237.992 130.400 C 238.108 128.695,238.243 126.895,238.291 126.400 C 238.340 125.905,238.441 124.105,238.516 122.400 L 238.652 119.300 240.626 119.363 C 243.172 119.445,243.189 119.787,240.650 119.842 L 238.700 119.884 240.637 119.949 C 242.453 120.010,242.579 120.042,242.660 120.457 C 242.707 120.701,242.758 117.725,242.773 113.843 L 242.800 106.787 240.503 104.043 C 237.817 100.835,237.547 101.292,242.600 100.492 C 272.358 95.783,296.635 85.806,310.187 72.716 C 311.336 71.607,312.157 70.858,312.013 71.050 C 311.773 71.371,311.829 71.400,312.676 71.400 C 313.276 71.400,313.600 71.487,313.600 71.647 C 313.600 72.629,316.702 66.740,317.576 64.100 C 318.929 60.010,319.396 54.304,318.712 50.216 C 318.524 49.087,318.399 48.136,318.435 48.101 C 318.559 47.982,323.874 52.197,326.681 54.642 C 343.994 69.720,353.854 86.824,356.231 105.900 C 356.504 108.095,356.527 116.917,356.262 117.900 L 356.100 118.500 351.600 118.394 L 347.100 118.288 351.550 118.244 C 354.354 118.216,356.000 118.126,356.000 118.000 C 356.000 117.873,354.406 117.800,351.617 117.800 C 348.288 117.800,347.213 117.740,347.150 117.550 C 347.104 117.413,347.010 118.200,346.941 119.300 C 344.258 162.093,289.283 198.819,218.222 205.293 L 214.745 205.609 213.522 206.579 C 202.626 215.222,189.491 215.185,178.397 206.480 L 177.293 205.614 174.897 205.397 C 102.569 198.845,48.465 162.876,45.076 119.093 C 44.991 117.997,44.888 117.258,44.846 117.450 C 44.777 117.770,44.400 117.800,40.385 117.800 C 37.595 117.800,36.000 117.873,36.000 118.000 C 36.000 118.126,37.647 118.217,40.450 118.246 L 44.900 118.292 40.509 118.350 C 37.703 118.387,36.072 118.484,35.988 118.619 C 35.778 118.960,35.589 115.781,35.589 111.892 C 35.589 89.567,48.435 67.254,71.378 49.728 C 72.630 48.771,73.678 48.014,73.706 48.044 C 73.735 48.075,73.620 48.685,73.451 49.400 " stroke="none" fill="#eaeaeb" fill-rule="evenodd"></path><path id="path3" d="M186.056 1.147 C 186.582 1.189,187.392 1.188,187.856 1.146 C 188.320 1.104,187.890 1.070,186.900 1.071 C 185.910 1.072,185.530 1.106,186.056 1.147 M204.350 1.146 C 204.818 1.189,205.582 1.189,206.050 1.146 C 206.518 1.104,206.135 1.070,205.200 1.070 C 204.265 1.070,203.883 1.104,204.350 1.146 M181.253 1.344 C 181.557 1.389,182.007 1.388,182.253 1.341 C 182.499 1.293,182.250 1.256,181.700 1.257 C 181.150 1.259,180.949 1.298,181.253 1.344 M209.853 1.344 C 210.157 1.389,210.607 1.388,210.853 1.341 C 211.099 1.293,210.850 1.256,210.300 1.257 C 209.750 1.259,209.549 1.298,209.853 1.344 M177.550 1.541 C 177.798 1.589,178.203 1.589,178.450 1.541 C 178.697 1.493,178.495 1.454,178.000 1.454 C 177.505 1.454,177.303 1.493,177.550 1.541 M213.550 1.541 C 213.798 1.589,214.203 1.589,214.450 1.541 C 214.697 1.493,214.495 1.454,214.000 1.454 C 213.505 1.454,213.303 1.493,213.550 1.541 M174.650 1.738 C 174.843 1.788,175.158 1.788,175.350 1.738 C 175.543 1.688,175.385 1.646,175.000 1.646 C 174.615 1.646,174.458 1.688,174.650 1.738 M216.752 1.741 C 217.001 1.789,217.361 1.787,217.552 1.737 C 217.744 1.687,217.540 1.648,217.100 1.650 C 216.660 1.653,216.504 1.694,216.752 1.741 M172.050 1.938 C 172.243 1.988,172.558 1.988,172.750 1.938 C 172.942 1.888,172.785 1.846,172.400 1.846 C 172.015 1.846,171.858 1.888,172.050 1.938 M219.352 1.941 C 219.601 1.989,219.961 1.987,220.152 1.937 C 220.344 1.887,220.140 1.848,219.700 1.850 C 219.260 1.853,219.104 1.894,219.352 1.941 M221.650 2.138 C 221.843 2.188,222.157 2.188,222.350 2.138 C 222.543 2.088,222.385 2.046,222.000 2.046 C 221.615 2.046,221.457 2.088,221.650 2.138 M186.500 15.318 C 187.364 15.457,192.398 15.503,192.060 15.370 C 191.862 15.292,190.440 15.234,188.900 15.241 C 187.360 15.249,186.280 15.283,186.500 15.318 M199.000 15.393 C 199.385 15.456,201.095 15.452,202.800 15.385 L 205.900 15.264 202.100 15.271 C 200.010 15.275,198.615 15.330,199.000 15.393 M182.250 15.546 C 182.663 15.589,183.338 15.589,183.750 15.546 C 184.163 15.503,183.825 15.467,183.000 15.467 C 182.175 15.467,181.838 15.503,182.250 15.546 M208.355 15.547 C 208.826 15.589,209.546 15.588,209.955 15.545 C 210.365 15.502,209.980 15.468,209.100 15.469 C 208.220 15.469,207.885 15.504,208.355 15.547 M178.450 15.743 C 178.753 15.789,179.248 15.789,179.550 15.743 C 179.853 15.697,179.605 15.660,179.000 15.660 C 178.395 15.660,178.148 15.697,178.450 15.743 M212.450 15.743 C 212.753 15.789,213.248 15.789,213.550 15.743 C 213.853 15.697,213.605 15.660,213.000 15.660 C 212.395 15.660,212.148 15.697,212.450 15.743 M175.250 15.943 C 175.553 15.989,176.048 15.989,176.350 15.943 C 176.653 15.897,176.405 15.860,175.800 15.860 C 175.195 15.860,174.947 15.897,175.250 15.943 M215.650 15.943 C 215.953 15.989,216.447 15.989,216.750 15.943 C 217.053 15.897,216.805 15.860,216.200 15.860 C 215.595 15.860,215.347 15.897,215.650 15.943 M172.653 16.144 C 172.957 16.189,173.407 16.188,173.653 16.141 C 173.899 16.093,173.650 16.056,173.100 16.057 C 172.550 16.059,172.349 16.098,172.653 16.144 M218.453 16.144 C 218.757 16.189,219.207 16.188,219.453 16.141 C 219.699 16.093,219.450 16.056,218.900 16.057 C 218.350 16.059,218.149 16.098,218.453 16.144 M170.150 16.341 C 170.398 16.389,170.803 16.389,171.050 16.341 C 171.298 16.293,171.095 16.254,170.600 16.254 C 170.105 16.254,169.903 16.293,170.150 16.341 M220.950 16.341 C 221.197 16.389,221.603 16.389,221.850 16.341 C 222.097 16.293,221.895 16.254,221.400 16.254 C 220.905 16.254,220.703 16.293,220.950 16.341 M168.050 16.538 C 168.243 16.588,168.558 16.588,168.750 16.538 C 168.942 16.488,168.785 16.446,168.400 16.446 C 168.015 16.446,167.858 16.488,168.050 16.538 M223.352 16.541 C 223.601 16.589,223.961 16.587,224.152 16.537 C 224.344 16.487,224.140 16.448,223.700 16.450 C 223.260 16.453,223.104 16.494,223.352 16.541 M166.050 16.738 C 166.243 16.788,166.558 16.788,166.750 16.738 C 166.942 16.688,166.785 16.646,166.400 16.646 C 166.015 16.646,165.858 16.688,166.050 16.738 M225.250 16.738 C 225.443 16.788,225.757 16.788,225.950 16.738 C 226.143 16.688,225.985 16.646,225.600 16.646 C 225.215 16.646,225.058 16.688,225.250 16.738 M227.250 16.938 C 227.443 16.988,227.757 16.988,227.950 16.938 C 228.143 16.888,227.985 16.846,227.600 16.846 C 227.215 16.846,227.058 16.888,227.250 16.938 M230.650 17.338 C 230.843 17.388,231.157 17.388,231.350 17.338 C 231.543 17.288,231.385 17.246,231.000 17.246 C 230.615 17.246,230.457 17.288,230.650 17.338 M216.592 24.850 C 217.420 25.733,217.600 25.892,217.600 25.742 C 217.600 25.710,217.173 25.282,216.650 24.792 L 215.700 23.900 216.592 24.850 M282.200 30.700 C 282.475 30.857,282.790 30.986,282.900 30.986 C 283.010 30.986,282.875 30.857,282.600 30.700 C 282.325 30.543,282.010 30.414,281.900 30.414 C 281.790 30.414,281.925 30.543,282.200 30.700 M294.200 38.300 C 294.573 38.685,294.923 39.000,294.978 39.000 C 295.033 39.000,294.773 38.685,294.400 38.300 C 294.027 37.915,293.677 37.600,293.622 37.600 C 293.567 37.600,293.827 37.915,294.200 38.300 M95.974 39.950 C 90.388 45.726,89.050 51.536,91.957 57.400 L 92.700 58.900 97.674 58.945 C 102.173 58.985,102.674 59.024,102.919 59.345 C 103.068 59.540,102.832 58.980,102.394 58.100 C 99.780 52.841,100.797 48.016,105.600 42.903 C 106.425 42.024,106.929 41.439,106.720 41.603 C 106.409 41.845,105.229 41.918,100.284 42.000 C 93.285 42.116,93.788 42.427,96.487 39.650 C 97.369 38.743,98.039 38.000,97.976 38.000 C 97.912 38.000,97.012 38.877,95.974 39.950 M195.700 39.158 C 196.360 39.203,196.754 39.299,196.576 39.370 C 196.398 39.442,194.559 41.525,192.489 44.000 C 190.419 46.475,187.095 50.435,185.102 52.800 C 183.109 55.165,179.602 59.345,177.308 62.088 C 175.014 64.831,173.196 66.856,173.267 66.588 C 173.339 66.320,173.456 65.875,173.528 65.600 C 173.600 65.325,173.606 65.147,173.541 65.205 C 172.851 65.820,169.903 79.192,169.097 85.365 L 168.958 86.430 171.247 84.770 L 173.535 83.109 173.978 80.805 C 179.208 53.612,192.586 40.449,204.379 50.893 C 204.996 51.439,205.282 51.641,205.015 51.343 C 204.748 51.044,204.628 50.800,204.748 50.800 C 204.867 50.800,205.535 50.116,206.232 49.279 C 206.930 48.442,207.785 47.432,208.133 47.034 C 208.897 46.159,208.887 46.134,207.020 44.248 C 203.617 40.811,199.539 38.924,195.758 39.038 L 194.500 39.076 195.700 39.158 M296.850 40.914 C 297.859 42.029,297.923 42.017,291.525 41.956 L 285.650 41.900 286.860 43.300 C 290.773 47.827,291.926 52.055,290.409 56.310 C 290.058 57.294,289.763 58.213,289.752 58.350 C 289.742 58.488,289.670 58.600,289.593 58.600 C 289.516 58.600,289.215 58.960,288.924 59.400 C 288.291 60.356,288.389 60.479,289.043 59.550 L 289.500 58.900 294.400 58.900 L 299.300 58.900 300.153 57.200 C 302.779 51.970,301.232 44.410,296.777 40.703 C 296.393 40.384,296.408 40.425,296.850 40.914 M184.695 44.450 L 183.300 45.900 184.750 44.505 C 185.548 43.738,186.200 43.086,186.200 43.055 C 186.200 42.909,185.990 43.103,184.695 44.450 M44.887 51.250 L 44.300 51.900 44.950 51.313 C 45.556 50.765,45.692 50.600,45.537 50.600 C 45.503 50.600,45.210 50.893,44.887 51.250 M206.200 52.700 C 206.573 53.085,206.923 53.400,206.978 53.400 C 207.033 53.400,206.773 53.085,206.400 52.700 C 206.027 52.315,205.677 52.000,205.622 52.000 C 205.567 52.000,205.827 52.315,206.200 52.700 M178.300 53.400 C 178.129 53.730,178.035 54.000,178.090 54.000 C 178.145 54.000,178.329 53.730,178.500 53.400 C 178.671 53.070,178.765 52.800,178.710 52.800 C 178.655 52.800,178.471 53.070,178.300 53.400 M350.000 54.100 C 350.373 54.485,350.723 54.800,350.778 54.800 C 350.833 54.800,350.573 54.485,350.200 54.100 C 349.827 53.715,349.477 53.400,349.422 53.400 C 349.367 53.400,349.627 53.715,350.000 54.100 M64.687 55.250 L 64.100 55.900 64.750 55.313 C 65.356 54.765,65.492 54.600,65.337 54.600 C 65.303 54.600,65.010 54.892,64.687 55.250 M177.232 55.509 C 176.897 56.244,176.961 56.401,177.324 55.732 C 177.493 55.420,177.594 55.127,177.548 55.081 C 177.502 55.036,177.360 55.228,177.232 55.509 M328.700 56.600 C 329.130 57.040,329.526 57.400,329.581 57.400 C 329.636 57.400,329.330 57.040,328.900 56.600 C 328.470 56.160,328.074 55.800,328.019 55.800 C 327.964 55.800,328.270 56.160,328.700 56.600 M62.600 57.100 C 62.114 57.595,61.762 58.000,61.817 58.000 C 61.872 58.000,62.314 57.595,62.800 57.100 C 63.286 56.605,63.638 56.200,63.583 56.200 C 63.528 56.200,63.086 56.605,62.600 57.100 M39.087 57.050 L 38.500 57.700 39.150 57.113 C 39.508 56.790,39.800 56.497,39.800 56.463 C 39.800 56.308,39.635 56.444,39.087 57.050 M73.050 57.500 C 73.053 57.940,73.094 58.096,73.141 57.848 C 73.189 57.599,73.187 57.239,73.137 57.048 C 73.087 56.856,73.048 57.060,73.050 57.500 M332.300 60.000 C 333.285 60.990,334.137 61.800,334.192 61.800 C 334.247 61.800,333.485 60.990,332.500 60.000 C 331.515 59.010,330.663 58.200,330.608 58.200 C 330.553 58.200,331.315 59.010,332.300 60.000 M286.294 62.650 L 285.100 63.900 286.350 62.706 C 287.038 62.050,287.600 61.487,287.600 61.456 C 287.600 61.308,287.403 61.489,286.294 62.650 M105.600 62.700 C 105.973 63.085,106.323 63.400,106.378 63.400 C 106.433 63.400,106.173 63.085,105.800 62.700 C 105.427 62.315,105.077 62.000,105.022 62.000 C 104.967 62.000,105.227 62.315,105.600 62.700 M56.691 63.050 L 55.900 63.900 56.750 63.109 C 57.540 62.374,57.692 62.200,57.541 62.200 C 57.508 62.200,57.125 62.583,56.691 63.050 M335.700 63.600 C 336.130 64.040,336.526 64.400,336.581 64.400 C 336.636 64.400,336.330 64.040,335.900 63.600 C 335.470 63.160,335.074 62.800,335.019 62.800 C 334.964 62.800,335.270 63.160,335.700 63.600 M54.887 65.050 L 54.300 65.700 54.950 65.113 C 55.556 64.565,55.692 64.400,55.537 64.400 C 55.503 64.400,55.210 64.692,54.887 65.050 M315.500 68.800 C 315.329 69.130,315.235 69.400,315.290 69.400 C 315.345 69.400,315.529 69.130,315.700 68.800 C 315.871 68.470,315.965 68.200,315.910 68.200 C 315.855 68.200,315.671 68.470,315.500 68.800 M314.273 70.899 C 314.210 71.063,314.084 71.152,313.993 71.096 C 313.902 71.039,313.771 71.085,313.702 71.197 C 313.633 71.309,313.166 71.400,312.664 71.400 C 311.828 71.400,311.773 71.370,312.013 71.050 C 312.157 70.858,311.336 71.607,310.187 72.716 C 296.635 85.806,272.358 95.783,242.600 100.492 C 240.785 100.780,239.055 101.079,238.756 101.157 L 238.212 101.300 240.122 103.600 C 241.173 104.865,242.222 106.080,242.455 106.300 C 243.036 106.851,242.700 106.388,241.082 104.410 C 240.322 103.481,239.859 102.781,240.054 102.855 C 240.248 102.929,244.658 102.996,249.854 103.003 L 259.300 103.015 262.300 102.190 C 282.993 96.494,300.348 87.260,309.793 76.920 C 311.987 74.518,314.908 70.600,314.505 70.600 C 314.440 70.600,314.336 70.734,314.273 70.899 M80.002 71.074 C 80.276 71.431,80.234 71.444,79.064 71.365 L 77.840 71.281 78.648 72.471 C 86.941 84.682,106.487 95.925,130.848 102.496 L 132.797 103.022 142.334 103.006 C 149.455 102.994,151.951 102.929,152.186 102.748 C 152.564 102.458,152.537 102.493,150.513 104.959 C 149.764 105.871,149.185 106.651,149.226 106.693 C 149.268 106.734,150.316 105.548,151.556 104.056 C 152.796 102.564,153.774 101.308,153.730 101.263 C 153.685 101.218,151.995 100.914,149.974 100.586 C 118.975 95.556,95.714 86.022,81.708 72.608 C 80.613 71.558,79.845 70.868,80.002 71.074 M238.600 72.300 C 238.600 72.546,238.256 72.600,236.700 72.600 C 235.655 72.600,234.800 72.643,234.800 72.695 C 234.800 72.748,235.106 74.660,235.481 76.945 C 235.855 79.230,236.273 81.933,236.409 82.950 C 236.545 83.968,236.712 84.796,236.778 84.792 C 237.012 84.776,240.300 80.576,240.264 80.339 C 239.902 77.925,239.101 73.800,238.995 73.800 C 238.918 73.800,238.895 73.552,238.943 73.250 C 239.014 72.806,238.988 72.758,238.804 73.000 C 238.624 73.236,238.603 73.161,238.704 72.650 C 238.774 72.293,238.780 72.000,238.716 72.000 C 238.652 72.000,238.600 72.135,238.600 72.300 M157.200 72.517 C 157.201 72.619,156.412 72.672,155.418 72.636 C 153.759 72.577,153.627 72.601,153.503 72.989 C 153.431 73.218,153.302 73.363,153.218 73.311 C 153.100 73.238,151.795 79.607,151.799 80.235 C 151.800 80.310,151.643 80.412,151.450 80.462 C 151.161 80.538,151.156 80.558,151.422 80.577 C 151.598 80.590,152.531 81.550,153.495 82.710 C 154.458 83.871,155.286 84.781,155.335 84.732 C 155.383 84.683,155.687 82.856,156.010 80.672 C 156.332 78.487,156.766 75.755,156.975 74.600 C 157.183 73.445,157.319 72.463,157.277 72.417 C 157.235 72.371,157.200 72.416,157.200 72.517 M43.700 81.000 C 43.529 81.330,43.435 81.600,43.490 81.600 C 43.545 81.600,43.729 81.330,43.900 81.000 C 44.071 80.670,44.165 80.400,44.110 80.400 C 44.055 80.400,43.871 80.670,43.700 81.000 M349.242 83.094 C 349.592 83.805,349.913 84.354,349.953 84.314 C 350.042 84.224,348.833 81.800,348.699 81.800 C 348.647 81.800,348.891 82.382,349.242 83.094 M181.150 83.741 C 181.398 83.789,181.803 83.789,182.050 83.741 C 182.298 83.693,182.095 83.654,181.600 83.654 C 181.105 83.654,180.903 83.693,181.150 83.741 M209.950 83.741 C 210.197 83.789,210.603 83.789,210.850 83.741 C 211.097 83.693,210.895 83.654,210.400 83.654 C 209.905 83.654,209.703 83.693,209.950 83.741 M41.838 84.710 C 41.235 85.950,41.302 86.123,41.923 84.930 C 42.201 84.397,42.393 83.927,42.351 83.885 C 42.310 83.843,42.078 84.214,41.838 84.710 M186.250 83.943 C 186.553 83.989,187.048 83.989,187.350 83.943 C 187.653 83.897,187.405 83.860,186.800 83.860 C 186.195 83.860,185.947 83.897,186.250 83.943 M204.650 83.943 C 204.953 83.989,205.447 83.989,205.750 83.943 C 206.053 83.897,205.805 83.860,205.200 83.860 C 204.595 83.860,204.347 83.897,204.650 83.943 M350.260 85.250 C 350.317 85.388,350.516 85.856,350.702 86.291 C 350.961 86.898,350.974 87.027,350.757 86.847 C 350.561 86.685,348.858 86.596,345.180 86.557 L 339.885 86.500 341.219 89.400 C 344.932 97.470,346.746 104.963,346.931 113.000 C 346.981 115.145,347.063 117.103,347.114 117.350 L 347.208 117.800 351.604 117.800 C 354.401 117.800,356.000 117.873,356.000 118.000 C 356.000 118.126,354.354 118.216,351.550 118.244 L 347.100 118.288 351.600 118.394 L 356.100 118.500 356.262 117.900 C 357.143 114.634,356.185 103.088,354.502 96.700 C 353.422 92.600,350.666 85.000,350.260 85.000 C 350.203 85.000,350.204 85.113,350.260 85.250 M40.897 86.842 C 38.050 93.758,36.536 99.542,35.805 106.292 C 35.443 109.627,35.587 119.269,35.988 118.619 C 36.072 118.484,37.703 118.387,40.509 118.350 L 44.900 118.292 40.450 118.246 C 37.647 118.217,36.000 118.126,36.000 118.000 C 36.000 117.873,37.597 117.800,40.391 117.800 L 44.782 117.800 44.880 117.150 C 44.934 116.793,45.028 114.925,45.087 113.000 C 45.350 104.502,47.600 95.744,51.522 87.957 L 52.205 86.600 46.843 86.600 C 42.827 86.600,41.414 86.663,41.216 86.850 C 40.997 87.057,40.993 87.019,41.192 86.633 C 41.324 86.376,41.391 86.125,41.341 86.075 C 41.291 86.024,41.091 86.370,40.897 86.842 M167.487 103.062 C 167.432 103.206,167.415 104.398,167.450 105.712 L 167.514 108.100 167.557 105.567 C 167.588 103.761,167.672 103.004,167.850 102.932 C 168.046 102.853,168.044 102.828,167.844 102.816 C 167.703 102.807,167.542 102.918,167.487 103.062 M224.099 102.999 C 224.167 103.108,223.805 103.963,223.295 104.899 C 222.785 105.834,222.413 106.600,222.468 106.600 C 222.610 106.600,224.400 103.283,224.400 103.019 C 224.400 102.899,224.305 102.800,224.188 102.800 C 224.072 102.800,224.032 102.889,224.099 102.999 M168.850 103.143 C 169.153 103.189,169.648 103.189,169.950 103.143 C 170.253 103.097,170.005 103.060,169.400 103.060 C 168.795 103.060,168.548 103.097,168.850 103.143 M222.050 103.143 C 222.353 103.189,222.847 103.189,223.150 103.143 C 223.453 103.097,223.205 103.060,222.600 103.060 C 221.995 103.060,221.748 103.097,222.050 103.143 M171.250 103.343 C 171.553 103.389,172.048 103.389,172.350 103.343 C 172.653 103.297,172.405 103.260,171.800 103.260 C 171.195 103.260,170.947 103.297,171.250 103.343 M219.650 103.343 C 219.953 103.389,220.447 103.389,220.750 103.343 C 221.053 103.297,220.805 103.260,220.200 103.260 C 219.595 103.260,219.347 103.297,219.650 103.343 M173.954 103.545 C 174.313 103.589,174.853 103.589,175.154 103.543 C 175.454 103.497,175.160 103.461,174.500 103.462 C 173.840 103.463,173.594 103.500,173.954 103.545 M216.954 103.545 C 217.313 103.589,217.853 103.589,218.154 103.543 C 218.454 103.497,218.160 103.461,217.500 103.462 C 216.840 103.463,216.594 103.500,216.954 103.545 M176.946 103.744 C 177.301 103.789,177.931 103.789,178.346 103.746 C 178.760 103.703,178.470 103.667,177.700 103.666 C 176.930 103.665,176.590 103.700,176.946 103.744 M213.546 103.744 C 213.901 103.789,214.531 103.789,214.946 103.746 C 215.360 103.703,215.070 103.667,214.300 103.666 C 213.530 103.665,213.190 103.700,213.546 103.744 M180.150 103.947 C 180.728 103.988,181.673 103.988,182.250 103.947 C 182.828 103.907,182.355 103.874,181.200 103.874 C 180.045 103.874,179.572 103.907,180.150 103.947 M209.750 103.947 C 210.328 103.988,211.273 103.988,211.850 103.947 C 212.428 103.907,211.955 103.874,210.800 103.874 C 209.645 103.874,209.173 103.907,209.750 103.947 M185.150 104.149 C 186.058 104.186,187.543 104.186,188.450 104.149 C 189.358 104.112,188.615 104.081,186.800 104.081 C 184.985 104.081,184.243 104.112,185.150 104.149 M203.550 104.149 C 204.458 104.186,205.943 104.186,206.850 104.149 C 207.757 104.112,207.015 104.081,205.200 104.081 C 203.385 104.081,202.643 104.112,203.550 104.149 M193.050 104.350 C 194.673 104.383,197.328 104.383,198.950 104.350 C 200.572 104.316,199.245 104.288,196.000 104.288 C 192.755 104.288,191.428 104.316,193.050 104.350 M221.800 107.600 C 221.576 108.040,221.437 108.400,221.492 108.400 C 221.547 108.400,221.776 108.040,222.000 107.600 C 222.224 107.160,222.363 106.800,222.308 106.800 C 222.253 106.800,222.024 107.160,221.800 107.600 M242.888 114.000 C 242.888 117.025,242.916 118.263,242.950 116.750 C 242.983 115.238,242.983 112.763,242.950 111.250 C 242.916 109.738,242.888 110.975,242.888 114.000 M149.077 113.200 C 149.077 114.575,149.109 115.138,149.148 114.450 C 149.187 113.763,149.187 112.638,149.148 111.950 C 149.109 111.263,149.077 111.825,149.077 113.200 M171.041 111.265 C 171.019 111.465,170.324 112.788,169.497 114.205 C 168.671 115.621,167.911 116.987,167.810 117.240 C 167.683 117.556,167.608 116.664,167.570 114.400 C 167.525 111.663,167.503 111.459,167.444 113.200 C 167.205 120.232,168.898 137.104,170.608 144.734 C 170.903 146.051,171.208 145.996,163.338 146.046 L 156.100 146.092 163.400 146.198 L 170.700 146.303 163.350 146.401 C 159.307 146.456,156.000 146.479,156.000 146.454 C 156.000 146.429,155.822 145.304,155.605 143.954 C 154.757 138.685,153.879 129.718,153.693 124.428 C 153.578 121.162,153.398 118.958,153.274 119.300 C 153.230 119.420,152.445 119.475,151.300 119.436 C 150.086 119.396,149.400 119.447,149.400 119.579 C 149.400 119.702,150.185 119.812,151.350 119.851 L 153.300 119.916 151.354 119.958 C 148.935 120.010,149.074 119.623,149.383 125.466 C 149.941 135.989,151.118 145.682,152.920 154.600 C 153.714 158.527,155.247 164.600,155.444 164.600 C 155.543 164.600,155.568 164.510,155.500 164.400 C 155.421 164.273,156.002 164.200,157.100 164.200 C 158.113 164.200,158.776 164.277,158.709 164.386 C 158.645 164.489,158.687 164.630,158.802 164.701 C 158.916 164.772,158.997 164.756,158.981 164.665 C 158.679 162.923,159.154 164.173,160.592 168.900 C 161.878 173.129,163.426 177.537,164.772 180.800 L 165.802 183.300 180.515 183.247 C 188.606 183.219,195.183 183.266,195.130 183.352 C 195.076 183.438,195.513 183.509,196.100 183.509 C 196.687 183.509,197.124 183.440,197.072 183.355 C 197.019 183.270,203.512 183.200,211.500 183.200 C 223.053 183.200,225.998 183.251,225.897 183.450 C 225.827 183.588,225.909 183.529,226.078 183.321 C 226.924 182.281,230.266 173.153,232.110 166.850 L 232.885 164.200 234.742 164.200 C 236.088 164.200,236.603 164.269,236.613 164.450 C 236.693 166.034,239.112 155.358,240.295 148.200 C 241.796 139.117,243.152 123.848,242.717 120.942 L 242.578 120.014 240.639 119.949 L 238.700 119.884 240.650 119.842 C 243.189 119.787,243.172 119.445,240.626 119.363 L 238.652 119.300 238.516 122.400 C 238.441 124.105,238.340 125.905,238.291 126.400 C 238.243 126.895,238.108 128.695,237.992 130.400 C 237.875 132.105,237.742 133.770,237.696 134.100 C 237.649 134.430,237.515 135.645,237.397 136.800 C 237.142 139.303,236.479 144.099,236.195 145.500 L 235.993 146.500 228.646 146.401 L 221.300 146.303 228.600 146.198 L 235.900 146.092 228.582 146.046 L 221.263 146.000 220.504 148.950 C 215.102 169.944,206.119 182.438,196.400 182.476 C 193.951 182.486,192.178 182.340,192.470 182.153 C 192.624 182.055,192.597 182.005,192.389 182.003 C 190.627 181.986,185.969 178.535,183.207 175.200 C 178.602 169.640,173.002 156.739,171.487 148.200 C 171.242 146.821,171.250 146.783,172.050 145.446 C 172.463 144.757,172.800 144.148,172.800 144.093 C 172.800 144.037,173.036 143.619,173.323 143.163 C 174.212 141.755,174.245 141.359,173.707 138.597 C 172.337 131.572,171.427 122.403,171.136 112.700 C 171.107 111.710,171.064 111.064,171.041 111.265 M377.073 113.100 C 377.074 114.200,377.107 114.624,377.148 114.043 C 377.188 113.462,377.188 112.562,377.147 112.043 C 377.106 111.524,377.073 112.000,377.073 113.100 M220.666 116.100 C 220.667 116.870,220.703 117.160,220.746 116.746 C 220.789 116.331,220.789 115.701,220.744 115.346 C 220.700 114.990,220.665 115.330,220.666 116.100 M45.054 118.600 C 45.054 119.095,45.093 119.297,45.141 119.050 C 45.189 118.803,45.189 118.397,45.141 118.150 C 45.093 117.903,45.054 118.105,45.054 118.600 M346.854 119.400 C 346.854 119.895,346.893 120.097,346.941 119.850 C 346.989 119.603,346.989 119.197,346.941 118.950 C 346.893 118.703,346.854 118.905,346.854 119.400 M220.446 120.600 C 220.446 120.985,220.488 121.142,220.538 120.950 C 220.588 120.758,220.588 120.442,220.538 120.250 C 220.488 120.058,220.446 120.215,220.446 120.600 M369.092 145.850 C 369.016 146.046,366.978 146.088,359.631 146.046 L 350.267 145.992 348.892 148.246 C 340.892 161.364,329.254 173.122,314.700 182.791 C 313.490 183.595,312.410 184.347,312.300 184.463 C 312.094 184.680,312.830 184.251,313.923 183.518 C 314.540 183.103,314.634 183.101,325.822 183.200 L 337.098 183.300 339.044 181.785 C 346.529 175.958,354.753 167.686,360.054 160.651 C 363.972 155.452,368.840 147.550,368.482 146.971 C 368.401 146.840,368.425 146.792,368.536 146.861 C 368.645 146.928,368.882 146.672,369.064 146.291 C 369.245 145.911,369.347 145.600,369.290 145.600 C 369.234 145.600,369.144 145.713,369.092 145.850 M32.508 145.952 C 27.452 145.981,23.249 146.071,23.168 146.152 C 23.086 146.233,27.223 146.298,32.360 146.296 L 41.700 146.292 32.700 146.346 C 23.701 146.400,22.830 146.443,23.406 146.808 C 23.568 146.910,23.624 146.995,23.532 146.997 C 23.296 147.001,25.116 150.356,27.008 153.401 C 33.141 163.274,42.038 173.054,52.370 181.284 L 54.767 183.193 66.221 183.193 L 77.675 183.193 78.688 183.862 C 80.243 184.890,80.920 185.294,80.700 185.063 C 80.146 184.482,76.760 182.401,76.564 182.522 C 76.436 182.601,76.393 182.573,76.465 182.457 C 76.535 182.344,76.076 181.911,75.446 181.496 C 63.187 173.412,51.186 161.143,43.567 148.900 L 41.700 145.900 32.508 145.952 M368.800 146.350 C 368.800 146.486,361.845 146.484,353.400 146.344 C 351.585 146.314,354.308 146.269,359.450 146.245 C 364.593 146.220,368.800 146.268,368.800 146.350 M63.800 159.063 C 63.800 159.097,64.093 159.390,64.450 159.713 L 65.100 160.300 64.513 159.650 C 63.965 159.044,63.800 158.908,63.800 159.063 M325.193 162.150 L 324.100 163.300 325.250 162.207 C 326.318 161.191,326.492 161.000,326.343 161.000 C 326.312 161.000,325.794 161.518,325.193 162.150 M68.800 164.063 C 68.800 164.097,69.093 164.390,69.450 164.713 L 70.100 165.300 69.513 164.650 C 68.965 164.044,68.800 163.908,68.800 164.063 M186.700 169.800 C 187.130 170.240,187.526 170.600,187.581 170.600 C 187.636 170.600,187.330 170.240,186.900 169.800 C 186.470 169.360,186.074 169.000,186.019 169.000 C 185.964 169.000,186.270 169.360,186.700 169.800 M196.350 182.938 C 196.158 182.988,195.843 182.988,195.650 182.938 C 195.458 182.888,195.615 182.846,196.000 182.846 C 196.385 182.846,196.543 182.888,196.350 182.938 M311.250 185.023 C 310.568 185.460,310.348 185.753,310.950 185.422 C 311.409 185.169,312.128 184.614,312.000 184.610 C 311.945 184.608,311.608 184.794,311.250 185.023 M82.300 186.104 C 82.520 186.283,82.880 186.518,83.100 186.626 L 83.500 186.822 83.100 186.496 C 82.880 186.317,82.520 186.082,82.300 185.974 L 81.900 185.778 82.300 186.104 M305.750 188.314 C 305.002 188.720,305.048 188.889,305.800 188.500 C 306.130 188.329,306.400 188.147,306.400 188.095 C 306.400 187.966,306.379 187.973,305.750 188.314 M304.350 189.114 C 303.602 189.520,303.648 189.689,304.400 189.300 C 304.730 189.129,305.000 188.947,305.000 188.895 C 305.000 188.766,304.979 188.773,304.350 189.114 M87.800 189.290 C 87.800 189.345,88.070 189.529,88.400 189.700 C 88.730 189.871,89.000 189.965,89.000 189.910 C 89.000 189.855,88.730 189.671,88.400 189.500 C 88.070 189.329,87.800 189.235,87.800 189.290 M302.150 190.314 C 301.402 190.720,301.448 190.889,302.200 190.500 C 302.530 190.329,302.800 190.147,302.800 190.095 C 302.800 189.966,302.779 189.973,302.150 190.314 M90.000 190.490 C 90.000 190.545,90.270 190.729,90.600 190.900 C 90.930 191.071,91.200 191.165,91.200 191.110 C 91.200 191.055,90.930 190.871,90.600 190.700 C 90.270 190.529,90.000 190.435,90.000 190.490 M297.600 192.700 C 296.445 193.294,295.569 193.784,295.654 193.790 C 295.866 193.804,299.800 191.820,299.800 191.698 C 299.800 191.562,299.922 191.506,297.600 192.700 M98.600 194.900 C 98.875 195.057,99.190 195.186,99.300 195.186 C 99.410 195.186,99.275 195.057,99.000 194.900 C 98.725 194.743,98.410 194.614,98.300 194.614 C 98.190 194.614,98.325 194.743,98.600 194.900 M292.200 195.300 C 291.925 195.457,291.790 195.586,291.900 195.586 C 292.010 195.586,292.325 195.457,292.600 195.300 C 292.875 195.143,293.010 195.014,292.900 195.014 C 292.790 195.014,292.475 195.143,292.200 195.300 M176.700 205.548 C 177.030 205.596,177.435 205.740,177.600 205.868 C 177.861 206.070,177.864 206.055,177.626 205.750 C 177.456 205.534,177.112 205.411,176.726 205.430 L 176.100 205.460 176.700 205.548 M214.281 205.850 C 213.903 206.296,213.903 206.297,214.300 205.967 C 214.520 205.783,214.970 205.594,215.300 205.547 L 215.900 205.460 215.281 205.430 C 214.860 205.410,214.540 205.544,214.281 205.850 M212.100 207.518 L 211.500 208.033 212.150 207.603 C 212.507 207.366,212.800 207.134,212.800 207.086 C 212.800 206.937,212.715 206.989,212.100 207.518 M193.350 212.941 C 193.597 212.989,194.003 212.989,194.250 212.941 C 194.498 212.893,194.295 212.854,193.800 212.854 C 193.305 212.854,193.103 212.893,193.350 212.941 M197.750 212.941 C 197.998 212.989,198.403 212.989,198.650 212.941 C 198.898 212.893,198.695 212.854,198.200 212.854 C 197.705 212.854,197.503 212.893,197.750 212.941 M169.850 213.938 C 170.043 213.988,170.358 213.988,170.550 213.938 C 170.743 213.888,170.585 213.846,170.200 213.846 C 169.815 213.846,169.658 213.888,169.850 213.938 M221.450 213.938 C 221.643 213.988,221.957 213.988,222.150 213.938 C 222.343 213.888,222.185 213.846,221.800 213.846 C 221.415 213.846,221.257 213.888,221.450 213.938 M172.050 214.138 C 172.243 214.188,172.558 214.188,172.750 214.138 C 172.942 214.088,172.785 214.046,172.400 214.046 C 172.015 214.046,171.858 214.088,172.050 214.138 M219.450 214.138 C 219.643 214.188,219.957 214.188,220.150 214.138 C 220.343 214.088,220.185 214.046,219.800 214.046 C 219.415 214.046,219.257 214.088,219.450 214.138 M174.352 214.341 C 174.601 214.389,174.961 214.387,175.152 214.337 C 175.344 214.287,175.140 214.248,174.700 214.250 C 174.260 214.253,174.104 214.294,174.352 214.341 M217.050 214.338 C 217.243 214.388,217.558 214.388,217.750 214.338 C 217.943 214.288,217.785 214.246,217.400 214.246 C 217.015 214.246,216.857 214.288,217.050 214.338 M176.750 214.541 C 176.998 214.589,177.403 214.589,177.650 214.541 C 177.898 214.493,177.695 214.454,177.200 214.454 C 176.705 214.454,176.503 214.493,176.750 214.541 M214.552 214.541 C 214.801 214.589,215.161 214.587,215.352 214.537 C 215.544 214.487,215.340 214.448,214.900 214.450 C 214.460 214.453,214.304 214.494,214.552 214.541 M179.750 214.741 C 179.998 214.789,180.403 214.789,180.650 214.741 C 180.898 214.693,180.695 214.654,180.200 214.654 C 179.705 214.654,179.503 214.693,179.750 214.741 M211.350 214.741 C 211.597 214.789,212.003 214.789,212.250 214.741 C 212.498 214.693,212.295 214.654,211.800 214.654 C 211.305 214.654,211.103 214.693,211.350 214.741 M183.450 214.943 C 183.753 214.989,184.248 214.989,184.550 214.943 C 184.853 214.897,184.605 214.860,184.000 214.860 C 183.395 214.860,183.148 214.897,183.450 214.943 M207.450 214.943 C 207.753 214.989,208.248 214.989,208.550 214.943 C 208.853 214.897,208.605 214.860,208.000 214.860 C 207.395 214.860,207.148 214.897,207.450 214.943 M188.650 215.147 C 189.173 215.188,190.028 215.188,190.550 215.147 C 191.072 215.106,190.645 215.072,189.600 215.072 C 188.555 215.072,188.128 215.106,188.650 215.147 M201.450 215.147 C 201.972 215.188,202.828 215.188,203.350 215.147 C 203.873 215.106,203.445 215.072,202.400 215.072 C 201.355 215.072,200.928 215.106,201.450 215.147 " stroke="none" fill="#86878a" fill-rule="evenodd"></path><path id="path4" d="M193.550 0.949 C 194.898 0.984,197.103 0.984,198.450 0.949 C 199.798 0.915,198.695 0.886,196.000 0.886 C 193.305 0.886,192.203 0.915,193.550 0.949 M201.700 15.800 C 206.022 16.928,210.602 19.288,213.291 21.770 C 213.725 22.171,213.962 22.343,213.816 22.150 C 213.474 21.698,213.912 21.694,218.838 22.106 C 249.375 24.660,273.421 31.728,284.900 41.525 C 285.890 42.370,286.457 42.800,286.160 42.481 L 285.621 41.900 291.510 41.956 C 298.401 42.021,298.122 42.156,295.850 39.863 C 282.676 26.569,245.552 16.457,206.400 15.500 C 203.925 15.439,201.360 15.353,200.700 15.308 C 199.570 15.230,199.628 15.259,201.700 15.800 M181.300 15.623 C 140.425 17.717,105.345 28.171,94.803 41.400 L 94.245 42.100 100.292 42.000 C 105.133 41.920,106.415 41.842,106.720 41.612 C 106.929 41.453,106.470 41.989,105.700 42.802 C 104.563 44.003,104.700 43.902,106.427 42.265 C 117.042 32.207,141.344 24.870,173.200 22.106 C 175.125 21.939,177.122 21.802,177.638 21.801 C 178.456 21.800,178.774 21.658,180.135 20.681 C 183.641 18.166,187.004 16.590,190.900 15.637 C 191.911 15.390,186.026 15.381,181.300 15.623 M193.092 39.495 C 186.428 40.946,180.008 48.409,175.528 59.914 C 174.547 62.433,173.200 66.442,173.200 66.843 C 173.200 66.930,175.063 64.774,177.339 62.051 C 179.616 59.328,183.109 55.165,185.102 52.800 C 187.095 50.435,190.419 46.475,192.489 44.000 C 194.559 41.525,196.398 39.439,196.576 39.364 C 197.159 39.119,194.330 39.225,193.092 39.495 M186.295 52.050 L 184.900 53.500 186.350 52.105 C 187.148 51.338,187.800 50.686,187.800 50.655 C 187.800 50.509,187.590 50.703,186.295 52.050 M319.078 54.700 C 319.078 56.130,319.110 56.689,319.148 55.942 C 319.187 55.195,319.187 54.025,319.148 53.342 C 319.109 52.659,319.077 53.270,319.078 54.700 M348.200 52.263 C 348.200 52.297,348.493 52.590,348.850 52.913 L 349.500 53.500 348.913 52.850 C 348.365 52.244,348.200 52.108,348.200 52.263 M325.733 54.010 C 329.046 57.757,333.899 70.092,335.209 78.100 C 335.374 79.105,335.638 79.807,336.147 80.589 C 337.462 82.609,339.008 85.226,339.709 86.617 C 340.092 87.378,340.451 88.000,340.507 88.000 C 340.562 88.000,340.436 87.663,340.225 87.250 L 339.843 86.500 345.159 86.557 C 348.586 86.593,350.567 86.690,350.735 86.829 C 351.134 87.161,350.778 86.266,349.294 83.219 C 344.681 73.742,337.657 64.709,328.336 56.269 C 326.666 54.757,325.495 53.740,325.733 54.010 M62.500 57.365 C 55.907 63.462,50.041 70.567,45.855 77.524 C 43.744 81.032,40.495 87.583,41.230 86.850 C 41.418 86.662,42.841 86.600,46.952 86.600 C 50.549 86.600,52.381 86.531,52.300 86.400 C 52.232 86.290,52.264 86.200,52.370 86.200 C 52.477 86.200,52.923 85.548,53.361 84.750 C 53.800 83.953,54.705 82.470,55.373 81.455 C 56.483 79.767,56.613 79.452,56.903 77.755 C 58.167 70.355,61.261 62.136,65.212 55.680 C 66.299 53.904,66.124 54.013,62.500 57.365 M309.287 77.450 L 308.700 78.100 309.350 77.513 C 309.956 76.965,310.092 76.800,309.937 76.800 C 309.903 76.800,309.610 77.093,309.287 77.450 M83.592 78.450 C 84.082 78.973,84.510 79.400,84.542 79.400 C 84.692 79.400,84.533 79.220,83.650 78.392 L 82.700 77.500 83.592 78.450 M152.100 102.800 C 152.021 102.929,148.702 103.000,142.800 103.000 C 136.119 103.000,133.585 103.062,133.482 103.229 C 133.382 103.391,133.500 103.418,133.887 103.321 C 134.283 103.222,134.393 103.249,134.287 103.421 C 134.181 103.593,134.291 103.621,134.687 103.521 C 135.083 103.422,135.193 103.449,135.087 103.621 C 134.981 103.793,135.091 103.821,135.487 103.721 C 135.886 103.621,135.993 103.649,135.885 103.823 C 135.782 103.992,135.866 104.029,136.169 103.950 C 136.406 103.888,136.600 103.905,136.600 103.988 C 136.600 104.165,138.045 104.500,144.379 105.794 L 149.059 106.750 149.985 105.625 C 151.926 103.267,152.445 102.600,152.336 102.600 C 152.274 102.600,152.168 102.690,152.100 102.800 M241.328 104.700 C 242.734 106.418,242.802 106.549,242.837 107.600 L 242.874 108.700 242.946 107.690 L 243.018 106.681 245.059 106.331 C 248.198 105.792,255.293 104.191,255.360 104.007 C 255.392 103.916,255.609 103.892,255.841 103.953 C 256.152 104.034,256.220 103.995,256.101 103.802 C 255.977 103.602,256.066 103.573,256.487 103.679 C 256.856 103.772,256.990 103.746,256.900 103.600 C 256.810 103.454,256.944 103.428,257.313 103.521 C 257.709 103.621,257.819 103.593,257.713 103.421 C 257.607 103.249,257.722 103.221,258.133 103.318 C 258.540 103.414,258.643 103.390,258.496 103.232 C 258.355 103.080,255.451 102.995,249.074 102.956 L 239.856 102.900 241.328 104.700 M167.555 106.193 C 167.421 110.385,167.605 117.834,167.827 117.233 C 167.919 116.984,168.680 115.606,169.517 114.170 C 170.620 112.281,171.051 111.346,171.080 110.780 C 171.138 109.651,171.199 109.636,174.600 109.908 C 188.565 111.027,204.479 110.971,220.099 109.747 C 220.656 109.703,220.822 109.471,222.449 106.456 C 224.486 102.681,224.401 102.966,223.450 103.103 C 212.875 104.625,179.621 104.621,168.479 103.096 L 167.657 102.984 167.555 106.193 M149.050 110.100 C 149.053 110.540,149.094 110.696,149.141 110.448 C 149.189 110.199,149.187 109.839,149.137 109.648 C 149.087 109.456,149.048 109.660,149.050 110.100 M45.046 112.200 C 45.046 112.585,45.088 112.743,45.138 112.550 C 45.188 112.358,45.188 112.043,45.138 111.850 C 45.088 111.658,45.046 111.815,45.046 112.200 M14.857 113.100 C 14.859 113.650,14.898 113.851,14.944 113.547 C 14.989 113.243,14.988 112.793,14.941 112.547 C 14.893 112.301,14.856 112.550,14.857 113.100 M220.650 114.100 C 220.653 114.540,220.694 114.696,220.741 114.448 C 220.789 114.199,220.787 113.839,220.737 113.648 C 220.687 113.456,220.648 113.660,220.650 114.100 M171.267 115.400 C 171.267 116.225,171.303 116.563,171.346 116.150 C 171.389 115.738,171.389 115.063,171.346 114.650 C 171.303 114.238,171.267 114.575,171.267 115.400 M149.073 117.500 C 149.074 118.600,149.107 119.024,149.148 118.443 C 149.188 117.862,149.188 116.962,149.147 116.443 C 149.106 115.924,149.073 116.400,149.073 117.500 M45.046 117.200 C 45.046 117.585,45.088 117.743,45.138 117.550 C 45.188 117.358,45.188 117.043,45.138 116.850 C 45.088 116.658,45.046 116.815,45.046 117.200 M171.446 120.000 C 171.446 120.385,171.488 120.543,171.538 120.350 C 171.588 120.158,171.588 119.843,171.538 119.650 C 171.488 119.458,171.446 119.615,171.446 120.000 M242.866 120.700 C 242.867 121.470,242.903 121.760,242.946 121.346 C 242.989 120.931,242.989 120.301,242.944 119.946 C 242.900 119.590,242.865 119.930,242.866 120.700 M149.246 124.400 C 149.246 124.785,149.288 124.942,149.338 124.750 C 149.388 124.558,149.388 124.243,149.338 124.050 C 149.288 123.858,149.246 124.015,149.246 124.400 M149.446 128.200 C 149.446 128.585,149.488 128.743,149.538 128.550 C 149.588 128.358,149.588 128.042,149.538 127.850 C 149.488 127.658,149.446 127.815,149.446 128.200 M158.986 164.200 C 158.968 164.365,158.966 164.574,158.981 164.665 C 158.997 164.756,158.916 164.772,158.802 164.701 C 158.687 164.630,158.645 164.489,158.709 164.386 C 158.776 164.277,158.113 164.200,157.100 164.200 C 156.002 164.200,155.421 164.273,155.500 164.400 C 155.568 164.510,155.528 164.600,155.412 164.600 C 155.295 164.600,155.200 164.695,155.200 164.812 C 155.200 164.928,155.300 164.962,155.421 164.887 C 155.567 164.797,155.601 164.882,155.521 165.135 C 155.384 165.564,156.834 170.416,158.419 174.837 C 176.088 224.103,213.413 225.955,232.258 178.500 C 234.197 173.619,236.740 165.788,236.509 165.414 C 236.447 165.315,236.500 165.200,236.625 165.158 C 236.764 165.112,236.798 164.909,236.713 164.641 C 236.582 164.228,236.455 164.200,234.729 164.200 L 232.885 164.200 232.110 166.850 C 230.266 173.153,226.924 182.281,226.078 183.321 C 225.909 183.529,225.827 183.588,225.897 183.450 C 225.998 183.251,223.053 183.200,211.500 183.200 C 203.512 183.200,197.019 183.270,197.072 183.355 C 197.124 183.440,196.687 183.509,196.100 183.509 C 195.513 183.509,195.076 183.438,195.130 183.352 C 195.183 183.266,188.606 183.219,180.515 183.247 L 165.802 183.300 164.772 180.800 C 163.426 177.537,161.878 173.129,160.592 168.900 C 159.256 164.510,159.026 163.836,158.986 164.200 M39.000 169.100 C 39.373 169.485,39.723 169.800,39.778 169.800 C 39.833 169.800,39.573 169.485,39.200 169.100 C 38.827 168.715,38.477 168.400,38.422 168.400 C 38.367 168.400,38.627 168.715,39.000 169.100 M44.700 174.800 C 45.130 175.240,45.526 175.600,45.581 175.600 C 45.636 175.600,45.330 175.240,44.900 174.800 C 44.470 174.360,44.074 174.000,44.019 174.000 C 43.964 174.000,44.270 174.360,44.700 174.800 M346.189 175.750 L 345.500 176.500 346.250 175.811 C 346.948 175.169,347.092 175.000,346.939 175.000 C 346.906 175.000,346.568 175.338,346.189 175.750 M313.968 183.491 C 251.472 225.416,144.046 225.727,79.161 184.170 C 77.985 183.416,76.950 182.801,76.861 182.803 C 76.773 182.805,76.835 182.894,77.000 183.002 C 77.198 183.131,73.482 183.196,66.123 183.192 C 59.976 183.189,54.909 183.224,54.864 183.269 C 54.605 183.529,64.517 190.352,69.500 193.345 C 143.065 237.530,260.084 235.568,329.400 188.987 C 332.559 186.864,338.000 182.880,338.000 182.690 C 338.000 182.624,337.792 182.735,337.537 182.935 C 337.099 183.280,336.454 183.297,325.903 183.247 C 316.089 183.200,314.779 183.158,315.116 182.903 C 315.936 182.283,315.230 182.644,313.968 183.491 M195.650 182.938 C 195.843 182.988,196.158 182.988,196.350 182.938 C 196.543 182.888,196.385 182.846,196.000 182.846 C 195.615 182.846,195.458 182.888,195.650 182.938 " stroke="none" fill="#747474" fill-rule="evenodd"></path></g></svg>