<svg id="svg" version="1.1" xmlns="http://www.w3.org/2000/svg" xmlns:xlink="http://www.w3.org/1999/xlink" width="400" height="44.4" viewBox="0, 0, 400,44.4"><g id="svgg"><path id="path0" d="M1.079 0.273 C 0.009 0.808,-0.379 2.782,0.320 4.132 C 0.590 4.652,14.985 19.132,16.150 20.055 C 17.119 20.823,17.282 20.833,28.094 20.833 L 38.313 20.833 38.441 20.042 C 39.073 16.153,38.384 14.532,35.759 13.730 C 35.571 13.673,34.892 13.383,34.250 13.087 C 33.608 12.791,32.803 12.457,32.461 12.345 C 32.118 12.234,31.799 12.079,31.751 12.001 C 31.702 11.923,31.176 11.697,30.582 11.499 C 29.987 11.301,29.500 11.079,29.500 11.004 C 29.500 10.930,29.298 10.819,29.052 10.757 C 28.806 10.695,28.053 10.387,27.380 10.071 C 26.706 9.756,25.858 9.405,25.494 9.292 C 25.131 9.178,24.833 9.038,24.833 8.980 C 24.833 8.922,24.365 8.701,23.792 8.489 C 23.219 8.278,22.709 8.045,22.658 7.971 C 22.608 7.898,22.129 7.688,21.593 7.503 C 21.058 7.319,20.536 7.105,20.435 7.028 C 20.333 6.951,19.800 6.713,19.250 6.500 C 18.700 6.287,18.169 6.050,18.069 5.975 C 17.969 5.900,17.592 5.733,17.230 5.606 C 16.868 5.478,16.072 5.140,15.460 4.853 C 14.848 4.567,14.237 4.333,14.102 4.333 C 13.967 4.333,13.755 4.231,13.629 4.105 C 13.504 3.980,13.217 3.821,12.992 3.752 C 12.767 3.682,12.058 3.383,11.417 3.087 C 10.775 2.790,9.950 2.443,9.583 2.316 C 9.217 2.189,8.879 2.042,8.833 1.990 C 8.787 1.938,8.262 1.718,7.667 1.500 C 7.071 1.282,6.546 1.053,6.500 0.990 C 5.958 0.245,2.144 -0.259,1.079 0.273 M76.083 0.084 C 75.992 0.116,75.373 0.308,74.708 0.511 C 74.044 0.714,73.500 0.936,73.500 1.005 C 73.500 1.074,73.299 1.181,73.054 1.243 C 72.808 1.304,72.117 1.584,71.518 1.864 C 70.918 2.144,70.132 2.478,69.770 2.606 C 69.408 2.733,69.031 2.902,68.931 2.980 C 68.831 3.058,68.316 3.282,67.786 3.477 C 67.256 3.673,66.656 3.937,66.453 4.064 C 66.250 4.191,65.690 4.423,65.208 4.578 C 64.727 4.733,64.333 4.917,64.333 4.987 C 64.333 5.057,64.024 5.206,63.647 5.320 C 63.269 5.433,62.538 5.736,62.022 5.994 C 61.506 6.251,60.785 6.557,60.421 6.673 C 60.057 6.789,59.658 6.985,59.534 7.108 C 59.411 7.232,59.198 7.333,59.062 7.333 C 58.926 7.333,58.382 7.548,57.854 7.810 C 57.326 8.072,56.505 8.416,56.030 8.573 C 55.555 8.731,55.167 8.917,55.167 8.987 C 55.167 9.057,54.853 9.208,54.470 9.322 C 54.088 9.437,53.239 9.782,52.585 10.088 C 51.931 10.394,51.194 10.695,50.948 10.757 C 50.702 10.819,50.500 10.931,50.500 11.005 C 50.500 11.080,50.219 11.229,49.875 11.338 C 49.531 11.446,48.800 11.744,48.250 12.000 C 47.700 12.256,46.612 12.743,45.833 13.083 C 41.388 15.024,41.335 15.073,41.334 17.264 C 41.333 18.757,41.624 20.517,41.903 20.706 C 42.772 21.295,63.667 20.756,63.667 20.144 C 63.667 20.065,63.783 20.000,63.925 20.000 C 64.067 20.000,65.586 18.594,67.301 16.875 C 69.016 15.156,71.921 12.287,73.758 10.500 C 75.594 8.712,77.540 6.725,78.081 6.083 C 78.623 5.442,79.200 4.772,79.364 4.596 C 79.529 4.419,79.706 4.138,79.759 3.971 C 79.812 3.803,79.924 3.667,80.007 3.667 C 80.378 3.667,80.706 2.637,80.479 2.186 C 79.570 0.383,77.743 -0.491,76.083 0.084 M319.333 2.618 C 317.950 3.126,315.041 4.601,314.526 5.056 C 313.119 6.297,313.167 6.185,313.167 8.268 C 313.167 9.423,313.101 10.167,313.000 10.167 C 312.892 10.167,312.833 11.997,312.833 15.323 C 312.833 18.582,312.895 20.518,313.000 20.583 C 313.100 20.645,313.167 21.776,313.167 23.417 C 313.167 25.057,313.100 26.188,313.000 26.250 C 312.908 26.307,312.833 26.499,312.833 26.677 C 312.833 27.083,312.743 27.082,312.193 26.664 C 311.949 26.479,311.600 26.215,311.417 26.076 C 311.233 25.938,310.663 25.489,310.150 25.079 C 309.636 24.669,309.171 24.333,309.116 24.333 C 309.060 24.333,308.816 24.154,308.572 23.936 C 307.890 23.324,307.627 23.112,306.998 22.672 C 306.678 22.449,306.379 22.225,306.333 22.174 C 306.287 22.123,305.725 21.690,305.083 21.211 C 304.442 20.732,303.764 20.189,303.577 20.003 C 303.391 19.818,303.156 19.667,303.056 19.667 C 302.956 19.667,302.786 19.560,302.678 19.430 C 302.570 19.300,301.604 18.536,300.532 17.733 C 299.460 16.930,298.508 16.186,298.417 16.080 C 298.325 15.974,298.092 15.804,297.899 15.701 C 297.586 15.534,296.510 14.717,295.831 14.130 C 295.692 14.010,295.317 13.729,294.998 13.506 C 294.678 13.282,294.379 13.058,294.333 13.008 C 294.055 12.703,292.165 11.333,292.022 11.333 C 291.928 11.333,291.785 11.217,291.705 11.074 C 291.625 10.932,291.367 10.688,291.132 10.532 C 290.627 10.198,288.113 8.320,287.461 7.788 C 287.210 7.584,286.805 7.248,286.561 7.042 C 286.317 6.835,286.073 6.665,286.017 6.664 C 285.962 6.663,285.579 6.363,285.167 5.999 C 284.754 5.635,284.285 5.293,284.125 5.240 C 283.965 5.187,283.833 5.080,283.833 5.002 C 283.833 4.924,283.552 4.690,283.208 4.481 C 282.865 4.272,282.523 4.004,282.450 3.884 C 282.377 3.765,282.238 3.667,282.141 3.667 C 282.044 3.667,281.681 3.442,281.333 3.167 C 280.349 2.387,279.167 2.523,279.167 3.417 C 279.167 3.609,279.091 3.842,278.999 3.934 C 278.889 4.045,278.846 10.399,278.874 22.658 C 278.921 43.060,278.858 41.876,279.864 41.376 C 280.076 41.271,280.807 41.033,281.487 40.847 C 282.168 40.661,282.768 40.449,282.821 40.375 C 282.873 40.301,283.231 40.102,283.615 39.933 C 283.999 39.763,284.787 39.180,285.365 38.637 L 286.417 37.649 286.477 27.324 C 286.511 21.445,286.600 17.000,286.685 17.000 C 286.767 17.000,286.833 17.060,286.833 17.133 C 286.833 17.206,287.131 17.450,287.496 17.675 C 287.860 17.900,288.160 18.123,288.162 18.172 C 288.165 18.220,288.586 18.558,289.099 18.922 C 289.611 19.286,290.425 19.902,290.907 20.292 C 291.389 20.681,291.829 21.000,291.884 21.000 C 291.940 21.000,292.184 21.179,292.428 21.398 C 293.110 22.010,293.373 22.221,294.002 22.661 C 294.322 22.884,294.621 23.108,294.667 23.159 C 294.945 23.464,296.835 24.833,296.978 24.833 C 297.072 24.833,297.215 24.950,297.295 25.093 C 297.375 25.235,297.633 25.479,297.868 25.634 C 298.103 25.790,298.697 26.231,299.189 26.614 C 299.681 26.998,300.533 27.647,301.083 28.055 C 301.633 28.464,302.271 28.955,302.500 29.146 C 302.729 29.337,303.367 29.826,303.917 30.233 C 304.467 30.641,305.030 31.074,305.169 31.197 C 305.308 31.320,305.682 31.607,306.000 31.833 C 306.318 32.060,306.703 32.359,306.855 32.498 C 307.008 32.636,307.558 33.050,308.079 33.417 C 308.599 33.783,309.183 34.252,309.376 34.458 C 309.569 34.665,309.822 34.833,309.937 34.833 C 310.053 34.833,310.246 34.971,310.366 35.140 C 310.485 35.309,310.741 35.531,310.934 35.633 C 311.127 35.735,311.614 36.089,312.017 36.420 C 312.936 37.173,313.131 37.327,313.750 37.795 C 314.025 38.002,314.400 38.287,314.583 38.428 C 314.767 38.568,315.367 39.016,315.917 39.422 C 316.467 39.829,317.067 40.305,317.250 40.480 C 318.191 41.378,319.458 41.679,320.068 41.149 L 320.473 40.797 320.493 22.918 C 320.516 2.325,320.508 2.187,319.333 2.618 M121.934 2.782 C 120.736 3.104,120.161 6.658,120.918 9.065 C 121.300 10.279,120.162 10.193,136.357 10.233 C 151.847 10.272,150.924 10.194,152.279 11.583 C 153.654 12.992,153.938 15.249,152.875 16.315 C 152.748 16.442,152.532 16.717,152.395 16.926 C 152.259 17.135,151.698 17.535,151.149 17.816 L 150.151 18.327 136.068 18.337 C 126.233 18.344,121.864 18.403,121.584 18.530 C 120.653 18.954,120.660 18.859,120.707 30.510 C 120.754 42.257,120.717 41.851,121.697 41.384 C 121.910 41.283,122.571 41.074,123.167 40.920 C 124.793 40.499,127.441 38.862,127.942 37.967 C 128.221 37.468,128.251 36.962,128.261 32.583 C 128.271 28.435,128.426 26.145,128.720 25.798 C 128.737 25.779,134.112 25.723,140.667 25.673 C 152.272 25.586,152.603 25.574,153.333 25.238 C 153.746 25.048,154.402 24.755,154.792 24.588 C 155.181 24.420,155.500 24.228,155.500 24.162 C 155.500 24.095,155.712 23.953,155.972 23.845 C 156.700 23.543,159.131 20.944,159.610 19.955 C 159.842 19.476,160.141 18.878,160.274 18.628 C 160.407 18.377,160.596 17.702,160.694 17.128 C 160.792 16.553,160.938 16.012,161.019 15.925 C 161.215 15.715,161.209 13.075,161.012 12.706 C 160.927 12.547,160.776 11.967,160.677 11.417 C 160.360 9.667,159.150 7.592,157.590 6.128 C 156.326 4.940,156.212 4.851,155.453 4.459 C 155.066 4.260,154.660 4.009,154.551 3.902 C 154.441 3.796,153.841 3.574,153.217 3.410 C 152.594 3.246,151.978 3.030,151.849 2.931 C 151.611 2.746,122.605 2.603,121.934 2.782 M200.060 2.958 C 199.826 3.440,199.779 40.984,200.012 41.265 C 200.232 41.530,238.667 41.629,238.667 41.365 C 238.667 41.291,239.037 41.135,239.490 41.019 C 240.588 40.737,240.798 40.474,240.402 39.876 C 240.235 39.623,239.700 38.642,239.213 37.695 C 238.270 35.862,237.461 34.726,236.917 34.474 C 236.733 34.389,236.396 34.211,236.167 34.079 C 235.813 33.874,233.612 33.838,221.542 33.836 L 207.333 33.833 207.333 29.750 L 207.333 25.667 221.750 25.667 L 236.167 25.667 236.167 22.322 C 236.167 20.336,236.097 18.847,235.994 18.656 C 235.826 18.341,235.490 18.333,221.577 18.333 L 207.333 18.333 207.333 14.223 L 207.333 10.113 216.875 10.208 C 227.269 10.311,235.776 10.151,236.582 9.838 C 237.480 9.489,239.667 6.340,239.667 5.395 C 239.667 5.289,239.815 4.876,239.996 4.477 C 240.178 4.077,240.328 3.555,240.330 3.317 L 240.333 2.884 238.458 2.776 C 233.588 2.496,200.209 2.654,200.060 2.958 M376.083 2.774 C 375.717 2.812,375.267 2.909,375.083 2.991 C 374.900 3.072,374.019 3.300,373.125 3.498 C 372.231 3.696,371.500 3.920,371.500 3.996 C 371.500 4.073,371.080 4.268,370.567 4.429 C 370.054 4.590,369.548 4.808,369.442 4.913 C 369.337 5.018,368.894 5.281,368.458 5.498 C 368.023 5.715,367.667 5.938,367.667 5.994 C 367.667 6.049,367.423 6.236,367.125 6.409 C 366.487 6.780,366.289 6.951,364.750 8.467 C 363.036 10.155,361.674 11.950,361.306 13.007 C 361.211 13.278,361.072 13.500,360.997 13.500 C 360.922 13.500,360.732 13.894,360.575 14.375 C 360.419 14.856,360.159 15.550,359.998 15.917 C 359.837 16.283,359.582 17.333,359.432 18.250 C 359.281 19.167,359.085 20.279,358.996 20.721 C 358.790 21.738,358.790 22.472,358.995 23.373 C 359.084 23.764,359.279 24.871,359.429 25.833 C 359.579 26.796,359.801 27.742,359.923 27.935 C 360.044 28.128,360.267 28.710,360.417 29.227 C 360.567 29.744,360.779 30.260,360.887 30.375 C 360.995 30.490,361.251 30.940,361.456 31.375 C 361.661 31.810,361.897 32.167,361.980 32.167 C 362.063 32.167,362.173 32.335,362.226 32.542 C 362.342 33.000,364.274 35.355,365.224 36.197 C 365.605 36.534,366.077 36.954,366.272 37.129 C 366.468 37.305,366.918 37.625,367.272 37.841 C 367.627 38.056,367.954 38.282,368.000 38.343 C 368.183 38.585,371.104 40.004,371.618 40.101 C 371.920 40.157,372.167 40.262,372.167 40.332 C 372.167 40.508,373.292 40.764,375.083 40.995 C 375.908 41.102,376.846 41.263,377.167 41.353 C 377.825 41.539,397.906 41.446,399.208 41.251 L 400.000 41.133 400.000 29.989 L 400.000 18.845 399.625 18.631 C 399.187 18.381,382.638 18.243,378.917 18.458 L 376.750 18.583 376.701 19.522 C 376.669 20.131,376.728 20.541,376.870 20.689 C 376.991 20.814,377.236 21.246,377.414 21.649 C 377.593 22.052,377.821 22.465,377.920 22.566 C 378.019 22.667,378.267 23.095,378.470 23.517 C 378.673 23.939,379.127 24.595,379.477 24.976 L 380.115 25.667 386.391 25.667 L 392.667 25.667 392.667 29.761 L 392.667 33.855 384.208 33.791 C 375.988 33.729,374.671 33.647,374.333 33.181 C 374.287 33.118,373.892 32.932,373.455 32.768 C 373.018 32.604,372.568 32.380,372.455 32.270 C 372.342 32.161,371.972 31.901,371.633 31.693 C 370.693 31.119,368.333 28.548,368.333 28.099 C 368.333 28.028,368.183 27.778,368.000 27.545 C 367.816 27.312,367.555 26.746,367.419 26.289 C 367.283 25.831,367.092 25.361,366.994 25.243 C 366.520 24.672,366.500 19.705,366.969 19.111 C 367.054 19.004,367.255 18.504,367.416 18.000 C 367.577 17.496,367.800 16.971,367.910 16.833 C 368.020 16.696,368.306 16.246,368.545 15.833 C 369.273 14.580,372.447 11.667,373.086 11.667 C 373.149 11.667,373.569 11.482,374.018 11.257 C 375.832 10.346,376.684 10.272,385.750 10.243 C 394.058 10.216,396.069 10.097,396.368 9.610 C 396.433 9.504,396.719 9.117,397.003 8.750 C 397.793 7.732,398.667 6.291,398.668 6.006 C 398.668 5.865,398.787 5.525,398.932 5.250 C 399.366 4.425,399.441 3.081,399.062 2.913 C 398.751 2.774,377.348 2.645,376.083 2.774 M18.583 23.460 C 17.186 23.580,16.634 23.718,16.225 24.051 C 14.118 25.768,0.767 39.147,0.357 39.952 C -1.433 43.469,2.195 45.528,6.303 43.326 C 6.638 43.147,6.965 43.000,7.029 43.000 C 7.094 43.000,7.793 42.700,8.583 42.333 C 9.373 41.967,10.122 41.667,10.248 41.667 C 10.373 41.667,10.578 41.565,10.703 41.440 C 10.827 41.315,11.414 41.042,12.006 40.832 C 12.599 40.622,13.233 40.359,13.417 40.247 C 13.600 40.134,14.144 39.906,14.625 39.738 C 15.106 39.571,15.500 39.382,15.500 39.318 C 15.500 39.255,15.702 39.152,15.948 39.090 C 16.194 39.029,16.925 38.731,17.573 38.429 C 18.220 38.126,18.938 37.823,19.167 37.754 C 19.396 37.685,19.808 37.493,20.083 37.326 C 20.358 37.160,20.952 36.899,21.403 36.746 C 21.854 36.593,22.328 36.363,22.457 36.234 C 22.585 36.105,22.802 36.000,22.939 36.000 C 23.075 36.000,23.824 35.700,24.603 35.333 C 25.382 34.967,26.111 34.667,26.223 34.667 C 26.334 34.667,26.574 34.567,26.755 34.445 C 26.935 34.323,27.421 34.091,27.833 33.930 C 28.933 33.500,30.307 32.882,31.208 32.412 C 31.644 32.186,32.081 32.000,32.180 32.000 C 32.279 32.000,32.897 31.746,33.555 31.435 C 34.212 31.124,35.387 30.590,36.167 30.247 C 38.615 29.169,38.743 28.941,38.626 25.875 C 38.580 24.653,38.512 23.623,38.476 23.587 C 38.403 23.514,19.370 23.392,18.583 23.460 M41.581 23.670 C 41.102 24.446,41.326 28.464,41.882 29.058 C 42.183 29.379,44.606 30.667,44.909 30.667 C 44.955 30.667,45.625 30.967,46.397 31.333 C 47.169 31.700,47.915 32.000,48.055 32.000 C 48.195 32.000,48.415 32.105,48.543 32.234 C 48.672 32.363,49.146 32.593,49.597 32.746 C 50.048 32.899,50.642 33.160,50.917 33.326 C 51.192 33.493,51.604 33.685,51.833 33.754 C 52.063 33.823,52.775 34.122,53.417 34.419 C 54.058 34.716,54.767 35.016,54.992 35.085 C 55.217 35.154,55.491 35.301,55.601 35.411 C 55.711 35.521,56.221 35.743,56.734 35.904 C 57.247 36.066,57.667 36.254,57.667 36.322 C 57.667 36.391,57.976 36.540,58.353 36.653 C 58.731 36.766,59.471 37.078,59.999 37.346 C 60.526 37.614,61.003 37.833,61.059 37.833 C 61.114 37.833,61.720 38.096,62.405 38.417 C 63.091 38.737,63.697 39.000,63.753 39.000 C 63.809 39.000,64.244 39.177,64.719 39.393 C 65.194 39.608,65.864 39.876,66.206 39.988 C 66.548 40.100,66.868 40.255,66.917 40.333 C 66.965 40.412,67.285 40.567,67.627 40.679 C 67.970 40.790,68.790 41.133,69.451 41.441 C 70.111 41.748,70.751 42.000,70.872 42.000 C 70.993 42.000,71.240 42.102,71.421 42.228 C 71.602 42.353,72.237 42.630,72.833 42.843 C 73.429 43.057,73.954 43.277,74.000 43.333 C 74.964 44.512,79.060 44.481,79.687 43.290 C 79.795 43.085,79.959 42.867,80.052 42.807 C 80.331 42.625,80.403 40.929,80.143 40.655 C 80.019 40.524,79.812 40.213,79.683 39.964 C 79.326 39.271,77.956 37.831,72.810 32.740 C 66.146 26.145,64.351 24.424,64.075 24.363 C 63.942 24.333,63.833 24.236,63.833 24.146 C 63.833 23.529,41.958 23.061,41.581 23.670 " stroke="none" fill="#040404" fill-rule="evenodd"></path><path id="path1" d="" stroke="none" fill="#080404" fill-rule="evenodd"></path><path id="path2" d="" stroke="none" fill="#080404" fill-rule="evenodd"></path><path id="path3" d="" stroke="none" fill="#080404" fill-rule="evenodd"></path><path id="path4" d="" stroke="none" fill="#080404" fill-rule="evenodd"></path><path id="path5" d="" stroke="none" fill="#080404" fill-rule="evenodd"></path></g></svg>