<svg id="stroke" height="512" viewBox="0 0 64 64" width="512" xmlns="http://www.w3.org/2000/svg"><path d="m14.2 49.4-1.2 1.6v-30l1.2 1.6a1 1 0 0 0 1.6-1.2l-3-4a1.036 1.036 0 0 0 -1.6 0l-3 4a1 1 0 1 0 1.6 1.2l1.2-1.6v30l-1.2-1.6a1 1 0 0 0 -1.6 1.2l3 4a1 1 0 0 0 1.6 0l3-4a1 1 0 1 0 -1.6-1.2z"/><path d="m54.6 11.2-4-3a1 1 0 0 0 -1.2 1.6l1.6 1.2h-30l1.6-1.2a1 1 0 1 0 -1.2-1.6l-4 3a1 1 0 0 0 0 1.6l4 3a1 1 0 1 0 1.2-1.6l-1.6-1.2h30l-1.6 1.2a1 1 0 1 0 1.2 1.6l4-3a1 1 0 0 0 0-1.6z"/><path d="m54 17h-36a1 1 0 0 0 -1 1v36a1 1 0 0 0 1 1h36a1 1 0 0 0 1-1v-36a1 1 0 0 0 -1-1zm-35 36v-34h34v24h-3a8.009 8.009 0 0 0 -8 8 1 1 0 0 0 1 1h10v1zm34-3h-8.917a6.01 6.01 0 0 1 5.917-5h3z"/><path d="m37 43a1 1 0 0 1 -1-1v-8.513l-3.152 5.043a1.039 1.039 0 0 1 -1.7 0l-3.148-5.043v8.513a1 1 0 0 1 -2 0v-12a1 1 0 0 1 1.848-.53l4.152 6.643 4.152-6.643a1 1 0 0 1 1.848.53v12a1 1 0 0 1 -1 1z"/><path d="m44 29h-4a1 1 0 0 1 -1-1v-3a1 1 0 0 1 1-1h3v-1h-3a1 1 0 0 1 0-2h4a1 1 0 0 1 1 1v3a1 1 0 0 1 -1 1h-3v1h3a1 1 0 0 1 0 2z"/></svg>