<?xml version="1.0" encoding="UTF-8" standalone="no"?>
<!-- Created with Inkscape (http://www.inkscape.org/) -->

<svg
   version="1.1"
   id="svg2091"
   xml:space="preserve"
   width="682.66669"
   height="682.66669"
   viewBox="0 0 682.66669 682.66669"
   xmlns="http://www.w3.org/2000/svg"
   xmlns:svg="http://www.w3.org/2000/svg"><defs
     id="defs2095"><clipPath
       clipPathUnits="userSpaceOnUse"
       id="clipPath2117"><path
         d="M 0,512 H 512 V 0 H 0 Z"
         id="path2115" /></clipPath></defs><g
     id="g2097"
     transform="matrix(1.3333333,0,0,-1.3333333,0,682.66667)"><g
       id="g2099"
       transform="translate(299.7544,302.6616)"><path
         d="M 0,0 H 162.641"
         style="fill:none;stroke:#000000;stroke-width:15;stroke-linecap:round;stroke-linejoin:round;stroke-miterlimit:10;stroke-dasharray:none;stroke-opacity:1"
         id="path2101" /></g><g
       id="g2103"
       transform="translate(299.7544,246.4932)"><path
         d="M 0,0 H 162.641"
         style="fill:none;stroke:#000000;stroke-width:15;stroke-linecap:round;stroke-linejoin:round;stroke-miterlimit:10;stroke-dasharray:none;stroke-opacity:1"
         id="path2105" /></g><g
       id="g2107"
       transform="translate(299.7544,190.3242)"><path
         d="M 0,0 H 162.641"
         style="fill:none;stroke:#000000;stroke-width:15;stroke-linecap:round;stroke-linejoin:round;stroke-miterlimit:10;stroke-dasharray:none;stroke-opacity:1"
         id="path2109" /></g><g
       id="g2111"><g
         id="g2113"
         clip-path="url(#clipPath2117)"><g
           id="g2119"
           transform="translate(375.5068,111.3574)"><path
             d="m 0,0 c 0,23.994 19.451,43.444 43.444,43.444 23.994,0 43.444,-19.45 43.444,-43.444 0,-23.994 -19.45,-43.444 -43.444,-43.444 C 19.451,-43.444 0,-23.994 0,0 Z"
             style="fill:none;stroke:#000000;stroke-width:15;stroke-linecap:round;stroke-linejoin:round;stroke-miterlimit:10;stroke-dasharray:none;stroke-opacity:1"
             id="path2121" /></g><g
           id="g2123"
           transform="translate(256,425.522)"><path
             d="m 0,0 v 0 c -8.284,0 -15,6.716 -15,15 0,8.284 6.716,15 15,15 C 8.284,30 15,23.284 15,15 15,6.716 8.284,0 0,0 Z"
             style="fill:none;stroke:#000000;stroke-width:15;stroke-linecap:round;stroke-linejoin:round;stroke-miterlimit:10;stroke-dasharray:none;stroke-opacity:1"
             id="path2125" /></g><g
           id="g2127"
           transform="translate(256,339.8052)"><path
             d="m 0,0 v 0 c -23.205,0 -42.017,18.812 -42.017,42.017 v 92.264 c 0,5.523 4.477,10 10,10 h 64.034 c 5.523,0 10,-4.477 10,-10 V 42.017 C 42.017,18.812 23.205,0 0,0 Z"
             style="fill:none;stroke:#000000;stroke-width:15;stroke-linecap:round;stroke-linejoin:round;stroke-miterlimit:10;stroke-dasharray:none;stroke-opacity:1"
             id="path2129" /></g><g
           id="g2131"
           transform="translate(153.6714,155.7603)"><path
             d="m 0,0 v 0 c -23.249,0 -42.096,18.847 -42.096,42.096 v 16.71 c 0,23.249 18.847,42.095 42.096,42.095 23.249,0 42.096,-18.846 42.096,-42.095 V 42.096 C 42.096,18.847 23.249,0 0,0 Z"
             style="fill:none;stroke:#000000;stroke-width:15;stroke-linecap:round;stroke-linejoin:round;stroke-miterlimit:10;stroke-dasharray:none;stroke-opacity:1"
             id="path2133" /></g><g
           id="g2135"
           transform="translate(201.0488,146.7603)"><path
             d="M 0,0 H -26.655 V -9.278 C -26.655,-20.722 -35.933,-30 -47.377,-30 -58.822,-30 -68.1,-20.722 -68.1,-9.278 V 0 h -26.655 c -13.808,0 -25,-11.193 -25,-25 V -78.847 H 25 V -25 C 25,-11.193 13.807,0 0,0 Z"
             style="fill:none;stroke:#000000;stroke-width:15;stroke-linecap:round;stroke-linejoin:round;stroke-miterlimit:10;stroke-dasharray:none;stroke-opacity:1"
             id="path2137" /></g><g
           id="g2139"
           transform="translate(153.6714,155.7603)"><path
             d="M 0,0 V 0 C -7.536,0 -14.604,1.99 -20.723,5.458 V -18.278 C -20.723,-29.722 -11.445,-39 0,-39 c 11.445,0 20.723,9.278 20.723,20.722 V 5.458 C 14.604,1.99 7.536,0 0,0 Z"
             style="fill:none;stroke:#000000;stroke-width:15;stroke-linecap:round;stroke-linejoin:round;stroke-miterlimit:10;stroke-dasharray:none;stroke-opacity:1"
             id="path2141" /></g><g
           id="g2143"
           transform="translate(212.1104,302.6616)"><path
             d="M 0,0 H 45.627 V -234.748 H -162.505 V 0 h 129.818"
             style="fill:none;stroke:#000000;stroke-width:15;stroke-linecap:round;stroke-linejoin:round;stroke-miterlimit:10;stroke-dasharray:none;stroke-opacity:1"
             id="path2145" /></g><g
           id="g2147"
           transform="translate(7.5,190.3247)"><path
             d="m 0,0 v -137.411 c 0,-13.807 11.193,-25 25,-25 h 288.931"
             style="fill:none;stroke:#000000;stroke-width:15;stroke-linecap:round;stroke-linejoin:round;stroke-miterlimit:10;stroke-dasharray:none;stroke-opacity:1"
             id="path2149" /></g><g
           id="g2151"
           transform="translate(354.1177,27.9136)"><path
             d="m 0,0 h 125.382 c 13.807,0 25,11.193 25,25 v 314.335 c 0,13.807 -11.193,25 -25,25 H -56.101 v -10.427 c 0,-23.205 -18.812,-42.016 -42.017,-42.016 -23.205,0 -42.016,18.811 -42.016,42.016 v 10.427 h -181.484 c -13.807,0 -25,-11.193 -25,-25 V 194.641"
             style="fill:none;stroke:#000000;stroke-width:15;stroke-linecap:round;stroke-linejoin:round;stroke-miterlimit:10;stroke-dasharray:none;stroke-opacity:1"
             id="path2153" /></g><g
           id="g2155"
           transform="translate(407.2988,99.7056)"><path
             d="M 0,0 23.304,23.304"
             style="fill:none;stroke:#000000;stroke-width:15;stroke-linecap:round;stroke-linejoin:round;stroke-miterlimit:10;stroke-dasharray:none;stroke-opacity:1"
             id="path2157" /></g></g></g></g></svg>
