<svg id="Layer_1" enable-background="new 0 0 500 500" viewBox="0 0 500 500" xmlns="http://www.w3.org/2000/svg"><path clip-rule="evenodd" d="m285.903 276.556h-139.116c-4.609 0-8.362-3.719-8.362-8.339v-62.999l61.15 32.795c10.823 5.78 22.716 5.778 33.545 0l61.139-32.795v62.999c.001 4.62-3.741 8.339-8.356 8.339zm-139.116-105.655c-4.609 0-8.362 3.719-8.362 8.339v10.819l67.462 36.12c6.841 3.663 14.07 3.663 20.917 0l67.456-36.12v-10.819c0-4.621-3.742-8.339-8.357-8.339zm41.778-26.034c0-2.93 2.395-5.297 5.342-5.297h44.877c2.947 0 5.336 2.367 5.336 5.297v12.622h-55.555zm97.338 12.623h-28.406v-12.622c0-10.312-8.39-18.708-18.714-18.708h-44.877c-10.318 0-18.719 8.396-18.719 18.708v12.622h-28.4c-11.98 0-21.734 9.748-21.734 21.751v88.976c0 12.002 9.754 21.751 21.734 21.751h139.116c11.985 0 21.728-9.748 21.728-21.751v-88.977c0-12.002-9.742-21.75-21.728-21.75zm35.906 164.371c57.15-57.138 57.15-150.115 0-207.253-57.182-57.171-150.086-57.179-207.282 0-57.272 57.255-57.272 149.999 0 207.253 57.196 57.178 150.1 57.17 207.282 0zm9.461-216.72c-62.368-62.379-163.836-62.379-226.204 0-62.488 62.488-62.511 163.705 0 226.187 62.382 62.353 163.829 62.355 226.204 0 62.362-62.379 62.362-163.808 0-226.187zm125.028 324.348-26.856 26.879c-1.275 1.28-3.431 1.283-4.705 0l-52.963-52.968c-1.29-1.295-1.291-3.439 0-4.733l26.856-26.822c1.248-1.291 3.466-1.283 4.717 0l52.951 52.969c1.285 1.237 1.285 3.435 0 4.675zm-104.562-77.706c1.718-1.69 3.398-3.437 5.038-5.24l24.112 24.118-10.289 10.255-24.101-24.061c1.763-1.691 3.522-3.326 5.24-5.072zm-257.675-9.467c68.588 68.67 179.617 68.626 248.214 0 68.442-68.408 68.442-179.755 0-248.163-68.61-68.64-179.597-68.644-248.214 0-68.436 68.408-68.436 179.755 0 248.163zm371.698 73.029-52.963-52.968c-6.12-6.142-15.84-6.48-22.399-1.127l-24.861-24.85c59.511-74.1 54.918-183.023-13.8-251.713-73.842-73.821-193.295-73.839-267.136 0-73.654 73.649-73.654 193.448 0 267.096 35.681 35.669 83.116 55.335 133.565 55.335 43.513 0 84.761-14.595 118.182-41.53l24.85 24.85c-5.4 6.625-4.969 16.337 1.116 22.427l52.963 52.969c6.458 6.47 17.166 6.469 23.627 0l26.856-26.879c6.509-6.48 6.509-17.13 0-23.61z" fill-rule="evenodd"/></svg>