<?xml version="1.0" encoding="UTF-8" standalone="no"?>
<!-- Created with Inkscape (http://www.inkscape.org/) -->

<svg
   version="1.1"
   id="svg2688"
   xml:space="preserve"
   width="682.66669"
   height="682.66669"
   viewBox="0 0 682.66669 682.66669"
   xmlns="http://www.w3.org/2000/svg"
   xmlns:svg="http://www.w3.org/2000/svg"><defs
     id="defs2692"><clipPath
       clipPathUnits="userSpaceOnUse"
       id="clipPath2702"><path
         d="M 0,512 H 512 V 0 H 0 Z"
         id="path2700" /></clipPath><clipPath
       clipPathUnits="userSpaceOnUse"
       id="clipPath2734"><path
         d="M 0,512 H 512 V 0 H 0 Z"
         id="path2732" /></clipPath><clipPath
       clipPathUnits="userSpaceOnUse"
       id="clipPath2758"><path
         d="M 0,512 H 512 V 0 H 0 Z"
         id="path2756" /></clipPath></defs><g
     id="g2694"
     transform="matrix(1.3333333,0,0,-1.3333333,0,682.66667)"><g
       id="g2696"><g
         id="g2698"
         clip-path="url(#clipPath2702)"><g
           id="g2704"
           transform="translate(497,199.7666)"><path
             d="M 0,0 H -48.2"
             style="fill:none;stroke:#000000;stroke-width:30;stroke-linecap:round;stroke-linejoin:round;stroke-miterlimit:10;stroke-dasharray:none;stroke-opacity:1"
             id="path2706" /></g><g
           id="g2708"
           transform="translate(464.7124,320.2666)"><path
             d="M 0,0 -41.743,-24.1"
             style="fill:none;stroke:#000000;stroke-width:30;stroke-linecap:round;stroke-linejoin:round;stroke-miterlimit:10;stroke-dasharray:none;stroke-opacity:1"
             id="path2710" /></g><g
           id="g2712"
           transform="translate(464.7124,79.2666)"><path
             d="M 0,0 -41.743,24.1"
             style="fill:none;stroke:#000000;stroke-width:30;stroke-linecap:round;stroke-linejoin:round;stroke-miterlimit:10;stroke-dasharray:none;stroke-opacity:1"
             id="path2714" /></g></g></g><g
       id="g2716"
       transform="translate(376.5,408.4805)"><path
         d="M 0,0 -24.1,-41.741"
         style="fill:none;stroke:#000000;stroke-width:30;stroke-linecap:round;stroke-linejoin:round;stroke-miterlimit:10;stroke-dasharray:none;stroke-opacity:1"
         id="path2718" /></g><g
       id="g2720"
       transform="translate(256,440.7666)"><path
         d="M 0,0 V -48.2"
         style="fill:none;stroke:#000000;stroke-width:30;stroke-linecap:round;stroke-linejoin:round;stroke-miterlimit:10;stroke-dasharray:none;stroke-opacity:1"
         id="path2722" /></g><g
       id="g2724"
       transform="translate(304.2002,71.2334)"><path
         d="M 0,0 H -96.4"
         style="fill:none;stroke:#000000;stroke-width:30;stroke-linecap:round;stroke-linejoin:round;stroke-miterlimit:10;stroke-dasharray:none;stroke-opacity:1"
         id="path2726" /></g><g
       id="g2728"><g
         id="g2730"
         clip-path="url(#clipPath2734)"><g
           id="g2736"
           transform="translate(15,199.7666)"><path
             d="M 0,0 H 48.2"
             style="fill:none;stroke:#000000;stroke-width:30;stroke-linecap:round;stroke-linejoin:round;stroke-miterlimit:10;stroke-dasharray:none;stroke-opacity:1"
             id="path2738" /></g><g
           id="g2740"
           transform="translate(47.2876,320.2666)"><path
             d="M 0,0 41.743,-24.1"
             style="fill:none;stroke:#000000;stroke-width:30;stroke-linecap:round;stroke-linejoin:round;stroke-miterlimit:10;stroke-dasharray:none;stroke-opacity:1"
             id="path2742" /></g><g
           id="g2744"
           transform="translate(47.2876,79.2666)"><path
             d="M 0,0 41.743,24.1"
             style="fill:none;stroke:#000000;stroke-width:30;stroke-linecap:round;stroke-linejoin:round;stroke-miterlimit:10;stroke-dasharray:none;stroke-opacity:1"
             id="path2746" /></g></g></g><g
       id="g2748"
       transform="translate(135.5,408.4805)"><path
         d="M 0,0 24.1,-41.741"
         style="fill:none;stroke:#000000;stroke-width:30;stroke-linecap:round;stroke-linejoin:round;stroke-miterlimit:10;stroke-dasharray:none;stroke-opacity:1"
         id="path2750" /></g><g
       id="g2752"><g
         id="g2754"
         clip-path="url(#clipPath2758)"><g
           id="g2760"
           transform="translate(233.2783,222.4854)"><path
             d="m 0,0 c 12.54,12.548 32.903,12.548 45.443,0 12.541,-12.54 12.541,-32.896 0,-45.437 C 32.903,-57.977 12.54,-57.977 0,-45.437 -12.541,-32.896 -12.541,-12.54 0,0 Z"
             style="fill:none;stroke:#000000;stroke-width:30;stroke-linecap:round;stroke-linejoin:round;stroke-miterlimit:10;stroke-dasharray:none;stroke-opacity:1"
             id="path2762" /></g><g
           id="g2764"
           transform="translate(153.7524,302.0146)"><path
             d="M 0,0 79.526,-79.529"
             style="fill:none;stroke:#000000;stroke-width:30;stroke-linecap:round;stroke-linejoin:round;stroke-miterlimit:10;stroke-dasharray:none;stroke-opacity:1"
             id="path2766" /></g><g
           id="g2768"
           transform="translate(278.7217,177.0488)"><path
             d="M 0,0 25.479,-25.482"
             style="fill:none;stroke:#000000;stroke-width:30;stroke-linecap:round;stroke-linejoin:round;stroke-miterlimit:10;stroke-dasharray:none;stroke-opacity:1"
             id="path2770" /></g><g
           id="g2772"
           transform="translate(47.2861,79.2666)"><path
             d="m 0,0 c -20.532,35.459 -32.286,76.614 -32.286,120.5 0,133.016 107.988,241 241,241 133.012,0 241,-107.984 241,-241 0,-43.886 -11.755,-85.041 -32.286,-120.5"
             style="fill:none;stroke:#000000;stroke-width:30;stroke-linecap:round;stroke-linejoin:round;stroke-miterlimit:10;stroke-dasharray:none;stroke-opacity:1"
             id="path2774" /></g></g></g></g></svg>
